<svg id="card-terminal" xmlns="http://www.w3.org/2000/svg" width="48" height="48" viewBox="0 0 48 48">
  <path id="Trazado_57597" data-name="Trazado 57597" d="M24.6,17.3H5.4a.945.945,0,0,0-1,1V28a.945.945,0,0,0,1,1H24.6a.945.945,0,0,0,1-1V18.3A1,1,0,0,0,24.6,17.3Zm-1,9.7H6.4V19.3H23.6ZM8.5,32h-2a1,1,0,0,0,0,2h2a.945.945,0,0,0,1-1A1,1,0,0,0,8.5,32ZM16,32H14a1,1,0,0,0,0,2h2a1,1,0,0,0,0-2Zm7.5,0h-2a1,1,0,0,0,0,2h2a1,1,0,0,0,0-2Zm-15,4.5h-2a1,1,0,0,0,0,2h2a.945.945,0,0,0,1-1A1.075,1.075,0,0,0,8.5,36.5Zm7.5,0H14a1,1,0,0,0,0,2h2a.945.945,0,0,0,1-1A1,1,0,0,0,16,36.5Zm7.5,0h-2a1,1,0,0,0,0,2h2a.945.945,0,0,0,1-1A1,1,0,0,0,23.5,36.5Zm-15,4.6h-2a1,1,0,0,0,0,2h2a.945.945,0,0,0,1-1A1,1,0,0,0,8.5,41.1Zm7.5,0H14a1,1,0,0,0,0,2h2a1,1,0,0,0,0-2Zm7.5,0h-2a1,1,0,0,0,0,2h2a1,1,0,1,0,0-2Z" fill="#010002"/>
  <path id="Trazado_57598" data-name="Trazado 57598" d="M45,22H30V11a2.946,2.946,0,0,0-3-3H24V6h3.7a.945.945,0,0,0,1-1V3.3A3.329,3.329,0,0,0,25.4,0H9A2.946,2.946,0,0,0,6,3V8H3a2.946,2.946,0,0,0-3,3V45a2.946,2.946,0,0,0,3,3H27a2.946,2.946,0,0,0,3-3V43.8H45a2.946,2.946,0,0,0,3-3V25A3.009,3.009,0,0,0,45,22ZM24,3.3a1.3,1.3,0,1,1,2.6,0V4H24ZM8,3A.945.945,0,0,1,9,2H22.3A3.079,3.079,0,0,0,22,3.3V13H8ZM28,42.8V45a.945.945,0,0,1-1,1H3a.945.945,0,0,1-1-1V11a.945.945,0,0,1,1-1H6v3.1H5.4a1,1,0,0,0,0,2H24.6a1,1,0,0,0,0-2H24V10h3a.945.945,0,0,1,1,1Zm10.2-1H30V24h8.2Zm7.8-1a.945.945,0,0,1-1,1H40.2V24H45a.945.945,0,0,1,1,1Z" fill="#010002"/>
</svg>
