<svg width="752" height="849" viewBox="0 0 752 849" fill="none" xmlns="http://www.w3.org/2000/svg">
<rect x="0.869934" y="0.786621" width="750.531" height="848.278" fill="#EBF0FE"/>
<g opacity="0.15">
<mask id="mask0_75_5804" style="mask-type:alpha" maskUnits="userSpaceOnUse" x="0" y="0" width="752" height="850">
<rect x="0.869934" y="0.786621" width="750.531" height="848.278" fill="#EBF0FE"/>
</mask>
<g mask="url(#mask0_75_5804)">
<path d="M-1.56522 -47.2006C1.3432 -47.2006 40.7104 -47.2006 92.86 -47.2006C145.01 -47.2006 187.285 -47.2006 187.285 -47.2006C187.285 4.94899 145.01 47.2246 92.86 47.2246C40.7104 47.2246 -1.56522 4.94899 -1.56522 -47.2006Z" fill="url(#paint0_linear_75_5804)"/>
<path d="M187.285 141.65C184.377 141.65 145.01 141.65 92.8602 141.65C40.7106 141.65 -1.565 141.65 -1.565 141.65C-1.565 89.5002 40.7106 47.2246 92.8602 47.2246C145.01 47.2246 187.285 89.5002 187.285 141.65Z" fill="url(#paint1_linear_75_5804)"/>
<path d="M-1.56522 141.65C1.3432 141.65 40.7104 141.65 92.86 141.65C145.01 141.65 187.285 141.65 187.285 141.65C187.285 193.8 145.01 236.075 92.86 236.075C40.7104 236.075 -1.56522 193.8 -1.56522 141.65Z" fill="url(#paint2_linear_75_5804)"/>
<path d="M187.286 -47.2006C190.194 -47.2006 229.561 -47.2006 281.711 -47.2006C333.86 -47.2006 376.136 -47.2006 376.136 -47.2006C376.136 4.94899 333.86 47.2246 281.711 47.2246C229.561 47.2246 187.286 4.94899 187.286 -47.2006Z" fill="url(#paint3_linear_75_5804)"/>
<path d="M376.136 141.65C373.227 141.65 333.86 141.65 281.711 141.65C229.561 141.65 187.285 141.65 187.285 141.65C187.285 89.5002 229.561 47.2246 281.711 47.2246C333.86 47.2246 376.136 89.5002 376.136 141.65Z" fill="url(#paint4_linear_75_5804)"/>
<path d="M187.286 141.65C190.194 141.65 229.561 141.65 281.711 141.65C333.86 141.65 376.136 141.65 376.136 141.65C376.136 193.8 333.86 236.075 281.711 236.075C229.561 236.075 187.286 193.8 187.286 141.65Z" fill="url(#paint5_linear_75_5804)"/>
<path d="M376.136 -47.2006C379.044 -47.2006 418.411 -47.2006 470.561 -47.2006C522.71 -47.2006 564.986 -47.2006 564.986 -47.2006C564.986 4.94899 522.71 47.2246 470.561 47.2246C418.411 47.2246 376.136 4.94899 376.136 -47.2006Z" fill="url(#paint6_linear_75_5804)"/>
<path d="M564.987 141.65C562.078 141.65 522.711 141.65 470.561 141.65C418.412 141.65 376.136 141.65 376.136 141.65C376.136 89.5002 418.412 47.2246 470.561 47.2246C522.711 47.2246 564.987 89.5002 564.987 141.65Z" fill="url(#paint7_linear_75_5804)"/>
<path d="M376.136 141.65C379.044 141.65 418.411 141.65 470.561 141.65C522.71 141.65 564.986 141.65 564.986 141.65C564.986 193.8 522.71 236.075 470.561 236.075C418.411 236.075 376.136 193.8 376.136 141.65Z" fill="url(#paint8_linear_75_5804)"/>
<path d="M564.986 -47.2006C567.895 -47.2006 607.262 -47.2006 659.412 -47.2006C711.561 -47.2006 753.837 -47.2006 753.837 -47.2006C753.837 4.94899 711.561 47.2246 659.412 47.2246C607.262 47.2246 564.986 4.94899 564.986 -47.2006Z" fill="url(#paint9_linear_75_5804)"/>
<path d="M753.837 141.65C750.929 141.65 711.561 141.65 659.412 141.65C607.262 141.65 564.987 141.65 564.987 141.65C564.987 89.5002 607.262 47.2246 659.412 47.2246C711.561 47.2246 753.837 89.5002 753.837 141.65Z" fill="url(#paint10_linear_75_5804)"/>
<path d="M564.986 141.65C567.895 141.65 607.262 141.65 659.412 141.65C711.561 141.65 753.837 141.65 753.837 141.65C753.837 193.8 711.561 236.075 659.412 236.075C607.262 236.075 564.986 193.8 564.986 141.65Z" fill="url(#paint11_linear_75_5804)"/>
<path d="M187.285 330.501C184.377 330.501 145.01 330.501 92.8602 330.501C40.7106 330.501 -1.565 330.501 -1.565 330.501C-1.565 278.351 40.7106 236.075 92.8602 236.075C145.01 236.075 187.285 278.351 187.285 330.501Z" fill="url(#paint12_linear_75_5804)"/>
<path d="M-1.56522 330.501C1.3432 330.501 40.7104 330.501 92.86 330.501C145.01 330.501 187.285 330.501 187.285 330.501C187.285 382.65 145.01 424.926 92.86 424.926C40.7104 424.926 -1.56522 382.65 -1.56522 330.501Z" fill="url(#paint13_linear_75_5804)"/>
<path d="M187.285 519.351C184.377 519.351 145.01 519.351 92.8602 519.351C40.7106 519.351 -1.565 519.351 -1.565 519.351C-1.565 467.201 40.7106 424.926 92.8602 424.926C145.01 424.926 187.285 467.201 187.285 519.351Z" fill="url(#paint14_linear_75_5804)"/>
<path d="M-1.56522 519.352C1.3432 519.352 40.7104 519.352 92.86 519.352C145.01 519.352 187.285 519.352 187.285 519.352C187.285 571.501 145.01 613.777 92.86 613.777C40.7104 613.777 -1.56522 571.501 -1.56522 519.352Z" fill="url(#paint15_linear_75_5804)"/>
<path d="M376.136 330.501C373.227 330.501 333.86 330.501 281.711 330.501C229.561 330.501 187.285 330.501 187.285 330.501C187.285 278.351 229.561 236.075 281.711 236.075C333.86 236.075 376.136 278.351 376.136 330.501Z" fill="url(#paint16_linear_75_5804)"/>
<path d="M187.286 330.501C190.194 330.501 229.561 330.501 281.711 330.501C333.86 330.501 376.136 330.501 376.136 330.501C376.136 382.65 333.86 424.926 281.711 424.926C229.561 424.926 187.286 382.65 187.286 330.501Z" fill="url(#paint17_linear_75_5804)"/>
<path d="M376.136 519.351C373.227 519.351 333.86 519.351 281.711 519.351C229.561 519.351 187.285 519.351 187.285 519.351C187.285 467.201 229.561 424.926 281.711 424.926C333.86 424.926 376.136 467.201 376.136 519.351Z" fill="url(#paint18_linear_75_5804)"/>
<path d="M187.286 519.352C190.194 519.352 229.561 519.352 281.711 519.352C333.86 519.352 376.136 519.352 376.136 519.352C376.136 571.501 333.86 613.777 281.711 613.777C229.561 613.777 187.286 571.501 187.286 519.352Z" fill="url(#paint19_linear_75_5804)"/>
<path d="M564.987 330.501C562.078 330.501 522.711 330.501 470.561 330.501C418.412 330.501 376.136 330.501 376.136 330.501C376.136 278.351 418.412 236.075 470.561 236.075C522.711 236.075 564.987 278.351 564.987 330.501Z" fill="url(#paint20_linear_75_5804)"/>
<path d="M376.136 330.501C379.044 330.501 418.411 330.501 470.561 330.501C522.71 330.501 564.986 330.501 564.986 330.501C564.986 382.65 522.71 424.926 470.561 424.926C418.411 424.926 376.136 382.65 376.136 330.501Z" fill="url(#paint21_linear_75_5804)"/>
<path d="M564.987 519.351C562.078 519.351 522.711 519.351 470.561 519.351C418.412 519.351 376.136 519.351 376.136 519.351C376.136 467.201 418.412 424.926 470.561 424.926C522.711 424.926 564.987 467.201 564.987 519.351Z" fill="url(#paint22_linear_75_5804)"/>
<path d="M376.136 519.352C379.044 519.352 418.411 519.352 470.561 519.352C522.71 519.352 564.986 519.352 564.986 519.352C564.986 571.501 522.71 613.777 470.561 613.777C418.411 613.777 376.136 571.501 376.136 519.352Z" fill="url(#paint23_linear_75_5804)"/>
<path d="M753.837 330.501C750.929 330.501 711.561 330.501 659.412 330.501C607.262 330.501 564.987 330.501 564.987 330.501C564.987 278.351 607.262 236.075 659.412 236.075C711.561 236.075 753.837 278.351 753.837 330.501Z" fill="url(#paint24_linear_75_5804)"/>
<path d="M564.986 330.501C567.895 330.501 607.262 330.501 659.412 330.501C711.561 330.501 753.837 330.501 753.837 330.501C753.837 382.65 711.561 424.926 659.412 424.926C607.262 424.926 564.986 382.65 564.986 330.501Z" fill="url(#paint25_linear_75_5804)"/>
<path d="M753.837 519.351C750.929 519.351 711.561 519.351 659.412 519.351C607.262 519.351 564.987 519.351 564.987 519.351C564.987 467.201 607.262 424.926 659.412 424.926C711.561 424.926 753.837 467.201 753.837 519.351Z" fill="url(#paint26_linear_75_5804)"/>
<path d="M564.986 519.352C567.895 519.352 607.262 519.352 659.412 519.352C711.561 519.352 753.837 519.352 753.837 519.352C753.837 571.501 711.561 613.777 659.412 613.777C607.262 613.777 564.986 571.501 564.986 519.352Z" fill="url(#paint27_linear_75_5804)"/>
<path d="M-1.56522 -47.2006C1.3432 -47.2006 40.7104 -47.2006 92.86 -47.2006C145.01 -47.2006 187.285 -47.2006 187.285 -47.2006C187.285 4.94899 145.01 47.2246 92.86 47.2246C40.7104 47.2246 -1.56522 4.94899 -1.56522 -47.2006Z" fill="url(#paint28_linear_75_5804)"/>
<path d="M187.285 141.65C184.377 141.65 145.01 141.65 92.8602 141.65C40.7106 141.65 -1.565 141.65 -1.565 141.65C-1.565 89.5002 40.7106 47.2246 92.8602 47.2246C145.01 47.2246 187.285 89.5002 187.285 141.65Z" fill="url(#paint29_linear_75_5804)"/>
<path d="M-1.56522 141.65C1.3432 141.65 40.7104 141.65 92.86 141.65C145.01 141.65 187.285 141.65 187.285 141.65C187.285 193.8 145.01 236.075 92.86 236.075C40.7104 236.075 -1.56522 193.8 -1.56522 141.65Z" fill="url(#paint30_linear_75_5804)"/>
<path d="M187.286 -47.2006C190.194 -47.2006 229.561 -47.2006 281.711 -47.2006C333.86 -47.2006 376.136 -47.2006 376.136 -47.2006C376.136 4.94899 333.86 47.2246 281.711 47.2246C229.561 47.2246 187.286 4.94899 187.286 -47.2006Z" fill="url(#paint31_linear_75_5804)"/>
<path d="M376.136 141.65C373.227 141.65 333.86 141.65 281.711 141.65C229.561 141.65 187.285 141.65 187.285 141.65C187.285 89.5002 229.561 47.2246 281.711 47.2246C333.86 47.2246 376.136 89.5002 376.136 141.65Z" fill="url(#paint32_linear_75_5804)"/>
<path d="M187.286 141.65C190.194 141.65 229.561 141.65 281.711 141.65C333.86 141.65 376.136 141.65 376.136 141.65C376.136 193.8 333.86 236.075 281.711 236.075C229.561 236.075 187.286 193.8 187.286 141.65Z" fill="url(#paint33_linear_75_5804)"/>
<path d="M376.136 -47.2006C379.044 -47.2006 418.411 -47.2006 470.561 -47.2006C522.71 -47.2006 564.986 -47.2006 564.986 -47.2006C564.986 4.94899 522.71 47.2246 470.561 47.2246C418.411 47.2246 376.136 4.94899 376.136 -47.2006Z" fill="url(#paint34_linear_75_5804)"/>
<path d="M564.987 141.65C562.078 141.65 522.711 141.65 470.561 141.65C418.412 141.65 376.136 141.65 376.136 141.65C376.136 89.5002 418.412 47.2246 470.561 47.2246C522.711 47.2246 564.987 89.5002 564.987 141.65Z" fill="url(#paint35_linear_75_5804)"/>
<path d="M376.136 141.65C379.044 141.65 418.411 141.65 470.561 141.65C522.71 141.65 564.986 141.65 564.986 141.65C564.986 193.8 522.71 236.075 470.561 236.075C418.411 236.075 376.136 193.8 376.136 141.65Z" fill="url(#paint36_linear_75_5804)"/>
<path d="M564.986 -47.2006C567.895 -47.2006 607.262 -47.2006 659.412 -47.2006C711.561 -47.2006 753.837 -47.2006 753.837 -47.2006C753.837 4.94899 711.561 47.2246 659.412 47.2246C607.262 47.2246 564.986 4.94899 564.986 -47.2006Z" fill="url(#paint37_linear_75_5804)"/>
<path d="M753.837 141.65C750.929 141.65 711.561 141.65 659.412 141.65C607.262 141.65 564.987 141.65 564.987 141.65C564.987 89.5002 607.262 47.2246 659.412 47.2246C711.561 47.2246 753.837 89.5002 753.837 141.65Z" fill="url(#paint38_linear_75_5804)"/>
<path d="M564.986 141.65C567.895 141.65 607.262 141.65 659.412 141.65C711.561 141.65 753.837 141.65 753.837 141.65C753.837 193.8 711.561 236.075 659.412 236.075C607.262 236.075 564.986 193.8 564.986 141.65Z" fill="url(#paint39_linear_75_5804)"/>
<path d="M187.285 330.501C184.377 330.501 145.01 330.501 92.8602 330.501C40.7106 330.501 -1.565 330.501 -1.565 330.501C-1.565 278.351 40.7106 236.075 92.8602 236.075C145.01 236.075 187.285 278.351 187.285 330.501Z" fill="url(#paint40_linear_75_5804)"/>
<path d="M-1.56522 330.501C1.3432 330.501 40.7104 330.501 92.86 330.501C145.01 330.501 187.285 330.501 187.285 330.501C187.285 382.65 145.01 424.926 92.86 424.926C40.7104 424.926 -1.56522 382.65 -1.56522 330.501Z" fill="url(#paint41_linear_75_5804)"/>
<path d="M187.285 519.351C184.377 519.351 145.01 519.351 92.8602 519.351C40.7106 519.351 -1.565 519.351 -1.565 519.351C-1.565 467.201 40.7106 424.926 92.8602 424.926C145.01 424.926 187.285 467.201 187.285 519.351Z" fill="url(#paint42_linear_75_5804)"/>
<path d="M-1.56522 519.352C1.3432 519.352 40.7104 519.352 92.86 519.352C145.01 519.352 187.285 519.352 187.285 519.352C187.285 571.501 145.01 613.777 92.86 613.777C40.7104 613.777 -1.56522 571.501 -1.56522 519.352Z" fill="url(#paint43_linear_75_5804)"/>
<path d="M376.136 330.501C373.227 330.501 333.86 330.501 281.711 330.501C229.561 330.501 187.285 330.501 187.285 330.501C187.285 278.351 229.561 236.075 281.711 236.075C333.86 236.075 376.136 278.351 376.136 330.501Z" fill="url(#paint44_linear_75_5804)"/>
<path d="M187.286 330.501C190.194 330.501 229.561 330.501 281.711 330.501C333.86 330.501 376.136 330.501 376.136 330.501C376.136 382.65 333.86 424.926 281.711 424.926C229.561 424.926 187.286 382.65 187.286 330.501Z" fill="url(#paint45_linear_75_5804)"/>
<path d="M376.136 519.351C373.227 519.351 333.86 519.351 281.711 519.351C229.561 519.351 187.285 519.351 187.285 519.351C187.285 467.201 229.561 424.926 281.711 424.926C333.86 424.926 376.136 467.201 376.136 519.351Z" fill="url(#paint46_linear_75_5804)"/>
<path d="M187.286 519.352C190.194 519.352 229.561 519.352 281.711 519.352C333.86 519.352 376.136 519.352 376.136 519.352C376.136 571.501 333.86 613.777 281.711 613.777C229.561 613.777 187.286 571.501 187.286 519.352Z" fill="url(#paint47_linear_75_5804)"/>
<path d="M564.987 330.501C562.078 330.501 522.711 330.501 470.561 330.501C418.412 330.501 376.136 330.501 376.136 330.501C376.136 278.351 418.412 236.075 470.561 236.075C522.711 236.075 564.987 278.351 564.987 330.501Z" fill="url(#paint48_linear_75_5804)"/>
<path d="M376.136 330.501C379.044 330.501 418.411 330.501 470.561 330.501C522.71 330.501 564.986 330.501 564.986 330.501C564.986 382.65 522.71 424.926 470.561 424.926C418.411 424.926 376.136 382.65 376.136 330.501Z" fill="url(#paint49_linear_75_5804)"/>
<path d="M564.987 519.351C562.078 519.351 522.711 519.351 470.561 519.351C418.412 519.351 376.136 519.351 376.136 519.351C376.136 467.201 418.412 424.926 470.561 424.926C522.711 424.926 564.987 467.201 564.987 519.351Z" fill="url(#paint50_linear_75_5804)"/>
<path d="M376.136 519.352C379.044 519.352 418.411 519.352 470.561 519.352C522.71 519.352 564.986 519.352 564.986 519.352C564.986 571.501 522.71 613.777 470.561 613.777C418.411 613.777 376.136 571.501 376.136 519.352Z" fill="url(#paint51_linear_75_5804)"/>
<path d="M753.837 330.501C750.929 330.501 711.561 330.501 659.412 330.501C607.262 330.501 564.987 330.501 564.987 330.501C564.987 278.351 607.262 236.075 659.412 236.075C711.561 236.075 753.837 278.351 753.837 330.501Z" fill="url(#paint52_linear_75_5804)"/>
<path d="M564.986 330.501C567.895 330.501 607.262 330.501 659.412 330.501C711.561 330.501 753.837 330.501 753.837 330.501C753.837 382.65 711.561 424.926 659.412 424.926C607.262 424.926 564.986 382.65 564.986 330.501Z" fill="url(#paint53_linear_75_5804)"/>
<path d="M753.837 519.351C750.929 519.351 711.561 519.351 659.412 519.351C607.262 519.351 564.987 519.351 564.987 519.351C564.987 467.201 607.262 424.926 659.412 424.926C711.561 424.926 753.837 467.201 753.837 519.351Z" fill="url(#paint54_linear_75_5804)"/>
<path d="M564.986 519.352C567.895 519.352 607.262 519.352 659.412 519.352C711.561 519.352 753.837 519.352 753.837 519.352C753.837 571.501 711.561 613.777 659.412 613.777C607.262 613.777 564.986 571.501 564.986 519.352Z" fill="url(#paint55_linear_75_5804)"/>
<path d="M187.285 708.202C184.377 708.202 145.01 708.202 92.8602 708.202C40.7106 708.202 -1.565 708.202 -1.565 708.202C-1.565 656.052 40.7106 613.777 92.8602 613.777C145.01 613.777 187.285 656.052 187.285 708.202Z" fill="url(#paint56_linear_75_5804)"/>
<path d="M-1.56522 708.202C1.3432 708.202 40.7104 708.202 92.86 708.202C145.01 708.202 187.285 708.202 187.285 708.202C187.285 760.352 145.01 802.627 92.86 802.627C40.7104 802.627 -1.56522 760.352 -1.56522 708.202Z" fill="url(#paint57_linear_75_5804)"/>
<path d="M187.285 897.053C184.377 897.053 145.01 897.053 92.8602 897.053C40.7106 897.053 -1.565 897.053 -1.565 897.053C-1.565 844.903 40.7106 802.627 92.8602 802.627C145.01 802.627 187.285 844.903 187.285 897.053Z" fill="url(#paint58_linear_75_5804)"/>
<path d="M376.136 708.202C373.227 708.202 333.86 708.202 281.711 708.202C229.561 708.202 187.285 708.202 187.285 708.202C187.285 656.052 229.561 613.777 281.711 613.777C333.86 613.777 376.136 656.052 376.136 708.202Z" fill="url(#paint59_linear_75_5804)"/>
<path d="M187.286 708.202C190.194 708.202 229.561 708.202 281.711 708.202C333.86 708.202 376.136 708.202 376.136 708.202C376.136 760.352 333.86 802.627 281.711 802.627C229.561 802.627 187.286 760.352 187.286 708.202Z" fill="url(#paint60_linear_75_5804)"/>
<path d="M376.136 897.053C373.227 897.053 333.86 897.053 281.711 897.053C229.561 897.053 187.285 897.053 187.285 897.053C187.285 844.903 229.561 802.627 281.711 802.627C333.86 802.627 376.136 844.903 376.136 897.053Z" fill="url(#paint61_linear_75_5804)"/>
<path d="M564.987 708.202C562.078 708.202 522.711 708.202 470.561 708.202C418.412 708.202 376.136 708.202 376.136 708.202C376.136 656.052 418.412 613.777 470.561 613.777C522.711 613.777 564.987 656.052 564.987 708.202Z" fill="url(#paint62_linear_75_5804)"/>
<path d="M376.136 708.202C379.044 708.202 418.411 708.202 470.561 708.202C522.71 708.202 564.986 708.202 564.986 708.202C564.986 760.352 522.71 802.627 470.561 802.627C418.411 802.627 376.136 760.352 376.136 708.202Z" fill="url(#paint63_linear_75_5804)"/>
<path d="M564.987 897.053C562.078 897.053 522.711 897.053 470.561 897.053C418.412 897.053 376.136 897.053 376.136 897.053C376.136 844.903 418.412 802.627 470.561 802.627C522.711 802.627 564.987 844.903 564.987 897.053Z" fill="url(#paint64_linear_75_5804)"/>
<path d="M753.837 708.202C750.929 708.202 711.561 708.202 659.412 708.202C607.262 708.202 564.987 708.202 564.987 708.202C564.987 656.052 607.262 613.777 659.412 613.777C711.561 613.777 753.837 656.052 753.837 708.202Z" fill="url(#paint65_linear_75_5804)"/>
<path d="M564.986 708.202C567.895 708.202 607.262 708.202 659.412 708.202C711.561 708.202 753.837 708.202 753.837 708.202C753.837 760.352 711.561 802.627 659.412 802.627C607.262 802.627 564.986 760.352 564.986 708.202Z" fill="url(#paint66_linear_75_5804)"/>
<path d="M753.837 897.053C750.929 897.053 711.561 897.053 659.412 897.053C607.262 897.053 564.987 897.053 564.987 897.053C564.987 844.903 607.262 802.627 659.412 802.627C711.561 802.627 753.837 844.903 753.837 897.053Z" fill="url(#paint67_linear_75_5804)"/>
<path d="M187.285 708.202C184.377 708.202 145.01 708.202 92.8602 708.202C40.7106 708.202 -1.565 708.202 -1.565 708.202C-1.565 656.052 40.7106 613.777 92.8602 613.777C145.01 613.777 187.285 656.052 187.285 708.202Z" fill="url(#paint68_linear_75_5804)"/>
<path d="M-1.56522 708.202C1.3432 708.202 40.7104 708.202 92.86 708.202C145.01 708.202 187.285 708.202 187.285 708.202C187.285 760.352 145.01 802.627 92.86 802.627C40.7104 802.627 -1.56522 760.352 -1.56522 708.202Z" fill="url(#paint69_linear_75_5804)"/>
<path d="M187.285 897.053C184.377 897.053 145.01 897.053 92.8602 897.053C40.7106 897.053 -1.565 897.053 -1.565 897.053C-1.565 844.903 40.7106 802.627 92.8602 802.627C145.01 802.627 187.285 844.903 187.285 897.053Z" fill="url(#paint70_linear_75_5804)"/>
<path d="M376.136 708.202C373.227 708.202 333.86 708.202 281.711 708.202C229.561 708.202 187.285 708.202 187.285 708.202C187.285 656.052 229.561 613.777 281.711 613.777C333.86 613.777 376.136 656.052 376.136 708.202Z" fill="url(#paint71_linear_75_5804)"/>
<path d="M187.286 708.202C190.194 708.202 229.561 708.202 281.711 708.202C333.86 708.202 376.136 708.202 376.136 708.202C376.136 760.352 333.86 802.627 281.711 802.627C229.561 802.627 187.286 760.352 187.286 708.202Z" fill="url(#paint72_linear_75_5804)"/>
<path d="M376.136 897.053C373.227 897.053 333.86 897.053 281.711 897.053C229.561 897.053 187.285 897.053 187.285 897.053C187.285 844.903 229.561 802.627 281.711 802.627C333.86 802.627 376.136 844.903 376.136 897.053Z" fill="url(#paint73_linear_75_5804)"/>
<path d="M564.987 708.202C562.078 708.202 522.711 708.202 470.561 708.202C418.412 708.202 376.136 708.202 376.136 708.202C376.136 656.052 418.412 613.777 470.561 613.777C522.711 613.777 564.987 656.052 564.987 708.202Z" fill="url(#paint74_linear_75_5804)"/>
<path d="M376.136 708.202C379.044 708.202 418.411 708.202 470.561 708.202C522.71 708.202 564.986 708.202 564.986 708.202C564.986 760.352 522.71 802.627 470.561 802.627C418.411 802.627 376.136 760.352 376.136 708.202Z" fill="url(#paint75_linear_75_5804)"/>
<path d="M564.987 897.053C562.078 897.053 522.711 897.053 470.561 897.053C418.412 897.053 376.136 897.053 376.136 897.053C376.136 844.903 418.412 802.627 470.561 802.627C522.711 802.627 564.987 844.903 564.987 897.053Z" fill="url(#paint76_linear_75_5804)"/>
<path d="M753.837 708.202C750.929 708.202 711.561 708.202 659.412 708.202C607.262 708.202 564.987 708.202 564.987 708.202C564.987 656.052 607.262 613.777 659.412 613.777C711.561 613.777 753.837 656.052 753.837 708.202Z" fill="url(#paint77_linear_75_5804)"/>
<path d="M564.986 708.202C567.895 708.202 607.262 708.202 659.412 708.202C711.561 708.202 753.837 708.202 753.837 708.202C753.837 760.352 711.561 802.627 659.412 802.627C607.262 802.627 564.986 760.352 564.986 708.202Z" fill="url(#paint78_linear_75_5804)"/>
<path d="M753.837 897.053C750.929 897.053 711.561 897.053 659.412 897.053C607.262 897.053 564.987 897.053 564.987 897.053C564.987 844.903 607.262 802.627 659.412 802.627C711.561 802.627 753.837 844.903 753.837 897.053Z" fill="url(#paint79_linear_75_5804)"/>
</g>
</g>
<defs>
<linearGradient id="paint0_linear_75_5804" x1="165.685" y1="39.3552" x2="74.3413" y2="-55.5398" gradientUnits="userSpaceOnUse">
<stop stop-color="#7395F8"/>
<stop offset="1" stop-color="white"/>
</linearGradient>
<linearGradient id="paint1_linear_75_5804" x1="20.0358" y1="55.0941" x2="111.379" y2="149.989" gradientUnits="userSpaceOnUse">
<stop stop-color="#7395F8"/>
<stop offset="1" stop-color="white"/>
</linearGradient>
<linearGradient id="paint2_linear_75_5804" x1="165.685" y1="228.206" x2="74.3413" y2="133.311" gradientUnits="userSpaceOnUse">
<stop stop-color="#7395F8"/>
<stop offset="1" stop-color="white"/>
</linearGradient>
<linearGradient id="paint3_linear_75_5804" x1="354.535" y1="39.3552" x2="263.192" y2="-55.5398" gradientUnits="userSpaceOnUse">
<stop stop-color="#7395F8"/>
<stop offset="1" stop-color="white"/>
</linearGradient>
<linearGradient id="paint4_linear_75_5804" x1="208.886" y1="55.0941" x2="300.229" y2="149.989" gradientUnits="userSpaceOnUse">
<stop stop-color="#7395F8"/>
<stop offset="1" stop-color="white"/>
</linearGradient>
<linearGradient id="paint5_linear_75_5804" x1="354.535" y1="228.206" x2="263.192" y2="133.311" gradientUnits="userSpaceOnUse">
<stop stop-color="#7395F8"/>
<stop offset="1" stop-color="white"/>
</linearGradient>
<linearGradient id="paint6_linear_75_5804" x1="543.385" y1="39.3552" x2="452.042" y2="-55.5398" gradientUnits="userSpaceOnUse">
<stop stop-color="#7395F8"/>
<stop offset="1" stop-color="white"/>
</linearGradient>
<linearGradient id="paint7_linear_75_5804" x1="397.737" y1="55.0941" x2="489.08" y2="149.989" gradientUnits="userSpaceOnUse">
<stop stop-color="#7395F8"/>
<stop offset="1" stop-color="white"/>
</linearGradient>
<linearGradient id="paint8_linear_75_5804" x1="543.385" y1="228.206" x2="452.042" y2="133.311" gradientUnits="userSpaceOnUse">
<stop stop-color="#7395F8"/>
<stop offset="1" stop-color="white"/>
</linearGradient>
<linearGradient id="paint9_linear_75_5804" x1="732.236" y1="39.3552" x2="640.893" y2="-55.5398" gradientUnits="userSpaceOnUse">
<stop stop-color="#7395F8"/>
<stop offset="1" stop-color="white"/>
</linearGradient>
<linearGradient id="paint10_linear_75_5804" x1="586.587" y1="55.0941" x2="677.931" y2="149.989" gradientUnits="userSpaceOnUse">
<stop stop-color="#7395F8"/>
<stop offset="1" stop-color="white"/>
</linearGradient>
<linearGradient id="paint11_linear_75_5804" x1="732.236" y1="228.206" x2="640.893" y2="133.311" gradientUnits="userSpaceOnUse">
<stop stop-color="#7395F8"/>
<stop offset="1" stop-color="white"/>
</linearGradient>
<linearGradient id="paint12_linear_75_5804" x1="20.0358" y1="243.945" x2="111.379" y2="338.84" gradientUnits="userSpaceOnUse">
<stop stop-color="#7395F8"/>
<stop offset="1" stop-color="white"/>
</linearGradient>
<linearGradient id="paint13_linear_75_5804" x1="165.685" y1="417.056" x2="74.3413" y2="322.161" gradientUnits="userSpaceOnUse">
<stop stop-color="#7395F8"/>
<stop offset="1" stop-color="white"/>
</linearGradient>
<linearGradient id="paint14_linear_75_5804" x1="20.0358" y1="432.795" x2="111.379" y2="527.69" gradientUnits="userSpaceOnUse">
<stop stop-color="#7395F8"/>
<stop offset="1" stop-color="white"/>
</linearGradient>
<linearGradient id="paint15_linear_75_5804" x1="165.685" y1="605.907" x2="74.3413" y2="511.012" gradientUnits="userSpaceOnUse">
<stop stop-color="#7395F8"/>
<stop offset="1" stop-color="white"/>
</linearGradient>
<linearGradient id="paint16_linear_75_5804" x1="208.886" y1="243.945" x2="300.229" y2="338.84" gradientUnits="userSpaceOnUse">
<stop stop-color="#7395F8"/>
<stop offset="1" stop-color="white"/>
</linearGradient>
<linearGradient id="paint17_linear_75_5804" x1="354.535" y1="417.056" x2="263.192" y2="322.161" gradientUnits="userSpaceOnUse">
<stop stop-color="#7395F8"/>
<stop offset="1" stop-color="white"/>
</linearGradient>
<linearGradient id="paint18_linear_75_5804" x1="208.886" y1="432.795" x2="300.229" y2="527.69" gradientUnits="userSpaceOnUse">
<stop stop-color="#7395F8"/>
<stop offset="1" stop-color="white"/>
</linearGradient>
<linearGradient id="paint19_linear_75_5804" x1="354.535" y1="605.907" x2="263.192" y2="511.012" gradientUnits="userSpaceOnUse">
<stop stop-color="#7395F8"/>
<stop offset="1" stop-color="white"/>
</linearGradient>
<linearGradient id="paint20_linear_75_5804" x1="397.737" y1="243.945" x2="489.08" y2="338.84" gradientUnits="userSpaceOnUse">
<stop stop-color="#7395F8"/>
<stop offset="1" stop-color="white"/>
</linearGradient>
<linearGradient id="paint21_linear_75_5804" x1="543.385" y1="417.056" x2="452.042" y2="322.161" gradientUnits="userSpaceOnUse">
<stop stop-color="#7395F8"/>
<stop offset="1" stop-color="white"/>
</linearGradient>
<linearGradient id="paint22_linear_75_5804" x1="397.737" y1="432.795" x2="489.08" y2="527.69" gradientUnits="userSpaceOnUse">
<stop stop-color="#7395F8"/>
<stop offset="1" stop-color="white"/>
</linearGradient>
<linearGradient id="paint23_linear_75_5804" x1="543.385" y1="605.907" x2="452.042" y2="511.012" gradientUnits="userSpaceOnUse">
<stop stop-color="#7395F8"/>
<stop offset="1" stop-color="white"/>
</linearGradient>
<linearGradient id="paint24_linear_75_5804" x1="586.587" y1="243.945" x2="677.931" y2="338.84" gradientUnits="userSpaceOnUse">
<stop stop-color="#7395F8"/>
<stop offset="1" stop-color="white"/>
</linearGradient>
<linearGradient id="paint25_linear_75_5804" x1="732.236" y1="417.056" x2="640.893" y2="322.161" gradientUnits="userSpaceOnUse">
<stop stop-color="#7395F8"/>
<stop offset="1" stop-color="white"/>
</linearGradient>
<linearGradient id="paint26_linear_75_5804" x1="586.587" y1="432.795" x2="677.931" y2="527.69" gradientUnits="userSpaceOnUse">
<stop stop-color="#7395F8"/>
<stop offset="1" stop-color="white"/>
</linearGradient>
<linearGradient id="paint27_linear_75_5804" x1="732.236" y1="605.907" x2="640.893" y2="511.012" gradientUnits="userSpaceOnUse">
<stop stop-color="#7395F8"/>
<stop offset="1" stop-color="white"/>
</linearGradient>
<linearGradient id="paint28_linear_75_5804" x1="165.685" y1="39.3552" x2="74.3413" y2="-55.5398" gradientUnits="userSpaceOnUse">
<stop stop-color="#7395F8"/>
<stop offset="1" stop-color="white"/>
</linearGradient>
<linearGradient id="paint29_linear_75_5804" x1="20.0358" y1="55.0941" x2="111.379" y2="149.989" gradientUnits="userSpaceOnUse">
<stop stop-color="#7395F8"/>
<stop offset="1" stop-color="white"/>
</linearGradient>
<linearGradient id="paint30_linear_75_5804" x1="165.685" y1="228.206" x2="74.3413" y2="133.311" gradientUnits="userSpaceOnUse">
<stop stop-color="#7395F8"/>
<stop offset="1" stop-color="white"/>
</linearGradient>
<linearGradient id="paint31_linear_75_5804" x1="354.535" y1="39.3552" x2="263.192" y2="-55.5398" gradientUnits="userSpaceOnUse">
<stop stop-color="#7395F8"/>
<stop offset="1" stop-color="white"/>
</linearGradient>
<linearGradient id="paint32_linear_75_5804" x1="208.886" y1="55.0941" x2="300.229" y2="149.989" gradientUnits="userSpaceOnUse">
<stop stop-color="#7395F8"/>
<stop offset="1" stop-color="white"/>
</linearGradient>
<linearGradient id="paint33_linear_75_5804" x1="354.535" y1="228.206" x2="263.192" y2="133.311" gradientUnits="userSpaceOnUse">
<stop stop-color="#7395F8"/>
<stop offset="1" stop-color="white"/>
</linearGradient>
<linearGradient id="paint34_linear_75_5804" x1="543.385" y1="39.3552" x2="452.042" y2="-55.5398" gradientUnits="userSpaceOnUse">
<stop stop-color="#7395F8"/>
<stop offset="1" stop-color="white"/>
</linearGradient>
<linearGradient id="paint35_linear_75_5804" x1="397.737" y1="55.0941" x2="489.08" y2="149.989" gradientUnits="userSpaceOnUse">
<stop stop-color="#7395F8"/>
<stop offset="1" stop-color="white"/>
</linearGradient>
<linearGradient id="paint36_linear_75_5804" x1="543.385" y1="228.206" x2="452.042" y2="133.311" gradientUnits="userSpaceOnUse">
<stop stop-color="#7395F8"/>
<stop offset="1" stop-color="white"/>
</linearGradient>
<linearGradient id="paint37_linear_75_5804" x1="732.236" y1="39.3552" x2="640.893" y2="-55.5398" gradientUnits="userSpaceOnUse">
<stop stop-color="#7395F8"/>
<stop offset="1" stop-color="white"/>
</linearGradient>
<linearGradient id="paint38_linear_75_5804" x1="586.587" y1="55.0941" x2="677.931" y2="149.989" gradientUnits="userSpaceOnUse">
<stop stop-color="#7395F8"/>
<stop offset="1" stop-color="white"/>
</linearGradient>
<linearGradient id="paint39_linear_75_5804" x1="732.236" y1="228.206" x2="640.893" y2="133.311" gradientUnits="userSpaceOnUse">
<stop stop-color="#7395F8"/>
<stop offset="1" stop-color="white"/>
</linearGradient>
<linearGradient id="paint40_linear_75_5804" x1="20.0358" y1="243.945" x2="111.379" y2="338.84" gradientUnits="userSpaceOnUse">
<stop stop-color="#7395F8"/>
<stop offset="1" stop-color="white"/>
</linearGradient>
<linearGradient id="paint41_linear_75_5804" x1="165.685" y1="417.056" x2="74.3413" y2="322.161" gradientUnits="userSpaceOnUse">
<stop stop-color="#7395F8"/>
<stop offset="1" stop-color="white"/>
</linearGradient>
<linearGradient id="paint42_linear_75_5804" x1="20.0358" y1="432.795" x2="111.379" y2="527.69" gradientUnits="userSpaceOnUse">
<stop stop-color="#7395F8"/>
<stop offset="1" stop-color="white"/>
</linearGradient>
<linearGradient id="paint43_linear_75_5804" x1="165.685" y1="605.907" x2="74.3413" y2="511.012" gradientUnits="userSpaceOnUse">
<stop stop-color="#7395F8"/>
<stop offset="1" stop-color="white"/>
</linearGradient>
<linearGradient id="paint44_linear_75_5804" x1="208.886" y1="243.945" x2="300.229" y2="338.84" gradientUnits="userSpaceOnUse">
<stop stop-color="#7395F8"/>
<stop offset="1" stop-color="white"/>
</linearGradient>
<linearGradient id="paint45_linear_75_5804" x1="354.535" y1="417.056" x2="263.192" y2="322.161" gradientUnits="userSpaceOnUse">
<stop stop-color="#7395F8"/>
<stop offset="1" stop-color="white"/>
</linearGradient>
<linearGradient id="paint46_linear_75_5804" x1="208.886" y1="432.795" x2="300.229" y2="527.69" gradientUnits="userSpaceOnUse">
<stop stop-color="#7395F8"/>
<stop offset="1" stop-color="white"/>
</linearGradient>
<linearGradient id="paint47_linear_75_5804" x1="354.535" y1="605.907" x2="263.192" y2="511.012" gradientUnits="userSpaceOnUse">
<stop stop-color="#7395F8"/>
<stop offset="1" stop-color="white"/>
</linearGradient>
<linearGradient id="paint48_linear_75_5804" x1="397.737" y1="243.945" x2="489.08" y2="338.84" gradientUnits="userSpaceOnUse">
<stop stop-color="#7395F8"/>
<stop offset="1" stop-color="white"/>
</linearGradient>
<linearGradient id="paint49_linear_75_5804" x1="543.385" y1="417.056" x2="452.042" y2="322.161" gradientUnits="userSpaceOnUse">
<stop stop-color="#7395F8"/>
<stop offset="1" stop-color="white"/>
</linearGradient>
<linearGradient id="paint50_linear_75_5804" x1="397.737" y1="432.795" x2="489.08" y2="527.69" gradientUnits="userSpaceOnUse">
<stop stop-color="#7395F8"/>
<stop offset="1" stop-color="white"/>
</linearGradient>
<linearGradient id="paint51_linear_75_5804" x1="543.385" y1="605.907" x2="452.042" y2="511.012" gradientUnits="userSpaceOnUse">
<stop stop-color="#7395F8"/>
<stop offset="1" stop-color="white"/>
</linearGradient>
<linearGradient id="paint52_linear_75_5804" x1="586.587" y1="243.945" x2="677.931" y2="338.84" gradientUnits="userSpaceOnUse">
<stop stop-color="#7395F8"/>
<stop offset="1" stop-color="white"/>
</linearGradient>
<linearGradient id="paint53_linear_75_5804" x1="732.236" y1="417.056" x2="640.893" y2="322.161" gradientUnits="userSpaceOnUse">
<stop stop-color="#7395F8"/>
<stop offset="1" stop-color="white"/>
</linearGradient>
<linearGradient id="paint54_linear_75_5804" x1="586.587" y1="432.795" x2="677.931" y2="527.69" gradientUnits="userSpaceOnUse">
<stop stop-color="#7395F8"/>
<stop offset="1" stop-color="white"/>
</linearGradient>
<linearGradient id="paint55_linear_75_5804" x1="732.236" y1="605.907" x2="640.893" y2="511.012" gradientUnits="userSpaceOnUse">
<stop stop-color="#7395F8"/>
<stop offset="1" stop-color="white"/>
</linearGradient>
<linearGradient id="paint56_linear_75_5804" x1="20.0358" y1="621.646" x2="111.379" y2="716.541" gradientUnits="userSpaceOnUse">
<stop stop-color="#7395F8"/>
<stop offset="1" stop-color="white"/>
</linearGradient>
<linearGradient id="paint57_linear_75_5804" x1="165.685" y1="794.758" x2="74.3413" y2="699.863" gradientUnits="userSpaceOnUse">
<stop stop-color="#7395F8"/>
<stop offset="1" stop-color="white"/>
</linearGradient>
<linearGradient id="paint58_linear_75_5804" x1="20.0358" y1="810.497" x2="111.379" y2="905.392" gradientUnits="userSpaceOnUse">
<stop stop-color="#7395F8"/>
<stop offset="1" stop-color="white"/>
</linearGradient>
<linearGradient id="paint59_linear_75_5804" x1="208.886" y1="621.646" x2="300.229" y2="716.541" gradientUnits="userSpaceOnUse">
<stop stop-color="#7395F8"/>
<stop offset="1" stop-color="white"/>
</linearGradient>
<linearGradient id="paint60_linear_75_5804" x1="354.535" y1="794.758" x2="263.192" y2="699.863" gradientUnits="userSpaceOnUse">
<stop stop-color="#7395F8"/>
<stop offset="1" stop-color="white"/>
</linearGradient>
<linearGradient id="paint61_linear_75_5804" x1="208.886" y1="810.497" x2="300.229" y2="905.392" gradientUnits="userSpaceOnUse">
<stop stop-color="#7395F8"/>
<stop offset="1" stop-color="white"/>
</linearGradient>
<linearGradient id="paint62_linear_75_5804" x1="397.737" y1="621.646" x2="489.08" y2="716.541" gradientUnits="userSpaceOnUse">
<stop stop-color="#7395F8"/>
<stop offset="1" stop-color="white"/>
</linearGradient>
<linearGradient id="paint63_linear_75_5804" x1="543.385" y1="794.758" x2="452.042" y2="699.863" gradientUnits="userSpaceOnUse">
<stop stop-color="#7395F8"/>
<stop offset="1" stop-color="white"/>
</linearGradient>
<linearGradient id="paint64_linear_75_5804" x1="397.737" y1="810.497" x2="489.08" y2="905.392" gradientUnits="userSpaceOnUse">
<stop stop-color="#7395F8"/>
<stop offset="1" stop-color="white"/>
</linearGradient>
<linearGradient id="paint65_linear_75_5804" x1="586.587" y1="621.646" x2="677.931" y2="716.541" gradientUnits="userSpaceOnUse">
<stop stop-color="#7395F8"/>
<stop offset="1" stop-color="white"/>
</linearGradient>
<linearGradient id="paint66_linear_75_5804" x1="732.236" y1="794.758" x2="640.893" y2="699.863" gradientUnits="userSpaceOnUse">
<stop stop-color="#7395F8"/>
<stop offset="1" stop-color="white"/>
</linearGradient>
<linearGradient id="paint67_linear_75_5804" x1="586.587" y1="810.497" x2="677.931" y2="905.392" gradientUnits="userSpaceOnUse">
<stop stop-color="#7395F8"/>
<stop offset="1" stop-color="white"/>
</linearGradient>
<linearGradient id="paint68_linear_75_5804" x1="20.0358" y1="621.646" x2="111.379" y2="716.541" gradientUnits="userSpaceOnUse">
<stop stop-color="#7395F8"/>
<stop offset="1" stop-color="white"/>
</linearGradient>
<linearGradient id="paint69_linear_75_5804" x1="165.685" y1="794.758" x2="74.3413" y2="699.863" gradientUnits="userSpaceOnUse">
<stop stop-color="#7395F8"/>
<stop offset="1" stop-color="white"/>
</linearGradient>
<linearGradient id="paint70_linear_75_5804" x1="20.0358" y1="810.497" x2="111.379" y2="905.392" gradientUnits="userSpaceOnUse">
<stop stop-color="#7395F8"/>
<stop offset="1" stop-color="white"/>
</linearGradient>
<linearGradient id="paint71_linear_75_5804" x1="208.886" y1="621.646" x2="300.229" y2="716.541" gradientUnits="userSpaceOnUse">
<stop stop-color="#7395F8"/>
<stop offset="1" stop-color="white"/>
</linearGradient>
<linearGradient id="paint72_linear_75_5804" x1="354.535" y1="794.758" x2="263.192" y2="699.863" gradientUnits="userSpaceOnUse">
<stop stop-color="#7395F8"/>
<stop offset="1" stop-color="white"/>
</linearGradient>
<linearGradient id="paint73_linear_75_5804" x1="208.886" y1="810.497" x2="300.229" y2="905.392" gradientUnits="userSpaceOnUse">
<stop stop-color="#7395F8"/>
<stop offset="1" stop-color="white"/>
</linearGradient>
<linearGradient id="paint74_linear_75_5804" x1="397.737" y1="621.646" x2="489.08" y2="716.541" gradientUnits="userSpaceOnUse">
<stop stop-color="#7395F8"/>
<stop offset="1" stop-color="white"/>
</linearGradient>
<linearGradient id="paint75_linear_75_5804" x1="543.385" y1="794.758" x2="452.042" y2="699.863" gradientUnits="userSpaceOnUse">
<stop stop-color="#7395F8"/>
<stop offset="1" stop-color="white"/>
</linearGradient>
<linearGradient id="paint76_linear_75_5804" x1="397.737" y1="810.497" x2="489.08" y2="905.392" gradientUnits="userSpaceOnUse">
<stop stop-color="#7395F8"/>
<stop offset="1" stop-color="white"/>
</linearGradient>
<linearGradient id="paint77_linear_75_5804" x1="586.587" y1="621.646" x2="677.931" y2="716.541" gradientUnits="userSpaceOnUse">
<stop stop-color="#7395F8"/>
<stop offset="1" stop-color="white"/>
</linearGradient>
<linearGradient id="paint78_linear_75_5804" x1="732.236" y1="794.758" x2="640.893" y2="699.863" gradientUnits="userSpaceOnUse">
<stop stop-color="#7395F8"/>
<stop offset="1" stop-color="white"/>
</linearGradient>
<linearGradient id="paint79_linear_75_5804" x1="586.587" y1="810.497" x2="677.931" y2="905.392" gradientUnits="userSpaceOnUse">
<stop stop-color="#7395F8"/>
<stop offset="1" stop-color="white"/>
</linearGradient>
</defs>
</svg>
