<svg xmlns="http://www.w3.org/2000/svg" width="19" height="22" viewBox="0 0 19 22" fill="none">
<path d="M13.4021 0.646668H2.23452C1.98999 0.646489 1.74782 0.694522 1.52186 0.788019C1.29591 0.881516 1.0906 1.01864 0.91769 1.19155C0.744778 1.36447 0.607651 1.56977 0.514154 1.79573C0.420657 2.02168 0.372624 2.26385 0.372803 2.50839V15.5377H2.23452V2.50839H13.4021V0.646668ZM16.194 4.36875H5.95661C5.71207 4.36857 5.4699 4.4166 5.24395 4.5101C5.01799 4.6036 4.81269 4.74072 4.63977 4.91364C4.46686 5.08655 4.32973 5.29185 4.23624 5.51781C4.14274 5.74376 4.09471 5.98594 4.09489 6.23047V19.2598C4.09471 19.5043 4.14274 19.7465 4.23624 19.9725C4.32973 20.1984 4.46686 20.4037 4.63977 20.5766C4.81269 20.7495 5.01799 20.8867 5.24395 20.9802C5.4699 21.0737 5.71207 21.1217 5.95661 21.1215H16.194C16.6872 21.1208 17.1599 20.9243 17.5082 20.5752C17.8566 20.2261 18.052 19.753 18.0517 19.2598V6.23047C18.052 5.73731 17.8566 5.26418 17.5082 4.91508C17.1599 4.56598 16.6872 4.36947 16.194 4.36875ZM16.194 19.2598H5.95661V6.23047H16.194V19.2598Z" fill="#1C1C1C"/>
</svg>
