<svg xmlns="http://www.w3.org/2000/svg" width="19" height="22" viewBox="0 0 19 22" fill="none">
<path d="M13.4021 0.956605H2.23452C1.98999 0.956426 1.74782 1.00446 1.52186 1.09796C1.29591 1.19145 1.0906 1.32858 0.91769 1.50149C0.744778 1.6744 0.607651 1.87971 0.514154 2.10566C0.420657 2.33162 0.372624 2.57379 0.372803 2.81833V15.8477H2.23452V2.81833H13.4021V0.956605ZM16.194 4.67869H5.95661C5.71207 4.67851 5.4699 4.72654 5.24395 4.82004C5.01799 4.91353 4.81269 5.05066 4.63977 5.22357C4.46686 5.39649 4.32973 5.60179 4.23624 5.82775C4.14274 6.0537 4.09471 6.29587 4.09489 6.54041V19.5697C4.09471 19.8143 4.14274 20.0564 4.23624 20.2824C4.32973 20.5084 4.46686 20.7137 4.63977 20.8866C4.81269 21.0595 5.01799 21.1966 5.24395 21.2901C5.4699 21.3836 5.71207 21.4316 5.95661 21.4315H16.194C16.6872 21.4307 17.1599 21.2342 17.5082 20.8851C17.8566 20.536 18.052 20.0629 18.0517 19.5697V6.54041C18.052 6.04724 17.8566 5.57412 17.5082 5.22502C17.1599 4.87591 16.6872 4.67941 16.194 4.67869ZM16.194 19.5697H5.95661V6.54041H16.194V19.5697Z" fill="#1C1C1C"/>
</svg>
