<svg xmlns="http://www.w3.org/2000/svg" width="22" height="22" viewBox="0 0 22 22" fill="none">
<path d="M8.50093 14.5254C8.5389 14.5301 8.57686 14.5396 8.61957 14.5444C8.66228 14.5491 8.70024 14.5539 8.7382 14.5586C8.77617 14.5634 8.81888 14.5681 8.85684 14.5728C8.93751 14.5823 9.01344 14.5871 9.09411 14.5918C9.13208 14.5918 9.17479 14.5918 9.21275 14.5918C9.25071 14.5918 9.29342 14.5918 9.33139 14.5918H9.45002C9.48799 14.5918 9.53069 14.5918 9.56866 14.5918C9.60662 14.5918 9.64933 14.5918 9.68729 14.5871C9.83915 14.5776 9.98626 14.5586 10.1381 14.5349C11.8227 14.2596 13.2416 13.1302 13.8918 11.55L13.4599 11.1182C13.2938 10.9521 13.104 10.8239 12.8905 10.729L12.8715 10.7195C12.8715 10.7195 12.8288 10.7006 12.8051 10.6911C12.601 10.6104 12.3875 10.5677 12.1692 10.5629H12.0553C11.7705 11.4314 11.0919 12.1147 10.2235 12.3947C9.91033 12.4991 9.58289 12.5465 9.25546 12.5371H9.24597C9.21275 12.5371 9.17479 12.5371 9.14157 12.5323C9.12733 12.5323 9.11784 12.5323 9.1036 12.5323C9.07988 12.5323 9.05615 12.5323 9.02768 12.5276C8.98971 12.5276 8.9565 12.5228 8.91853 12.5133C8.87582 12.5086 8.82837 12.4991 8.78566 12.4896H8.77617C8.74295 12.4801 8.71448 12.4754 8.68126 12.4659C8.65753 12.4659 8.6338 12.4564 8.61008 12.4516C8.57211 12.4421 8.5389 12.4327 8.50568 12.4232C8.46297 12.4089 8.42026 12.3994 8.37755 12.3852C8.34908 12.3757 8.32061 12.3662 8.29213 12.352C8.2684 12.3425 8.24468 12.333 8.21621 12.3235C8.20671 12.3235 8.19722 12.3188 8.18773 12.314C8.15451 12.2998 8.12604 12.2855 8.09282 12.2713C8.05486 12.2523 8.02164 12.2333 7.98368 12.2191C7.94571 12.2049 7.9125 12.1811 7.87928 12.1622L7.8603 12.1527C7.81759 12.1289 7.77962 12.1052 7.74166 12.0767C7.70844 12.053 7.67048 12.0293 7.64201 12.0056C7.51862 11.9154 7.39999 11.8157 7.29559 11.7113L3.23348 7.63026C2.11356 6.51033 2.11356 4.69282 3.23348 3.5729C4.35341 2.45297 6.17092 2.45297 7.29084 3.5729L10.494 6.77608C10.7123 6.71439 10.9306 6.66693 11.1536 6.62897C11.6329 6.5483 12.1217 6.52931 12.6057 6.57202C12.6674 6.57202 12.7291 6.58151 12.7908 6.591C12.9427 6.60999 13.0898 6.62897 13.2369 6.65744C13.1088 6.4866 12.9664 6.33 12.8145 6.17815L8.74769 2.11605C6.84477 0.170412 3.72226 0.137194 1.77663 2.04012C-0.169005 3.94304 -0.202223 7.06555 1.7007 9.01118C1.72443 9.03491 1.74816 9.06338 1.77663 9.08711L5.83873 13.1492C6.31803 13.6285 6.89222 14.0034 7.52337 14.2502C7.61828 14.2881 7.70844 14.3213 7.8081 14.3498C7.87453 14.3688 7.93622 14.3878 8.00266 14.4068C8.05011 14.421 8.09757 14.4305 8.14502 14.4447C8.2257 14.4637 8.30162 14.4827 8.3823 14.4969C8.42026 14.5017 8.46297 14.5112 8.50093 14.5206V14.5254Z" fill="white"/>
<path d="M19.662 13.0301L15.5999 8.96803C15.4481 8.81618 15.2867 8.67856 15.1206 8.54569C14.7552 8.26096 14.3471 8.03318 13.9153 7.86234C13.5167 7.70575 13.0991 7.60135 12.6767 7.55389C12.6293 7.54915 12.5818 7.5444 12.5296 7.53965C10.3894 7.35458 8.37261 8.58365 7.5564 10.572L7.98823 11.0038C8.35838 11.374 8.86614 11.5733 9.38814 11.5543C9.88641 10.0453 11.5094 9.22903 13.0184 9.72731C13.0659 9.74154 13.1181 9.76052 13.1655 9.77951C13.2035 9.79374 13.2414 9.80798 13.2794 9.82696C13.6021 9.96932 13.8963 10.1686 14.1431 10.4201L18.2052 14.4822C19.3251 15.6022 19.3251 17.4197 18.2052 18.5396C17.0853 19.6595 15.2678 19.6595 14.1478 18.5396L10.9446 15.3364C10.0525 15.5879 9.11765 15.6306 8.20652 15.4551C8.33465 15.6259 8.47701 15.7825 8.62412 15.9344L12.6862 19.9965C14.5892 21.9421 17.7117 21.9753 19.6573 20.0724C21.6029 18.1695 21.6361 15.047 19.7332 13.1013C19.7095 13.0776 19.6858 13.0491 19.6573 13.0254L19.662 13.0301Z" fill="white"/>
</svg>
