<svg width="22" height="21" viewBox="0 0 22 21" fill="none" xmlns="http://www.w3.org/2000/svg">
<path d="M8.91292 13.9843C8.95088 13.9891 8.98885 13.9986 9.03156 14.0033C9.07427 14.008 9.11223 14.0128 9.15019 14.0175C9.18816 14.0223 9.23086 14.027 9.26883 14.0318C9.3495 14.0413 9.42543 14.046 9.5061 14.0508C9.54406 14.0508 9.58677 14.0508 9.62474 14.0508C9.6627 14.0508 9.70541 14.0508 9.74337 14.0508H9.86201C9.89997 14.0508 9.94268 14.0508 9.98065 14.0508C10.0186 14.0508 10.0613 14.0508 10.0993 14.046C10.2511 14.0365 10.3982 14.0175 10.5501 13.9938C12.2347 13.7186 13.6536 12.5892 14.3038 11.0089L13.8719 10.5771C13.7058 10.411 13.516 10.2829 13.3025 10.188L13.2835 10.1785C13.2835 10.1785 13.2408 10.1595 13.217 10.15C13.013 10.0693 12.7994 10.0266 12.5812 10.0219H12.4673C12.1825 10.8903 11.5039 11.5736 10.6355 11.8536C10.3223 11.958 9.99488 12.0055 9.66745 11.996H9.65796C9.62474 11.996 9.58677 11.996 9.55355 11.9912C9.53932 11.9912 9.52983 11.9912 9.51559 11.9912C9.49186 11.9912 9.46814 11.9912 9.43966 11.9865C9.4017 11.9865 9.36848 11.9817 9.33052 11.9722C9.28781 11.9675 9.24036 11.958 9.19765 11.9485H9.18816C9.15494 11.939 9.12646 11.9343 9.09325 11.9248C9.06952 11.9248 9.04579 11.9153 9.02207 11.9106C8.9841 11.9011 8.95088 11.8916 8.91766 11.8821C8.87496 11.8678 8.83225 11.8584 8.78954 11.8441C8.76107 11.8346 8.73259 11.8251 8.70412 11.8109C8.68039 11.8014 8.65667 11.7919 8.62819 11.7824C8.6187 11.7824 8.60921 11.7777 8.59972 11.7729C8.5665 11.7587 8.53803 11.7445 8.50481 11.7302C8.46685 11.7112 8.43363 11.6923 8.39567 11.678C8.3577 11.6638 8.32448 11.6401 8.29127 11.6211L8.27228 11.6116C8.22957 11.5879 8.19161 11.5641 8.15365 11.5357C8.12043 11.5119 8.08247 11.4882 8.05399 11.4645C7.93061 11.3743 7.81198 11.2747 7.70757 11.1703L3.64547 7.08918C2.52554 5.96925 2.52554 4.15175 3.64547 3.03182C4.7654 1.9119 6.5829 1.9119 7.70283 3.03182L10.906 6.235C11.1243 6.17331 11.3426 6.12585 11.5656 6.08789C12.0449 6.00722 12.5337 5.98824 13.0177 6.03095C13.0794 6.03095 13.1411 6.04044 13.2028 6.04993C13.3547 6.06891 13.5018 6.08789 13.6489 6.11636C13.5208 5.94553 13.3784 5.78893 13.2265 5.63707L9.15968 1.57497C7.25676 -0.370665 4.13425 -0.403883 2.18862 1.49904C0.242983 3.40197 0.209764 6.52447 2.11269 8.47011C2.13642 8.49383 2.16014 8.52231 2.18862 8.54603L6.25072 12.6081C6.73001 13.0874 7.30421 13.4623 7.93536 13.7091C8.03027 13.747 8.12043 13.7803 8.22008 13.8087C8.28652 13.8277 8.34821 13.8467 8.41465 13.8657C8.4621 13.8799 8.50956 13.8894 8.55701 13.9036C8.63768 13.9226 8.71361 13.9416 8.79428 13.9558C8.83225 13.9606 8.87496 13.9701 8.91292 13.9796V13.9843Z" fill="#757A85"/>
<path d="M20.0741 12.4898L16.012 8.42769C15.8602 8.27584 15.6988 8.13822 15.5328 8.00535C15.1674 7.72062 14.7592 7.49284 14.3274 7.322C13.9288 7.1654 13.5112 7.061 13.0888 7.01355C13.0414 7.0088 12.9939 7.00406 12.9417 6.99931C10.8015 6.81424 8.78472 8.04331 7.96851 10.0317L8.40034 10.4635C8.77049 10.8336 9.27825 11.0329 9.80025 11.014C10.2985 9.50491 11.9215 8.68869 13.4305 9.18696C13.478 9.2012 13.5302 9.22018 13.5776 9.23916C13.6156 9.2534 13.6536 9.26764 13.6915 9.28662C14.0142 9.42898 14.3084 9.62829 14.5552 9.8798L18.6173 13.9419C19.7372 15.0618 19.7372 16.8793 18.6173 17.9993C17.4974 19.1192 15.6799 19.1192 14.5599 17.9993L11.3568 14.7961C10.4646 15.0476 9.52976 15.0903 8.61863 14.9147C8.74676 15.0856 8.88912 15.2422 9.03623 15.394L13.0983 19.4561C15.0013 21.4017 18.1238 21.435 20.0694 19.532C22.015 17.6291 22.0483 14.5066 20.1453 12.561C20.1216 12.5373 20.0979 12.5088 20.0694 12.4851L20.0741 12.4898Z" fill="#757A85"/>
</svg>
