<svg xmlns="http://www.w3.org/2000/svg" width="22" height="22" viewBox="0 0 22 22" fill="none">
<path d="M8.50105 14.2155C8.53902 14.2202 8.57698 14.2297 8.61969 14.2344C8.6624 14.2392 8.70036 14.2439 8.73833 14.2487C8.77629 14.2534 8.819 14.2582 8.85696 14.2629C8.93764 14.2724 9.01356 14.2771 9.09424 14.2819C9.1322 14.2819 9.17491 14.2819 9.21287 14.2819C9.25084 14.2819 9.29354 14.2819 9.33151 14.2819H9.45014C9.48811 14.2819 9.53082 14.2819 9.56878 14.2819C9.60674 14.2819 9.64945 14.2819 9.68742 14.2771C9.83927 14.2677 9.98638 14.2487 10.1382 14.2249C11.8229 13.9497 13.2418 12.8203 13.8919 11.2401L13.46 10.8082C13.294 10.6421 13.1041 10.514 12.8906 10.4191L12.8716 10.4096C12.8716 10.4096 12.8289 10.3906 12.8052 10.3811C12.6011 10.3005 12.3876 10.2578 12.1693 10.253H12.0554C11.7707 11.1214 11.0921 11.8048 10.2237 12.0848C9.91045 12.1892 9.58302 12.2366 9.25558 12.2271H9.24609C9.21287 12.2271 9.17491 12.2271 9.14169 12.2224C9.12745 12.2224 9.11796 12.2224 9.10373 12.2224C9.08 12.2224 9.05627 12.2224 9.0278 12.2176C8.98983 12.2176 8.95662 12.2129 8.91865 12.2034C8.87595 12.1986 8.82849 12.1892 8.78578 12.1797H8.77629C8.74307 12.1702 8.7146 12.1654 8.68138 12.1559C8.65765 12.1559 8.63393 12.1464 8.6102 12.1417C8.57224 12.1322 8.53902 12.1227 8.5058 12.1132C8.46309 12.099 8.42038 12.0895 8.37767 12.0753C8.3492 12.0658 8.32073 12.0563 8.29225 12.042C8.26853 12.0326 8.2448 12.0231 8.21633 12.0136C8.20684 12.0136 8.19734 12.0088 8.18785 12.0041C8.15464 11.9898 8.12616 11.9756 8.09295 11.9614C8.05498 11.9424 8.02176 11.9234 7.9838 11.9092C7.94584 11.8949 7.91262 11.8712 7.8794 11.8522L7.86042 11.8427C7.81771 11.819 7.77975 11.7953 7.74178 11.7668C7.70856 11.7431 7.6706 11.7194 7.64213 11.6956C7.51875 11.6055 7.40011 11.5058 7.29571 11.4014L3.2336 7.32032C2.11368 6.20039 2.11368 4.38289 3.2336 3.26296C4.35353 2.14304 6.17104 2.14304 7.29096 3.26296L10.4941 6.46614C10.7124 6.40445 10.9307 6.35699 11.1538 6.31903C11.6331 6.23836 12.1218 6.21938 12.6059 6.26209C12.6676 6.26209 12.7292 6.27158 12.7909 6.28107C12.9428 6.30005 13.0899 6.31903 13.237 6.3475C13.1089 6.17667 12.9665 6.02007 12.8147 5.86821L8.74782 1.80611C6.84489 -0.139525 3.72239 -0.172743 1.77675 1.73018C-0.168883 3.63311 -0.202101 6.75561 1.70082 8.70125C1.72455 8.72497 1.74828 8.75345 1.77675 8.77717L5.83886 12.8393C6.31815 13.3186 6.89235 13.6935 7.52349 13.9402C7.6184 13.9782 7.70856 14.0114 7.80822 14.0399C7.87465 14.0589 7.93635 14.0778 8.00278 14.0968C8.05024 14.1111 8.09769 14.1205 8.14515 14.1348C8.22582 14.1538 8.30175 14.1727 8.38242 14.187C8.42038 14.1917 8.46309 14.2012 8.50105 14.2107V14.2155Z" fill="white"/>
<path d="M19.6623 12.7202L15.6002 8.6581C15.4483 8.50624 15.287 8.36863 15.1209 8.23575C14.7555 7.95103 14.3474 7.72324 13.9155 7.55241C13.5169 7.39581 13.0993 7.29141 12.677 7.24395C12.6295 7.23921 12.5821 7.23446 12.5299 7.22972C10.3897 7.04465 8.37286 8.27372 7.55664 10.2621L7.98848 10.6939C8.35862 11.064 8.86638 11.2634 9.38838 11.2444C9.88666 9.73532 11.5096 8.9191 13.0187 9.41737C13.0661 9.43161 13.1183 9.45059 13.1658 9.46957C13.2037 9.48381 13.2417 9.49804 13.2797 9.51702C13.6023 9.65939 13.8966 9.8587 14.1433 10.1102L18.2054 14.1723C19.3254 15.2922 19.3254 17.1097 18.2054 18.2297C17.0855 19.3496 15.268 19.3496 14.1481 18.2297L10.9449 15.0265C10.0527 15.278 9.11789 15.3207 8.20677 15.1451C8.33489 15.316 8.47726 15.4726 8.62437 15.6244L12.6865 19.6865C14.5894 21.6322 17.7119 21.6654 19.6575 19.7624C21.6032 17.8595 21.6364 14.737 19.7335 12.7914C19.7097 12.7677 19.686 12.7392 19.6575 12.7155L19.6623 12.7202Z" fill="white"/>
</svg>
