<svg xmlns="http://www.w3.org/2000/svg" width="14" height="12" viewBox="0 0 14 12" fill="none">
<path d="M12.08 0.874023C10.37 0.874023 8.67 0.874023 6.96 0.874023C5.25 0.874023 3.48 0.874023 1.74 0.874023C0.65 0.874023 0 1.52402 0 2.61402C0 5.00402 0 7.39402 0 9.78402C0 10.844 0.66 11.514 1.72 11.514C5.2 11.514 8.68 11.514 12.16 11.514C13.23 11.514 13.87 10.854 13.87 9.79402C13.87 7.41402 13.87 5.03402 13.87 2.65402C13.87 1.49402 13.25 0.874023 12.08 0.874023ZM11.86 2.16402C11.86 2.16402 11.89 2.21402 11.9 2.23402C10.29 3.50402 8.68 4.76402 7.05 6.05402C5.43 4.76402 3.81 3.49402 2.14 2.17402H11.86V2.16402ZM12.25 10.184H1.57V3.81402C1.69 3.90402 1.78 3.96402 1.87 4.02402C3.43 5.25402 4.99 6.48402 6.55 7.70402C7.04 8.09402 7.14 8.08402 7.64 7.68402C9.07 6.51402 10.5 5.34402 11.94 4.17402C12.03 4.10402 12.12 4.03402 12.26 3.92402V10.184H12.25Z" fill="#1C1C1C"/>
</svg>
