<svg xmlns="http://www.w3.org/2000/svg" width="14" height="11" viewBox="0 0 14 11" fill="none">
<path d="M12.08 0.273804C10.37 0.273804 8.67 0.273804 6.96 0.273804C5.25 0.273804 3.48 0.273804 1.74 0.273804C0.65 0.273804 0 0.923804 0 2.0138C0 4.4038 0 6.7938 0 9.1838C0 10.2438 0.66 10.9138 1.72 10.9138C5.2 10.9138 8.68 10.9138 12.16 10.9138C13.23 10.9138 13.87 10.2538 13.87 9.1938C13.87 6.8138 13.87 4.4338 13.87 2.0538C13.87 0.893804 13.25 0.273804 12.08 0.273804ZM11.86 1.5638C11.86 1.5638 11.89 1.6138 11.9 1.6338C10.29 2.9038 8.68 4.1638 7.05 5.4538C5.43 4.1638 3.81 2.8938 2.14 1.5738H11.86V1.5638ZM12.25 9.5838H1.57V3.2138C1.69 3.3038 1.78 3.3638 1.87 3.4238C3.43 4.6538 4.99 5.8838 6.55 7.1038C7.04 7.4938 7.14 7.4838 7.64 7.0838C9.07 5.9138 10.5 4.7438 11.94 3.5738C12.03 3.5038 12.12 3.4338 12.26 3.3238V9.5838H12.25Z" fill="#1C1C1C"/>
</svg>
