<svg width="19" height="18" viewBox="0 0 19 18" fill="none" xmlns="http://www.w3.org/2000/svg">
<path d="M10.3191 2.09668H13.8188" stroke="#65C986" stroke-linecap="round" stroke-linejoin="round"/>
<path d="M17.5353 5.96582V15.368C17.5353 16.1394 16.9204 16.7625 16.1628 16.7656H7.64522C6.88764 16.7656 6.27861 16.215 6.27563 15.4436" stroke="#65C986" stroke-linecap="round" stroke-linejoin="round"/>
<path d="M17.5175 5.91724L13.8365 2.10254V4.69508C13.8365 5.46347 14.4604 5.91724 15.215 5.91724H17.5175Z" stroke="#65C986" stroke-linecap="round" stroke-linejoin="round"/>
<path d="M12.7402 4.63478V14.0369C12.7402 14.8083 12.1252 15.4315 11.3676 15.4345H2.85302C2.09545 15.4345 1.48344 14.8083 1.48047 14.0369V2.16324C1.48047 1.39183 2.09545 0.76865 2.85302 0.765625H9.02655" stroke="#65C986" stroke-linecap="round" stroke-linejoin="round"/>
<path d="M12.7223 4.58658L9.04138 0.774902V3.36745C9.04138 4.13583 9.66527 4.5896 10.4199 4.5896H12.7223V4.58658Z" stroke="#65C986" stroke-linecap="round" stroke-linejoin="round"/>
<path d="M3.67004 9.4541H10.3367" stroke="#65C986" stroke-linecap="round" stroke-linejoin="round"/>
<path d="M3.61658 12.4883H5.68135" stroke="#65C986" stroke-linecap="round" stroke-linejoin="round"/>
<path d="M3.63855 6.33203H7.28681" stroke="#65C986" stroke-linecap="round" stroke-linejoin="round"/>
<path d="M9.50195 6.33203H10.7468" stroke="#65C986" stroke-linecap="round" stroke-linejoin="round"/>
</svg>
