<svg xmlns="http://www.w3.org/2000/svg" width="17" height="22" viewBox="0 0 17 22" fill="none">
<path fill-rule="evenodd" clip-rule="evenodd" d="M14.0356 0.956604C14.3728 0.956604 14.7066 1.02305 15.018 1.15214C15.3295 1.28123 15.6124 1.47044 15.8507 1.70895C16.089 1.94746 16.2779 2.23059 16.4067 2.54216C16.5355 2.85373 16.6016 3.18762 16.6013 3.52476V9.42019C16.6013 10.1007 16.331 10.7533 15.8498 11.2344C15.3687 11.7156 14.7161 11.9859 14.0356 11.9859H12.7096C12.4828 11.9859 12.2653 11.8958 12.1049 11.7354C11.9445 11.575 11.8544 11.3575 11.8544 11.1307C11.8544 10.9038 11.9445 10.6863 12.1049 10.5259C12.2653 10.3655 12.4828 10.2754 12.7096 10.2754H14.0356C14.2624 10.2754 14.48 10.1853 14.6404 10.0249C14.8007 9.86455 14.8909 9.64702 14.8909 9.42019V3.52476C14.8909 3.29794 14.8007 3.08041 14.6404 2.92002C14.48 2.75964 14.2624 2.66953 14.0356 2.66953L3.43025 2.66953C3.20343 2.66953 2.9859 2.75964 2.82551 2.92002C2.66513 3.08041 2.57502 3.29794 2.57502 3.52476V9.42019C2.57502 9.64702 2.66513 9.86455 2.82551 10.0249C2.9859 10.1853 3.20343 10.2754 3.43025 10.2754H4.755C4.98182 10.2754 5.19936 10.3655 5.35974 10.5259C5.52013 10.6863 5.61023 10.9038 5.61023 11.1307C5.61023 11.3575 5.52013 11.575 5.35974 11.7354C5.19936 11.8958 4.98182 11.9859 4.755 11.9859H3.42902C2.74856 11.9859 2.09596 11.7156 1.6148 11.2344C1.13364 10.7533 0.863329 10.1007 0.863329 9.42019V3.52476C0.863329 2.8443 1.13364 2.1917 1.6148 1.71054C2.09596 1.22938 2.74856 0.959069 3.42902 0.959069L14.0356 0.956604Z" fill="#1C1C1C"/>
<path fill-rule="evenodd" clip-rule="evenodd" d="M8.73183 7.74429C8.61952 7.74429 8.50831 7.76642 8.40455 7.80939C8.30079 7.85237 8.20651 7.91537 8.12709 7.99479C8.04768 8.0742 7.98468 8.16848 7.9417 8.27224C7.89872 8.376 7.8766 8.48721 7.8766 8.59953V18.7477L3.60907 14.8684C3.44124 14.7157 3.21965 14.636 2.99305 14.6468C2.76645 14.6575 2.5534 14.7578 2.40077 14.9257C2.24814 15.0935 2.16843 15.3151 2.17918 15.5417C2.18993 15.7683 2.29025 15.9813 2.45808 16.1339L7.93329 21.1125C8.15808 21.3178 8.45147 21.4315 8.75586 21.4315C9.06025 21.4315 9.35364 21.3178 9.57844 21.1125L15.008 16.1315C15.092 16.0559 15.1602 15.9644 15.2087 15.8624C15.2571 15.7603 15.2848 15.6496 15.2903 15.5368C15.2957 15.4239 15.2787 15.3111 15.2403 15.2048C15.2019 15.0986 15.1427 15.001 15.0664 14.9177C14.99 14.8344 14.8979 14.7671 14.7954 14.7196C14.6929 14.6722 14.5819 14.6455 14.469 14.6411C14.3561 14.6367 14.2435 14.6548 14.1376 14.6942C14.0317 14.7337 13.9347 14.7937 13.8521 14.8708L9.58829 18.781V8.60076C9.58846 8.48824 9.56641 8.3768 9.52343 8.27281C9.48045 8.16883 9.41737 8.07435 9.3378 7.99478C9.25824 7.91522 9.16376 7.85214 9.05978 7.80916C8.95579 7.76617 8.84435 7.74413 8.73183 7.74429Z" fill="#1C1C1C"/>
</svg>
