<svg xmlns="http://www.w3.org/2000/svg" width="17" height="22" viewBox="0 0 17 22" fill="none">
<path fill-rule="evenodd" clip-rule="evenodd" d="M14.0356 0.646667C14.3728 0.646667 14.7066 0.713113 15.018 0.842205C15.3295 0.971297 15.6124 1.16051 15.8507 1.39901C16.089 1.63752 16.2779 1.92065 16.4067 2.23222C16.5355 2.54379 16.6016 2.87769 16.6013 3.21483V9.11026C16.6013 9.79072 16.331 10.4433 15.8498 10.9245C15.3687 11.4056 14.7161 11.676 14.0356 11.676H12.7096C12.4828 11.676 12.2653 11.5858 12.1049 11.4255C11.9445 11.2651 11.8544 11.0475 11.8544 10.8207C11.8544 10.5939 11.9445 10.3764 12.1049 10.216C12.2653 10.0556 12.4828 9.96549 12.7096 9.96549H14.0356C14.2624 9.96549 14.48 9.87538 14.6404 9.715C14.8007 9.55461 14.8909 9.33708 14.8909 9.11026V3.21483C14.8909 2.98801 14.8007 2.77047 14.6404 2.61009C14.48 2.4497 14.2624 2.3596 14.0356 2.3596L3.43025 2.3596C3.20343 2.3596 2.9859 2.4497 2.82551 2.61009C2.66513 2.77047 2.57502 2.98801 2.57502 3.21483V9.11026C2.57502 9.33708 2.66513 9.55461 2.82551 9.715C2.9859 9.87538 3.20343 9.96549 3.43025 9.96549H4.755C4.98182 9.96549 5.19936 10.0556 5.35974 10.216C5.52013 10.3764 5.61023 10.5939 5.61023 10.8207C5.61023 11.0475 5.52013 11.2651 5.35974 11.4255C5.19936 11.5858 4.98182 11.676 4.755 11.676H3.42902C2.74856 11.676 2.09596 11.4056 1.6148 10.9245C1.13364 10.4433 0.863329 9.79072 0.863329 9.11026V3.21483C0.863329 2.53436 1.13364 1.88177 1.6148 1.40061C2.09596 0.919446 2.74856 0.649132 3.42902 0.649132L14.0356 0.646667Z" fill="#1C1C1C"/>
<path fill-rule="evenodd" clip-rule="evenodd" d="M8.73195 7.43436C8.61964 7.43436 8.50843 7.45648 8.40467 7.49946C8.30091 7.54244 8.20663 7.60543 8.12721 7.68485C8.0478 7.76426 7.9848 7.85854 7.94182 7.96231C7.89884 8.06607 7.87672 8.17728 7.87672 8.28959V18.4378L3.60919 14.5584C3.44136 14.4058 3.21977 14.3261 2.99317 14.3368C2.76658 14.3476 2.55353 14.4479 2.4009 14.6157C2.24827 14.7835 2.16856 15.0051 2.1793 15.2317C2.19005 15.4583 2.29037 15.6714 2.4582 15.824L7.93341 20.8026C8.1582 21.0078 8.4516 21.1216 8.75598 21.1216C9.06037 21.1216 9.35376 21.0078 9.57856 20.8026L15.0082 15.8215C15.0922 15.746 15.1604 15.6545 15.2088 15.5524C15.2572 15.4503 15.285 15.3397 15.2904 15.2268C15.2958 15.114 15.2788 15.0012 15.2404 14.8949C15.202 14.7886 15.1429 14.6911 15.0665 14.6078C14.9902 14.5245 14.898 14.4572 14.7955 14.4097C14.693 14.3622 14.5821 14.3355 14.4692 14.3312C14.3563 14.3268 14.2436 14.3449 14.1377 14.3843C14.0318 14.4237 13.9348 14.4837 13.8523 14.5609L9.58842 18.471V8.29082C9.58858 8.1783 9.56654 8.06686 9.52355 7.96288C9.48057 7.85889 9.41749 7.76441 9.33793 7.68485C9.25836 7.60529 9.16388 7.5422 9.0599 7.49922C8.95591 7.45624 8.84447 7.4342 8.73195 7.43436Z" fill="#1C1C1C"/>
</svg>
