<svg width="17" height="21" viewBox="0 0 17 21" fill="none" xmlns="http://www.w3.org/2000/svg">
<path fill-rule="evenodd" clip-rule="evenodd" d="M13.5688 0.216064C13.906 0.216064 14.2398 0.282509 14.5512 0.411602C14.8627 0.540694 15.1456 0.729902 15.3839 0.96841C15.6222 1.20692 15.8111 1.49005 15.9399 1.80162C16.0687 2.11319 16.1348 2.44708 16.1345 2.78422V8.67965C16.1345 9.36012 15.8642 10.0127 15.383 10.4939C14.9019 10.975 14.2493 11.2453 13.5688 11.2453H12.2428C12.016 11.2453 11.7985 11.1552 11.6381 10.9949C11.4777 10.8345 11.3876 10.6169 11.3876 10.3901C11.3876 10.1633 11.4777 9.94577 11.6381 9.78538C11.7985 9.62499 12.016 9.53489 12.2428 9.53489H13.5688C13.7956 9.53489 14.0132 9.44478 14.1736 9.28439C14.334 9.12401 14.4241 8.90648 14.4241 8.67965V2.78422C14.4241 2.5574 14.334 2.33987 14.1736 2.17948C14.0132 2.0191 13.7956 1.92899 13.5688 1.92899L2.96346 1.92899C2.73664 1.92899 2.51911 2.0191 2.35872 2.17948C2.19833 2.33987 2.10823 2.5574 2.10823 2.78422V8.67965C2.10823 8.90648 2.19833 9.12401 2.35872 9.28439C2.51911 9.44478 2.73664 9.53489 2.96346 9.53489H4.28821C4.51503 9.53489 4.73256 9.62499 4.89294 9.78538C5.05333 9.94577 5.14344 10.1633 5.14344 10.3901C5.14344 10.6169 5.05333 10.8345 4.89294 10.9949C4.73256 11.1552 4.51503 11.2453 4.28821 11.2453H2.96223C2.28176 11.2453 1.62917 10.975 1.14801 10.4939C0.666845 10.0127 0.396532 9.36012 0.396532 8.67965V2.78422C0.396532 2.10376 0.666845 1.45116 1.14801 0.970004C1.62917 0.488843 2.28176 0.218529 2.96223 0.218529L13.5688 0.216064Z" fill="#757A85"/>
<path fill-rule="evenodd" clip-rule="evenodd" d="M8.26516 7.00391C8.15284 7.00391 8.04163 7.02603 7.93787 7.06901C7.83411 7.11199 7.73983 7.17498 7.66042 7.2544C7.581 7.33381 7.518 7.42809 7.47503 7.53186C7.43205 7.63562 7.40992 7.74683 7.40992 7.85914V18.0073L3.14239 14.128C2.97456 13.9753 2.75298 13.8956 2.52638 13.9064C2.29978 13.9171 2.08673 14.0174 1.9341 14.1853C1.78147 14.3531 1.70176 14.5747 1.71251 14.8013C1.72325 15.0279 1.82357 15.2409 1.9914 15.3936L7.46661 20.3721C7.6914 20.5774 7.9848 20.6912 8.28919 20.6912C8.59357 20.6912 8.88697 20.5774 9.11176 20.3721L14.5414 15.3911C14.6254 15.3155 14.6936 15.2241 14.742 15.122C14.7904 15.0199 14.8182 14.9092 14.8236 14.7964C14.829 14.6835 14.812 14.5707 14.7736 14.4644C14.7352 14.3582 14.6761 14.2606 14.5997 14.1773C14.5234 14.094 14.4312 14.0267 14.3287 13.9792C14.2262 13.9318 14.1153 13.9051 14.0024 13.9007C13.8895 13.8964 13.7768 13.9144 13.6709 13.9538C13.565 13.9933 13.468 14.0533 13.3855 14.1304L9.12162 18.0406V7.86037C9.12178 7.74785 9.09974 7.63641 9.05676 7.53242C9.01377 7.42844 8.95069 7.33396 8.87113 7.2544C8.79157 7.17484 8.69709 7.11175 8.5931 7.06877C8.48912 7.02579 8.37767 7.00374 8.26516 7.00391Z" fill="#757A85"/>
</svg>
