<svg xmlns="http://www.w3.org/2000/svg" width="81" height="81" viewBox="0 0 81 81" fill="none">
<path d="M35.27 48.2545C35.3574 48.2654 35.4449 48.2873 35.5432 48.2982C35.6416 48.3091 35.729 48.3201 35.8164 48.331C35.9038 48.3419 36.0022 48.3528 36.0896 48.3638C36.2754 48.3856 36.4502 48.3966 36.636 48.4075C36.7234 48.4075 36.8218 48.4075 36.9092 48.4075C36.9966 48.4075 37.095 48.4075 37.1824 48.4075H37.4556C37.543 48.4075 37.6414 48.4075 37.7288 48.4075C37.8162 48.4075 37.9146 48.4075 38.002 48.3966C38.3517 48.3747 38.6905 48.331 39.0402 48.2764C42.9196 47.6425 46.1871 45.0417 47.6843 41.4026L46.6898 40.4082C46.3073 40.0257 45.8702 39.7306 45.3784 39.5121L45.3347 39.4902C45.3347 39.4902 45.2364 39.4465 45.1817 39.4246C44.7118 39.2389 44.2201 39.1405 43.7174 39.1296H43.4551C42.7994 41.1294 41.2367 42.7031 39.2369 43.3478C38.5156 43.5882 37.7616 43.6975 37.0076 43.6756H36.9857C36.9092 43.6756 36.8218 43.6756 36.7453 43.6647C36.7125 43.6647 36.6907 43.6647 36.6579 43.6647C36.6032 43.6647 36.5486 43.6647 36.483 43.6538C36.3956 43.6538 36.3191 43.6429 36.2317 43.621C36.1333 43.6101 36.024 43.5882 35.9257 43.5664H35.9038C35.8273 43.5445 35.7618 43.5336 35.6853 43.5117C35.6306 43.5117 35.576 43.4899 35.5214 43.4789C35.4339 43.4571 35.3574 43.4352 35.2809 43.4134C35.1826 43.3806 35.0842 43.3587 34.9859 43.326C34.9203 43.3041 34.8547 43.2822 34.7892 43.2495C34.7345 43.2276 34.6799 43.2057 34.6143 43.1839C34.5925 43.1839 34.5706 43.173 34.5488 43.162C34.4723 43.1292 34.4067 43.0965 34.3302 43.0637C34.2428 43.02 34.1663 42.9763 34.0789 42.9435C33.9914 42.9107 33.9149 42.856 33.8384 42.8123L33.7947 42.7905C33.6964 42.7358 33.609 42.6812 33.5215 42.6156C33.445 42.561 33.3576 42.5063 33.292 42.4517C33.0079 42.2441 32.7347 42.0146 32.4943 41.7742L23.1399 32.3761C20.5609 29.7971 20.5609 25.6116 23.1399 23.0326C25.7189 20.4536 29.9044 20.4536 32.4834 23.0326L39.8598 30.409C40.3625 30.267 40.8652 30.1577 41.3788 30.0703C42.4825 29.8845 43.6081 29.8408 44.7228 29.9391C44.8648 29.9391 45.0069 29.961 45.149 29.9828C45.4986 30.0265 45.8374 30.0703 46.1762 30.1358C45.8811 29.7424 45.5533 29.3818 45.2036 29.0321L35.8383 19.6777C31.4561 15.1972 24.2655 15.1207 19.785 19.5028C15.3045 23.885 15.228 31.0756 19.6101 35.5561C19.6648 35.6108 19.7194 35.6763 19.785 35.731L29.1394 45.0854C30.2431 46.1891 31.5654 47.0524 33.0188 47.6207C33.2374 47.7081 33.445 47.7846 33.6745 47.8502C33.8275 47.8939 33.9696 47.9376 34.1226 47.9813C34.2318 48.0141 34.3411 48.0359 34.4504 48.0687C34.6362 48.1124 34.811 48.1561 34.9968 48.1889C35.0842 48.1999 35.1826 48.2217 35.27 48.2436V48.2545Z" fill="#FFF"/>
<path d="M60.9729 44.812L51.6185 35.4576C51.2688 35.1079 50.8972 34.791 50.5147 34.485C49.6733 33.8293 48.7335 33.3048 47.739 32.9113C46.8211 32.5507 45.8594 32.3103 44.8868 32.201C44.7775 32.1901 44.6682 32.1792 44.548 32.1682C39.6195 31.742 34.9751 34.5724 33.0955 39.1513L34.0899 40.1457C34.9423 40.9981 36.1116 41.4571 37.3137 41.4134C38.4611 37.9382 42.1985 36.0586 45.6736 37.2061C45.7829 37.2388 45.9031 37.2826 46.0124 37.3263C46.0998 37.3591 46.1872 37.3918 46.2747 37.4356C47.0178 37.7634 47.6953 38.2224 48.2636 38.8016L57.618 48.156C60.197 50.735 60.197 54.9204 57.618 57.4994C55.0389 60.0784 50.8535 60.0784 48.2745 57.4994L40.8981 50.123C38.8436 50.7022 36.6908 50.8005 34.5926 50.3962C34.8877 50.7896 35.2155 51.1502 35.5543 51.4999L44.9087 60.8543C49.2908 65.3348 56.4814 65.4113 60.9619 61.0292C65.4424 56.647 65.5189 49.4564 61.1368 44.9759C61.0821 44.9213 61.0275 44.8557 60.9619 44.801L60.9729 44.812Z" fill="#FFF"/>
</svg>
