<svg xmlns="http://www.w3.org/2000/svg" width="17" height="17" viewBox="0 0 17 17" fill="none">
<path d="M6.91703 11.2409C6.94617 11.2446 6.97531 11.2518 7.0081 11.2555C7.04088 11.2591 7.07002 11.2628 7.09917 11.2664C7.12831 11.2701 7.16109 11.2737 7.19023 11.2773C7.25216 11.2846 7.31044 11.2883 7.37237 11.2919C7.40151 11.2919 7.43429 11.2919 7.46343 11.2919C7.49257 11.2919 7.52536 11.2919 7.5545 11.2919H7.64557C7.67471 11.2919 7.70749 11.2919 7.73663 11.2919C7.76578 11.2919 7.79856 11.2919 7.8277 11.2883C7.94427 11.281 8.05719 11.2664 8.17376 11.2482C9.46691 11.0369 10.5561 10.17 11.0551 8.95696L10.7236 8.62548C10.5961 8.49798 10.4504 8.39963 10.2865 8.32678L10.2719 8.31949C10.2719 8.31949 10.2392 8.30492 10.2209 8.29764C10.0643 8.23571 9.90038 8.20293 9.73282 8.19928H9.6454C9.42684 8.86589 8.90593 9.39044 8.23932 9.60536C7.99891 9.6855 7.74756 9.72192 7.49622 9.71464H7.48893C7.46343 9.71464 7.43429 9.71464 7.40879 9.71099C7.39786 9.71099 7.39058 9.71099 7.37965 9.71099C7.36144 9.71099 7.34322 9.71099 7.32137 9.70735C7.29223 9.70735 7.26673 9.70371 7.23759 9.69642C7.2048 9.69278 7.16838 9.6855 7.13559 9.67821H7.12831C7.10281 9.67093 7.08095 9.66728 7.05545 9.66C7.03724 9.66 7.01903 9.65271 7.00081 9.64907C6.97167 9.64178 6.94617 9.6345 6.92067 9.62721C6.88789 9.61629 6.85511 9.609 6.82232 9.59807C6.80047 9.59079 6.77861 9.5835 6.75675 9.57257C6.73854 9.56529 6.72033 9.558 6.69847 9.55072C6.69119 9.55072 6.6839 9.54708 6.67661 9.54343C6.65112 9.5325 6.62926 9.52158 6.60376 9.51065C6.57462 9.49608 6.54912 9.48151 6.51998 9.47058C6.49084 9.45965 6.46534 9.44144 6.43984 9.42687L6.42527 9.41958C6.39249 9.40137 6.36334 9.38315 6.3342 9.3613C6.3087 9.34309 6.27956 9.32487 6.25771 9.30666C6.163 9.23745 6.07193 9.16095 5.99179 9.08081L2.87366 5.94811C2.01399 5.08844 2.01399 3.69329 2.87366 2.83362C3.73333 1.97395 5.12848 1.97395 5.98815 2.83362L8.44696 5.29243C8.61452 5.24507 8.78208 5.20865 8.95329 5.1795C9.3212 5.11758 9.69639 5.10301 10.0679 5.13579C10.1153 5.13579 10.1627 5.14308 10.21 5.15036C10.3266 5.16493 10.4395 5.1795 10.5524 5.20136C10.4541 5.07022 10.3448 4.95002 10.2282 4.83345L7.10645 1.71532C5.64574 0.221821 3.24886 0.196322 1.75536 1.65704C0.26186 3.11775 0.236361 5.51463 1.69707 7.00813C1.71529 7.02634 1.7335 7.0482 1.75536 7.06641L4.87349 10.1845C5.2414 10.5525 5.68216 10.8402 6.16664 11.0296C6.23949 11.0588 6.3087 11.0843 6.3852 11.1061C6.4362 11.1207 6.48355 11.1353 6.53455 11.1499C6.57098 11.1608 6.6074 11.1681 6.64383 11.179C6.70576 11.1936 6.76404 11.2081 6.82596 11.2191C6.85511 11.2227 6.88789 11.23 6.91703 11.2373V11.2409Z" fill="#6B3374"/>
<path d="M15.4849 10.0934L12.3667 6.97528C12.2502 6.85871 12.1263 6.75308 11.9988 6.65108C11.7183 6.43252 11.4051 6.25767 11.0736 6.12654C10.7676 6.00633 10.447 5.92619 10.1228 5.88976C10.0864 5.88612 10.05 5.88248 10.0099 5.87883C8.36706 5.73677 6.81892 6.68022 6.19238 8.20651L6.52387 8.53799C6.80799 8.82212 7.19776 8.97511 7.59846 8.96054C7.98094 7.80217 9.22673 7.17563 10.3851 7.55811C10.4215 7.56904 10.4616 7.58361 10.498 7.59818C10.5272 7.60911 10.5563 7.62003 10.5855 7.63461C10.8332 7.74389 11.059 7.89688 11.2484 8.08994L14.3666 11.2081C15.2262 12.0677 15.2262 13.4629 14.3666 14.3226C13.5069 15.1822 12.1117 15.1822 11.2521 14.3226L8.79325 11.8638C8.10843 12.0568 7.39082 12.0896 6.69143 11.9548C6.78978 12.086 6.89906 12.2062 7.01198 12.3227L10.1301 15.4409C11.5908 16.9344 13.9877 16.9599 15.4812 15.4991C16.9747 14.0384 17.0002 11.6416 15.5395 10.1481C15.5213 10.1298 15.5031 10.108 15.4812 10.0898L15.4849 10.0934Z" fill="#6B3374"/>
</svg>