<svg xmlns="http://www.w3.org/2000/svg" width="81" height="81" viewBox="0 0 81 81" fill="none">
  <path d="M40.5253 30.3921H17.9202C17.1667 30.3921 16.5581 29.8427 16.5581 29.1625C16.5581 28.9532 16.6161 28.7439 16.732 28.5608L22.1514 19.9536C22.3833 19.5611 22.847 19.3257 23.3396 19.3257H40.5253C41.2788 19.3257 41.8874 19.8751 41.8874 20.5553C41.8874 21.2355 41.2788 21.7849 40.5253 21.7849H24.1221L20.2387 27.9068H40.4964C41.2499 27.9068 41.8585 28.4562 41.8585 29.1364C41.8585 29.8166 41.2499 30.366 40.4964 30.366L40.5253 30.3921Z" fill="white"/>
  <path d="M63.1301 30.3918H40.525C39.7715 30.3918 39.1629 29.8424 39.1629 29.1622C39.1629 28.482 39.7715 27.9326 40.525 27.9326H60.7827L56.8993 21.8108H40.525C39.7715 21.8108 39.1629 21.2614 39.1629 20.5812C39.1629 19.901 39.7715 19.3516 40.525 19.3516H57.7107C58.2034 19.3516 58.6381 19.587 58.8989 19.9794L64.3474 28.5605C64.7241 29.1622 64.4923 29.8948 63.8547 30.2349C63.6518 30.3395 63.42 30.3918 63.1881 30.3918H63.1301ZM23.5422 39.5746C19.6587 39.5746 16.5288 36.723 16.5288 33.2435V29.1622C16.5288 28.482 17.1374 27.9326 17.8909 27.9326C18.6444 27.9326 19.253 28.482 19.253 29.1622V33.2435C19.253 35.3888 21.1658 37.1154 23.5422 37.1154C25.9186 37.1154 27.8314 35.3888 27.8314 33.2435V29.1622C27.8314 28.482 28.44 27.9326 29.1935 27.9326C29.947 27.9326 30.5556 28.482 30.5556 29.1622V33.2435C30.5556 36.7492 27.3967 39.5746 23.5422 39.5746Z" fill="white"/>
  <path d="M34.8444 39.5746C30.961 39.5746 27.8311 36.723 27.8311 33.2435V29.1622C27.8311 28.482 28.4397 27.9326 29.1932 27.9326C29.9467 27.9326 30.5553 28.482 30.5553 29.1622V33.2435C30.5553 35.3887 32.468 37.1154 34.8444 37.1154C37.2209 37.1154 39.1336 35.3887 39.1336 33.2435V29.1622C39.1336 28.482 39.7422 27.9326 40.4957 27.9326C41.2492 27.9326 41.8578 28.482 41.8578 29.1622V33.2435C41.8578 36.7491 38.6989 39.5746 34.8444 39.5746Z" fill="white"/>
  <path d="M46.1765 39.5746C42.293 39.5746 39.1631 36.723 39.1631 33.2435V29.1622C39.1631 28.482 39.7717 27.9326 40.5252 27.9326C41.2787 27.9326 41.8873 28.482 41.8873 29.1622V33.2435C41.8873 35.3887 43.8 37.1154 46.1765 37.1154C48.5529 37.1154 50.4656 35.3887 50.4656 33.2435V29.1622C50.4656 28.482 51.0742 27.9326 51.8278 27.9326C52.5813 27.9326 53.1899 28.482 53.1899 29.1622V33.2435C53.1899 36.7491 50.0309 39.5746 46.1765 39.5746Z" fill="white"/>
  <path d="M57.4787 39.5746C53.5953 39.5746 50.4653 36.723 50.4653 33.2435V29.1622C50.4653 28.482 51.0739 27.9326 51.8274 27.9326C52.5809 27.9326 53.1895 28.482 53.1895 29.1622V33.2435C53.1895 35.3887 55.1023 37.1154 57.4787 37.1154C59.8552 37.1154 61.7679 35.3887 61.7679 33.2435V29.1622C61.7679 28.482 62.3765 27.9326 63.13 27.9326C63.8835 27.9326 64.4921 28.482 64.4921 29.1622V33.2435C64.4921 36.7491 61.3332 39.5746 57.4787 39.5746Z" fill="white"/>
  <path d="M51.8281 30.4179C51.2195 30.4179 50.6979 30.0516 50.524 29.5284L47.6549 20.9473C47.394 20.3195 47.7418 19.6131 48.4663 19.3515C49.1619 19.116 49.9444 19.4299 50.2342 20.084C50.2342 20.1363 50.2632 20.1886 50.2921 20.241L53.1613 28.822C53.3931 29.4761 52.9584 30.1563 52.2628 30.3656C52.1469 30.3917 52.002 30.4179 51.8571 30.4179H51.8281ZM29.223 30.4179C29.223 30.4179 28.9622 30.4179 28.8173 30.3656C28.0927 30.1563 27.687 29.4761 27.9189 28.822L30.759 20.2148C30.9329 19.5608 31.6574 19.1422 32.4109 19.2991C33.1354 19.4561 33.5991 20.1102 33.4252 20.7904C33.4252 20.8427 33.3963 20.895 33.3673 20.9473L30.4982 29.5546C30.3243 30.0778 29.8026 30.4441 29.194 30.4441L29.223 30.4179ZM40.5256 30.4179C39.7721 30.4179 39.1635 29.8685 39.1635 29.1883V20.5811C39.1635 19.9009 39.7721 19.3515 40.5256 19.3515C41.2791 19.3515 41.8877 19.9009 41.8877 20.5811V29.1621C41.8877 29.8423 41.2791 30.3917 40.5256 30.3917V30.4179ZM40.5256 61.0272H20.181C19.4274 61.0272 18.8188 60.4778 18.8188 59.7976V37.3508C18.8188 36.6706 19.4274 36.1212 20.181 36.1212C20.9345 36.1212 21.5431 36.6706 21.5431 37.3508V58.568H40.4966C41.2501 58.568 41.8587 59.1174 41.8587 59.7976C41.8587 60.4778 41.2501 61.0272 40.4966 61.0272H40.5256Z" fill="white"/>
  <path d="M60.8408 61.0276H40.5252C39.7717 61.0276 39.1631 60.4782 39.1631 59.798C39.1631 59.1178 39.7717 58.5684 40.5252 58.5684H59.4787V37.3512C59.4787 36.671 60.0873 36.1216 60.8408 36.1216C61.5943 36.1216 62.2029 36.671 62.2029 37.3512V59.798C62.2029 60.4782 61.5943 61.0276 60.8408 61.0276Z" fill="white"/>
  <path d="M51.3354 60.7133C50.5819 60.7133 49.9733 60.1639 49.9733 59.4837V46.4289H31.0777V59.379C31.0777 60.0592 30.4691 60.6086 29.7156 60.6086C28.9621 60.6086 28.3535 60.0592 28.3535 59.379V45.1993C28.3535 44.5191 28.9621 43.9697 29.7156 43.9697H51.3644C52.1179 43.9697 52.7265 44.5191 52.7265 45.1993V59.4837C52.7265 60.1639 52.1179 60.7133 51.3644 60.7133H51.3354Z" fill="white"/>
</svg>