<svg width="85" height="85" viewBox="0 0 85 85" fill="none" xmlns="http://www.w3.org/2000/svg">
<path d="M33.7436 56.5579C33.8965 56.577 34.0494 56.6152 34.2215 56.6344C34.3935 56.6535 34.5464 56.6726 34.6994 56.6917C34.8523 56.7108 35.0243 56.7299 35.1773 56.7491C35.5023 56.7873 35.8081 56.8064 36.1331 56.8255C36.286 56.8255 36.4581 56.8255 36.611 56.8255C36.7639 56.8255 36.936 56.8255 37.0889 56.8255H37.5668C37.7197 56.8255 37.8918 56.8255 38.0447 56.8255C38.1976 56.8255 38.3697 56.8255 38.5226 56.8064C39.1343 56.7682 39.7269 56.6917 40.3387 56.5961C47.1249 55.4874 52.8407 50.9377 55.4596 44.572L53.72 42.8324C53.051 42.1634 52.2863 41.6472 51.4261 41.2649L51.3496 41.2267C51.3496 41.2267 51.1776 41.1502 51.082 41.112C50.26 40.787 49.3998 40.6149 48.5204 40.5958H48.0616C46.9147 44.0941 44.181 46.8468 40.6828 47.9747C39.4211 48.3953 38.1021 48.5864 36.783 48.5482H36.7448C36.611 48.5482 36.4581 48.5482 36.3242 48.5291C36.2669 48.5291 36.2287 48.5291 36.1713 48.5291C36.0757 48.5291 35.9802 48.5291 35.8655 48.51C35.7125 48.51 35.5787 48.4908 35.4258 48.4526C35.2537 48.4335 35.0626 48.3953 34.8905 48.357H34.8523C34.7185 48.3188 34.6038 48.2997 34.47 48.2614C34.3744 48.2614 34.2788 48.2232 34.1832 48.2041C34.0303 48.1659 33.8965 48.1276 33.7627 48.0894C33.5906 48.0321 33.4186 47.9938 33.2465 47.9365C33.1318 47.8982 33.0171 47.86 32.9024 47.8027C32.8069 47.7644 32.7113 47.7262 32.5966 47.688C32.5583 47.688 32.5201 47.6688 32.4819 47.6497C32.3481 47.5924 32.2334 47.535 32.0996 47.4777C31.9466 47.4012 31.8128 47.3248 31.6599 47.2674C31.507 47.2101 31.3731 47.1145 31.2393 47.038L31.1629 46.9998C30.9908 46.9042 30.8379 46.8086 30.685 46.6939C30.5511 46.5983 30.3982 46.5028 30.2835 46.4072C29.7865 46.044 29.3086 45.6425 28.888 45.222L12.5245 28.782C8.01307 24.2706 8.01307 16.949 12.5245 12.4376C17.0359 7.92616 24.3575 7.92616 28.8689 12.4376L41.7724 25.3411C42.6517 25.0926 43.5311 24.9014 44.4295 24.7485C46.3603 24.4235 48.3293 24.347 50.2791 24.5191C50.5276 24.5191 50.7761 24.5573 51.0247 24.5955C51.6364 24.672 52.229 24.7485 52.8216 24.8632C52.3054 24.175 51.7319 23.5441 51.1202 22.9324L34.7376 6.5689C27.072 -1.26876 14.4935 -1.40257 6.65582 6.26304C-1.18185 13.9287 -1.31566 26.5072 6.34996 34.3448C6.44554 34.4404 6.54112 34.5551 6.65582 34.6507L23.0193 51.0142C24.9501 52.9449 27.2631 54.4551 29.8056 55.4492C30.1879 55.6021 30.5511 55.7359 30.9526 55.8506C31.2202 55.9271 31.4687 56.0035 31.7363 56.08C31.9275 56.1373 32.1187 56.1756 32.3098 56.2329C32.6348 56.3094 32.9407 56.3859 33.2656 56.4432C33.4186 56.4623 33.5906 56.5006 33.7436 56.5388V56.5579Z" fill="#608BC0"/>
<path d="M78.7045 50.5359L62.341 34.1724C61.7293 33.5607 61.0793 33.0063 60.4103 32.4711C58.9383 31.3241 57.2943 30.4065 55.5547 29.7183C53.949 29.0875 52.2668 28.6669 50.5654 28.4758C50.3742 28.4566 50.1831 28.4375 49.9728 28.4184C41.3514 27.6729 33.227 32.624 29.939 40.6337L31.6785 42.3733C33.1696 43.8644 35.2151 44.6672 37.3178 44.5908C39.325 38.5118 45.8628 35.2238 51.9418 37.231C52.1329 37.2884 52.3432 37.3648 52.5344 37.4413C52.6873 37.4986 52.8402 37.556 52.9932 37.6325C54.2931 38.2059 55.4783 39.0088 56.4723 40.022L72.8358 56.3855C77.3473 60.8969 77.3473 68.2185 72.8358 72.7299C68.3244 77.2413 61.0029 77.2413 56.4914 72.7299L43.588 59.8264C39.9941 60.8396 36.2282 61.0116 32.5579 60.3043C33.074 60.9925 33.6475 61.6234 34.2401 62.2351L50.6036 78.5986C58.2693 86.4362 70.8478 86.5701 78.6854 78.9044C86.5231 71.2388 86.6569 58.6603 78.9913 50.8227C78.8957 50.7271 78.8001 50.6124 78.6854 50.5168L78.7045 50.5359Z" fill="#608BC0"/>
</svg>
