<svg xmlns="http://www.w3.org/2000/svg" width="22" height="21" viewBox="0 0 22 21" fill="none">
<path d="M15.8427 12.2722C15.8028 12.2531 14.3102 11.518 14.0449 11.4226C13.9366 11.3837 13.8206 11.3457 13.6973 11.3457C13.4957 11.3457 13.3264 11.4462 13.1945 11.6435C13.0454 11.8651 12.594 12.3927 12.4545 12.5503C12.4363 12.5712 12.4115 12.596 12.3966 12.596C12.3832 12.596 12.1522 12.5009 12.0823 12.4705C10.481 11.775 9.26564 10.1023 9.09898 9.82027C9.07518 9.77972 9.07419 9.76131 9.07399 9.76131C9.07984 9.73984 9.13368 9.68586 9.16147 9.65801C9.24277 9.57757 9.33085 9.47154 9.41608 9.36896C9.45643 9.32037 9.49685 9.27171 9.53653 9.22584C9.66018 9.08198 9.71522 8.9703 9.77904 8.84094L9.81248 8.77373C9.9683 8.46415 9.83521 8.20289 9.7922 8.11854C9.7569 8.04794 9.12664 6.52681 9.05963 6.367C8.89849 5.98137 8.68556 5.80182 8.38968 5.80182C8.36222 5.80182 8.38968 5.80182 8.27454 5.80667C8.13434 5.81259 7.37085 5.9131 7.03328 6.12589C6.67531 6.35158 6.0697 7.07099 6.0697 8.33618C6.0697 9.47486 6.79231 10.55 7.10255 10.9589C7.11026 10.9692 7.12442 10.9901 7.14496 11.0202C8.3331 12.7554 9.81427 14.0413 11.3158 14.6411C12.7613 15.2185 13.4458 15.2853 13.835 15.2853H13.8351C13.9986 15.2853 14.1295 15.2724 14.245 15.2611L14.3182 15.2541C14.8176 15.2098 15.915 14.6412 16.1646 13.9475C16.3612 13.4011 16.4131 12.8042 16.2823 12.5875C16.1927 12.4402 16.0382 12.3661 15.8427 12.2722Z" fill="#1C1C1C"/>
<path d="M11.1115 0.507111C5.56631 0.507111 1.05493 4.98459 1.05493 10.4881C1.05493 12.2682 1.5313 14.0106 2.43373 15.5356L0.70646 20.6307C0.674286 20.7257 0.698217 20.8307 0.768483 20.9023C0.819205 20.954 0.888009 20.982 0.958275 20.982C0.985198 20.982 1.01232 20.9779 1.03878 20.9695L6.3516 19.2812C7.80545 20.058 9.44863 20.468 11.1116 20.468C16.6563 20.4681 21.1672 15.9911 21.1672 10.4881C21.1672 4.98459 16.6563 0.507111 11.1115 0.507111ZM11.1115 18.389C9.54674 18.389 8.03114 17.9371 6.72833 17.0822C6.68452 17.0535 6.63366 17.0387 6.58248 17.0387C6.55542 17.0387 6.5283 17.0428 6.50191 17.0512L3.84051 17.8972L4.69966 15.3625C4.72744 15.2804 4.71355 15.19 4.66236 15.12C3.67026 13.7644 3.14583 12.1628 3.14583 10.4881C3.14583 6.13105 6.71922 2.58624 11.1115 2.58624C15.5032 2.58624 19.0762 6.13105 19.0762 10.4881C19.0763 14.8447 15.5033 18.389 11.1115 18.389Z" fill="#1C1C1C"/>
</svg>
