<svg xmlns="http://www.w3.org/2000/svg" width="22" height="22" viewBox="0 0 22 22" fill="none">
<path d="M15.8428 12.5821C15.803 12.563 14.3103 11.828 14.045 11.7325C13.9368 11.6936 13.8208 11.6557 13.6974 11.6557C13.4958 11.6557 13.3265 11.7561 13.1946 11.9534C13.0455 12.175 12.5941 12.7027 12.4547 12.8603C12.4364 12.8811 12.4116 12.906 12.3967 12.906C12.3833 12.906 12.1523 12.8108 12.0824 12.7804C10.4812 12.0849 9.26576 10.4123 9.09911 10.1302C9.07531 10.0897 9.07431 10.0712 9.07411 10.0712C9.07996 10.0498 9.13381 9.9958 9.16159 9.96794C9.24289 9.8875 9.33098 9.78147 9.4162 9.6789C9.45655 9.63031 9.49697 9.58164 9.53666 9.53578C9.6603 9.39192 9.71535 9.28024 9.77916 9.15087L9.8126 9.08367C9.96842 8.77408 9.83534 8.51283 9.79233 8.42847C9.75703 8.35787 9.12676 6.83675 9.05975 6.67694C8.89861 6.29131 8.68569 6.11176 8.3898 6.11176C8.36234 6.11176 8.3898 6.11176 8.27466 6.11661C8.13446 6.12252 7.37097 6.22304 7.03341 6.43583C6.67543 6.66152 6.06982 7.38093 6.06982 8.64612C6.06982 9.7848 6.79243 10.8599 7.10267 11.2688C7.11039 11.2791 7.12455 11.3001 7.14509 11.3301C8.33323 13.0653 9.8144 14.3512 11.3159 14.951C12.7614 15.5285 13.446 15.5952 13.8351 15.5952H13.8352C13.9987 15.5952 14.1296 15.5824 14.2451 15.571L14.3183 15.564C14.8177 15.5198 15.9151 14.9511 16.1647 14.2574C16.3614 13.7111 16.4132 13.1141 16.2824 12.8974C16.1928 12.7501 16.0384 12.676 15.8428 12.5821Z" fill="#1C1C1C"/>
<path d="M11.1115 0.817047C5.56631 0.817047 1.05493 5.29453 1.05493 10.7981C1.05493 12.5781 1.5313 14.3205 2.43373 15.8455L0.70646 20.9406C0.674286 21.0356 0.698217 21.1407 0.768483 21.2122C0.819205 21.264 0.888009 21.2919 0.958275 21.2919C0.985198 21.2919 1.01232 21.2878 1.03878 21.2794L6.3516 19.5912C7.80545 20.3679 9.44863 20.778 11.1116 20.778C16.6563 20.778 21.1672 16.301 21.1672 10.7981C21.1672 5.29453 16.6563 0.817047 11.1115 0.817047ZM11.1115 18.6989C9.54674 18.6989 8.03114 18.2471 6.72833 17.3922C6.68452 17.3634 6.63366 17.3486 6.58248 17.3486C6.55542 17.3486 6.5283 17.3528 6.50191 17.3611L3.84051 18.2071L4.69966 15.6724C4.72744 15.5904 4.71355 15.4999 4.66236 15.43C3.67026 14.0744 3.14583 12.4728 3.14583 10.7981C3.14583 6.44098 6.71922 2.89618 11.1115 2.89618C15.5032 2.89618 19.0762 6.44098 19.0762 10.7981C19.0763 15.1546 15.5033 18.6989 11.1115 18.6989Z" fill="#1C1C1C"/>
</svg>
