<svg width="67" height="67" viewBox="0 0 67 67" fill="none" xmlns="http://www.w3.org/2000/svg">
<circle cx="30.0055" cy="36.5496" r="30" fill="#EFEDF9"/>
<path d="M17.3332 51.4257L17.3759 47.7501C17.5603 44.5711 18.9691 41.5816 21.3146 39.3927C23.66 37.2038 26.7648 35.9808 29.9943 35.9737C33.2238 35.9666 36.3341 37.1759 38.6894 39.3545C41.0447 41.5331 42.4671 44.5164 42.6658 47.6946L42.6774 51.4238L17.3332 51.4257ZM30.0218 37.9025C27.295 37.908 24.6721 38.935 22.6844 40.7754C20.6966 42.6159 19.4924 45.1323 19.3156 47.8152L19.2865 49.5113H40.7319V47.7577C40.5427 45.0838 39.3324 42.5799 37.3448 40.7511C35.3573 38.9222 32.7404 37.9043 30.0218 37.9025Z" fill="#5840D1"/>
<path d="M30.0055 33.488C28.8203 33.4884 27.6616 33.1422 26.676 32.4933C25.6904 31.8444 24.9221 30.9219 24.4683 29.8424C24.0145 28.7629 23.8955 27.575 24.1265 26.4289C24.3575 25.2828 24.928 24.2299 25.7659 23.4035C26.6038 22.5771 27.6715 22.0143 28.8338 21.7861C29.9962 21.558 31.2011 21.6749 32.2961 22.122C33.3911 22.5691 34.327 23.3263 34.9855 24.2979C35.644 25.2694 35.9954 26.4117 35.9954 27.5803C35.9939 29.1463 35.3624 30.6478 34.2394 31.7553C33.1165 32.8629 31.5938 33.486 30.0055 33.488ZM30.0055 23.5888C29.2042 23.5884 28.4209 23.8223 27.7545 24.261C27.0882 24.6996 26.5687 25.3233 26.2619 26.0531C25.9551 26.7829 25.8748 27.586 26.031 28.3608C26.1872 29.1356 26.573 29.8473 27.1395 30.4059C27.7061 30.9645 28.428 31.3449 29.2138 31.4989C29.9997 31.653 30.8142 31.5737 31.5544 31.2712C32.2945 30.9687 32.9271 30.4566 33.372 29.7996C33.8169 29.1426 34.0542 28.3702 34.0538 27.5803C34.0522 26.5221 33.6252 25.5078 32.8664 24.7595C32.1075 24.0113 31.0787 23.5903 30.0055 23.5888Z" fill="#5840D1"/>
<path d="M49.2319 9.17615H59.1369V18.1035C59.1369 18.6432 58.6989 19.0811 58.1593 19.0811H50.2115C49.6718 19.0811 49.2339 18.6432 49.2339 18.1035V9.17615H49.2319Z" stroke="#FF5758" stroke-width="1.27102" stroke-miterlimit="10"/>
<path d="M51.5118 6.2572H56.8593C57.3989 6.2572 57.8369 6.69516 57.8369 7.2348V9.17434H50.5342V7.2348C50.5342 6.69516 50.9722 6.2572 51.5118 6.2572Z" stroke="#FF5758" stroke-width="1.27102" stroke-miterlimit="10"/>
<path d="M47.6071 9.17615H60.7616" stroke="#FF5758" stroke-width="1.27102" stroke-linecap="round" stroke-linejoin="round"/>
<path d="M52.716 12.0464V16.2931" stroke="#FF5758" stroke-width="1.27102" stroke-linecap="round" stroke-linejoin="round"/>
<path d="M55.6547 12.0464V16.2931" stroke="#FF5758" stroke-width="1.27102" stroke-linecap="round" stroke-linejoin="round"/>
<circle cx="54.1855" cy="12.6691" r="12" fill="#FDC9C9"/>
<path d="M59.4872 7.36743L48.8839 17.9707" stroke="#FF5758" stroke-width="1.5" stroke-linecap="round"/>
<path d="M59.3938 18.0624L48.9772 7.27567" stroke="#FF5758" stroke-width="1.5" stroke-linecap="round"/>
</svg>
