<svg width="19" height="22" viewBox="0 0 19 22" fill="none" xmlns="http://www.w3.org/2000/svg">
<path d="M13.9742 0.97168H2.80655C2.56201 0.971501 2.31984 1.01953 2.09388 1.11303C1.86793 1.20653 1.66262 1.34365 1.48971 1.51657C1.3168 1.68948 1.17967 1.89478 1.08618 2.12074C0.992679 2.3467 0.944646 2.58887 0.944825 2.8334V15.8627H2.80655V2.8334H13.9742V0.97168ZM16.7661 4.69376H6.52863C6.28409 4.69358 6.04192 4.74162 5.81597 4.83511C5.59001 4.92861 5.38471 5.06574 5.21179 5.23865C5.03888 5.41156 4.90175 5.61687 4.80826 5.84282C4.71476 6.06878 4.66673 6.31095 4.66691 6.55548V19.5848C4.66673 19.8293 4.71476 20.0715 4.80826 20.2975C4.90175 20.5234 5.03888 20.7287 5.21179 20.9016C5.38471 21.0746 5.59001 21.2117 5.81597 21.3052C6.04192 21.3987 6.28409 21.4467 6.52863 21.4465H16.7661C17.2592 21.4458 17.7319 21.2493 18.0803 20.9002C18.4286 20.5511 18.6241 20.078 18.6237 19.5848V6.55548C18.6241 6.06232 18.4286 5.58919 18.0803 5.24009C17.7319 4.89099 17.2592 4.69448 16.7661 4.69376ZM16.7661 19.5848H6.52863V6.55548H16.7661V19.5848Z" fill="#5840D1"/>
</svg>
