<svg width="22" height="22" viewBox="0 0 22 22" fill="none" xmlns="http://www.w3.org/2000/svg">
<path d="M15.7434 7.2411C15.7305 7.21858 15.7168 7.19537 15.7039 7.17285H5.98035C7.64973 8.49348 9.26451 9.77179 10.8895 11.0576C12.5234 9.77316 14.1334 8.50713 15.7441 7.2411H15.7434Z" fill="#5840D1"/>
<path d="M11.4743 12.6971C10.9788 13.1025 10.8812 13.1073 10.3892 12.7203C8.82829 11.4918 7.2681 10.2633 5.70724 9.0355C5.62192 8.96861 5.53115 8.90924 5.40967 8.82324V15.1943H16.0907V8.93585C15.9488 9.04642 15.8587 9.11398 15.772 9.18565C14.3394 10.3554 12.9062 11.5252 11.475 12.6971H11.4743Z" fill="#5840D1"/>
<path d="M10.7751 0.97168C5.12136 0.97168 0.53772 5.55532 0.53772 11.2091C0.53772 16.8629 5.12136 21.4465 10.7751 21.4465C16.4289 21.4465 21.0126 16.8629 21.0126 11.2091C21.0126 5.55532 16.4289 0.97168 10.7751 0.97168ZM17.71 14.8031C17.71 15.8712 17.0657 16.5264 15.9969 16.5278C12.5182 16.5319 9.04024 16.5319 5.56157 16.5278C4.50302 16.5264 3.84373 15.8583 3.84236 14.797C3.83963 12.4062 3.83963 10.0147 3.84236 7.62396C3.84373 6.54016 4.49278 5.89247 5.58477 5.88974C7.32377 5.88496 9.06345 5.88837 10.8024 5.88837C12.5073 5.88837 14.2129 5.88633 15.9177 5.88837C17.0923 5.88974 17.71 6.50398 17.71 7.66423C17.71 10.0441 17.7107 12.4239 17.71 14.8031Z" fill="#5840D1"/>
</svg>
