<svg width="228" height="231" viewBox="0 0 228 231" fill="none" xmlns="http://www.w3.org/2000/svg">
<g clip-path="url(#clip0_478_546)">
<path d="M0 117.927C0.019411 125.287 0.793459 132.625 2.31 139.827C5.61 155.595 12.565 171.819 23.942 188.002C25.33 189.977 26.749 191.877 28.199 193.702C74.15 251.584 148.934 233.621 192.678 187.35C226.792 151.265 242.03 97.95 209.994 49.978C157.538 -28.58 61.254 -5.14701 19.633 55.7C6.93421 73.9736 0.0874787 95.6744 0 117.927Z" fill="#937FF5"/>
<path d="M40.957 208.723C41.2477 207.438 41.5477 206.154 41.857 204.873C53.412 151.894 72.328 153.673 72.328 153.673C72.609 148.151 72.952 142.784 73.337 137.65C74.537 121.687 76.137 107.89 77.494 97.939C78.916 87.319 81.644 80.9 80.031 81.021C78.9557 81.1003 77.91 81.1316 76.894 81.115C67.885 80.982 61.457 77.015 61.756 71.782C62.126 65.389 70.738 62.358 80.946 66.043C81.7609 67.5505 83.1077 68.7008 84.724 69.27C85.905 69.864 83.761 73.933 85.801 74.664C87.841 75.395 92.537 69.686 93.026 67.954C98.642 66.832 112.484 57.204 111.226 47.425C114.544 46.4895 118.061 46.5231 121.36 47.5218C124.66 48.5205 127.605 50.4425 129.847 53.061C133.114 56.6246 137.624 58.7972 142.447 59.13C158.422 71.386 173.047 87.051 172.113 88.996C170.743 91.866 139.992 85.445 139.992 85.445C138.806 106.366 138.715 127.335 139.718 148.265C139.969 152.965 140.306 157.679 140.743 162.319C141.151 166.714 149.97 178.566 155.284 185.353C156.504 186.91 157.599 188.562 158.558 190.292L168.538 208.323C147.678 221.975 123.574 230.109 100.038 230.108C78.982 230.107 58.379 223.602 40.957 208.723Z" fill="white"/>
<path d="M116.728 71.485L117.459 67.623C117.528 67.2241 117.438 66.8139 117.208 66.4806C116.978 66.1474 116.627 65.9178 116.229 65.8414C115.832 65.7649 115.42 65.8477 115.083 66.0719C114.746 66.2961 114.51 66.6438 114.427 67.04V67.056L113.698 70.918C113.62 71.3199 113.706 71.7361 113.935 72.075C114.165 72.4139 114.52 72.6477 114.922 72.725C115.324 72.8023 115.74 72.7168 116.079 72.4872C116.418 72.2577 116.651 71.9029 116.729 71.501L116.728 71.485Z" fill="#202D37"/>
<path d="M39.8828 207.792C40.0015 207.287 40.1211 206.781 40.2418 206.276L40.6088 204.61C50.6618 158.531 66.4168 153.048 71.1158 152.462C72.2908 129.955 74.5298 110.332 76.2158 97.749C77.2108 90.276 78.0778 84.884 78.4938 82.372C77.9385 82.3907 77.3945 82.3967 76.8618 82.39C70.6828 82.307 65.5178 80.504 62.6828 77.454C61.9382 76.7024 61.3574 75.8047 60.9768 74.8175C60.5963 73.8303 60.4244 72.7749 60.4718 71.718C60.5544 70.396 60.9579 69.114 61.6474 67.983C62.3368 66.852 63.2915 65.9061 64.4288 65.227C68.7068 62.509 75.6078 62.527 82.4378 65.263C82.7489 65.3905 82.997 65.6357 83.1281 65.9454C83.2591 66.255 83.2625 66.6038 83.1374 66.9159C83.0123 67.228 82.7689 67.478 82.4603 67.6113C82.1517 67.7447 81.8028 67.7507 81.4898 67.628C75.4078 65.198 69.3918 65.098 65.7948 67.379C64.997 67.8388 64.3253 68.4888 63.8397 69.2712C63.3541 70.0536 63.0697 70.944 63.0118 71.863C62.9827 72.5763 63.1032 73.2877 63.3655 73.9516C63.6278 74.6155 64.0261 75.2172 64.5348 75.718C66.8688 78.226 71.4858 79.768 76.8888 79.851C77.8588 79.864 78.8588 79.834 79.9058 79.751C80.0157 79.742 80.1262 79.7471 80.2348 79.766C80.5673 79.825 80.8628 80.0136 81.0563 80.2904C81.2498 80.5672 81.3256 80.9094 81.2668 81.242C81.2528 81.298 80.1338 87.633 78.7338 98.1C77.0338 110.855 74.7478 130.854 73.5978 153.755C73.5978 153.775 73.5978 153.795 73.5978 153.815C73.5818 153.981 73.5331 154.143 73.4546 154.291C73.376 154.438 73.2691 154.569 73.1401 154.676C73.011 154.782 72.8622 154.862 72.7022 154.911C72.5423 154.959 72.3743 154.976 72.2078 154.96C72.1788 154.96 67.7698 154.722 62.0308 160.622C56.6048 166.198 48.9128 178.446 43.0978 205.158L42.7288 206.824C42.5028 207.767 42.2815 208.71 42.0648 209.655C41.3321 209.048 40.6048 208.427 39.8828 207.792Z" fill="#3E3D3D"/>
<path d="M71.451 73.564C73.9536 73.0588 76.5541 73.4481 78.799 74.664C79.0379 74.9001 79.3601 75.0327 79.696 75.0333C80.0318 75.0338 80.3545 74.9022 80.5941 74.6669C80.8338 74.4315 80.9713 74.1114 80.9769 73.7755C80.9824 73.4397 80.8557 73.1151 80.624 72.872C80.601 72.848 80.576 72.825 80.551 72.803C77.7096 70.9802 74.2631 70.3538 70.962 71.06L70.905 71.071C70.7381 71.101 70.5789 71.1639 70.4367 71.2562C70.2944 71.3484 70.172 71.4681 70.0766 71.6083C69.9812 71.7484 69.9147 71.9062 69.8809 72.0723C69.8472 72.2385 69.847 72.4097 69.8802 72.5759C69.9135 72.7422 69.9795 72.9001 70.0746 73.0405C70.1696 73.1809 70.2917 73.301 70.4337 73.3936C70.5756 73.4863 70.7347 73.5497 70.9015 73.5801C71.0682 73.6106 71.2394 73.6075 71.405 73.571L71.451 73.564ZM139.207 84.421C139.062 84.5315 138.942 84.6718 138.856 84.8326C138.769 84.9934 138.719 85.1709 138.707 85.353C138.683 85.767 136.117 126.628 139.467 162.429C140.077 168.944 156.414 188.865 158.277 191.113C158.483 191.374 158.783 191.545 159.114 191.587C159.444 191.63 159.777 191.541 160.043 191.341C160.309 191.14 160.486 190.844 160.535 190.515C160.585 190.185 160.504 189.85 160.309 189.58C160.287 189.55 160.263 189.522 160.238 189.494C155.338 183.545 142.458 167.053 142.002 162.194C139.019 130.4 140.743 94.584 141.167 86.981C143.774 87.507 149.53 88.631 155.324 89.548C170.704 91.996 172.567 90.938 173.248 89.539C173.365 89.2346 173.417 88.9093 173.401 88.5837C173.385 88.2581 173.301 87.9394 173.155 87.648C170.649 81.594 140.474 51.621 120.338 44.496C120.179 44.4351 120.01 44.4066 119.84 44.4123C119.67 44.4179 119.503 44.4576 119.348 44.5289C119.194 44.6002 119.055 44.7017 118.941 44.8274C118.826 44.9531 118.738 45.1005 118.682 45.2609C118.625 45.4213 118.601 45.5914 118.611 45.7611C118.622 45.9309 118.666 46.0968 118.741 46.2493C118.817 46.4017 118.922 46.5374 119.051 46.6485C119.179 46.7596 119.329 46.8437 119.491 46.896C127.9 49.871 139.902 57.946 152.413 69.04C163.302 78.696 169.565 86.106 170.694 88.37C167.46 89.063 152.868 86.847 140.245 84.209C140.067 84.1681 139.882 84.1661 139.703 84.2032C139.523 84.2403 139.354 84.3156 139.207 84.424" fill="#3E3D3D"/>
<path d="M72.589 138.693C79.689 143.754 91.027 147.893 103.707 150.035C114.69 152.061 125.946 152.115 136.948 150.193C137.997 149.984 139.022 149.75 140.024 149.493C140.344 149.402 140.615 149.19 140.78 148.901C140.945 148.613 140.992 148.272 140.909 147.95C140.826 147.628 140.621 147.351 140.338 147.178C140.054 147.005 139.714 146.95 139.39 147.024C118.046 152.513 87.314 146.053 74.067 136.618C73.7919 136.422 73.4503 136.343 73.1171 136.399C72.7839 136.455 72.4866 136.64 72.2905 136.915C72.0943 137.191 72.0155 137.532 72.0713 137.865C72.1271 138.198 72.3129 138.496 72.588 138.692L72.589 138.693ZM127.032 73.668C127.156 73.6431 127.277 73.6007 127.389 73.542C130.042 72.4072 132.904 71.8443 135.789 71.89C136.127 71.8975 136.454 71.7705 136.699 71.5367C136.943 71.3029 137.085 70.9816 137.092 70.6435C137.1 70.3053 136.973 69.978 136.739 69.7336C136.505 69.4891 136.184 69.3475 135.846 69.34C132.518 69.2803 129.217 69.9486 126.175 71.298C125.906 71.4422 125.697 71.6785 125.588 71.9636C125.478 72.2488 125.475 72.5638 125.578 72.8513C125.682 73.1387 125.885 73.3793 126.151 73.5293C126.417 73.6792 126.729 73.7284 127.028 73.668M109.593 87.451C109.786 87.7295 110.083 87.9197 110.416 87.9798C110.75 88.0399 111.094 87.965 111.372 87.7715C111.651 87.578 111.841 87.2818 111.901 86.9481C111.961 86.6144 111.886 86.2705 111.693 85.992C108.849 82.0823 104.795 79.2189 100.16 77.845C99.846 77.7356 99.5017 77.7532 99.2005 77.894C98.8993 78.0349 98.665 78.2878 98.5477 78.5989C98.4303 78.9099 98.439 79.2546 98.5721 79.5593C98.7052 79.864 98.952 80.1046 99.26 80.23C104.57 82.221 107.269 84.113 109.596 87.45L109.593 87.451ZM77.47 97.916C78.891 87.297 80.012 80.987 80.012 80.987C78.9674 81.0746 77.919 81.108 76.871 81.087C72.454 84.978 67.871 87.876 64.211 86.822C59.629 85.548 60.773 100.515 77.469 97.922L77.47 97.916Z" fill="#3E3D3D"/>
<path d="M61.8947 93.726C63.1817 95.902 67.2867 100.789 77.6757 99.174L77.7287 99.163C77.988 99.1109 78.2246 98.9794 78.4057 98.7868C78.5869 98.5942 78.7036 98.3499 78.7397 98.088C80.1397 87.621 81.2587 81.288 81.2717 81.23C81.3052 81.038 81.2943 80.8409 81.2398 80.6538C81.1852 80.4668 81.0885 80.2947 80.9571 80.1508C80.8257 80.0069 80.663 79.8951 80.4816 79.8238C80.3002 79.7526 80.1049 79.7239 79.9107 79.74C78.8647 79.824 77.8627 79.855 76.8937 79.84C76.5774 79.8355 76.2706 79.9485 76.0327 80.157C71.0527 84.543 67.1867 86.381 64.5507 85.636C63.9965 85.4585 63.4009 85.4571 62.8458 85.6319C62.2907 85.8066 61.8033 86.149 61.4507 86.612C60.8479 87.7197 60.57 88.9751 60.6489 90.2337C60.7278 91.4924 61.1603 92.7032 61.8967 93.727M63.4697 88.152C63.5022 88.0971 63.555 88.0572 63.6167 88.041C63.6989 88.0316 63.7821 88.0415 63.8597 88.07C67.4087 89.086 71.7057 87.277 77.3597 82.384C77.7347 82.384 78.1167 82.376 78.4997 82.361C78.0997 84.761 77.2997 89.803 76.3517 96.783C68.2097 97.753 65.0777 94.096 64.0947 92.429C63.6437 91.822 63.3508 91.1124 63.2424 90.364C63.134 89.6156 63.2135 88.852 63.4737 88.142L63.4697 88.152ZM85.8087 74.665C87.8497 75.394 92.5437 69.68 93.0327 67.955C98.6487 66.833 112.491 57.21 111.233 47.424C114.551 46.4885 118.067 46.5219 121.367 47.5204C124.667 48.5189 127.612 50.4407 129.855 53.059C131.042 54.3133 132.383 55.413 133.846 56.332C140.714 60.769 149.955 60.359 151.734 52.555C153.312 45.645 143.508 52.828 141.534 49.361C138.955 44.801 137.515 34.93 126.496 33.261C115.477 31.592 108.039 40.661 108.039 40.661C101.265 34.815 83.1137 38.44 80.6007 63.421C80.5113 64.7211 80.8726 66.0124 81.6237 67.0773C82.3749 68.1423 83.47 68.9159 84.7247 69.268C85.9047 69.862 83.7537 73.934 85.8057 74.661L85.8087 74.665Z" fill="#3E3D3D"/>
<path d="M85.3657 75.865C85.8141 76.0198 86.2966 76.0475 86.7597 75.945C87.1586 75.8611 87.5437 75.7214 87.9037 75.53C90.4224 73.8997 92.4984 71.6715 93.9467 69.044C100.212 67.332 112.838 58.211 112.572 48.377C115.543 47.7704 118.623 47.9653 121.494 48.9417C124.365 49.9181 126.925 51.6407 128.911 53.933C133.634 58.976 140.746 61.464 146.189 59.991C147.878 59.561 149.411 58.6607 150.61 57.3946C151.809 56.1285 152.624 54.5486 152.961 52.838C153.175 52.1964 153.231 51.5126 153.125 50.8445C153.019 50.1765 152.754 49.5438 152.352 49C151.052 47.686 148.835 48.167 146.69 48.631C145.146 48.966 143.034 49.424 142.641 48.731C142.095 47.6866 141.607 46.613 141.18 45.515C139.063 40.415 136.164 33.435 126.687 32C117.111 30.558 110.198 36.577 107.901 38.942C105.896 37.764 103.639 37.0808 101.317 36.9489C98.9957 36.8171 96.6761 37.2405 94.5507 38.184C90.5767 39.775 81.1507 45.374 79.3507 63.295C79.2124 64.7909 79.5809 66.2899 80.397 67.5513C81.2131 68.8126 82.4295 69.7631 83.8507 70.25C83.8507 70.532 83.7907 70.973 83.7507 71.292C83.5687 72.718 83.2407 75.11 85.3657 75.865ZM81.8447 63.558C83.0147 51.925 87.9757 43.543 95.4447 40.563C97.3229 39.6988 99.3951 39.3432 101.454 39.5319C103.513 39.7205 105.486 40.4468 107.176 41.638C107.438 41.8581 107.776 41.9659 108.118 41.938C108.287 41.9237 108.451 41.8757 108.602 41.7968C108.752 41.718 108.885 41.61 108.993 41.479C109.064 41.393 116.127 32.994 126.273 34.529C134.326 35.745 136.804 41.717 138.794 46.502C139.261 47.695 139.795 48.8605 140.394 49.993C141.711 52.318 144.753 51.657 147.202 51.127C148.172 50.917 150.19 50.479 150.514 50.801C150.561 50.851 150.684 51.253 150.451 52.279C150.218 53.5393 149.627 54.7057 148.748 55.6388C147.87 56.5718 146.741 57.2319 145.497 57.54C140.997 58.76 134.791 56.512 130.735 52.198C128.333 49.3843 125.169 47.3247 121.624 46.2669C118.08 45.2092 114.305 45.1985 110.754 46.236C110.481 46.3346 110.25 46.5231 110.099 46.7705C109.948 47.0178 109.885 47.3094 109.922 47.597C111.056 56.266 98.3217 65.597 92.7547 66.712C92.5252 66.7577 92.3128 66.8659 92.1409 67.0248C91.969 67.1836 91.8444 67.3868 91.7807 67.612C91.3307 69.17 87.4107 73.468 86.2037 73.46C86.1099 72.8467 86.1235 72.2217 86.2437 71.613C86.4007 70.355 86.5957 68.799 85.2837 68.136L84.9227 67.96C83.9725 67.7078 83.1421 67.1275 82.5788 66.3218C82.0154 65.5161 81.7554 64.537 81.8447 63.558ZM76.9647 161.51C86.7997 173.037 95.4017 178.091 100.004 175.015C101.409 174.076 103.625 172.187 106.195 169.997C110.038 166.722 117.19 160.633 118.866 160.778C120.118 161.078 123.491 165.931 125.503 168.831C128.142 172.631 129.825 174.996 131.129 175.731C131.711 176.058 132.392 176.162 133.046 176.025C133.154 176.006 133.262 175.979 133.367 175.945C136.094 175.106 138.586 170.353 139.046 169.41C139.17 169.112 139.177 168.778 139.065 168.476C138.953 168.173 138.73 167.924 138.442 167.78C138.153 167.635 137.821 167.606 137.511 167.697C137.202 167.788 136.938 167.994 136.775 168.272C135.826 170.159 133.861 173.126 132.624 173.506C132.465 173.557 132.424 173.528 132.381 173.506C130.561 171.647 128.956 169.59 127.594 167.373C123.899 162.054 121.508 158.79 119.458 158.299C117.127 157.743 113.151 160.716 104.543 168.054C102.138 170.104 99.8677 172.037 98.5877 172.894C95.3807 175.043 87.2877 169.677 78.9027 159.86C78.6834 159.603 78.371 159.444 78.0343 159.417C77.6975 159.391 77.3641 159.499 77.1072 159.718C76.8503 159.938 76.6911 160.25 76.6646 160.587C76.638 160.924 76.7464 161.257 76.9657 161.514L76.9647 161.51Z" fill="#3E3D3D"/>
<path d="M114.408 176.975C116.951 177.663 119.621 177.742 122.201 177.207C122.748 177.117 123.277 176.943 123.77 176.689C125.156 175.881 127.544 171.659 128.495 169.889C128.648 169.592 128.68 169.247 128.581 168.928C128.483 168.608 128.264 168.34 127.97 168.181C127.676 168.022 127.331 167.985 127.01 168.077C126.689 168.169 126.417 168.384 126.253 168.675C125.219 170.754 123.949 172.708 122.469 174.497C120.215 175.075 117.861 175.147 115.576 174.708C114.652 174.229 112.608 169.952 110.631 165.815L110.353 165.231C110.203 164.933 109.942 164.705 109.626 164.597C109.31 164.489 108.965 164.509 108.663 164.653C108.362 164.797 108.13 165.054 108.015 165.367C107.901 165.681 107.915 166.027 108.053 166.331L108.331 166.915C111.378 173.287 112.791 176.138 114.407 176.974" fill="#3E3D3D"/>
<path d="M113.719 175.734C113.73 175.565 113.775 175.4 113.851 175.249C113.927 175.097 114.032 174.962 114.161 174.852C114.289 174.742 114.439 174.658 114.6 174.606C114.761 174.555 114.931 174.535 115.1 174.55C115.269 174.565 115.433 174.613 115.583 174.692C115.733 174.77 115.865 174.878 115.973 175.009C116.081 175.14 116.161 175.291 116.21 175.453C116.259 175.615 116.275 175.786 116.257 175.954C115.041 193.543 115.273 211.203 116.95 228.754C116.106 228.887 115.261 229.011 114.417 229.126C112.71 211.378 112.477 193.52 113.719 175.734ZM131.505 215.139C131.212 213.971 124.297 186.418 121.871 175.888C121.795 175.559 121.853 175.213 122.032 174.927C122.21 174.641 122.496 174.437 122.825 174.361C123.154 174.285 123.5 174.343 123.786 174.522C124.072 174.701 124.276 174.986 124.352 175.315C126.772 185.822 133.681 213.349 133.975 214.515C134.057 214.841 134.007 215.187 133.834 215.476C133.662 215.765 133.383 215.975 133.057 216.058L132.996 216.07C132.675 216.136 132.341 216.076 132.063 215.903C131.785 215.729 131.585 215.455 131.504 215.138L131.505 215.139Z" fill="#3E3D3D"/>
<path d="M77.1916 227.391C76.0383 218.241 75.2716 209.052 74.8916 199.825C74.8916 199.793 74.8916 199.762 74.8916 199.732C74.8918 199.562 74.9258 199.395 74.9916 199.239C75.0574 199.082 75.1537 198.941 75.2748 198.822C75.396 198.704 75.5395 198.61 75.6971 198.548C75.8547 198.486 76.0231 198.455 76.1926 198.459C76.3621 198.462 76.5291 198.499 76.684 198.568C76.839 198.637 76.9786 198.736 77.0948 198.859C77.211 198.983 77.3014 199.128 77.3608 199.287C77.4202 199.446 77.4473 199.615 77.4406 199.784C77.8293 209.221 78.6293 218.627 79.8406 228C78.9506 227.811 78.0706 227.608 77.1916 227.391Z" fill="#3E3D3D"/>
<path d="M194.79 31.306C197.843 28.7309 201.59 27.1187 205.559 26.6734C209.527 26.2281 213.539 26.9696 217.086 28.8042C220.633 30.6388 223.557 33.4841 225.487 36.9803C227.417 40.4764 228.268 44.4664 227.93 48.4457C227.593 52.425 226.083 56.2149 223.591 59.3361C221.1 62.4573 217.739 64.7696 213.934 65.9807C210.128 67.1917 206.049 67.2471 202.212 66.1399C198.375 65.0326 194.952 62.8124 192.377 59.76C188.924 55.6667 187.238 50.3694 187.691 45.0333C188.143 39.6972 190.697 34.7594 194.79 31.306Z" fill="#5840D1"/>
<path d="M205.651 54.223C205.404 54.1404 205.142 54.1094 204.882 54.1317C204.622 54.1541 204.37 54.2294 204.14 54.353C203.688 54.6025 203.35 55.0181 203.198 55.5119C203.046 56.0058 203.092 56.5394 203.326 57C203.443 57.2357 203.608 57.4443 203.81 57.6123C204.012 57.7802 204.248 57.9038 204.501 57.975C204.735 58.0435 204.979 58.0679 205.221 58.047C205.611 58.0131 205.982 57.8656 206.289 57.6228C206.596 57.38 206.825 57.0526 206.947 56.681C207.03 56.4325 207.06 56.1694 207.036 55.9086C207.011 55.6477 206.933 55.3948 206.805 55.166C206.685 54.9404 206.521 54.7408 206.323 54.579C206.125 54.4171 205.896 54.2961 205.651 54.223Z" fill="white"/>
<path d="M216.519 38.703C216.02 37.8225 215.347 37.0528 214.54 36.4409C213.734 35.829 212.812 35.3878 211.829 35.144C210 34.5099 208.005 34.5453 206.2 35.244C205.522 35.5422 204.903 35.9594 204.372 36.476C203.631 37.195 203.109 38.1088 202.866 39.112C202.705 39.5881 202.734 40.1082 202.948 40.563C203.174 40.9517 203.537 41.2422 203.966 41.378C204.37 41.5008 204.805 41.4689 205.187 41.2885C205.569 41.1081 205.87 40.7921 206.031 40.402C206.33 39.5897 206.858 38.882 207.552 38.365C208.037 38.0954 208.578 37.9394 209.132 37.9089C209.686 37.8784 210.24 37.9742 210.752 38.189C211.729 38.4377 212.577 39.0445 213.127 39.889C213.363 40.272 213.511 40.7026 213.56 41.1496C213.609 41.5966 213.558 42.049 213.411 42.474C213.101 43.2243 212.634 43.8998 212.042 44.4551C211.45 45.0104 210.746 45.4328 209.977 45.694C208.889 46.172 207.841 46.7355 206.842 47.379C205.951 48.0116 205.302 48.9285 205.002 49.979L204.872 50.403C204.807 50.6155 204.784 50.8388 204.806 51.0601C204.827 51.2814 204.892 51.4963 204.996 51.6926C205.1 51.8888 205.242 52.0626 205.414 52.2039C205.586 52.3451 205.783 52.4512 205.996 52.516L206.187 52.575L206.287 52.252V52.244H206.298L206.188 52.565C206.618 52.6959 207.083 52.6511 207.48 52.4404C207.877 52.2298 208.174 51.8705 208.307 51.441L208.356 51.278C208.5 50.7346 208.794 50.2429 209.205 49.859C210.017 49.2721 210.893 48.7806 211.817 48.394C213.056 47.881 214.204 47.1719 215.217 46.294C215.968 45.5506 216.516 44.6277 216.809 43.613C217.09 42.8156 217.208 41.97 217.157 41.1261C217.105 40.2823 216.885 39.4573 216.509 38.7" fill="white"/>
<path d="M202.468 109.584C204.795 108.527 207.383 108.184 209.905 108.599C212.426 109.013 214.769 110.165 216.635 111.911C218.502 113.656 219.809 115.916 220.392 118.404C220.974 120.892 220.805 123.497 219.907 125.89C219.009 128.282 217.422 130.355 215.346 131.845C213.27 133.335 210.799 134.177 208.245 134.262C205.691 134.348 203.169 133.675 200.997 132.327C198.826 130.98 197.103 129.019 196.046 126.692C194.629 123.572 194.51 120.016 195.715 116.808C196.919 113.6 199.349 111.002 202.469 109.585" fill="#5840D1"/>
<path d="M205.183 125.584C205.045 125.49 204.89 125.426 204.726 125.394C204.562 125.363 204.393 125.366 204.23 125.402C203.908 125.477 203.628 125.674 203.449 125.952C203.27 126.23 203.205 126.567 203.269 126.891C203.301 127.056 203.366 127.212 203.462 127.35C203.558 127.488 203.681 127.604 203.824 127.691C203.956 127.774 204.102 127.831 204.255 127.86C204.501 127.907 204.756 127.881 204.987 127.785C205.218 127.688 205.416 127.526 205.555 127.318C205.65 127.179 205.714 127.023 205.744 126.858C205.774 126.693 205.77 126.524 205.731 126.361C205.696 126.201 205.63 126.05 205.536 125.916C205.442 125.782 205.323 125.667 205.184 125.58" fill="white"/>
<path d="M214.569 117.911C214.415 117.282 214.133 116.691 213.743 116.174C213.353 115.658 212.861 115.226 212.298 114.905C211.281 114.199 210.046 113.875 208.813 113.993C208.344 114.06 207.89 114.209 207.473 114.435C206.893 114.75 206.413 115.222 206.089 115.798C205.908 116.063 205.836 116.389 205.889 116.706C205.961 116.985 206.134 117.227 206.374 117.385C206.602 117.531 206.875 117.588 207.142 117.543C207.409 117.498 207.649 117.356 207.816 117.143C208.141 116.694 208.589 116.35 209.106 116.152C209.452 116.071 209.811 116.068 210.157 116.146C210.504 116.223 210.828 116.378 211.106 116.598C211.664 116.92 212.081 117.441 212.274 118.056C212.353 118.333 212.369 118.624 212.322 118.908C212.275 119.192 212.165 119.462 212.001 119.698C211.68 120.106 211.275 120.441 210.814 120.681C210.353 120.92 209.846 121.058 209.327 121.086C208.574 121.191 207.83 121.357 207.103 121.58C206.445 121.815 205.886 122.267 205.519 122.862L205.365 123.1C205.288 123.22 205.235 123.354 205.209 123.494C205.184 123.634 205.186 123.778 205.217 123.918C205.247 124.057 205.304 124.189 205.386 124.306C205.467 124.423 205.571 124.523 205.691 124.6L205.798 124.67L205.916 124.489H205.922L205.798 124.667C205.915 124.742 206.045 124.794 206.181 124.82C206.394 124.861 206.614 124.837 206.813 124.752C207.012 124.666 207.181 124.524 207.298 124.342L207.357 124.25C207.54 123.94 207.806 123.688 208.125 123.523C208.727 123.302 209.353 123.151 209.989 123.074C210.842 122.974 211.673 122.738 212.45 122.374C213.042 122.046 213.539 121.573 213.896 120.999C214.207 120.556 214.427 120.056 214.541 119.527C214.656 118.999 214.663 118.453 214.563 117.921" fill="white"/>
</g>
<defs>
<clipPath id="clip0_478_546">
<rect width="228.004" height="230.608" fill="white"/>
</clipPath>
</defs>
</svg>
