<svg width="17" height="22" viewBox="0 0 17 22" fill="none" xmlns="http://www.w3.org/2000/svg">
<path fill-rule="evenodd" clip-rule="evenodd" d="M13.5154 0.97168C13.8525 0.97168 14.1863 1.03812 14.4978 1.16722C14.8092 1.29631 15.0922 1.48552 15.3305 1.72403C15.5687 1.96253 15.7577 2.24566 15.8865 2.55723C16.0153 2.8688 16.0814 3.2027 16.0811 3.53984V9.43527C16.0811 10.1157 15.8107 10.7683 15.3296 11.2495C14.8484 11.7307 14.1958 12.001 13.5154 12.001H12.1894C11.9626 12.001 11.745 11.9109 11.5846 11.7505C11.4243 11.5901 11.3341 11.3726 11.3341 11.1457C11.3341 10.9189 11.4243 10.7014 11.5846 10.541C11.745 10.3806 11.9626 10.2905 12.1894 10.2905H13.5154C13.7422 10.2905 13.9597 10.2004 14.1201 10.04C14.2805 9.87962 14.3706 9.66209 14.3706 9.43527V3.53984C14.3706 3.31302 14.2805 3.09549 14.1201 2.9351C13.9597 2.77471 13.7422 2.68461 13.5154 2.68461L2.90999 2.68461C2.68317 2.68461 2.46564 2.77471 2.30525 2.9351C2.14486 3.09549 2.05476 3.31302 2.05476 3.53984V9.43527C2.05476 9.66209 2.14486 9.87962 2.30525 10.04C2.46564 10.2004 2.68317 10.2905 2.90999 10.2905H4.23474C4.46156 10.2905 4.67909 10.3806 4.83948 10.541C4.99987 10.7014 5.08997 10.9189 5.08997 11.1457C5.08997 11.3726 4.99987 11.5901 4.83948 11.7505C4.67909 11.9109 4.46156 12.001 4.23474 12.001H2.90876C2.2283 12.001 1.5757 11.7307 1.09454 11.2495C0.613378 10.7683 0.343065 10.1157 0.343065 9.43527V3.53984C0.343065 2.85937 0.613378 2.20678 1.09454 1.72562C1.5757 1.24446 2.2283 0.974144 2.90876 0.974144L13.5154 0.97168Z" fill="#5840D1"/>
<path fill-rule="evenodd" clip-rule="evenodd" d="M8.21169 7.75928C8.09938 7.75928 7.98817 7.7814 7.88441 7.82438C7.78064 7.86736 7.68637 7.93035 7.60695 8.00977C7.52753 8.08918 7.46454 8.18347 7.42156 8.28723C7.37858 8.39099 7.35646 8.5022 7.35646 8.61451V18.7627L3.08893 14.8833C2.9211 14.7307 2.69951 14.651 2.47291 14.6617C2.24631 14.6725 2.03326 14.7728 1.88063 14.9406C1.728 15.1085 1.64829 15.3301 1.65904 15.5567C1.66979 15.7832 1.77011 15.9963 1.93794 16.1489L7.41314 21.1275C7.63794 21.3327 7.93133 21.4465 8.23572 21.4465C8.54011 21.4465 8.8335 21.3327 9.05829 21.1275L14.4879 16.1465C14.5719 16.0709 14.6401 15.9794 14.6885 15.8773C14.737 15.7753 14.7647 15.6646 14.7701 15.5517C14.7756 15.4389 14.7586 15.3261 14.7201 15.2198C14.6817 15.1136 14.6226 15.016 14.5462 14.9327C14.4699 14.8494 14.3778 14.7821 14.2753 14.7346C14.1727 14.6871 14.0618 14.6605 13.9489 14.6561C13.836 14.6517 13.7233 14.6698 13.6175 14.7092C13.5116 14.7486 13.4145 14.8087 13.332 14.8858L9.06815 18.796V8.61574C9.06832 8.50322 9.04627 8.39178 9.00329 8.2878C8.96031 8.18381 8.89722 8.08933 8.81766 8.00977C8.7381 7.93021 8.64362 7.86713 8.53964 7.82414C8.43565 7.78116 8.32421 7.75912 8.21169 7.75928Z" fill="#5840D1"/>
</svg>
