<svg xmlns="http://www.w3.org/2000/svg" width="17" height="17" viewBox="0 0 17 17" fill="none">
  <g clip-path="url(#clip0_304_1303)">
    <path d="M16.4651 10.4919V15.0087C16.4651 15.8037 15.8173 16.4515 15.0223 16.4515H2.66739C1.87239 16.4515 1.22461 15.8037 1.22461 15.0087V2.64786C1.22461 1.85286 1.87239 1.20508 2.66739 1.20508H6.5423" stroke="#5840D1" stroke-width="0.883337" stroke-linecap="round" stroke-linejoin="round"/>
    <path d="M16.4184 0.781911C17.1132 1.4768 17.1132 2.60159 16.4184 3.29648L9.84633 9.86851C9.56366 10.1512 9.20444 10.3573 8.80988 10.4515L6.77232 10.958C6.53087 11.0168 6.28942 10.8696 6.23054 10.6341C6.21287 10.5634 6.21287 10.4927 6.23054 10.4221L6.74287 8.3845C6.84298 7.98994 7.04321 7.63661 7.32587 7.34805L13.9038 0.781911C14.5987 0.0870192 15.7235 0.0870192 16.4184 0.781911ZM13.2737 2.67225L7.95599 7.98994C7.78521 8.16072 7.66154 8.37272 7.60265 8.60828L7.27287 9.92739L8.59199 9.59762C8.82755 9.53873 9.03955 9.41506 9.21033 9.24428L14.5221 3.93248L13.2678 2.67814L13.2737 2.67225ZM14.5339 1.41202L13.9038 2.04214L15.164 3.30237L15.7941 2.67225C16.1416 2.32481 16.1416 1.75947 15.7941 1.41202C15.4467 1.06458 14.8813 1.06458 14.5339 1.41202Z" fill="#5840D1"/>
  </g>
  <defs>
    <clipPath id="clip0_304_1303">
      <rect width="16.1592" height="16.6362" fill="white" transform="translate(0.783691 0.256348)"/>
    </clipPath>
  </defs>
</svg>