<svg viewBox="0 0 63 22" fill="none" xmlns="http://www.w3.org/2000/svg">
<path d="M11.4024 16.708C11.5931 16.708 11.7559 16.569 11.7837 16.3783C12.2325 13.229 10.0442 10.3139 6.89486 9.86517C6.62481 9.82546 6.35475 9.80957 6.08072 9.80957C5.66372 9.80957 5.24275 9.85723 4.83369 9.9446C3.90437 10.1352 3.04257 10.5681 2.33168 11.1956C2.14503 11.3545 1.97823 11.5332 1.80745 11.7039C-0.0710353 13.5824 0.36185 16.279 0.369793 16.3307C0.786794 19.476 3.67403 21.6881 6.81941 21.2711C8.07438 21.1043 9.24198 20.5285 10.1356 19.6309L8.36032 17.8557C8.21735 17.7167 7.99495 17.7088 7.84006 17.8358C7.46278 18.1416 7.01004 18.3402 6.52552 18.4117C5.5406 18.5586 4.54774 18.1972 3.88849 17.4506C3.72169 17.264 3.58268 17.0535 3.47546 16.8311C3.45957 16.7914 3.47546 16.7437 3.51517 16.7278C3.52311 16.7238 3.53503 16.7199 3.54694 16.7199L11.4024 16.7119V16.708ZM3.43177 14.6984C3.38809 14.6984 3.35234 14.6627 3.35234 14.619C3.35234 14.611 3.35234 14.6031 3.35234 14.5952C3.49531 14.198 3.72566 13.8366 4.02749 13.5427C4.55966 12.9947 5.29438 12.6928 6.05689 12.7087C6.39843 12.7087 6.736 12.7643 7.05769 12.8795C7.84404 13.1853 8.45961 13.8088 8.76144 14.5952C8.77335 14.6388 8.7535 14.6825 8.70981 14.6944C8.70187 14.6944 8.69392 14.6944 8.68598 14.6944H3.42383L3.43177 14.6984Z" fill="white"/>
<path d="M18.2136 9.45958C18.6028 9.45958 18.988 9.55886 19.3296 9.74949C19.4487 9.81701 19.5996 9.79715 19.6989 9.70184L21.4781 7.92264C19.5003 5.99649 16.3391 6.04018 14.4129 8.01795C13.5035 8.95124 12.9951 10.2022 12.9951 11.5049V11.5327V21.3024H15.6123C15.7831 21.3024 15.9181 21.1634 15.9181 20.9966V16.0522V15.7106H18.8609V13.1014C18.8609 12.9306 18.7219 12.7956 18.5551 12.7956H15.9181V11.6002C16.0015 10.3968 17.0023 9.46753 18.2056 9.46355L18.2136 9.45958Z" fill="white"/>
<path d="M31.0929 16.708C31.2835 16.708 31.4463 16.569 31.4741 16.3783C31.9229 13.229 29.7346 10.3139 26.5853 9.86517C26.3152 9.82546 26.0452 9.80957 25.7711 9.80957C25.3541 9.80957 24.9332 9.85723 24.5241 9.9446C23.5948 10.1352 22.733 10.5681 22.0221 11.1956C21.8355 11.3545 21.6687 11.5332 21.4979 11.7039C19.6194 13.5824 20.0523 16.279 20.0602 16.3307C20.4772 19.476 23.3645 21.6881 26.5098 21.2711C27.7648 21.1043 28.9324 20.5285 29.826 19.6309L28.0508 17.8557C27.9078 17.7167 27.6854 17.7088 27.5305 17.8358C27.1532 18.1416 26.7005 18.3402 26.2159 18.4117C25.231 18.5586 24.2382 18.1972 23.5789 17.4506C23.4121 17.264 23.2731 17.0535 23.1659 16.8311C23.15 16.7914 23.1659 16.7437 23.2056 16.7278C23.2135 16.7238 23.2255 16.7199 23.2374 16.7199L31.0929 16.7119V16.708ZM23.1222 14.6984C23.0785 14.6984 23.0428 14.6627 23.0428 14.619C23.0428 14.611 23.0428 14.6031 23.0428 14.5952C23.1857 14.198 23.4161 13.8366 23.7179 13.5427C24.2501 12.9947 24.9848 12.6928 25.7473 12.7087C26.0889 12.7087 26.4264 12.7643 26.7481 12.8795C27.5345 13.1853 28.15 13.8088 28.4519 14.5952C28.4638 14.6388 28.4439 14.6825 28.4002 14.6944C28.3923 14.6944 28.3844 14.6944 28.3764 14.6944H23.1143L23.1222 14.6984Z" fill="white"/>
<path d="M43.6033 19.6312C41.3594 17.3834 41.3634 13.7456 43.6112 11.5017C45.859 9.25784 49.4969 9.26182 51.7407 11.5096C53.9846 13.7575 53.9806 17.3953 51.7328 19.6392C50.6565 20.7154 49.195 21.3191 47.674 21.3191C46.141 21.3429 44.6676 20.7313 43.6033 19.6312ZM49.7034 17.5979C50.8233 16.4739 50.8194 14.659 49.6994 13.5391C48.5755 12.4191 46.7606 12.4231 45.6406 13.543C44.5207 14.6669 44.5246 16.4819 45.6446 17.6018C46.1847 18.138 46.9154 18.4398 47.674 18.4398C48.4365 18.4517 49.1712 18.1459 49.7034 17.5979Z" fill="white"/>
<path d="M60.4142 11.4498C58.2338 9.30122 54.7469 9.24165 52.4951 11.3187C53.1345 11.9939 53.6111 12.804 53.8851 13.6897C53.8851 13.6897 53.9526 13.8366 54.0043 13.8525C54.0559 13.8684 54.1433 13.7572 54.1433 13.7572C54.2028 13.6857 54.2664 13.6142 54.3339 13.5467C55.4459 12.4109 57.2648 12.395 58.4006 13.507C59.5365 14.619 59.5524 16.4379 58.4404 17.5737C57.3284 18.7095 55.5094 18.7254 54.3736 17.6134C54.2862 17.53 54.2068 17.4387 54.1314 17.3434C54.1115 17.3195 54.04 17.2481 53.9923 17.2481C53.9367 17.2481 53.9089 17.3394 53.9089 17.3394C53.6389 18.2568 53.1544 19.1027 52.4951 19.7977C54.8343 21.9463 58.4761 21.7914 60.6246 19.4522C62.7255 17.1647 62.6302 13.6221 60.4142 11.4498Z" fill="white"/>
<path d="M31.1365 9.83398H33.4677C33.5908 9.83398 33.702 9.90547 33.7537 10.0127L36.6012 15.8189C36.629 15.8785 36.7044 15.9063 36.764 15.8745C36.7878 15.8626 36.8077 15.8428 36.8196 15.8189L39.6671 10.0127C39.7188 9.9015 39.8299 9.83398 39.9531 9.83398H42.2843C42.463 9.83398 42.606 9.9849 42.606 10.1636C42.606 10.2113 42.5941 10.2629 42.5702 10.3066L37.3756 20.9024C37.2009 21.2677 36.76 21.4226 36.3947 21.2479C36.2437 21.1764 36.1206 21.0533 36.0491 20.9024L30.8545 10.3066C30.7751 10.1477 30.8386 9.94915 30.9975 9.86973C31.0412 9.84987 31.0888 9.83796 31.1365 9.83398Z" fill="white"/>
<path d="M37.8399 1.07647L35.2505 6.08048L34.901 5.38548C34.8494 5.28619 34.8494 5.16308 34.901 5.06379L37.0933 0.830243C37.1846 0.659471 37.3951 0.591955 37.5698 0.679327C37.6373 0.715069 37.689 0.766701 37.7247 0.834215L37.8439 1.0725L37.8399 1.07647Z" fill="white"/>
<path d="M39.4758 4.63869L37.2875 8.87224C37.1962 9.04699 36.9817 9.1145 36.811 9.02316C36.7474 8.98742 36.6918 8.93579 36.66 8.87224L35.7148 6.99375L38.3082 1.98975L39.4837 4.32495C39.5354 4.42423 39.5314 4.54338 39.4837 4.64664L39.4758 4.63869Z" fill="white"/>
</svg>
