<svg width="11" height="19" viewBox="0 0 11 19" fill="none" xmlns="http://www.w3.org/2000/svg">
<path d="M2.40032 13.9295L4.38867 17.8691C4.57392 18.2396 5.01853 18.3755 5.38903 18.1902C5.52488 18.1161 5.63603 18.005 5.71013 17.8691L10.3043 8.97712C10.4155 8.76717 10.4155 8.52017 10.3043 8.29787L7.83433 3.3949L2.38797 13.9048L2.40032 13.9295ZM5.30258 0.998998L0.708363 9.89102C0.597212 10.101 0.597212 10.348 0.708363 10.5703L1.43701 12.0276L6.87103 1.5177L6.62403 1.01135C6.43878 0.640847 5.99418 0.492647 5.63603 0.677897C5.50018 0.751997 5.37668 0.863147 5.31492 0.998998" fill="white"/>
</svg>
