<svg width="21" height="22" viewBox="0 0 21 22" fill="none" xmlns="http://www.w3.org/2000/svg">
<path d="M0.249394 11.196C0.254316 5.55082 4.84713 0.967853 10.4961 0.971682C16.1538 0.975511 20.739 5.57324 20.7281 11.2315C20.7171 16.8778 16.1194 21.4564 10.4704 21.4465C4.82196 21.4367 0.244471 16.8461 0.249394 11.196ZM4.18202 11.1982H4.16397C4.16397 11.9759 4.1585 12.7537 4.16671 13.5315C4.16944 13.8241 4.18202 14.1195 4.22687 14.4077C4.41503 15.6236 4.99644 16.5671 6.14998 17.0922C6.72975 17.3558 7.34782 17.4641 7.9801 17.4674C9.57667 17.4751 11.1738 17.4745 12.7704 17.4663C13.1171 17.4647 13.4672 17.4444 13.8085 17.3881C15.0999 17.1748 16.0559 16.5162 16.534 15.2588C16.7298 14.7441 16.8118 14.2053 16.8124 13.6551C16.814 12.0722 16.8162 10.4893 16.8102 8.90641C16.8091 8.60722 16.7954 8.30475 16.7495 8.00994C16.5466 6.70982 15.9001 5.74006 14.6382 5.24671C14.1246 5.04597 13.5853 4.95409 13.0373 4.95135C11.3379 4.94315 9.63903 4.94041 7.93963 4.9519C7.24444 4.95682 6.56895 5.09083 5.9487 5.42392C4.78258 6.05019 4.26899 7.09269 4.19242 8.35343C4.13499 9.29803 4.18093 10.2492 4.18093 11.1971L4.18202 11.1982Z" fill="#5840D1"/>
<path d="M10.489 6.09898C11.3291 6.10555 12.1692 6.12688 13.0072 6.13891C13.2779 6.14274 13.5536 6.17446 13.8178 6.23408C14.8286 6.46216 15.4855 7.20548 15.6069 8.24251C15.6337 8.47223 15.6474 8.70469 15.6479 8.93605C15.6512 10.4922 15.6616 12.0482 15.6413 13.6043C15.6364 13.9867 15.579 14.3849 15.457 14.7464C15.1431 15.68 14.4347 16.1816 13.4765 16.2352C12.2852 16.3025 11.0895 16.2959 9.89554 16.2998C9.10464 16.3025 8.311 16.2987 7.52283 16.2412C6.31515 16.1532 5.50401 15.3382 5.36782 14.1349C5.3443 13.9254 5.32953 13.7137 5.32898 13.5026C5.3257 11.9263 5.31586 10.3494 5.33555 8.77306C5.33992 8.40441 5.40282 8.02099 5.52042 7.67203C5.83547 6.73728 6.54378 6.25377 7.5015 6.18103C8.49478 6.10555 9.49134 6.09187 10.489 6.09953V6.09898ZM10.4841 7.88207C8.62769 7.88754 7.15145 9.37636 7.16075 11.2344C7.1695 13.0727 8.66324 14.5435 10.5152 14.5369C12.3366 14.5303 13.8167 13.0459 13.8183 11.2256C13.82 9.36542 12.3355 7.8766 10.4846 7.88261L10.4841 7.88207ZM13.8364 8.55975C14.2023 8.56084 14.5004 8.26658 14.502 7.9034C14.5037 7.53803 14.211 7.23994 13.8468 7.23556C13.471 7.23119 13.1685 7.53037 13.1718 7.9034C13.1751 8.27095 13.4666 8.55865 13.8369 8.56029L13.8364 8.55975Z" fill="#5840D1"/>
<path d="M12.6353 11.2364C12.6106 12.4348 11.6436 13.3772 10.4616 13.3553C9.26654 13.3329 8.31757 12.3604 8.34163 11.1817C8.36625 9.98444 9.33382 9.04148 10.5158 9.06336C11.7131 9.08524 12.6588 10.0555 12.6353 11.2364Z" fill="#5840D1"/>
</svg>
