<svg width="25" height="25" viewBox="0 0 25 25" fill="none" xmlns="http://www.w3.org/2000/svg">
<path d="M0.388677 12.448C0.394446 5.8309 5.77698 0.458894 12.3973 0.463382C19.0279 0.46787 24.4015 5.85719 24.3886 12.4896C24.3758 19.108 18.9875 24.4749 12.3672 24.4633C5.7475 24.4518 0.382907 19.0708 0.388677 12.448ZM4.99752 12.4505H4.97637C4.97637 13.3622 4.96996 14.2739 4.97957 15.1856C4.98278 15.5286 4.99752 15.8748 5.05008 16.2127C5.27059 17.6379 5.95198 18.7438 7.30386 19.3593C7.98333 19.6684 8.70767 19.7953 9.44867 19.7991C11.3198 19.8081 13.1915 19.8075 15.0626 19.7979C15.469 19.7959 15.8793 19.7722 16.2792 19.7062C17.7927 19.4561 18.9131 18.6842 19.4734 17.2103C19.7029 16.607 19.799 15.9755 19.7997 15.3305C19.8016 13.4751 19.8041 11.6196 19.7971 9.76422C19.7958 9.41352 19.7798 9.05898 19.7259 8.71341C19.4881 7.18945 18.7305 6.05273 17.2517 5.47443C16.6497 5.23914 16.0177 5.13143 15.3754 5.12822C13.3838 5.11861 11.3928 5.1154 9.40124 5.12887C8.58652 5.13464 7.79488 5.29171 7.06797 5.68216C5.70135 6.41625 5.09944 7.63824 5.0097 9.11604C4.94239 10.2233 4.99624 11.3382 4.99624 12.4493L4.99752 12.4505Z" fill="white"/>
<path d="M12.3885 6.47323C13.3731 6.48093 14.3577 6.50593 15.3397 6.52004C15.657 6.52452 15.9801 6.56171 16.2897 6.63159C17.4743 6.89894 18.2441 7.77023 18.3864 8.98581C18.4178 9.25508 18.4339 9.52756 18.4345 9.79876C18.4384 11.6228 18.4505 13.4468 18.4268 15.2708C18.421 15.7189 18.3537 16.1857 18.2108 16.6095C17.8429 17.7039 17.0128 18.2918 15.8897 18.3546C14.4936 18.4335 13.0924 18.4258 11.693 18.4303C10.7661 18.4335 9.83603 18.429 8.91234 18.3617C7.497 18.2584 6.54638 17.3032 6.38677 15.8927C6.35921 15.6471 6.3419 15.399 6.34126 15.1515C6.33741 13.3038 6.32588 11.4554 6.34895 9.60771C6.35408 9.17559 6.4278 8.72616 6.56561 8.31712C6.93483 7.22143 7.76494 6.65467 8.88734 6.5694C10.0514 6.48093 11.2193 6.4649 12.3885 6.47387V6.47323ZM12.3828 8.56331C10.2072 8.56972 8.4771 10.3149 8.48799 12.4928C8.49825 14.6476 10.2488 16.3716 12.4193 16.3639C14.5538 16.3562 16.2884 14.6162 16.2903 12.4825C16.2923 10.302 14.5526 8.5569 12.3834 8.56395L12.3828 8.56331ZM16.3115 9.35767C16.7403 9.35895 17.0897 9.01402 17.0916 8.58831C17.0935 8.16004 16.7506 7.81063 16.3237 7.8055C15.8833 7.80037 15.5288 8.15106 15.5327 8.58831C15.5365 9.01915 15.8782 9.35638 16.3121 9.35831L16.3115 9.35767Z" fill="white"/>
<path d="M14.9045 12.4954C14.8757 13.9001 13.7424 15.0048 12.3571 14.9791C10.9565 14.9528 9.84439 13.8129 9.8726 12.4313C9.90144 11.0278 11.0354 9.92255 12.4206 9.94819C13.8238 9.97384 14.9321 11.1112 14.9045 12.4954Z" fill="white"/>
</svg>
