<svg width="39" height="25" viewBox="0 0 39 25" fill="none" xmlns="http://www.w3.org/2000/svg">
<path d="M24.6729 3.15527H14.1777V22.0132H24.6729V3.15527Z" fill="#FF5F00"/>
<path d="M14.8445 12.5841C14.8445 8.91917 16.5437 5.42078 19.409 3.15517C14.2114 -0.942936 6.64828 -0.0433532 2.55018 5.18756C-1.5146 10.3852 -0.61502 17.915 4.61589 22.0131C8.98054 25.4449 15.0777 25.4449 19.4424 22.0131C16.5437 19.7475 14.8445 16.2491 14.8445 12.5841Z" fill="#EB001B"/>
<path d="M38.8334 12.5841C38.8334 19.2144 33.4692 24.5786 26.839 24.5786C24.1402 24.5786 21.5414 23.679 19.4424 22.0131C24.64 17.915 25.5396 10.3852 21.4415 5.15424C20.8417 4.42125 20.1754 3.72157 19.4424 3.15517C24.64 -0.942936 32.2031 -0.0433532 36.2679 5.18756C37.9338 7.28659 38.8334 9.88538 38.8334 12.5841Z" fill="#F79E1B"/>
</svg>
