<svg width="21" height="22" viewBox="0 0 21 22" fill="none" xmlns="http://www.w3.org/2000/svg">
<path d="M10.5525 19.7923C9.67162 19.7943 8.80611 19.6779 7.9473 19.4907C7.8249 19.4639 7.66437 19.4826 7.55535 19.5422C6.58951 20.0692 5.63237 20.6117 4.67122 21.1474C4.32676 21.3394 4.1756 21.2558 4.16891 20.8632C4.15286 19.9455 4.13012 19.0271 4.13814 18.1095C4.14082 17.8031 4.03714 17.6165 3.80037 17.4239C2.14962 16.0841 1.00788 14.4 0.543689 12.3118C-0.138548 9.24238 0.61325 6.51745 2.69407 4.18446C4.44983 2.21601 6.69252 1.12844 9.30441 0.846853C12.5745 0.493695 15.4847 1.37458 17.8912 3.63867C22.0776 7.57692 21.7633 13.9331 17.2398 17.5115C15.284 19.0592 13.034 19.7736 10.5525 19.7923ZM11.5458 13.5311C11.6795 13.4308 11.7959 13.3666 11.8822 13.2749C13.3029 11.7707 14.7202 10.2631 16.1382 8.75612C16.1669 8.72602 16.2104 8.69793 16.2184 8.66248C16.2358 8.5889 16.2331 8.51132 16.2392 8.43507C16.1689 8.43239 16.0967 8.41835 16.0291 8.43105C15.975 8.44109 15.9268 8.48389 15.8753 8.51199C14.7262 9.13737 13.5771 9.76208 12.4273 10.3868C12.0815 10.5747 11.9792 10.558 11.7116 10.2711C11.0562 9.57012 10.4013 8.86849 9.74586 8.16819C9.47163 7.8759 9.31043 7.87256 9.04088 8.15883C7.61019 9.67714 6.18084 11.1961 4.75149 12.7151C4.69998 12.7699 4.63577 12.8208 4.60902 12.8863C4.58828 12.9372 4.59765 13.0201 4.62775 13.0663C4.64781 13.0964 4.73276 13.1044 4.78092 13.0917C4.85181 13.0729 4.91603 13.0281 4.98157 12.9927C6.15475 12.3593 7.32793 11.7259 8.50111 11.0924C8.83287 10.9132 8.96062 10.9333 9.22482 11.2088C9.88231 11.8957 10.5371 12.586 11.198 13.2703C11.2909 13.3666 11.4133 13.4335 11.5451 13.5311H11.5458Z" fill="#5840D1"/>
</svg>
