<svg width="156" height="121" viewBox="0 0 156 121" fill="none" xmlns="http://www.w3.org/2000/svg">
<path d="M18.7655 106.229C28.6927 112.791 42.2161 116.437 58.4235 115.942C92.328 114.907 115.325 95.9002 126.368 74.934C136.412 55.8678 136.569 35.1792 126.061 24.9084C103.992 3.34297 65.1625 -13.4844 31.0089 16.8658C-8.54638 52.016 -7.17898 89.0809 18.7655 106.229Z" fill="#937FF5"/>
<path d="M119.814 104.148C121.318 103.322 133.136 76.1243 133.945 73.9563C133.945 73.9563 142.343 75.9791 149.422 62.4722C156.501 48.9653 158.307 27.7323 148.193 25.7822C138.08 23.8321 130.207 36.2538 126.454 47.5218C122.701 58.7898 122.964 67.891 127.093 70.4127C127.093 70.4127 115.33 96.9222 114.245 100.531C113.899 101.712 119.049 104.567 119.814 104.148ZM136.888 39.1185C146.348 25.7598 151.219 36.2662 146.866 49.6231C143.158 60.995 134.762 70.5361 130.208 66.725C127.433 64.3981 127.433 52.4689 136.888 39.1185Z" fill="#FFFEF2"/>
<path d="M114.915 102.46C115.808 103.182 118.326 104.75 119.621 104.75C119.783 104.756 119.944 104.721 120.088 104.649C120.428 104.462 121.224 104.027 127.661 89.7912C130.62 83.2506 133.511 76.5565 134.313 74.591C135.996 74.733 137.688 74.4654 139.245 73.8111C142.058 72.697 146.195 69.8706 149.931 62.7379C152.702 57.2944 154.549 51.4285 155.398 45.3797C156.273 39.0529 155.805 33.594 154.079 30.0107C152.784 27.3244 150.842 25.7119 148.304 25.2225C143.538 24.302 138.767 26.4116 134.511 31.3214C131.098 35.2583 128.045 40.9487 125.914 47.3417C122.167 58.5802 122.372 67.604 126.381 70.6228C124.798 74.1954 114.72 96.9806 113.702 100.374C113.527 100.972 113.921 101.655 114.915 102.46ZM127.616 70.6524C127.672 70.5259 127.681 70.3832 127.64 70.251C127.598 70.1188 127.511 70.006 127.392 69.9338C123.514 67.5598 123.355 58.6263 126.996 47.7048C130.67 36.683 138.398 24.4762 148.087 26.3449C150.25 26.7617 151.919 28.1621 153.046 30.5072C156.342 37.3513 154.489 51.5732 148.914 62.2094C145.365 68.9832 141.509 71.6602 138.898 72.7188C137.388 73.397 135.716 73.6346 134.076 73.4043C133.941 73.3715 133.799 73.3891 133.676 73.4537C133.553 73.5182 133.458 73.6253 133.408 73.755C132.507 76.1538 121.262 101.853 119.552 103.619C118.615 103.388 117.726 102.997 116.923 102.464C115.421 101.561 114.856 100.88 114.801 100.669C115.93 97.0078 127.499 70.9139 127.616 70.65V70.6524Z" fill="#202D37"/>
<path d="M129.843 67.1636C130.596 67.8059 131.555 68.1555 132.544 68.1484C133.032 68.1454 133.517 68.0739 133.984 67.9359C138.711 66.578 144.483 58.7804 147.416 49.7937C150.034 41.7582 149.454 34.4158 146.067 32.7143C144.593 31.9751 141.383 31.7796 136.427 38.7872C131.054 46.3787 129.097 52.8638 128.404 56.9648C127.591 61.7448 128.157 65.7472 129.843 67.1636ZM137.354 39.442C140.085 35.5878 142.624 33.4983 144.521 33.4983C144.877 33.4949 145.23 33.5758 145.549 33.7345C147.984 34.9572 148.973 41.3095 146.325 49.4395C143.55 57.9556 137.992 65.5973 133.67 66.8413C133.151 67.0256 132.593 67.0717 132.05 66.975C131.508 66.8783 131 66.6422 130.577 66.2898C128.282 64.3633 127.821 52.9105 137.357 39.442H137.354Z" fill="#202D37"/>
<path d="M46.0526 59.0219C45.4326 61.2465 44.8127 63.5769 44.2016 65.9817C44.2016 65.9817 36.0368 63.5361 26.2985 85.8272C24.042 90.9927 21.221 97.2947 18.7607 106.229C28.6879 112.791 42.2113 116.437 58.4188 115.942C92.3232 114.907 115.32 95.9002 126.363 74.9341C125.4 74.6954 124.413 74.5661 123.421 74.5485C120.534 74.6382 116.021 76.5341 106.745 80.8659C106.47 80.3847 106.239 80.122 106.069 80.1462C105.113 80.2915 100.627 82.4488 97.4037 83.3232C96.591 83.5882 95.7371 83.7038 94.8832 83.6645C87.3802 82.6661 85.9816 85.4948 83.6713 87.0328C82.7697 87.6344 81.1018 88.6163 79.2402 89.7634L79.2225 89.7322C79.2225 89.7322 73.244 78.6206 73.5404 75.7907C73.7565 73.7107 74.0228 71.6059 74.3239 69.5176C75.7213 60.2217 77.6037 51.0052 79.9635 41.9058C79.9635 41.9058 92.9272 47.4326 93.7791 46.2902C94.3631 45.5173 89.3038 37.3407 83.3531 30.5457C81.2616 29.9761 79.4686 28.6254 78.344 26.7723C75.3494 21.9569 70.6462 22.6589 70.6462 22.6589C70.3404 27.0711 63.4054 30.0905 60.8359 30.0905C60.4693 30.8078 57.9021 32.9085 57.0685 32.4078C56.2348 31.9072 57.5355 30.3054 57.0685 29.9399C56.4074 29.5475 55.9162 28.923 55.6905 28.1882C51.5233 25.6724 47.4684 26.2469 46.7439 29.0265C46.1535 31.3014 48.6303 33.6117 52.5837 34.4619C53.0289 34.5583 53.4918 34.637 53.9724 34.698C53.9724 34.698 52.9285 37.3703 51.3704 41.9182C49.8991 46.1757 47.9808 52.1058 46.0526 59.0219Z" fill="#FFFEF2"/>
<path d="M138.074 80.5795C135.559 77.2266 126.307 74.4605 123.421 74.552C120.535 74.6435 116.02 76.5376 106.745 80.8694L111.225 95.1574C115.358 96.7256 120.998 98.4814 124.35 98.5227C127.804 98.5647 130.515 97.9542 130.509 94.3568C133.052 94.0976 133.984 91.9042 132.635 90.2694L132.656 90.169C136.485 90.9867 137.076 86.6171 135.202 85.0667C137.637 85.7498 140.487 83.7925 138.074 80.5795Z" fill="#FFFEF2"/>
<path d="M70.954 33.7244L71.6153 32.0895C71.6774 31.9205 71.6712 31.7339 71.598 31.5693C71.5249 31.4047 71.3905 31.2751 71.2233 31.208C71.0562 31.1408 70.8695 31.1415 70.7028 31.2097C70.5361 31.278 70.4026 31.4085 70.3305 31.5735L69.6704 33.2084C69.6083 33.3774 69.6145 33.564 69.6877 33.7286C69.7608 33.8932 69.8952 34.0228 70.0624 34.0899C70.2295 34.1571 70.4162 34.1565 70.5829 34.0882C70.7496 34.02 70.8831 33.8895 70.9552 33.7244H70.954Z" fill="#202D37"/>
<path d="M43.7745 65.3404C41.6561 65.1863 34.2429 66.2142 25.7723 85.6016L25.4653 86.3024C22.3739 93.3685 18.1441 103.046 15.3987 118.672C15.3726 118.822 15.4068 118.975 15.4939 119.099C15.581 119.223 15.7138 119.308 15.8631 119.334C16.0124 119.36 16.166 119.326 16.29 119.239C16.4141 119.152 16.4985 119.019 16.5246 118.87C19.2405 103.378 23.4443 93.7735 26.5114 86.7599L26.8196 86.0592C31.7248 74.8201 36.1854 70.1068 39.0607 68.1295C42.1031 66.0377 44.0201 66.5295 44.0349 66.5354C44.1088 66.5577 44.1865 66.5647 44.2632 66.5562C44.34 66.5476 44.4142 66.5235 44.4813 66.4854C44.5485 66.4473 44.6072 66.396 44.654 66.3346C44.7008 66.2732 44.7346 66.2029 44.7534 66.128C47.2727 56.1553 50.0311 47.5584 51.9021 42.0982C53.4372 37.617 54.487 34.9282 54.4999 34.9029C54.5318 34.8214 54.5445 34.7337 54.5371 34.6466C54.5297 34.5595 54.5024 34.4752 54.4573 34.4003C54.4122 34.3254 54.3504 34.2618 54.2768 34.2146C54.2033 34.1673 54.1198 34.1376 54.0329 34.1276C53.5659 34.0727 53.1219 33.9977 52.6968 33.9068C50.3269 33.3961 48.4317 32.3127 47.6258 31.0032C47.4459 30.7381 47.3234 30.4384 47.2662 30.1232C47.2091 29.8079 47.2185 29.4842 47.294 29.1729C47.4002 28.7737 47.6035 28.407 47.8857 28.1054C48.168 27.8037 48.5204 27.5766 48.9117 27.4442C50.6953 26.7552 53.3321 27.3261 55.7941 28.932C55.8569 28.9761 55.9279 29.0071 56.0028 29.0232C56.0778 29.0393 56.1553 29.0401 56.2306 29.0256C56.3059 29.0112 56.3775 28.9817 56.4412 28.9389C56.5049 28.8962 56.5593 28.8411 56.6013 28.7769C56.6432 28.7127 56.6718 28.6407 56.6853 28.5652C56.6988 28.4897 56.697 28.4123 56.68 28.3375C56.663 28.2628 56.6311 28.1922 56.5862 28.13C56.5413 28.0678 56.4844 28.0153 56.4188 27.9755C53.6545 26.17 50.6204 25.5578 48.499 26.3779C47.9389 26.5765 47.4357 26.9086 47.0329 27.3455C46.6302 27.7825 46.34 28.311 46.1875 28.8854C46.0738 29.3458 46.0566 29.8248 46.137 30.2922C46.2173 30.7596 46.3936 31.2053 46.6546 31.6013C47.6346 33.1918 49.7495 34.4394 52.4577 35.0221C52.6911 35.0721 52.931 35.1172 53.1774 35.1573C52.773 36.2259 51.9216 38.5227 50.8241 41.7245C48.9778 47.1073 46.2696 55.5431 43.7745 65.3404Z" fill="#202D37"/>
<path d="M50.8527 30.6644C51.9983 30.6623 53.1082 31.0625 53.989 31.795C54.0316 31.8587 54.0866 31.9132 54.1507 31.9553C54.2147 31.9974 54.2866 32.0262 54.362 32.04C54.4374 32.0538 54.5148 32.0524 54.5896 32.0358C54.6644 32.0192 54.7352 31.9877 54.7976 31.9433C54.8601 31.8989 54.913 31.8424 54.9533 31.7772C54.9935 31.7119 55.0203 31.6393 55.032 31.5635C55.0437 31.4878 55.04 31.4105 55.0213 31.3361C55.0026 31.2618 54.9692 31.192 54.923 31.1308C54.5097 30.5469 52.7975 29.5213 50.8574 29.5213H50.832C50.6836 29.5261 50.5428 29.5884 50.4394 29.6951C50.3361 29.8019 50.2783 29.9446 50.2783 30.0931C50.2783 30.2417 50.3361 30.3844 50.4394 30.4911C50.5428 30.5978 50.6836 30.6602 50.832 30.6649L50.8527 30.6644ZM79.7097 41.3951C79.6361 41.4308 79.571 41.4819 79.5188 41.545C79.4666 41.608 79.4287 41.6816 79.4074 41.7606C79.3608 41.9377 74.6375 59.6902 72.9719 75.7341C72.6685 78.6537 78.105 88.8519 78.7261 90.0049C78.7591 90.0752 78.8061 90.138 78.8642 90.1895C78.9223 90.241 78.9902 90.28 79.064 90.3044C79.1377 90.3287 79.2155 90.3377 79.2929 90.3309C79.3702 90.3241 79.4453 90.3016 79.5136 90.2648C79.582 90.228 79.6421 90.1776 79.6903 90.1168C79.7385 90.0559 79.7738 89.9859 79.794 89.911C79.8142 89.8361 79.819 89.7578 79.8079 89.6809C79.7969 89.6041 79.7703 89.5303 79.7298 89.4641C78.0949 86.4158 73.8794 78.0302 74.1061 75.8522C75.5874 61.6038 79.4924 45.9968 80.3462 42.6916C81.4461 43.1516 83.8804 44.1517 86.3483 45.0651C92.9019 47.4911 93.8158 47.1906 94.2338 46.6362C94.3119 46.5126 94.3633 46.3742 94.3849 46.2296C94.4064 46.0851 94.3976 45.9376 94.359 45.7966C93.7893 42.9107 83.1471 27.0729 74.9156 22.1707C74.851 22.1292 74.7788 22.1012 74.7032 22.0883C74.6276 22.0753 74.5501 22.0777 74.4755 22.0954C74.4008 22.113 74.3305 22.1454 74.2687 22.1908C74.2068 22.2362 74.1547 22.2936 74.1155 22.3595C74.0763 22.4254 74.0508 22.4985 74.0404 22.5745C74.0301 22.6505 74.0352 22.7279 74.0554 22.8019C74.0755 22.8759 74.1104 22.945 74.1578 23.0053C74.2053 23.0655 74.2644 23.1156 74.3316 23.1525C77.769 25.2001 82.34 29.81 86.869 35.7874C90.8106 40.9919 92.9155 44.8012 93.213 45.897C91.7299 45.9183 85.5046 43.6605 80.1838 41.391C80.1094 41.3572 80.0286 41.3398 79.9469 41.34C79.8652 41.3403 79.7845 41.358 79.7103 41.3922L79.7097 41.3951Z" fill="#202D37"/>
<path d="M45.6352 59.4133C48.3121 62.2632 52.938 65.0777 58.329 67.1365C62.9827 68.9928 67.9299 70.0053 72.9388 70.1263C73.419 70.1263 73.8913 70.1139 74.3558 70.0891C74.5051 70.0783 74.6442 70.0094 74.7432 69.8972C74.8423 69.785 74.8934 69.6385 74.8857 69.489C74.878 69.3395 74.812 69.199 74.7019 69.0977C74.5918 68.9963 74.4463 68.942 74.2967 68.9467C64.4256 69.4839 51.4732 63.9447 46.4747 58.6304C46.3696 58.5259 46.228 58.4664 46.0799 58.4643C45.9317 58.4623 45.7885 58.5178 45.6805 58.6193C45.5725 58.7208 45.5081 58.8603 45.501 59.0083C45.4939 59.1563 45.5445 59.3013 45.6422 59.4127L45.6352 59.4133ZM75.2981 35.5913C75.3551 35.5911 75.4117 35.5827 75.4663 35.5665C77.0327 35.0842 79.2863 35.5736 79.3087 35.5783C79.4551 35.6068 79.6067 35.5771 79.7314 35.4954C79.8561 35.4137 79.944 35.2866 79.9764 35.1411C80.0088 34.9956 79.9832 34.8432 79.9049 34.7163C79.8266 34.5895 79.7019 34.4982 79.5573 34.4619C79.4522 34.4394 76.9878 33.9022 75.1292 34.4737C74.9978 34.5132 74.885 34.5988 74.8115 34.7147C74.738 34.8306 74.7087 34.9691 74.729 35.1048C74.7493 35.2406 74.8178 35.3645 74.922 35.4538C75.0262 35.5432 75.1591 35.5919 75.2963 35.5913H75.2981ZM66.4159 40.1233C66.4781 40.2605 66.5918 40.3677 66.7323 40.4218C66.8729 40.4758 67.0291 40.4724 67.1672 40.4122C67.3052 40.352 67.4141 40.2399 67.4701 40.1001C67.5262 39.9603 67.525 39.8041 67.4668 39.6652C66.5222 37.5066 65.0993 36.3063 63.109 35.0682C62.9803 34.9881 62.825 34.9625 62.6774 34.9968C62.5297 35.0312 62.4018 35.1228 62.3217 35.2515C62.2416 35.3803 62.2159 35.5355 62.2503 35.6832C62.2847 35.8308 62.3763 35.9588 62.505 36.0388C64.6641 37.3803 65.6873 38.4489 66.4159 40.1233ZM51.3651 41.9046C52.9232 37.3585 53.9682 34.6809 53.9682 34.6809C53.5012 34.6264 53.0373 34.5476 52.5784 34.4448C50.2941 35.7679 48.0234 36.6405 46.5054 35.8558C44.6025 34.894 43.7925 41.5787 51.3651 41.904V41.9046Z" fill="#202D37"/>
<path d="M44.8775 38.6921C45.2524 39.762 46.6293 42.273 51.3407 42.4749H51.3655C51.4844 42.4748 51.6003 42.4376 51.6971 42.3685C51.7938 42.2994 51.8666 42.2018 51.9052 42.0894C53.4402 37.6081 54.49 34.9194 54.503 34.894C54.5348 34.8126 54.5476 34.7249 54.5402 34.6378C54.5328 34.5506 54.5054 34.4663 54.4603 34.3914C54.4152 34.3165 54.3535 34.253 54.2799 34.2057C54.2063 34.1585 54.1229 34.1287 54.036 34.1188C53.569 34.0639 53.125 33.9889 52.6999 33.898C52.561 33.8684 52.416 33.8913 52.2931 33.9623C49.7165 35.4537 47.855 35.9231 46.7609 35.364C46.5326 35.2369 46.2705 35.1838 46.0107 35.2118C45.751 35.2398 45.5063 35.3476 45.3103 35.5204C44.6124 36.1215 44.4347 37.4281 44.8775 38.6921ZM46.0583 36.3771C46.0678 36.3665 46.0794 36.3578 46.0922 36.3517C46.1051 36.3455 46.1191 36.3419 46.1333 36.3411C46.1701 36.3442 46.2056 36.3557 46.2372 36.3748C47.7085 37.134 49.7584 36.716 52.6727 35.0599C52.8386 35.0924 53.0069 35.1231 53.1763 35.1508C52.7896 36.1728 51.9955 38.3184 50.9641 41.3071C47.297 41.0184 46.2408 39.1349 45.955 38.3149C45.6338 37.3909 45.8109 36.5956 46.0595 36.3771H46.0583ZM57.0719 32.4072C57.9055 32.9073 60.4726 30.806 60.8393 30.0898C63.4088 30.0898 70.3449 27.0722 70.6496 22.6571C70.6496 22.6571 75.3517 21.9563 78.3462 26.7717C80.8141 30.7428 86.2719 32.3635 88.0154 28.4721C89.3143 25.5708 84.3725 27.8693 83.8111 26.1695C83.0778 23.9365 83.311 19.4677 78.6107 17.7673C73.9105 16.0669 69.8407 19.4022 69.8407 19.4022C67.374 16.2346 59.0716 16.2346 55.7706 27.0043C55.2392 28.739 56.6043 29.5738 57.0695 29.9381C57.5347 30.3024 56.2341 31.9077 57.0731 32.4072H57.0719Z" fill="#202D37"/>
<path d="M56.7738 32.8973C56.9575 33.0048 57.1673 33.0594 57.3801 33.0549C57.5618 33.0529 57.7422 33.0255 57.9163 32.9735C59.1676 32.4773 60.2767 31.6792 61.1446 30.6502C64.0506 30.4483 70.4099 27.5446 71.1539 23.1956C72.5147 23.1894 73.8527 23.5455 75.0305 24.2273C76.2083 24.9091 77.1833 25.892 77.8556 27.0752C79.4905 29.7091 82.4018 31.4283 84.9241 31.2589C85.7051 31.218 86.4586 30.9566 87.0972 30.505C87.7358 30.0533 88.2333 29.43 88.5321 28.7071C88.6502 28.435 89.0251 27.6084 88.6012 26.966C88.1448 26.2735 87.1251 26.2912 86.1427 26.3059C85.4342 26.3177 84.4647 26.3337 84.3526 25.9954C84.2036 25.4882 84.0828 24.9731 83.9906 24.4526C83.5071 22.0231 82.8446 18.6961 78.8027 17.2336C74.7147 15.7576 71.1444 17.7963 69.9264 18.6353C68.5927 17.3004 66.3839 16.7117 64.1209 17.1286C62.2357 17.4787 57.5945 19.1141 55.2281 26.8385C54.6241 28.8075 56.0458 29.8844 56.5955 30.293C56.5701 30.417 56.5058 30.6059 56.4603 30.7441C56.2554 31.3551 55.9047 32.3783 56.7738 32.8973ZM56.3068 27.1733C57.8419 22.1583 60.7626 18.9075 64.3128 18.2527C66.3509 17.8778 68.3866 18.4889 69.3791 19.7559C69.4749 19.8761 69.6143 19.9538 69.767 19.972C69.8426 19.9805 69.9192 19.9738 69.9922 19.9523C70.0652 19.9308 70.1332 19.895 70.1921 19.8468C70.2305 19.8155 74.0752 16.7412 78.4047 18.3076C81.8409 19.5475 82.406 22.395 82.8618 24.6752C82.9621 25.241 83.0943 25.8006 83.2579 26.3514C83.6328 27.4903 85.0292 27.4667 86.1509 27.4484C86.5961 27.4413 87.5219 27.4259 87.6364 27.5954C87.653 27.6208 87.6713 27.8091 87.4788 28.2401C87.2656 28.7741 86.903 29.2354 86.4344 29.5687C85.9658 29.902 85.4111 30.0932 84.8367 30.1194C82.7484 30.2605 80.2179 28.726 78.8145 26.4718C75.6611 21.3943 70.7559 22.0632 70.5487 22.0933C70.42 22.1126 70.3018 22.1752 70.2134 22.2707C70.1251 22.3662 70.072 22.489 70.0628 22.6188C69.8001 26.5326 63.3764 29.519 60.8317 29.519C60.7265 29.519 60.6234 29.5481 60.5338 29.6032C60.4442 29.6582 60.3716 29.7369 60.324 29.8307C59.9898 30.4766 57.8879 32.0229 57.3536 31.9131C57.367 31.6356 57.4283 31.3625 57.5348 31.106C57.712 30.5675 57.9363 29.8998 57.4168 29.4918L57.2745 29.3832C56.6014 28.8772 55.9673 28.2885 56.3097 27.1733H56.3068ZM45.5536 69.8347C48.867 75.7701 52.2111 78.7499 54.5025 77.7999C55.2033 77.51 56.344 76.8736 57.6665 76.1367C59.645 75.0332 63.3262 72.9834 64.0506 73.1947C64.5749 73.4362 65.6317 75.8681 66.2629 77.3199C67.0895 79.2222 67.6209 80.4113 68.1316 80.8506C68.3596 81.0445 68.65 81.1493 68.9493 81.1458C68.9988 81.1469 69.0483 81.1445 69.0975 81.1387C70.3704 81.0088 71.8807 79.1372 72.1676 78.7635C72.2153 78.7044 72.2507 78.6363 72.2718 78.5634C72.2929 78.4904 72.2992 78.414 72.2904 78.3386C72.2816 78.2631 72.2579 78.1902 72.2206 78.124C72.1833 78.0579 72.1332 77.9998 72.0732 77.9533C72.0132 77.9067 71.9446 77.8726 71.8712 77.8528C71.7979 77.8331 71.7213 77.8282 71.6461 77.8383C71.5708 77.8485 71.4983 77.8736 71.4329 77.9121C71.3674 77.9507 71.3103 78.0018 71.2649 78.0627C70.681 78.8089 69.5598 79.9419 68.9794 80.0004C68.9044 80.0087 68.8861 79.9921 68.8719 79.9791C68.533 79.6881 67.8511 78.1211 67.3044 76.8606C66.146 74.1966 65.3808 72.5506 64.5224 72.1538C63.5458 71.7016 61.5349 72.6633 57.1038 75.1342C55.864 75.8244 54.6979 76.4762 54.0591 76.7402C52.4591 77.4032 49.3688 74.3319 46.5449 69.2738C46.471 69.1416 46.3476 69.0441 46.2018 69.0028C46.056 68.9616 45.8999 68.98 45.7676 69.0539C45.6354 69.1278 45.5379 69.2512 45.4967 69.3969C45.4554 69.5427 45.4738 69.6989 45.5477 69.8311L45.5536 69.8347Z" fill="#202D37"/>
<path d="M60.6661 79.9277C61.1892 80.3469 62.9516 80.7147 64.074 80.7147C64.3223 80.7239 64.5706 80.694 64.8096 80.6261C65.4904 80.3899 66.9121 78.7445 67.4854 78.0495C67.5752 77.9322 67.6162 77.7847 67.5997 77.6379C67.5832 77.4911 67.5105 77.3563 67.3969 77.2619C67.2833 77.1674 67.1375 77.1206 66.9902 77.1312C66.8428 77.1417 66.7052 77.2089 66.6063 77.3186C65.9689 78.1427 65.2389 78.8907 64.4306 79.548C63.3884 79.6038 62.3466 79.4286 61.38 79.0349C61.0157 78.7427 60.4943 76.6816 59.9866 74.6878L59.9151 74.4061C59.899 74.3309 59.8678 74.2598 59.8235 74.1969C59.7792 74.134 59.7227 74.0807 59.6573 74.0402C59.592 73.9996 59.5191 73.9726 59.4431 73.9609C59.367 73.9492 59.2894 73.9529 59.2149 73.9719C59.1403 73.9908 59.0704 74.0246 59.0092 74.0712C58.948 74.1178 58.8968 74.1762 58.8587 74.2431C58.8207 74.3099 58.7964 74.3837 58.7875 74.4602C58.7786 74.5366 58.7852 74.614 58.8069 74.6878L58.8778 74.9694C59.6571 78.0389 60.0285 79.4187 60.6661 79.9277Z" fill="#202D37"/>
<path d="M65.4089 98.7607H65.4373C65.5122 98.7572 65.5857 98.7389 65.6536 98.7069C65.7215 98.6749 65.7824 98.6298 65.8328 98.5743C65.8833 98.5187 65.9223 98.4538 65.9476 98.3832C65.9729 98.3126 65.9841 98.2376 65.9804 98.1627C65.9539 97.623 65.331 84.9067 65.1911 80.0718C65.1847 79.9217 65.1194 79.7801 65.0094 79.6777C64.8994 79.5753 64.7535 79.5203 64.6032 79.5248C64.453 79.5292 64.3106 79.5926 64.2068 79.7013C64.1029 79.81 64.0461 79.9552 64.0486 80.1055C64.1909 84.951 64.8126 97.6791 64.838 98.2188C64.8457 98.365 64.9092 98.5027 65.0154 98.6036C65.1216 98.7044 65.2625 98.7606 65.4089 98.7607ZM56.4429 105.837C56.5866 105.837 56.7251 105.783 56.8305 105.685C56.936 105.587 57.0006 105.454 57.0115 105.31C57.7528 96.6343 59.2774 88.0433 61.5665 79.642C61.6048 79.4978 61.5853 79.3444 61.512 79.2144C61.4386 79.0845 61.3174 78.9884 61.1742 78.9466C61.031 78.9048 60.8771 78.9207 60.7454 78.9908C60.6138 79.061 60.5148 79.1799 60.4695 79.322C58.1518 87.798 56.6104 96.4674 55.8643 105.223C55.8533 105.374 55.9024 105.523 56.0011 105.638C56.0998 105.753 56.2399 105.824 56.391 105.836L56.4429 105.837Z" fill="#202D37"/>
<path d="M103.612 101.152C103.508 101.183 103.415 101.244 103.345 101.327C103.275 101.41 103.232 101.511 103.219 101.619C103.212 101.667 102.314 106.629 86.3118 119.331C86.2494 119.377 86.1967 119.434 86.157 119.5C86.1173 119.566 86.0914 119.64 86.0809 119.716C86.0703 119.792 86.0753 119.87 86.0956 119.944C86.1158 120.019 86.1509 120.088 86.1988 120.149C86.2466 120.209 86.3062 120.259 86.3739 120.296C86.4416 120.333 86.5161 120.356 86.5929 120.363C86.6696 120.37 86.7471 120.362 86.8205 120.339C86.894 120.315 86.962 120.277 87.0204 120.227C101.291 108.898 103.819 103.548 104.26 102.136C104.87 101.934 106.313 101.448 107.757 100.89C111.525 99.4297 111.949 98.8015 112.047 98.3274C112.425 96.5378 110.763 90.5865 110.25 88.804C109.242 85.3306 107.726 80.9161 106.773 79.9077C106.679 79.7898 106.558 79.6975 106.42 79.6392C106.281 79.581 106.13 79.5588 105.981 79.5747C104.983 79.8504 104.01 80.2058 103.069 80.6374C100.471 81.7002 96.5413 83.3025 94.9578 83.09C88.6056 82.2445 86.3561 84.1167 84.5495 85.6211C84.1679 85.9506 83.7694 86.26 83.3556 86.548C82.7576 86.9477 81.794 87.5317 80.6799 88.2089C77.4096 90.1945 72.9343 92.9133 70.7444 95.0577C68.5044 97.2534 67.1099 97.411 65.1804 97.6271C64.7293 97.6785 64.2623 97.731 63.751 97.8119C61.247 98.2081 60.9761 100.414 60.7818 102.025C60.6407 103.192 60.5309 103.744 60.1477 103.769C57.4206 103.946 54.0665 105.201 53.1507 107.525C52.32 109.628 51.4563 111.426 49.2965 112.096C46.5765 112.939 45.1164 114.605 43.2235 117.587C43.1422 117.715 43.115 117.87 43.1479 118.018C43.1809 118.166 43.2713 118.295 43.3992 118.376C43.5271 118.458 43.6821 118.485 43.8301 118.452C43.9781 118.419 44.1069 118.329 44.1883 118.201C46.2063 115.028 47.4804 113.858 49.6378 113.19C52.2828 112.373 53.3527 110.154 54.2229 107.946C54.9237 106.169 57.7778 105.073 60.2321 104.91C61.6031 104.82 61.7749 103.408 61.9266 102.163C62.1439 100.374 62.4019 99.1847 63.9388 98.9414C64.4259 98.8641 64.8734 98.8127 65.3168 98.7643C67.3106 98.5399 69.0317 98.3462 71.5533 95.8748C73.6487 93.8207 78.2421 91.0305 81.2821 89.1854C82.4081 88.5011 83.3846 87.9101 83.998 87.4974C84.4435 87.187 84.8723 86.8533 85.2828 86.4979C87.0032 85.0649 88.9534 83.4401 94.8097 84.2218C96.6948 84.4716 100.629 82.868 103.503 81.6954C104.544 81.2715 105.535 80.8689 105.993 80.739C106.46 81.2951 107.654 84.0093 109.074 88.8489C110.359 93.2298 111.12 96.9871 110.943 98.0475C110.496 98.661 106.816 100.127 103.612 101.152Z" fill="#202D37"/>
<path d="M103.79 102.27C103.884 102.27 103.976 102.247 104.059 102.202C104.142 102.158 104.212 102.094 104.264 102.016C104.316 101.938 104.349 101.848 104.358 101.755C104.367 101.662 104.354 101.568 104.318 101.481C101.796 95.5305 99.6731 89.4193 97.9622 83.1874C97.9453 83.1134 97.9138 83.0434 97.8696 82.9817C97.8254 82.92 97.7693 82.8677 97.7047 82.8279C97.64 82.7881 97.5681 82.7616 97.493 82.7499C97.418 82.7382 97.3414 82.7416 97.2677 82.7598C97.194 82.7781 97.1247 82.8108 97.0638 82.8561C97.0029 82.9015 96.9516 82.9585 96.913 83.0238C96.8744 83.0892 96.8491 83.1616 96.8388 83.2368C96.8285 83.312 96.8332 83.3886 96.8528 83.4619C98.5783 89.7481 100.719 95.9127 103.261 101.915C103.304 102.02 103.377 102.11 103.472 102.173C103.566 102.237 103.677 102.27 103.79 102.27ZM135.096 84.4338C132.892 83.5954 132.013 83.2435 132.005 83.2405C131.935 83.2126 131.86 83.1987 131.785 83.1996C131.71 83.2005 131.636 83.2163 131.567 83.2459C131.498 83.2755 131.435 83.3184 131.383 83.3722C131.33 83.426 131.289 83.4896 131.261 83.5593C131.233 83.6291 131.219 83.7037 131.22 83.7789C131.221 83.854 131.237 83.9282 131.266 83.9973C131.296 84.0664 131.339 84.129 131.393 84.1815C131.446 84.234 131.51 84.2754 131.58 84.3033C131.589 84.3033 132.475 84.6611 134.689 85.5042C135.164 85.6839 135.668 85.7757 136.177 85.7752C136.718 85.793 137.256 85.6865 137.75 85.4638C138.244 85.241 138.68 84.9081 139.025 84.4904C139.431 83.9496 140.193 82.4535 138.532 80.2324C135.785 76.5718 126.277 73.8813 123.404 73.974C120.4 74.0691 115.762 76.0168 106.502 80.3475C106.432 80.3776 106.368 80.4216 106.315 80.4769C106.262 80.5322 106.22 80.5977 106.193 80.6694C106.166 80.7411 106.153 80.8175 106.156 80.8942C106.159 80.9709 106.177 81.0462 106.209 81.1157C106.242 81.1852 106.288 81.2474 106.345 81.2986C106.402 81.3498 106.469 81.389 106.542 81.4139C106.614 81.4387 106.691 81.4487 106.768 81.4432C106.844 81.4377 106.919 81.4169 106.987 81.3819C116.097 77.1203 120.637 75.2038 123.44 75.1158C126.126 75.0308 135.215 77.7137 137.617 80.9161C138.476 82.0597 138.651 83.0846 138.111 83.8008C137.529 84.5784 136.204 84.8529 135.096 84.4338Z" fill="#202D37"/>
<path d="M130.089 88.3967C130.026 88.356 129.956 88.3282 129.882 88.3149C129.808 88.3015 129.732 88.3027 129.659 88.3186C129.586 88.3345 129.516 88.3647 129.454 88.4075C129.393 88.4503 129.34 88.5048 129.299 88.5679C129.259 88.631 129.231 88.7015 129.218 88.7753C129.204 88.8492 129.206 88.925 129.221 88.9983C129.237 89.0717 129.268 89.1412 129.31 89.2029C129.353 89.2645 129.408 89.3172 129.471 89.3578C131.192 90.466 132.525 90.8339 133.536 90.8339C134.037 90.8528 134.536 90.751 134.99 90.5369C135.443 90.3229 135.839 90.003 136.143 89.604C136.657 88.8411 136.88 87.9194 136.773 87.0059C136.666 86.0923 136.235 85.2473 135.559 84.6239C135.501 84.5745 135.434 84.5371 135.362 84.5139C135.29 84.4907 135.214 84.4822 135.138 84.4887C135.062 84.4953 134.989 84.5168 134.922 84.5521C134.854 84.5874 134.795 84.6358 134.747 84.6943C134.698 84.7529 134.662 84.8205 134.64 84.8932C134.618 84.9659 134.611 85.0422 134.619 85.1177C134.627 85.1932 134.65 85.2664 134.686 85.333C134.723 85.3995 134.772 85.4581 134.832 85.5054C135.281 85.9441 135.565 86.5248 135.635 87.1489C135.705 87.7731 135.557 88.4023 135.217 88.9298C134.344 90.1272 132.474 89.9335 130.089 88.3967Z" fill="#202D37"/>
<path d="M127.313 93.2138C127.243 93.1772 127.166 93.1556 127.087 93.1504C127.007 93.1453 126.928 93.1566 126.854 93.1838C126.779 93.2109 126.711 93.2534 126.654 93.3082C126.597 93.3631 126.552 93.4293 126.522 93.5026C126.491 93.5758 126.477 93.6547 126.479 93.7339C126.481 93.8131 126.499 93.8911 126.533 93.9628C126.566 94.0345 126.615 94.0985 126.674 94.1505C126.734 94.2026 126.804 94.2417 126.88 94.2653C127.868 94.6967 128.931 94.9315 130.009 94.9566C130.629 94.9931 131.248 94.8821 131.817 94.6326C132.385 94.3831 132.887 94.0022 133.279 93.5214C133.666 92.9863 133.857 92.3345 133.82 91.6753C133.783 91.0161 133.521 90.3896 133.077 89.9009C132.979 89.7889 132.842 89.7194 132.694 89.7072C132.545 89.6951 132.398 89.7411 132.284 89.8356C132.169 89.9301 132.095 90.0657 132.079 90.2135C132.062 90.3613 132.104 90.5097 132.195 90.6272C132.475 90.9209 132.645 91.3028 132.675 91.7075C132.704 92.1123 132.593 92.5148 132.359 92.8465C131.722 93.7103 130.021 94.322 127.313 93.2138Z" fill="#202D37"/>
<path d="M124.345 99.0936H124.714C126.614 99.0936 128.65 98.8835 129.909 97.6418C130.317 97.2021 130.632 96.6841 130.833 96.1192C131.035 95.5543 131.12 94.9543 131.083 94.3556C131.082 94.2042 131.022 94.0591 130.915 93.9521C130.807 93.8452 130.662 93.785 130.511 93.7847C130.436 93.7847 130.361 93.7995 130.292 93.8282C130.223 93.857 130.16 93.8991 130.107 93.9523C130.053 94.0054 130.011 94.0685 129.983 94.1379C129.954 94.2073 129.939 94.2817 129.939 94.3568C129.975 94.8039 129.92 95.2537 129.777 95.6788C129.633 96.1039 129.405 96.4954 129.106 96.8294C128.288 97.6353 126.827 97.9807 124.362 97.9512C120.376 97.8998 113.457 95.39 111.432 94.6224C111.291 94.5721 111.136 94.5791 111 94.6419C110.864 94.7046 110.758 94.8182 110.705 94.9581C110.652 95.0981 110.656 95.2533 110.716 95.3903C110.776 95.5274 110.888 95.6354 111.027 95.6911C113.093 96.4763 120.172 99.0411 124.345 99.0936Z" fill="#202D37"/>
</svg>
