<svg width="149" height="197" viewBox="0 0 149 197" fill="none" xmlns="http://www.w3.org/2000/svg">
<g clip-path="url(#clip0_421_3)">
<path d="M117.903 33.2679C117.918 35.1125 118.077 36.9498 118.373 38.7727C118.395 38.8451 118.395 38.9102 118.417 38.9825C118.605 40.1833 119.35 41.2178 120.421 41.782C121.151 42.2305 121.954 42.5488 122.8 42.7151C124.11 42.9466 125.434 43.207 126.743 43.4602C127.083 43.4964 127.358 43.7496 127.423 44.0896C127.452 44.4223 127.264 44.7334 126.953 44.8563C126.765 44.9287 126.555 44.9721 126.367 45.0444C125.26 45.3048 124.175 45.6738 123.148 46.1656C121.527 46.9324 120.254 48.2779 119.581 49.9417C118.764 51.8875 118.207 53.9347 117.925 56.0325C117.853 56.6401 117.759 57.2478 117.693 57.8482C117.65 58.246 117.44 58.4775 117.108 58.4992C116.782 58.5426 116.464 58.3473 116.362 58.029C116.297 57.8699 116.239 57.7035 116.196 57.5371C115.682 55.8372 114.959 54.2096 114.048 52.6833C113.852 52.3433 113.621 52.025 113.375 51.7284C112.225 50.477 110.923 49.3702 109.498 48.4443C108.311 47.7354 107.009 47.2435 105.649 46.9758C104.557 46.7443 103.457 46.5346 102.358 46.3248C101.996 46.3393 101.692 46.0354 101.692 45.6593C101.692 45.3048 101.967 45.0082 102.322 44.9793C102.452 44.9504 102.582 44.9359 102.72 44.9359C103.349 44.9504 103.978 44.878 104.586 44.7261C105.808 44.4874 107.024 44.1691 108.203 43.7713C108.81 43.5832 109.389 43.3517 109.997 43.1419C111.827 42.4692 113.259 41.0007 113.888 39.1561C114.077 38.6642 114.214 38.1506 114.424 37.6877C114.728 36.986 115.053 36.2916 115.357 35.5899C115.559 35.192 115.726 34.7797 115.863 34.3529C116.145 33.3474 116.406 32.3492 116.681 31.322C116.724 31.1556 116.796 30.9965 116.869 30.8084C116.927 30.5769 117.144 30.4322 117.382 30.4539C117.636 30.4684 117.845 30.6637 117.874 30.9169C117.896 31.1194 117.903 31.322 117.896 31.5245V33.2751L117.903 33.2679Z" fill="#3378FA"/>
</g>
<g clip-path="url(#clip1_421_3)">
<path d="M26.9581 173.928C26.9708 175.551 27.1109 177.168 27.3719 178.773C27.391 178.836 27.391 178.893 27.4101 178.957C27.5756 180.014 28.2312 180.924 29.1734 181.421C29.8163 181.815 30.5229 182.095 31.2677 182.242C32.4199 182.446 33.5849 182.675 34.7371 182.898C35.0363 182.929 35.2782 183.152 35.3355 183.451C35.3609 183.744 35.1954 184.018 34.9217 184.126C34.7562 184.19 34.5716 184.228 34.4061 184.292C33.4321 184.521 32.4772 184.845 31.5733 185.278C30.1473 185.953 29.027 187.137 28.435 188.601C27.7156 190.314 27.2255 192.115 26.9772 193.961C26.9135 194.496 26.8308 195.031 26.7735 195.559C26.7353 195.909 26.5507 196.113 26.2579 196.132C25.9714 196.17 25.6913 195.998 25.6022 195.718C25.5449 195.578 25.494 195.432 25.4558 195.285C25.0038 193.789 24.3672 192.357 23.5651 191.014C23.3933 190.715 23.1896 190.435 22.9731 190.174C21.961 189.072 20.8151 188.098 19.5611 187.284C18.5171 186.66 17.3712 186.227 16.1745 185.991C15.2132 185.788 14.2456 185.603 13.278 185.418C12.9597 185.431 12.6924 185.164 12.6924 184.833C12.6924 184.521 12.9343 184.26 13.2462 184.234C13.3608 184.209 13.4754 184.196 13.5963 184.196C14.1501 184.209 14.704 184.145 15.2387 184.012C16.3145 183.801 17.384 183.521 18.4216 183.171C18.9563 183.006 19.4656 182.802 20.0003 182.617C21.6108 182.025 22.8713 180.733 23.4251 179.11C23.5906 178.677 23.7115 178.225 23.8962 177.818C24.1635 177.2 24.45 176.589 24.7173 175.972C24.8956 175.621 25.042 175.259 25.1629 174.883C25.4112 173.998 25.6404 173.12 25.8823 172.216C25.9205 172.069 25.9841 171.929 26.0478 171.764C26.0987 171.56 26.2897 171.433 26.4998 171.452C26.7226 171.465 26.9072 171.636 26.9326 171.859C26.9517 172.038 26.9581 172.216 26.9517 172.394V173.935L26.9581 173.928Z" fill="#14BBA9"/>
</g>
<path d="M57.1355 100.335C55.7669 102.968 51.6195 111.256 53.313 120.125C53.5964 121.604 54.3084 125.115 56.1678 125.523C58.4557 126.021 61.2759 121.604 62.2851 119.779C65.52 113.91 72.8815 94.0378 81.6255 66.7415C75.4529 73.3772 64.6491 85.8537 57.1424 100.335H57.1355Z" fill="#081F2D" stroke="#081F2D" stroke-width="1.38244" stroke-linecap="round" stroke-linejoin="round"/>
<path d="M95.7059 75.1403L67.269 111.982C58.5735 108.001 49.4424 105.056 40.0625 103.197C30.8485 101.393 22.2981 100.881 12.462 94.8816C3.46922 89.3864 3.71807 85.6054 3.80792 84.8451C4.12589 83.2552 5.04521 81.8521 6.37236 80.9258C7.14653 80.2968 8.01056 79.7853 8.92988 79.4051C4.77564 78.0711 1.34717 75.8868 0.400199 73.0044C-0.166603 71.1381 -0.0560073 69.1336 0.711249 67.3433C1.76191 65.1936 3.62129 63.5416 5.88159 62.7536C3.61438 61.0117 2.05913 59.0072 1.78956 56.9542C1.66514 55.9036 1.84485 54.8322 2.29415 53.8783C4.59592 49.1711 13.2431 49.6688 14.0035 49.7171C10.9068 46.5513 9.06813 42.6114 9.85612 39.0931C11.0105 33.978 17.349 31.5242 18.766 31.0196C32.5282 26.1465 47.1268 40.8488 47.825 41.5815C46.4287 35.872 46.2075 29.9482 47.1683 24.1488C48.53 16.1929 53.3893 1.76706 62.3406 0.191077C63.253 0.0251834 66.5156 -0.410287 68.5824 1.49057C72.0592 4.67711 69.5501 12.0455 68.375 17.2712C64.8843 32.7684 68.1331 51.0097 76.013 61.2675C78.7295 64.8065 85.1164 70.4745 95.699 75.1472L95.7059 75.1403Z" fill="url(#paint0_linear_421_3)"/>
<path d="M55.7876 83.6284C52.9675 81.4165 50.6104 78.6724 48.8547 75.5481C46.3041 70.9722 45.0875 65.7673 45.3571 60.5347L47.1543 60.6177C46.8985 65.5115 48.0321 70.3777 50.4168 74.6633C52.062 77.5803 54.267 80.1447 56.9005 82.2114L55.7876 83.6284Z" fill="#081F2D"/>
<path d="M17.9848 92.7945C20.0516 92.5042 25.8302 91.6817 27.1988 87.8523C27.5997 86.6565 27.579 85.3639 27.1574 84.1819C25.0284 78.6037 12.3859 75.9495 6.37231 80.9263C5.04517 81.8525 4.11893 83.2557 3.80788 84.8455C3.48992 87.5965 5.91611 89.7946 6.55203 90.3753C10.4091 93.8659 15.9457 93.0849 17.9848 92.7945Z" fill="#FFA700"/>
<path d="M25.9204 68.2075C26.6877 68.6775 27.3374 69.3065 27.842 70.0531C29.1968 72.3617 29.2867 75.1957 28.0839 77.5805C24.4619 83.6079 3.04096 80.9398 0.421225 73.0046C-0.145577 71.1383 -0.0349818 69.1337 0.725363 67.3435C1.81058 65.2076 3.66306 63.5694 5.90953 62.7468C12.9876 59.7815 20.7432 64.8274 25.9273 68.2075H25.9204Z" fill="#FFA700"/>
<path d="M28.2702 55.6334C29.9292 57.1887 32.1203 59.29 32.0028 62.0756C31.8577 63.6931 31.125 65.2069 29.943 66.3197C23.7496 72.2228 2.84709 65.0064 1.81025 56.9537C1.67892 55.8961 1.85173 54.8316 2.31484 53.8708C4.46454 49.5161 12.2823 49.682 14.0241 49.7166C19.312 50 24.3441 52.0875 28.2771 55.6403L28.2702 55.6334Z" fill="#FFA700"/>
<path d="M22.395 37.5795C23.418 37.621 29.5008 37.9528 33.0675 42.819C33.4615 43.3581 37.125 48.4939 34.9131 52.3302C32.9016 55.807 27.4962 55.7034 26.6253 55.6826C17.9228 55.5098 8.22497 46.3788 9.86317 39.0864C10.0291 38.3675 10.2917 37.6763 10.6581 37.0404C11.1972 36.1072 11.8746 35.2639 12.6764 34.545" fill="#FFA700"/>
<path d="M19.9063 93.5349C19.2773 93.6248 18.6483 93.6731 18.0123 93.6939L17.957 91.8967C22.1804 91.7654 25.4775 90.0581 26.3554 87.5558C26.6872 86.5605 26.6733 85.4891 26.3277 84.5006C25.6365 83.0214 24.4545 81.8325 22.9822 81.1413L23.8462 79.5653C25.6987 80.457 27.171 81.9846 28.0074 83.8578C28.512 85.2402 28.5258 86.754 28.0558 88.1434C27.3784 89.8922 26.0582 91.323 24.3647 92.1386C22.9753 92.8575 21.4684 93.3275 19.9132 93.5211L19.9063 93.5349Z" fill="#081F2D"/>
<path d="M21.9115 81.5483C20.6396 81.7211 19.3608 81.7971 18.0821 81.7764C15.6559 81.7418 13.2366 81.4377 10.8796 80.8778C8.60543 80.3594 6.41426 79.5368 4.36133 78.424L5.24609 76.8618C9.22753 78.9009 13.6306 79.9723 18.1028 79.9861C20.0935 80.0484 22.0843 79.8064 24.0059 79.2742C25.3261 78.977 26.4943 78.2166 27.303 77.1314C27.7868 76.2052 28.0357 75.1752 28.0288 74.1246C28.0772 72.8666 27.7454 71.6224 27.0818 70.5579C26.6532 69.9219 26.0934 69.3759 25.4367 68.975L26.3837 67.4474C27.2546 67.9865 28.008 68.7054 28.5748 69.5556C29.4389 70.9311 29.8743 72.5279 29.819 74.1522C29.826 75.5139 29.4873 76.8549 28.8375 78.0507C27.8145 79.523 26.28 80.5668 24.5312 80.9815C23.6741 81.2373 22.7962 81.4308 21.9115 81.5483Z" fill="#081F2D"/>
<path d="M25.3184 69.2176C24.2954 69.3559 23.2585 69.4042 22.2286 69.3697C18.6343 69.1969 15.0952 68.402 11.7704 67.0264C8.59081 65.8375 5.7015 63.9851 3.28223 61.6003L4.59555 60.3769C8.16226 64.2201 15.9316 67.379 22.2839 67.5656C25.4705 67.6624 27.9036 67.0126 29.3137 65.6647C30.3298 64.7039 30.9657 63.4114 31.097 62.022C31.2491 59.0428 28.3252 56.7825 27.7377 56.3609L28.7883 54.9093C29.7975 55.6351 33.0877 58.3101 32.8873 62.1257C32.7352 63.9781 31.9057 65.7062 30.5509 66.9711C29.0856 68.2499 27.2538 69.031 25.3184 69.2176Z" fill="#081F2D"/>
<path d="M29.2582 56.4285C28.3734 56.553 27.4817 56.6013 26.597 56.5806C23.4588 56.4424 20.4036 55.4885 17.7493 53.8088C15.0605 52.1983 12.7587 50.0209 10.9961 47.4219L12.496 46.4404C14.1066 48.8113 16.2148 50.802 18.6825 52.2743C21.0672 53.7881 23.8044 54.659 26.6315 54.7834C28.3596 54.818 32.5484 54.6037 34.1244 51.8803C34.9193 50.2283 34.9193 48.3067 34.1244 46.6547C33.6682 45.4796 33.0737 44.3736 32.341 43.3506C29.2029 39.072 23.9081 38.5397 22.3598 38.4775L22.4289 36.6872C24.1777 36.7564 30.1775 37.3646 33.7926 42.2931C34.6221 43.4474 35.2995 44.7054 35.811 46.0257C36.2188 47.0625 36.4538 48.1615 36.5091 49.2744C36.5782 50.4979 36.2879 51.7144 35.6865 52.7858C34.5322 54.5968 32.6659 55.841 30.5439 56.2004C30.1291 56.2972 29.7075 56.3732 29.2651 56.4355L29.2582 56.4285Z" fill="#081F2D"/>
<path d="M118.855 87.8302L88.2683 149.162C77.6166 140.799 69.8542 135.455 64.7944 131.82C61.7323 129.622 58.6771 127.451 55.6357 125.308C55.6565 125.322 55.7325 125.357 55.8155 125.391C55.8777 125.426 55.9399 125.447 56.009 125.467C56.0643 125.488 56.1196 125.502 56.1749 125.509C58.4559 126.006 61.2761 121.596 62.2853 119.765C65.5202 113.896 72.8817 94.0305 81.6257 66.7341L118.862 87.8233L118.855 87.8302Z" fill="#7A57F7"/>
<path d="M63.9443 131.22C68.6308 128.594 72.2874 124.453 74.3196 119.476L93.1346 73.2682" stroke="#081F2D" stroke-width="1.38244" stroke-miterlimit="10"/>
<path d="M53.3135 120.125C53.5969 121.604 54.3088 125.115 56.1682 125.523C58.4562 126.021 61.2764 121.604 62.2855 119.779C65.5205 113.91 72.882 94.0378 81.6259 66.7415" stroke="#081F2D" stroke-width="1.38244" stroke-linecap="round" stroke-linejoin="round"/>
<path d="M46.7332 36.778C46.4636 34.6629 46.3323 32.527 46.3185 30.3911C46.1733 26.2231 46.7608 22.0688 48.0534 18.1012L49.3598 18.5781C46.6572 25.988 48.0949 36.4739 48.1087 36.5776L46.7332 36.7711V36.778Z" fill="#081F2D"/>
<g clip-path="url(#clip2_421_3)">
<path d="M142.502 145.328C142.512 146.558 142.618 147.784 142.815 148.999C142.83 149.047 142.83 149.091 142.844 149.139C142.97 149.94 143.467 150.63 144.18 151.006C144.668 151.305 145.203 151.517 145.767 151.628C146.64 151.782 147.523 151.956 148.396 152.125C148.623 152.149 148.806 152.318 148.85 152.544C148.869 152.766 148.743 152.974 148.536 153.056C148.411 153.104 148.271 153.133 148.145 153.181C147.407 153.355 146.684 153.601 145.999 153.929C144.918 154.44 144.07 155.337 143.621 156.447C143.076 157.744 142.704 159.109 142.516 160.508C142.468 160.913 142.405 161.318 142.362 161.719C142.333 161.984 142.193 162.138 141.971 162.153C141.754 162.182 141.542 162.052 141.474 161.839C141.431 161.733 141.392 161.622 141.364 161.511C141.021 160.378 140.539 159.293 139.931 158.275C139.801 158.048 139.646 157.836 139.482 157.638C138.715 156.804 137.847 156.066 136.897 155.448C136.106 154.975 135.238 154.647 134.331 154.469C133.602 154.315 132.869 154.175 132.136 154.035C131.895 154.045 131.692 153.842 131.692 153.591C131.692 153.355 131.876 153.157 132.112 153.138C132.199 153.118 132.286 153.109 132.377 153.109C132.797 153.118 133.217 153.07 133.622 152.969C134.437 152.81 135.247 152.598 136.034 152.332C136.439 152.207 136.825 152.052 137.23 151.913C138.45 151.464 139.405 150.485 139.825 149.255C139.95 148.927 140.042 148.584 140.182 148.276C140.384 147.808 140.601 147.345 140.804 146.877C140.939 146.612 141.05 146.337 141.142 146.052C141.33 145.382 141.503 144.716 141.687 144.031C141.716 143.92 141.764 143.814 141.812 143.688C141.851 143.534 141.995 143.438 142.155 143.452C142.323 143.462 142.463 143.592 142.483 143.761C142.497 143.896 142.502 144.031 142.497 144.166V145.333L142.502 145.328Z" fill="#613DE2"/>
</g>
<defs>
<linearGradient id="paint0_linear_421_3" x1="114.726" y1="103.013" x2="31.277" y2="59.2027" gradientUnits="userSpaceOnUse">
<stop stop-color="#FFDB41"/>
<stop offset="1" stop-color="#FFA700"/>
</linearGradient>
<clipPath id="clip0_421_3">
<rect width="25.7305" height="28.067" fill="white" transform="translate(101.692 30.4461)"/>
</clipPath>
<clipPath id="clip1_421_3">
<rect width="22.6431" height="24.6992" fill="white" transform="translate(12.6924 171.446)"/>
</clipPath>
<clipPath id="clip2_421_3">
<rect width="17.1572" height="18.7152" fill="white" transform="translate(131.692 143.446)"/>
</clipPath>
</defs>
</svg>
