<svg width="29" height="22" viewBox="0 0 29 22" fill="none" xmlns="http://www.w3.org/2000/svg">
<g id="Group 1254">
<path id="Trazado 14" d="M23.8292 1.4248H5.18765C4.12912 1.4279 3.11483 1.84977 2.36633 2.59827C1.61784 3.34676 1.19597 4.36105 1.19287 5.41958V6.75117H27.8247V5.41958C27.8216 4.36093 27.3996 3.34653 26.651 2.59801C25.9023 1.84949 24.8879 1.42771 23.8292 1.4248ZM1.19287 17.4035C1.19597 18.4621 1.61784 19.4764 2.36633 20.2249C3.11483 20.9733 4.12912 21.3952 5.18765 21.3983H23.8292C24.8879 21.3954 25.9023 20.9736 26.651 20.2251C27.3996 19.4766 27.8216 18.4622 27.8247 17.4035V9.41399H1.19287V17.4035Z" stroke="#888686"/>
<path id="Trazado 15" d="M11.8454 14.7403H7.85063C7.67577 14.7403 7.50261 14.7059 7.34106 14.639C7.1795 14.5721 7.03271 14.474 6.90906 14.3503C6.78541 14.2267 6.68732 14.0799 6.6204 13.9183C6.55349 13.7568 6.51904 13.5836 6.51904 13.4087C6.51904 13.2339 6.55349 13.0607 6.6204 12.8992C6.68732 12.7376 6.78541 12.5908 6.90906 12.4672C7.03271 12.3435 7.1795 12.2454 7.34106 12.1785C7.50261 12.1116 7.67577 12.0771 7.85063 12.0771H11.8454C12.0203 12.0771 12.1934 12.1116 12.355 12.1785C12.5165 12.2454 12.6633 12.3435 12.787 12.4672C12.9106 12.5908 13.0087 12.7376 13.0756 12.8992C13.1426 13.0607 13.177 13.2339 13.177 13.4087C13.177 13.5836 13.1426 13.7568 13.0756 13.9183C13.0087 14.0799 12.9106 14.2267 12.787 14.3503C12.6633 14.474 12.5165 14.5721 12.355 14.639C12.1934 14.7059 12.0203 14.7403 11.8454 14.7403Z" fill="#888686"/>
</g>
</svg>
