<svg width="18" height="18" viewBox="0 0 18 18" fill="none" xmlns="http://www.w3.org/2000/svg">
<path d="M14.0491 17.2353C10.7001 17.0086 7.50488 16.2807 4.79993 14.1299C2.52534 12.3196 1.23827 9.92121 0.741015 7.08146C0.492388 5.66159 0.43747 4.23473 0.736023 2.81385C1.00063 1.54675 1.76448 0.683046 2.94072 0.177803C3.90927 -0.238573 5.03758 0.0929302 5.59474 0.998574C6.14792 1.89823 6.66414 2.82284 7.16739 3.75245C7.51686 4.39848 7.48092 5.06848 7.15241 5.7235C6.86784 6.29065 6.56329 6.84881 6.31067 7.42894C6.23479 7.60268 6.23479 7.87627 6.32165 8.04102C6.58526 8.54727 6.90378 9.02455 7.20932 9.50883C7.8903 10.5882 8.89879 11.2482 10.067 11.6826C10.2288 11.7425 10.4625 11.7075 10.6282 11.6366C11.2563 11.366 11.8703 11.0645 12.4884 10.7719C13.2233 10.4235 13.9442 10.4664 14.6242 10.8918C15.3831 11.367 16.13 11.8633 16.8649 12.3745C17.8324 13.0475 18.0151 14.1788 17.5259 15.2522C16.8289 16.7849 15.6237 17.2912 14.0491 17.2353ZM1.26323 4.70203C1.34611 5.50482 1.38206 6.17782 1.49089 6.83883C1.89329 9.29614 2.91076 11.4479 4.79694 13.1174C7.47593 15.4909 10.732 16.2937 14.2009 16.4604C15.413 16.5183 16.3337 16.081 16.8489 14.8878C17.1704 14.1439 17.0706 13.4379 16.4016 12.9816C15.7026 12.5043 14.9917 12.045 14.2867 11.5787C13.7985 11.2562 13.2962 11.2233 12.766 11.4799C12.129 11.7894 11.4989 12.1239 10.8379 12.3715C10.5373 12.4844 10.1329 12.5123 9.83639 12.4075C8.49041 11.9342 7.35211 11.1544 6.57128 9.9252C6.24477 9.41097 5.92725 8.89075 5.61072 8.36953C5.36309 7.96214 5.37108 7.54976 5.58975 7.12839C5.88731 6.55425 6.16988 5.97312 6.46145 5.39599C6.67712 4.97062 6.72805 4.53228 6.4924 4.10792C5.98516 3.19428 5.47592 2.28165 4.93373 1.38899C4.59324 0.828828 3.89329 0.615148 3.29219 0.861778C2.44646 1.20926 1.78445 1.77441 1.56778 2.69204C1.40302 3.38899 1.3491 4.11091 1.26323 4.70203Z" fill="white"/>
</svg>
