<svg viewBox="0 0 379 452" fill="none" xmlns="http://www.w3.org/2000/svg">
<path d="M330.182 451.403H363.632C363.616 447.472 365.161 443.695 367.928 440.903C370.696 438.111 374.459 436.533 378.39 436.515V1.22076C378.063 1.23285 377.738 1.24586 377.406 1.24586C362.192 1.24586 17.2833 0.748957 2.06908 0.748957C1.57403 0.748957 1.08271 0.734063 0.593254 0.708008V436.508C4.52436 436.526 8.28738 438.105 11.0548 440.897C13.8222 443.689 15.3674 447.466 15.3506 451.397H48.8014C48.7859 449.449 49.1562 447.517 49.8909 445.713C50.6256 443.909 51.7102 442.268 53.0822 440.885C54.4541 439.503 56.0862 438.405 57.8844 437.656C59.6825 436.907 61.6112 436.521 63.5592 436.521C65.5071 436.521 67.4358 436.907 69.2339 437.656C71.0321 438.405 72.6643 439.503 74.0362 440.885C75.4081 442.268 76.4927 443.909 77.2274 445.713C77.9621 447.517 78.3324 449.449 78.317 451.397H111.768C111.752 449.449 112.123 447.517 112.857 445.713C113.592 443.909 114.677 442.268 116.049 440.885C117.42 439.503 119.053 438.405 120.851 437.656C122.649 436.907 124.578 436.521 126.526 436.521C128.473 436.521 130.402 436.907 132.2 437.656C133.999 438.405 135.631 439.503 137.003 440.885C138.374 442.268 139.459 443.909 140.194 445.713C140.928 447.517 141.299 449.449 141.283 451.397H174.734C174.719 449.449 175.089 447.517 175.824 445.713C176.558 443.909 177.643 442.268 179.015 440.885C180.387 439.503 182.019 438.405 183.817 437.656C185.615 436.907 187.544 436.521 189.492 436.521C191.44 436.521 193.369 436.907 195.167 437.656C196.965 438.405 198.597 439.503 199.969 440.885C201.341 442.268 202.425 443.909 203.16 445.713C203.895 447.517 204.265 449.449 204.25 451.397H237.7C237.684 449.449 238.054 447.517 238.789 445.713C239.524 443.909 240.608 442.268 241.98 440.885C243.352 439.503 244.984 438.405 246.783 437.656C248.581 436.907 250.509 436.521 252.457 436.521C254.405 436.521 256.334 436.907 258.132 437.656C259.93 438.405 261.562 439.503 262.934 440.885C264.306 442.268 265.391 443.909 266.126 445.713C266.86 447.517 267.231 449.449 267.215 451.397H300.666C300.65 449.449 301.021 447.517 301.755 445.713C302.49 443.909 303.575 442.268 304.947 440.885C306.319 439.503 307.951 438.405 309.749 437.656C311.547 436.907 313.476 436.521 315.424 436.521C317.372 436.521 319.3 436.907 321.099 437.656C322.897 438.405 324.529 439.503 325.901 440.885C327.273 442.268 328.357 443.909 329.092 445.713C329.827 447.517 330.197 449.449 330.182 451.397" fill="white"/>
</svg>
