<svg width="11" height="14" viewBox="0 0 11 14" fill="none" xmlns="http://www.w3.org/2000/svg">
<g id="Group 37">
<path id="Vector" d="M10.5579 5.03572C10.5558 6.42779 10.051 7.66462 9.36217 8.83873C8.42967 10.4303 7.19798 11.7946 6.01462 13.1938C5.75039 13.5064 5.36382 13.5218 5.10782 13.2175C3.62219 11.4553 2.04505 9.75479 1.10946 7.60088C0.548111 6.30545 0.354824 4.96992 0.716722 3.58402C1.32228 1.26253 3.46488 -0.187119 5.97349 0.0195323C8.72577 0.246747 10.5568 2.25158 10.5579 5.03572ZM5.59823 12.2428C6.80833 10.8045 7.98861 9.44121 8.82241 7.82604C9.46087 6.59024 9.80324 5.29995 9.45779 3.90788C8.85223 1.47329 6.05369 0.284787 3.68799 1.44965C2.0615 2.25055 1.24929 4.12172 1.72633 6.08337C2.32676 8.54983 4.03241 10.3264 5.59823 12.2428Z" fill="white"/>
<path id="Vector_2" d="M5.59714 3.04316C6.89257 3.05858 7.94331 4.14736 7.9248 5.45615C7.9063 6.75364 6.80724 7.82185 5.51695 7.79718C4.21432 7.7725 3.15125 6.68578 3.16667 5.39447C3.18209 4.07642 4.26573 3.02671 5.59817 3.04316H5.59714ZM7.06529 5.42428C7.0581 4.60693 6.37029 3.93865 5.54882 3.95099C4.75408 3.9623 4.08581 4.6316 4.07655 5.42428C4.0673 6.22519 4.77053 6.93459 5.57349 6.93356C6.37954 6.93356 7.07249 6.23135 7.06632 5.42428H7.06529Z" fill="white"/>
</g>
</svg>
