<svg width="50" height="16" viewBox="0 0 50 16" fill="none" xmlns="http://www.w3.org/2000/svg">
<path d="M17.8389 14.8721L20.3322 0.350586H24.2925L21.7992 14.8721H17.8389Z" fill="white"/>
<path d="M36.1738 0.69291C35.0279 0.288791 33.8196 0.090232 32.6046 0.10638C28.6943 0.10638 25.9548 2.06148 25.9059 4.89821C25.9059 7.00056 27.861 8.12535 29.3774 8.85852C30.9421 9.59168 31.4309 10.0322 31.4309 10.6676C31.4309 11.6451 30.2089 12.0857 29.0841 12.0857C27.7996 12.1399 26.522 11.871 25.3682 11.3036L24.8795 11.0592L24.3418 14.2864C25.7553 14.7865 27.2415 15.0507 28.7408 15.0684C32.8954 15.0684 35.5836 13.1133 35.635 10.1299C35.635 8.4675 34.6079 7.24495 32.3101 6.16964C30.9409 5.48535 30.0611 5.04484 30.1106 4.36056C30.1106 3.77403 30.8437 3.08913 32.3596 3.08913C33.3791 3.07497 34.3918 3.25752 35.3423 3.62679L35.6844 3.77342L36.1738 0.69291ZM46.2945 0.350766H43.214C42.2847 0.350766 41.5516 0.595154 41.1606 1.57271L35.2953 14.8717H39.4498C39.4498 14.8717 40.1341 13.0626 40.2808 12.6722H45.3659C45.4636 13.161 45.8546 14.8717 45.8546 14.8717H49.5205L46.2945 0.350766ZM41.4544 9.73831C41.7966 8.90739 43.0191 5.68025 43.0191 5.68025C43.0191 5.72913 43.3613 4.84934 43.5568 4.31107L43.8012 5.5825C43.8012 5.5825 44.5343 9.05402 44.7305 9.78719H41.4544V9.73831ZM14.5137 0.350766L10.6494 10.276L10.2583 8.27137C9.52518 5.97352 7.27559 3.43066 4.78223 2.16168L8.30263 14.8741H12.5073L18.7184 0.350766H14.5137Z" fill="white"/>
<path d="M7.08258 0.350586H0.677784L0.628906 0.643851C5.61625 1.86579 8.89166 4.75079 10.2608 8.21987L8.89166 1.52426C8.59839 0.644461 7.91411 0.399463 7.08258 0.350586Z" fill="#F6CD29"/>
</svg>
