<svg width="21" height="22" viewBox="0 0 21 22" fill="none" xmlns="http://www.w3.org/2000/svg">
<path d="M15.2973 12.737C15.2574 12.7178 13.7648 11.9828 13.4995 11.8873C13.3912 11.8485 13.2752 11.8105 13.1518 11.8105C12.9503 11.8105 12.781 11.9109 12.6491 12.1082C12.5 12.3299 12.0486 12.8575 11.9091 13.0151C11.8909 13.0359 11.866 13.0608 11.8512 13.0608C11.8378 13.0608 11.6068 12.9657 11.5369 12.9353C9.93563 12.2397 8.72023 10.5671 8.55357 10.2851C8.52977 10.2445 8.52878 10.2261 8.52858 10.2261C8.53443 10.2046 8.58827 10.1506 8.61606 10.1228C8.69736 10.0424 8.78544 9.93632 8.87067 9.83375C8.91102 9.78515 8.95144 9.73649 8.99112 9.69062C9.11477 9.54677 9.16981 9.43509 9.23363 9.30572L9.26707 9.23851C9.42289 8.92893 9.2898 8.66768 9.24679 8.58332C9.21149 8.51272 8.58123 6.9916 8.51422 6.83179C8.35308 6.44616 8.14015 6.2666 7.84427 6.2666C7.81681 6.2666 7.84427 6.2666 7.72913 6.27145C7.58893 6.27737 6.82544 6.37788 6.48787 6.59068C6.1299 6.81636 5.52429 7.53578 5.52429 8.80096C5.52429 9.93964 6.2469 11.0148 6.55714 11.4237C6.56485 11.434 6.57901 11.4549 6.59955 11.485C7.78769 13.2201 9.26886 14.5061 10.7704 15.1059C12.2159 15.6833 12.9004 15.75 13.2896 15.75H13.2896C13.4532 15.75 13.5841 15.7372 13.6995 15.7259L13.7728 15.7189C14.2722 15.6746 15.3696 15.106 15.6192 14.4123C15.8158 13.8659 15.8677 13.2689 15.7369 13.0523C15.6472 12.905 15.4928 12.8309 15.2973 12.737Z" fill="#5840D1"/>
<path d="M10.5661 0.97168C5.0209 0.97168 0.509522 5.44916 0.509522 10.9527C0.509522 12.7328 0.985894 14.4752 1.88832 16.0002L0.16105 21.0953C0.128876 21.1903 0.152807 21.2953 0.223073 21.3668C0.273795 21.4186 0.342598 21.4465 0.412864 21.4465C0.439788 21.4465 0.46691 21.4425 0.493368 21.434L5.80619 19.7458C7.26004 20.5226 8.90322 20.9326 10.5662 20.9326C16.1109 20.9327 20.6218 16.4557 20.6218 10.9527C20.6218 5.44916 16.1109 0.97168 10.5661 0.97168ZM10.5661 18.8535C9.00133 18.8535 7.48573 18.4017 6.18292 17.5468C6.13911 17.518 6.08825 17.5033 6.03707 17.5033C6.01001 17.5033 5.98289 17.5074 5.9565 17.5158L3.2951 18.3617L4.15424 15.8271C4.18203 15.745 4.16814 15.6545 4.11695 15.5846C3.12485 14.229 2.60042 12.6274 2.60042 10.9527C2.60042 6.59562 6.17381 3.05081 10.5661 3.05081C14.9578 3.05081 18.5308 6.59562 18.5308 10.9527C18.5308 15.3093 14.9579 18.8535 10.5661 18.8535Z" fill="#5840D1"/>
</svg>
