<svg width="25" height="25" viewBox="0 0 25 25" fill="none" xmlns="http://www.w3.org/2000/svg">
<path d="M18.147 14.2245C18.1003 14.2021 16.3506 13.3405 16.0397 13.2286C15.9128 13.183 15.7768 13.1385 15.6322 13.1385C15.3959 13.1385 15.1975 13.2563 15.0429 13.4875C14.8681 13.7473 14.339 14.3658 14.1755 14.5506C14.1542 14.5749 14.125 14.6041 14.1076 14.6041C14.0919 14.6041 13.8211 14.4926 13.7391 14.457C11.8622 13.6417 10.4376 11.6811 10.2422 11.3504C10.2143 11.3029 10.2132 11.2813 10.2129 11.2813C10.2198 11.2562 10.2829 11.1929 10.3155 11.1602C10.4108 11.066 10.514 10.9417 10.6139 10.8214C10.6612 10.7645 10.7086 10.7074 10.7551 10.6537C10.9001 10.485 10.9646 10.3541 11.0394 10.2025L11.0786 10.1237C11.2612 9.76084 11.1052 9.4546 11.0548 9.35572C11.0134 9.27297 10.2747 7.48995 10.1961 7.30263C10.0072 6.8506 9.75764 6.64014 9.41081 6.64014C9.37863 6.64014 9.41081 6.64014 9.27585 6.64582C9.11151 6.65276 8.21658 6.77058 7.82089 7.02001C7.40128 7.28455 6.69141 8.12783 6.69141 9.61084C6.69141 10.9456 7.53842 12.2058 7.90208 12.6851C7.91112 12.6972 7.92772 12.7217 7.9518 12.7569C9.3445 14.7909 11.0807 16.2982 12.8407 17.0013C14.5351 17.6781 15.3375 17.7563 15.7936 17.7563H15.7937C15.9854 17.7563 16.1388 17.7413 16.2742 17.728L16.3601 17.7198C16.9454 17.6679 18.2317 17.0014 18.5243 16.1882C18.7548 15.5478 18.8156 14.8481 18.6623 14.5941C18.5572 14.4214 18.3762 14.3346 18.147 14.2245Z" fill="white"/>
<path d="M12.6017 0.198242C6.10174 0.198242 0.813641 5.44661 0.813641 11.8977C0.813641 13.9842 1.37203 16.0266 2.42982 17.8142L0.405173 23.7865C0.367459 23.8979 0.395511 24.021 0.477875 24.1048C0.537329 24.1655 0.617978 24.1982 0.700342 24.1982C0.731901 24.1982 0.763693 24.1935 0.794706 24.1836L7.02224 22.2047C8.72639 23.1152 10.6525 23.5958 12.6018 23.5958C19.1011 23.5959 24.3887 18.3481 24.3887 11.8977C24.3887 5.44661 19.1011 0.198242 12.6017 0.198242ZM12.6017 21.1588C10.7675 21.1588 8.99094 20.6292 7.46382 19.6271C7.41247 19.5934 7.35286 19.5761 7.29286 19.5761C7.26115 19.5761 7.22936 19.5809 7.19842 19.5907L4.07881 20.5823L5.08587 17.6113C5.11845 17.5151 5.10216 17.409 5.04216 17.3271C3.87925 15.7381 3.26452 13.8607 3.26452 11.8977C3.26452 6.79045 7.45315 2.63533 12.6016 2.63533C17.7495 2.63533 21.9376 6.79045 21.9376 11.8977C21.9377 17.0043 17.7496 21.1588 12.6017 21.1588Z" fill="white"/>
</svg>
