<svg xmlns="http://www.w3.org/2000/svg" width="38.068" height="23.56" viewBox="0 0 38.068 23.56">
  <g id="Grupo_63248" data-name="Grupo 63248" transform="translate(21177 9767.225)">
    <g id="Grupo_56780" data-name="Grupo 56780" transform="translate(-21177 -9767.225)">
      <path id="Trazado_50913" data-name="Trazado 50913" d="M19,21.054a8.222,8.222,0,0,1-.736.539A11.721,11.721,0,0,1,3.911,20.56a11.785,11.785,0,0,1-2.533-3.231A11.672,11.672,0,0,1,.016,12.4a12.022,12.022,0,0,1,.037-1.759A11.739,11.739,0,0,1,18.972,2.49a.261.261,0,0,1,.023.023c-.006.045-.044.064-.074.09-.184.157-.37.311-.547.475-.193.179-.379.366-.563.555-.215.221-.418.452-.612.69a12.121,12.121,0,0,0-1.407,2.172c-.118.232-.224.47-.326.709a11.639,11.639,0,0,0-.778,2.737q-.046.32-.084.64c-.012.1-.008.2-.024.295a5.326,5.326,0,0,0-.033.569,9.274,9.274,0,0,0,.014,1.011c.008.131.017.263.03.394.022.221.046.443.078.663.045.307.1.613.169.915a11.657,11.657,0,0,0,.383,1.317,12.316,12.316,0,0,0,.673,1.537,11.739,11.739,0,0,0,.915,1.474,10.246,10.246,0,0,0,.82,1,11.759,11.759,0,0,0,1.266,1.188c.039.03.09.053.1.109" transform="translate(0 -0.005)" fill="#ec001b"/>
      <path id="Trazado_50914" data-name="Trazado 50914" d="M1729.667,2.515a5.793,5.793,0,0,1,.579-.435,11.669,11.669,0,0,1,5.934-2.052,11.9,11.9,0,0,1,1.594.013,11.651,11.651,0,0,1,5.376,1.773,11.82,11.82,0,0,1,5.272,7.618,11.412,11.412,0,0,1,.218,1.713,11.962,11.962,0,0,1-.036,1.782,11.759,11.759,0,0,1-12.159,10.632,11.556,11.556,0,0,1-3.027-.518,11.73,11.73,0,0,1-3.173-1.545c-.205-.141-.408-.286-.6-.447.05-.043.1-.088.149-.129a6.188,6.188,0,0,0,.54-.465c.278-.272.559-.541.817-.832.178-.2.349-.4.513-.615q.323-.416.606-.861c.169-.266.332-.536.476-.816.117-.228.234-.457.338-.692a12.226,12.226,0,0,0,.451-1.167,10.856,10.856,0,0,0,.326-1.229c.043-.218.088-.437.121-.656s.05-.42.074-.63c.028-.236.045-.473.054-.709a11.494,11.494,0,0,0-.02-1.319c-.007-.087-.009-.176-.022-.262-.031-.206-.051-.412-.081-.618-.039-.271-.086-.541-.148-.807a12.126,12.126,0,0,0-.428-1.474c-.145-.4-.311-.783-.492-1.163-.131-.275-.278-.541-.434-.8-.139-.232-.281-.463-.435-.686s-.31-.434-.476-.644q-.279-.353-.584-.684a11.622,11.622,0,0,0-.845-.831q-.21-.185-.427-.362c-.026-.021-.053-.041-.054-.079" transform="translate(-1710.592 -0.007)" fill="#f79e1c"/>
      <path id="Trazado_50915" data-name="Trazado 50915" d="M1324.091,227.635c0,.038.028.058.054.079q.217.176.426.362a11.6,11.6,0,0,1,.845.831q.3.33.584.684.249.314.476.644c.154.222.3.454.435.686.156.261.3.528.434.8.181.38.347.767.492,1.163a12.193,12.193,0,0,1,.428,1.474c.061.266.109.536.148.807.03.206.05.412.081.618.013.086.015.175.022.262a11.412,11.412,0,0,1,.02,1.319c-.01.236-.026.473-.054.709-.025.21-.043.421-.074.63s-.077.438-.121.656a10.881,10.881,0,0,1-.326,1.229,12.286,12.286,0,0,1-.451,1.167c-.1.235-.22.464-.338.692-.144.28-.306.55-.476.816q-.284.445-.606.861c-.164.211-.335.415-.513.615-.259.291-.54.56-.817.832a6.2,6.2,0,0,1-.54.465c-.052.04-.1.086-.149.129l-.057.008c-.014-.056-.065-.079-.1-.109a11.8,11.8,0,0,1-1.266-1.188,10.293,10.293,0,0,1-.819-1,11.746,11.746,0,0,1-.915-1.474,12.363,12.363,0,0,1-.674-1.537,11.676,11.676,0,0,1-.383-1.317c-.07-.3-.124-.608-.169-.915-.033-.22-.057-.442-.078-.663-.013-.13-.022-.262-.03-.394a9.2,9.2,0,0,1-.014-1.011,5.291,5.291,0,0,1,.033-.569c.015-.1.012-.2.024-.295q.038-.321.084-.64a11.634,11.634,0,0,1,.778-2.737c.1-.239.207-.477.326-.709a12.1,12.1,0,0,1,1.407-2.172c.195-.238.4-.469.612-.69.184-.189.37-.376.563-.555.177-.164.363-.318.547-.475.031-.026.068-.045.074-.09a.154.154,0,0,0,.081,0" transform="translate(-1305.016 -225.127)" fill="#ff5a00"/>
      <rect id="Rectángulo_11172" data-name="Rectángulo 11172" width="38.068" height="23.56" transform="translate(0 0)" fill="none"/>
    </g>
  </g>
</svg>
