<svg xmlns="http://www.w3.org/2000/svg" width="102.188" height="39.098" viewBox="0 0 102.188 39.098">
  <g id="Page-1" transform="translate(-20.801 -206.8)">
    <g id="Grupo_61340" data-name="Grupo 61340" transform="translate(20.8 206.8)">
      <g id="Grupo_61337" data-name="Grupo 61337" transform="translate(67.126 19.923)">
        <path id="Trazado_57955" data-name="Trazado 57955" d="M417.639,334.165l1.022.307a1.733,1.733,0,0,1-.324.715,1.325,1.325,0,0,1-.545.426,1.974,1.974,0,0,1-.834.153,2.476,2.476,0,0,1-1-.17,1.556,1.556,0,0,1-.664-.63,2.1,2.1,0,0,1-.289-1.141,2,2,0,0,1,.494-1.43,1.844,1.844,0,0,1,1.4-.494,1.9,1.9,0,0,1,1.107.289,1.555,1.555,0,0,1,.6.885l-1.022.221a.6.6,0,0,0-.119-.255.693.693,0,0,0-.238-.2.668.668,0,0,0-.307-.068.657.657,0,0,0-.6.324,1.38,1.38,0,0,0-.153.732,1.458,1.458,0,0,0,.187.851.649.649,0,0,0,.528.238.628.628,0,0,0,.494-.187A1.161,1.161,0,0,0,417.639,334.165Z" transform="translate(-415 -331.883)" fill="#225e63"/>
        <path id="Trazado_57956" data-name="Trazado 57956" d="M438.9,333.741a1.774,1.774,0,0,1,1.941-1.941,2.013,2.013,0,0,1,1.447.494,1.892,1.892,0,0,1,.511,1.413,2.184,2.184,0,0,1-.221,1.073,1.579,1.579,0,0,1-.647.647,2.129,2.129,0,0,1-1.039.238,2.431,2.431,0,0,1-1.056-.2,1.647,1.647,0,0,1-.681-.647A1.93,1.93,0,0,1,438.9,333.741Zm1.158,0a1.309,1.309,0,0,0,.2.817.691.691,0,0,0,.579.255.731.731,0,0,0,.579-.238,1.414,1.414,0,0,0,.2-.868,1.058,1.058,0,0,0-.221-.766.7.7,0,0,0-.579-.238.68.68,0,0,0-.562.255A1.138,1.138,0,0,0,440.058,333.741Z" transform="translate(-434.83 -331.8)" fill="#225e63"/>
        <path id="Trazado_57957" data-name="Trazado 57957" d="M465.134,332.2h1.516l.579,2.282.579-2.282h1.516v3.746h-.954v-2.861l-.732,2.861h-.851l-.732-2.861v2.861H465.1V332.2Z" transform="translate(-456.569 -332.132)" fill="#225e63"/>
        <path id="Trazado_57958" data-name="Trazado 57958" d="M494.3,332.2h1.924a1.266,1.266,0,0,1,.937.307,1.133,1.133,0,0,1,.307.851,1.167,1.167,0,0,1-.341.885,1.435,1.435,0,0,1-1.039.324h-.63v1.4H494.3Zm1.158,1.6h.289a.729.729,0,0,0,.477-.119.39.39,0,0,0,.136-.289.41.41,0,0,0-.119-.307.6.6,0,0,0-.443-.119h-.324v.834Z" transform="translate(-480.796 -332.132)" fill="#225e63"/>
        <path id="Trazado_57959" data-name="Trazado 57959" d="M516.5,332.2h1.158v2.827h1.8v.92H516.5V332.2Z" transform="translate(-499.216 -332.132)" fill="#225e63"/>
        <path id="Trazado_57960" data-name="Trazado 57960" d="M537.3,332.2h1.158v3.746H537.3Z" transform="translate(-516.474 -332.132)" fill="#225e63"/>
        <path id="Trazado_57961" data-name="Trazado 57961" d="M549.474,335.233h-1.311l-.187.613H546.8l1.413-3.746h1.26l1.413,3.746h-1.209Zm-.238-.8-.409-1.345-.409,1.345Z" transform="translate(-524.356 -332.049)" fill="#225e63"/>
        <path id="Trazado_57962" data-name="Trazado 57962" d="M572.9,332.2h1.073l1.413,2.077V332.2h1.09v3.746h-1.09l-1.4-2.06v2.06H572.9Z" transform="translate(-546.012 -332.132)" fill="#225e63"/>
        <path id="Trazado_57963" data-name="Trazado 57963" d="M596.9,332.2h3.525v.92H599.25v2.827h-1.158V333.12h-1.175v-.92Z" transform="translate(-565.925 -332.132)" fill="#225e63"/>
      </g>
      <g id="Rectangle-3-_x2B_-Letters" transform="translate(0)">
        <path id="Rectangle-3" d="M76.636,232l3.355-1.056-1.09-2.418A27.71,27.71,0,0,0,76.636,232ZM75.5,220.945,68.923,206.3,20.8,209.025,34.133,245.4,59.8,237.309c-1.635-2.35-2.231-5.143-.341-6.5,2.112-1.533,5.3.238,7.322,2.742C68.735,230.276,74.235,222.664,75.5,220.945Z" transform="translate(-20.8 -206.3)" fill="#225e63"/>
        <g id="Letters" transform="translate(9.195 3.704)">
          <path id="Oval-1" d="M174.844,193.58a3.445,3.445,0,1,0-3.644-3.44A3.544,3.544,0,0,0,174.844,193.58Zm-2.98,1.481h5.96v15.581h-5.96Z" transform="translate(-137.415 -186.7)" fill="#fefefe"/>
          <path id="Path-3" d="M84.951,238.9c.051.017.085,0,.085-.051V234.9a.174.174,0,0,0-.085-.136,7.208,7.208,0,0,0-3.167-.647,16.546,16.546,0,0,0-2.776,0c-8.685.7-9.008,6.982-9.008,7.254v1.533c0,.187,0,6.607,9.008,7.169.885.068,2.605,0,2.776,0a9.494,9.494,0,0,0,3.508-.63.128.128,0,0,0,.085-.119v-3.7c0-.051-.034-.068-.068-.034,0,0-.647.511-3.474.8a5.04,5.04,0,0,1-1.481,0c-4.019-.681-4.206-3.61-4.206-3.61,0-.051-.017-.136-.017-.17v-1.124a.525.525,0,0,1,.017-.17s.272-3.15,4.206-3.491h1.481A8.875,8.875,0,0,1,84.951,238.9Z" transform="translate(-53.448 -225.997)" fill="#fefefe"/>
          <path id="Path-1" d="M-27.2,251.292a.08.08,0,0,0,.085.085h5.807a.08.08,0,0,0,.085-.085v-4.53a.08.08,0,0,1,.085-.085s9.281.664,9.281-5.551c0-4.921-5.824-5.449-7.731-5.364h-7.527a.08.08,0,0,0-.085.085Zm5.875-8.072v-4.07h1.43s2.06.085,2.231,1.5a3.407,3.407,0,0,1,0,.834,2.2,2.2,0,0,1-2.06,1.737Z" transform="translate(27.2 -227.401)" fill="#fefefe"/>
        </g>
        <path id="Path-7" d="M258.76,291.984a3.065,3.065,0,0,0,1.464-.272c2.112-1.107,9.246-18.527,16.773-23.891a.518.518,0,0,0,.136-.136.249.249,0,0,0,.051-.136s0-.358-1.107-.358c-6.692-.187-13.657,13.861-17.318,19.413-.051.068-.289,0-.289,0a20.084,20.084,0,0,0-4.581-4,1.458,1.458,0,0,0-.545-.085,3.089,3.089,0,0,0-1.618.681,1.81,1.81,0,0,0-.528,1.6,1.177,1.177,0,0,0,.1.409,35.013,35.013,0,0,0,4.853,5.994A3.306,3.306,0,0,0,258.76,291.984Z" transform="translate(-211.966 -256.821)" fill="#2bbc5d"/>
      </g>
      <g id="Grupo_61338" data-name="Grupo 61338" transform="translate(67.007 5.517)">
        <path id="Trazado_57964" data-name="Trazado 57964" d="M414.3,248.5h5.568a6.736,6.736,0,0,1,2.656.443,4.335,4.335,0,0,1,1.669,1.277,5.18,5.18,0,0,1,.954,1.941,8.709,8.709,0,0,1,.307,2.35,8.277,8.277,0,0,1-.443,3.014,4.994,4.994,0,0,1-1.226,1.805,4.26,4.26,0,0,1-1.686.971,8.6,8.6,0,0,1-2.231.324H414.3Zm3.746,2.742v6.624h.92a3.9,3.9,0,0,0,1.669-.255,1.8,1.8,0,0,0,.783-.9,5.694,5.694,0,0,0,.289-2.112,4.036,4.036,0,0,0-.63-2.639,2.66,2.66,0,0,0-2.094-.715Z" transform="translate(-414.3 -248.279)" fill="#225e63"/>
        <path id="Trazado_57965" data-name="Trazado 57965" d="M485.9,255.544l3.576-.221a2.822,2.822,0,0,0,.477,1.328,1.974,1.974,0,0,0,1.652.732,1.838,1.838,0,0,0,1.243-.375,1.082,1.082,0,0,0,.034-1.72,4.712,4.712,0,0,0-1.924-.7,8.287,8.287,0,0,1-3.525-1.482,2.942,2.942,0,0,1-1.056-2.35,3.23,3.23,0,0,1,.545-1.771,3.552,3.552,0,0,1,1.635-1.311,7.51,7.51,0,0,1,2.98-.477,6.04,6.04,0,0,1,3.542.868,3.73,3.73,0,0,1,1.447,2.759l-3.542.2a1.939,1.939,0,0,0-.6-1.192,1.869,1.869,0,0,0-1.243-.375,1.487,1.487,0,0,0-.988.272.846.846,0,0,0-.324.681.677.677,0,0,0,.272.528,3.125,3.125,0,0,0,1.26.443,16.414,16.414,0,0,1,3.525,1.073,3.7,3.7,0,0,1,1.55,1.345,3.406,3.406,0,0,1,.477,1.805,3.83,3.83,0,0,1-.647,2.146,4.019,4.019,0,0,1-1.8,1.5,7.285,7.285,0,0,1-2.929.511c-2.06,0-3.491-.392-4.291-1.192A4.844,4.844,0,0,1,485.9,255.544Z" transform="translate(-473.708 -247.2)" fill="#225e63"/>
      </g>
      <g id="Grupo_61339" data-name="Grupo 61339" transform="translate(91.171 5.517)">
        <path id="Trazado_57966" data-name="Trazado 57966" d="M556.2,255.544l3.576-.221a2.821,2.821,0,0,0,.477,1.328,1.974,1.974,0,0,0,1.652.732,1.838,1.838,0,0,0,1.243-.375,1.082,1.082,0,0,0,.034-1.72,4.712,4.712,0,0,0-1.924-.7,8.287,8.287,0,0,1-3.525-1.482,3,3,0,0,1-1.056-2.35,3.23,3.23,0,0,1,.545-1.771,3.552,3.552,0,0,1,1.635-1.311,7.51,7.51,0,0,1,2.98-.477,6.039,6.039,0,0,1,3.542.868,3.73,3.73,0,0,1,1.448,2.759l-3.542.2a1.938,1.938,0,0,0-.6-1.192,1.869,1.869,0,0,0-1.243-.375,1.486,1.486,0,0,0-.988.272.845.845,0,0,0-.324.681.677.677,0,0,0,.272.528,3.125,3.125,0,0,0,1.26.443,16.413,16.413,0,0,1,3.525,1.073,3.7,3.7,0,0,1,1.55,1.345,3.406,3.406,0,0,1,.477,1.805,3.83,3.83,0,0,1-.647,2.146,4.019,4.019,0,0,1-1.8,1.5,7.285,7.285,0,0,1-2.929.511c-2.06,0-3.491-.392-4.291-1.192A4.67,4.67,0,0,1,556.2,255.544Z" transform="translate(-556.2 -247.2)" fill="#225e63"/>
      </g>
    </g>
  </g>
</svg>
