<svg xmlns="http://www.w3.org/2000/svg" width="71.092" height="22.974" viewBox="0 0 71.092 22.974">
  <g id="Grupo_63247" data-name="Grupo 63247" transform="translate(21284 9767.225)">
    <path id="Trazado_50916" data-name="Trazado 50916" d="M1251.742,0a1.13,1.13,0,0,0,.39.047,14.254,14.254,0,0,1,3.832.841c.108.04.142.08.121.205-.251,1.5-.492,3.007-.736,4.511-.007.041-.017.081-.029.138-.1-.044-.194-.083-.287-.127a10.045,10.045,0,0,0-4.848-.949,4.651,4.651,0,0,0-1.9.44,2.27,2.27,0,0,0-.721.554,1.333,1.333,0,0,0,0,1.828,3.672,3.672,0,0,0,.779.664,21.419,21.419,0,0,0,2.33,1.279,11.242,11.242,0,0,1,2.893,1.957,5.339,5.339,0,0,1,1.637,3,6.661,6.661,0,0,1-.193,2.922,6.9,6.9,0,0,1-3.342,4.158,10.885,10.885,0,0,1-3.683,1.28,15.161,15.161,0,0,1-3.109.215,18.421,18.421,0,0,1-5.444-.938c-.174-.061-.343-.136-.516-.2-.063-.024-.078-.053-.066-.124q.367-2.242.727-4.484c.021-.132.042-.264.064-.4a.355.355,0,0,1,.167.061,16.538,16.538,0,0,0,2.768,1.085,11.4,11.4,0,0,0,3.851.341,4.127,4.127,0,0,0,1.816-.549,1.977,1.977,0,0,0,.884-.946,1.6,1.6,0,0,0-.316-1.776,5.631,5.631,0,0,0-1.454-1.076c-.609-.35-1.251-.635-1.869-.969a10.888,10.888,0,0,1-2.719-1.967,5.146,5.146,0,0,1-1.473-2.8,6.075,6.075,0,0,1,.25-2.845,6.788,6.788,0,0,1,2.781-3.574A10.444,10.444,0,0,1,1248.37.222a13.8,13.8,0,0,1,1.638-.195c.024,0,.057.012.068-.027Z" transform="translate(-22488.424 -9767.225)" fill="#1a1a1a"/>
    <path id="Trazado_50917" data-name="Trazado 50917" d="M0,14.959a.887.887,0,0,0,.076-.29c.016-.063.042-.086.1-.081.028,0,.055,0,.083,0H9.243a4.37,4.37,0,0,1,1.044.119,2.116,2.116,0,0,1,1.677,1.756c.448,2.211.876,4.427,1.312,6.64q.325,1.65.651,3.3a1.174,1.174,0,0,1,.011.137.674.674,0,0,1-.03-.06,16.607,16.607,0,0,0-1.089-2.3,18.146,18.146,0,0,0-6.31-6.428,2.293,2.293,0,0,0-.43-.243l0,0c0-.019-.01-.023-.024-.026a18.752,18.752,0,0,0-2-1.038,24.523,24.523,0,0,0-4-1.4A.353.353,0,0,0,0,15.042v-.083" transform="translate(-21284 -9781.407)" fill="#1a1a1a"/>
    <path id="Trazado_50918" data-name="Trazado 50918" d="M1836.4,36.7h-.147q-2.52,0-5.04,0c-.115,0-.155-.031-.177-.143-.208-1.031-.424-2.061-.633-3.092-.017-.083-.049-.1-.127-.1q-3.6,0-7.191,0c-.094,0-.114.043-.14.114-.374,1.037-.751,2.072-1.124,3.11a.138.138,0,0,1-.153.114q-2.916,0-5.831,0c-.028,0-.055,0-.083,0a.222.222,0,0,1,.035-.12q4.263-10.163,8.527-20.326a2.632,2.632,0,0,1,1.787-1.645,4.7,4.7,0,0,1,1.237-.139q2.138,0,4.276,0c.109,0,.149.031.172.137q1.133,5.441,2.271,10.882,1.075,5.149,2.149,10.3c.063.3.127.6.194.919m-11.749-7.886a.492.492,0,0,0,.055.008q2.311,0,4.621,0c.1,0,.1-.025.083-.111q-.789-3.8-1.572-7.6c-.041-.2-.087-.4-.137-.631-.989,2.812-2.037,5.559-3.049,8.333" transform="translate(-23049.313 -9781.29)" fill="#1a1a1a"/>
    <path id="Trazado_50919" data-name="Trazado 50919" d="M218.637,17.4a2.292,2.292,0,0,1,.43.243,18.147,18.147,0,0,1,6.31,6.428,16.607,16.607,0,0,1,1.088,2.3c.008.021.02.04.03.06.247,1.046.423,2.106.652,3.157.058-.011.051-.069.065-.106q1.823-4.895,3.643-9.791.945-2.542,1.888-5.085a.167.167,0,0,1,.186-.132q2.895.005,5.79,0c.164,0,.165,0,.1.156q-4.468,10.963-8.933,21.927a.181.181,0,0,1-.2.13q-2.895,0-5.79,0c-.116,0-.165-.029-.2-.147q-1.3-4.931-2.615-9.859l-2.429-9.15a.222.222,0,0,1-.017-.134" transform="translate(-21496.557 -9781.295)" fill="#1a1a1a"/>
    <path id="Trazado_50920" data-name="Trazado 50920" d="M904.932,36.726q-1.368,0-2.735,0c-.1,0-.141,0-.12-.129q.493-2.993.974-5.988.409-2.529.816-5.059.381-2.352.765-4.7.451-2.782.9-5.565c.035-.219.081-.436.1-.656.013-.117.06-.139.167-.139,1.162,0,2.323,0,3.485,0,.662,0,1.323,0,1.985,0,.11,0,.148.009.126.14-.342,2.087-.676,4.174-1.014,6.262q-.59,3.643-1.184,7.286-.543,3.343-1.083,6.685c-.092.57-.191,1.138-.272,1.71-.019.137-.071.156-.192.156-.907,0-1.814,0-2.721,0" transform="translate(-22161.01 -9781.313)" fill="#1a1a1a"/>
    <path id="Trazado_50921" data-name="Trazado 50921" d="M218.044,118.964c.015,0,.027.007.024.026-.027.009-.021-.013-.024-.026" transform="translate(-21495.986 -9882.884)" fill="#00579e"/>
  </g>
</svg>
