<svg xmlns="http://www.w3.org/2000/svg" width="569.639" height="336.598" viewBox="0 0 569.639 336.598">
  <g id="_404" data-name="404" transform="translate(-694.991 -228.302)">
    <ellipse id="Elipse_16957" data-name="Elipse 16957" cx="42.786" cy="42.786" rx="42.786" ry="42.786" transform="translate(935.644 229.479)" fill="#fff"/>
    <path id="Trazado_27886" data-name="Trazado 27886" d="M456.076,431.165l-15.7,75.468h61.053l-15.7-75.468Zm24.12,31.571a9.94,9.94,0,1,1-19.88,0V452.8H480.2Z" transform="translate(498.234 51.2)" fill="#4d76b8"/>
    <path id="Trazado_27887" data-name="Trazado 27887" d="M482.615,462.734v-9.94h-19.88v9.94c0,.235.016.463.031.691s.047.455.079.675h-11.2l6.854-32.937h29.647L495,464.1H482.513c.031-.22.055-.448.071-.675A6.634,6.634,0,0,0,482.615,462.734Z" transform="translate(495.813 51.2)" fill="#4469a0"/>
    <rect id="Rectángulo_5887" data-name="Rectángulo 5887" width="281.054" height="179.041" rx="16" transform="translate(828.607 324.955)" fill="#4d76b8"/>
    <rect id="Rectángulo_5888" data-name="Rectángulo 5888" width="256.303" height="155.447" rx="7" transform="translate(840.983 336.752)" fill="#fff"/>
    <path id="Trazado_27888" data-name="Trazado 27888" d="M567.838,245.706H320.531a4.5,4.5,0,0,0-4.5,4.5v7.531h256.3V250.2a4.5,4.5,0,0,0-4.5-4.5Z" transform="translate(524.949 91.047)" fill="#a9c0ff"/>
    <rect id="Rectángulo_5889" data-name="Rectángulo 5889" width="98.74" height="134.919" rx="4" transform="translate(772.76 269.155)" fill="#6299e8" opacity="0.28"/>
    <rect id="Rectángulo_5890" data-name="Rectángulo 5890" width="98.74" height="134.919" rx="4" transform="translate(761.901 257.496)" fill="#fff"/>
    <rect id="Rectángulo_5891" data-name="Rectángulo 5891" width="40.324" height="2.355" transform="translate(782.441 374.371)" fill="#4d76b8"/>
    <rect id="Rectángulo_5892" data-name="Rectángulo 5892" width="63.879" height="2.355" transform="translate(782.441 364.481)" fill="#4d76b8"/>
    <rect id="Rectángulo_5893" data-name="Rectángulo 5893" width="40.324" height="2.355" transform="translate(782.441 352.042)" fill="#4d76b8"/>
    <rect id="Rectángulo_5894" data-name="Rectángulo 5894" width="63.879" height="2.355" transform="translate(782.441 342.15)" fill="#4d76b8"/>
    <rect id="Rectángulo_5895" data-name="Rectángulo 5895" width="63.879" height="2.355" transform="translate(782.441 332.257)" fill="#4d76b8"/>
    <path id="Trazado_27889" data-name="Trazado 27889" d="M310.588,280.535H218.13a4.323,4.323,0,0,1-4.318-4.318V147.579a4.323,4.323,0,0,1,4.318-4.318h92.459a4.323,4.323,0,0,1,4.318,4.318V276.217A4.323,4.323,0,0,1,310.588,280.535ZM218.13,145.616a1.965,1.965,0,0,0-1.963,1.963V276.217a1.965,1.965,0,0,0,1.963,1.963h92.459a1.965,1.965,0,0,0,1.963-1.963V147.579a1.965,1.965,0,0,0-1.963-1.963Z" transform="translate(546.912 113.058)" fill="#4d76b8"/>
    <path id="Trazado_27890" data-name="Trazado 27890" d="M230.344,259.294h-4.789a1.965,1.965,0,0,1-1.963-1.963v-4.789a1.965,1.965,0,0,1,1.963-1.963h4.789a1.965,1.965,0,0,1,1.963,1.963v4.789A1.965,1.965,0,0,1,230.344,259.294Zm-4.4-2.356h4v-4h-4Zm4.4-29.867h-4.789a1.965,1.965,0,0,1-1.963-1.963V220.32a1.965,1.965,0,0,1,1.963-1.963h4.789a1.965,1.965,0,0,1,1.963,1.963v4.789A1.965,1.965,0,0,1,230.344,227.072Zm-4.4-2.355h4v-4h-4Zm-.5-64.011a.785.785,0,0,1-.555-1.34l5-5a.785.785,0,0,1,1.11,1.11l-5,5A.783.783,0,0,1,225.45,160.705Z" transform="translate(544.811 110.721)" fill="#4d76b8"/>
    <path id="Trazado_27891" data-name="Trazado 27891" d="M230.741,160.705a.782.782,0,0,1-.555-.23l-5-5a.785.785,0,0,1,1.11-1.11l5,5a.785.785,0,0,1-.555,1.34Z" transform="translate(544.517 110.721)" fill="#4d76b8"/>
    <rect id="Rectángulo_5896" data-name="Rectángulo 5896" width="63.879" height="39.006" rx="3" transform="translate(779.331 278.831)" fill="#a9c0ff"/>
    <rect id="Rectángulo_5897" data-name="Rectángulo 5897" width="2.355" height="59.991" transform="matrix(0.455, -0.89, 0.89, 0.455, 783.836, 286.282)" fill="#4d76b8"/>
    <rect id="Rectángulo_5898" data-name="Rectángulo 5898" width="59.991" height="2.355" transform="matrix(0.89, -0.455, 0.455, 0.89, 783.836, 311.48)" fill="#4d76b8"/>
    <path id="Trazado_27892" data-name="Trazado 27892" d="M500.449,515.516H442.081l2.693-12.923h52.982Z" transform="translate(497.867 35.853)" fill="#456ba3"/>
    <path id="Trazado_27893" data-name="Trazado 27893" d="M511.691,523.748H422.373v-9a3.926,3.926,0,0,1,3.926-3.926h81.467a3.926,3.926,0,0,1,3.926,3.926Z" transform="translate(502.102 34.085)" fill="#4d76b8"/>
    <rect id="Rectángulo_5899" data-name="Rectángulo 5899" width="11.849" height="104.423" rx="2" transform="translate(1045.131 453.411)" fill="#4d76b8"/>
    <rect id="Rectángulo_5900" data-name="Rectángulo 5900" width="11.849" height="104.423" rx="2" transform="translate(1205.839 453.411)" fill="#4d76b8"/>
    <path id="Trazado_27895" data-name="Trazado 27895" d="M758.018,408.777v35.836a4.113,4.113,0,0,1-4.114,4.114H563.654a4.113,4.113,0,0,1-4.114-4.114V408.777a4.113,4.113,0,0,1,4.114-4.114H753.9a4.2,4.2,0,0,1,1.2.175.366.366,0,0,0,.113.041A4.114,4.114,0,0,1,758.018,408.777Z" transform="translate(472.631 56.894)" fill="#a9c0ff"/>
    <path id="Trazado_27896" data-name="Trazado 27896" d="M582.446,404.663l-15.11,44.065h-3.682a4.113,4.113,0,0,1-4.114-4.114V408.777a4.113,4.113,0,0,1,4.114-4.114Z" transform="translate(472.631 56.894)" fill="#a9c0ff"/>
    <path id="Trazado_27897" data-name="Trazado 27897" d="M609.284,404.663l-15.11,44.065H569.365l15.11-44.065Z" transform="translate(470.52 56.894)" fill="#92b1ef"/>
    <path id="Trazado_27898" data-name="Trazado 27898" d="M640.726,404.663l-15.11,44.065H600.807l15.11-44.065Z" transform="translate(463.764 56.894)" fill="#a9c0ff"/>
    <path id="Trazado_27899" data-name="Trazado 27899" d="M672.168,404.663l-15.11,44.065H632.249l15.109-44.065Z" transform="translate(457.009 56.894)" fill="#92b1ef"/>
    <path id="Trazado_27900" data-name="Trazado 27900" d="M703.61,404.663,688.5,448.728H663.69l15.11-44.065Z" transform="translate(450.254 56.894)" fill="#a9c0ff"/>
    <path id="Trazado_27901" data-name="Trazado 27901" d="M735.052,404.663l-15.11,44.065h-24.81l15.11-44.065Z" transform="translate(443.498 56.894)" fill="#92b1ef"/>
    <path id="Trazado_27902" data-name="Trazado 27902" d="M766.493,404.663l-15.11,44.065H726.574l15.11-44.065Z" transform="translate(436.743 56.894)" fill="#a9c0ff"/>
    <path id="Trazado_27903" data-name="Trazado 27903" d="M797.863,404.879l-15.038,43.849H758.016l15.11-44.065h23.421a4.2,4.2,0,0,1,1.2.175A.364.364,0,0,0,797.863,404.879Z" transform="translate(429.987 56.894)" fill="#92b1ef"/>
    <path id="Trazado_27904" data-name="Trazado 27904" d="M736.912,348.85v35.836A4.113,4.113,0,0,1,732.8,388.8H718.952L734,344.911a.366.366,0,0,0,.113.041A4.114,4.114,0,0,1,736.912,348.85ZM507.679,174.094h-44.4a1.973,1.973,0,0,1-1.765-2.855l22.2-44.4a1.973,1.973,0,0,1,3.529,0l22.2,44.4a1.973,1.973,0,0,1-1.765,2.855Z" transform="translate(493.737 116.821)" fill="#a9c0ff"/>
    <path id="Trazado_27905" data-name="Trazado 27905" d="M473.321,157.754H502.8l-4.439-8.878h-20.6Z" transform="translate(491.156 111.852)" fill="#4d76b8"/>
    <path id="Trazado_27906" data-name="Trazado 27906" d="M461.535,181.359a1.936,1.936,0,0,0-.128.369h48.186a1.947,1.947,0,0,0-.128-.369l-4.254-8.509H465.79Z" transform="translate(493.715 106.701)" fill="#92b1ef"/>
    <rect id="Rectángulo_5901" data-name="Rectángulo 5901" width="56.53" height="8.878" rx="1" transform="translate(950.95 285.234)" fill="#a9c0ff"/>
    <path id="Trazado_27907" data-name="Trazado 27907" d="M479.063,195.5a43.963,43.963,0,1,1,43.964-43.963A43.963,43.963,0,0,1,479.063,195.5Zm0-85.571a41.608,41.608,0,1,0,41.608,41.608,41.608,41.608,0,0,0-41.608-41.608Z" transform="translate(499.367 120.725)" fill="#4d76b8"/>
    <rect id="Rectángulo_5902" data-name="Rectángulo 5902" width="569.639" height="7.066" transform="translate(694.991 557.833)" fill="#456ba3"/>
    <rect id="Rectángulo_5903" data-name="Rectángulo 5903" width="147.315" height="96.178" rx="10.026" transform="translate(1070.331 291.412)" fill="#6299e8" opacity="0.28"/>
    <rect id="Rectángulo_5904" data-name="Rectángulo 5904" width="147.315" height="96.178" rx="10.026" transform="translate(1084.844 279.281)" fill="#fff"/>
    <path id="Trazado_27912" data-name="Trazado 27912" d="M765.748,269.538H634.177a9.06,9.06,0,0,1-9.05-9.049V180.055a9.06,9.06,0,0,1,9.05-9.05H765.748a9.06,9.06,0,0,1,9.05,9.05v80.433A9.06,9.06,0,0,1,765.748,269.538ZM634.177,173.361a6.7,6.7,0,0,0-6.695,6.694v80.433a6.7,6.7,0,0,0,6.694,6.694H765.748a6.7,6.7,0,0,0,6.694-6.694V180.055a6.7,6.7,0,0,0-6.694-6.694Z" transform="translate(458.539 107.097)" fill="#4d76b8"/>
    <rect id="Rectángulo_5905" data-name="Rectángulo 5905" width="47.698" height="2.355" transform="translate(1170.195 315.144)" fill="#4d76b8"/>
    <rect id="Rectángulo_5906" data-name="Rectángulo 5906" width="47.698" height="2.355" transform="translate(1170.195 326.874)" fill="#4d76b8"/>
    <rect id="Rectángulo_5907" data-name="Rectángulo 5907" width="47.698" height="2.355" transform="translate(1170.195 338.604)" fill="#4d76b8"/>
    <rect id="Rectángulo_5908" data-name="Rectángulo 5908" width="118.361" height="2.355" transform="translate(1099.532 350.701)" fill="#4d76b8"/>
    <rect id="Rectángulo_5909" data-name="Rectángulo 5909" width="118.361" height="2.355" transform="translate(1099.532 361.439)" fill="#4d76b8"/>
    <rect id="Rectángulo_5910" data-name="Rectángulo 5910" width="53.157" height="34.468" rx="3" transform="translate(1101.421 312.215)" fill="#aaa" opacity="0.19"/>
    <rect id="Rectángulo_5911" data-name="Rectángulo 5911" width="147.316" height="2.355" transform="translate(1084.844 298.137)" fill="#4d76b8"/>
    <rect id="Rectángulo_5912" data-name="Rectángulo 5912" width="53.157" height="34.468" rx="3" transform="translate(1158.503 342.937) rotate(180)" fill="#92b1ef"/>
    <rect id="Rectángulo_5913" data-name="Rectángulo 5913" width="2.355" height="50.735" transform="matrix(0.485, -0.875, 0.875, 0.485, 1109.068, 314.119)" fill="#4d76b8"/>
    <rect id="Rectángulo_5914" data-name="Rectángulo 5914" width="2.355" height="50.735" transform="matrix(0.485, -0.875, 0.875, 0.485, 1109.068, 314.119)" fill="#4d76b8"/>
    <rect id="Rectángulo_5915" data-name="Rectángulo 5915" width="50.735" height="2.355" transform="translate(1109.062 336.643) rotate(-28.977)" fill="#4d76b8"/>
    <rect id="Rectángulo_5916" data-name="Rectángulo 5916" width="96.924" height="42.53" rx="3" transform="translate(785.895 433.724)" fill="#6299e8" opacity="0.28"/>
    <rect id="Rectángulo_5917" data-name="Rectángulo 5917" width="96.924" height="42.53" rx="3" transform="translate(777.653 425.283)" fill="#fff"/>
    <path id="Trazado_27913" data-name="Trazado 27913" d="M329.62,401.848H237.406a3.537,3.537,0,0,1-3.533-3.533V360.5a3.537,3.537,0,0,1,3.533-3.533H329.62a3.537,3.537,0,0,1,3.533,3.533v37.819A3.537,3.537,0,0,1,329.62,401.848Zm-92.214-42.53a1.179,1.179,0,0,0-1.178,1.178v37.819a1.179,1.179,0,0,0,1.178,1.178H329.62a1.179,1.179,0,0,0,1.178-1.178V360.5a1.179,1.179,0,0,0-1.178-1.178Z" transform="translate(542.602 67.143)" fill="#4d76b8"/>
    <path id="Trazado_27914" data-name="Trazado 27914" d="M254.257,381.03a5.509,5.509,0,1,1,5.509-5.509A5.51,5.51,0,0,1,254.257,381.03Zm0-8.663a3.154,3.154,0,1,0,3.154,3.154,3.154,3.154,0,0,0-3.154-3.154Zm0,23.22a5.509,5.509,0,1,1,5.509-5.509A5.51,5.51,0,0,1,254.257,395.586Zm0-8.663a3.154,3.154,0,1,0,3.154,3.154A3.154,3.154,0,0,0,254.257,386.923Z" transform="translate(539.406 64.34)" fill="#4d76b8"/>
    <rect id="Rectángulo_5918" data-name="Rectángulo 5918" width="60.064" height="2.355" transform="translate(804.325 438.682)" fill="#4d76b8"/>
    <rect id="Rectángulo_5919" data-name="Rectángulo 5919" width="60.064" height="2.355" transform="translate(804.325 453.237)" fill="#4d76b8"/>
    <rect id="Rectángulo_5920" data-name="Rectángulo 5920" width="106.824" height="65.82" rx="4" transform="translate(912.931 386.6)" fill="#d9ebff"/>
    <path id="Trazado_27915" data-name="Trazado 27915" d="M435.7,333.969a14.181,14.181,0,0,1,1.987-.457,12.785,12.785,0,0,1,2.033-.182,9.855,9.855,0,0,1,2.033.205,5.4,5.4,0,0,1,1.757.685,3.487,3.487,0,0,1,1.234,1.3,4.2,4.2,0,0,1,.457,2.055v12.151h4.065a8.532,8.532,0,0,1,.549,1.325,5.463,5.463,0,0,1,.273,1.736,3.282,3.282,0,0,1-.776,2.467,2.753,2.753,0,0,1-1.964.732H445.2v5.39c-.336.061-.839.144-1.507.252a12.337,12.337,0,0,1-1.92.16A15.279,15.279,0,0,1,440,361.7a2.991,2.991,0,0,1-1.3-.434,2.129,2.129,0,0,1-.8-.981,4.5,4.5,0,0,1-.274-1.736v-2.558H426.153a5.074,5.074,0,0,1-1.8-1.622,4.458,4.458,0,0,1-.753-2.627,9.03,9.03,0,0,1,.228-1.918,4.959,4.959,0,0,1,.776-1.828Zm2.331,7.172h-.138l-6.076,8.588h6.214Zm38.829,6.395a19.774,19.774,0,0,1-.914,6.26,13.215,13.215,0,0,1-2.535,4.591,10.614,10.614,0,0,1-3.883,2.809,13.179,13.179,0,0,1-9.868,0,10.616,10.616,0,0,1-3.883-2.809,12.963,12.963,0,0,1-2.513-4.591,20.244,20.244,0,0,1-.891-6.26,20.019,20.019,0,0,1,.891-6.235,12.974,12.974,0,0,1,2.513-4.568,10.616,10.616,0,0,1,3.883-2.809,13.16,13.16,0,0,1,9.868,0,10.615,10.615,0,0,1,3.883,2.809,13.228,13.228,0,0,1,2.535,4.568,19.557,19.557,0,0,1,.914,6.235Zm-7.812,0a13.449,13.449,0,0,0-1.165-6.212,3.617,3.617,0,0,0-3.312-2.193,3.529,3.529,0,0,0-3.266,2.193,13.949,13.949,0,0,0-1.118,6.212,14.109,14.109,0,0,0,1.118,6.237,3.528,3.528,0,0,0,3.266,2.216,3.616,3.616,0,0,0,3.312-2.216A13.6,13.6,0,0,0,469.049,347.536Zm22.7-13.567a14.179,14.179,0,0,1,1.987-.457,12.769,12.769,0,0,1,2.032-.182,9.831,9.831,0,0,1,2.033.206,5.413,5.413,0,0,1,1.759.685,3.484,3.484,0,0,1,1.233,1.3,4.178,4.178,0,0,1,.457,2.055v12.151h4.067a8.4,8.4,0,0,1,.547,1.325,5.465,5.465,0,0,1,.274,1.736,3.277,3.277,0,0,1-.777,2.467,2.751,2.751,0,0,1-1.964.732h-2.147v5.39c-.336.061-.837.144-1.507.252a12.324,12.324,0,0,1-1.918.159,15.326,15.326,0,0,1-1.782-.092,2.992,2.992,0,0,1-1.3-.434,2.136,2.136,0,0,1-.8-.981,4.5,4.5,0,0,1-.274-1.736v-2.558H482.2a5.074,5.074,0,0,1-1.8-1.622,4.448,4.448,0,0,1-.755-2.627,9.137,9.137,0,0,1,.229-1.918,4.935,4.935,0,0,1,.777-1.828Zm2.329,7.172h-.136l-6.076,8.588h6.212Z" transform="translate(501.84 72.3)" fill="#4d76b8"/>
  </g>
</svg>
