<svg xmlns="http://www.w3.org/2000/svg" width="225.471" height="147.371" viewBox="0 0 225.471 147.371">
  <g id="Pantalla_de_bloqueo_no_existe" data-name="Pantalla de bloqueo no existe" transform="translate(-6226.4 20754.367)">
    <circle id="Elipse_16979" data-name="Elipse 16979" cx="15.256" cy="15.256" r="15.256" transform="translate(6236.583 -20754.367)" fill="#a9c0ff"/>
    <path id="Trazado_27966" data-name="Trazado 27966" d="M484.268,139.141v-3.172a2.408,2.408,0,0,1,2.431-2.408h.265a2.407,2.407,0,0,1,2.431,2.408v1.069a.274.274,0,0,0,.27.272l1.28.006a.272.272,0,0,0,.273-.272v-.9a4.189,4.189,0,0,0-4.195-4.19h-.383a4.189,4.189,0,0,0-4.193,4.19v3.08Zm0,0" transform="translate(5765.007 -20879.582)" fill="#92b1ef"/>
    <path id="Trazado_27967" data-name="Trazado 27967" d="M488.63,160.6a1.212,1.212,0,0,0,1.209-1.209V152.52a1.212,1.212,0,0,0-1.209-1.209h-9.982a1.212,1.212,0,0,0-1.209,1.209V159.4a1.212,1.212,0,0,0,1.209,1.209Zm0,0" transform="translate(5768.2 -20891.924)" fill="#4d76b8"/>
    <path id="Trazado_27968" data-name="Trazado 27968" d="M492.269,157.819a1.3,1.3,0,0,0-1.3,1.3,1.275,1.275,0,0,0,.527.994v1.52a.769.769,0,1,0,1.537,0v-1.52a1.279,1.279,0,0,0,.527-.994A1.3,1.3,0,0,0,492.269,157.819Zm0,0" transform="translate(5759.569 -20896.074)" fill="#a9c0ff"/>
    <path id="Trazado_27969" data-name="Trazado 27969" d="M443.828,410.972V445.8h28.179V410.972Zm18.38,14.572a4.588,4.588,0,1,1-9.176,0v-4.588h9.176Z" transform="translate(5870.985 -21056.063)" fill="#4d76b8"/>
    <path id="Trazado_27970" data-name="Trazado 27970" d="M443.828,426.175h9.253a4.609,4.609,0,0,1-.048-.631v-4.588h9.176v4.588a4.606,4.606,0,0,1-.048.631h9.847v-15.2H443.828Z" transform="translate(5870.985 -21056.063)" fill="#4469a0"/>
    <rect id="Rectángulo_6011" data-name="Rectángulo 6011" width="129.72" height="82.637" rx="9" transform="translate(6264.042 -20717.742)" fill="#4d76b8"/>
    <rect id="Rectángulo_6012" data-name="Rectángulo 6012" width="118.297" height="71.747" rx="7" transform="translate(6269.754 -20712.297)" fill="#fff"/>
    <path id="Trazado_27971" data-name="Trazado 27971" d="M435.708,225.513H321.564a2.076,2.076,0,0,0-2.076,2.076v3.476h118.3v-3.476A2.076,2.076,0,0,0,435.708,225.513Z" transform="translate(5950.267 -20937.811)" fill="#a9c0ff"/>
    <rect id="Rectángulo_6015" data-name="Rectángulo 6015" width="70.949" height="1.087" transform="translate(6293.428 -20669.436)" fill="#456ba3"/>
    <rect id="Rectángulo_6016" data-name="Rectángulo 6016" width="70.949" height="1.087" transform="translate(6293.428 -20661.102)" fill="#456ba3"/>
    <rect id="Rectángulo_6017" data-name="Rectángulo 6017" width="70.949" height="1.087" transform="translate(6293.428 -20652.766)" fill="#456ba3"/>
    <rect id="Rectángulo_6018" data-name="Rectángulo 6018" width="70.11" height="1.087" transform="translate(6293.791 -20694.441)" fill="#456ba3"/>
    <rect id="Rectángulo_6019" data-name="Rectángulo 6019" width="70.11" height="1.087" transform="translate(6293.791 -20686.105)" fill="#456ba3"/>
    <rect id="Rectángulo_6020" data-name="Rectángulo 6020" width="70.11" height="1.087" transform="translate(6293.791 -20677.773)" fill="#456ba3"/>
    <rect id="Rectángulo_6021" data-name="Rectángulo 6021" width="45.724" height="29.852" rx="10.026" transform="translate(6378.012 -20739.373)" fill="#6299e8" opacity="0.28"/>
    <rect id="Rectángulo_6022" data-name="Rectángulo 6022" width="45.724" height="29.852" rx="10.026" transform="translate(6382.517 -20743.141)" fill="#fff"/>
    <path id="Trazado_27972" data-name="Trazado 27972" d="M644.859,147.144H604.021a2.812,2.812,0,0,1-2.809-2.809V119.369a2.812,2.812,0,0,1,2.809-2.809h40.838a2.812,2.812,0,0,1,2.809,2.809v24.965A2.812,2.812,0,0,1,644.859,147.144Zm-40.838-29.852a2.08,2.08,0,0,0-2.078,2.078v24.965a2.08,2.08,0,0,0,2.078,2.078h40.838a2.08,2.08,0,0,0,2.078-2.078V119.369a2.08,2.08,0,0,0-2.078-2.078Z" transform="translate(5780.939 -20860.064)" fill="#4d76b8"/>
    <rect id="Rectángulo_6029" data-name="Rectángulo 6029" width="45.725" height="5.804" transform="translate(6382.517 -20737.285)" fill="#4d76b8"/>
    <path id="Trazado_27973" data-name="Trazado 27973" d="M681.5,285.207a60.144,60.144,0,0,1-29.5-8.489,60.09,60.09,0,0,1-29.491,8.489c-2.072,22.124,4.623,48.745,29.491,58.636C676.882,333.953,683.552,307.331,681.5,285.207Z" transform="translate(5760.356 -20957.084)" fill="#4469a0"/>
    <path id="Trazado_27974" data-name="Trazado 27974" d="M694.109,310.619a48.543,48.543,0,0,1-23.808-6.852,48.5,48.5,0,0,1-23.8,6.852c-1.673,17.857,3.732,39.343,23.8,47.326C690.379,349.962,695.763,328.475,694.109,310.619Z" transform="translate(5742.061 -20977.66)" fill="#a9c0ff"/>
    <ellipse id="Elipse_16980" data-name="Elipse 16980" cx="2.278" cy="2.278" rx="2.278" ry="2.278" transform="translate(6410.083 -20639.924)" fill="#456ba3"/>
    <rect id="Rectángulo_6031" data-name="Rectángulo 6031" width="3.006" height="15.945" transform="translate(6410.859 -20659.949)" fill="#456ba3"/>
    <rect id="Rectángulo_6032" data-name="Rectángulo 6032" width="46.396" height="21.386" rx="2.522" transform="translate(6232.963 -20692.736)" fill="#6299e8" opacity="0.28"/>
    <rect id="Rectángulo_6033" data-name="Rectángulo 6033" width="46.396" height="21.386" rx="2.522" transform="translate(6226.944 -20698.367)" fill="#fff"/>
    <rect id="Rectángulo_6034" data-name="Rectángulo 6034" width="27.2" height="1.087" transform="translate(6240.12 -20693.275)" fill="#456ba3"/>
    <rect id="Rectángulo_6035" data-name="Rectángulo 6035" width="27.2" height="1.087" transform="translate(6240.12 -20688.219)" fill="#456ba3"/>
    <rect id="Rectángulo_6036" data-name="Rectángulo 6036" width="27.2" height="1.087" transform="translate(6240.12 -20683.158)" fill="#456ba3"/>
    <circle id="Elipse_16981" data-name="Elipse 16981" cx="1.81" cy="1.81" r="1.81" transform="translate(6232.963 -20694.543)" fill="#456ba3"/>
    <circle id="Elipse_16982" data-name="Elipse 16982" cx="1.81" cy="1.81" r="1.81" transform="translate(6232.963 -20689.484)" fill="#456ba3"/>
    <circle id="Elipse_16983" data-name="Elipse 16983" cx="1.81" cy="1.81" r="1.81" transform="translate(6232.963 -20684.426)" fill="#456ba3"/>
    <path id="Trazado_27975" data-name="Trazado 27975" d="M245.876,284.928H201.308a1.459,1.459,0,0,1-1.457-1.458V263.912a1.459,1.459,0,0,1,1.457-1.457h44.568a1.459,1.459,0,0,1,1.457,1.457V283.47A1.459,1.459,0,0,1,245.876,284.928Zm-44.568-21.386a.371.371,0,0,0-.37.37V283.47a.371.371,0,0,0,.37.37h44.568a.371.371,0,0,0,.37-.37V263.912a.371.371,0,0,0-.37-.37Z" transform="translate(6026.549 -20961.365)" fill="#4d76b8"/>
    <rect id="Rectángulo_6037" data-name="Rectángulo 6037" width="28.179" height="5.966" transform="translate(6314.813 -20619.207)" fill="#456ba3"/>
    <path id="Trazado_27976" data-name="Trazado 27976" d="M467.052,496.595H425.828v-4.154a1.812,1.812,0,0,1,1.812-1.812h37.6a1.812,1.812,0,0,1,1.812,1.812Z" transform="translate(5882.462 -21106.852)" fill="#4d76b8"/>
    <rect id="Rectángulo_6038" data-name="Rectángulo 6038" width="225.471" height="3.261" transform="translate(6226.4 -20610.258)" fill="#456ba3"/>
  </g>
</svg>
