<svg xmlns="http://www.w3.org/2000/svg" width="49" height="23" viewBox="0 0 49 23" fill="none">
<g clip-path="url(#clip0_10195_4535)">
<path d="M28.4877 0.254272L31.2264 5.10288H39.3539V23.9656L48.7304 7.72341H43.6328L48.1143 0.254272H28.4877Z" fill="white"/>
<path d="M39.0628 9.43663C39.0628 10.019 38.607 10.4789 38.0078 10.4789C37.4086 10.4789 36.9486 10.019 36.9486 9.43663C36.9486 8.85429 37.417 8.40698 38.0078 8.40698C38.5986 8.40698 39.0628 8.86273 39.0628 9.43663ZM37.2102 9.43663C37.2102 9.89237 37.5478 10.2595 38.012 10.2595C38.4762 10.2595 38.7969 9.89659 38.7969 9.44507C38.7969 8.99354 38.4635 8.61798 38.0078 8.61798C37.552 8.61798 37.2102 8.98932 37.2102 9.44085M37.8432 9.97677H37.6027V8.94712C37.6955 8.93024 37.8306 8.91759 37.9994 8.91759C38.1935 8.91759 38.2821 8.94712 38.358 8.99354C38.4129 9.03574 38.4593 9.12014 38.4593 9.21719C38.4593 9.33113 38.3707 9.41975 38.2483 9.45351V9.46617C38.3496 9.50414 38.4045 9.5801 38.4382 9.71514C38.4678 9.87127 38.4889 9.93457 38.5142 9.97255H38.2568C38.2272 9.93457 38.2061 9.84173 38.1766 9.72358C38.1597 9.60964 38.0964 9.559 37.9614 9.559H37.8474V9.97255L37.8432 9.97677ZM37.8517 9.39443H37.9656C38.0964 9.39443 38.2019 9.35223 38.2019 9.24251C38.2019 9.14968 38.1344 9.08638 37.9825 9.08638C37.9192 9.08638 37.877 9.09482 37.8517 9.09904V9.39443Z" fill="white"/>
<path d="M5.81031 9.55899C5.81031 9.62651 5.76811 9.66871 5.7006 9.66871H4.04219V14.3274C4.04219 14.3949 4 14.4371 3.93248 14.4371H2.79734C2.72982 14.4371 2.68762 14.3949 2.68762 14.3274V9.66871H1.025C0.957482 9.66871 0.915283 9.62651 0.915283 9.55899V8.5842C0.915283 8.51669 0.957482 8.47449 1.025 8.47449H5.7006C5.76811 8.47449 5.81031 8.51669 5.81031 8.5842V9.55899Z" fill="white"/>
<path d="M10.6083 14.3274C10.6083 14.3949 10.5661 14.4371 10.4985 14.4371H9.35917C9.29166 14.4371 9.25368 14.3949 9.25368 14.3274V11.9643H7.06357V14.3274C7.06357 14.3949 7.0256 14.4371 6.95386 14.4371H5.81028C5.74276 14.4371 5.70056 14.3949 5.70056 14.3274V8.5842C5.70056 8.51669 5.74276 8.47449 5.81028 8.47449H6.95386C7.02138 8.47449 7.06357 8.51669 7.06357 8.5842V10.7785H9.25368V8.5842C9.25368 8.51669 9.29588 8.47449 9.35917 8.47449H10.4985C10.5661 8.47449 10.6083 8.51669 10.6083 8.5842V14.3274Z" fill="white"/>
<path d="M15.9886 11.9727C15.9886 13.6058 15.1151 14.53 13.6086 14.53C12.1021 14.53 11.2202 13.6058 11.2202 11.9727V8.5842C11.2202 8.51669 11.2624 8.47449 11.3299 8.47449H12.4735C12.541 8.47449 12.5832 8.51669 12.5832 8.5842V11.9727C12.5832 12.8378 12.9587 13.3189 13.6086 13.3189C14.2584 13.3189 14.634 12.8378 14.634 11.9727V8.5842C14.634 8.51669 14.6762 8.47449 14.7437 8.47449H15.8789C15.9464 8.47449 15.9886 8.51669 15.9886 8.5842V11.9727Z" fill="white"/>
<path d="M21.5672 14.3275C21.5672 14.395 21.525 14.4372 21.4575 14.4372H19.9594C19.8919 14.4372 19.8581 14.4119 19.8328 14.3528C19.7062 14.0616 19.5459 13.7409 19.4108 13.4624L18.2166 11.0402C18.1069 10.8208 18.0141 10.6267 17.9128 10.4115C17.8453 10.2849 17.7609 10.3355 17.7693 10.4452C17.8453 10.9769 17.8622 11.3694 17.8622 11.977V14.3317C17.8622 14.3992 17.82 14.4414 17.7524 14.4414H16.6089C16.5413 14.4414 16.4991 14.3992 16.4991 14.3317V8.58848C16.4991 8.52096 16.5413 8.47876 16.6089 8.47876H18.1069C18.1744 8.47876 18.2082 8.50408 18.2335 8.56316C18.3685 8.85855 18.5247 9.17926 18.6639 9.45355L19.8666 11.8926C19.9679 12.1121 20.0607 12.3019 20.1704 12.5087C20.2253 12.6438 20.3181 12.5931 20.3012 12.475C20.2168 11.9559 20.2084 11.5677 20.2084 10.96V8.58848C20.2084 8.52096 20.2506 8.47876 20.3181 8.47876H21.4533C21.5208 8.47876 21.563 8.52096 21.563 8.58848V14.3317L21.5672 14.3275Z" fill="white"/>
<path d="M24.2679 8.47449C25.9474 8.47449 26.9602 9.63495 26.9602 11.4621C26.9602 13.2893 25.9179 14.4414 24.2679 14.4414H22.1833C22.1158 14.4414 22.0736 14.3992 22.0736 14.3316V8.58842C22.0736 8.52091 22.1158 8.47871 22.1833 8.47871H24.2679V8.47449ZM23.4366 13.2514H24.2679C25.0824 13.2514 25.5887 12.6057 25.5887 11.4579C25.5887 10.3101 25.0824 9.66449 24.2679 9.66449H23.4366V13.2471V13.2514Z" fill="white"/>
<path d="M30.5893 10.7785C30.6568 10.7785 30.699 10.8207 30.699 10.8882V11.8546C30.699 11.9221 30.6568 11.9643 30.5893 11.9643H28.5258V13.2514H31.2771C31.3447 13.2514 31.3869 13.2936 31.3869 13.3611V14.3274C31.3869 14.3949 31.3447 14.4371 31.2771 14.4371H27.2725C27.205 14.4371 27.1628 14.3949 27.1628 14.3274V8.5842C27.1628 8.51669 27.205 8.47449 27.2725 8.47449H31.3193C31.3953 8.47449 31.4291 8.52513 31.4122 8.60108L31.1421 9.57587C31.1252 9.63495 31.083 9.66871 31.0239 9.66871H28.5258V10.7785H30.5893Z" fill="white"/>
<path d="M34.0242 8.47449C35.3619 8.47449 36.1468 9.15388 36.1468 10.3017C36.1468 11.0697 35.6699 11.5803 35.1551 11.8082C35.037 11.8672 35.0454 11.9094 35.1467 11.9685C35.518 12.1922 35.729 12.5635 35.8767 12.8927L36.4633 14.3148C36.4886 14.3907 36.4548 14.4414 36.3789 14.4414H35.1678C35.1003 14.4414 35.0665 14.416 35.0412 14.357L34.6698 13.4581C34.366 12.7281 34.0959 12.323 33.1634 12.323H32.927V14.3316C32.927 14.3992 32.8848 14.4414 32.8173 14.4414H31.6737C31.6062 14.4414 31.564 14.3992 31.564 14.3316V8.58842C31.564 8.52091 31.6062 8.47871 31.6737 8.47871H34.02L34.0242 8.47449ZM33.8512 11.133C34.4799 11.133 34.7753 10.8967 34.7753 10.3987C34.7753 9.95144 34.4715 9.66871 34.0242 9.66871H32.9313V11.133H33.847H33.8512Z" fill="white"/>
<path d="M23.0231 20.0454V15.4415H24.7617C25.0655 15.4415 25.3018 15.4542 25.4621 15.4837C25.69 15.5217 25.8757 15.5934 26.0318 15.6989C26.188 15.8044 26.3061 15.9521 26.4032 16.142C26.496 16.3319 26.5424 16.5429 26.5424 16.7708C26.5424 17.1632 26.4158 17.4924 26.1669 17.7667C25.9179 18.0367 25.4664 18.1718 24.8165 18.1718H23.635V20.0454H23.0273H23.0231ZM23.6307 17.6274H24.8207C25.2132 17.6274 25.4959 17.5557 25.6605 17.408C25.8251 17.2603 25.9095 17.0535 25.9095 16.7877C25.9095 16.5935 25.8588 16.429 25.7618 16.2939C25.6647 16.1589 25.5339 16.0661 25.3778 16.0239C25.2765 15.9985 25.0866 15.9817 24.8081 15.9817H23.6307V17.6274Z" fill="white"/>
<path d="M26.4833 20.0454L28.2515 15.4415H28.9098L30.7918 20.0454H30.0998L29.5638 18.6528H27.6396L27.1332 20.0454H26.4876H26.4833ZM27.8126 18.1549H29.3739L28.8929 16.8805C28.7452 16.4923 28.6355 16.1758 28.5679 15.9268C28.5089 16.2222 28.4287 16.5134 28.319 16.8045L27.8126 18.1549Z" fill="white"/>
<path d="M32.2561 20.0454V18.0958L30.4796 15.4415H31.2222L32.1295 16.8299C32.2983 17.0915 32.4544 17.3489 32.5979 17.6105C32.7372 17.37 32.9017 17.0999 33.1001 16.7961L33.9905 15.4415H34.6994L32.8638 18.0958V20.0454H32.2561Z" fill="white"/>
</g>
<defs>
<clipPath id="clip0_10195_4535">
<rect width="47.8152" height="23.7114" fill="white" transform="translate(0.915283 0.254272)"/>
</clipPath>
</defs>
</svg>