<svg width="355" height="207" viewBox="0 0 355 207" fill="none" xmlns="http://www.w3.org/2000/svg">
<path d="M31.5224 182.152C48.3364 193.265 71.2414 199.441 98.6924 198.602C156.117 196.849 195.067 164.657 213.772 129.146C230.784 96.8531 231.049 61.8121 213.252 44.4161C175.873 7.89007 110.106 -20.6109 52.2594 30.7941C-14.7366 90.3291 -12.4206 153.107 31.5224 182.152Z" fill="#6B3374"/>
<path d="M202.671 178.627C205.219 177.227 225.235 131.162 226.606 127.49C226.606 127.49 240.829 130.916 252.819 108.039C264.809 85.1619 267.868 49.1989 250.739 45.8959C233.61 42.5929 220.274 63.6319 213.917 82.7169C207.56 101.802 208.006 117.217 214.999 121.488C214.999 121.488 195.077 166.388 193.239 172.5C192.652 174.5 201.375 179.337 202.671 178.627ZM231.589 68.4839C247.612 45.8579 255.863 63.6529 248.489 86.2759C242.21 105.537 227.989 121.697 220.275 115.242C215.576 111.301 215.576 91.0959 231.589 68.4839Z" fill="#DAC1E0"/>
<path d="M194.373 175.767C195.886 176.991 200.151 179.646 202.345 179.646C202.619 179.656 202.891 179.598 203.136 179.476C203.712 179.159 205.059 178.422 215.962 154.31C220.973 143.232 225.871 131.894 227.228 128.565C230.079 128.805 232.945 128.352 235.582 127.244C240.346 125.357 247.354 120.57 253.682 108.489C258.375 99.2691 261.504 89.3339 262.941 79.0888C264.423 68.3728 263.63 59.1269 260.706 53.0579C258.514 48.5079 255.225 45.7769 250.926 44.9479C242.853 43.3889 234.773 46.9619 227.564 55.2779C221.784 61.9459 216.613 71.5838 213.003 82.4118C206.657 101.447 207.003 116.731 213.794 121.844C211.112 127.895 194.044 166.487 192.319 172.235C192.022 173.247 192.69 174.404 194.373 175.767ZM215.885 121.894C215.981 121.68 215.995 121.438 215.926 121.214C215.856 120.99 215.707 120.799 215.507 120.677C208.938 116.656 208.669 101.525 214.836 83.0269C221.059 64.3589 234.147 43.6839 250.558 46.8489C254.221 47.5549 257.048 49.9268 258.958 53.8988C264.54 65.4908 261.401 89.5788 251.958 107.594C245.948 119.067 239.416 123.601 234.995 125.394C232.436 126.543 229.605 126.945 226.827 126.555C226.599 126.499 226.358 126.529 226.15 126.639C225.942 126.748 225.78 126.929 225.696 127.149C224.169 131.212 205.124 174.739 202.227 177.73C200.641 177.339 199.135 176.677 197.774 175.774C195.23 174.245 194.274 173.092 194.18 172.734C196.092 166.533 215.687 122.337 215.885 121.89V121.894Z" fill="#18284D"/>
<path d="M219.657 115.985C220.933 117.073 222.557 117.665 224.233 117.653C225.059 117.648 225.88 117.527 226.672 117.293C234.677 114.993 244.454 101.786 249.421 86.565C253.856 72.955 252.873 60.519 247.136 57.637C244.641 56.385 239.204 56.0539 230.809 67.9229C221.709 80.7809 218.394 91.765 217.221 98.711C215.843 106.807 216.802 113.586 219.657 115.985ZM232.38 69.0319C237.005 62.5039 241.306 58.965 244.518 58.965C245.122 58.9591 245.719 59.0961 246.259 59.3649C250.384 61.4359 252.059 72.195 247.573 85.965C242.873 100.389 233.459 113.332 226.14 115.439C225.261 115.751 224.315 115.829 223.397 115.665C222.478 115.502 221.618 115.102 220.9 114.505C217.014 111.242 216.233 91.8439 232.385 69.0319H232.38Z" fill="#18284D"/>
<path d="M77.7394 102.195C76.6894 105.963 75.6394 109.91 74.6044 113.983C74.6044 113.983 60.7754 109.841 44.2814 147.596C40.4594 156.345 35.6814 167.019 31.5144 182.152C48.3284 193.265 71.2334 199.441 98.6844 198.602C156.109 196.849 195.059 164.657 213.764 129.146C212.133 128.742 210.462 128.523 208.781 128.493C203.891 128.645 196.246 131.856 180.535 139.193C180.07 138.378 179.679 137.933 179.39 137.974C177.772 138.22 170.174 141.874 164.714 143.355C163.338 143.804 161.892 144 160.445 143.933C147.737 142.242 145.368 147.033 141.455 149.638C139.928 150.657 137.103 152.32 133.95 154.263L133.92 154.21C133.92 154.21 123.794 135.39 124.296 130.597C124.662 127.074 125.113 123.509 125.623 119.972C127.99 104.227 131.179 88.6169 135.175 73.205C135.175 73.205 157.132 82.566 158.575 80.631C159.564 79.322 150.995 65.473 140.916 53.964C137.374 52.9992 134.337 50.7115 132.432 47.573C127.36 39.417 119.394 40.606 119.394 40.606C118.876 48.079 107.13 53.193 102.778 53.193C102.157 54.408 97.8094 57.966 96.3974 57.118C94.9854 56.27 97.1884 53.557 96.3974 52.938C95.2777 52.2734 94.4457 51.2157 94.0634 49.971C87.0054 45.71 80.1374 46.683 78.9104 51.391C77.9104 55.244 82.1054 59.157 88.8014 60.597C89.5554 60.7603 90.3394 60.8937 91.1534 60.997C91.1534 60.997 89.3854 65.523 86.7464 73.226C84.2544 80.437 81.0054 90.481 77.7394 102.195Z" fill="white"/>
<path d="M233.599 138.708C229.338 133.029 213.669 128.344 208.781 128.499C203.893 128.654 196.245 131.862 180.535 139.199L188.123 163.399C195.123 166.055 204.676 169.029 210.353 169.099C216.204 169.17 220.796 168.136 220.786 162.043C225.093 161.604 226.671 157.889 224.386 155.12L224.422 154.95C230.908 156.335 231.909 148.934 228.734 146.308C232.859 147.465 237.686 144.15 233.599 138.708Z" fill="white"/>
<path d="M119.915 59.3481L121.035 56.5791C121.141 56.2928 121.13 55.9767 121.006 55.698C120.882 55.4192 120.655 55.1997 120.372 55.086C120.089 54.9723 119.772 54.9734 119.49 55.0889C119.208 55.2045 118.981 55.4255 118.859 55.7051L117.741 58.4741C117.636 58.7604 117.647 59.0765 117.771 59.3552C117.895 59.634 118.122 59.8535 118.405 59.9672C118.688 60.0809 119.005 60.0799 119.287 59.9643C119.569 59.8487 119.795 59.6277 119.917 59.3481H119.915Z" fill="#18284D"/>
<path d="M73.8814 112.897C70.2934 112.636 57.7374 114.377 43.3904 147.214L42.8704 148.401C37.6344 160.369 30.4704 176.76 25.8204 203.227C25.7761 203.48 25.8341 203.74 25.9816 203.95C26.1291 204.16 26.354 204.303 26.6069 204.347C26.8598 204.392 27.1199 204.334 27.3301 204.186C27.5402 204.039 27.6831 203.814 27.7274 203.561C32.3274 177.323 39.4474 161.055 44.6424 149.176L45.1644 147.989C53.4724 128.953 61.0274 120.97 65.8974 117.621C71.0504 114.078 74.2974 114.911 74.3224 114.921C74.4476 114.959 74.5792 114.971 74.7092 114.956C74.8391 114.942 74.9648 114.901 75.0786 114.836C75.1923 114.772 75.2918 114.685 75.371 114.581C75.4502 114.477 75.5075 114.358 75.5394 114.231C79.8064 97.3399 84.4784 82.7789 87.6474 73.5309C90.2474 65.9409 92.0254 61.3869 92.0474 61.3439C92.1014 61.206 92.1229 61.0575 92.1104 60.9099C92.0979 60.7623 92.0516 60.6195 91.9752 60.4927C91.8988 60.3658 91.7942 60.2582 91.6695 60.1782C91.5449 60.0981 91.4036 60.0477 91.2564 60.0309C90.4654 59.9379 89.7134 59.8109 88.9934 59.6569C84.9794 58.7919 81.7694 56.9569 80.4044 54.7389C80.0997 54.29 79.8923 53.7823 79.7955 53.2484C79.6987 52.7145 79.7147 52.1662 79.8424 51.6389C80.0223 50.9628 80.3666 50.3417 80.8447 49.8308C81.3227 49.3199 81.9197 48.9352 82.5824 48.7109C85.6034 47.5439 90.0694 48.5109 94.2394 51.2309C94.3457 51.3056 94.4659 51.3581 94.5929 51.3854C94.7199 51.4126 94.8511 51.414 94.9787 51.3895C95.1062 51.365 95.2275 51.315 95.3354 51.2427C95.4432 51.1703 95.5354 51.0769 95.6065 50.9682C95.6775 50.8594 95.7259 50.7375 95.7488 50.6097C95.7717 50.4818 95.7687 50.3507 95.7398 50.224C95.711 50.0974 95.657 49.9778 95.581 49.8725C95.505 49.7672 95.4085 49.6782 95.2974 49.6109C90.6154 46.5529 85.4764 45.5159 81.8834 46.9049C80.9348 47.2412 80.0825 47.8038 79.4003 48.5439C78.7181 49.2839 78.2266 50.1791 77.9684 51.1519C77.7758 51.9317 77.7466 52.743 77.8828 53.5347C78.0189 54.3263 78.3174 55.0812 78.7594 55.7519C80.4194 58.4459 84.0014 60.5589 88.5884 61.5459C88.9838 61.6306 89.3901 61.7069 89.8074 61.7749C89.1224 63.5849 87.6804 67.4749 85.8214 72.8979C82.6944 82.0149 78.1074 96.3029 73.8814 112.897Z" fill="#18284D"/>
<path d="M103 137.5L100.5 128.5L108.5 125L110.5 127.5L113.5 134.5L109 137.5L111 168L108.5 168.5L104.5 171.5L102.5 178.5L98.5 179.5L95 180L98.5 157L103 137.5Z" fill="#DAC1E0"/>
<path d="M85.8693 54.165C87.8096 54.1615 89.6896 54.8392 91.1813 56.08C91.2536 56.1878 91.3467 56.2802 91.4552 56.3514C91.5637 56.4227 91.6854 56.4715 91.8131 56.4949C91.9408 56.5183 92.0719 56.5159 92.1986 56.4878C92.3253 56.4596 92.4452 56.4064 92.551 56.3311C92.6568 56.2559 92.7464 56.1602 92.8146 56.0497C92.8828 55.9393 92.9281 55.8162 92.9479 55.6879C92.9677 55.5596 92.9616 55.4287 92.9299 55.3028C92.8982 55.1769 92.8416 55.0586 92.7634 54.955C92.0634 53.966 89.1633 52.229 85.8773 52.229H85.8344C85.5829 52.237 85.3444 52.3426 85.1694 52.5234C84.9943 52.7041 84.8965 52.9459 84.8965 53.1975C84.8965 53.4491 84.9943 53.6908 85.1694 53.8715C85.3444 54.0523 85.5829 54.1579 85.8344 54.1659L85.8693 54.165ZM134.745 72.34C134.621 72.4004 134.51 72.487 134.422 72.5938C134.334 72.7006 134.269 72.8251 134.233 72.959C134.154 73.259 126.154 103.327 123.333 130.501C122.819 135.446 132.027 152.719 133.079 154.672C133.135 154.791 133.215 154.897 133.313 154.984C133.412 155.072 133.527 155.138 133.652 155.179C133.776 155.22 133.908 155.236 134.039 155.224C134.17 155.213 134.298 155.174 134.413 155.112C134.529 155.05 134.631 154.964 134.712 154.861C134.794 154.758 134.854 154.64 134.888 154.513C134.922 154.386 134.93 154.253 134.912 154.123C134.893 153.993 134.848 153.868 134.779 153.756C132.01 148.593 124.87 134.39 125.254 130.701C127.763 106.568 134.377 80.1339 135.823 74.5359C137.686 75.3149 141.809 77.009 145.989 78.556C157.089 82.665 158.637 82.156 159.345 81.217C159.478 81.0077 159.565 80.7731 159.601 80.5283C159.638 80.2835 159.623 80.0337 159.557 79.795C158.592 74.907 140.567 48.082 126.625 39.779C126.516 39.7088 126.394 39.6613 126.266 39.6394C126.138 39.6174 126.006 39.6215 125.88 39.6514C125.754 39.6812 125.634 39.7362 125.53 39.813C125.425 39.8899 125.337 39.9871 125.27 40.0987C125.204 40.2104 125.161 40.3342 125.143 40.463C125.126 40.5917 125.134 40.7226 125.168 40.848C125.203 40.9733 125.262 41.0905 125.342 41.1926C125.422 41.2946 125.522 41.3794 125.636 41.4419C131.458 44.9099 139.2 52.718 146.871 62.842C153.547 71.657 157.112 78.109 157.616 79.965C155.104 80.001 144.56 76.1769 135.548 72.3329C135.422 72.2757 135.286 72.2464 135.147 72.2467C135.009 72.247 134.872 72.2771 134.746 72.335L134.745 72.34Z" fill="#18284D"/>
<path d="M77.0325 102.858C81.5665 107.685 89.4015 112.452 98.5325 115.939C106.415 119.083 114.794 120.798 123.278 121.003C124.091 121.003 124.891 120.982 125.678 120.94C125.93 120.922 126.166 120.805 126.334 120.615C126.502 120.425 126.588 120.177 126.575 119.924C126.562 119.67 126.45 119.432 126.264 119.261C126.077 119.089 125.831 118.997 125.577 119.005C108.858 119.915 86.9205 110.533 78.4545 101.532C78.2765 101.355 78.0367 101.254 77.7857 101.251C77.5347 101.247 77.2922 101.341 77.1093 101.513C76.9263 101.685 76.8174 101.921 76.8053 102.172C76.7932 102.423 76.879 102.668 77.0445 102.857L77.0325 102.858ZM127.274 62.51C127.37 62.5096 127.466 62.4955 127.559 62.468C130.212 61.651 134.029 62.48 134.067 62.488C134.314 62.5363 134.571 62.4859 134.782 62.3475C134.994 62.2092 135.143 61.9939 135.197 61.7474C135.252 61.501 135.209 61.2429 135.076 61.028C134.944 60.8132 134.732 60.6585 134.488 60.5971C134.31 60.5591 130.136 59.6491 126.988 60.6171C126.765 60.684 126.574 60.8289 126.449 61.0252C126.325 61.2215 126.275 61.4561 126.31 61.686C126.344 61.9159 126.46 62.1258 126.637 62.2771C126.813 62.4284 127.038 62.5111 127.271 62.51H127.274ZM112.23 70.186C112.335 70.4184 112.527 70.5999 112.765 70.6915C113.004 70.783 113.268 70.7772 113.502 70.6752C113.736 70.5733 113.92 70.3834 114.015 70.1467C114.11 69.9099 114.108 69.6453 114.009 69.41C112.41 65.754 110 63.721 106.629 61.624C106.411 61.4884 106.148 61.4449 105.897 61.5031C105.647 61.5614 105.431 61.7165 105.295 61.9345C105.159 62.1525 105.116 62.4155 105.174 62.6656C105.232 62.9157 105.387 63.1324 105.606 63.268C109.263 65.54 110.996 67.35 112.23 70.186ZM86.7375 73.2031C89.3765 65.5031 91.1465 60.968 91.1465 60.968C90.3554 60.8758 89.5697 60.7423 88.7925 60.5681C84.9235 62.8091 81.0775 64.287 78.5065 62.958C75.2835 61.329 73.9115 72.651 86.7375 73.202V73.2031Z" fill="#18284D"/>
<path d="M75.7493 67.762C76.3843 69.574 78.7163 73.827 86.6963 74.169H86.7383C86.9397 74.1689 87.136 74.1059 87.2999 73.9889C87.4637 73.8718 87.5869 73.7065 87.6523 73.516C90.2523 65.926 92.0303 61.372 92.0523 61.329C92.1063 61.1911 92.1278 61.0426 92.1153 60.895C92.1028 60.7474 92.0565 60.6047 91.98 60.4778C91.9036 60.3509 91.799 60.2433 91.6744 60.1633C91.5498 60.0832 91.4085 60.0328 91.2613 60.016C90.4703 59.923 89.7183 59.7961 88.9983 59.6421C88.7631 59.5919 88.5176 59.6307 88.3093 59.751C83.9453 62.277 80.7923 63.072 78.9393 62.125C78.5526 61.9098 78.1087 61.8198 77.6687 61.8673C77.2287 61.9147 76.8143 62.0974 76.4823 62.39C75.3003 63.408 74.9993 65.621 75.7493 67.762ZM77.7493 63.841C77.7654 63.823 77.785 63.8084 77.8068 63.7979C77.8285 63.7874 77.8522 63.7813 77.8763 63.78C77.9386 63.7853 77.9988 63.8048 78.0523 63.837C80.5443 65.123 84.0163 64.415 88.9523 61.61C89.2333 61.665 89.5183 61.717 89.8053 61.764C89.1503 63.495 87.8053 67.129 86.0583 72.191C79.8473 71.702 78.0583 68.512 77.5743 67.123C77.0303 65.558 77.3303 64.211 77.7513 63.841H77.7493ZM96.4033 57.117C97.8153 57.964 102.163 54.405 102.784 53.192C107.136 53.192 118.884 48.0811 119.4 40.6031C119.4 40.6031 127.364 39.416 132.436 47.572C136.616 54.298 145.86 57.0431 148.813 50.4521C151.013 45.5381 142.643 49.431 141.692 46.552C140.45 42.77 140.845 35.201 132.884 32.321C124.923 29.441 118.03 35.0901 118.03 35.0901C113.852 29.7251 99.7903 29.725 94.1993 47.966C93.2993 50.904 95.6113 52.3181 96.3993 52.9351C97.1873 53.5521 94.9843 56.271 96.4053 57.117H96.4033Z" fill="#18284D"/>
<path d="M95.8985 57.9469C96.2096 58.129 96.565 58.2214 96.9254 58.2139C97.233 58.2104 97.5387 58.164 97.8334 58.0759C99.9529 57.2356 101.831 55.8837 103.301 54.1409C108.223 53.7989 118.994 48.8809 120.254 41.5149C122.559 41.5043 124.826 42.1074 126.82 43.2622C128.815 44.417 130.467 46.0818 131.605 48.0859C134.374 52.5469 139.305 55.4589 143.577 55.1719C144.9 55.1026 146.177 54.6598 147.258 53.8949C148.34 53.13 149.182 52.0742 149.688 50.8499C149.888 50.3889 150.523 48.9889 149.805 47.9009C149.032 46.7279 147.305 46.7579 145.641 46.7829C144.441 46.8029 142.799 46.8299 142.609 46.2569C142.357 45.3978 142.153 44.5255 141.996 43.6439C141.177 39.5289 140.055 33.8939 133.209 31.4169C126.285 28.9169 120.238 32.3699 118.175 33.7909C115.916 31.5299 112.175 30.5329 108.342 31.2389C105.149 31.8319 97.2884 34.6019 93.2804 47.6849C92.2574 51.0199 94.6654 52.8439 95.5964 53.5359C95.5534 53.7459 95.4444 54.0659 95.3674 54.2999C95.0204 55.3349 94.4265 57.0679 95.8985 57.9469ZM95.1074 48.2519C97.7074 39.7579 102.654 34.2519 108.667 33.1429C112.119 32.5079 115.567 33.5429 117.248 35.6889C117.411 35.8925 117.647 36.024 117.905 36.0549C118.033 36.0693 118.163 36.058 118.287 36.0216C118.41 35.9852 118.526 35.9244 118.625 35.8429C118.69 35.7899 125.202 30.5829 132.535 33.2359C138.355 35.3359 139.312 40.1589 140.084 44.0209C140.254 44.9791 140.478 45.927 140.755 46.8599C141.39 48.7889 143.755 48.7489 145.655 48.7179C146.409 48.7059 147.977 48.6799 148.171 48.9669C148.199 49.0099 148.23 49.3289 147.904 50.0589C147.543 50.9634 146.929 51.7447 146.136 52.3092C145.342 52.8737 144.402 53.1975 143.429 53.2419C139.892 53.4809 135.606 50.8819 133.229 47.0639C127.888 38.4639 119.58 39.5969 119.229 39.6479C119.012 39.6805 118.811 39.7865 118.662 39.9483C118.512 40.1101 118.422 40.3181 118.406 40.5379C117.961 47.1669 107.081 52.2249 102.771 52.2249C102.593 52.225 102.419 52.2743 102.267 52.3675C102.115 52.4607 101.992 52.5941 101.911 52.7529C101.345 53.8469 97.7854 56.4659 96.8804 56.2799C96.9032 55.8099 97.007 55.3474 97.1875 54.9129C97.4875 54.0009 97.8674 52.8699 96.9874 52.1789L96.7464 51.9949C95.6064 51.1379 94.5324 50.1409 95.1124 48.2519H95.1074ZM76.8944 120.509C82.5064 130.562 88.1704 135.609 92.0514 134C93.2384 133.509 95.1704 132.431 97.4104 131.183C100.761 129.314 106.996 125.842 108.223 126.2C109.111 126.609 110.901 130.728 111.97 133.187C113.37 136.409 114.27 138.423 115.135 139.167C115.522 139.495 116.014 139.673 116.52 139.667C116.604 139.669 116.688 139.665 116.771 139.655C118.927 139.435 121.485 136.265 121.971 135.632C122.052 135.532 122.112 135.417 122.148 135.293C122.184 135.169 122.194 135.04 122.179 134.912C122.165 134.784 122.124 134.661 122.061 134.549C121.998 134.437 121.913 134.338 121.812 134.26C121.71 134.181 121.594 134.123 121.469 134.089C121.345 134.056 121.216 134.048 121.088 134.065C120.961 134.082 120.838 134.125 120.727 134.19C120.616 134.255 120.519 134.342 120.442 134.445C119.453 135.709 117.554 137.628 116.571 137.727C116.444 137.741 116.413 137.713 116.389 137.691C115.815 137.198 114.66 134.544 113.734 132.409C111.772 127.897 110.476 125.109 109.022 124.437C107.368 123.671 103.962 125.3 96.4574 129.485C94.3574 130.654 92.3824 131.758 91.3004 132.205C88.5904 133.328 83.3564 128.126 78.5734 119.559C78.4483 119.335 78.2392 119.17 77.9923 119.1C77.7454 119.03 77.4809 119.061 77.2569 119.186C77.033 119.312 76.8679 119.521 76.798 119.767C76.7282 120.014 76.7593 120.279 76.8844 120.503L76.8944 120.509Z" fill="#18284D"/>
<path d="M102.49 137.604C103.376 138.314 106.361 138.937 108.262 138.937C108.683 138.953 109.103 138.902 109.508 138.787C110.661 138.387 113.069 135.6 114.04 134.423C114.193 134.224 114.262 133.974 114.234 133.726C114.206 133.477 114.083 133.249 113.89 133.089C113.698 132.929 113.451 132.85 113.202 132.867C112.952 132.885 112.719 132.999 112.551 133.185C111.472 134.581 110.235 135.848 108.866 136.961C107.101 137.055 105.337 136.759 103.699 136.092C103.082 135.597 102.199 132.106 101.339 128.729L101.218 128.252C101.191 128.125 101.138 128.004 101.063 127.898C100.988 127.791 100.892 127.701 100.782 127.632C100.671 127.563 100.548 127.518 100.419 127.498C100.29 127.478 100.159 127.484 100.032 127.516C99.9061 127.549 99.7876 127.606 99.6839 127.685C99.5803 127.764 99.4936 127.863 99.4291 127.976C99.3646 128.089 99.3236 128.214 99.3085 128.343C99.2934 128.473 99.3046 128.604 99.3414 128.729L99.4613 129.206C100.781 134.405 101.41 136.742 102.49 137.604Z" fill="#18284D"/>
<path d="M110.523 169.502H110.571C110.698 169.496 110.823 169.465 110.938 169.411C111.053 169.357 111.156 169.28 111.241 169.186C111.327 169.092 111.393 168.982 111.436 168.862C111.479 168.743 111.498 168.616 111.491 168.489C111.446 167.575 110.391 146.037 110.154 137.848C110.144 137.594 110.033 137.354 109.847 137.18C109.66 137.007 109.413 136.914 109.159 136.921C108.904 136.929 108.663 137.036 108.487 137.22C108.311 137.404 108.215 137.65 108.219 137.905C108.46 146.112 109.513 167.67 109.556 168.584C109.569 168.832 109.677 169.065 109.857 169.236C110.037 169.406 110.275 169.502 110.523 169.502ZM95.3373 181.487C95.5807 181.487 95.8152 181.395 95.9938 181.23C96.1724 181.064 96.2819 180.838 96.3003 180.595C97.5559 165.9 100.138 151.349 104.015 137.12C104.08 136.876 104.047 136.616 103.923 136.396C103.799 136.176 103.593 136.013 103.351 135.942C103.108 135.871 102.848 135.898 102.625 136.017C102.402 136.136 102.234 136.337 102.157 136.578C98.2317 150.934 95.621 165.618 94.3573 180.447C94.3386 180.703 94.4218 180.956 94.589 181.15C94.7561 181.345 94.9935 181.466 95.2493 181.486L95.3373 181.487Z" fill="#18284D"/>
<path d="M175.228 173.552C175.052 173.604 174.896 173.707 174.777 173.848C174.659 173.989 174.585 174.161 174.563 174.343C174.551 174.424 173.03 182.829 145.927 204.343C145.822 204.42 145.732 204.517 145.665 204.629C145.598 204.741 145.554 204.865 145.536 204.994C145.518 205.124 145.527 205.255 145.561 205.381C145.595 205.507 145.655 205.625 145.736 205.728C145.817 205.83 145.918 205.915 146.032 205.977C146.147 206.04 146.273 206.078 146.403 206.091C146.533 206.103 146.664 206.089 146.789 206.049C146.913 206.01 147.028 205.945 147.127 205.86C171.298 186.672 175.579 177.61 176.327 175.219C177.36 174.877 179.803 174.054 182.25 173.108C188.631 170.635 189.35 169.571 189.516 168.768C190.155 165.737 187.34 155.657 186.471 152.638C184.764 146.755 182.196 139.278 180.582 137.57C180.425 137.37 180.219 137.214 179.984 137.115C179.75 137.017 179.494 136.979 179.241 137.006C177.552 137.473 175.902 138.075 174.309 138.806C169.909 140.606 163.253 143.32 160.571 142.96C149.812 141.528 146.002 144.699 142.942 147.247C142.296 147.805 141.621 148.329 140.92 148.817C139.907 149.494 138.275 150.483 136.388 151.63C130.849 154.993 123.269 159.598 119.56 163.23C115.766 166.949 113.404 167.216 110.136 167.582C109.372 167.669 108.581 167.758 107.715 167.895C103.474 168.566 103.015 172.302 102.686 175.03C102.447 177.008 102.261 177.942 101.612 177.985C96.9933 178.285 91.3123 180.41 89.7613 184.347C88.3543 187.908 86.8913 190.954 83.2333 192.089C78.6263 193.516 76.1533 196.338 72.9473 201.389C72.8095 201.606 72.7635 201.868 72.8193 202.119C72.8751 202.37 73.0282 202.588 73.2448 202.725C73.4615 202.863 73.7241 202.909 73.9747 202.854C74.2253 202.798 74.4435 202.645 74.5813 202.428C77.9993 197.055 80.1573 195.073 83.8113 193.942C88.2913 192.557 90.1033 188.799 91.5773 185.06C92.7643 182.049 97.5983 180.194 101.755 179.917C104.077 179.765 104.368 177.373 104.625 175.264C104.993 172.235 105.43 170.22 108.033 169.808C108.858 169.677 109.616 169.59 110.367 169.508C113.744 169.128 116.659 168.8 120.93 164.614C124.479 161.135 132.259 156.409 137.408 153.284C139.315 152.125 140.969 151.124 142.008 150.425C142.763 149.899 143.489 149.334 144.184 148.732C147.098 146.305 150.401 143.553 160.32 144.877C163.513 145.3 170.177 142.584 175.045 140.598C176.807 139.88 178.485 139.198 179.262 138.978C180.053 139.92 182.075 144.517 184.48 152.714C186.656 160.134 187.946 166.498 187.645 168.294C186.889 169.333 180.656 171.816 175.228 173.552Z" fill="#18284D"/>
<path d="M175.531 175.446C175.69 175.446 175.847 175.406 175.987 175.331C176.127 175.256 176.246 175.148 176.334 175.016C176.423 174.884 176.477 174.732 176.493 174.574C176.509 174.416 176.486 174.256 176.425 174.109C172.154 164.031 168.558 153.68 165.66 143.125C165.632 143 165.578 142.881 165.503 142.777C165.429 142.672 165.334 142.584 165.224 142.516C165.115 142.449 164.993 142.404 164.866 142.384C164.739 142.364 164.609 142.37 164.484 142.401C164.359 142.432 164.242 142.487 164.139 142.564C164.035 142.641 163.949 142.737 163.883 142.848C163.818 142.959 163.775 143.081 163.758 143.209C163.74 143.336 163.748 143.466 163.781 143.59C166.704 154.237 170.33 164.678 174.635 174.845C174.708 175.023 174.832 175.175 174.992 175.282C175.151 175.389 175.339 175.446 175.531 175.446ZM228.555 145.236C224.822 143.816 223.333 143.22 223.319 143.215C223.201 143.168 223.075 143.144 222.947 143.146C222.82 143.147 222.694 143.174 222.577 143.224C222.46 143.274 222.354 143.347 222.266 143.438C222.177 143.529 222.107 143.637 222.059 143.755C222.012 143.873 221.988 144 221.99 144.127C221.992 144.254 222.018 144.38 222.068 144.497C222.118 144.614 222.191 144.72 222.282 144.809C222.373 144.898 222.481 144.968 222.599 145.015C222.615 145.015 224.116 145.621 227.865 147.049C228.67 147.353 229.524 147.509 230.385 147.508C231.302 147.538 232.214 147.358 233.05 146.981C233.886 146.603 234.625 146.039 235.209 145.332C235.897 144.416 237.187 141.882 234.374 138.12C229.722 131.92 213.617 127.363 208.751 127.52C203.663 127.681 195.808 130.98 180.125 138.315C180.006 138.366 179.898 138.441 179.808 138.534C179.717 138.628 179.647 138.739 179.601 138.86C179.554 138.982 179.533 139.111 179.538 139.241C179.543 139.371 179.573 139.498 179.629 139.616C179.684 139.734 179.762 139.839 179.859 139.926C179.956 140.013 180.069 140.079 180.192 140.121C180.315 140.163 180.445 140.18 180.575 140.171C180.704 140.162 180.831 140.126 180.946 140.067C196.376 132.849 204.065 129.603 208.812 129.454C213.362 129.31 228.756 133.854 232.825 139.278C234.279 141.215 234.576 142.951 233.662 144.164C232.675 145.481 230.431 145.946 228.555 145.236Z" fill="#18284D"/>
<path d="M262.472 165C261.272 158.2 262.639 123.5 263.472 107H271.972L277.472 109C279.072 113.4 276.472 148.5 274.972 165.5L264.972 166.5L262.472 165Z" fill="#DAC1E0"/>
<path d="M336.5 167.5C335.298 159.957 340.665 116.803 341.5 98.5H347L354 100.5C355.603 105.381 351.502 149.643 350 168.5L340.977 169L336.5 167.5Z" fill="#DAC1E0"/>
<path d="M286.473 165.336C285.271 157.793 286.64 119.303 287.475 101H295.988L301.497 103.218C303.099 108.099 300.495 147.034 298.993 165.891L288.977 167L286.473 165.336Z" fill="#DAC1E0"/>
<path d="M302.45 59.1871C313.921 63.7641 327.651 61.1871 334.772 51.4721C335.887 49.9452 336.813 48.2888 337.529 46.5391C338.731 43.5526 339.41 40.3817 339.538 37.1651C331.321 35.3001 312.277 34.1801 312.277 34.1801C308.422 28.0801 302.819 5.29907 302.819 5.29907C292.113 10.2781 274.918 27.3611 288.878 48.2431C292.188 53.1834 296.921 57.0006 302.45 59.1881V59.1871Z" fill="#DAC1E0"/>
<path d="M220.076 151.948C219.969 151.879 219.849 151.832 219.724 151.81C219.599 151.787 219.471 151.789 219.346 151.816C219.222 151.843 219.105 151.894 219 151.966C218.896 152.039 218.806 152.131 218.738 152.238C218.669 152.345 218.622 152.464 218.599 152.589C218.576 152.715 218.578 152.843 218.605 152.967C218.632 153.091 218.683 153.209 218.756 153.314C218.828 153.418 218.921 153.507 219.028 153.576C221.944 155.453 224.201 156.076 225.914 156.076C226.762 156.108 227.607 155.936 228.375 155.573C229.144 155.211 229.813 154.669 230.329 153.993C231.199 152.701 231.577 151.14 231.396 149.592C231.215 148.045 230.485 146.614 229.34 145.558C229.242 145.474 229.128 145.411 229.006 145.372C228.884 145.332 228.755 145.318 228.627 145.329C228.498 145.34 228.374 145.377 228.26 145.436C228.146 145.496 228.045 145.578 227.963 145.677C227.882 145.777 227.82 145.891 227.783 146.014C227.746 146.137 227.734 146.267 227.747 146.394C227.761 146.522 227.8 146.646 227.861 146.759C227.923 146.872 228.007 146.971 228.108 147.051C228.869 147.794 229.35 148.778 229.469 149.835C229.587 150.892 229.337 151.958 228.76 152.851C227.282 154.879 224.115 154.551 220.076 151.948Z" fill="#18284D"/>
<path d="M215.372 160.107C215.253 160.045 215.123 160.008 214.989 160C214.855 159.991 214.72 160.01 214.594 160.056C214.468 160.102 214.353 160.174 214.256 160.267C214.159 160.36 214.083 160.472 214.032 160.596C213.981 160.72 213.956 160.854 213.959 160.988C213.962 161.122 213.993 161.254 214.05 161.376C214.108 161.497 214.189 161.605 214.29 161.694C214.392 161.782 214.51 161.848 214.638 161.888C216.312 162.619 218.112 163.016 219.938 163.059C220.988 163.121 222.038 162.933 223 162.51C223.963 162.087 224.812 161.442 225.477 160.628C226.132 159.722 226.456 158.618 226.394 157.501C226.331 156.385 225.887 155.324 225.135 154.496C224.97 154.306 224.737 154.188 224.486 154.168C224.234 154.147 223.985 154.225 223.791 154.385C223.596 154.545 223.472 154.775 223.444 155.025C223.416 155.276 223.487 155.527 223.641 155.726C224.116 156.223 224.403 156.87 224.453 157.556C224.504 158.241 224.315 158.923 223.918 159.485C222.84 160.948 219.958 161.984 215.372 160.107Z" fill="#18284D"/>
<path d="M334.771 51.4719C335.887 49.945 336.813 48.2886 337.529 46.5389L312.276 34.1799C312.276 34.1799 305.676 46.9799 302.45 59.1799C313.922 63.7639 327.65 61.1889 334.771 51.4719Z" fill="white"/>
<path d="M334.771 51.4719C335.887 49.945 336.813 48.2886 337.529 46.5389L312.276 34.1799C312.276 34.1799 305.676 46.9799 302.45 59.1799C313.922 63.7639 327.65 61.1889 334.771 51.4719Z" fill="#DAC1E0"/>
<path d="M210.345 170.066H210.97C214.188 170.066 217.638 169.71 219.77 167.607C220.461 166.862 220.994 165.985 221.336 165.028C221.678 164.071 221.821 163.055 221.758 162.041C221.757 161.785 221.655 161.539 221.473 161.358C221.292 161.177 221.046 161.075 220.789 161.074C220.662 161.074 220.536 161.099 220.419 161.148C220.301 161.197 220.195 161.268 220.105 161.358C220.015 161.448 219.943 161.555 219.895 161.672C219.846 161.79 219.821 161.916 219.821 162.043C219.882 162.8 219.789 163.562 219.546 164.282C219.303 165.002 218.917 165.665 218.409 166.231C217.024 167.596 214.55 168.181 210.374 168.131C203.623 168.044 191.904 163.793 188.474 162.493C188.236 162.408 187.973 162.42 187.743 162.526C187.513 162.632 187.334 162.825 187.244 163.062C187.154 163.299 187.161 163.561 187.262 163.794C187.364 164.026 187.553 164.209 187.788 164.303C191.288 165.633 203.277 169.977 210.345 170.066ZM265.931 167.314C266.871 167.314 268.054 167.263 269.549 167.144C272.383 166.916 275.076 166.535 275.104 166.531C275.307 166.502 275.495 166.41 275.641 166.268C275.788 166.126 275.886 165.941 275.921 165.74C279.521 144.772 278.712 108.918 278.702 108.558C278.697 108.355 278.628 108.159 278.506 107.998C278.383 107.836 278.212 107.717 278.018 107.658C273.247 106.304 268.292 105.715 263.336 105.913C263.103 105.926 262.882 106.024 262.715 106.188C262.548 106.351 262.446 106.57 262.428 106.803C261.149 126.381 260.922 146.014 261.748 165.617C261.759 165.811 261.81 166 261.898 166.172C261.987 166.344 262.111 166.496 262.262 166.617C262.687 166.978 263.502 167.314 265.931 167.314ZM264.295 107.804C268.507 107.739 272.708 108.249 276.781 109.319C276.874 114.419 277.288 145.505 274.13 164.707C269.778 165.289 264.91 165.591 263.668 165.192C262.88 146.065 263.086 126.91 264.287 107.804H264.295ZM291.811 166.638C295.831 166.638 299.664 166.482 299.905 166.472C300.145 166.462 300.372 166.363 300.543 166.195C300.714 166.027 300.817 165.801 300.831 165.562C302.758 133.583 301.584 101.719 301.573 101.401C301.565 101.172 301.475 100.953 301.32 100.784C301.166 100.615 300.956 100.506 300.728 100.477C300.328 100.426 291.005 99.2581 287.312 100.521C287.133 100.583 286.975 100.696 286.859 100.847C286.743 100.997 286.674 101.178 286.659 101.368C285.007 124.409 284.99 165.098 284.99 165.505C284.99 165.75 285.083 165.986 285.25 166.165C285.417 166.344 285.646 166.453 285.89 166.47C287.596 166.6 289.728 166.637 291.811 166.637V166.638ZM288.543 102.186C291.312 101.577 296.851 101.986 299.668 102.301C299.835 107.456 300.632 135.852 298.95 164.569C296.762 164.644 290.936 164.808 286.927 164.597C286.939 158.507 287.077 123.324 288.543 102.186ZM349.683 169.886C349.917 169.887 350.142 169.803 350.318 169.65C350.494 169.497 350.609 169.286 350.641 169.055C354.399 142.746 354.933 100.544 354.941 100.123C354.943 99.9363 354.892 99.753 354.792 99.5951C354.692 99.4372 354.549 99.3115 354.379 99.2331C350.325 97.5181 345.884 96.9244 341.521 97.514C341.314 97.5465 341.123 97.6452 340.977 97.7954C340.831 97.9456 340.737 98.1392 340.71 98.347C337.361 124.334 335.493 167.712 335.476 168.147C335.467 168.359 335.529 168.569 335.651 168.743C335.773 168.917 335.949 169.046 336.151 169.11C338.185 169.765 348.512 169.878 349.684 169.889L349.683 169.886ZM342.544 99.3401C346.094 99.0032 349.673 99.4905 353.002 100.764C352.921 106.164 352.235 143.531 348.848 167.952C345.04 167.897 339.592 167.719 337.448 167.416C337.725 161.346 339.518 123.31 342.544 99.343V99.3401Z" fill="#18284D"/>
<path d="M330.925 84.3093C331.19 83.2417 331.189 83.241 331.188 83.241H331.187C331.185 83.2406 331.182 83.2397 331.18 83.239C331.174 83.2375 331.165 83.2349 331.153 83.2322C331.131 83.2267 331.098 83.2191 331.055 83.2087C330.969 83.188 330.843 83.1575 330.683 83.1199C330.361 83.0446 329.897 82.9385 329.327 82.8152C328.188 82.5688 326.619 82.2523 324.901 81.9714C323.187 81.691 321.308 81.4437 319.555 81.3406C317.824 81.2388 316.123 81.2705 314.807 81.5994L314.099 81.7761L313.986 82.4968C311.267 99.9276 309.909 120.55 309.231 136.794C308.892 144.92 308.722 151.959 308.638 156.967C308.595 159.471 308.574 161.467 308.563 162.839C308.558 163.524 308.556 164.053 308.555 164.411C308.554 164.59 308.554 164.726 308.554 164.818V164.957L309.653 164.958H308.554V165.7L309.241 165.977C310.36 166.43 311.861 166.681 313.399 166.825C314.961 166.971 316.656 167.013 318.21 167.006C319.767 166.998 321.199 166.941 322.241 166.886C322.763 166.859 323.188 166.832 323.483 166.812C323.631 166.802 323.746 166.794 323.825 166.788C323.865 166.785 323.895 166.783 323.916 166.781C323.926 166.78 323.934 166.779 323.939 166.779C323.942 166.779 323.945 166.778 323.946 166.778H323.948L323.86 165.682L323.949 166.778L324.789 166.711L324.942 165.882C325.303 163.922 325.924 157.821 326.649 149.866C327.378 141.877 328.217 131.937 329.013 122.239C329.808 112.54 330.56 103.079 331.113 96.0427C331.39 92.5244 331.617 89.6115 331.774 87.5789C331.853 86.5629 331.915 85.7667 331.957 85.2244C331.978 84.9532 331.994 84.7451 332.005 84.6052C332.01 84.5355 332.014 84.4825 332.017 84.447C332.018 84.4295 332.02 84.4159 332.021 84.407C332.021 84.4025 332.02 84.3985 332.021 84.3962L332.021 84.3943L330.925 84.3093ZM330.925 84.3093L332.021 84.3933L332.093 83.4656L331.189 83.241L330.925 84.3093Z" fill="#6B3374" stroke="#18284D" stroke-width="2.2"/>
<path d="M302.09 60.0809C305.845 61.577 309.849 62.3476 313.89 62.3519C316.1 62.3556 318.303 62.1162 320.459 61.6379C326.499 60.4057 331.874 56.9942 335.559 52.0539C336.72 50.4612 337.684 48.7344 338.431 46.9109C339.673 43.8226 340.376 40.544 340.508 37.2179C340.519 36.991 340.45 36.7675 340.312 36.5866C340.175 36.4058 339.978 36.2792 339.756 36.2289C332.212 34.5159 315.996 33.4479 312.856 33.2519C309.135 26.7829 303.826 5.2989 303.773 5.0769C303.739 4.93823 303.674 4.80889 303.584 4.69812C303.493 4.58734 303.38 4.49786 303.251 4.43606C303.122 4.37426 302.981 4.34167 302.838 4.3406C302.696 4.33954 302.554 4.37003 302.424 4.4299C295.079 7.8459 286.417 15.7549 283.632 25.7189C281.486 33.3899 282.985 41.1489 288.093 48.7899C291.511 53.8849 296.396 57.8222 302.1 60.0809H302.09ZM285.473 26.2389C287.965 17.3389 295.473 10.1689 302.167 6.70291C303.379 11.4899 308.02 29.2709 311.467 34.7029C311.549 34.833 311.661 34.9416 311.794 35.0197C311.927 35.0978 312.076 35.1431 312.229 35.1519C312.411 35.1619 330.1 36.2179 338.538 37.9429C338.35 40.7704 337.714 43.55 336.653 46.1779C335.966 47.8554 335.077 49.4436 334.008 50.9079C327.496 59.7979 314.383 62.8999 302.829 58.2839C297.478 56.1757 292.894 52.4895 289.686 47.7149C284.907 40.5659 283.486 33.3419 285.481 26.2399L285.473 26.2389Z" fill="#18284D"/>
<path d="M313.887 62.3509C316.096 62.3547 318.299 62.1153 320.455 61.6369C326.495 60.4046 331.87 56.9932 335.556 52.0529C336.716 50.4601 337.68 48.7333 338.428 46.9099C338.521 46.6825 338.525 46.4281 338.437 46.1983C338.35 45.9684 338.179 45.7803 337.959 45.6719L312.704 33.3098C312.476 33.1987 312.214 33.181 311.974 33.2604C311.734 33.3398 311.534 33.5101 311.418 33.7349C311.353 33.8649 304.736 46.7689 301.527 58.9289C301.466 59.1573 301.492 59.3997 301.598 59.6109C301.703 59.822 301.883 59.9873 302.101 60.0759C305.851 61.5714 309.85 62.3433 313.887 62.3509ZM312.714 35.4779L336.273 47.0109C335.646 48.3842 334.881 49.6908 333.992 50.9109C327.63 59.5829 314.968 62.7479 303.615 58.5939C305.98 50.6412 309.025 42.9064 312.715 35.4749L312.714 35.4779Z" fill="#18284D"/>
<path d="M308.066 2.84697C308.673 10.364 314.866 29.435 314.866 29.435C314.866 29.435 338.418 31.563 342.307 31.544C342.306 9.75296 325.434 -3.00403 308.066 2.84697Z" fill="#6B3374"/>
<path d="M314.828 29.845C315.786 29.932 338.228 31.956 342.251 31.956H342.308C342.418 31.9555 342.522 31.9117 342.599 31.8344C342.677 31.757 342.72 31.6523 342.72 31.543C342.72 20.511 338.368 11.059 330.786 5.60898C327.509 3.28712 323.722 1.78751 319.744 1.23667C315.766 0.68582 311.714 1.09989 307.929 2.44397C307.842 2.47357 307.766 2.53169 307.715 2.60907C307.664 2.68645 307.641 2.77865 307.648 2.87097C308.254 10.346 314.217 28.771 314.471 29.552C314.495 29.631 314.542 29.7011 314.605 29.7533C314.669 29.8055 314.746 29.8374 314.828 29.845ZM308.498 3.14499C312.121 1.9044 315.987 1.54278 319.778 2.08994C323.568 2.6371 327.174 4.07737 330.298 6.29199C337.565 11.514 341.771 20.55 341.884 31.132C337.334 31.032 317.727 29.282 315.179 29.053C314.445 26.772 309.197 10.241 308.505 3.14099L308.498 3.14499Z" stroke="#18284D"/>
<path d="M339.536 37.175C331.319 35.309 312.275 34.1899 312.275 34.1899C318.755 41.1707 326.361 47.0143 334.775 51.477C337.746 47.2874 339.403 42.309 339.536 37.175Z" fill="#DAC1E0"/>
<path d="M334.332 52.339C334.468 52.41 334.619 52.4467 334.771 52.446C334.926 52.4471 335.078 52.4113 335.215 52.3417C335.353 52.2722 335.472 52.1708 335.562 52.046C338.649 47.7023 340.371 42.537 340.507 37.21C340.518 36.983 340.449 36.7594 340.311 36.5786C340.174 36.3977 339.977 36.2711 339.755 36.221C331.555 34.36 313.12 33.254 312.338 33.212C312.147 33.1996 311.957 33.2442 311.791 33.3401C311.625 33.436 311.491 33.579 311.407 33.7508C311.322 33.9227 311.29 34.1158 311.315 34.3058C311.34 34.4957 311.421 34.6739 311.547 34.818C318.118 41.8816 325.818 47.8028 334.332 52.339ZM338.532 37.939C338.288 42.3201 336.89 46.5587 334.479 50.225C327.194 46.2436 320.53 41.2181 314.698 35.308C319.867 35.669 331.982 36.602 338.529 37.942L338.532 37.939Z" fill="#18284D"/>
</svg>