<svg xmlns="http://www.w3.org/2000/svg" width="283.36" height="245.045" viewBox="0 0 283.36 245.045">
  <g id="digital-wallet" transform="translate(-226.337 -45.744)">
    <path id="Trazado_58729" data-name="Trazado 58729" d="M14.956,0A14.956,14.956,0,1,1,0,14.956,14.956,14.956,0,0,1,14.956,0Z" transform="translate(330.167 66.895) rotate(-45)" fill="#5840d1"/>
    <path id="Trazado_58688" data-name="Trazado 58688" d="M864.267,438.579a73.2,73.2,0,0,0,7.806-20.907c11.479-56.418-69.81-132.173-132.7-74.595A86.1,86.1,0,0,0,727.3,356.728a82.73,82.73,0,0,0-15.1,41.535c-1.453,18.413,3.179,37.857,14.767,55.9a111.688,111.688,0,0,0,12.555,16.043C773.305,506.235,839.952,482.508,864.267,438.579Z" transform="translate(-409.793 -233.556)" fill="#b8afe6"/>
    <path id="Trazado_58689" data-name="Trazado 58689" d="M598.726,454.249c-5.239.624-14.628,6.869-15.591,9.854-.592,1.836,3.363,7,3.8,6.485h0c-.613,3.933-.506,6.04.529,8.685.985,2.518,7.976,19.165,15.983,30.165a40.709,40.709,0,0,0,5.851,6.652c9.679,8.46,38.744,12.308,41.49,12.657a150.294,150.294,0,0,1-7.281,13.426c-5.8.5-10.6.905-13.648,1.116-12.489.87-12.469,6.908-11.848,18.475q.1,1.841.2,3.58a111.683,111.683,0,0,0,12.555,16.043c33.776,36.027,100.429,12.3,124.738-31.633-.395-3.636-.732-6.513-.965-8.2-1.232-8.91-4.554-9.77-15.991-9.131a57.165,57.165,0,0,0-15.638-12.14c-5.333-2.844-25.107-15.437-26.467-15.454.592-5.35,1.372-11.228,2.109-16.441,2.909,1.927,6.621,1.176,9.578-.79,3.786-2.52,3.088-5.84,2.178-5.194a3.9,3.9,0,0,1-3.483.974c-1.689-.262-1.951-4.95-.186-10.316,4.705-.729,5.881-2.542,5.4-4.107-.312-1.018-1.794-1.778-3.9-2.248a26.718,26.718,0,0,0-5.283-.54h-.255a13.107,13.107,0,0,1-.173,3.411c-.39,1.827-1.249,2.3-1.828,2.214-.84-.122-1-2.086-1-2.086-11.8-4.076-8.118-14.119-8.118-14.119-2.239.921-6.391.426-6.484.461-6.9,2.554-17.459,6.654-17.568,7.837-.2,2.112,13.006,6.505,13.006,6.505s-4.331,17.106-5.464,27.928c-1.873-1.122-17.913-2.371-21.076-2.437s-11.473-.133-12.068-2.638-2.638-3.033-5.67-2.573-3.3-.921-3.164-2.7-1.122-2.506-2.638-2.638-2.243-.066-2.375-4.936c-.083-3.007-5.144-8.366-9.406-12.489-2.64-2.551-4.974-4.63-5.62-5.388-1.483-1.717-8-3.279-11.27-3.709C602.265,458.685,599.644,454.138,598.726,454.249Z" transform="translate(-301.044 -344.729)" fill="#fffef2"/>
    <path id="Trazado_58690" data-name="Trazado 58690" d="M1021.777,175.568l.835-1.847a.793.793,0,0,0-1.446-.653l-.834,1.848a.792.792,0,1,0,1.444.651Zm4.841,2.186.833-1.847a.793.793,0,1,0-1.444-.653l-.834,1.847a.793.793,0,1,0,1.444.653Z" transform="translate(-638.014 -55.161)" fill="#202d37"/>
    <path id="Trazado_58691" data-name="Trazado 58691" d="M995.441,136.627a.522.522,0,0,1-.089.131,1.013,1.013,0,0,1-.217.181.59.59,0,0,1-.336.067,1.611,1.611,0,0,1-.609-.156,6.963,6.963,0,0,1-.735-.35c-.267-.145-.482-.269-.64-.365s-.312-.2-.468-.3a.515.515,0,0,0-.426-.08.522.522,0,0,0-.34.27l-1.093,2.123a.184.184,0,0,0-.011.025.543.543,0,0,0-.014.378.524.524,0,0,0,.239.3c.334.184.709.375,1.118.564L991.185,141a.522.522,0,0,0,0,.4.513.513,0,0,0,.286.276l2.741,1.093a.5.5,0,0,0,.4,0,.512.512,0,0,0,.283-.279l.748-1.873a3.272,3.272,0,0,0,2.03-.481,3.864,3.864,0,0,0,1.394-1.859h0a4.6,4.6,0,0,0,.34-1.628,3.9,3.9,0,0,0-.248-1.48A4.731,4.731,0,0,0,998.5,134a4.581,4.581,0,0,0-.905-.885,2.829,2.829,0,0,1-.6-.56,1.24,1.24,0,0,1-.247-.468,1.33,1.33,0,0,1-.041-.336.565.565,0,0,1,.03-.165.459.459,0,0,1,.088-.134,1.134,1.134,0,0,1,.225-.18.612.612,0,0,1,.346-.073,1.543,1.543,0,0,1,.593.147,10.88,10.88,0,0,1,1.906,1.049.492.492,0,0,0,.437.07.532.532,0,0,0,.326-.261l1.093-2.117a.5.5,0,0,0,.03-.42.544.544,0,0,0-.245-.287c-.379-.2-.781-.4-1.169-.584L1001,127.2a.539.539,0,0,0-.3-.692l-2.74-1.093a.5.5,0,0,0-.412.014.532.532,0,0,0-.269.287l-.78,1.942a3.674,3.674,0,0,0-1.994.515,3.484,3.484,0,0,0-1.405,1.747,4.6,4.6,0,0,0-.337,1.638,3.872,3.872,0,0,0,.255,1.483,5.045,5.045,0,0,0,.651,1.165,4.032,4.032,0,0,0,.915.887,2.86,2.86,0,0,1,.6.559,1.171,1.171,0,0,1,.24.456,1.456,1.456,0,0,1,.034.339A.6.6,0,0,1,995.441,136.627Zm3.36,1.536Zm1.425-6.245Zm1.016-2.1ZM996.006,136a1.717,1.717,0,0,0-.35-.7,3.361,3.361,0,0,0-.729-.681,3.5,3.5,0,0,1-.781-.763,4.393,4.393,0,0,1-.575-1.03,3.258,3.258,0,0,1-.214-1.261,4.007,4.007,0,0,1,.3-1.432,2.936,2.936,0,0,1,1.168-1.469,3.253,3.253,0,0,1,1.873-.425.287.287,0,0,0,.281-.181l.832-2.089,2.654,1.055-.727,1.8a.29.29,0,0,0,.156.37c.457.208.912.429,1.339.657l-1.055,2.015a11.508,11.508,0,0,0-1.962-1.077,2.1,2.1,0,0,0-.813-.19,1.211,1.211,0,0,0-.668.167,1.736,1.736,0,0,0-.339.278,1.044,1.044,0,0,0-.192.3,1.1,1.1,0,0,0-.07.347,1.887,1.887,0,0,0,.052.489,1.787,1.787,0,0,0,.354.695,3.411,3.411,0,0,0,.723.676,4.012,4.012,0,0,1,.781.781,4.132,4.132,0,0,1,.578,1.027,3.3,3.3,0,0,1,.208,1.26,4.028,4.028,0,0,1-.3,1.424,3.3,3.3,0,0,1-1.176,1.592,2.829,2.829,0,0,1-1.873.372.287.287,0,0,0-.3.181l-.805,2.019-2.635-1.049.72-1.8a.289.289,0,0,0-.156-.37c-.476-.215-.909-.429-1.283-.634l1.044-2.03c.142.1.29.192.443.286s.387.226.665.378a7.079,7.079,0,0,0,.79.376,2.167,2.167,0,0,0,.824.2,1.21,1.21,0,0,0,.662-.164,1.611,1.611,0,0,0,.334-.284,1.051,1.051,0,0,0,.187-.3,1.15,1.15,0,0,0,.075-.357,2.065,2.065,0,0,0-.039-.47ZM1111.2,177.8a.9.9,0,0,1,.278-.233,5.648,5.648,0,0,1,1.032-.468.1.1,0,0,0,.067-.067.127.127,0,0,0,0-.1l-.53-1.082a.1.1,0,0,0-.068-.058.128.128,0,0,0-.087,0c-.236.111-.468.231-.7.359l-.525-.852a.119.119,0,0,0-.077-.053.117.117,0,0,0-.092.014l-1.266.781a.109.109,0,0,0-.052.075.124.124,0,0,0,.017.091l.6.984a1.786,1.786,0,0,0-.423.963,1.61,1.61,0,0,0,.264,1,2.185,2.185,0,0,0,.524.59,1.791,1.791,0,0,0,.625.312,2.375,2.375,0,0,0,.624.083,1.9,1.9,0,0,0,.59-.1,1.532,1.532,0,0,1,.45-.083.726.726,0,0,1,.323.055.869.869,0,0,1,.177.106.423.423,0,0,1,.092.1.361.361,0,0,1,.045.12.7.7,0,0,1,.011.181.458.458,0,0,1-.1.236.957.957,0,0,1-.284.236,3.806,3.806,0,0,1-.378.2l-.346.156c-.091.041-.18.07-.267.1a.119.119,0,0,0-.075.067.115.115,0,0,0,0,.1l.527,1.082a.131.131,0,0,0,.072.056.113.113,0,0,0,.084,0q.312-.141.676-.343l.525.852a.115.115,0,0,0,.073.053.117.117,0,0,0,.088-.016l1.266-.781a.113.113,0,0,0,.053-.072.121.121,0,0,0-.016-.089l-.589-.957a1.563,1.563,0,0,0,.451-.959,1.8,1.8,0,0,0-.312-1.04,2.18,2.18,0,0,0-.521-.587,1.768,1.768,0,0,0-.624-.32,2.16,2.16,0,0,0-.625-.081,2.211,2.211,0,0,0-.59.092,1.531,1.531,0,0,1-.45.083.762.762,0,0,1-.325-.053.86.86,0,0,1-.179-.1.412.412,0,0,1-.089-.1.372.372,0,0,1-.047-.123.732.732,0,0,1-.008-.183.453.453,0,0,1,.111-.239Z" transform="translate(-644.809 -67.202)" fill="#fff"/>
    <path id="Trazado_58692" data-name="Trazado 58692" d="M1751.733,445.969a.68.68,0,0,1,.2-.156,5.441,5.441,0,0,1,.968-.44.385.385,0,0,0,.253-.244.411.411,0,0,0-.013-.322l-.526-1.076a.394.394,0,0,0-.252-.215.416.416,0,0,0-.29.02c-.156.075-.312.156-.476.237l-.382-.624a.406.406,0,0,0-.254-.183.414.414,0,0,0-.312.048l-1.266.781a.394.394,0,0,0-.183.265.411.411,0,0,0,.053.3l.5.815a1.983,1.983,0,0,0-.362.955,1.892,1.892,0,0,0,.312,1.179,2.435,2.435,0,0,0,.595.668,2.084,2.084,0,0,0,.726.367,2.589,2.589,0,0,0,.7.092,2.218,2.218,0,0,0,.678-.109,1.282,1.282,0,0,1,.365-.069.429.429,0,0,1,.192.025.676.676,0,0,1,.119.069.215.215,0,0,1,.03.03h0a.248.248,0,0,1,.011.033.485.485,0,0,1,0,.1.226.226,0,0,1-.045.078.671.671,0,0,1-.2.166,3.359,3.359,0,0,1-.348.184c-.134.062-.245.111-.333.147s-.17.066-.255.094a.409.409,0,0,0-.236.565l.529,1.082.012.023a.417.417,0,0,0,.226.18.4.4,0,0,0,.3-.012c.142-.064.3-.139.453-.222l.382.625a.4.4,0,0,0,.251.184.484.484,0,0,0,.094.011.417.417,0,0,0,.209-.07l1.266-.781a.414.414,0,0,0,.183-.253.407.407,0,0,0-.05-.312l-.481-.781a1.756,1.756,0,0,0,.386-.968,2.1,2.1,0,0,0-.354-1.207,2.486,2.486,0,0,0-.59-.665,2.122,2.122,0,0,0-.723-.37,2.611,2.611,0,0,0-.712-.091,2.451,2.451,0,0,0-.671.106,1.286,1.286,0,0,1-.367.069.469.469,0,0,1-.2-.027.543.543,0,0,1-.116-.064.257.257,0,0,1-.028-.027h0a.163.163,0,0,1-.009-.031.482.482,0,0,1,0-.106A.262.262,0,0,1,1751.733,445.969Zm.984-1.147Zm-.624-.84ZM1750.948,443.513Zm3.14,7.609Zm.974-.6Zm-3.939-4.242a.627.627,0,0,0,.085.217.724.724,0,0,0,.148.167,1.1,1.1,0,0,0,.245.145,1.019,1.019,0,0,0,.448.08,1.9,1.9,0,0,0,.532-.1,1.811,1.811,0,0,1,.51-.08,1.932,1.932,0,0,1,.548.07,1.516,1.516,0,0,1,.521.27,1.865,1.865,0,0,1,.451.511,1.516,1.516,0,0,1,.269.871,1.3,1.3,0,0,1-.376.781.291.291,0,0,0-.033.345l.5.81-.972.6-.436-.706a.288.288,0,0,0-.385-.1c-.178.1-.348.189-.506.264l-.372-.762.1-.039c.094-.039.214-.091.359-.156a3.526,3.526,0,0,0,.4-.212,1.219,1.219,0,0,0,.37-.312.719.719,0,0,0,.156-.4.976.976,0,0,0-.015-.259.65.65,0,0,0-.234-.379,1.125,1.125,0,0,0-.237-.147,1.022,1.022,0,0,0-.451-.083,1.882,1.882,0,0,0-.539.1,1.613,1.613,0,0,1-.5.083,1.994,1.994,0,0,1-.551-.073,1.518,1.518,0,0,1-.523-.268,1.892,1.892,0,0,1-.454-.51,1.318,1.318,0,0,1-.223-.826,1.5,1.5,0,0,1,.361-.807.289.289,0,0,0,.022-.334l-.518-.843.977-.6.439.71a.289.289,0,0,0,.386.1c.176-.1.358-.192.534-.278l.37.759a5.8,5.8,0,0,0-.9.425,1.208,1.208,0,0,0-.365.312.733.733,0,0,0-.156.4.94.94,0,0,0,.014.248Z" transform="translate(-1285.107 -335.2)" fill="#202d37"/>
    <path id="Trazado_58693" data-name="Trazado 58693" d="M1570.184,254.138c10.549.735,18.662,15.467,20.938,22.481,2.723,8.4,6.457,10.407,9.4,10.407a6.821,6.821,0,0,0,.958-.07c3.83-.551,20.528-8.118,22.6-15.079a.675.675,0,0,0-.917-.809c-4.157,1.819-8.057.493-11.92-4.059-3.105-3.655-5.508-8.576-7.64-13.347a29.863,29.863,0,0,0-6.187-9.4c-2.412-2.287-4.84-3.188-7.026-2.607-4.07,1.08-19.838,10.816-20.507,11.231a.673.673,0,0,0,.312,1.249Zm20.545-11.17c3.538-.937,8.217,3.591,11.645,11.256,2.924,6.541,9.589,21.454,19.805,18.63-3.5,5.889-17.7,12.319-20.885,12.777-3.7.532-6.691-2.637-8.891-9.419a48.681,48.681,0,0,0-7.792-14.264c-2.81-3.525-7.135-7.728-12.436-8.878C1576.362,250.519,1587.58,243.8,1590.729,242.968Z" transform="translate(-1133.52 -165.18)" fill="#202d37"/>
    <path id="Trazado_58694" data-name="Trazado 58694" d="M1676.657,277.464a.666.666,0,0,0,.312-.077c.028-.014,2.823-1.469,6.37-3.271a.673.673,0,0,0-.609-1.2c-3.553,1.8-6.354,3.261-6.382,3.278a.675.675,0,0,0,.313,1.271Zm-.525,4.374a.664.664,0,0,0,.4-.131,71.315,71.315,0,0,1,8.854-4.487.673.673,0,0,0-.545-1.232,70.788,70.788,0,0,0-9.1,4.632.674.674,0,0,0,.4,1.218Zm5.074,4.134a.668.668,0,0,0,.354-.1c.036-.022,3.582-2.214,6.207-3.591a.674.674,0,0,0-.625-1.194c-2.669,1.4-6.256,3.613-6.292,3.636a.673.673,0,0,0,.354,1.249Zm3.124,5.366a.661.661,0,0,0,.393-.128c.025-.017,2.443-1.766,4.726-3.213a.674.674,0,0,0-.721-1.138c-2.318,1.471-4.769,3.243-4.794,3.261a.673.673,0,0,0,.4,1.218Z" transform="translate(-1222.888 -191.645)" fill="#202d37"/>
    <path id="Trazado_58695" data-name="Trazado 58695" d="M1797.161,987.176a.674.674,0,0,0-.012-1.347h-.013c-.76.014-4.609.1-5.687.531-.818.323-1.28,1.527-.877,6.351.011.125.019.212.02.251a.673.673,0,0,0,1.346-.011,3.012,3.012,0,0,0-.024-.351c-.325-3.891-.016-4.812.1-5.011A31.139,31.139,0,0,1,1797.161,987.176Zm31.523,5.8a.378.378,0,0,0,.058,0,.675.675,0,0,0,.671-.615,21.3,21.3,0,0,0-.028-5.011c-.387-1.26-3.324-1.524-5.72-1.524a.674.674,0,1,0,0,1.347c2.03,0,4.067.289,4.449.625a22.01,22.01,0,0,1-.042,4.448.673.673,0,0,0,.612.731Zm-.55-5.152Zm-3.965,30.01a.673.673,0,1,0-.2,1.33,16.131,16.131,0,0,0,2.323.183,4.717,4.717,0,0,0,2.738-.615,1.371,1.371,0,0,0,.531-1c.1-1.547,0-4.3,0-4.418a.679.679,0,0,0-.7-.649.673.673,0,0,0-.65.7c0,.028.1,2.81,0,4.285C1828.023,1017.985,1826.176,1018.142,1824.169,1017.835Zm-27.586,1.9a.674.674,0,1,0,0-1.347,14.021,14.021,0,0,1-3.149-.278,18.436,18.436,0,0,1-.448-4.771.674.674,0,0,0-1.347,0c0,5.339.781,5.762,1.079,5.922A12.009,12.009,0,0,0,1796.583,1019.738Zm-3.122-1.574Z" transform="translate(-1319.904 -793.318)" fill="#5840d1"/>
    <path id="Trazado_58696" data-name="Trazado 58696" d="M1841.81,1085Z" transform="translate(-1363.268 -877.01)" fill="#202d37"/>
    <path id="Trazado_58697" data-name="Trazado 58697" d="M1833.549,1034.719a37.316,37.316,0,0,0,4.326.18c.457,0,.9,0,1.314-.009,4.409-.067,4.557-.312,4.763-.634.1-.156.282-.453.3-4.566s-.171-4.464-.254-4.618a.7.7,0,0,0-.573-.378,2.27,2.27,0,0,1-.254-.042c-4.748-.818-7.8-.423-9.055,1.172-1.975,2.5-1.941,6.971-1.6,8.251C1832.658,1034.588,1833.216,1034.671,1833.549,1034.719Zm9.873-10.026ZM1833.82,1033.723Zm1.351-7.064c.521-.659,2.211-1.622,7.65-.7a71.956,71.956,0,0,1-.03,7.414,59.441,59.441,0,0,1-9.037.023C1833.57,1032.074,1833.651,1028.579,1835.17,1026.659Z" transform="translate(-1355.278 -825.733)" fill="#202d37"/>
    <rect id="Rectángulo_19528" data-name="Rectángulo 19528" width="3.595" height="3.266" rx="1.633" transform="translate(481.982 203.188)" fill="#202d37"/>
    <path id="Trazado_58698" data-name="Trazado 58698" d="M1864.654,1056.224a1.521,1.521,0,0,0,1.519-1.519v-.8a1.52,1.52,0,0,0-1.519-1.521h-1.134A1.522,1.522,0,0,0,1862,1053.9v.8a1.522,1.522,0,0,0,1.521,1.519Zm-2.076-1.519v-.8a.937.937,0,0,1,.937-.937h1.139a.937.937,0,0,1,.937.937v.8a.937.937,0,0,1-.937.937h-1.134a.937.937,0,0,1-.943-.935Z" transform="translate(-1380.307 -849.483)" fill="#202d37"/>
    <rect id="Rectángulo_19529" data-name="Rectángulo 19529" width="3.595" height="3.266" rx="1.633" transform="translate(481.982 215.42)" fill="#202d37"/>
    <path id="Trazado_58699" data-name="Trazado 58699" d="M1864.654,1134.592a1.521,1.521,0,0,0,1.519-1.519v-.8a1.519,1.519,0,0,0-1.519-1.519h-1.134a1.52,1.52,0,0,0-1.521,1.519v.8a1.522,1.522,0,0,0,1.521,1.519Zm-2.076-1.519v-.8a.937.937,0,0,1,.937-.937h1.139a.937.937,0,0,1,.937.937v.8a.936.936,0,0,1-.937.937h-1.134a.937.937,0,0,1-.943-.937Z" transform="translate(-1380.307 -915.618)" fill="#202d37"/>
    <rect id="Rectángulo_19530" data-name="Rectángulo 19530" width="3.595" height="3.266" rx="1.633" transform="translate(495.006 202.579)" fill="#202d37"/>
    <path id="Trazado_58700" data-name="Trazado 58700" d="M1948.073,1052.332a1.521,1.521,0,0,0,1.521-1.519v-.8a1.522,1.522,0,0,0-1.521-1.519h-1.134a1.521,1.521,0,0,0-1.519,1.519v.8a1.519,1.519,0,0,0,1.519,1.519Zm-2.076-1.519v-.8a.937.937,0,0,1,.937-.937h1.134a.937.937,0,0,1,.937.937v.8a.936.936,0,0,1-.937.937h-1.134A.936.936,0,0,1,1946,1050.813Z" transform="translate(-1450.703 -846.2)" fill="#202d37"/>
    <rect id="Rectángulo_19531" data-name="Rectángulo 19531" width="3.595" height="3.266" rx="1.633" transform="translate(495.006 215.42)" fill="#202d37"/>
    <path id="Trazado_58701" data-name="Trazado 58701" d="M1250.689,558.331a1.522,1.522,0,0,0,1.52-1.519v-.8a1.52,1.52,0,0,0-1.52-1.519h-1.134a1.519,1.519,0,0,0-1.519,1.519v.8a1.52,1.52,0,0,0,1.519,1.519Zm-2.077-1.519v-.8a.937.937,0,0,1,.937-.937h1.133a.937.937,0,0,1,.937.937v.8a.937.937,0,0,1-.937.937h-1.134a.937.937,0,0,1-.937-.937Zm1.519-8.06c.428,0,.848,0,1.236-.012,4.423-.092,4.591-.478,4.754-.849a12.031,12.031,0,0,0-.117-4.31c-.312-1.819-1.029-4.156-2.666-4.965-2.6-1.282-7.074-1.216-7.762-.59-.312.287-.492.445-.614,8.321-.009.612-.016,1.093-.023,1.249h0c-.014.312.133.715.912.9A24.521,24.521,0,0,0,1250.131,548.751Zm-3.822-2.385c.025-1.577.1-6.131.269-7.323a12.479,12.479,0,0,1,6.165.781c1.938.957,2.264,6.011,2.162,7.327a41.523,41.523,0,0,1-8.61.061c0-.212.009-.489.014-.84Zm-6.849,17.571a14.975,14.975,0,0,0,1.791-.094.747.747,0,0,0,.487-.407c.086-.172.347-.7.469-5.839a36.478,36.478,0,0,0-.108-5.6c-.189-.442-.634-.589-2.164-.712-1.382-.113-3.372-.156-5.074-.111-3.349.088-3.566.428-3.756.728a14.1,14.1,0,0,0,.193,8.357C1232.693,563.45,1236.992,563.937,1239.461,563.937Zm-7.781-11.676Zm.545.468a40.859,40.859,0,0,1,8.649,0,87.28,87.28,0,0,1-.289,9.836c-1.55.129-6.769.076-8.045-2.857-.985-2.25-.554-6.037-.315-6.974Zm13.523,2.721a.673.673,0,0,0,.673-.654c.019-.645.02-1.21.02-1.666,0-.367,0-.742.014-1,.993-.023,3.522,0,5.793.042h.013a.674.674,0,0,0,.011-1.347c-6.516-.119-6.577-.059-6.833.194-.34.336-.342.82-.343,2.114,0,.447,0,1-.02,1.628a.674.674,0,0,0,.654.693Zm5.606,6.479a.673.673,0,1,0,.531,1.237c2.68-1.149,5.053-2.932,4.635-12a.673.673,0,1,0-1.344.061C1255.584,560.115,1253.238,561.121,1251.354,561.93Zm-4.32,1.716c.339,0,.732-.009,1.19-.023.234,0,.434-.014.568-.014a.674.674,0,1,0,0-1.347c-.144,0-.359,0-.61.016-.434.012-1.338.041-1.82,0-.03-.493-.041-1.443-.05-2.365,0-.51-.013-1.065-.022-1.647a.674.674,0,1,0-1.347.023c.009.579.015,1.132.022,1.639.026,2.362.044,2.851.173,3.136C1245.342,563.525,1245.841,563.645,1247.034,563.645Zm-103.3-115.315a.673.673,0,0,0-.86-.411c-.058.02-5.886,2.078-11.659,4.324-12.049,4.684-12.129,5.563-12.188,6.2-.087.937.681,2.165,6.843,4.727,2.445,1.016,4.929,1.9,6.032,2.276-.781,3.139-4.326,17.818-5.334,27.421a.673.673,0,0,0,.6.74h.072a.673.673,0,0,0,.668-.6c1.119-10.65,5.408-27.664,5.45-27.834a.671.671,0,0,0-.44-.8c-.03-.011-3.122-1.044-6.254-2.329-5.107-2.1-6.073-3.122-6.256-3.421,1.316-1.313,12.516-5.767,22.915-9.434A.673.673,0,0,0,1143.734,448.33Zm4.435,18.9a.673.673,0,0,0-1.344-.087c-.173,2.654-2.083,4.117-5.378,4.117a.674.674,0,0,0,0,1.347C1145.437,472.61,1147.951,470.6,1148.169,467.233Zm10.649-.212a34.182,34.182,0,0,1-5.715.312.671.671,0,0,0-.676.567c-.011.067-1.093,6.749-2.259,15.02-.891,6.31-1.6,11.848-2.111,16.461a.673.673,0,0,0,.595.743h.075a.673.673,0,0,0,.668-.6c.509-4.6,1.218-10.124,2.106-16.42.973-6.869,1.874-12.633,2.164-14.422a34.1,34.1,0,0,0,5.358-.333c2.919-.453,4.816-1.347,5.641-2.654a2.729,2.729,0,0,0,.3-2.311c-.824-2.688-7.156-3.538-12.689-3.19a.673.673,0,0,0,.084,1.344c6.245-.392,10.889.841,11.317,2.24a1.405,1.405,0,0,1-.156,1.2C1163.18,465.52,1162.115,466.51,1158.818,467.021Z" transform="translate(-753.319 -339.356)" fill="#202d37"/>
    <path id="Trazado_58702" data-name="Trazado 58702" d="M1336.626,549h.092a35.562,35.562,0,0,1,5.636-.206.673.673,0,0,0,.069-1.344,37.3,37.3,0,0,0-5.887.215.673.673,0,0,0,.09,1.341Z" transform="translate(-936.375 -423.357)" fill="#202d37"/>
    <path id="Trazado_58703" data-name="Trazado 58703" d="M1259.467,439.856c-3.528-3.961-8.29-1.761-8.29-1.761-3.041-5.241-13.923-6.081-15.287.821.094-.034,4.245.461,6.485-.461,0,0-3.681,10.043,8.118,14.119,0,0-.312,1.647.531,1.766s2.751-.61,2.471-5.308a34.788,34.788,0,0,1,5.536.545C1259.139,449.416,1263.592,444.485,1259.467,439.856Z" transform="translate(-851.944 -327.603)" fill="#202d37"/>
    <path id="Trazado_58704" data-name="Trazado 58704" d="M1255.932,446.293l.033-.041c1.093-1.343,4.329-6.07.357-10.527a7.865,7.865,0,0,0-8.516-2.131c-2-2.879-6.309-4.527-10.293-3.858-3.2.534-5.363,2.49-5.932,5.366a.674.674,0,0,0,.7.8l.256.016a21.083,21.083,0,0,0,5.23-.17,11.621,11.621,0,0,0,.781,7.292c1.332,2.81,3.881,4.922,7.581,6.3a2.428,2.428,0,0,0,.329,1.469,1.216,1.216,0,0,0,.832.509,1.924,1.924,0,0,0,.268.019,2.432,2.432,0,0,0,1.614-.67c.951-.877,1.415-2.432,1.383-4.63a32.794,32.794,0,0,1,4.707.514A.676.676,0,0,0,1255.932,446.293ZM1232.475,435.866Zm0,0Zm17.382,8.813a.644.644,0,0,0-.495.209.674.674,0,0,0-.184.5c.168,2.838-.506,3.9-.924,4.292a1.027,1.027,0,0,1-.728.312,2.251,2.251,0,0,1-.016-.979.671.671,0,0,0-.442-.76c-3.612-1.249-6.071-3.193-7.3-5.776a10.658,10.658,0,0,1-.4-7.475.673.673,0,0,0-.888-.855,14.3,14.3,0,0,1-5.367.459,5.589,5.589,0,0,1,4.63-3.544c3.617-.6,7.664,1.015,9.211,3.686a.673.673,0,0,0,.865.273c.042-.02,4.345-1.95,7.5,1.6,3.011,3.378,1.013,6.939-.206,8.538A35.686,35.686,0,0,0,1249.858,444.679Zm-1.789,7.89s-1.074,6.648-2.258,15.008c2.91,1.926,6.621,1.176,9.578-.792,3.787-2.518,3.088-5.837,2.186-5.193a3.893,3.893,0,0,1-3.485.974c-1.689-.262-1.951-4.951-.186-10.316A34.907,34.907,0,0,1,1248.068,452.569Z" transform="translate(-848.296 -323.92)" fill="#202d37"/>
    <path id="Trazado_58705" data-name="Trazado 58705" d="M442.77,222.892a.676.676,0,0,0-.625-.231,34.191,34.191,0,0,1-5.715.312.671.671,0,0,0-.676.567c-.011.067-1.093,6.749-2.259,15.02a.673.673,0,0,0,.3.656,7.545,7.545,0,0,0,4.215,1.24,11.144,11.144,0,0,0,6.1-2.03c2.507-1.666,3.278-3.773,3.191-5.071a1.511,1.511,0,0,0-.742-1.344,1.009,1.009,0,0,0-1.032.112l-.189.134a3.119,3.119,0,0,1-2.81.724c-.114-.017-.229-.119-.34-.3-.731-1.193-.737-4.8.69-9.139A.671.671,0,0,0,442.77,222.892Zm-.432,11.417a4.291,4.291,0,0,0,3.63-.841,2.185,2.185,0,0,1-.045.565,5.38,5.38,0,0,1-2.548,3.269h0c-2.98,1.983-6.114,2.342-8.476,1.009.948-6.671,1.824-12.233,2.1-13.985a37.291,37.291,0,0,0,4.3-.2c-1.124,3.92-1.249,7.628-.248,9.25a1.828,1.828,0,0,0,1.282.923ZM297.686,159.776c-1.293,1.823-3.717,12.685-5.918,23.07-.136.639-.253,1.19-.348,1.633-.723,3.377-7.928,2.976-15.556,2.551-1.763-.1-3.591-.2-5.4-.261a.673.673,0,0,0-.045,1.346c1.8.061,3.611.156,5.366.259,2.579.144,5.052.281,7.275.281,5.172,0,9-.745,9.679-3.894.1-.443.212-1,.348-1.636,1.2-5.669,4.393-20.728,5.7-22.57,1.188-1.674,7.316-.729,10.9.261a.674.674,0,0,0,.359-1.3C308.994,159.23,299.8,156.791,297.686,159.776Z" transform="translate(-36.654 -94.99)" fill="#202d37"/>
    <circle id="Elipse_18496" data-name="Elipse 18496" cx="2.757" cy="2.757" r="2.757" transform="translate(234.718 93.084) rotate(-13.28)" fill="#202d37"/>
    <path id="Trazado_58706" data-name="Trazado 58706" d="M281.76,345.636a3.046,3.046,0,1,0,3.046-3.046A3.046,3.046,0,0,0,281.76,345.636Zm5.514,0a2.468,2.468,0,1,1-2.469-2.47A2.468,2.468,0,0,1,287.274,345.636Z" transform="translate(-46.77 -250.503)" fill="#202d37"/>
    <circle id="Elipse_18497" data-name="Elipse 18497" cx="2.757" cy="2.757" r="2.757" transform="translate(247.301 92.628)" fill="#202d37"/>
    <path id="Trazado_58707" data-name="Trazado 58707" d="M247.8,222.024a3.046,3.046,0,1,0,3.046-3.046A3.046,3.046,0,0,0,247.8,222.024Zm5.514,0a2.47,2.47,0,1,1-2.469-2.468A2.47,2.47,0,0,1,253.318,222.024Zm-20.011-11.286h0a.674.674,0,0,0,0,1.347h.734c6.735,0,23.152-.415,23.324-.42a.673.673,0,0,0-.034-1.346C257.144,210.326,239.466,210.776,233.307,210.738Zm-5.294-14.925a.674.674,0,1,0-.128,1.341c5.05.481,31.536.665,32.665.673h0a.674.674,0,0,0,0-1.347C260.289,196.478,233.009,196.289,228.013,195.813Z" transform="translate(-0.791 -126.639)" fill="#202d37"/>
    <path id="Trazado_58708" data-name="Trazado 58708" d="M238.473,196.53h0a.673.673,0,0,0-.673.673c0,4.78,3.7,13.114,5.217,15.026a.674.674,0,1,0,1.057-.835c-1.352-1.706-4.932-9.846-4.929-14.191a.671.671,0,0,0-.673-.673Z" transform="translate(-9.673 -127.246)" fill="#202d37"/>
    <path id="Trazado_58709" data-name="Trazado 58709" d="M277.227,244c-.123,0-12.514.02-27.544,0h0a.673.673,0,1,0,0,1.346c5.038,0,9.776.009,13.859.009,8.1,0,13.607-.009,13.688-.009a.673.673,0,0,0,0-1.346Z" transform="translate(-19.133 -167.305)" fill="#202d37"/>
    <path id="Trazado_58710" data-name="Trazado 58710" d="M305.213,198.494a.67.67,0,0,0-.709.635c-.022.392-.515,9.645.4,14.464a.673.673,0,0,0,.66.548.579.579,0,0,0,.126-.012.673.673,0,0,0,.537-.781c-.882-4.657-.381-14.051-.376-14.14a.673.673,0,0,0-.635-.715Zm10.535.159a.674.674,0,0,0-.746.593,85.868,85.868,0,0,0-.392,14.06.676.676,0,0,0,.671.624h.05a.673.673,0,0,0,.624-.72,84.131,84.131,0,0,1,.387-13.81.674.674,0,0,0-.595-.748Zm79.444,70.172-.116-.011c-.746-.062-.923-.1-1.093-.4a9.97,9.97,0,0,1-.545-3.872c-.1-3.772-6.626-10.193-12.733-15.924-1.18-1.107-2.114-1.98-2.465-2.386-1.749-2.017-8.76-3.547-11.69-3.936a.673.673,0,0,0-.178,1.335c3.608.479,9.628,2.073,10.85,3.483.4.459,1.305,1.308,2.562,2.487,3.964,3.714,12.213,11.445,12.308,14.969.126,4.646.76,5.4,2.876,5.58l.112.009c2.153.187,2.056,1.489,2.03,1.917a3.408,3.408,0,0,0,.729,2.862c.662.613,1.681.79,3.21.557,3.744-.56,4.568.668,4.9,2.073.607,2.565,6.285,3.029,12.333,3.147l.376.008c3.689.076,19.128,1.369,20.745,2.342a3.8,3.8,0,0,1,1.055,1.533c.968,1.912,2.432,4.8,8.254,6.231,6.148,1.51,9.562.034,11.4-.759a4.951,4.951,0,0,1,1.093-.395c1.057.264,8.415,4.735,14.338,8.334,4.944,3.005,9.615,5.844,11.865,7.035,4.274,2.268,18.453,10.63,21.49,22.976,2.823,11.479-1.458,22.216-16.36,41.029-7.868,9.934-13,10.792-15.357,10.422a.673.673,0,1,0-.209,1.33,7.379,7.379,0,0,0,1.138.087c3.324,0,8.465-2.14,15.484-11,15.2-19.2,19.551-30.235,16.611-42.189-3.169-12.888-17.766-21.507-22.169-23.842-2.209-1.172-6.869-4-11.792-7-10.691-6.5-14.152-8.521-14.987-8.532a4.515,4.515,0,0,0-1.672.507c-1.808.781-4.84,2.089-10.541.687-5.221-1.282-6.465-3.737-7.375-5.531a4.662,4.662,0,0,0-1.561-2.079c-2.186-1.315-19.109-2.485-21.41-2.534h-.378a58.891,58.891,0,0,1-6.824-.429c-3.675-.528-4.162-1.422-4.225-1.683-.929-3.92-5.068-3.289-6.427-3.083a2.746,2.746,0,0,1-2.092-.214c-.283-.262-.373-.793-.3-1.774C398.592,270.272,397.37,269.017,395.192,268.825Z" transform="translate(-65.835 -128.902)" fill="#202d37"/>
    <path id="Trazado_58711" data-name="Trazado 58711" d="M721.669,652.705c4.168-4.952,9.356-11.114,10.148-13.774,1.355-4.6-1.168-10.213-17.89-22.693a.673.673,0,0,0-.806,1.079c17.047,12.724,18.439,17.724,17.4,21.232-.706,2.39-6.228,8.949-9.881,13.287a64.993,64.993,0,0,0-4.342,5.422c-1.235,2.162-1.522,3.252-.189,7.9a.675.675,0,0,0,.648.489.711.711,0,0,0,.186-.027.676.676,0,0,0,.468-.834c-1.235-4.3-.988-5.022.063-6.869C717.879,657.209,719.635,655.122,721.669,652.705ZM602.306,553.314a.673.673,0,0,0-.771.56c-.674,4.231-.543,6.476.537,9.236.106.272,11.1,27.549,22.013,37.081,9.771,8.533,38.594,12.4,41.849,12.816h.084a.673.673,0,0,0,.084-1.341c-3.213-.407-31.661-4.215-41.131-12.489-10.679-9.325-21.544-36.288-21.651-36.557-.991-2.534-1.093-4.527-.468-8.535A.674.674,0,0,0,602.306,553.314Z" transform="translate(-316.274 -428.323)" fill="#202d37"/>
    <path id="Trazado_58712" data-name="Trazado 58712" d="M966.56,892.9a.671.671,0,0,0,.574-.322c1.474-2.41,8.917-14.831,10.756-22.682a.673.673,0,1,0-1.31-.312c-1.794,7.65-9.141,19.908-10.6,22.287a.673.673,0,0,0,.575,1.024Zm64.592,56.947c1.834,0,4.215-2.766,4.683-3.322a.671.671,0,0,0-.115-.969c-1.628-1.215-8.188-10.869-10.578-14.486a.677.677,0,0,0-.469-.3.67.67,0,0,0-.532.156c-1.129.982-4.766,4.345-4.234,6.4.156.6,3.313,4.589,4.888,6.487C1029.787,949.847,1030.71,949.847,1031.152,949.847Zm-6.713-17.384c1.756,2.64,7.534,11.231,9.929,13.684-.991,1.093-2.407,2.317-3.188,2.351-.175-.061-1.279-.615-5.375-5.556-2.351-2.833-4.345-5.508-4.618-5.993-.12-.795,1.485-2.826,3.261-4.485Z" transform="translate(-624.092 -694.787)" fill="#202d37"/>
    <path id="Trazado_58713" data-name="Trazado 58713" d="M1203.172,1312.288c1.473-1.071,3.472-2.342,5.591-3.677a94.162,94.162,0,0,0,9.422-6.485.673.673,0,0,0-.867-1.03,92.652,92.652,0,0,1-9.275,6.377c-6,3.8-8.871,5.692-8.43,7.266a1.5,1.5,0,0,0,.8.962c1.375.692,4.051-.245,6.454-1.177l.114-.045a10.862,10.862,0,0,1-.781,3.51,14.39,14.39,0,0,1-2.7,3.613c-1.742,1.933-3.388,3.758-3.094,5.414a1.164,1.164,0,0,0,.74.937,3.745,3.745,0,0,0,2.715-.728,1.815,1.815,0,0,0,.2,1.861,1.5,1.5,0,0,0,1.182.468,5.064,5.064,0,0,0,1.98-.517,2.247,2.247,0,0,0,1.221.387c1.619.05,3.759-1.35,5.38-2.654a2.576,2.576,0,0,0,0,1.054,1.459,1.459,0,0,0,.695.951c.428.247,1.427.826,6.723-4.863a64.833,64.833,0,0,0,7.711-9.943.674.674,0,0,0-1.16-.687,62.562,62.562,0,0,1-7.138,9.28c-3.027,3.308-4.9,4.749-5.514,4.971a.135.135,0,0,1,0-.023c-.145-.6.567-2.092,1.093-2.91a.673.673,0,0,0-1.043-.84c-1.7,1.7-5.008,4.371-6.689,4.314a.814.814,0,0,1-.645-.28.674.674,0,0,0-.809-.156,3.381,3.381,0,0,1-1.966.556c-.025-.111-.073-.741,1.179-2.674a.674.674,0,0,0-.985-.893,10.9,10.9,0,0,1-3.542,2.075c-.077-1.021,1.439-2.7,2.781-4.187a14.8,14.8,0,0,0,2.966-4.047c.713-1.927,1.2-4.371.579-5.178a.8.8,0,0,0-.719-.326,4.363,4.363,0,0,0-.946.312c-1.093.425-4.405,1.717-5.362,1.23a.166.166,0,0,1-.094-.088C1200.942,1314.279,1201.2,1313.732,1203.172,1312.288Z" transform="translate(-821.292 -1059.236)" fill="#202d37"/>
    <path id="Trazado_58714" data-name="Trazado 58714" d="M869.992,1056.128a37.421,37.421,0,0,0,6.345-6.794.673.673,0,0,0-1.188-.634,37.4,37.4,0,0,1-6.031,6.4.673.673,0,0,0,.874,1.024Zm1.215,3.249a.668.668,0,0,0,.379-.119,41.667,41.667,0,0,0,7.512-7.319.674.674,0,0,0-1.057-.835,41.092,41.092,0,0,1-7.216,7.044.673.673,0,0,0,.381,1.229Zm8.828-4.226c.434-.5.894-1.093,1.116-1.377l.059-.076a.645.645,0,0,0,.087-.1.681.681,0,0,0-.131-.965c-.529-.389-.937.142-1.079.312-.214.275-.66.848-1.071,1.321a.674.674,0,1,0,1.018.884Zm-65.991-66.216c4.882-.34,14.207-1.158,25-2.106,16.461-1.446,36.947-3.244,48.656-3.934a.674.674,0,0,0-.08-1.346c-11.728.693-32.224,2.5-48.693,3.939-10.786.946-20.1,1.764-24.979,2.1-6.226.432-9.743,2.162-11.4,5.6-1.506,3.122-1.405,7.4-1.069,13.582.551,10.263,1.212,18.486,1.338,20.03a.671.671,0,0,0,.67.625h.056a.676.676,0,0,0,.624-.726c-.126-1.541-.781-9.748-1.335-19.992-.322-5.964-.429-10.085.937-12.919C805.186,990.83,808.357,989.331,814.045,988.935Z" transform="translate(-485.176 -789.709)" fill="#202d37"/>
    <path id="Trazado_58715" data-name="Trazado 58715" d="M785.4,1278.4a27.093,27.093,0,0,0,3.477-.259,113.1,113.1,0,0,0,12.82-2.82c2.5-.648,4.644-1.207,6.245-1.51,6.624-1.249,8.927-2.03,8.743-5.745-.362-7.428-.821-13.281-1.324-16.926-.312-2.264-.994-3.68-2.148-4.456-1.678-1.13-4.078-.648-6.81.047-4.683,1.188-16.94,3.33-19.565,2.912l-.612-.1c-2.654-.449-6.288-1.065-7.308,3.561-.96,4.359-1.347,18.244,1.213,23.21C780.861,1277.713,782.561,1278.4,785.4,1278.4Zm-5.164-25.007c.693-3.147,2.64-3.052,5.767-2.524.211.036.42.072.625.1,2.979.469,15.8-1.842,20.108-2.937,2.86-.726,4.62-.979,5.725-.234.8.538,1.315,1.691,1.561,3.522.5,3.606.952,9.419,1.313,16.808.114,2.342-.578,3.016-7.65,4.356-1.642.312-3.815.876-6.331,1.531A112.251,112.251,0,0,1,788.7,1276.8c-5.264.69-6.914-.221-7.372-1.11C779.115,1271.391,779.24,1257.926,780.239,1253.39Z" transform="translate(-465.698 -1012.881)" fill="#202d37"/>
    <path id="Trazado_58716" data-name="Trazado 58716" d="M949.509,1037.175c-5.141.557-20.039,2.94-37.29,5.7-16.357,2.615-34.9,5.578-49.151,7.633-14.191,2.045-24.354,2.186-30.182.434-4.673-1.405-5.583-3.687-5.854-5.517-.468-3.161-1.375-10.49-1.8-17.9a.673.673,0,0,0-1.344.078c.431,7.458,1.344,14.831,1.816,18.019.54,3.646,3.279,7.889,17.979,7.889a140.438,140.438,0,0,0,19.582-1.671c14.266-2.056,32.81-5.021,49.177-7.636,17.232-2.755,32.115-5.135,37.223-5.691,10.1-1.093,16.152-2.707,15.087-15.791-.962-11.806-5.058-54.239-6.307-63.275-.667-4.829-1.978-7.338-4.527-8.654s-6.245-1.391-12.177-1.06a.673.673,0,1,0,.075,1.344c11.164-.625,14.122.137,15.287,8.554,1.249,9.021,5.338,51.4,6.3,63.2C964.385,1034.961,959.041,1036.138,949.509,1037.175Z" transform="translate(-504.258 -762.721)" fill="#202d37"/>
    <path id="Trazado_58717" data-name="Trazado 58717" d="M927.351,1257.375a5.025,5.025,0,1,0-5.025,5.026A5.025,5.025,0,0,0,927.351,1257.375Zm-8.7,0a3.678,3.678,0,1,1,3.678,3.678A3.678,3.678,0,0,1,918.649,1257.375Zm57.595-11a5.025,5.025,0,1,0-5.025,5.025A5.026,5.026,0,0,0,976.244,1246.375Zm-8.7,0a3.678,3.678,0,1,1,3.678,3.678A3.678,3.678,0,0,1,967.54,1246.375Z" transform="translate(-583.091 -1008.951)" fill="#202d37"/>
    <path id="Trazado_58718" data-name="Trazado 58718" d="M1202.22,1179.892a.676.676,0,0,0,.625-.42c.6-1.486,2.374-2.674,4.744-3.178,2.987-.637,6.025.017,7.737,1.667a.675.675,0,1,0,.937-.971c-2.459-2.367-6.245-2.593-8.952-2.014-2.81.6-4.943,2.09-5.713,3.99a.674.674,0,0,0,.372.877A.688.688,0,0,0,1202.22,1179.892Zm-2.014-5.614a.675.675,0,0,0,.632-.439c.76-2.03,3.088-3.683,6.072-4.3,2.8-.576,6.66-.286,9.1,2.264a.675.675,0,0,0,.971-.937c-2.362-2.465-6.327-3.48-10.347-2.654-3.486.72-6.126,2.644-7.061,5.152a.671.671,0,0,0,.395.866A.642.642,0,0,0,1200.206,1174.278Z" transform="translate(-821.263 -946.994)" fill="#202d37"/>
    <path id="Trazado_58719" data-name="Trazado 58719" d="M672.245,563.7a.676.676,0,0,0,.625-.4c1.007-2.272,3.92-4.135,7.793-4.986,5.308-1.168,10.749-.156,13.848,2.559a.674.674,0,0,0,.888-1.013c-3.41-2.994-9.306-4.117-15.025-2.862-4.354.957-7.539,3.055-8.743,5.758a.673.673,0,0,0,.614.946ZM582.752,467.56a1.055,1.055,0,0,0,.507.144.781.781,0,0,0,.595-.273h0c2.139-2.52,13-11.272,14.343-11.564a.823.823,0,0,0,.614-1.032,9.348,9.348,0,0,0-1.372-2.81c-1.26-1.9-1.939-2.086-2.389-2.029-5.239.624-15.051,6.9-16.152,10.316C578.227,462.38,581.673,466.959,582.752,467.56ZM597.937,454.546Zm-14.6,12.447Zm-3.161-6.279c.87-2.7,9.9-8.716,14.939-9.38a10.289,10.289,0,0,1,2.284,3.414c-2.829,1.382-11.918,9.03-14.247,11.451C582.127,465.288,579.823,461.818,580.179,460.714Z" transform="translate(-297.447 -341.134)" fill="#202d37"/>
    <path id="Trazado_58720" data-name="Trazado 58720" d="M513.622,240.261a1.179,1.179,0,0,1,1.328.059c.45.294,1.522.91,2.859,1.678,2.388,1.372,7.356,4.228,7.832,4.888.507.852,6.451,16,10.322,25.978a.673.673,0,1,0,1.249-.487c-1-2.568-9.756-25.116-10.433-26.2-.468-.76-3.057-2.329-8.305-5.345-1.266-.727-2.361-1.357-2.795-1.639a2.541,2.541,0,0,0-2.8-.062c-1.082.7-1.561,2.165-1.293,3.919.42,2.7,3.84,4.748,5.884,5.97.479.287.893.535,1.148.718.7.5,2.307,4.913,3.494,8.955l-1.021.283c-5.364,1.474-10.913,3-10.089,6.07.634,2.361,5.191,2.435,8.073,2.236a7.265,7.265,0,0,0-1.222,3.975c-.1,2.824,1.04,5.345,2.9,6.423a.659.659,0,0,0,.337.091.673.673,0,0,0,.337-1.249c-1.405-.82-2.306-2.913-2.226-5.211.072-2.056.888-3.663,2.186-4.3a.674.674,0,0,0-.389-1.272c-3.279.448-8.3.429-8.691-1.035-.478-1.78,5.308-3.371,9.144-4.424.578-.156,1.144-.312,1.683-.468a.673.673,0,0,0,.468-.832c-.615-2.158-2.734-9.277-4.189-10.327-.3-.217-.738-.479-1.249-.781-1.841-1.1-4.922-2.944-5.245-5.021A2.545,2.545,0,0,1,513.622,240.261Zm2.807,37.412a13.827,13.827,0,0,1-4.161-9.707.673.673,0,0,0-.665-.681h0a.673.673,0,0,0-.673.665,15.134,15.134,0,0,0,4.538,10.658c2.364,2.451,5.2,4.043,6.674,4.3a.582.582,0,0,0,.116.011.674.674,0,0,0,.114-1.338A13.85,13.85,0,0,1,516.43,277.673Z" transform="translate(-240.159 -162.867)" fill="#202d37"/>
    <path id="Trazado_58721" data-name="Trazado 58721" d="M541.971,322.344a.673.673,0,0,0,.487-1.249c-3.015-1.171-4.527-.457-5.274.347-1.744,1.894-.829,5.731.609,8.691a.674.674,0,0,0,.606.379.658.658,0,0,0,.294-.069.673.673,0,0,0,.312-.9c-1.514-3.122-1.856-6.075-.829-7.189C539,321.45,540.7,321.849,541.971,322.344Z" transform="translate(-261.513 -231.844)" fill="#202d37"/>
    <path id="Trazado_58722" data-name="Trazado 58722" d="M513.367,337.7a.674.674,0,0,0,.312-1.311c-2.435-.575-3.614.262-4.176,1.065-1.344,1.925-.426,5.456,1.121,7.806a.674.674,0,0,0,.564.3.663.663,0,0,0,.37-.112.671.671,0,0,0,.19-.937c-1.3-1.969-2.065-4.966-1.14-6.29C511.075,337.557,512,337.381,513.367,337.7Z" transform="translate(-238.409 -245.113)" fill="#202d37"/>
    <path id="Trazado_58723" data-name="Trazado 58723" d="M270.934,366.565a.673.673,0,0,0,.383-1.291c-3.049-.9-4.215.7-4.568,1.425-1.058,2.157.092,5.547,2.462,7.252a8.121,8.121,0,0,0,4.431,1.825,2.745,2.745,0,0,0,1.386-.34,2.293,2.293,0,0,0,1.062-2.342.674.674,0,0,0-1.341.133.977.977,0,0,1-.393,1.041c-.617.356-2.131.2-4.363-1.405-1.986-1.427-2.726-4.164-2.039-5.564C268.522,366.134,269.885,366.253,270.934,366.565Zm-39.162,76.793c11.781-1.864,27.711-3.278,33.709-3.811l1.477-.131c2.74-.248,4,.526,4.823,2.955a21.634,21.634,0,0,1,.859,4.947l.017.194a.673.673,0,0,0,1.341-.117l-.016-.19a22.98,22.98,0,0,0-.924-5.264c-1.019-3.012-2.879-4.167-6.221-3.865l-1.474.131c-6.011.534-21.975,1.95-33.8,3.822-4.165.66-5.336,1.981-5.216,5.89.042,1.35.231,3.033.468,5.166l.109.984c.023.212.047.429.072.653.993,9.136,1.527,12.83,2.282,15.807.6,2.342,1.43,3.591,5.566,3.591a65.085,65.085,0,0,0,9.6-1.054.673.673,0,0,0-.215-1.329c-12.72,2.061-13.047.781-13.64-1.549-.737-2.907-1.263-6.557-2.25-15.612-.023-.223-.048-.442-.072-.657l-.109-.984c-.236-2.1-.422-3.762-.468-5.058C227.593,444.671,228.28,443.912,231.772,443.358Z" transform="translate(0 -269.418)" fill="#202d37"/>
    <path id="Trazado_58724" data-name="Trazado 58724" d="M231.225,870.565c14.272-2.009,38.249-5.253,45.768-6.271a22.343,22.343,0,0,0-.891-5.1c-8.438,1.1-35.094,4.565-45.4,5.747C230.747,866.36,230.959,868.193,231.225,870.565Z" transform="translate(-3.682 -686.453)" fill="#202d37"/>
    <path id="Trazado_58725" data-name="Trazado 58725" d="M274.5,857.346c-5.694.743-34.641,4.513-45.4,5.74a.289.289,0,0,0-.256.3c.042,1.335.23,3.013.468,5.136l.058.52a.289.289,0,0,0,.109.2.3.3,0,0,0,.178.061h.039c14.171-2,37.829-5.2,45.6-6.245l.164-.024a.287.287,0,0,0,.248-.312,22.543,22.543,0,0,0-.905-5.172A.286.286,0,0,0,274.5,857.346Zm.624,5.141c-7.831,1.059-31.067,4.2-45.2,6.192l-.025-.226c-.22-1.97-.4-3.553-.454-4.823,10.816-1.249,38.733-4.876,44.9-5.681a22.792,22.792,0,0,1,.776,4.538Zm-33.139,7.192c-1.983-.178-7.439.44-8.352,1.405-.312.329-.447.906-.1,2.645a21.14,21.14,0,0,0,.69,2.585,1.35,1.35,0,0,0,1.055.753,6.61,6.61,0,0,0,1.313.1c2.445,0,6.549-.673,7.3-1.444,1.121-1.152.164-4.562-.406-5.436C243.253,869.935,242.8,869.751,241.987,869.679Zm-7.862,1.874.489.468Zm8.811,3.222c-.781.561-6.42,1.377-7.494.949a14.577,14.577,0,0,1-.77-3.747,14.561,14.561,0,0,1,3.812-.813,12.4,12.4,0,0,1,3.919-.053C242.923,872.013,243.272,874.371,242.936,874.775Zm102.457,16.057c2.293-.128,4.117-.166,4.794-.175a.674.674,0,0,0-.009-1.347h0c-.687.011-2.532.048-4.851.178a.673.673,0,1,0,.037,1.346Zm-16.981,5.186a5.569,5.569,0,0,1,1.781-2.286,6.138,6.138,0,0,1,1.2-.657.673.673,0,1,0-.529-1.238,7.479,7.479,0,0,0-1.471.809,6.963,6.963,0,0,0-2.217,2.81.673.673,0,0,0,1.227.554Zm-.731,13.955a.673.673,0,1,0-1.343.1l.072.987c.091,1.238.183,2.517.264,3.8a.673.673,0,0,0,.671.625h.038a.675.675,0,0,0,.624-.714c-.081-1.3-.175-2.579-.265-3.82Zm-1.592-9.612c-.061.8-.091,1.649-.091,2.609,0,.7.016,1.444.048,2.278a.674.674,0,0,0,.673.646h.027a.673.673,0,0,0,.646-.7c-.031-.815-.047-1.542-.047-2.225,0-.924.028-1.744.087-2.5a.674.674,0,0,0-1.344-.1Zm9.687-8.5a.658.658,0,0,0,.122-.011c1.377-.251,2.966-.468,4.721-.651a.673.673,0,0,0-.137-1.339c-1.791.184-3.414.407-4.826.665a.674.674,0,0,0,.12,1.336Zm94.654,62.346h.078c1.617-.187,3.232-.386,4.794-.592a.674.674,0,0,0-.175-1.336c-1.561.206-3.163.4-4.776.59a.673.673,0,0,0,.078,1.342Zm9.556-1.266a.726.726,0,0,0,.1,0c1.784-.273,3.391-.545,4.776-.81a.673.673,0,1,0-.253-1.322c-1.368.261-2.966.531-4.726.8a.673.673,0,0,0,.1,1.339Zm9.228-3.231a.673.673,0,0,0,.209,1.313.688.688,0,0,0,.209-.033c.286-.094.546-.189.781-.282a5.363,5.363,0,0,0,3.1-3.186.674.674,0,0,0-1.257-.485,4.034,4.034,0,0,1-2.357,2.426Zm3.319-11.907c.2,1.909.3,3.458.312,4.735a.671.671,0,0,0,.673.667h0a.673.673,0,0,0,.667-.679c-.011-1.319-.114-2.908-.312-4.86a.673.673,0,0,0-1.34.137Zm.13-9.6-.014-.1a.674.674,0,0,0-1.335.184l.014.1c.228,1.653.443,3.214.634,4.659a.671.671,0,0,0,.667.585h.089a.673.673,0,0,0,.579-.755C453.107,931.422,452.891,929.859,452.663,928.2ZM332.387,952.743a.673.673,0,0,0-1.346.047c.016.442.028.876.041,1.3.037,1.249.072,2.424.167,3.538a.676.676,0,0,0,.671.625h.058a.673.673,0,0,0,.614-.729c-.092-1.076-.127-2.234-.156-3.461Q332.41,953.41,332.387,952.743Zm.106,9.77a7.746,7.746,0,0,0,3.837,3.416.674.674,0,1,0,.549-1.23,6.439,6.439,0,0,1-3.2-2.826.673.673,0,1,0-1.185.64Zm13.534,4.957h0a.674.674,0,0,0,0-1.347,39.189,39.189,0,0,1-4.71-.281.673.673,0,1,0-.173,1.335A40.282,40.282,0,0,0,346.027,967.47Zm4.851-.142c1.076-.064,2.229-.156,3.435-.256a.673.673,0,1,0-.119-1.341c-1.185.1-2.325.191-3.386.253a.673.673,0,0,0,.038,1.346Z" transform="translate(-2.12 -684.895)" fill="#202d37"/>
    <path id="Trazado_58726" data-name="Trazado 58726" d="M320.229,898.665c1.3,3.945,2.81,8.455,6.281,16.533s5.644,7.2,12.021,4.471,21.833-7.612,28.921-10.076,5.976-4.812,4.716-7.561-4.445-12.012-6.644-17.5-4.721-3.981-9.055-2.776-20.3,5.776-32.438,10.511C321.413,893.287,318.932,894.722,320.229,898.665Z" transform="translate(-78.934 -704.529)" fill="#5840d1"/>
    <circle id="Elipse_18498" data-name="Elipse 18498" cx="4.193" cy="4.193" r="4.193" transform="translate(271.04 187.253) rotate(-13.28)" fill="#b8afe6"/>
    <path id="Trazado_58727" data-name="Trazado 58727" d="M513.85,945.8a4.868,4.868,0,1,0,4.863-4.866A4.867,4.867,0,0,0,513.85,945.8Zm8.387,0a3.52,3.52,0,1,1-3.524-3.519A3.52,3.52,0,0,1,522.237,945.8Z" transform="translate(-242.627 -755.432)" fill="#b8afe6"/>
    <path id="Trazado_58728" data-name="Trazado 58728" d="M429.976,935.082h0a4.871,4.871,0,0,0,4.7,5.03h.169a4.866,4.866,0,1,0-4.866-5.033Zm4.983-3.357a3.519,3.519,0,1,1-3.638,3.4h0A3.523,3.523,0,0,1,434.96,931.726ZM433.1,945.8a.673.673,0,0,0,.857.415c3.449-1.2,6.2-2.1,6.232-2.112a.673.673,0,0,0-.42-1.279c-.028,0-2.794.918-6.254,2.118a.673.673,0,0,0-.415.857Zm-2.278-.231c-1.294.51-2.5,1-3.591,1.443-.813.336-1.717.71-2.677,1.112a.673.673,0,0,0,.259,1.294.684.684,0,0,0,.259-.052c.959-.4,1.859-.781,2.671-1.108,1.08-.445,2.281-.937,3.567-1.436a.673.673,0,1,0-.493-1.249Zm-9.242,3.8c-2.154.91-4.289,1.824-6.171,2.642a.674.674,0,1,0,.535,1.236c1.873-.817,4.011-1.728,6.16-2.637a.677.677,0,1,0-.525-1.249Zm-7.97,3.427c-2.668,1.172-4.59,2.051-5.714,2.613a.674.674,0,0,0,.6,1.205c1.1-.553,3.005-1.422,5.653-2.585a.674.674,0,0,0-.542-1.234Z" transform="translate(-152.925 -746.529)" fill="#fff"/>
  </g>
</svg>
