<svg xmlns="http://www.w3.org/2000/svg" width="332.811" height="171.231" viewBox="0 0 332.811 171.231">
  <g id="En_esperar_datod" data-name="En esperar datod" transform="translate(-142.36 -127.582)">
    <rect id="Rectángulo_5921" data-name="Rectángulo 5921" width="171.229" height="109.079" rx="16" transform="translate(232.598 185.442)" fill="#4d76b8"/>
    <rect id="Rectángulo_5922" data-name="Rectángulo 5922" width="156.15" height="94.704" rx="7" transform="translate(240.137 192.63)" fill="#fff"/>
    <path id="Trazado_27918" data-name="Trazado 27918" d="M681.091,276.238h-5.214a6.264,6.264,0,0,1,6.263,6.263v96.552a6.264,6.264,0,0,1-6.263,6.264h5.214a6.264,6.264,0,0,0,6.263-6.264V282.5A6.263,6.263,0,0,0,681.091,276.238ZM703.35,378.13H695.52a.783.783,0,0,1,.783.783h0a6.4,6.4,0,0,1-6.4,6.4h7.829a6.4,6.4,0,0,0,6.4-6.4h0A.783.783,0,0,0,703.35,378.13Z" transform="translate(-278.314 -90.796)" fill="#aaa" opacity="0.19"/>
    <path id="Trazado_27919" data-name="Trazado 27919" d="M500.178,291.264H349.509a2.74,2.74,0,0,0-2.74,2.74v4.588H502.918V294A2.74,2.74,0,0,0,500.178,291.264Z" transform="translate(-106.632 -98.634)" fill="#a9c0ff"/>
    <circle id="Elipse_16959" data-name="Elipse 16959" cx="1.832" cy="1.832" r="1.832" transform="translate(383.642 194.462)" fill="#fff"/>
    <circle id="Elipse_16960" data-name="Elipse 16960" cx="1.832" cy="1.832" r="1.832" transform="translate(375.093 194.462)" fill="#fff"/>
    <circle id="Elipse_16961" data-name="Elipse 16961" cx="1.832" cy="1.832" r="1.832" transform="translate(366.543 194.462)" fill="#fff"/>
    <path id="Trazado_27920" data-name="Trazado 27920" d="M494.548,345.318H307.8c-3.537,0-6.4-7.651-6.4-11.188h0a.783.783,0,0,1,.783-.783H500.17a.783.783,0,0,1,.783.783h0C500.953,337.667,498.086,345.318,494.548,345.318ZM364.378,205.283H317.726a.957.957,0,0,0-.957.957v20.473a.957.957,0,0,0,.957.957H347.77l2.51,4.227a.478.478,0,0,0,.823,0l2.51-4.227h10.765a.957.957,0,0,0,.957-.957V206.24A.957.957,0,0,0,364.378,205.283Z" transform="translate(-82.963 -50.796)" fill="#92b1ef"/>
    <rect id="Rectángulo_5923" data-name="Rectángulo 5923" width="33.752" height="1.435" transform="translate(241.211 158.977)" fill="#456ba3"/>
    <rect id="Rectángulo_5924" data-name="Rectángulo 5924" width="33.752" height="1.435" transform="translate(241.211 164.272)" fill="#456ba3"/>
    <rect id="Rectángulo_5925" data-name="Rectángulo 5925" width="33.752" height="1.435" transform="translate(241.211 169.567)" fill="#456ba3"/>
    <path id="Trazado_27921" data-name="Trazado 27921" d="M205.551,448.186l66.371-.109a4.014,4.014,0,0,0,4.017-4.011l7.963-43.294a4.014,4.014,0,0,0-4.011-4.017l-81.685,15.588a4.044,4.044,0,0,0-.545.036,3.9,3.9,0,0,0-2.855,5.428l6.733,26.361A4.014,4.014,0,0,0,205.551,448.186Z" transform="translate(-27.192 -153.665)" fill="#618ac6"/>
    <path id="Trazado_27922" data-name="Trazado 27922" d="M290.735,411.661h-63.58V328.65a1.913,1.913,0,0,1,1.913-1.913h59.754a1.913,1.913,0,0,1,1.913,1.913Z" transform="translate(-44.234 -117.139)" fill="#a9c0ff"/>
    <rect id="Rectángulo_5926" data-name="Rectángulo 5926" width="21.285" height="1.435" transform="translate(214.711 222.577)" fill="#456ba3"/>
    <rect id="Rectángulo_5927" data-name="Rectángulo 5927" width="21.285" height="1.435" transform="translate(214.711 231.432)" fill="#456ba3"/>
    <rect id="Rectángulo_5928" data-name="Rectángulo 5928" width="21.285" height="1.435" transform="translate(214.711 240.288)" fill="#456ba3"/>
    <path id="Trazado_27923" data-name="Trazado 27923" d="M350.861,455.362H331.747v-19.9h21.965a3.17,3.17,0,0,1,3.1,3.823l-2.852,13.559A3.171,3.171,0,0,1,350.861,455.362Z" transform="translate(-98.796 -173.856)" fill="#4d76b8"/>
    <path id="Trazado_27924" data-name="Trazado 27924" d="M196.676,445.854l68.559.058a4.014,4.014,0,0,0,4.017-4.011L258.2,396.432a4.014,4.014,0,0,0-4.011-4.017l-22.8-.019a4.014,4.014,0,0,0-3.287,1.7l-3.833,9.959a4.014,4.014,0,0,1-3.287,1.7l-35.364-.027a4.014,4.014,0,0,0-4.017,4.011l11.068,32.089A4.014,4.014,0,0,0,196.676,445.854Z" transform="translate(-20.469 -151.391)" fill="#6194e0"/>
    <path id="Trazado_27925" data-name="Trazado 27925" d="M203.734,449.458l-13.2-11.156a.793.793,0,0,0-1.3.605v1.447a.793.793,0,0,1-.793.793H170.183L154.774,439v22.051h33.663a.793.793,0,0,1,.793.793v1.076a.793.793,0,0,0,1.346.568l13.2-12.852a.793.793,0,0,0-.041-1.173Z" transform="translate(-6.476 -175.24)" fill="#4d76b8"/>
    <path id="Trazado_27926" data-name="Trazado 27926" d="M170.183,439.763H156.925a2.151,2.151,0,0,1-2.151-2.151h0a2.151,2.151,0,0,1,2.151-2.151h11.8Z" transform="translate(-6.476 -173.856)" fill="#4469a0"/>
    <path id="Trazado_27927" data-name="Trazado 27927" d="M815.886,329.639V314.6a5.318,5.318,0,0,1,5.318-5.318h0a5.318,5.318,0,0,1,5.318,5.318v15.043Z" transform="translate(-351.351 -108.031)" fill="#4d76b8"/>
    <path id="Trazado_27928" data-name="Trazado 27928" d="M703.244,309.278h0a5.318,5.318,0,0,0-5.318,5.318v77.322c0,2.937-2.381,10.579-5.318,10.579h0c-2.937,0-5.318-7.643-5.318-10.579h50.877c0,2.937,2.381,10.579,5.318,10.579h0c2.937,0,5.318,0,5.318-10.579V314.6a5.318,5.318,0,0,1,5.318-5.318Z" transform="translate(-284.268 -108.031)" fill="#92b1ef"/>
    <path id="Trazado_27929" data-name="Trazado 27929" d="M692.608,492.62h0c-2.937,0-5.318-7.643-5.318-10.579h50.877c0,2.937,2.381,10.579,5.318,10.579Z" transform="translate(-284.268 -198.155)" fill="#d9ebff"/>
    <rect id="Rectángulo_5929" data-name="Rectángulo 5929" width="38.922" height="1.435" transform="translate(420.295 212.004)" fill="#456ba3"/>
    <rect id="Rectángulo_5930" data-name="Rectángulo 5930" width="38.922" height="1.435" transform="translate(420.295 218.833)" fill="#456ba3"/>
    <rect id="Rectángulo_5931" data-name="Rectángulo 5931" width="38.922" height="1.435" transform="translate(420.295 252.98)" fill="#456ba3"/>
    <rect id="Rectángulo_5932" data-name="Rectángulo 5932" width="38.922" height="1.435" transform="translate(420.295 246.202)" fill="#456ba3"/>
    <rect id="Rectángulo_5933" data-name="Rectángulo 5933" width="38.922" height="1.435" transform="translate(420.295 259.81)" fill="#456ba3"/>
    <rect id="Rectángulo_5934" data-name="Rectángulo 5934" width="38.922" height="1.435" transform="translate(420.295 266.866)" fill="#456ba3"/>
    <rect id="Rectángulo_5935" data-name="Rectángulo 5935" width="38.922" height="1.435" transform="translate(420.295 273.922)" fill="#456ba3"/>
    <rect id="Rectángulo_5936" data-name="Rectángulo 5936" width="14.809" height="12.743" transform="translate(442.682 226.752)" fill="#4d76b8"/>
    <rect id="Rectángulo_5937" data-name="Rectángulo 5937" width="14.809" height="12.743" transform="translate(421.628 226.752)" fill="#4d76b8"/>
    <rect id="Rectángulo_5938" data-name="Rectángulo 5938" width="89.75" height="58.595" rx="10.026" transform="translate(348.267 135.692)" fill="#6299e8" opacity="0.28"/>
    <rect id="Rectángulo_5939" data-name="Rectángulo 5939" width="89.75" height="58.595" rx="10.026" transform="translate(357.109 128.3)" fill="#fff"/>
    <path id="Trazado_27930" data-name="Trazado 27930" d="M675.476,215.309H595.318A5.52,5.52,0,0,1,589.8,209.8v-49a5.52,5.52,0,0,1,5.514-5.513h80.158a5.52,5.52,0,0,1,5.514,5.513v49A5.52,5.52,0,0,1,675.476,215.309Zm-80.158-58.6a4.083,4.083,0,0,0-4.078,4.078v49a4.083,4.083,0,0,0,4.078,4.079h80.158a4.083,4.083,0,0,0,4.078-4.079v-49a4.083,4.083,0,0,0-4.078-4.078Z" transform="translate(-233.414 -27.696)" fill="#4d76b8"/>
    <rect id="Rectángulo_5940" data-name="Rectángulo 5940" width="29.059" height="1.435" transform="translate(409.108 150.15)" fill="#4d76b8"/>
    <rect id="Rectángulo_5941" data-name="Rectángulo 5941" width="29.059" height="1.435" transform="translate(409.108 157.296)" fill="#4d76b8"/>
    <rect id="Rectángulo_5942" data-name="Rectángulo 5942" width="29.059" height="1.435" transform="translate(409.108 164.442)" fill="#4d76b8"/>
    <rect id="Rectángulo_5943" data-name="Rectángulo 5943" width="72.11" height="1.435" transform="translate(366.058 171.812)" fill="#4d76b8"/>
    <rect id="Rectángulo_5944" data-name="Rectángulo 5944" width="72.11" height="1.435" transform="translate(366.058 178.356)" fill="#4d76b8"/>
    <rect id="Rectángulo_5945" data-name="Rectángulo 5945" width="32.386" height="20.999" rx="3" transform="translate(367.208 148.365)" fill="#aaa" opacity="0.19"/>
    <rect id="Rectángulo_5946" data-name="Rectángulo 5946" width="89.75" height="1.435" transform="translate(357.109 139.788)" fill="#4d76b8"/>
    <rect id="Rectángulo_5947" data-name="Rectángulo 5947" width="32.386" height="20.999" rx="3" transform="translate(369.598 146.083)" fill="#92b1ef"/>
    <rect id="Rectángulo_5948" data-name="Rectángulo 5948" width="27.931" height="27.931" rx="3" transform="translate(348.267 247.64)" fill="#92b1ef"/>
    <rect id="Rectángulo_5949" data-name="Rectángulo 5949" width="27.931" height="27.931" rx="3" transform="translate(264.184 213.438)" fill="#92b1ef"/>
    <rect id="Rectángulo_5950" data-name="Rectángulo 5950" width="70.33" height="1.435" transform="translate(306.594 216.027)" fill="#4d76b8"/>
    <rect id="Rectángulo_5951" data-name="Rectángulo 5951" width="70.33" height="1.435" transform="translate(306.594 226.322)" fill="#4d76b8"/>
    <rect id="Rectángulo_5952" data-name="Rectángulo 5952" width="70.33" height="1.435" transform="translate(306.594 236.617)" fill="#4d76b8"/>
    <rect id="Rectángulo_5953" data-name="Rectángulo 5953" width="70.33" height="1.435" transform="translate(263.94 251.072)" fill="#4d76b8"/>
    <rect id="Rectángulo_5954" data-name="Rectángulo 5954" width="70.33" height="1.435" transform="translate(263.94 261.366)" fill="#4d76b8"/>
    <rect id="Rectángulo_5955" data-name="Rectángulo 5955" width="70.33" height="1.435" transform="translate(263.94 271.661)" fill="#4d76b8"/>
    <rect id="Rectángulo_5956" data-name="Rectángulo 5956" width="332.811" height="4.305" transform="translate(142.36 294.508)" fill="#456ba3"/>
    <circle id="Elipse_16971" data-name="Elipse 16971" cx="13.249" cy="13.249" r="13.249" transform="translate(314.645 154.487)" fill="#a9c0ff"/>
    <circle id="Elipse_16972" data-name="Elipse 16972" cx="4.68" cy="4.68" r="4.68" transform="translate(323.214 159.998)" fill="#4d76b8"/>
    <path id="Trazado_27932" data-name="Trazado 27932" d="M526.061,230.924a13.216,13.216,0,0,0,10.659-5.4,12.24,12.24,0,0,0-21.318,0A13.216,13.216,0,0,0,526.061,230.924Z" transform="translate(-198.168 -49.94)" fill="#4d76b8"/>
    <circle id="Elipse_16973" data-name="Elipse 16973" cx="9.442" cy="9.442" r="9.442" transform="translate(188.767 217.597)" fill="#779dd8"/>
    <circle id="Elipse_16974" data-name="Elipse 16974" cx="3.335" cy="3.335" r="3.335" transform="translate(194.874 221.524)" fill="#4d76b8"/>
    <path id="Trazado_27933" data-name="Trazado 27933" d="M250.831,373.9a9.419,9.419,0,0,0,7.6-3.851,8.724,8.724,0,0,0-15.194,0A9.419,9.419,0,0,0,250.831,373.9Z" transform="translate(-52.622 -137.421)" fill="#4d76b8"/>
  </g>
</svg>
