<svg xmlns="http://www.w3.org/2000/svg" width="316.088" height="209.115" viewBox="0 0 316.088 209.115">
  <g id="Esperar_informacion" data-name="Esperar informacion" transform="translate(-6299 16115.296)">
    <path id="Trazado_27978" data-name="Trazado 27978" d="M527.18,125.623v61.538a2,2,0,0,1-2,2H463.347a2.01,2.01,0,0,1-2-2V117.094a2,2,0,0,1,2-2h53.289Z" transform="translate(5995.897 -16230.386)" fill="#779dd8"/>
    <rect id="Rectángulo_6040" data-name="Rectángulo 6040" width="14.582" height="14.582" rx="3" transform="translate(6464.795 -16105.407)" fill="#fff"/>
    <rect id="Rectángulo_6041" data-name="Rectángulo 6041" width="14.582" height="14.582" rx="3" transform="translate(6482.868 -16105.407)" fill="#fff"/>
    <rect id="Rectángulo_6042" data-name="Rectángulo 6042" width="50.715" height="2.258" transform="translate(6464.795 -16085.692)" fill="#4d76b8"/>
    <rect id="Rectángulo_6043" data-name="Rectángulo 6043" width="50.715" height="2.258" transform="translate(6464.795 -16078.291)" fill="#4d76b8"/>
    <rect id="Rectángulo_6044" data-name="Rectángulo 6044" width="50.715" height="2.258" transform="translate(6464.795 -16070.892)" fill="#4d76b8"/>
    <rect id="Rectángulo_6045" data-name="Rectángulo 6045" width="50.715" height="2.258" transform="translate(6464.795 -16063.491)" fill="#4d76b8"/>
    <rect id="Rectángulo_6046" data-name="Rectángulo 6046" width="50.715" height="2.258" transform="translate(6464.795 -16056.091)" fill="#4d76b8"/>
    <rect id="Rectángulo_6047" data-name="Rectángulo 6047" width="50.715" height="2.258" transform="translate(6464.795 -16048.69)" fill="#4d76b8"/>
    <path id="Trazado_27979" data-name="Trazado 27979" d="M536.572,125.914H526.74a1,1,0,0,1-1-1v-9.822l10.544,10.534Zm11.508,12.132v61.538a2,2,0,0,1-2.005,2H484.247a2.01,2.01,0,0,1-2-2V129.516a2,2,0,0,1,2-2h53.289Z" transform="translate(5986.796 -16230.386)" fill="#a9c0ff"/>
    <path id="Trazado_27980" data-name="Trazado 27980" d="M591.023,147.918h-9.832a1,1,0,0,1-1-1v-9.822l10.544,10.534Z" transform="translate(5944.144 -16239.968)" fill="#4d76b8"/>
    <rect id="Rectángulo_6048" data-name="Rectángulo 6048" width="17.456" height="15.435" rx="2" transform="translate(6477.462 -16089.467)" fill="#fff"/>
    <rect id="Rectángulo_6049" data-name="Rectángulo 6049" width="46.472" height="1.694" transform="translate(6477.86 -16042.907)" fill="#456ba3"/>
    <rect id="Rectángulo_6050" data-name="Rectángulo 6050" width="46.472" height="1.694" transform="translate(6477.86 -16048.419)" fill="#456ba3"/>
    <rect id="Rectángulo_6051" data-name="Rectángulo 6051" width="46.472" height="1.694" transform="translate(6477.86 -16053.932)" fill="#456ba3"/>
    <rect id="Rectángulo_6052" data-name="Rectángulo 6052" width="46.472" height="1.694" transform="translate(6477.86 -16059.444)" fill="#456ba3"/>
    <rect id="Rectángulo_6053" data-name="Rectángulo 6053" width="46.472" height="1.694" transform="translate(6477.86 -16064.957)" fill="#456ba3"/>
    <rect id="Rectángulo_6054" data-name="Rectángulo 6054" width="46.472" height="1.694" transform="translate(6477.86 -16070.47)" fill="#456ba3"/>
    <rect id="Rectángulo_6055" data-name="Rectángulo 6055" width="24.269" height="1.694" transform="translate(6500.063 -16075.982)" fill="#456ba3"/>
    <rect id="Rectángulo_6056" data-name="Rectángulo 6056" width="24.269" height="1.694" transform="translate(6500.063 -16081.494)" fill="#456ba3"/>
    <rect id="Rectángulo_6057" data-name="Rectángulo 6057" width="24.269" height="1.694" transform="translate(6500.063 -16087.007)" fill="#456ba3"/>
    <rect id="Rectángulo_6058" data-name="Rectángulo 6058" width="26.151" height="26.151" transform="translate(6487.192 -15945.542)" fill="#a9c0ff"/>
    <path id="Trazado_27981" data-name="Trazado 27981" d="M508.129,440.245V417.482a1.694,1.694,0,0,0-1.694-1.694h-4.742A1.694,1.694,0,0,0,500,417.482v30.893a1.694,1.694,0,0,0,1.694,1.694h30.893a1.694,1.694,0,0,0,1.694-1.694v-4.742a1.694,1.694,0,0,0-1.694-1.694H509.823A1.694,1.694,0,0,1,508.129,440.245Z" transform="translate(5979.063 -16361.33)" fill="#6299e8"/>
    <path id="Trazado_27982" data-name="Trazado 27982" d="M544.761,462.111v8.129h24.457a1.694,1.694,0,0,0,1.694-1.694V463.8a1.694,1.694,0,0,0-1.694-1.694Z" transform="translate(5959.571 -16381.502)" fill="#c2d5ff"/>
    <rect id="Rectángulo_6059" data-name="Rectángulo 6059" width="150.391" height="108.877" rx="6" transform="translate(6414.759 -16048.774)" fill="#6299e8"/>
    <path id="Trazado_27984" data-name="Trazado 27984" d="M532.443,342H388.826a4.239,4.239,0,0,1-4.234-4.234v-102.1a4.239,4.239,0,0,1,4.234-4.234H532.443a4.239,4.239,0,0,1,4.234,4.234v102.1A4.239,4.239,0,0,1,532.443,342ZM388.826,233.118a2.543,2.543,0,0,0-2.54,2.54v102.1a2.543,2.543,0,0,0,2.54,2.54H532.443a2.543,2.543,0,0,0,2.54-2.54v-102.1a2.543,2.543,0,0,0-2.54-2.54Z" transform="translate(6029.32 -16281.046)" fill="#4d76b8"/>
    <rect id="Rectángulo_6060" data-name="Rectángulo 6060" width="150.391" height="108.877" rx="6" transform="translate(6424.191 -16048.774)" fill="#fff"/>
    <rect id="Rectángulo_6061" data-name="Rectángulo 6061" width="127.641" height="86.529" rx="6" transform="translate(6435.566 -16037.601)" fill="#d9ebff"/>
    <path id="Trazado_27985" data-name="Trazado 27985" d="M549.151,342H405.534a4.239,4.239,0,0,1-4.234-4.234v-102.1a4.239,4.239,0,0,1,4.234-4.234H549.151a4.239,4.239,0,0,1,4.234,4.234v102.1A4.239,4.239,0,0,1,549.151,342ZM405.534,233.118a2.543,2.543,0,0,0-2.54,2.54v102.1a2.543,2.543,0,0,0,2.54,2.54H549.151a2.543,2.543,0,0,0,2.54-2.54v-102.1a2.543,2.543,0,0,0-2.54-2.54Z" transform="translate(6022.044 -16281.046)" fill="#4d76b8"/>
    <path id="Trazado_27986" data-name="Trazado 27986" d="M547.2,252.718H426.337a3.387,3.387,0,0,0-3.387,3.387v9.327H550.591v-9.327a3.387,3.387,0,0,0-3.387-3.387ZM422.95,328.439v7.422a3.387,3.387,0,0,0,3.387,3.387H547.2a3.387,3.387,0,0,0,3.387-3.387v-7.422Z" transform="translate(6012.616 -16290.318)" fill="#a9c0ff"/>
    <path id="Trazado_27992" data-name="Trazado 27992" d="M216.228,436.418l67.075-.11a4.057,4.057,0,0,0,4.06-4.053L295.41,388.5a4.057,4.057,0,0,0-4.053-4.06l-82.551,15.753a4.08,4.08,0,0,0-.55.037,3.937,3.937,0,0,0-2.885,5.486l6.8,26.641a4.057,4.057,0,0,0,4.053,4.06Z" transform="translate(6107.506 -16347.68)" fill="#618ac6"/>
    <path id="Trazado_27993" data-name="Trazado 27993" d="M297.274,410.308H233.02V326.743a2.258,2.258,0,0,1,2.258-2.258h59.738a2.258,2.258,0,0,1,2.258,2.258Z" transform="translate(6095.325 -16321.57)" fill="#a9c0ff"/>
    <rect id="Rectángulo_6072" data-name="Rectángulo 6072" width="21.511" height="1.694" transform="translate(6360.472 -15984.09)" fill="#456ba3"/>
    <rect id="Rectángulo_6073" data-name="Rectángulo 6073" width="21.511" height="1.694" transform="translate(6360.472 -15975.142)" fill="#456ba3"/>
    <rect id="Rectángulo_6074" data-name="Rectángulo 6074" width="21.511" height="1.694" transform="translate(6360.472 -15966.193)" fill="#456ba3"/>
    <path id="Trazado_27994" data-name="Trazado 27994" d="M341.9,437.7H322.583V417.586h22.2a3.2,3.2,0,0,1,3.136,3.864l-2.882,13.7A3.2,3.2,0,0,1,341.9,437.7Z" transform="translate(6056.322 -16362.112)" fill="#4d76b8"/>
    <path id="Trazado_27995" data-name="Trazado 27995" d="M209.247,434.733l69.286.059a4.057,4.057,0,0,0,4.06-4.053L271.42,384.788a4.057,4.057,0,0,0-4.053-4.06l-23.042-.02A4.056,4.056,0,0,0,241,382.431L237.129,392.5a4.057,4.057,0,0,1-3.322,1.723l-35.739-.028a4.057,4.057,0,0,0-4.06,4.053l11.185,32.429A4.057,4.057,0,0,0,209.247,434.733Z" transform="translate(6112.313 -16346.054)" fill="#6194e0"/>
    <path id="Trazado_27996" data-name="Trazado 27996" d="M224.874,431.322l-13.34-11.274a.8.8,0,0,0-1.318.612v1.462a.8.8,0,0,1-.8.8H190.967l-9.927-2.174v22.285h28.375a.8.8,0,0,1,.8.8v1.087a.8.8,0,0,0,1.36.574l13.34-12.988a.8.8,0,0,0-.042-1.186Z" transform="translate(6117.96 -16363.103)" fill="#4d76b8"/>
    <path id="Trazado_27997" data-name="Trazado 27997" d="M190.967,421.933h-7.753a2.174,2.174,0,0,1-2.173-2.173h0a2.173,2.173,0,0,1,2.173-2.173h6.28Z" transform="translate(6117.96 -16362.112)" fill="#4469a0"/>
    <rect id="Rectángulo_6075" data-name="Rectángulo 6075" width="15.268" height="17.899" rx="1" transform="translate(6335.345 -15983.244)" fill="#d9ebff"/>
    <rect id="Rectángulo_6076" data-name="Rectángulo 6076" width="316.088" height="5.081" transform="translate(6299 -15911.262)" fill="#456ba3"/>
    <path id="Trazado_27998" data-name="Trazado 27998" d="M382.572,242.921H304.51a.828.828,0,0,1-.828-.828V195.918a.828.828,0,0,1,.828-.828h46.613a.828.828,0,0,1,.639.3l9.7,11.757a.828.828,0,0,0,.639.3h20.472a.828.828,0,0,1,.828.828v33.816A.828.828,0,0,1,382.572,242.921Z" transform="translate(6064.554 -16265.224)" fill="#6299e8" opacity="0.28"/>
    <path id="Trazado_27999" data-name="Trazado 27999" d="M369.162,226.249H291.1a.828.828,0,0,1-.828-.828V179.246a.828.828,0,0,1,.828-.828h46.613a.828.828,0,0,1,.639.3l9.7,11.757a.828.828,0,0,0,.639.3h20.473a.828.828,0,0,1,.828.828v33.816A.828.828,0,0,1,369.162,226.249Z" transform="translate(6070.393 -16257.963)" fill="#fff"/>
    <rect id="Rectángulo_6077" data-name="Rectángulo 6077" width="22.664" height="5.562" rx="2" transform="translate(6411.369 -16043.115)" fill="#a9c0ff"/>
    <rect id="Rectángulo_6078" data-name="Rectángulo 6078" width="22.664" height="5.562" rx="2" transform="translate(6411.369 -16052.849)" fill="#a9c0ff"/>
    <path id="Trazado_28000" data-name="Trazado 28000" d="M324.355,239.8H308.176a.828.828,0,0,1-.828-.828V226.535a.828.828,0,0,1,.828-.828h20.962a.828.828,0,0,1,.828.828v8.774a.828.828,0,0,1-.325.658l-4.782,3.66A.828.828,0,0,1,324.355,239.8Z" transform="translate(6062.957 -16278.556)" fill="#a9c0ff"/>
    <rect id="Rectángulo_6079" data-name="Rectángulo 6079" width="18.539" height="5.562" rx="2" transform="translate(6370.305 -16070.924)" fill="#a9c0ff"/>
    <path id="Trazado_28001" data-name="Trazado 28001" d="M368.508,226.442H290.446a1.677,1.677,0,0,1-1.675-1.675V178.593a1.677,1.677,0,0,1,1.675-1.675h46.613a1.668,1.668,0,0,1,1.291.609l9.7,11.758,20.458-.007a1.677,1.677,0,0,1,1.675,1.675v33.815a1.677,1.677,0,0,1-1.675,1.675ZM337.044,178.6l-46.6.007.019,46.156,78.025-.019v-33.8l-20.454.019a1.67,1.67,0,0,1-1.292-.609Z" transform="translate(6071.046 -16257.31)" fill="#4d76b8"/>
    <path id="Trazado_28004" data-name="Trazado 28004" d="M470.084,308.423H440.636a.312.312,0,0,1-.312-.312V290.692a.312.312,0,0,1,.312-.312H458.22a.312.312,0,0,1,.241.114l3.659,4.435a.312.312,0,0,0,.241.114h7.723a.312.312,0,0,1,.312.312V308.11A.312.312,0,0,1,470.084,308.423Zm38.976,0H479.613a.312.312,0,0,1-.312-.312V290.692a.312.312,0,0,1,.312-.312H497.2a.312.312,0,0,1,.241.114l3.659,4.435a.312.312,0,0,0,.241.114h7.723a.312.312,0,0,1,.312.312V308.11a.312.312,0,0,1-.312.312Zm38.976,0H518.589a.312.312,0,0,1-.312-.312V290.692a.312.312,0,0,1,.312-.312h17.584a.312.312,0,0,1,.241.114l3.659,4.435a.312.312,0,0,0,.241.114h7.723a.312.312,0,0,1,.312.312V308.11a.312.312,0,0,1-.312.312Z" transform="translate(6005.05 -16292.514)" fill="#a9c0ff"/>
  </g>
</svg>
