<svg xmlns="http://www.w3.org/2000/svg" width="288.681" height="148.474" viewBox="0 0 288.681 148.474">
  <g id="Esperar_datos" data-name="Esperar datos" transform="translate(-3223 20470.551)">
    <rect id="Rectángulo_5958" data-name="Rectángulo 5958" width="22.665" height="22.665" transform="translate(3359.921 -20356.193)" fill="#a9c0ff"/>
    <rect id="Rectángulo_5959" data-name="Rectángulo 5959" width="288.681" height="4.404" transform="translate(3223 -20326.48)" fill="#456ba3"/>
    <path id="Trazado_27936" data-name="Trazado 27936" d="M453.526,467.567V447.838a1.468,1.468,0,0,0-1.468-1.468h-4.11a1.468,1.468,0,0,0-1.468,1.468v26.775a1.468,1.468,0,0,0,1.468,1.468h26.775a1.468,1.468,0,0,0,1.468-1.468V470.5a1.468,1.468,0,0,0-1.468-1.468H454.994a1.468,1.468,0,0,1-1.468-1.468Z" transform="translate(2906.396 -20802.563)" fill="#6299e8"/>
    <path id="Trazado_27937" data-name="Trazado 27937" d="M491.242,492.693v7.046h21.2a1.468,1.468,0,0,0,1.468-1.468v-4.11a1.468,1.468,0,0,0-1.468-1.468Z" transform="translate(2883.535 -20826.219)" fill="#c2d5ff"/>
    <rect id="Rectángulo_5960" data-name="Rectángulo 5960" width="130.345" height="94.365" rx="6" transform="translate(3297.142 -20450.557)" fill="#6299e8"/>
    <path id="Trazado_27938" data-name="Trazado 27938" d="M459.215,347.839H334.742a3.674,3.674,0,0,1-3.67-3.67V255.676a3.674,3.674,0,0,1,3.67-3.67H459.215a3.674,3.674,0,0,1,3.67,3.67v88.493A3.674,3.674,0,0,1,459.215,347.839ZM334.742,253.474a2.2,2.2,0,0,0-2.2,2.2v88.493a2.2,2.2,0,0,0,2.2,2.2H459.215a2.2,2.2,0,0,0,2.2-2.2V255.676a2.2,2.2,0,0,0-2.2-2.2Z" transform="translate(2965.336 -20703.297)" fill="#4d76b8"/>
    <rect id="Rectángulo_5961" data-name="Rectángulo 5961" width="130.345" height="94.365" rx="6" transform="translate(3305.317 -20450.557)" fill="#fff"/>
    <rect id="Rectángulo_5962" data-name="Rectángulo 5962" width="110.627" height="74.995" rx="6" transform="translate(3315.176 -20440.873)" fill="#d9ebff"/>
    <path id="Trazado_27939" data-name="Trazado 27939" d="M475.924,347.839H351.45a3.674,3.674,0,0,1-3.67-3.67V255.676a3.674,3.674,0,0,1,3.67-3.67H475.924a3.674,3.674,0,0,1,3.67,3.67v88.493A3.674,3.674,0,0,1,475.924,347.839ZM351.45,253.474a2.2,2.2,0,0,0-2.2,2.2v88.493a2.2,2.2,0,0,0,2.2,2.2H475.924a2.2,2.2,0,0,0,2.2-2.2V255.676a2.2,2.2,0,0,0-2.2-2.2Z" transform="translate(2956.803 -20703.297)" fill="#4d76b8"/>
    <path id="Trazado_27940" data-name="Trazado 27940" d="M477.122,273.3H372.366a2.936,2.936,0,0,0-2.936,2.936v8.084H480.057v-8.084A2.936,2.936,0,0,0,477.122,273.3ZM369.43,338.927v6.433a2.936,2.936,0,0,0,2.936,2.936H477.122a2.936,2.936,0,0,0,2.936-2.936v-6.433Z" transform="translate(2945.746 -20714.172)" fill="#a9c0ff"/>
    <rect id="Rectángulo_5966" data-name="Rectángulo 5966" width="74.119" height="0.979" transform="translate(3334.194 -20414.709)" fill="#456ba3"/>
    <rect id="Rectángulo_5967" data-name="Rectángulo 5967" width="74.119" height="0.979" transform="translate(3334.194 -20406.35)" fill="#456ba3"/>
    <rect id="Rectángulo_5968" data-name="Rectángulo 5968" width="74.119" height="0.979" transform="translate(3334.194 -20397.99)" fill="#456ba3"/>
    <rect id="Rectángulo_6000" data-name="Rectángulo 6000" width="74.119" height="0.979" transform="translate(3333.431 -20389.633)" fill="#456ba3"/>
    <rect id="Rectángulo_5980" data-name="Rectángulo 5980" width="39.922" height="58.739" rx="3" transform="translate(3455.953 -20464.139)" fill="#6299e8" opacity="0.28"/>
    <rect id="Rectángulo_5981" data-name="Rectángulo 5981" width="41.082" height="58.739" rx="3" transform="translate(3463.969 -20470.551)" fill="#a9c0ff"/>
    <rect id="Rectángulo_5982" data-name="Rectángulo 5982" width="16.719" height="1.471" transform="translate(3470.959 -20455.324)" fill="#4d76b8"/>
    <rect id="Rectángulo_5983" data-name="Rectángulo 5983" width="19.966" height="1.471" transform="translate(3470.959 -20460.738)" fill="#4d76b8"/>
    <rect id="Rectángulo_5984" data-name="Rectángulo 5984" width="27.724" height="1.471" transform="translate(3470.959 -20449.912)" fill="#456ba3"/>
    <rect id="Rectángulo_5985" data-name="Rectángulo 5985" width="27.724" height="17.202" rx="2" transform="translate(3470.959 -20438.805)" fill="#fafafa"/>
    <path id="Trazado_27944" data-name="Trazado 27944" d="M732.875,439.438H699.783a1.659,1.659,0,0,0-1.658,1.658v3.235a1.546,1.546,0,0,0,1.545,1.551h33.32a1.546,1.546,0,0,0,1.545-1.551V441.1a1.659,1.659,0,0,0-1.658-1.658Zm0,0,0-54.229H699.783a1.659,1.659,0,0,0-1.658,1.658V390.1a1.546,1.546,0,0,0,1.545,1.551h33.32a1.546,1.546,0,0,0,1.545-1.551v-3.235a1.659,1.659,0,0,0-1.658-1.658Zm0,0" transform="translate(2750.805 -20771.326)" fill="#456ba3"/>
    <path id="Trazado_27945" data-name="Trazado 27945" d="M729.913,426.711a16.678,16.678,0,0,0-7.011-3.58,1.653,1.653,0,0,1-1.293-1.59v-.247a1.654,1.654,0,0,1,1.293-1.59,16.658,16.658,0,0,0,7.011-3.57,12.74,12.74,0,0,0,0-19.786H707.171a12.732,12.732,0,0,0,0,19.781,16.738,16.738,0,0,0,7.007,3.575,1.648,1.648,0,0,1,1.293,1.59v.246a1.647,1.647,0,0,1-1.293,1.59,16.6,16.6,0,0,0-7.007,3.57,12.744,12.744,0,0,0-.005,19.79h22.747A12.733,12.733,0,0,0,729.913,426.711Zm0,0" transform="translate(2748.593 -20777.016)" fill="#a9c0ff"/>
    <path id="Trazado_27946" data-name="Trazado 27946" d="M737.677,426.711a16.677,16.677,0,0,0-7.012-3.58,1.653,1.653,0,0,1-1.293-1.59v-.247a1.654,1.654,0,0,1,1.293-1.59,16.658,16.658,0,0,0,7.012-3.57,12.74,12.74,0,0,0,0-19.786H714.935a12.732,12.732,0,0,0,0,19.781,16.738,16.738,0,0,0,7.007,3.575,1.648,1.648,0,0,1,1.293,1.59v.246a1.647,1.647,0,0,1-1.293,1.59,16.6,16.6,0,0,0-7.007,3.57,12.744,12.744,0,0,0,0,19.79h22.747A12.734,12.734,0,0,0,737.677,426.711Zm0,0" transform="translate(2744.628 -20777.016)" fill="#d9ebff"/>
    <path id="Trazado_27947" data-name="Trazado 27947" d="M729.188,432.057v-4.616a3.08,3.08,0,0,1,2.385-2.973,15.6,15.6,0,0,0,6.548-3.333,11.9,11.9,0,0,0,4.315-9.015,11.35,11.35,0,0,0-.1-1.468c-2.494-1.213-6.113-2.34-17.129-.6-7.3,1.15-10.617-.282-12.107-1.585a11.139,11.139,0,0,0-.618,3.644,11.913,11.913,0,0,0,4.32,9.016,15.669,15.669,0,0,0,6.548,3.337,3.078,3.078,0,0,1,2.38,2.968v4.621a10.607,10.607,0,0,1-7.406,10.112L712.533,444a11.932,11.932,0,0,0,3.882,7.688H738.5A11.933,11.933,0,0,0,742.381,444l-5.787-1.832a10.606,10.606,0,0,1-7.407-10.112Zm0,0" transform="translate(2743.474 -20783.207)" fill="#a9c0ff"/>
    <path id="Trazado_27948" data-name="Trazado 27948" d="M740.641,439.438H707.549a1.656,1.656,0,0,0-1.658,1.66v3.233a1.546,1.546,0,0,0,1.545,1.551h33.32a1.546,1.546,0,0,0,1.545-1.551V441.1a1.656,1.656,0,0,0-1.658-1.66Zm0,0,0-54.229H707.549a1.659,1.659,0,0,0-1.658,1.658V390.1a1.546,1.546,0,0,0,1.545,1.551h33.32A1.546,1.546,0,0,0,742.3,390.1v-3.235A1.659,1.659,0,0,0,740.641,385.209Zm0,0" transform="translate(2746.839 -20771.326)" fill="#6299e8"/>
    <path id="Trazado_27949" data-name="Trazado 27949" d="M287.352,452.849H204.6a1.908,1.908,0,0,1-1.908-1.908l8.041-50.183a1.908,1.908,0,0,1,1.908-1.908H275.9a1.908,1.908,0,0,1,1.908,1.908l11.45,50.183A1.908,1.908,0,0,1,287.352,452.849Z" transform="translate(3030.9 -20778.293)" fill="#a9c0ff"/>
    <path id="Trazado_27950" data-name="Trazado 27950" d="M286.586,452.817H203.839a2.645,2.645,0,0,1-2.642-2.642l.009-.116,8.034-50.13a2.645,2.645,0,0,1,2.641-2.579h63.256a2.646,2.646,0,0,1,2.641,2.553l11.451,50.189v.083A2.645,2.645,0,0,1,286.586,452.817Zm-83.921-2.591a1.176,1.176,0,0,0,1.174,1.123h82.747a1.176,1.176,0,0,0,1.172-1.1L276.31,400.074v-.083a1.176,1.176,0,0,0-1.174-1.174H211.88a1.176,1.176,0,0,0-1.174,1.174l-.009.116Z" transform="translate(3031.666 -20777.525)" fill="#4d76b8"/>
    <path id="Trazado_27951" data-name="Trazado 27951" d="M315.845,452.849H233.1a1.908,1.908,0,0,1-1.908-1.908l-11.45-50.183a1.908,1.908,0,0,1,1.908-1.908H304.4a1.908,1.908,0,0,1,1.908,1.908l11.45,50.183a1.908,1.908,0,0,1-1.908,1.908Z" transform="translate(3022.196 -20778.293)" fill="#fff"/>
    <rect id="Rectángulo_5987" data-name="Rectángulo 5987" width="1.468" height="34.555" transform="translate(3310.246 -20364.727) rotate(-12.854)" fill="#4d76b8"/>
    <rect id="Rectángulo_5988" data-name="Rectángulo 5988" width="1.468" height="34.555" transform="translate(3295.351 -20364.729) rotate(-12.853)" fill="#4d76b8"/>
    <rect id="Rectángulo_5989" data-name="Rectángulo 5989" width="1.468" height="34.555" transform="translate(3280.455 -20364.729) rotate(-12.853)" fill="#4d76b8"/>
    <rect id="Rectángulo_5990" data-name="Rectángulo 5990" width="1.468" height="34.555" transform="translate(3265.561 -20364.727) rotate(-12.854)" fill="#4d76b8"/>
    <rect id="Rectángulo_5991" data-name="Rectángulo 5991" width="63.621" height="1.468" transform="translate(3261.822 -20343.398)" fill="#4d76b8"/>
    <rect id="Rectángulo_5992" data-name="Rectángulo 5992" width="63.621" height="1.468" transform="translate(3258.781 -20356.262)" fill="#4d76b8"/>
    <rect id="Rectángulo_5993" data-name="Rectángulo 5993" width="11.385" height="1.468" transform="matrix(0.555, -0.832, 0.832, 0.555, 3288.402, -20344.867)" fill="#4d76b8"/>
    <rect id="Rectángulo_5994" data-name="Rectángulo 5994" width="1.468" height="11.386" transform="matrix(0.555, -0.832, 0.832, 0.555, 3287.026, -20351.746)" fill="#4d76b8"/>
    <path id="Trazado_27952" data-name="Trazado 27952" d="M315.079,452.817H232.332a2.646,2.646,0,0,1-2.641-2.553l-11.452-50.189v-.083a2.645,2.645,0,0,1,2.642-2.642h82.747a2.646,2.646,0,0,1,2.641,2.553l11.452,50.189v.083A2.645,2.645,0,0,1,315.079,452.817Zm-95.37-52.9,11.448,50.173v.083a1.176,1.176,0,0,0,1.174,1.174h82.747a1.176,1.176,0,0,0,1.172-1.1L304.8,400.074v-.083a1.176,1.176,0,0,0-1.174-1.174H220.882A1.176,1.176,0,0,0,219.71,399.919Z" transform="translate(3022.962 -20777.525)" fill="#4d76b8"/>
    <rect id="Rectángulo_5995" data-name="Rectángulo 5995" width="86.564" height="1.468" transform="translate(3243.916 -20369.588)" fill="#4d76b8"/>
    <path id="Trazado_27953" data-name="Trazado 27953" d="M301.842,398.482c-3.414,0-6.192-3.757-6.192-8.375s2.778-8.375,6.192-8.375,6.192,3.757,6.192,8.375h-1.468c0-3.744-2.163-6.907-4.724-6.907s-4.724,3.163-4.724,6.907c0,3.806,2.252,7.009,4.851,6.9l.06,1.466Q301.936,398.482,301.842,398.482Zm-17.221,0c-3.414,0-6.192-3.757-6.192-8.375s2.778-8.375,6.192-8.375,6.192,3.757,6.192,8.375h-1.468c0-3.744-2.163-6.907-4.724-6.907s-4.724,3.163-4.724,6.907c0,3.806,2.246,7.009,4.852,6.9l.06,1.466Q284.715,398.482,284.621,398.482Zm-17.221,0c-3.414,0-6.192-3.757-6.192-8.375s2.778-8.375,6.192-8.375,6.192,3.757,6.192,8.375h-1.468c0-3.744-2.163-6.907-4.724-6.907s-4.724,3.163-4.724,6.907c0,3.806,2.24,7.009,4.852,6.9l.06,1.466Q267.494,398.482,267.4,398.482Zm-17.221,0c-3.414,0-6.192-3.757-6.192-8.375s2.778-8.375,6.192-8.375,6.192,3.757,6.192,8.375H254.9c0-3.744-2.164-6.907-4.724-6.907s-4.724,3.163-4.724,6.907,2.163,6.907,4.724,6.907l.128,0,.06,1.466C250.3,398.481,250.242,398.482,250.179,398.482Z" transform="translate(3009.812 -20769.551)" fill="#4d76b8"/>
    <path id="Trazado_27954" data-name="Trazado 27954" d="M408.241,161.194h-5.77a18.983,18.983,0,1,0,0,37.965h5.77" transform="translate(2847.277 -20618.98)" fill="#6299e8"/>
    <path id="Trazado_27955" data-name="Trazado 27955" d="M407.475,199.127H401.7a19.717,19.717,0,1,1,0-39.433h5.77v1.468H401.7a18.249,18.249,0,1,0,0,36.5h5.77Z" transform="translate(2848.043 -20618.215)" fill="#4d76b8"/>
    <circle id="Elipse_16978" data-name="Elipse 16978" cx="18.983" cy="18.983" r="18.983" transform="translate(3238.868 -20457.787)" fill="#a9c0ff"/>
    <path id="Trazado_27956" data-name="Trazado 27956" d="M418.264,199.127a19.717,19.717,0,1,1,19.717-19.717,19.717,19.717,0,0,1-19.717,19.717Zm0-37.965a18.249,18.249,0,1,0,18.249,18.249,18.249,18.249,0,0,0-18.249-18.249Z" transform="translate(2839.586 -20618.215)" fill="#4d76b8"/>
    <rect id="Rectángulo_5996" data-name="Rectángulo 5996" width="3.533" height="1.468" transform="translate(3238.868 -20439.539)" fill="#4d76b8"/>
    <rect id="Rectángulo_5997" data-name="Rectángulo 5997" width="3.533" height="1.468" transform="translate(3273.3 -20439.539)" fill="#4d76b8"/>
    <rect id="Rectángulo_5998" data-name="Rectángulo 5998" width="1.468" height="3.533" transform="translate(3257.116 -20423.354)" fill="#4d76b8"/>
    <rect id="Rectángulo_5999" data-name="Rectángulo 5999" width="1.468" height="3.533" transform="translate(3257.116 -20457.787)" fill="#4d76b8"/>
    <path id="Trazado_27957" data-name="Trazado 27957" d="M431.516,181.64c.262.748.465,1.5.656,2.245a1.574,1.574,0,0,1,.093.561,5.242,5.242,0,0,0-.015.561v5.857l-.147.2-3.511,4.672-1.752,2.338a1.679,1.679,0,0,1-.523.521l-.591.47c-.4.306-.806.613-1.232.9.16-.489.343-.961.524-1.434l.287-.7a1.676,1.676,0,0,1,.355-.647l1.758-2.334,3.511-4.672-.147.441v-5.612a5.163,5.163,0,0,0-.015-.561,1.57,1.57,0,0,1,.093-.561C431.051,183.136,431.254,182.388,431.516,181.64Z" transform="translate(2826.334 -20629.424)" fill="#4d76b8"/>
    <path id="Trazado_27958" data-name="Trazado 27958" d="M3-2.181v-.849A2.708,2.708,0,0,1,1.289-3.8,2.284,2.284,0,0,1,.66-5.457h.971a1.679,1.679,0,0,0,.347,1.042A1.614,1.614,0,0,0,3-3.825V-6.814q-.077-.022-.16-.05t-.16-.05a3.249,3.249,0,0,1-1.323-.767,1.676,1.676,0,0,1-.43-1.2,1.938,1.938,0,0,1,.546-1.434A2.342,2.342,0,0,1,3-10.972v-.893h.761v.893a2.335,2.335,0,0,1,1.478.695A2.038,2.038,0,0,1,5.8-8.854H4.829a1.363,1.363,0,0,0-.265-.789,1.316,1.316,0,0,0-.805-.513v2.669a1.625,1.625,0,0,1,.176.055,1.4,1.4,0,0,0,.187.055,5.635,5.635,0,0,1,.993.463,1.95,1.95,0,0,1,.689.684,2.076,2.076,0,0,1,.248,1.07,2.014,2.014,0,0,1-.254.982,2.136,2.136,0,0,1-.767.783,2.752,2.752,0,0,1-1.274.375v.838ZM1.884-8.964a.961.961,0,0,0,.3.767A2.567,2.567,0,0,0,3-7.751v-2.426a1.393,1.393,0,0,0-.805.392A1.122,1.122,0,0,0,1.884-8.964ZM5.094-5.1a1.158,1.158,0,0,0-.375-.949,3.027,3.027,0,0,0-.96-.507V-3.8a1.575,1.575,0,0,0,.987-.441A1.2,1.2,0,0,0,5.094-5.1Z" transform="translate(3481.756 -20423.441)" fill="#456ba3"/>
  </g>
</svg>
