<svg width="539" height="843" viewBox="0 0 539 843" fill="none" xmlns="http://www.w3.org/2000/svg">
<g clip-path="url(#clip0_268_727)">
<path d="M3.05176e-05 333.705C35.489 333.705 64.2584 304.936 64.2584 269.447C64.2584 233.958 35.489 205.188 3.05176e-05 205.188C-35.489 205.188 -64.2585 233.958 -64.2585 269.447C-64.2585 304.936 -35.489 333.705 3.05176e-05 333.705Z" fill="#DBFA6E"/>
<path d="M625.991 166.257L620.384 174.26C618.581 176.827 617.59 179.881 617.537 183.014L617.37 192.779C617.257 199.398 613.013 205.231 606.754 207.38L597.527 210.546C594.547 211.564 591.946 213.46 590.057 215.974L584.21 223.764C580.232 229.066 573.354 231.301 567.021 229.345L557.715 226.478C554.702 225.553 551.482 225.553 548.469 226.478L539.163 229.345C532.83 231.294 525.952 229.059 521.974 223.764L516.127 215.974C514.238 213.46 511.637 211.564 508.657 210.546L499.43 207.38C493.171 205.231 488.927 199.398 488.814 192.779L488.647 183.014C488.594 179.874 487.603 176.827 485.8 174.26L480.193 166.257C476.394 160.843 476.394 153.632 480.193 148.217L485.8 140.215C487.603 137.647 488.594 134.594 488.647 131.461L488.814 121.695C488.927 115.077 493.171 109.243 499.43 107.094L508.657 103.928C511.637 102.91 514.238 101.014 516.127 98.4998L521.974 90.7102C525.952 85.4086 532.83 83.1735 539.163 85.1292L548.469 87.9962C551.482 88.9209 554.702 88.9209 557.715 87.9962L567.021 85.1292C573.354 83.1801 580.232 85.4152 584.21 90.7102L590.057 98.4998C591.946 101.014 594.547 102.91 597.527 103.928L606.754 107.094C613.013 109.243 617.257 115.077 617.37 121.695L617.537 131.461C617.59 134.6 618.581 137.647 620.384 140.215L625.991 148.217C629.79 153.632 629.79 160.843 625.991 166.257Z" fill="#5C3FD9"/>
<path d="M504.806 870.692C496.791 910.47 457.993 936.256 418.215 928.241L369.412 918.407C356.566 915.819 348.24 903.291 350.828 890.445L370.494 792.846C373.082 779.999 385.61 771.673 398.456 774.261L447.259 784.095C487.037 792.11 512.822 830.908 504.807 870.686L504.806 870.692Z" fill="#5BC5B9"/>
<path d="M-96.0783 604.861L23.2324 574.315C36.0775 571.022 48.1775 581.785 46.4015 594.929L29.9244 716.981C27.9221 731.821 10.1546 738.4 -1.03413 728.449L-103.868 636.943C-115.056 626.985 -110.586 608.579 -96.0783 604.861Z" fill="#B9EBE7"/>
</g>
<defs>
<clipPath id="clip0_268_727">
<rect width="539" height="843" fill="white"/>
</clipPath>
</defs>
</svg>
