<svg width="22" height="21" viewBox="0 0 22 21" fill="none" xmlns="http://www.w3.org/2000/svg">
<g id="Group 16">
<path id="Trazado_58467" d="M8.46932 13.989C8.50728 13.9937 8.54524 14.0032 8.58795 14.0079C8.63066 14.0127 8.66862 14.0174 8.70659 14.0222C8.74455 14.0269 8.78726 14.0317 8.82522 14.0364C8.9059 14.0459 8.98182 14.0506 9.0625 14.0554C9.10046 14.0554 9.14317 14.0554 9.18113 14.0554C9.2191 14.0554 9.26181 14.0554 9.29977 14.0554H9.41841C9.45637 14.0554 9.49908 14.0554 9.53704 14.0554C9.57501 14.0554 9.61771 14.0554 9.65568 14.0506C9.80753 14.0412 9.95464 14.0222 10.1065 13.9984C11.7911 13.7232 13.21 12.5938 13.8601 11.0136L13.4283 10.5817C13.2622 10.4156 13.0724 10.2875 12.8589 10.1926L12.8399 10.1831C12.8399 10.1831 12.7972 10.1641 12.7734 10.1546C12.5694 10.074 12.3558 10.0313 12.1375 10.0265H12.0237C11.7389 10.8949 11.0603 11.5783 10.1919 11.8582C9.87871 11.9626 9.55128 12.0101 9.22384 12.0006H9.21435C9.18113 12.0006 9.14317 12.0006 9.10995 11.9959C9.09571 11.9959 9.08622 11.9959 9.07199 11.9959C9.04826 11.9959 9.02453 11.9959 8.99606 11.9911C8.9581 11.9911 8.92488 11.9864 8.88692 11.9769C8.84421 11.9721 8.79675 11.9626 8.75404 11.9532H8.74455C8.71133 11.9437 8.68286 11.9389 8.64964 11.9294C8.62592 11.9294 8.60219 11.9199 8.57846 11.9152C8.5405 11.9057 8.50728 11.8962 8.47406 11.8867C8.43135 11.8725 8.38864 11.863 8.34593 11.8488C8.31746 11.8393 8.28899 11.8298 8.26052 11.8155C8.23679 11.806 8.21306 11.7966 8.18459 11.7871C8.1751 11.7871 8.16561 11.7823 8.15612 11.7776C8.1229 11.7633 8.09443 11.7491 8.06121 11.7349C8.02324 11.7159 7.99003 11.6969 7.95206 11.6827C7.9141 11.6684 7.88088 11.6447 7.84766 11.6257L7.82868 11.6162C7.78597 11.5925 7.74801 11.5688 7.71004 11.5403C7.67683 11.5166 7.63886 11.4928 7.61039 11.4691C7.48701 11.379 7.36837 11.2793 7.26397 11.1749L3.20187 7.09382C2.08194 5.97389 2.08194 4.15639 3.20187 3.03646C4.32179 1.91653 6.1393 1.91653 7.25923 3.03646L10.4624 6.23964C10.6807 6.17795 10.899 6.13049 11.122 6.09253C11.6013 6.01186 12.0901 5.99288 12.5741 6.03558C12.6358 6.03558 12.6975 6.04507 12.7592 6.05457C12.9111 6.07355 13.0582 6.09253 13.2053 6.121C13.0771 5.95017 12.9348 5.79357 12.7829 5.64171L8.71608 1.57961C6.81315 -0.366026 3.69065 -0.399244 1.74501 1.50368C-0.200621 3.40661 -0.233839 6.52911 1.66909 8.47474C1.69281 8.49847 1.71654 8.52694 1.74501 8.55067L5.80712 12.6128C6.28641 13.0921 6.86061 13.467 7.49175 13.7137C7.58666 13.7517 7.67683 13.7849 7.77648 13.8134C7.84292 13.8324 7.90461 13.8513 7.97104 13.8703C8.0185 13.8846 8.06595 13.894 8.11341 13.9083C8.19408 13.9273 8.27001 13.9462 8.35068 13.9605C8.38864 13.9652 8.43135 13.9747 8.46932 13.9842V13.989Z" fill="#5840D1"/>
<path id="Trazado_58468" d="M19.6305 12.4937L15.5684 8.4316C15.4166 8.27974 15.2552 8.14212 15.0891 8.00925C14.7237 7.72452 14.3156 7.49674 13.8838 7.32591C13.4852 7.16931 13.0676 7.06491 12.6452 7.01745C12.5978 7.01271 12.5503 7.00796 12.4981 7.00322C10.3579 6.81814 8.34112 8.04722 7.5249 10.0356L7.95674 10.4674C8.32688 10.8375 8.83465 11.0368 9.35665 11.0179C9.85492 9.50881 11.4779 8.6926 12.9869 9.19087C13.0344 9.2051 13.0866 9.22409 13.134 9.24307C13.172 9.25731 13.21 9.27154 13.2479 9.29052C13.5706 9.43289 13.8648 9.6322 14.1116 9.8837L18.1737 13.9458C19.2936 15.0657 19.2936 16.8832 18.1737 18.0032C17.0538 19.1231 15.2363 19.1231 14.1163 18.0032L10.9132 14.8C10.021 15.0515 9.08616 15.0942 8.17503 14.9186C8.30316 15.0895 8.44552 15.2461 8.59263 15.3979L12.6547 19.46C14.5577 21.4057 17.6802 21.4389 19.6258 19.5359C21.5714 17.633 21.6046 14.5105 19.7017 12.5649C19.678 12.5412 19.6543 12.5127 19.6258 12.489L19.6305 12.4937Z" fill="#5840D1"/>
</g>
</svg>
