<svg xmlns="http://www.w3.org/2000/svg" width="30.138" height="29.303" viewBox="0 0 30.138 29.303">
  <g id="Retiros" transform="translate(-1053 -210.348)">
    <g id="withdrawal" transform="translate(1053 210.348)">
      <path id="Trazado_27838" data-name="Trazado 27838" d="M85.474,70.093v7.114c0,.169,0,.337,0,.506a.887.887,0,0,1-.892.886c-.826.01-1.652,0-2.478,0l.33.33V73.84a.336.336,0,0,0-.33-.33H62.731c-.886,0-1.778-.026-2.667,0h-.036a.336.336,0,0,0-.33.33v5.089l.33-.33H57.864a1.211,1.211,0,0,1-.935-.241.969.969,0,0,1-.271-.75V70.13a.891.891,0,0,1,.608-.872,2.06,2.06,0,0,1,.6-.043H83c.532,0,1.064-.01,1.593,0a.889.889,0,0,1,.886.879.331.331,0,0,0,.661,0A1.552,1.552,0,0,0,84.78,68.57a2.478,2.478,0,0,0-.271-.013H59.493c-.641,0-1.285,0-1.926,0A1.564,1.564,0,0,0,56,70.153v7.53a1.589,1.589,0,0,0,.664,1.308,1.967,1.967,0,0,0,1.2.274h2.164a.336.336,0,0,0,.33-.33V73.847l-.33.33H81.2c.284,0,.578.02.866,0h.036l-.33-.33v5.089a.336.336,0,0,0,.33.33H84.5a1.577,1.577,0,0,0,1.5-.892,2.039,2.039,0,0,0,.145-.876V70.1A.332.332,0,0,0,85.474,70.093Zm-3.7,23.024v2.99a1.486,1.486,0,0,1-.056.525.889.889,0,0,1-.823.568H61.31a.9.9,0,0,1-.909-.608,1.692,1.692,0,0,1-.043-.5V93.121H59.7a1.562,1.562,0,0,0,1.536,1.54H80.855a1.54,1.54,0,0,0,1.576-1.54.329.329,0,0,0-.658,0,.888.888,0,0,1-.886.879H61.693a1.579,1.579,0,0,1-.955-.159.888.888,0,0,1-.373-.72.331.331,0,0,0-.661,0v3.033a1.949,1.949,0,0,0,.086.677,1.553,1.553,0,0,0,1.094.988,2.624,2.624,0,0,0,.578.043h19.4a1.572,1.572,0,0,0,1.5-1.051,2.018,2.018,0,0,0,.079-.674V93.117A.336.336,0,0,0,81.773,93.117Z" transform="translate(-56 -68.556)" fill="#17b8ab"/>
      <path id="Trazado_27839" data-name="Trazado 27839" d="M190.126,218.293v18.831c0,.145,0,.291,0,.436a.888.888,0,0,1-.9.889c-.479.007-.962,0-1.441,0H170.04c-.142,0-.287,0-.43,0a.891.891,0,0,1-.892-.9c-.007-.482,0-.965,0-1.447v-17.82l-.33.33H187.76c.886,0,1.778.026,2.667,0h.036a.331.331,0,0,0,0-.661H171.09c-.886,0-1.778-.026-2.667,0h-.036a.336.336,0,0,0-.33.33v18.9c0,.126,0,.248,0,.373a1.561,1.561,0,0,0,1.55,1.54c.466.007.935,0,1.4,0h17.826c.135,0,.271,0,.406,0a1.563,1.563,0,0,0,1.546-1.543c.007-.449,0-.9,0-1.351V218.283A.331.331,0,0,0,190.126,218.293Z" transform="translate(-164.353 -213.008)" fill="#17b8ab"/>
    </g>
    <g id="Transacciones_Icon" data-name="Transacciones Icon" transform="translate(1065.919 219.719)">
      <g id="Grupo_45542" data-name="Grupo 45542" transform="translate(0 10.563) rotate(-90)">
        <path id="Trazado_27850" data-name="Trazado 27850" d="M0,2.414,1.606,0" transform="matrix(0.978, 0.208, -0.208, 0.978, 0.688, 0)" fill="none" stroke="#17b8ab" stroke-linecap="round" stroke-linejoin="round" stroke-width="0.75"/>
        <path id="Trazado_27851" data-name="Trazado 27851" d="M0,2.346,1.6,0" transform="translate(2.524 2.706) rotate(97)" fill="none" stroke="#17b8ab" stroke-linecap="round" stroke-linejoin="round" stroke-width="0.75"/>
        <path id="Trazado_27853" data-name="Trazado 27853" d="M0,0H10" transform="translate(0.565 2.421)" fill="none" stroke="#17b8ab" stroke-linecap="round" stroke-linejoin="round" stroke-width="0.75"/>
      </g>
    </g>
  </g>
</svg>
