<svg width="386" height="246" viewBox="0 0 386 246" fill="none" xmlns="http://www.w3.org/2000/svg">
<path d="M356.713 180.997C333.8 204.873 296.37 223.884 241.346 230.383C229.466 231.765 217.525 232.551 205.567 232.737C190.142 233.005 174.716 232.329 159.374 230.714C111.801 225.722 69.2122 212.184 40.1841 195.027C2.06301 172.498 -12.673 143.724 15.409 119.859C30.5494 106.997 47.3019 114.241 74.1932 115.8C86.4207 116.554 98.6946 115.784 110.732 113.509C137.108 108.551 170.675 95.1897 214.767 63.3494C347.824 -32.7376 433.224 101.271 356.713 180.997Z" fill="#937FF5"/>
<path d="M200.651 165.29L200.679 165.414C203.932 175.72 203.023 177.601 196.78 179.405C195.516 179.768 193.041 180.534 189.82 181.555L189.858 181.676C186.118 197.832 173.835 225.895 153.543 215.066L153.512 215.077C155.834 221.36 158.091 227.323 159.381 230.714C111.808 225.722 69.2195 212.184 40.1914 195.027C42.2605 185.016 45.78 175.167 49.5345 167.442C58.4149 149.183 75.3799 131.221 75.3799 131.221L74.2005 115.796L71.6705 82.7784C57.7321 83.1546 55.8059 76.9472 59.6074 73.7362C57.2957 73.9676 54.6603 74.0993 51.7071 74.0993C37.0877 74.0993 39.9356 59.9125 48.6862 57.3581C54.9989 55.5128 62.7939 58.1556 67.5172 61.8726C67.9141 58.7425 68.7361 55.7912 70.0397 53.9064C78.0322 42.355 91.5831 46.9466 91.5831 46.9466C96.2387 48.6884 99.7957 53.8387 99.7957 53.8387C99.7957 53.8387 123.151 61.8161 123.873 65.0459C124.556 68.0856 102.982 74.0861 102.982 74.0861L110.725 113.496L113.211 126.157C113.211 126.157 130.639 133.905 134.172 141.265C147.527 137.691 173.687 131.612 182.23 128.817C191.664 125.728 192.077 129.682 193.778 136.777C197.128 134.584 201.214 134.119 202.327 137.515C202.816 139.004 202.25 140.447 201.121 141.706C203.048 141.352 204.746 141.894 205.414 143.842C206.003 145.56 205.277 147.193 203.935 148.532C204.985 148.688 205.835 149.311 206.255 150.556C206.772 152.089 206.225 153.575 205.139 154.843C206.364 154.79 207.415 155.315 208.004 156.662C209.659 160.443 204.398 164.524 200.651 165.29Z" fill="#FFFEF2"/>
<path d="M160.424 234.674C160.237 234.673 160.054 234.615 159.899 234.51C159.745 234.404 159.626 234.254 159.557 234.08C159.448 233.796 148.588 205.488 145.468 195.27C145.396 195.035 145.421 194.782 145.537 194.565C145.652 194.348 145.849 194.186 146.084 194.114C146.319 194.042 146.573 194.067 146.79 194.182C147.007 194.297 147.169 194.494 147.242 194.729C150.341 204.886 161.18 233.13 161.289 233.414C161.333 233.528 161.354 233.649 161.35 233.771C161.347 233.893 161.32 234.013 161.27 234.124C161.221 234.235 161.15 234.336 161.061 234.419C160.973 234.503 160.869 234.569 160.755 234.612C160.649 234.654 160.537 234.675 160.424 234.674Z" fill="#202D37"/>
<path d="M162.332 218.552C159.311 218.552 156.207 217.709 153.045 216.022C152.938 215.964 152.842 215.886 152.765 215.792C152.688 215.698 152.63 215.59 152.594 215.473C152.559 215.357 152.547 215.235 152.558 215.113C152.57 214.992 152.606 214.874 152.663 214.767C152.72 214.66 152.798 214.564 152.892 214.487C152.987 214.41 153.095 214.352 153.211 214.316C153.328 214.281 153.45 214.269 153.571 214.28C153.693 214.292 153.81 214.328 153.918 214.385C158.997 217.09 163.865 217.416 168.402 215.348C178.855 210.599 185.967 194.202 188.882 181.604C188.906 181.482 188.954 181.366 189.024 181.262C189.093 181.159 189.183 181.07 189.288 181.003C189.392 180.935 189.509 180.888 189.632 180.867C189.755 180.845 189.881 180.848 190.002 180.876C190.123 180.905 190.238 180.957 190.339 181.03C190.44 181.104 190.524 181.196 190.589 181.303C190.653 181.41 190.694 181.529 190.712 181.653C190.729 181.776 190.721 181.902 190.688 182.022C187.679 195.031 180.235 212.006 169.169 217.036C167.026 218.028 164.694 218.546 162.332 218.552ZM134.116 142.33C133.941 142.33 133.77 142.281 133.622 142.188C133.474 142.096 133.355 141.963 133.279 141.805C129.935 134.846 112.964 127.231 112.787 127.154C112.651 127.094 112.531 127.002 112.438 126.885C112.345 126.769 112.282 126.632 112.253 126.486L102.024 74.4155C101.979 74.1863 102.022 73.9485 102.145 73.7497C102.268 73.5509 102.461 73.4058 102.686 73.3433C102.735 73.3302 107.697 71.9457 112.708 70.2001C121.519 67.1303 122.732 65.6612 122.898 65.3471C122.71 65.0123 121.318 63.3381 111.025 59.1848C105.235 56.8486 99.5014 54.8866 99.4449 54.8584C99.2581 54.7996 99.0948 54.683 98.9784 54.5255C98.9446 54.4766 95.5248 49.5915 91.2041 47.9757C91.09 47.933 90.9854 47.8682 90.8963 47.785C90.8072 47.7019 90.7354 47.602 90.6849 47.4911C90.6344 47.3802 90.6063 47.2604 90.6021 47.1386C90.5979 47.0168 90.6178 46.8954 90.6605 46.7813C90.7032 46.6671 90.768 46.5625 90.8512 46.4735C90.9343 46.3844 91.0342 46.3126 91.1451 46.2621C91.2561 46.2116 91.3758 46.1835 91.4976 46.1793C91.6194 46.1751 91.7408 46.1949 91.855 46.2376C96.1813 47.8553 99.5164 52.1196 100.32 53.2182C101.559 53.647 106.702 55.4472 111.854 57.5314C124.164 62.5105 124.544 64.194 124.724 65.0028C125.04 66.4061 123.951 68.2006 113.94 71.7407C109.877 73.1797 105.726 74.408 104.003 74.9046L113.972 125.67C116.794 126.964 131.582 134.018 134.942 141.012C135.01 141.153 135.041 141.309 135.033 141.466C135.024 141.622 134.976 141.774 134.892 141.907C134.809 142.04 134.693 142.149 134.555 142.225C134.418 142.3 134.264 142.34 134.107 142.34L134.116 142.33Z" fill="#202D37"/>
<path d="M200.848 165.576L200.819 165.45C199.057 165.805 197.622 165.437 197.392 163.968C197.102 162.158 198.041 160.102 199.488 158.411C197.18 158.99 195.176 158.646 195.048 156.852C194.928 155.176 195.855 153.383 197.234 151.895C195.131 152.16 193.44 151.636 193.32 149.98C193.205 148.396 194.014 146.745 195.27 145.332C192.106 146.329 189.133 146.158 189.133 144.002C189.133 141.215 191.298 138.47 193.907 136.768C192.195 129.62 191.781 125.651 182.287 128.758C173.693 131.58 147.372 137.695 133.945 141.282C129.607 142.439 126.609 143.336 125.996 143.769C123.456 145.545 125.744 150.71 127.158 155.631C136.467 157.743 136.309 167.481 133.262 168.986C133.601 170.638 133.582 172.184 132.641 173.153C135.865 184.872 135.538 197.794 145.067 195.501C145.429 195.415 145.82 195.313 146.26 195.2C154.964 192.943 177.752 185.643 189.926 181.811C193.171 180.79 195.663 180.015 196.935 179.65C203.206 177.836 204.13 175.942 200.848 165.576Z" fill="#23CBB8"/>
<path d="M196.303 172.013C196.303 172.013 196.762 175.587 195.298 175.892C190.62 177.833 159.331 186.076 147.204 189.022C145.248 189.503 144.45 189.302 143.715 186.817C143.715 186.817 133.239 154.463 133.26 148.632C133.271 145.31 136.01 145.579 155.185 140.602C184.601 132.965 188.598 131.148 189.608 137.139L192.674 152.02C194.534 161.85 196.303 172.013 196.303 172.013ZM327.652 119.102C327.234 117.933 325.895 104.58 325.018 95.1861C331.162 93.4687 332.377 88.7906 330.757 82.207C334.143 81.9944 335.321 80.3899 335.262 78.1026C335.159 73.8665 330.62 71.2782 326.905 70.0724C328.19 64.4576 326.514 54.9847 320.229 47.8762C316.205 43.3241 311.881 47.2273 311.881 47.2273C304.31 39.4642 284.768 46.8398 285.609 52.3399C285.894 54.2078 287.328 55.4399 289.425 56.102C283.912 64.8225 269.862 74.348 269.674 76.6918C269.507 78.7609 281.525 78.6763 286.882 78.5333C286.882 83.3318 286.056 89.7631 281.427 92.722C277.289 95.3667 285.283 97.6127 290.321 97.0239C289.91 88.5592 289.487 79.9497 289.425 78.6236C289.515 80.0908 290.136 90.5118 290.554 99.0385L290.516 99.2059C290.153 99.1256 289.784 99.074 289.412 99.0517C284.124 98.7394 275.413 103.566 274.014 106.672C272.614 109.777 266.704 128.755 265.617 132.331C264.53 135.907 253.174 153.639 243.842 174.011C234.51 194.382 231.091 217.087 240.11 229.065C240.11 229.065 240.537 229.55 241.344 230.399C296.368 223.896 333.799 204.888 356.712 181.012C346.199 152.418 329.749 124.944 327.652 119.102ZM271.907 166.259C273.28 156.25 274.603 145.967 274.603 145.967C279.275 140.583 282.422 136.768 283.208 132.235C283.154 134.663 285.599 136.561 288.082 135.136C283.297 145.756 273.369 163.626 271.907 166.259ZM284.886 107.02C284.886 107.02 287.563 105.569 290.48 105.729C290.48 105.729 290.567 105.79 290.721 105.891C290.808 107.674 290.885 108.73 290.951 110.103C288.983 108.699 284.886 107.007 284.886 107.007V107.02Z" fill="#FFFEF2"/>
<path d="M312.071 55.8274C313.235 73.6878 326.825 70.3866 326.825 70.3866C328.249 64.8225 326.637 55.1145 320.225 47.8669C316.201 43.3167 311.877 47.2198 311.877 47.2198C304.306 39.4549 284.764 46.8323 285.604 52.3325C286.445 57.8326 297.252 57.8326 305.6 53.6924C300.293 57.5091 306.958 59.9036 312.071 55.8274Z" fill="#202D37"/>
<path d="M324.358 71.558C322.365 71.558 319.564 71.1404 317.022 69.2688C313.84 66.9307 311.917 62.9711 311.295 57.4841C308.733 58.9701 306.016 59.1771 304.41 58.5112C303.438 58.1124 302.847 57.4145 302.745 56.5474C302.72 56.3319 302.727 56.1139 302.764 55.9003C297.104 57.9186 291.137 58.1707 287.676 56.3724C285.983 55.4902 284.949 54.1415 284.695 52.473C284.347 50.197 286.441 47.7479 290.441 45.7559C297.129 42.4227 306.743 41.4709 311.953 46.0117C312.803 45.4474 314.361 44.6367 316.229 44.7439C317.959 44.8417 319.541 45.6844 320.931 47.2532C327.44 54.6155 329.279 64.5794 327.735 70.6156C327.693 70.7787 327.608 70.9274 327.489 71.0457C327.369 71.1641 327.219 71.2475 327.056 71.2871C326.17 71.4773 325.265 71.5681 324.358 71.558ZM312.071 54.9015C312.307 54.9014 312.534 54.991 312.706 55.1521C312.878 55.3131 312.982 55.5336 312.997 55.7686C313.373 61.5058 315.087 65.5406 318.096 67.764C321.106 69.9874 324.705 69.7616 326.061 69.5735C327.189 64.0715 325.338 55.0444 319.53 48.474C318.486 47.2908 317.336 46.6569 316.118 46.5929C314.131 46.4763 312.515 47.8908 312.498 47.9097C312.321 48.0703 312.088 48.156 311.848 48.1486C311.609 48.1412 311.381 48.0414 311.214 47.8702C306.511 43.0453 296.715 44.7006 291.262 47.4168C288.175 48.9555 286.314 50.8309 286.521 52.1946C286.687 53.2706 287.36 54.1227 288.527 54.7284C292.119 56.5944 299.282 55.7931 305.189 52.8624C305.397 52.7585 305.638 52.7369 305.862 52.8021C306.085 52.8673 306.276 53.0144 306.397 53.2141C306.517 53.4138 306.558 53.6516 306.51 53.8799C306.463 54.1082 306.332 54.3104 306.142 54.4462C304.929 55.319 304.544 56.0075 304.581 56.3273C304.609 56.5624 304.957 56.7317 305.11 56.7938C306.472 57.3581 309.171 56.9499 311.494 55.1008C311.659 54.972 311.862 54.9018 312.071 54.9015ZM290.325 97.0084C285.287 97.6009 277.302 95.3437 281.441 92.7103C286.066 89.7514 286.896 83.3201 286.896 78.5216C288.438 78.4821 289.431 78.4351 289.431 78.4351C289.431 78.4351 289.879 87.8196 290.325 97.0084Z" fill="#202D37"/>
<path d="M288.576 98.0299C284.887 98.0299 280.239 96.9746 279.472 94.8321C279.259 94.2358 279.165 93.0658 280.933 91.9335C284.263 89.791 285.956 85.2802 285.956 78.5179C285.956 78.2758 286.05 78.0433 286.219 77.87C286.388 77.6968 286.619 77.5965 286.861 77.5906C288.365 77.5511 289.366 77.5059 289.376 77.5059C289.62 77.4976 289.858 77.5849 290.039 77.7492C290.221 77.9136 290.331 78.1421 290.346 78.3862C290.346 78.3862 290.805 87.7688 291.251 96.9633C291.262 97.198 291.184 97.4283 291.032 97.6075C290.88 97.7867 290.666 97.9014 290.433 97.9283C289.816 97.9984 289.196 98.0323 288.576 98.0299ZM287.801 79.4189C287.649 86.3618 285.677 91.0926 281.932 93.4891C281.33 93.8653 281.199 94.1455 281.217 94.2001C281.554 95.1406 285.604 96.3614 289.357 96.1601C289.007 88.9784 288.659 81.8643 288.538 79.3945L287.801 79.4189ZM318.763 95.9081C317.211 95.9081 317.683 93.9386 320.048 92.3999C322.446 90.8368 323.834 85.2144 323.445 81.283C326.588 82.0354 328.977 82.312 330.755 82.1991C332.82 90.5979 330.275 95.9081 318.763 95.9081Z" fill="#202D37"/>
<path d="M318.762 96.8378C317.88 96.8378 317.223 96.4014 317.005 95.6678C316.65 94.4677 317.669 92.8462 319.541 91.6235C321.413 90.4009 322.912 85.3145 322.522 81.3757C322.508 81.2285 322.529 81.0801 322.584 80.9427C322.639 80.8053 322.725 80.683 322.837 80.5859C322.948 80.4888 323.081 80.4196 323.225 80.3843C323.369 80.3489 323.518 80.3483 323.662 80.3825C326.574 81.0879 328.94 81.3888 330.694 81.276C330.913 81.2625 331.131 81.3264 331.308 81.4567C331.485 81.587 331.611 81.7753 331.664 81.9889C332.851 86.8156 332.482 90.3689 330.536 92.8519C328.421 95.5323 324.573 96.8378 318.762 96.8378ZM324.435 82.4629C324.49 86.5297 323.053 91.5502 320.553 93.1848C319.424 93.9128 318.958 94.6351 318.828 94.9887C323.922 94.9793 327.368 93.8751 329.068 91.7044C330.547 89.8234 330.861 87.0169 330.022 83.1589C328.466 83.1608 326.627 82.9294 324.435 82.4629ZM69.9898 75.8511C73.4659 76.026 74.5042 68.7276 74.4196 65.5054C74.4196 65.5054 88.4051 58.4684 91.537 47.09C91.537 47.09 77.9936 42.4853 69.9935 54.0386C65.9888 59.8341 66.5155 75.678 69.9898 75.8511Z" fill="#202D37"/>
<path d="M70.1084 76.7822H69.9448C69.2939 76.7502 68.3628 76.3928 67.6161 74.8785C65.6052 70.7986 65.6429 58.7016 69.2281 53.5269C73.5658 47.2537 79.491 45.6021 83.697 45.3219C86.4409 45.1289 89.197 45.4335 91.8325 46.221C92.0575 46.297 92.2448 46.4564 92.3557 46.6664C92.4667 46.8764 92.4928 47.1209 92.4288 47.3496C89.5376 57.874 77.9824 64.6551 75.3546 66.0772C75.3283 68.9909 74.5815 73.7349 72.5199 75.7495C72.2059 76.0721 71.8312 76.3294 71.4173 76.5067C71.0035 76.6839 70.5586 76.7775 70.1084 76.7822ZM70.037 74.9256C70.2596 74.9317 70.481 74.8893 70.6856 74.8012C70.8903 74.7132 71.0733 74.5817 71.222 74.4158C72.819 72.8564 73.5677 68.2592 73.4943 65.5392C73.4895 65.3634 73.5349 65.1899 73.6252 65.039C73.7155 64.8881 73.8469 64.766 74.0041 64.6871C74.1357 64.6194 86.9268 58.0696 90.369 47.7371C88.2055 47.2168 85.9757 47.0266 83.7553 47.1728C78.2608 47.5584 73.8855 50.0489 70.7536 54.5784C67.5465 59.2133 67.49 70.4243 69.2789 74.0546C69.5911 74.6848 69.8827 74.918 70.037 74.9256Z" fill="#202D37"/>
<path d="M71.4171 69.984C71.0955 70.759 69.8841 71.5697 67.8262 72.2695C64.2617 71.5491 61.3009 72.3917 59.5497 73.874C57.236 74.1054 54.6007 74.237 51.6493 74.237C37.0299 74.237 39.8778 60.0503 48.6284 57.4958C59.2036 54.4053 73.9434 63.8932 71.4171 69.984Z" fill="#202D37"/>
<path d="M51.6558 75.1643C45.3393 75.1643 41.1841 72.4707 40.537 67.9562C39.8504 63.1596 43.3585 58.0657 48.3753 56.6023C55.8787 54.409 65.7334 58.2952 70.2291 63.3176C72.4149 65.7629 73.141 68.2496 72.2757 70.3376C71.828 71.4173 70.4323 72.3616 68.1242 73.1478C67.9694 73.201 67.803 73.2114 67.6427 73.1779C64.6932 72.5816 61.8924 73.1065 60.1505 74.5812C60.0073 74.7035 59.8301 74.779 59.6427 74.7975C57.1973 75.0402 54.5112 75.1643 51.6558 75.1643ZM53.0816 57.8174C51.6668 57.8059 50.2575 57.9959 48.8963 58.3817C44.3818 59.6984 41.8838 64.26 42.3748 67.6928C42.8864 71.2668 46.2685 73.3077 51.6577 73.3077C54.3438 73.3077 56.8757 73.1968 59.1818 72.9767C61.3036 71.3232 64.4675 70.7063 67.7556 71.3101C69.5745 70.6611 70.4041 69.9933 70.5602 69.6171C71.3389 67.7361 69.8209 65.6312 68.8466 64.5383C65.5303 60.8572 59.0464 57.8174 53.0816 57.8174ZM302.234 72.4274C301.968 72.3067 301.76 72.0853 301.656 71.8116C301.553 71.5379 301.563 71.2344 301.683 70.9677L302.849 68.3963C302.909 68.2644 302.994 68.1455 303.1 68.0465C303.205 67.9474 303.33 67.8702 303.465 67.8192C303.601 67.7682 303.745 67.7444 303.89 67.7492C304.035 67.754 304.177 67.7872 304.309 67.8471C304.575 67.9678 304.783 68.1892 304.886 68.4629C304.99 68.7366 304.98 69.0401 304.86 69.3068L303.694 71.8781C303.634 72.0101 303.549 72.129 303.443 72.228C303.337 72.327 303.213 72.4043 303.078 72.4553C302.942 72.5063 302.798 72.5301 302.653 72.5253C302.508 72.5205 302.366 72.4873 302.234 72.4274ZM96.9097 67.6928C96.6194 67.7336 96.3247 67.6575 96.0905 67.4811C95.8563 67.3047 95.7017 67.0426 95.6607 66.7523L95.2657 63.9571C95.2453 63.8134 95.2534 63.6671 95.2896 63.5266C95.3259 63.3861 95.3895 63.2541 95.4769 63.1382C95.5643 63.0223 95.6737 62.9249 95.7989 62.8514C95.924 62.7779 96.0624 62.7298 96.2062 62.71C96.4965 62.6692 96.7912 62.7454 97.0254 62.9217C97.2596 63.0981 97.4142 63.3602 97.4552 63.6505L97.8502 66.4457C97.8704 66.5894 97.8621 66.7356 97.8257 66.876C97.7894 67.0164 97.7257 67.1483 97.6384 67.2642C97.551 67.38 97.4417 67.4774 97.3167 67.551C97.1917 67.6245 97.0534 67.6728 96.9097 67.6928ZM88.2118 69.5739C88.068 69.5943 87.9216 69.5862 87.781 69.55C87.6403 69.5137 87.5082 69.4501 87.3922 69.3628C87.2761 69.2754 87.1785 69.166 87.1048 69.0408C87.0311 68.9157 86.9829 68.7772 86.9628 68.6334L86.564 65.8363C86.5436 65.6926 86.5517 65.5463 86.588 65.4057C86.6242 65.2652 86.6879 65.1332 86.7752 65.0173C86.8626 64.9015 86.972 64.804 87.0972 64.7305C87.2223 64.657 87.3608 64.609 87.5045 64.5891C87.6483 64.5687 87.7947 64.5768 87.9354 64.613C88.076 64.6493 88.2082 64.7129 88.3242 64.8002C88.4402 64.8876 88.5378 64.997 88.6115 65.1222C88.6852 65.2473 88.7335 65.3858 88.7535 65.5297L89.1486 68.3249C89.1693 68.4684 89.1615 68.6147 89.1256 68.7552C89.0897 68.8957 89.0264 69.0278 88.9394 69.1438C88.8524 69.2598 88.7433 69.3576 88.6185 69.4314C88.4936 69.5051 88.3554 69.5536 88.2118 69.5739ZM294.23 71.6186C294.098 71.559 293.979 71.474 293.88 71.3684C293.781 71.2627 293.703 71.1386 293.652 71.003C293.601 70.8674 293.577 70.7231 293.581 70.5782C293.586 70.4334 293.619 70.2909 293.679 70.1589L294.845 67.5875C294.905 67.4554 294.99 67.3363 295.096 67.2371C295.201 67.1379 295.325 67.0604 295.461 67.0092C295.596 66.958 295.741 66.9341 295.886 66.9388C296.03 66.9434 296.173 66.9766 296.305 67.0364C296.572 67.1574 296.779 67.3793 296.882 67.6534C296.985 67.9275 296.975 68.2313 296.854 68.4979L295.684 71.0787C295.562 71.3421 295.341 71.5466 295.068 71.6476C294.796 71.7487 294.495 71.7383 294.23 71.6186ZM71.7866 14.0834C72.1791 15.0189 72.2957 15.8628 72.1365 16.6152C71.9772 17.3677 71.5101 18.0574 70.7351 18.6844L71.7622 21.1297C71.7766 21.163 71.784 21.1988 71.784 21.2351C71.784 21.2713 71.7766 21.3071 71.7622 21.3404C71.7486 21.3744 71.7283 21.4053 71.7024 21.4312C71.6766 21.457 71.6457 21.4774 71.6117 21.4909L68.3801 22.8471C68.3468 22.8615 68.311 22.8689 68.2747 22.8689C68.2385 22.8689 68.2026 22.8615 68.1694 22.8471C68.1359 22.8336 68.1055 22.8134 68.08 22.7879C68.0544 22.7624 68.0343 22.732 68.0208 22.6985L67.1066 20.5203C66.4896 20.7472 65.9253 20.9353 65.4137 21.0846C65.3463 21.1011 65.2751 21.0917 65.2143 21.0582C65.1479 21.0247 65.0963 20.9677 65.0694 20.8984L64.2286 18.1878C64.2162 18.1495 64.2123 18.1089 64.2172 18.069C64.222 18.029 64.2356 17.9906 64.2568 17.9564C64.2779 17.9214 64.3066 17.8915 64.3408 17.869C64.375 17.8465 64.4138 17.8321 64.4543 17.8266C64.6688 17.789 64.8889 17.7439 65.1127 17.6912C65.3365 17.6385 65.6243 17.5633 65.9742 17.4636C66.2984 17.3728 66.6168 17.2629 66.9279 17.1344C67.2062 17.0371 67.4621 16.8849 67.6803 16.6867C67.8373 16.5512 67.951 16.3727 68.0076 16.1732C68.0387 16.0331 68.0526 15.8897 68.049 15.7462C68.0447 15.645 68.0238 15.5452 67.9869 15.4509C67.9427 15.3518 67.883 15.2604 67.8101 15.18C67.6979 15.0604 67.5716 14.9549 67.4339 14.8659C67.2121 14.7309 66.9626 14.6479 66.7041 14.6232C66.3448 14.579 65.9809 14.5885 65.6243 14.6514C65.1582 14.7286 64.6828 14.7324 64.2154 14.6627C63.7209 14.5875 63.2387 14.4458 62.7821 14.2414C62.276 14.0102 61.8202 13.6817 61.4409 13.2745C61.0122 12.8191 60.6699 12.2894 60.4308 11.7114C60.082 10.9503 59.9941 10.0954 60.1806 9.27921C60.4047 8.46226 60.871 7.73235 61.518 7.18561L60.4534 4.6782C60.4389 4.64365 60.4314 4.60656 60.4314 4.5691C60.4314 4.53163 60.4389 4.49454 60.4534 4.45999C60.4652 4.42387 60.4851 4.3909 60.5115 4.36354C60.5378 4.33617 60.5701 4.31513 60.6057 4.30199L63.8374 2.94576C63.9079 2.91886 63.9861 2.91984 64.056 2.94849C64.1258 2.97714 64.1822 3.03131 64.2136 3.10001L65.1202 5.2726C65.7109 5.05691 66.2996 4.86254 66.8865 4.68948C66.9554 4.67294 67.0279 4.68092 67.0916 4.71205C67.1253 4.72697 67.1553 4.74924 67.1794 4.77722C67.2035 4.80521 67.221 4.83821 67.2307 4.87382L68.0697 7.58439C68.0801 7.62211 68.0828 7.66154 68.0776 7.70032C68.0724 7.7391 68.0595 7.77644 68.0396 7.81012C68.021 7.84549 67.9943 7.8759 67.9615 7.89881C67.9288 7.92171 67.8911 7.93646 67.8515 7.94179C66.9718 8.09415 66.1096 8.33489 65.2782 8.66035C65.0066 8.75714 64.7571 8.90746 64.5446 9.10239C64.3849 9.24007 64.2697 9.42207 64.2136 9.62532C64.1797 9.76568 64.1639 9.90981 64.1665 10.0542C64.1701 10.1581 64.1917 10.2606 64.2305 10.357C64.2738 10.4513 64.3316 10.5382 64.4017 10.6147C64.5133 10.7339 64.6397 10.8382 64.7779 10.9251C65.0034 11.0576 65.255 11.1397 65.5152 11.1659C65.8746 11.2104 66.2386 11.2002 66.595 11.1358C67.5659 11.0012 68.555 11.146 69.4466 11.5534C69.9514 11.7858 70.4052 12.1157 70.7821 12.524C71.2093 12.9782 71.5497 13.5067 71.7866 14.0834Z" fill="#202D37"/>
<path d="M68.2739 23.2684C68.1416 23.2688 68.0121 23.2296 67.9022 23.1558C67.7922 23.0821 67.7068 22.9772 67.657 22.8546L66.8895 21.0262C66.4004 21.1993 65.949 21.346 65.5163 21.4626C65.3521 21.5074 65.177 21.4871 65.0273 21.4062C64.879 21.33 64.7629 21.2032 64.7 21.0488C64.6948 21.0372 64.6904 21.0252 64.6868 21.013L63.846 18.3025C63.8167 18.2089 63.8078 18.1101 63.8198 18.0128C63.8318 17.9155 63.8645 17.8218 63.9156 17.7382C63.9666 17.6562 64.0343 17.586 64.1144 17.5322C64.1945 17.4784 64.2851 17.4422 64.3802 17.4259C64.589 17.3902 64.8034 17.3469 65.0197 17.2961C65.2361 17.2453 65.5163 17.1701 65.8624 17.0723C66.1712 16.9854 66.4745 16.8805 66.771 16.7581C67.0015 16.6773 67.2141 16.5528 67.3974 16.3913C67.4965 16.3104 67.5703 16.2026 67.6099 16.081C67.6352 15.9763 67.6465 15.8688 67.6438 15.7612C67.6428 15.7046 67.632 15.6486 67.6118 15.5957C67.584 15.5359 67.5472 15.4807 67.5027 15.432C67.4116 15.3379 67.31 15.2546 67.1999 15.1837C67.0276 15.0827 66.8346 15.0223 66.6355 15.0069C66.3162 14.9684 65.9928 14.9779 65.6762 15.0351C65.1695 15.1179 64.653 15.1218 64.1451 15.0464C63.6157 14.9655 63.0995 14.8143 62.6101 14.5968C62.0566 14.3439 61.5581 13.9847 61.1429 13.5397C60.6778 13.048 60.3084 12.4739 60.0538 11.8468C59.6708 11.0075 59.5756 10.0652 59.7829 9.16628C59.996 8.36457 60.4286 7.63822 61.032 7.06893L60.0914 4.81169C60.0237 4.65053 60.0197 4.4697 60.0801 4.30569C60.1107 4.21896 60.1591 4.13964 60.2223 4.07287C60.2855 4.00611 60.362 3.95341 60.4469 3.9182L63.6786 2.56197C63.7615 2.52663 63.8508 2.50842 63.941 2.50842C64.0312 2.50842 64.1204 2.52663 64.2034 2.56197C64.2883 2.59593 64.3654 2.64679 64.4301 2.71146C64.4948 2.77613 64.5456 2.85326 64.5796 2.93817L65.347 4.76842C65.8248 4.60101 66.3045 4.44488 66.7804 4.3038C66.9423 4.26127 67.1139 4.27657 67.2657 4.34707C67.3512 4.38663 67.4271 4.44429 67.4882 4.51606C67.5493 4.58784 67.594 4.67202 67.6193 4.76278L68.4564 7.46394C68.4827 7.55296 68.4906 7.64641 68.4796 7.73858C68.4687 7.83076 68.439 7.91972 68.3924 8.00004C68.3454 8.08778 68.2786 8.16338 68.1973 8.22084C68.116 8.2783 68.0225 8.31605 67.9241 8.3311C67.0754 8.47929 66.2436 8.71181 65.4411 9.0252C65.2167 9.10328 65.0101 9.22544 64.8335 9.38448C64.7328 9.46861 64.6578 9.57944 64.6172 9.70426C64.5898 9.81051 64.5765 9.91993 64.5777 10.0297C64.5798 10.0876 64.5913 10.1447 64.6116 10.199C64.6384 10.254 64.6733 10.3047 64.715 10.3494C64.8057 10.4419 64.9074 10.5227 65.0179 10.5902C65.1902 10.6928 65.3827 10.757 65.5822 10.7783C65.9029 10.8159 66.2273 10.8064 66.5453 10.7501C67.0494 10.6796 67.561 10.6796 68.0651 10.7501C68.6007 10.8237 69.1228 10.9745 69.6151 11.1978C70.1659 11.4525 70.6618 11.8122 71.0748 12.2568C71.533 12.7467 71.8983 13.3159 72.1526 13.9366C72.5759 14.9429 72.7 15.874 72.5288 16.7055C72.3272 17.5297 71.8655 18.2671 71.2121 18.8085L72.1263 20.9848C72.1602 21.0665 72.1777 21.1541 72.1777 21.2425C72.1777 21.331 72.1602 21.4185 72.1263 21.5002C72.0933 21.5825 72.0439 21.6573 71.9812 21.72C71.9185 21.7828 71.8437 21.8321 71.7614 21.8651L68.5298 23.2232C68.4481 23.2545 68.3613 23.2698 68.2739 23.2684ZM67.1096 20.1271C67.1878 20.1271 67.2642 20.1501 67.3295 20.1933C67.3947 20.2364 67.4458 20.2978 67.4764 20.3697L68.3416 22.4389L71.3513 21.1767L70.3694 18.8423C70.3363 18.7629 70.3298 18.675 70.3509 18.5916C70.3719 18.5082 70.4193 18.4338 70.486 18.3796C71.1839 17.8153 71.6147 17.1908 71.7482 16.5324C71.8818 15.874 71.7802 15.0915 71.4228 14.2375C71.2049 13.7062 70.8926 13.2187 70.5011 12.7986C70.159 12.4282 69.7482 12.128 69.2916 11.9145C68.8687 11.7238 68.4209 11.594 67.9617 11.5289C67.5317 11.4696 67.0956 11.4696 66.6656 11.5289C66.2717 11.5967 65.8698 11.6062 65.4731 11.5571C65.1538 11.5249 64.8459 11.4214 64.5721 11.2542C64.4031 11.1488 64.2483 11.0224 64.1112 10.878C64.0124 10.7694 63.9317 10.6455 63.8723 10.5112C63.816 10.3723 63.7842 10.2246 63.7783 10.0748C63.7739 9.89568 63.7929 9.71674 63.8347 9.54249C63.9067 9.26247 64.0606 9.0103 64.2767 8.81829C64.5278 8.58675 64.8227 8.40769 65.1439 8.2916C65.9554 7.97378 66.7958 7.73503 67.6532 7.57869L66.8876 5.10513C66.3534 5.26502 65.8023 5.44936 65.2586 5.64875C65.1624 5.6838 65.0564 5.68051 64.9626 5.63954C64.8687 5.59856 64.7942 5.52306 64.7545 5.42867L63.8836 3.35953L60.8627 4.62734L61.8747 7.03883C61.9068 7.11483 61.9145 7.19897 61.8967 7.27955C61.8788 7.36013 61.8363 7.43313 61.775 7.4884C61.188 7.98224 60.7638 8.64179 60.5579 9.38072C60.3937 10.1137 60.475 10.8804 60.7893 11.5627C61.0087 12.096 61.3243 12.5845 61.7204 13.0036C62.0629 13.3741 62.4752 13.6732 62.9337 13.8839C63.3582 14.0731 63.8061 14.2047 64.2655 14.2752C64.6916 14.3389 65.125 14.3358 65.5502 14.2658C65.9471 14.196 66.3521 14.1852 66.7522 14.2338C67.0724 14.2664 67.3808 14.3726 67.6532 14.5442C67.8165 14.6518 67.9667 14.7781 68.1009 14.9204C68.2009 15.0327 68.2834 15.1595 68.3454 15.2966C68.3994 15.4321 68.4299 15.5759 68.4357 15.7217C68.4445 15.9005 68.4281 16.0798 68.3868 16.254C68.3163 16.5322 68.1636 16.7826 67.9485 16.9726C67.6933 17.2067 67.3941 17.3877 67.0682 17.5049C66.746 17.6378 66.4163 17.7515 66.0806 17.8454C65.7176 17.9488 65.4298 18.0335 65.2003 18.0786C65.0122 18.1219 64.8241 18.1614 64.6454 18.1952L65.411 20.6669C65.8831 20.5334 66.4098 20.3584 66.9723 20.1515C67.0162 20.1352 67.0627 20.1269 67.1096 20.1271ZM95.8537 15.3342C95.5891 16.3148 95.1627 17.0528 94.5746 17.5482C93.9864 18.0435 93.1939 18.3025 92.1969 18.325L91.5085 20.8851C91.4992 20.9201 91.4832 20.9529 91.4612 20.9816C91.4393 21.0103 91.4118 21.0344 91.3806 21.0525C91.3491 21.0712 91.3142 21.0832 91.278 21.0877C91.2417 21.0922 91.2049 21.0892 91.1699 21.0789L87.784 20.1666C87.7487 20.1582 87.7155 20.1425 87.6866 20.1205C87.6578 20.0985 87.6339 20.0706 87.6166 20.0387C87.5979 20.0076 87.5859 19.973 87.5813 19.937C87.5768 19.9011 87.5798 19.8646 87.5903 19.8299L88.2035 17.55C87.5765 17.3507 87.0159 17.1494 86.5219 16.9462C86.49 16.9331 86.461 16.9136 86.4368 16.8891C86.4126 16.8645 86.3935 16.8353 86.3808 16.8033C86.3489 16.7363 86.3429 16.66 86.3638 16.5888L87.3627 13.9328C87.3765 13.8948 87.3985 13.8603 87.4271 13.8317C87.4557 13.8031 87.4902 13.7811 87.5282 13.7673C87.5664 13.7531 87.6072 13.7475 87.6478 13.7508C87.6885 13.754 87.7279 13.7661 87.7633 13.7861C87.9514 13.8877 88.1565 13.9874 88.3653 14.0833C88.5741 14.1792 88.8487 14.2959 89.1873 14.4313C89.4983 14.5589 89.8168 14.6676 90.141 14.7567C90.4196 14.8488 90.7137 14.8846 91.0062 14.8621C91.2104 14.8504 91.4066 14.7791 91.5705 14.657C91.6817 14.5664 91.7804 14.4614 91.864 14.3448C91.9234 14.2626 91.9686 14.1711 91.9975 14.0739C92.0243 13.9683 92.0332 13.8589 92.0239 13.7504C92.0088 13.5875 91.9741 13.4271 91.9204 13.2726C91.8287 13.0296 91.6827 12.8109 91.4934 12.633C91.2363 12.378 90.9428 12.1625 90.6225 11.9935C90.2036 11.7694 89.8227 11.4805 89.4939 11.1376C89.1548 10.7738 88.8657 10.3664 88.6343 9.92622C88.3754 9.43302 88.2169 8.89344 88.1678 8.33863C88.1077 7.71632 88.1626 7.08829 88.3295 6.48581C88.5222 5.67277 88.9769 4.94568 89.6237 4.41667C90.3013 3.9084 91.1173 3.61782 91.9637 3.58337L92.671 0.94992C92.691 0.877529 92.7373 0.815182 92.8007 0.774985C92.8318 0.75467 92.8668 0.741297 92.9035 0.735778C92.9402 0.730259 92.9777 0.732725 93.0133 0.743008L96.3992 1.65343C96.4722 1.67536 96.5342 1.72438 96.5723 1.79047C96.6104 1.85656 96.6218 1.93471 96.6042 2.00894L95.9891 4.28876C96.5873 4.48062 97.1716 4.68816 97.7422 4.91138C97.8071 4.94092 97.8596 4.99213 97.8908 5.05622C97.9071 5.08929 97.9155 5.12565 97.9155 5.1625C97.9155 5.19935 97.9071 5.23571 97.8908 5.26878L96.9108 7.92292C96.8961 7.95893 96.8742 7.99153 96.8463 8.01871C96.8185 8.04589 96.7854 8.06707 96.749 8.08092C96.7145 8.09905 96.6761 8.10852 96.6371 8.10852C96.5981 8.10852 96.5597 8.09905 96.5252 8.08092C95.7374 7.66177 94.9093 7.32334 94.0535 7.07081C93.7799 6.97952 93.4906 6.94496 93.2033 6.96923C92.9923 6.97994 92.7893 7.05329 92.6202 7.17991C92.5075 7.26929 92.4069 7.373 92.3211 7.4884C92.2595 7.57228 92.2136 7.66659 92.1856 7.76679C92.1618 7.86777 92.1542 7.9719 92.1631 8.07528C92.1784 8.23923 92.2151 8.40048 92.2722 8.55494C92.3692 8.79804 92.5174 9.01743 92.7067 9.19826C92.9643 9.4527 93.2577 9.66816 93.5776 9.83781C93.9861 10.0723 94.3603 10.3622 94.6893 10.6993C95.0393 11.0588 95.3358 11.4668 95.5696 11.9107C95.8246 12.4041 95.98 12.943 96.0267 13.4964C96.0808 14.1144 96.0222 14.7371 95.8537 15.3342Z" fill="#202D37"/>
<path d="M91.2442 21.4871C91.1806 21.4878 91.1173 21.4795 91.0561 21.4627L87.6702 20.5504C87.5847 20.5283 87.5045 20.4894 87.4344 20.4357C87.3642 20.3821 87.3056 20.3149 87.262 20.2381C87.2175 20.1615 87.1888 20.0768 87.1775 19.9889C87.1662 19.9011 87.1726 19.8118 87.1962 19.7265L87.7116 17.8116C87.2206 17.6479 86.7711 17.4824 86.361 17.315C86.2046 17.2486 86.079 17.1257 86.0092 16.9708C85.9381 16.819 85.924 16.6467 85.9697 16.4854C85.9718 16.4731 85.9756 16.461 85.981 16.4497L86.9817 13.7937C87.0156 13.7031 87.0684 13.6208 87.1367 13.5523C87.2051 13.4838 87.2873 13.4308 87.3778 13.3967C87.4683 13.3627 87.5651 13.3484 87.6616 13.3549C87.7581 13.3614 87.8521 13.3885 87.9373 13.4344C88.1254 13.5322 88.3135 13.6225 88.5204 13.7222C88.7273 13.8219 88.985 13.9272 89.3236 14.0627C89.6204 14.1847 89.9245 14.2884 90.234 14.373C90.4652 14.4507 90.7092 14.4826 90.9526 14.4671C91.0801 14.4646 91.2042 14.4254 91.31 14.3542C91.3944 14.2865 91.4697 14.2081 91.5338 14.121C91.5677 14.0755 91.5938 14.0246 91.611 13.9705C91.6246 13.9088 91.6297 13.8455 91.626 13.7824C91.611 13.6542 91.582 13.5281 91.5395 13.4062C91.4657 13.2219 91.3513 13.0566 91.2046 12.9228C90.975 12.6982 90.7139 12.5081 90.4297 12.3585C89.9785 12.1142 89.5684 11.8007 89.2145 11.4292C88.8439 11.0417 88.5275 10.6057 88.274 10.1332C87.9919 9.59334 87.8181 9.00355 87.7624 8.397C87.6966 7.72614 87.7553 7.0489 87.9354 6.39934C88.1496 5.49304 88.6591 4.68372 89.3838 4.09883C90.0436 3.59643 90.8306 3.28828 91.6561 3.2091L92.2919 0.846526C92.3371 0.677373 92.4446 0.531571 92.5929 0.438342C92.67 0.388462 92.7568 0.355467 92.8475 0.341526C92.9383 0.327586 93.031 0.333014 93.1195 0.357456L96.5054 1.26788C96.5925 1.29152 96.6739 1.33233 96.745 1.38789C96.816 1.44345 96.8753 1.51264 96.9192 1.59141C96.9654 1.66871 96.9954 1.75459 97.0074 1.84385C97.0194 1.9331 97.013 2.02385 96.9888 2.11058L96.4734 4.02547C96.955 4.18724 97.429 4.35842 97.8898 4.53899C98.0428 4.60265 98.1682 4.71867 98.2435 4.8663C98.288 4.94927 98.3134 5.0411 98.318 5.13514C98.3225 5.22917 98.3061 5.32303 98.2698 5.40991L97.2729 8.06405C97.2385 8.14875 97.1875 8.22568 97.1229 8.29031C97.0583 8.35493 96.9814 8.40592 96.8967 8.44026C96.8069 8.47966 96.7093 8.49778 96.6114 8.49321C96.5135 8.48864 96.418 8.46151 96.3324 8.41393C95.571 8.0106 94.7714 7.68419 93.9453 7.43955C93.7203 7.36354 93.4824 7.33348 93.2456 7.35114C93.1113 7.35463 92.9808 7.39639 92.8694 7.47153C92.7832 7.53846 92.7061 7.61622 92.6399 7.7029C92.6053 7.74936 92.5792 7.80158 92.5628 7.85714C92.5485 7.91876 92.5447 7.98235 92.5515 8.04524C92.5665 8.17397 92.5975 8.30034 92.6436 8.42145C92.7207 8.60858 92.8375 8.77673 92.986 8.91428C93.2159 9.13945 93.4776 9.32959 93.7629 9.47859C94.2057 9.7341 94.6103 10.0507 94.9648 10.4191C95.3396 10.806 95.6564 11.245 95.9054 11.7227C96.184 12.2621 96.3552 12.8504 96.4095 13.4551C96.4671 14.1238 96.4033 14.7973 96.2214 15.4434C95.9373 16.4967 95.469 17.3093 94.8144 17.8567C94.1514 18.3846 93.3363 18.6853 92.4894 18.7145L91.8762 20.9943C91.8382 21.1366 91.7545 21.2626 91.6379 21.3526C91.5213 21.4427 91.3783 21.492 91.231 21.4928L91.2442 21.4871ZM88.005 19.8149L91.1539 20.667L91.8103 18.2216C91.8333 18.1389 91.8823 18.0656 91.95 18.0128C92.0177 17.96 92.1007 17.9303 92.1866 17.9282C93.0838 17.9075 93.8005 17.678 94.3159 17.2435C94.8313 16.809 95.2263 16.1262 95.4671 15.2308C95.6209 14.6773 95.6732 14.1006 95.6213 13.5285C95.578 13.0265 95.4375 12.5378 95.2075 12.0895C94.9914 11.6795 94.7178 11.3027 94.3949 10.9703C94.0916 10.6589 93.7466 10.3911 93.3697 10.1746C93.0174 9.98736 92.6948 9.74902 92.4123 9.46731C92.1797 9.246 91.9998 8.9754 91.8856 8.67539C91.8163 8.48709 91.7726 8.29033 91.7558 8.09039C91.7435 7.94457 91.7556 7.79772 91.7915 7.65587C91.8299 7.51159 91.8936 7.37529 91.9796 7.25333C92.0869 7.10827 92.2135 6.97854 92.3558 6.86772C92.5823 6.68806 92.8576 6.58058 93.1459 6.55923C93.4856 6.52961 93.8279 6.56863 94.1522 6.67397C94.9883 6.92189 95.7989 7.24879 96.5731 7.65023L97.4873 5.2425C96.9681 5.04123 96.4208 4.84749 95.8696 4.67819C95.7721 4.6473 95.6904 4.57999 95.6413 4.49028C95.5922 4.40056 95.5797 4.29538 95.6063 4.19665L96.1932 2.02217L93.0293 1.17006L92.3502 3.69441C92.3289 3.77425 92.2831 3.84543 92.2194 3.89804C92.1557 3.95064 92.0771 3.98204 91.9947 3.98785C91.2279 4.01973 90.4885 4.28193 89.8729 4.74027C89.2937 5.21837 88.8874 5.8732 88.716 6.60437C88.562 7.16038 88.5117 7.73999 88.5674 8.31423C88.611 8.81722 88.7529 9.30676 88.985 9.75511C89.2042 10.166 89.4775 10.5456 89.7976 10.8837C90.0946 11.1956 90.4386 11.459 90.8172 11.6644C91.1737 11.8525 91.5002 12.0928 91.7859 12.3773C92.0187 12.5994 92.197 12.8724 92.3069 13.1748C92.3695 13.3607 92.41 13.5532 92.4273 13.7485C92.438 13.8995 92.4247 14.0513 92.3878 14.1981C92.3472 14.338 92.2836 14.4703 92.1997 14.5894C92.0959 14.7353 91.9732 14.8669 91.8348 14.9806C91.6076 15.1561 91.3331 15.2596 91.0466 15.2778C90.7022 15.3057 90.3556 15.2648 90.0271 15.1574C89.6905 15.0663 89.36 14.9538 89.0377 14.8207C88.6841 14.6797 88.4094 14.563 88.1969 14.4652C88.0238 14.3843 87.8526 14.3016 87.6871 14.2169L86.7748 16.6416C87.2319 16.8297 87.7529 17.0178 88.3229 17.1927C88.4206 17.2232 88.5027 17.2905 88.5519 17.3803C88.601 17.4701 88.6133 17.5755 88.5863 17.6743L88.005 19.8149ZM290.553 99.9488C290.315 99.9491 290.086 99.8575 289.913 99.6932C289.741 99.5289 289.639 99.3045 289.627 99.0666C289.251 91.4748 288.717 82.2765 288.544 79.3948C288.117 79.4098 287.558 79.4286 286.904 79.4437C271.165 79.8631 269.672 78.2868 269.179 77.7696C269.027 77.6177 268.91 77.4349 268.835 77.2336C268.761 77.0324 268.73 76.8174 268.746 76.6033C268.853 75.2866 270.8 73.5034 275.196 69.6171C280.741 64.7152 288.335 57.9999 290.244 52.3436C290.281 52.2254 290.341 52.1157 290.421 52.021C290.5 51.9263 290.598 51.8484 290.708 51.7921C290.818 51.7358 290.939 51.702 291.062 51.6929C291.185 51.6838 291.309 51.6995 291.427 51.7391C291.544 51.7786 291.652 51.8412 291.745 51.9232C291.837 52.0052 291.913 52.1049 291.966 52.2165C292.02 52.328 292.051 52.4492 292.057 52.5728C292.063 52.6964 292.044 52.8199 292.001 52.9361C289.932 59.0627 282.128 65.9661 276.426 71.0053C273.957 73.1911 271.176 75.6477 270.667 76.6014C271.577 77.1507 275.8 77.8843 286.857 77.5909C288.362 77.5514 289.364 77.5062 289.374 77.5062C289.617 77.4949 289.855 77.5797 290.036 77.7423C290.217 77.9049 290.327 78.1322 290.342 78.3752C290.342 78.49 291.04 89.8834 291.482 98.9763C291.488 99.098 291.47 99.2196 291.429 99.3342C291.387 99.4489 291.324 99.5543 291.242 99.6444C291.16 99.7345 291.061 99.8076 290.951 99.8595C290.841 99.9115 290.722 99.9412 290.6 99.9469L290.553 99.9488ZM290.948 111.022C290.71 111.023 290.48 110.931 290.308 110.766C290.135 110.602 290.033 110.377 290.022 110.138C289.99 109.489 289.959 108.912 289.923 108.293C289.881 107.605 289.84 106.867 289.795 105.929C289.784 105.804 289.798 105.679 289.836 105.56C289.875 105.441 289.937 105.331 290.019 105.236C290.101 105.142 290.202 105.065 290.314 105.011C290.427 104.956 290.549 104.925 290.674 104.919C290.799 104.913 290.924 104.932 291.041 104.976C291.159 105.02 291.266 105.086 291.357 105.172C291.447 105.258 291.52 105.362 291.569 105.477C291.619 105.592 291.645 105.715 291.646 105.84C291.691 106.781 291.734 107.503 291.774 108.186C291.809 108.81 291.843 109.395 291.875 110.052C291.884 110.297 291.796 110.536 291.631 110.717C291.465 110.898 291.236 111.008 290.991 111.022H290.948ZM271.904 167.179C271.747 167.179 271.592 167.138 271.455 167.06C271.24 166.941 271.082 166.741 271.014 166.505C270.947 166.268 270.976 166.015 271.096 165.8C272.977 162.414 282.596 145.047 287.239 134.752C287.284 134.635 287.353 134.528 287.441 134.439C287.528 134.349 287.633 134.278 287.75 134.23C287.866 134.182 287.99 134.159 288.116 134.16C288.241 134.162 288.365 134.189 288.48 134.24C288.594 134.291 288.697 134.365 288.783 134.457C288.868 134.549 288.934 134.657 288.976 134.775C289.018 134.894 289.036 135.019 289.029 135.144C289.021 135.27 288.988 135.392 288.931 135.504C284.259 145.867 274.606 163.302 272.717 166.694C272.638 166.84 272.52 166.963 272.377 167.048C272.234 167.133 272.071 167.179 271.904 167.179ZM329.919 83.1531C328.108 83.1531 325.905 82.8352 323.223 82.1862C322.984 82.1283 322.777 81.9778 322.649 81.7678C322.521 81.5577 322.481 81.3053 322.539 81.0661C322.597 80.8268 322.747 80.6204 322.957 80.4922C323.167 80.364 323.42 80.3244 323.659 80.3823C326.571 81.0877 328.937 81.3887 330.69 81.2758C333.962 81.0689 334.366 79.5659 334.33 78.1194C334.212 73.2607 327.103 70.7157 323.68 70.2454C323.559 70.2287 323.443 70.1885 323.338 70.1269C323.233 70.0653 323.141 69.9836 323.067 69.8865C322.994 69.7894 322.94 69.6787 322.909 69.5609C322.878 69.443 322.871 69.3202 322.888 69.1996C322.905 69.0789 322.945 68.9627 323.006 68.8576C323.068 68.7525 323.15 68.6605 323.247 68.587C323.344 68.5135 323.455 68.4598 323.572 68.429C323.69 68.3982 323.813 68.391 323.934 68.4076C327.062 68.8384 336.025 71.5396 336.183 78.0743C336.238 80.2205 335.348 82.8408 330.809 83.1267C330.532 83.1437 330.228 83.1531 329.919 83.1531Z" fill="#202D37"/>
<path d="M330.489 79.0241C330.25 79.0247 330.021 78.933 329.849 78.7683C329.311 78.3413 326.015 77.0057 323.83 77.4515C323.71 77.4762 323.587 77.4772 323.468 77.4544C323.348 77.4315 323.234 77.3853 323.132 77.3184C323.03 77.2515 322.943 77.1652 322.874 77.0645C322.806 76.9637 322.758 76.8504 322.733 76.7311C322.708 76.6118 322.707 76.4888 322.73 76.3691C322.753 76.2494 322.799 76.1354 322.866 76.0336C322.933 75.9317 323.019 75.8441 323.12 75.7756C323.221 75.7071 323.334 75.6591 323.453 75.6344C326.371 75.0382 330.449 76.7367 331.149 77.4365C331.278 77.5663 331.366 77.7315 331.402 77.9112C331.437 78.091 331.419 78.2773 331.348 78.4465C331.278 78.6158 331.159 78.7604 331.007 78.8622C330.855 78.964 330.676 79.0184 330.492 79.0184L330.489 79.0241ZM327.131 207.764C326.889 207.764 326.657 207.67 326.484 207.501C326.31 207.332 326.21 207.103 326.204 206.861C326.204 206.714 325.76 191.869 320.246 166.778C320.193 166.538 320.238 166.287 320.371 166.079C320.503 165.872 320.712 165.726 320.953 165.673C321.193 165.62 321.444 165.665 321.651 165.797C321.859 165.93 322.005 166.139 322.058 166.379C326.837 188.133 327.831 202.275 328.019 205.894C342.384 205.49 357.385 197.576 360.57 195.806C353.855 171.738 340.52 146.264 332.522 130.984C329.595 125.38 327.469 121.33 326.773 119.421C326.109 117.57 323.801 92.2365 323.704 91.1586C323.687 91.0345 323.695 90.9083 323.729 90.7875C323.762 90.6668 323.819 90.554 323.897 90.4561C323.975 90.3581 324.072 90.277 324.183 90.2176C324.293 90.1582 324.414 90.1217 324.539 90.1104C324.664 90.0991 324.789 90.1131 324.908 90.1517C325.028 90.1903 325.138 90.2527 325.232 90.335C325.326 90.4173 325.403 90.5179 325.458 90.6307C325.512 90.7435 325.543 90.8661 325.549 90.9912C326.678 103.485 328.145 117.668 328.521 118.797C329.164 120.589 331.258 124.592 334.164 130.13C342.273 145.622 355.845 171.552 362.549 196.017C362.603 196.213 362.591 196.421 362.515 196.609C362.438 196.798 362.302 196.956 362.128 197.059C361.394 197.494 343.992 207.668 327.14 207.77L327.131 207.764Z" fill="#202D37"/>
<path d="M301.354 139.958C301.125 139.959 300.903 139.874 300.733 139.72C298.293 137.563 295.709 135.573 293 133.764C292.803 133.626 292.668 133.417 292.622 133.18C292.577 132.944 292.625 132.699 292.756 132.498C292.888 132.296 293.093 132.154 293.328 132.101C293.562 132.047 293.809 132.087 294.014 132.212C296.614 133.94 299.099 135.833 301.454 137.882C304.604 135.939 319.67 126.496 324.547 120.753C324.626 120.66 324.723 120.584 324.831 120.529C324.939 120.473 325.058 120.439 325.179 120.43C325.3 120.42 325.423 120.434 325.538 120.472C325.654 120.509 325.762 120.569 325.855 120.648C325.947 120.727 326.024 120.823 326.079 120.932C326.135 121.04 326.168 121.158 326.178 121.28C326.188 121.401 326.173 121.523 326.136 121.639C326.099 121.755 326.039 121.862 325.96 121.955C320.336 128.576 302.588 139.368 301.834 139.825C301.689 139.913 301.523 139.959 301.354 139.958ZM307.086 86.3565C305.415 86.3565 303.468 85.6606 301.426 84.9307C299.563 84.2648 297.635 83.5764 296.191 83.5764C295.945 83.5764 295.709 83.4787 295.535 83.3048C295.361 83.1308 295.263 82.895 295.263 82.649C295.263 82.4031 295.361 82.1672 295.535 81.9933C295.709 81.8194 295.945 81.7217 296.191 81.7217C297.957 81.7217 300.037 82.4647 302.05 83.1851C304.134 83.9375 306.288 84.6899 307.656 84.4567C307.894 84.4219 308.136 84.4811 308.332 84.6218C308.527 84.7625 308.66 84.9736 308.702 85.2106C308.745 85.4475 308.694 85.6917 308.559 85.8916C308.425 86.0914 308.218 86.2311 307.983 86.2813C307.687 86.3333 307.386 86.3584 307.086 86.3565Z" fill="#202D37"/>
<path d="M304.376 84.7556C304.237 84.756 304.1 84.7249 303.974 84.6646C303.849 84.6044 303.739 84.5165 303.652 84.4076C301.465 81.6613 300.067 81.5484 299.569 81.6255C299.388 81.6492 299.216 81.72 299.071 81.8309C298.926 81.9419 298.813 82.089 298.743 82.2576C298.701 82.3735 298.637 82.4801 298.554 82.5709C298.471 82.6618 298.37 82.7352 298.258 82.7868C298.147 82.8384 298.026 82.8673 297.902 82.8716C297.779 82.876 297.657 82.8557 297.541 82.8121C297.426 82.7685 297.321 82.7024 297.232 82.6176C297.142 82.5329 297.071 82.4311 297.021 82.3184C296.971 82.2056 296.945 82.0842 296.943 81.961C296.94 81.8378 296.963 81.7155 297.008 81.6011C297.194 81.1264 297.503 80.7092 297.902 80.3918C298.301 80.0743 298.776 79.8679 299.281 79.7934C300.524 79.6053 302.542 80.0398 305.112 83.2507C305.221 83.3873 305.289 83.5518 305.308 83.7252C305.327 83.8986 305.297 84.074 305.222 84.2312C305.146 84.3884 305.027 84.521 304.879 84.6137C304.731 84.7065 304.56 84.7557 304.386 84.7556H304.376ZM302.219 89.8889C301.804 89.8895 301.391 89.8358 300.991 89.729C299.309 89.2851 297.832 87.9025 296.834 85.8353C296.726 85.6138 296.712 85.3588 296.793 85.1265C296.874 84.8943 297.044 84.7036 297.265 84.5966C297.487 84.4896 297.742 84.475 297.974 84.5559C298.206 84.6369 298.397 84.8068 298.504 85.0283C299.256 86.599 300.313 87.6317 301.465 87.9364C302.46 88.1997 303.534 87.9364 304.679 87.152C304.78 87.0828 304.893 87.0341 305.012 87.0086C305.131 86.9831 305.254 86.9813 305.374 87.0033C305.493 87.0253 305.608 87.0707 305.71 87.1369C305.812 87.203 305.901 87.2887 305.97 87.389C306.039 87.4893 306.088 87.6022 306.113 87.7214C306.139 87.8405 306.14 87.9635 306.118 88.0833C306.096 88.2031 306.051 88.3174 305.985 88.4197C305.919 88.522 305.833 88.6102 305.733 88.6794C304.578 89.477 303.374 89.8889 302.219 89.8889ZM293.726 63.0033C293.577 63.0027 293.43 62.9662 293.298 62.8969C293.165 62.8275 293.052 62.7273 292.967 62.6048C292.881 62.4823 292.827 62.341 292.808 62.1929C292.789 62.0449 292.806 61.8944 292.857 61.7543C293.421 60.2495 295.158 58.9647 296.914 58.7446C298.163 58.5904 299.237 59.0211 299.86 59.9278C299.935 60.0278 299.988 60.1419 300.018 60.2632C300.048 60.3845 300.052 60.5105 300.032 60.6337C300.012 60.7568 299.967 60.8746 299.9 60.98C299.833 61.0853 299.745 61.1761 299.642 61.2468C299.539 61.3175 299.423 61.3667 299.301 61.3914C299.178 61.4162 299.052 61.416 298.93 61.3908C298.808 61.3657 298.692 61.3161 298.589 61.2451C298.487 61.174 298.399 61.083 298.333 60.9774C298.105 60.6482 297.706 60.5166 297.144 60.5862C296.079 60.7178 294.911 61.5474 294.595 62.3976C294.529 62.5752 294.411 62.7285 294.256 62.8367C294.1 62.945 293.915 63.0031 293.726 63.0033ZM308.549 66.9196C308.347 66.9194 308.151 66.8536 307.991 66.7321C307.83 66.6105 307.714 66.44 307.659 66.2462C307.358 65.1985 306.28 64.6962 305.831 64.5288C304.866 64.1695 304.036 64.2504 303.782 64.4178C303.68 64.4881 303.566 64.5373 303.445 64.5626C303.324 64.5879 303.199 64.5887 303.077 64.565C302.956 64.5413 302.841 64.4937 302.738 64.4248C302.635 64.3558 302.548 64.2671 302.48 64.1638C302.412 64.0604 302.365 63.9446 302.343 63.823C302.321 63.7014 302.323 63.5766 302.349 63.4559C302.376 63.3351 302.426 63.2209 302.497 63.1199C302.569 63.019 302.66 62.9332 302.764 62.8678C303.626 62.3035 305.082 62.2716 306.478 62.7907C307.982 63.355 309.066 64.4253 309.442 65.7364C309.481 65.8746 309.488 66.0201 309.462 66.1613C309.435 66.3025 309.376 66.4357 309.29 66.5504C309.203 66.665 309.091 66.758 308.963 66.8221C308.834 66.8862 308.692 66.9195 308.549 66.9196ZM362.991 235.993C362.749 235.993 362.516 235.898 362.342 235.728C362.169 235.558 362.069 235.327 362.064 235.084C362.064 234.885 361.603 214.957 358.315 197.759C358.288 197.637 358.286 197.512 358.308 197.39C358.33 197.268 358.377 197.151 358.445 197.047C358.513 196.944 358.601 196.854 358.705 196.785C358.808 196.716 358.924 196.669 359.046 196.645C359.168 196.622 359.293 196.624 359.415 196.65C359.536 196.676 359.651 196.726 359.753 196.797C359.855 196.869 359.941 196.96 360.007 197.065C360.073 197.171 360.116 197.288 360.136 197.411C363.454 214.761 363.913 234.843 363.917 235.045C363.92 235.289 363.827 235.525 363.657 235.702C363.487 235.878 363.255 235.98 363.01 235.985L362.991 235.993ZM333.358 233.664H333.344C333.223 233.662 333.102 233.637 332.99 233.588C332.879 233.54 332.777 233.47 332.692 233.383C332.608 233.296 332.541 233.192 332.496 233.079C332.451 232.966 332.428 232.845 332.43 232.723C332.637 218.625 329.84 207.175 329.812 207.06C329.753 206.822 329.791 206.57 329.918 206.359C330.044 206.149 330.25 205.998 330.488 205.938C330.727 205.879 330.979 205.917 331.189 206.044C331.4 206.171 331.551 206.376 331.61 206.615C331.64 206.729 334.496 218.399 334.285 232.75C334.281 232.993 334.182 233.226 334.009 233.397C333.835 233.568 333.601 233.664 333.358 233.664ZM240.115 229.975C239.97 229.975 239.828 229.941 239.699 229.875C239.571 229.81 239.459 229.715 239.374 229.599C235 223.794 233.204 215.143 234.174 204.581C235.057 195.001 238.109 184.289 243.004 173.604C248.647 161.297 255.125 149.753 259.416 142.112C262.16 137.221 264.327 133.367 264.732 132.041C265.554 129.338 271.692 109.546 273.172 106.271C274.75 102.763 283.762 97.7705 289.467 98.1072C293.359 98.3348 297.165 101.608 298.594 104.64C299.42 106.391 299.431 107.964 298.626 109.066C297.597 110.471 295.261 109.506 293.339 108.502C292.257 107.928 291.205 107.3 290.186 106.621C289.208 106.614 288.236 106.755 287.3 107.04C288.937 107.793 291.094 108.891 292.123 109.822C293.44 111.022 295.306 114.079 295.276 117.113C295.279 118.053 295.076 118.983 294.681 119.837C294.287 120.69 293.71 121.447 292.992 122.055C292.902 122.14 292.794 122.207 292.677 122.25C292.56 122.293 292.435 122.312 292.311 122.306C292.186 122.3 292.064 122.269 291.951 122.214C291.839 122.16 291.739 122.083 291.657 121.989C291.575 121.895 291.513 121.785 291.474 121.666C291.435 121.547 291.421 121.422 291.432 121.298C291.444 121.173 291.48 121.052 291.539 120.942C291.597 120.832 291.678 120.735 291.775 120.657C292.293 120.224 292.709 119.683 292.994 119.071C293.278 118.459 293.424 117.792 293.421 117.117C293.446 114.596 291.777 112.038 290.878 111.218C289.661 110.116 285.888 108.428 284.537 107.872C284.375 107.805 284.234 107.694 284.133 107.551C284.031 107.408 283.972 107.239 283.963 107.064C283.953 106.888 283.994 106.714 284.08 106.561C284.166 106.408 284.294 106.282 284.449 106.199C284.567 106.135 287.394 104.625 290.536 104.8C290.705 104.809 290.868 104.864 291.008 104.96C293.547 106.698 296.437 108.075 297.168 107.917C297.503 107.386 297.413 106.489 296.916 105.436C295.744 102.949 292.52 100.15 289.358 99.9637C284.279 99.6609 276.041 104.42 274.863 107.038C273.546 109.98 267.843 128.198 266.506 132.588C266.045 134.106 264.06 137.656 261.032 143.028C256.756 150.641 250.295 162.145 244.689 174.383C239.881 184.881 236.885 195.385 236.022 204.758C235.092 214.855 236.774 223.062 240.854 228.493C240.958 228.63 241.022 228.794 241.038 228.966C241.054 229.137 241.021 229.31 240.944 229.464C240.868 229.619 240.749 229.748 240.603 229.839C240.456 229.929 240.287 229.977 240.115 229.977V229.975Z" fill="#202D37"/>
<path d="M291.323 128.955C291.133 128.955 290.947 128.896 290.791 128.787C290.635 128.678 290.517 128.524 290.451 128.346C290.386 128.167 290.377 127.973 290.426 127.789C290.475 127.605 290.579 127.441 290.725 127.318C290.802 127.252 292.732 125.535 291.833 122.52C290.988 119.675 286.968 115.208 284.696 114.072C284.582 114.02 284.48 113.947 284.395 113.855C284.311 113.763 284.246 113.655 284.204 113.537C284.162 113.419 284.144 113.294 284.152 113.17C284.16 113.045 284.193 112.923 284.248 112.812C284.304 112.7 284.382 112.601 284.477 112.52C284.573 112.439 284.683 112.378 284.803 112.341C284.922 112.304 285.047 112.291 285.172 112.304C285.296 112.317 285.416 112.354 285.526 112.415C288.212 113.756 292.615 118.641 293.614 121.989C294.867 126.197 292.045 128.635 291.921 128.736C291.754 128.878 291.542 128.955 291.323 128.955Z" fill="#202D37"/>
<path d="M286.345 136.554C285.879 136.554 285.416 136.47 284.979 136.306C284.162 135.987 283.463 135.422 282.981 134.688C282.498 133.955 282.255 133.09 282.286 132.213C282.284 132.088 282.307 131.964 282.354 131.848C282.401 131.733 282.471 131.628 282.559 131.54C282.648 131.452 282.753 131.382 282.869 131.336C282.985 131.29 283.109 131.267 283.234 131.27C283.358 131.273 283.481 131.301 283.595 131.352C283.709 131.404 283.811 131.478 283.896 131.569C283.98 131.661 284.045 131.769 284.087 131.887C284.129 132.005 284.146 132.13 284.139 132.254C284.117 132.747 284.248 133.234 284.515 133.649C284.782 134.064 285.171 134.385 285.628 134.57C286.665 134.957 287.846 134.472 288.867 133.24C290.252 131.568 290.707 129.592 290.184 127.529C289.454 124.664 286.941 121.929 283.93 120.723C283.813 120.681 283.706 120.615 283.615 120.531C283.524 120.446 283.451 120.344 283.4 120.231C283.349 120.117 283.322 119.995 283.319 119.87C283.317 119.746 283.339 119.623 283.385 119.507C283.431 119.392 283.5 119.287 283.588 119.199C283.675 119.11 283.78 119.041 283.895 118.994C284.01 118.946 284.133 118.923 284.257 118.924C284.382 118.926 284.504 118.952 284.618 119.002C288.153 120.417 291.112 123.66 291.981 127.072C292.658 129.734 292.077 132.277 290.288 134.423C289.152 135.811 287.737 136.554 286.345 136.554Z" fill="#202D37"/>
<path d="M264.596 213.757C264.546 213.756 264.495 213.752 264.445 213.744C264.203 213.704 263.986 213.57 263.842 213.37C263.699 213.17 263.64 212.922 263.68 212.679C263.716 212.459 267.29 190.633 268.875 180.737C270.461 170.841 273.655 146.091 273.687 145.84C273.711 145.66 273.787 145.49 273.905 145.351C279.836 138.519 283.154 134.353 282.37 128.146C282.353 128.024 282.361 127.901 282.392 127.782C282.423 127.664 282.478 127.553 282.552 127.455C282.627 127.358 282.72 127.277 282.826 127.215C282.932 127.154 283.049 127.115 283.171 127.099C283.293 127.084 283.416 127.093 283.534 127.125C283.652 127.157 283.763 127.213 283.859 127.288C283.956 127.364 284.037 127.458 284.097 127.564C284.157 127.671 284.195 127.789 284.21 127.91C285.092 134.834 281.661 139.247 275.498 146.356C275.139 149.123 272.212 171.69 270.715 181.031C269.127 190.931 265.553 212.76 265.518 212.978C265.482 213.197 265.369 213.395 265.2 213.538C265.031 213.68 264.817 213.758 264.596 213.757ZM155.859 65.8889C155.631 65.8893 155.411 65.8055 155.24 65.6534C155.07 65.5014 154.962 65.2918 154.937 65.065C154.813 63.9364 151.794 45.5587 147.601 31.8591C147.529 31.6239 147.553 31.3697 147.669 31.1524C147.784 30.9351 147.981 30.7725 148.216 30.7004C148.452 30.6283 148.706 30.6526 148.923 30.768C149.14 30.8833 149.303 31.0803 149.375 31.3155C153.115 43.529 155.932 59.4614 156.625 63.7897C167.456 60.7962 178.479 58.5419 189.616 57.0424C189.86 57.01 190.107 57.0758 190.302 57.2253C190.498 57.3749 190.626 57.596 190.658 57.84C190.691 58.0839 190.625 58.3307 190.475 58.5262C190.326 58.7216 190.105 58.8496 189.861 58.882C178.463 60.4176 167.186 62.7476 156.113 65.855C156.03 65.8777 155.945 65.8891 155.859 65.8889Z" fill="#202D37"/>
<path d="M159.359 55.6393C159.189 55.6397 159.021 55.5929 158.875 55.5041C158.73 55.4153 158.611 55.288 158.534 55.1362C158.456 54.9843 158.421 54.814 158.434 54.6438C158.447 54.4737 158.507 54.3104 158.607 54.1721C159.399 53.0698 160.238 51.8321 161.052 50.6358C164.299 45.8391 165.542 44.1612 166.738 44.1612C166.927 44.1612 167.181 44.1725 167.502 44.1876C170.852 44.3437 171.721 44.0371 171.934 43.8114C171.934 43.5819 171.934 43.2997 171.934 42.9818C171.887 39.596 171.934 36.4546 173.063 35.2075C174.24 33.8908 182.001 28.9775 182.882 28.4189C183.09 28.2874 183.341 28.244 183.581 28.2981C183.821 28.3523 184.03 28.4996 184.162 28.7076C184.293 28.9156 184.336 29.1674 184.282 29.4074C184.228 29.6475 184.081 29.8562 183.873 29.9877C180.628 32.0399 175.199 35.6082 174.441 36.449C173.711 37.2597 173.774 41.5466 173.792 42.9555C173.792 43.3016 173.802 43.6063 173.802 43.849C173.802 44.0912 173.753 44.3309 173.655 44.5527C173.558 44.7746 173.416 44.9738 173.237 45.1375C172.163 46.1627 169.778 46.1401 167.427 46.031C167.203 46.0197 167.011 46.0103 166.863 46.0065C166.123 46.458 164.092 49.4582 162.598 51.6666C161.78 52.8723 160.935 54.1119 160.129 55.2405C160.043 55.3649 159.928 55.4662 159.794 55.5358C159.659 55.6053 159.51 55.6409 159.359 55.6393Z" fill="#202D37"/>
<path d="M176.817 26.4568C175.313 27.8356 183.36 35.4388 184.906 34.818C186.091 34.3421 190.662 24.683 189.149 23.2534C187.703 21.8878 178.984 24.4742 176.817 26.4568Z" fill="#202D37"/>
<path d="M184.709 35.7902C184.087 35.7902 182.923 35.414 180.663 33.5104C178.905 32.0244 177.278 30.2618 176.435 28.9113C175.545 27.4967 175.464 26.4415 176.192 25.7737C177.567 24.5134 180.724 23.3284 183.009 22.7057C185.454 22.0323 188.609 21.4661 189.781 22.5797C190.373 23.144 190.518 24.0845 190.238 25.5705C189.674 28.5445 186.777 35.0641 185.246 35.6773C185.077 35.7521 184.894 35.7906 184.709 35.7902ZM177.569 27.0434C177.678 27.5757 178.632 29.0561 180.579 30.9315C182.546 32.8389 184.055 33.753 184.587 33.9111C185.022 33.4314 186.105 31.6538 187.174 29.0918C188.441 26.0559 188.658 24.3385 188.49 23.9228C188.156 23.7347 186.521 23.6538 183.353 24.5435C180.867 25.232 178.538 26.2421 177.569 27.034V27.0434ZM62.4441 245.052C61.5917 245.052 60.74 245.003 59.8934 244.903C52.8264 244.066 46.7093 239.788 42.2004 232.531C37.5975 225.118 36.2281 214.043 38.2503 200.499C39.8755 189.565 43.6658 177.419 48.6486 167.175C56.8462 150.285 72.1051 133.47 74.3642 131.025L70.7658 83.8694C60.3656 83.9485 57.8262 80.3293 57.2224 78.7305C56.4963 76.8269 57.1659 74.6994 58.968 73.1758C61.1387 71.3361 64.5245 70.6608 68.0252 71.37C68.5765 71.4828 69.1215 71.6247 69.6579 71.7951C69.8924 71.8699 70.0875 72.0348 70.2004 72.2535C70.3133 72.4723 70.3347 72.7269 70.2598 72.9613C70.185 73.1958 70.0201 73.3909 69.8014 73.5038C69.5827 73.6167 69.3281 73.6381 69.0936 73.5633C68.6203 73.4123 68.1394 73.2867 67.6527 73.1871C64.7032 72.5908 61.9024 73.1156 60.1605 74.5903C58.9586 75.6061 58.5052 76.9077 58.9492 78.0683C59.7298 80.1168 63.4636 82.2235 71.5972 81.9997C71.8343 81.9964 72.0639 82.0827 72.24 82.2414C72.4161 82.4001 72.5258 82.6194 72.5472 82.8556L76.2509 131.298C76.2611 131.427 76.2441 131.556 76.201 131.678C76.1579 131.8 76.0897 131.911 76.0007 132.005C75.8333 132.184 59.03 150.076 50.3171 167.995C45.4132 178.077 41.6831 190.028 40.0843 200.781C38.1355 213.883 39.4146 224.528 43.7843 231.561C47.9827 238.332 53.6315 242.303 60.1192 243.071C68.2415 244.032 77.451 239.884 86.0492 231.391C101.208 216.417 110.623 202.179 111.564 199.813C111.238 199.378 110.284 198.428 109.357 197.505C105.926 194.092 99.6754 187.87 96.1899 180.22C91.2014 183.94 67.4684 202.252 55.3413 221.657C55.2077 221.858 55.0009 221.999 54.7651 222.05C54.5292 222.101 54.2828 222.058 54.0781 221.93C53.8735 221.802 53.7267 221.6 53.6689 221.365C53.6111 221.131 53.647 220.883 53.7688 220.675C67.4797 198.722 95.7309 178.224 96.0149 178.019C96.1285 177.937 96.2592 177.882 96.3971 177.858C96.535 177.834 96.6766 177.841 96.8113 177.879C96.9459 177.918 97.0701 177.986 97.1746 178.079C97.2791 178.173 97.361 178.288 97.4144 178.418C100.64 186.218 107.153 192.7 110.649 196.182C112.875 198.396 113.458 199.004 113.458 199.72C113.458 201.128 108.898 207.6 106.498 210.819C100.662 218.572 94.2606 225.883 87.3471 232.693C79.2079 240.748 70.4649 245.052 62.4441 245.052Z" fill="#202D37"/>
<path d="M67.122 77.8843C67.0164 77.8843 66.9114 77.8665 66.8117 77.8317C65.2241 77.2674 63.5782 77.1677 62.2972 77.5552C62.1794 77.5954 62.0547 77.6114 61.9306 77.6024C61.8064 77.5934 61.6854 77.5595 61.5746 77.5027C61.4638 77.446 61.3656 77.3675 61.2859 77.2719C61.2061 77.1764 61.1464 77.0658 61.1102 76.9467C61.0741 76.8276 61.0623 76.7024 61.0756 76.5786C61.0889 76.4549 61.1269 76.3351 61.1875 76.2263C61.248 76.1176 61.3299 76.0221 61.4281 75.9457C61.5263 75.8692 61.6389 75.8134 61.7592 75.7813C64.0164 75.0967 66.2737 75.676 67.4286 76.0842C67.6338 76.1578 67.8064 76.3014 67.9163 76.4896C68.0261 76.6779 68.0662 76.8988 68.0293 77.1136C67.9925 77.3285 67.8812 77.5235 67.715 77.6644C67.5487 77.8053 67.3381 77.8832 67.1202 77.8843H67.122ZM91.1109 91.9206C88.5376 92.8499 85.575 92.9307 83.3855 91.2924C81.5143 89.9026 80.1807 87.9092 79.6102 85.6493C78.8352 82.6227 79.5275 79.6638 80.927 78.5803C83.329 76.7275 85.5637 79.3722 88.6843 81.4846C92.089 83.787 95.3281 82.2258 96.5602 85.6417C97.3653 87.8538 94.5927 90.6641 91.1109 91.9206Z" fill="#202D37"/>
<path d="M87.5536 93.51C85.7666 93.51 84.1376 93.0134 82.8284 92.0353C80.7866 90.5184 79.3325 88.3419 78.7127 85.8749C77.8738 82.6057 78.5697 79.2274 80.3661 77.8429C82.834 75.9393 85.1665 77.7037 87.4219 79.4117C87.9956 79.8443 88.5863 80.292 89.2089 80.7134C90.4711 81.5674 91.7069 81.8251 92.9014 82.0752C94.6921 82.4514 96.5411 82.8276 97.4365 85.3238C98.4955 88.2582 95.2131 91.4277 91.4266 92.7934C90.1866 93.254 88.8763 93.4965 87.5536 93.51ZM82.6328 78.885C82.2187 78.8937 81.8203 79.0445 81.5042 79.312C80.4771 80.102 79.8112 82.6602 80.5147 85.4141C81.0307 87.4713 82.243 89.2865 83.9457 90.5512C85.65 91.8246 88.148 92.0071 90.8021 91.0496C93.9209 89.921 96.2571 87.4945 95.6928 85.952C95.1699 84.5018 94.3422 84.2723 92.5214 83.8829C91.2799 83.6233 89.7337 83.2998 88.1705 82.2426C87.5065 81.7931 86.8952 81.3303 86.3046 80.8827C84.5966 79.5998 83.5338 78.885 82.6328 78.885Z" fill="#202D37"/>
<path d="M91.112 91.9204C88.5387 92.8496 85.5761 92.9305 83.3866 91.2921C81.5154 89.9024 80.1818 87.9089 79.6113 85.649C83.5935 84.2608 88.8227 85.6001 91.112 91.9204Z" fill="#FFFEF2"/>
<path d="M87.5525 93.51C85.7655 93.51 84.1365 93.0134 82.8273 92.0353C80.7855 90.5184 79.3314 88.3418 78.7116 85.8749C78.6538 85.6498 78.6827 85.4113 78.7924 85.2064C78.9021 85.0016 79.0847 84.8454 79.3041 84.7688C83.6662 83.2527 89.4956 84.7463 91.9823 91.6045C92.0652 91.8366 92.0537 92.0919 91.9503 92.3156C91.8455 92.538 91.6568 92.7098 91.4255 92.7933C90.1855 93.254 88.8752 93.4965 87.5525 93.51ZM80.7807 86.2737C81.3896 87.9818 82.4921 89.4706 83.9484 90.5511C85.4532 91.6798 87.5807 91.9488 89.8849 91.3374C87.8459 86.7985 84.0481 85.5231 80.7713 86.2737H80.7807ZM87.3944 118.669C84.1722 118.669 80.8259 118.492 77.25 118.208C77.0048 118.189 76.7774 118.072 76.6178 117.885C76.4582 117.698 76.3794 117.455 76.3989 117.21C76.4183 116.965 76.5344 116.737 76.7215 116.578C76.9087 116.418 77.1516 116.339 77.3968 116.359C88.4271 117.234 97.2134 117.094 106.91 113.703C107.142 113.622 107.397 113.636 107.619 113.743C107.841 113.849 108.011 114.04 108.092 114.272C108.174 114.504 108.159 114.759 108.053 114.981C107.946 115.203 107.756 115.373 107.523 115.454C100.691 117.834 94.3298 118.669 87.3944 118.669ZM83.3333 136.281C80.6227 136.281 77.7993 134.268 75.0567 132.316L74.7746 132.114C74.6648 132.049 74.5699 131.961 74.4957 131.856C74.4216 131.752 74.3698 131.634 74.3437 131.508C74.3176 131.383 74.3177 131.254 74.3441 131.128C74.3704 131.003 74.4224 130.885 74.4968 130.78C74.5711 130.676 74.6662 130.589 74.7761 130.523C74.886 130.457 75.0083 130.415 75.1353 130.399C75.2623 130.383 75.3913 130.394 75.514 130.43C75.6368 130.466 75.7507 130.527 75.8487 130.61L76.1327 130.811C78.8752 132.765 81.71 134.789 83.9296 134.385C84.9623 134.197 85.8746 133.488 86.7192 132.22C88.1431 130.083 89.1212 127.882 89.9075 126.114C91.0888 123.462 91.9409 121.545 93.6131 121.492C95.0427 121.46 96.4234 123.089 98.549 125.774C99.8337 127.397 101.292 129.238 102.454 129.955C103.323 130.491 104.203 130.613 105.076 130.32C106.438 129.859 107.672 128.42 108.462 126.37C108.554 126.146 108.73 125.966 108.953 125.87C109.175 125.774 109.427 125.769 109.653 125.856C109.879 125.944 110.062 126.116 110.163 126.336C110.264 126.556 110.275 126.808 110.193 127.036C109.207 129.603 107.559 131.439 105.678 132.077C104.279 132.549 102.83 132.361 101.489 131.533C100.05 130.645 98.5509 128.753 97.1043 126.925C96.0585 125.608 94.3073 123.394 93.6752 123.351C93.1711 123.366 92.2701 125.392 91.6061 126.872C90.7916 128.704 89.7777 130.986 88.2654 133.253C87.1367 134.936 85.7993 135.931 84.2682 136.213C83.9592 136.264 83.6463 136.287 83.3333 136.281Z" fill="#202D37"/>
<path d="M100.046 140.882C101.039 140.882 101.843 140.078 101.843 139.085C101.843 138.093 101.039 137.289 100.046 137.289C99.0543 137.289 98.25 138.093 98.25 139.085C98.25 140.078 99.0543 140.882 100.046 140.882Z" fill="#202D37"/>
<path d="M104.144 149.695C103.16 149.93 102.603 151.123 102.899 152.357C103.194 153.591 104.232 154.399 105.216 154.164C106.2 153.929 106.758 152.737 106.463 151.503C106.168 150.269 105.129 149.458 104.144 149.695ZM138.33 180.377C137.696 180.527 137.337 181.294 137.528 182.09C137.72 182.886 138.386 183.407 139.02 183.254C139.654 183.102 140.013 182.335 139.823 181.539C139.633 180.743 138.964 180.224 138.33 180.377ZM113.165 156.591H113.103C112.858 156.574 112.629 156.461 112.468 156.277C112.306 156.092 112.224 155.85 112.24 155.605C112.24 155.462 113.152 141.234 112.24 126.366C112.23 126.124 112.315 125.887 112.478 125.706C112.64 125.526 112.867 125.416 113.11 125.402C113.352 125.387 113.591 125.468 113.774 125.627C113.958 125.786 114.071 126.011 114.091 126.254C115.012 141.242 114.091 155.583 114.091 155.726C114.075 155.96 113.971 156.181 113.799 156.341C113.627 156.502 113.401 156.591 113.165 156.591ZM103.279 171.562C103.149 171.562 103.021 171.535 102.903 171.483C102.785 171.431 102.679 171.355 102.592 171.259C85.8884 152.9 75.6349 136.46 75.5333 136.304C75.4038 136.095 75.3626 135.843 75.4187 135.604C75.4748 135.365 75.6236 135.158 75.8324 135.029C76.0412 134.899 76.2928 134.858 76.532 134.914C76.7712 134.97 76.9782 135.119 77.1077 135.328C77.2093 135.489 87.3819 151.785 103.965 170.012C104.086 170.145 104.167 170.31 104.195 170.487C104.224 170.665 104.201 170.847 104.128 171.011C104.055 171.176 103.936 171.315 103.785 171.413C103.635 171.511 103.458 171.563 103.279 171.562ZM84.2763 181.432C84.1032 181.432 83.9334 181.384 83.7864 181.292C83.6394 181.201 83.5211 181.07 83.4449 180.914C80.8679 175.691 80.5763 169.011 80.4033 165.022C80.3544 163.91 80.3168 163.032 80.2434 162.478C80.2434 162.478 80.0816 162.129 78.6295 161.892C77.3654 161.687 75.7157 161.653 74.115 161.621C70.7479 161.553 68.9647 161.47 68.3496 160.424C67.4091 158.812 68.438 153.002 70.8232 142.141C70.8794 141.904 71.0263 141.699 71.2321 141.57C71.438 141.441 71.6864 141.397 71.9239 141.449C72.1613 141.501 72.3689 141.645 72.5018 141.848C72.6347 142.052 72.6824 142.299 72.6346 142.538C71.632 147.105 69.3052 157.703 69.9184 159.416C70.4827 159.693 72.6779 159.738 74.1507 159.766C78.0689 159.845 81.7689 159.918 82.0774 162.234C82.1621 162.868 82.2016 163.782 82.2523 164.941C82.4198 168.786 82.7 175.221 85.104 180.094C85.2127 180.315 85.2293 180.57 85.1503 180.802C85.0713 181.035 84.9031 181.227 84.6826 181.336C84.5564 181.399 84.4174 181.432 84.2763 181.432Z" fill="#202D37"/>
<path d="M96.8948 180.47C96.7185 180.47 96.546 180.419 96.3975 180.324C96.2489 180.229 96.1305 180.094 96.0559 179.934C95.9814 179.774 95.9538 179.597 95.9764 179.422C95.9991 179.247 96.071 179.082 96.1837 178.947C101.296 172.865 105.929 164.957 107.716 159.269C109.076 154.926 114.919 153.344 125.586 154.435C134.025 155.298 135.744 161.207 136.065 162.99C136.615 166.013 135.689 168.866 133.855 169.777C133.635 169.886 133.38 169.904 133.147 169.825C132.914 169.747 132.721 169.579 132.612 169.359C132.502 169.139 132.485 168.884 132.563 168.651C132.641 168.418 132.809 168.225 133.029 168.116C133.949 167.658 134.673 165.697 134.241 163.321C133.976 161.854 132.548 157.01 125.4 156.28C116.021 155.321 110.521 156.545 109.494 159.824C107.643 165.725 102.867 173.89 97.6133 180.139C97.5256 180.244 97.4156 180.328 97.2913 180.385C97.167 180.443 97.0316 180.472 96.8948 180.47Z" fill="#202D37"/>
<path d="M131.296 174.831C131.068 174.832 130.849 174.749 130.679 174.599C130.509 174.448 130.4 174.241 130.372 174.015C130.345 173.79 130.401 173.562 130.531 173.376C130.66 173.189 130.853 173.056 131.074 173.003C131.739 172.839 132.181 172.532 132.43 172.062C133.241 170.54 132.091 167.393 131.54 165.881C130.944 164.248 126.168 161.622 120.265 160.464C120.024 160.416 119.811 160.275 119.674 160.071C119.536 159.866 119.486 159.616 119.533 159.375C119.581 159.133 119.722 158.92 119.926 158.783C120.131 158.646 120.381 158.595 120.623 158.643C125.976 159.694 132.23 162.365 133.282 165.243C134.313 168.065 135.122 170.954 134.066 172.933C133.564 173.874 132.708 174.506 131.519 174.799C131.446 174.819 131.371 174.83 131.296 174.831ZM109.389 197.155C109.143 197.154 108.908 197.057 108.733 196.884C108.253 196.403 108.473 195.897 108.836 195.058C109.024 194.644 109.272 194.076 109.6 193.365C110.164 192.157 110.728 190.963 110.728 190.963C110.793 190.83 110.888 190.714 111.006 190.625C111.124 190.536 111.262 190.475 111.407 190.449C111.752 190.389 119.851 188.892 120.756 181.693C120.792 181.454 120.92 181.238 121.113 181.092C121.306 180.946 121.549 180.881 121.789 180.911C122.029 180.941 122.248 181.064 122.398 181.254C122.549 181.443 122.62 181.684 122.596 181.924C121.655 189.383 114.195 191.687 112.207 192.172C111.347 193.974 110.467 195.885 110.305 196.344C110.276 196.567 110.166 196.772 109.997 196.92C109.828 197.069 109.61 197.15 109.385 197.15L109.389 197.155Z" fill="#202D37"/>
<path d="M123.532 188.56C122.475 188.56 121.414 187.97 120.696 186.965C119.957 185.929 119.797 184.725 120.271 183.745C120.321 183.631 120.393 183.528 120.484 183.442C120.575 183.357 120.682 183.29 120.799 183.247C120.916 183.204 121.04 183.185 121.165 183.191C121.29 183.197 121.412 183.228 121.524 183.282C121.636 183.336 121.736 183.413 121.819 183.507C121.901 183.601 121.963 183.71 122.002 183.829C122.04 183.947 122.055 184.072 122.044 184.197C122.033 184.321 121.998 184.442 121.939 184.552C121.734 184.975 121.939 185.521 122.206 185.889C122.583 186.431 123.171 186.753 123.645 186.698C124.851 186.553 127.838 183.911 128.192 182.077C128.489 180.534 126.123 175.258 124.806 174.552C123.361 173.77 121.074 174.075 121.044 174.078C120.803 174.106 120.562 174.039 120.37 173.892C120.178 173.744 120.052 173.527 120.018 173.287C119.984 173.047 120.045 172.804 120.189 172.609C120.332 172.414 120.545 172.282 120.784 172.243C120.903 172.224 123.696 171.844 125.675 172.923C127.857 174.107 130.409 180.259 129.99 182.43C129.499 184.981 125.852 188.303 123.843 188.544C123.74 188.555 123.636 188.561 123.532 188.56Z" fill="#202D37"/>
<path d="M128.701 180.471C128.461 180.47 128.229 180.377 128.057 180.209C127.884 180.041 127.783 179.813 127.775 179.572C127.768 179.332 127.854 179.098 128.016 178.919C128.178 178.741 128.403 178.633 128.643 178.618C129.715 178.55 130.413 178.242 130.712 177.73C131.563 176.276 129.943 172.899 128.976 170.883L128.73 170.366C128.414 169.7 125.583 167.785 121.529 167.095C121.409 167.074 121.294 167.03 121.191 166.965C121.088 166.9 120.999 166.816 120.928 166.716C120.786 166.516 120.73 166.267 120.771 166.024C120.812 165.782 120.948 165.566 121.149 165.424C121.35 165.281 121.599 165.225 121.841 165.266C126.085 165.988 129.695 168.075 130.404 169.57L130.648 170.08C131.92 172.732 133.658 176.362 132.313 178.667C131.677 179.752 130.481 180.36 128.758 180.469L128.701 180.471Z" fill="#202D37"/>
<path d="M197.189 163.953C197.924 168.543 210.377 162.343 207.95 156.805C205.655 151.565 196.361 158.775 197.189 163.953Z" fill="#FFFEF2"/>
<path d="M199.428 166.475C199.033 166.479 198.64 166.429 198.26 166.325C197.745 166.195 197.28 165.913 196.927 165.516C196.574 165.12 196.347 164.626 196.277 164.099C195.651 160.174 199.814 155.43 203.662 154.299C205.997 153.613 207.919 154.41 208.805 156.432C209.633 158.313 209.136 160.445 207.411 162.416C205.323 164.795 201.898 166.475 199.428 166.475ZM205.259 155.908C204.897 155.914 204.537 155.971 204.191 156.079C201.206 156.955 197.656 160.936 198.115 163.806C198.13 163.984 198.203 164.153 198.323 164.286C198.443 164.419 198.603 164.509 198.779 164.542C200.338 164.993 203.916 163.601 206.021 161.195C206.888 160.204 207.782 158.703 207.112 157.175C206.952 156.829 206.546 155.913 205.259 155.913V155.908ZM166.666 175.544C166.365 175.544 166.064 175.532 165.761 175.51C162.152 175.241 158.886 173.392 156.563 170.307C154.27 167.26 153.177 163.36 153.476 159.329C153.72 155.863 155.05 152.561 157.278 149.894C160.099 146.587 164.021 144.862 168.041 145.163C169.482 145.27 170.893 145.637 172.204 146.245C175.661 147.844 178.36 151.043 179.609 155.022C180.249 157.065 180.491 159.211 180.324 161.346C180.179 163.357 179.674 165.326 178.833 167.158C176.449 172.331 171.743 175.544 166.666 175.544ZM167.146 146.982C163.989 146.982 160.938 148.455 158.681 151.096C156.749 153.353 155.557 156.333 155.32 159.468C155.049 163.042 156.016 166.503 158.038 169.191C160.033 171.844 162.823 173.431 165.891 173.661C170.528 174.009 174.943 171.151 177.14 166.379C177.889 164.749 178.339 162.996 178.468 161.206C178.617 159.306 178.401 157.394 177.832 155.575C176.739 152.093 174.403 149.305 171.419 147.926C170.309 147.412 169.115 147.101 167.894 147.01C167.647 146.991 167.398 146.982 167.146 146.982Z" fill="#202D37"/>
<path d="M177.981 167.694C177.883 167.694 177.786 167.679 177.693 167.649L167.347 164.263C167.166 164.205 167.008 164.091 166.894 163.938L157.233 151.043C157.106 150.875 157.041 150.669 157.047 150.459C157.054 150.248 157.132 150.046 157.269 149.887C160.09 146.58 164.012 144.855 168.032 145.156C169.473 145.263 170.884 145.629 172.195 146.237C175.652 147.836 178.351 151.036 179.601 155.014C180.838 159.018 180.562 163.337 178.824 167.151C178.749 167.312 178.63 167.448 178.481 167.544C178.332 167.64 178.158 167.692 177.981 167.694ZM168.2 162.599L177.462 165.623C178.017 164.21 178.355 162.721 178.464 161.207C178.613 159.306 178.398 157.394 177.829 155.575C176.736 152.093 174.399 149.305 171.416 147.927C170.306 147.412 169.112 147.101 167.891 147.01C164.693 146.772 161.556 148.054 159.172 150.549L168.2 162.599Z" fill="#202D37"/>
<path d="M178.726 155.298L167.645 163.387L171.817 147.084C175.056 148.578 177.559 151.587 178.726 155.298Z" fill="#23CBB8"/>
<path d="M167.639 164.316C167.498 164.316 167.358 164.283 167.232 164.221C167.105 164.159 166.994 164.069 166.907 163.957C166.821 163.845 166.761 163.715 166.732 163.577C166.704 163.439 166.707 163.296 166.742 163.159L170.912 146.856C170.946 146.725 171.008 146.602 171.095 146.497C171.181 146.392 171.289 146.308 171.412 146.249C171.535 146.191 171.669 146.16 171.805 146.159C171.941 146.158 172.075 146.186 172.199 146.243C175.656 147.842 178.355 151.042 179.604 155.02C179.662 155.205 179.661 155.404 179.6 155.588C179.539 155.772 179.422 155.933 179.266 156.047L168.186 164.135C168.027 164.251 167.836 164.315 167.639 164.316ZM172.417 148.453L169.178 161.116L177.624 154.95C176.604 152.151 174.757 149.849 172.422 148.453H172.417Z" fill="#202D37"/>
<path d="M194.854 156.881C195.185 161.517 208.132 156.427 206.199 150.7C204.37 145.278 194.482 151.649 194.854 156.881Z" fill="#FFFEF2"/>
<path d="M197.388 159.61C196.817 159.621 196.249 159.529 195.712 159.337C195.21 159.162 194.773 158.841 194.455 158.415C194.138 157.989 193.956 157.477 193.933 156.946C193.649 152.981 198.21 148.619 202.143 147.829C204.53 147.347 206.374 148.31 207.081 150.402C207.739 152.355 207.06 154.429 205.17 156.233C203.044 158.278 199.813 159.61 197.388 159.61ZM195.782 156.815C195.781 156.994 195.839 157.169 195.947 157.312C196.055 157.455 196.207 157.558 196.38 157.607C197.885 158.19 201.579 157.114 203.885 154.903C204.826 153.993 205.856 152.575 205.322 150.995C205.174 150.553 204.72 149.202 202.51 149.646C199.459 150.259 195.575 153.916 195.782 156.815Z" fill="#202D37"/>
<path d="M193.142 150.054C193.493 154.905 207.415 149.979 205.368 143.984C203.418 138.311 192.745 144.578 193.142 150.054Z" fill="#FFFEF2"/>
<path d="M196.042 152.943C195.391 152.957 194.744 152.852 194.131 152.635C192.98 152.194 192.299 151.301 192.212 150.12C191.921 146.074 196.64 141.804 200.744 140.965C203.414 140.421 205.464 141.437 206.233 143.683C206.899 145.624 206.258 147.667 204.426 149.435C202.249 151.549 198.719 152.943 196.042 152.943ZM202.138 142.669C201.794 142.672 201.451 142.71 201.115 142.782C197.825 143.453 193.845 146.98 194.063 149.986C194.086 150.31 194.191 150.673 194.793 150.902C196.548 151.574 200.743 150.413 203.137 148.101C204.046 147.225 205.018 145.844 204.48 144.283C204.115 143.211 203.331 142.669 202.142 142.669H202.138Z" fill="#202D37"/>
<path d="M188.98 144.11C188.98 148.974 204.251 143.675 202.276 137.654C200.301 131.633 188.98 137.75 188.98 144.11Z" fill="#FFFEF2"/>
<path d="M191.727 146.928C191.022 146.946 190.322 146.818 189.669 146.552C189.182 146.358 188.766 146.02 188.477 145.583C188.188 145.146 188.04 144.63 188.053 144.106C188.053 139.469 193.173 135.057 197.579 134.351C200.31 133.915 202.394 135.042 203.156 137.361C203.794 139.302 203.041 141.369 201.038 143.181C198.568 145.417 194.58 146.928 191.727 146.928ZM189.906 144.106C189.906 144.424 189.994 144.671 190.421 144.859C192.176 145.639 197.035 144.294 199.795 141.802C200.803 140.89 201.899 139.479 201.393 137.936C200.914 136.473 199.731 135.882 197.872 136.18C194.287 136.744 189.908 140.521 189.906 144.102V144.106ZM135.42 166.05C137.26 170.99 138.766 175.493 138.319 177.205C138.106 178.016 136.599 178.396 135.894 177.205C135.189 176.014 133.637 169.053 133.637 169.053C133.637 169.053 135.3 168.609 135.42 166.05Z" fill="#202D37"/>
</svg>
