<svg xmlns="http://www.w3.org/2000/svg" xmlns:xlink="http://www.w3.org/1999/xlink" width="36.243" height="25.524" viewBox="0 0 36.243 25.524">
  <defs>
    <clipPath id="clip-path">
      <rect id="Rectángulo_5659" data-name="Rectángulo 5659" width="36.243" height="25.524" fill="#17b8ab"/>
    </clipPath>
  </defs>
  <g id="Total_depositos" data-name="Total depositos" transform="translate(220 72)">
    <g id="Grupo_45368" data-name="Grupo 45368" transform="translate(-220 -72)" clip-path="url(#clip-path)">
      <path id="Trazado_27590" data-name="Trazado 27590" d="M9.909,11.129H6.833a.725.725,0,0,1,0-1.449H9.909A1.793,1.793,0,0,0,11.7,7.887a.725.725,0,0,1,.726-.724H14.1a2.633,2.633,0,0,0,2.529-1.906H9.071a.725.725,0,1,1,0-1.449h8.387a.723.723,0,0,1,.724.724A4.085,4.085,0,0,1,14.1,8.613H13.068a3.246,3.246,0,0,1-3.159,2.516" transform="translate(6.817 4.25)" fill="#17b8ab"/>
      <path id="Trazado_27591" data-name="Trazado 27591" d="M9.354,19.07a2.347,2.347,0,0,1-1.667-.692l-7-7a2.357,2.357,0,0,1,0-3.337l1.57-1.572a2.364,2.364,0,0,1,3.339,0l7,7a2.364,2.364,0,0,1,0,3.339l-1.572,1.57a2.348,2.348,0,0,1-1.669.692m-.643-1.716a.912.912,0,0,0,1.289,0l1.572-1.572a.912.912,0,0,0,0-1.289l-7-7a.914.914,0,0,0-1.289,0L1.716,9.07a.912.912,0,0,0,0,1.289Z" transform="translate(0 6.455)" fill="#17b8ab"/>
      <path id="Trazado_27592" data-name="Trazado 27592" d="M2.787,12.373a.725.725,0,0,1-.512-1.238l9.314-9.316a.724.724,0,0,1,.512-.212h6.788a.725.725,0,0,1,0,1.449H12.4l-9.1,9.1a.719.719,0,0,1-.512.212" transform="translate(2.302 1.794)" fill="#17b8ab"/>
      <path id="Trazado_27593" data-name="Trazado 27593" d="M6.641,13.457a.712.712,0,0,1-.512-.212.722.722,0,0,1,0-1.026,5.093,5.093,0,0,1,3.633-1.5A5.854,5.854,0,0,0,13.924,8.99L16.12,6.8A.724.724,0,1,1,17.144,7.82l-2.2,2.194a7.286,7.286,0,0,1-5.186,2.15,3.67,3.67,0,0,0-2.611,1.081.718.718,0,0,1-.51.212" transform="translate(6.6 7.347)" fill="#17b8ab"/>
      <path id="Trazado_27594" data-name="Trazado 27594" d="M17.587,16.724A8.334,8.334,0,0,1,10.55,12.88a.724.724,0,0,1,1.219-.783,6.915,6.915,0,1,0-1.094-3.735.725.725,0,1,1-1.449,0,8.362,8.362,0,1,1,8.362,8.362" transform="translate(10.294 0.001)" fill="#17b8ab"/>
      <path id="Trazado_27595" data-name="Trazado 27595" d="M6.251,11.419a.725.725,0,0,1-.512-1.238L6.56,9.36a.725.725,0,0,1,1.026,1.024l-.823.823a.728.728,0,0,1-.512.212" transform="translate(6.167 10.208)" fill="#17b8ab"/>
    </g>
  </g>
</svg>
