<svg xmlns="http://www.w3.org/2000/svg" width="33.435" height="29.848" viewBox="0 0 33.435 29.848">
  <path id="Total_transacciones" data-name="Total transacciones" d="M29.633,11.775l-.22,4.259L26.865,17.1a.4.4,0,0,0-.218.538.427.427,0,0,0,.555.211l2.812-1.185a.408.408,0,0,0,.253-.375V11.707a.393.393,0,0,0-.422-.38c-.233,0-.21.222-.21.448Zm-1.061,22.2H8.83a4.45,4.45,0,0,1-4.508-4.366V27.063a.415.415,0,0,1,.422-.408h7.739v-9.18a.441.441,0,0,1,.006-.068V4.785a.415.415,0,0,1,.422-.408H32.683a.415.415,0,0,1,.422.408V9.578a7.309,7.309,0,0,1,0,13.413v6.614A4.45,4.45,0,0,1,28.6,33.972C28.588,33.978,28.58,33.975,28.572,33.975ZM29.845,9.684a6.826,6.826,0,0,0-6.31,4.09,6.455,6.455,0,0,0,1.505,7.207,6.985,6.985,0,0,0,7.455,1.394c.013-.007.027-.014.041-.02a6.558,6.558,0,0,0,3.987-7.4,6.77,6.77,0,0,0-6.678-5.273ZM13.326,17.543v9.111h11.2a.415.415,0,0,1,.422.408v2.549a3.6,3.6,0,0,0,3.626,3.547h.036a3.618,3.618,0,0,0,3.653-3.549V23.322a7.844,7.844,0,0,1-2.417.385H16.867a.409.409,0,1,1,0-.817h9.5a7.643,7.643,0,0,1-2.808-2.368H18.676a.409.409,0,1,1,0-.817h4.372a7.224,7.224,0,0,1,.965-8.236,7.812,7.812,0,0,1,8.248-2.216V5.2H13.332V17.474a.368.368,0,0,1-.006.069ZM25.994,33.158A4.319,4.319,0,0,1,24.1,29.611v-2.14H5.165v2.14A3.618,3.618,0,0,0,8.821,33.16H8.83Z" transform="translate(-4.197 -4.252)" fill="#17b8ab" stroke="#17b8ab" stroke-width="0.25"/>
</svg>
