<svg width="30" height="39" viewBox="0 0 30 39" fill="none" xmlns="http://www.w3.org/2000/svg">
<path d="M13.208 36.1875C13.208 37.2921 14.1034 38.1875 15.208 38.1875C16.3126 38.1875 17.208 37.2921 17.208 36.1875L13.208 36.1875ZM16.6222 1.371C15.8412 0.589955 14.5748 0.589955 13.7938 1.371L1.06587 14.0989C0.284823 14.88 0.284823 16.1463 1.06587 16.9274C1.84692 17.7084 3.11325 17.7084 3.8943 16.9274L15.208 5.61364L26.5217 16.9274C27.3028 17.7084 28.5691 17.7084 29.3501 16.9274C30.1312 16.1463 30.1312 14.88 29.3501 14.0989L16.6222 1.371ZM17.208 36.1875L17.208 2.78522L13.208 2.78522L13.208 36.1875L17.208 36.1875Z" fill="#5840D1"/>
</svg>
