<svg xmlns="http://www.w3.org/2000/svg" width="63" height="63" viewBox="0 0 63 63" fill="none">
<path d="M31.291 1.1593C25.2999 1.1595 19.4433 2.93626 14.462 6.26491C9.48059 9.59356 5.59814 14.3246 3.30557 19.8597C1.01299 25.3949 0.413251 31.4856 1.58219 37.3616C2.75112 43.2376 5.63624 48.635 9.87269 52.8713C14.1091 57.1076 19.5067 59.9926 25.3827 61.1613C31.2588 62.3301 37.3494 61.7301 42.8845 59.4374C48.4196 57.1446 53.1505 53.262 56.479 48.2805C59.8074 43.2991 61.584 37.4425 61.584 31.4513C61.584 27.4732 60.8005 23.5341 59.2781 19.8588C57.7557 16.1836 55.5243 12.8442 52.7113 10.0313C49.8984 7.21838 46.5589 4.98711 42.8836 3.46486C39.2083 1.9426 35.2691 1.15917 31.291 1.1593ZM47.065 24.2223L28.321 42.9653C28.0398 43.2467 27.7059 43.47 27.3384 43.6223C26.9708 43.7747 26.5769 43.8531 26.179 43.8531C25.7812 43.8531 25.3872 43.7747 25.0197 43.6223C24.6521 43.47 24.3182 43.2467 24.037 42.9653L15.517 34.4453C15.2356 34.1641 15.0123 33.8303 14.8599 33.4628C14.7075 33.0954 14.629 32.7015 14.6288 32.3037C14.6286 31.9059 14.7068 31.512 14.8588 31.1444C15.0109 30.7768 15.2339 30.4427 15.515 30.1613C15.7962 29.8799 16.13 29.6566 16.4975 29.5042C16.8649 29.3518 17.2588 29.2732 17.6566 29.2731C18.0544 29.2729 18.4484 29.351 18.8159 29.5031C19.1835 29.6552 19.5176 29.8781 19.799 30.1593L26.177 36.5373L42.777 19.9373C43.0574 19.6522 43.3916 19.4254 43.7601 19.27C44.1286 19.1147 44.5242 19.0339 44.9242 19.0322C45.3241 19.0306 45.7204 19.1082 46.0902 19.2605C46.46 19.4128 46.7959 19.6368 47.0787 19.9196C47.3614 20.2025 47.5854 20.5385 47.7376 20.9083C47.8898 21.2781 47.9673 21.6744 47.9656 22.0744C47.9638 22.4743 47.8829 22.8699 47.7275 23.2384C47.5721 23.6069 47.3452 23.9409 47.06 24.2213L47.065 24.2223Z" fill="#6B3374" stroke="#6B3374"/>
<path opacity="0.99" d="M26.18 43.8523C25.7821 43.8527 25.388 43.7745 25.0204 43.6221C24.6528 43.4697 24.3189 43.2462 24.038 42.9643L15.518 34.4443C15.2328 34.1639 15.006 33.8299 14.8505 33.4614C14.6951 33.0929 14.6142 32.6973 14.6125 32.2973C14.6107 31.8974 14.6882 31.5011 14.8404 31.1313C14.9926 30.7615 15.2166 30.4254 15.4994 30.1426C15.7821 29.8598 16.1181 29.6358 16.4879 29.4834C16.8577 29.3311 17.2539 29.2536 17.6539 29.2552C18.0538 29.2569 18.4494 29.3377 18.818 29.493C19.1865 29.6484 19.5206 29.8751 19.801 30.1603L26.18 36.5443L42.78 19.9443C43.0604 19.6591 43.3946 19.4324 43.7631 19.277C44.1316 19.1217 44.5273 19.0409 44.9272 19.0392C45.3271 19.0376 45.7234 19.1151 46.0932 19.2674C46.463 19.4198 46.7989 19.6438 47.0817 19.9266C47.3645 20.2094 47.5884 20.5455 47.7406 20.9153C47.8928 21.2851 47.9703 21.6814 47.9686 22.0813C47.9669 22.4813 47.8859 22.8769 47.7305 23.2454C47.5751 23.6139 47.3482 23.9479 47.063 24.2283L28.321 42.9653C28.0402 43.2469 27.7064 43.4702 27.339 43.6224C26.9716 43.7746 26.5777 43.8527 26.18 43.8523Z" fill="white" stroke="white"/>
</svg>