<svg width="18" height="15" viewBox="0 0 18 15" fill="none" xmlns="http://www.w3.org/2000/svg">
<path fill-rule="evenodd" clip-rule="evenodd" d="M4.152 0.372803C3.69852 0.375707 3.26453 0.543645 2.94409 0.840229C2.62364 1.13681 2.44254 1.53815 2.44003 1.95728V2.48286H1.87736C1.42304 2.48402 0.987574 2.65088 0.665648 2.94718C0.343721 3.24347 0.161356 3.64524 0.158203 4.06513V12.4965C0.161354 12.9165 0.34368 13.3184 0.665573 13.6149C0.987466 13.9113 1.42293 14.0784 1.87736 14.0799H15.5564C16.0095 14.077 16.4431 13.9089 16.763 13.6123C17.0829 13.3156 17.2632 12.9142 17.2647 12.4954V7.22856C17.271 7.15611 17.2609 7.08324 17.2352 7.01455C17.2095 6.94586 17.1687 6.88283 17.1153 6.82944C17.062 6.77604 16.9972 6.73343 16.9252 6.70429C16.8531 6.67514 16.7753 6.6601 16.6967 6.6601C16.618 6.6601 16.5402 6.67514 16.4682 6.70429C16.3962 6.73343 16.3314 6.77604 16.2781 6.82944C16.2247 6.88283 16.1839 6.94586 16.1582 7.01455C16.1324 7.08324 16.1224 7.15611 16.1286 7.22856V12.4965C16.1303 12.5664 16.1166 12.6358 16.0884 12.7007C16.0602 12.7655 16.0181 12.8245 15.9646 12.8739C15.9112 12.9233 15.8474 12.9622 15.7773 12.9882C15.7071 13.0143 15.632 13.0269 15.5564 13.0254H1.87736C1.80171 13.0269 1.72651 13.0143 1.65628 12.9882C1.58604 12.9622 1.52223 12.9233 1.46867 12.8739C1.41511 12.8245 1.3729 12.7656 1.34459 12.7008C1.31628 12.6359 1.30244 12.5664 1.30391 12.4965V4.06513C1.30244 3.99521 1.31628 3.92573 1.34459 3.86088C1.3729 3.79602 1.41511 3.73712 1.46867 3.68772C1.52223 3.63832 1.58604 3.59944 1.65628 3.57341C1.72651 3.54737 1.80171 3.53473 1.87736 3.53623H15.5564C15.632 3.53472 15.7071 3.54737 15.7773 3.57342C15.8474 3.59946 15.9112 3.63837 15.9646 3.68778C16.0181 3.7372 16.0602 3.79611 16.0884 3.86096C16.1166 3.92581 16.1303 3.99526 16.1286 4.06513V5.11961C16.1224 5.19207 16.1324 5.26493 16.1582 5.33362C16.1839 5.40231 16.2247 5.46534 16.2781 5.51873C16.3314 5.57213 16.3962 5.61474 16.4682 5.64389C16.5402 5.67303 16.618 5.68807 16.6967 5.68807C16.7753 5.68807 16.8531 5.67303 16.9252 5.64389C16.9972 5.61474 17.062 5.57213 17.1153 5.51873C17.1687 5.46534 17.2095 5.40231 17.2352 5.33362C17.2609 5.26493 17.271 5.19207 17.2647 5.11961V4.06513C17.2629 3.6466 17.0824 3.24565 16.7625 2.94939C16.4426 2.65313 16.0092 2.48548 15.5564 2.48286H14.9889V1.95728C14.9861 1.53786 14.8046 1.13636 14.4837 0.839772C14.1628 0.543189 13.7283 0.375414 13.2745 0.372803H4.152ZM4.152 1.42728H13.2745C13.3502 1.42592 13.4254 1.43871 13.4955 1.46488C13.5657 1.49105 13.6294 1.53006 13.6829 1.57956C13.7363 1.62906 13.7784 1.68804 13.8066 1.75295C13.8347 1.81786 13.8484 1.88736 13.8468 1.95728V2.48286H3.57975V1.95728C3.57796 1.88727 3.59152 1.81765 3.61961 1.75261C3.64771 1.68757 3.68975 1.62846 3.74322 1.57884C3.79669 1.52921 3.86047 1.49011 3.93072 1.46387C4.00097 1.43763 4.07625 1.42481 4.152 1.42617V1.42728ZM8.7013 4.58518C8.55005 4.5878 8.4061 4.64578 8.30106 4.74639C8.19601 4.847 8.13845 4.98203 8.14102 5.12182V10.174L6.83489 8.96242C6.78207 8.9136 6.71936 8.87487 6.65034 8.84845C6.58132 8.82202 6.50734 8.80842 6.43264 8.80842C6.35793 8.80842 6.28396 8.82202 6.21494 8.84845C6.14592 8.87487 6.08321 8.9136 6.03039 8.96242C5.97756 9.01124 5.93566 9.0692 5.90707 9.13299C5.87848 9.19678 5.86377 9.26515 5.86377 9.3342C5.86377 9.40324 5.87848 9.47161 5.90707 9.5354C5.93566 9.59919 5.97756 9.65715 6.03039 9.70597L8.31102 11.8149C8.41783 11.9133 8.56248 11.9685 8.71327 11.9685C8.86407 11.9685 9.00871 11.9133 9.11552 11.8149L11.3986 9.70597C11.4566 9.65829 11.5035 9.60015 11.5363 9.53512C11.5692 9.47009 11.5873 9.39953 11.5896 9.32779C11.5919 9.25604 11.5783 9.18463 11.5496 9.11792C11.521 9.05121 11.4779 8.99062 11.423 8.93987C11.368 8.88911 11.3025 8.84927 11.2303 8.82278C11.1581 8.79629 11.0809 8.78372 11.0032 8.78583C10.9256 8.78794 10.8493 8.8047 10.7789 8.83506C10.7085 8.86543 10.6456 8.90877 10.594 8.96242L9.28433 10.1707V5.11961C9.28564 5.04872 9.27143 4.97831 9.24253 4.91263C9.21364 4.84695 9.17066 4.78735 9.11619 4.73742C9.06172 4.68749 8.99689 4.64826 8.92558 4.6221C8.85428 4.59593 8.77799 4.58338 8.7013 4.58518Z" fill="#757A85"/>
</svg>
