<svg width="63" height="63" viewBox="0 0 63 63" fill="none" xmlns="http://www.w3.org/2000/svg">
<circle cx="31.2373" cy="31.3291" r="30.292" fill="#6B3374" stroke="#6B3374"/>
<path fill-rule="evenodd" clip-rule="evenodd" d="M43.1186 19.4478C41.7489 18.0781 39.5282 18.0781 38.1585 19.4478L31.2373 26.3691L24.3161 19.4478C22.9464 18.0781 20.7257 18.0781 19.356 19.4478C17.9863 20.8175 17.9863 23.0382 19.356 24.4079L26.2772 31.3291L19.356 38.2503C17.9863 39.62 17.9863 41.8407 19.356 43.2104C20.7257 44.5801 22.9464 44.5801 24.3161 43.2104L31.2373 36.2892L38.1585 43.2104C39.5282 44.5801 41.7489 44.5801 43.1186 43.2104C44.4883 41.8407 44.4883 39.62 43.1186 38.2503L36.1974 31.3291L43.1186 24.4079C44.4883 23.0382 44.4883 20.8175 43.1186 19.4478Z" fill="white"/>
<path d="M38.1585 19.4478L38.5121 19.8014V19.8014L38.1585 19.4478ZM43.1186 19.4478L43.4721 19.0943L43.1186 19.4478ZM31.2373 26.3691L30.8837 26.7226L31.2373 27.0762L31.5908 26.7226L31.2373 26.3691ZM24.3161 19.4478L23.9625 19.8014V19.8014L24.3161 19.4478ZM19.356 19.4478L19.0024 19.0943L19.356 19.4478ZM19.356 24.4079L19.0024 24.7615L19.356 24.4079ZM26.2772 31.3291L26.6308 31.6827L26.9843 31.3291L26.6308 30.9756L26.2772 31.3291ZM19.356 38.2503L19.7096 38.6039H19.7096L19.356 38.2503ZM19.356 43.2104L19.7096 42.8569H19.7096L19.356 43.2104ZM24.3161 43.2104L24.6696 43.564L24.3161 43.2104ZM31.2373 36.2892L31.5908 35.9356L31.2373 35.5821L30.8837 35.9356L31.2373 36.2892ZM43.1186 43.2104L42.765 42.8569L43.1186 43.2104ZM36.1974 31.3291L35.8438 30.9756L35.4903 31.3291L35.8438 31.6827L36.1974 31.3291ZM43.1186 24.4079L42.765 24.0543V24.0543L43.1186 24.4079ZM38.5121 19.8014C39.6865 18.627 41.5906 18.627 42.765 19.8014L43.4721 19.0943C41.9072 17.5293 39.3699 17.5293 37.805 19.0943L38.5121 19.8014ZM31.5908 26.7226L38.5121 19.8014L37.805 19.0943L30.8837 26.0155L31.5908 26.7226ZM23.9625 19.8014L30.8837 26.7226L31.5908 26.0155L24.6696 19.0943L23.9625 19.8014ZM19.7096 19.8014C20.884 18.627 22.7881 18.627 23.9625 19.8014L24.6696 19.0943C23.1047 17.5293 20.5674 17.5293 19.0024 19.0943L19.7096 19.8014ZM19.7096 24.0544C18.5351 22.8799 18.5351 20.9758 19.7096 19.8014L19.0024 19.0943C17.4375 20.6592 17.4375 23.1965 19.0024 24.7615L19.7096 24.0544ZM26.6308 30.9756L19.7096 24.0544L19.0024 24.7615L25.9237 31.6827L26.6308 30.9756ZM19.7096 38.6039L26.6308 31.6827L25.9237 30.9756L19.0025 37.8968L19.7096 38.6039ZM19.7096 42.8569C18.5351 41.6824 18.5351 39.7783 19.7096 38.6039L19.0025 37.8968C17.4375 39.4617 17.4375 41.999 19.0025 43.564L19.7096 42.8569ZM23.9625 42.8569C22.7881 44.0313 20.884 44.0313 19.7096 42.8569L19.0025 43.564C20.5674 45.1289 23.1047 45.1289 24.6696 43.564L23.9625 42.8569ZM30.8837 35.9356L23.9625 42.8569L24.6696 43.564L31.5908 36.6428L30.8837 35.9356ZM38.5121 42.8569L31.5908 35.9356L30.8837 36.6428L37.805 43.564L38.5121 42.8569ZM42.765 42.8569C41.5906 44.0313 39.6865 44.0313 38.5121 42.8569L37.805 43.564C39.3699 45.1289 41.9072 45.1289 43.4721 43.564L42.765 42.8569ZM42.765 38.6039C43.9395 39.7783 43.9395 41.6824 42.765 42.8569L43.4721 43.564C45.0371 41.999 45.0371 39.4617 43.4721 37.8968L42.765 38.6039ZM35.8438 31.6827L42.765 38.6039L43.4721 37.8968L36.5509 30.9756L35.8438 31.6827ZM42.765 24.0543L35.8438 30.9756L36.5509 31.6827L43.4721 24.7615L42.765 24.0543ZM42.765 19.8014C43.9395 20.9758 43.9395 22.8799 42.765 24.0543L43.4721 24.7615C45.0371 23.1965 45.0371 20.6592 43.4721 19.0943L42.765 19.8014Z" fill="#6B3374"/>
</svg>