<svg width="487" height="1262" viewBox="0 0 487 1262" fill="none" xmlns="http://www.w3.org/2000/svg">
<path d="M487 0H0V1262H487V0Z" fill="white"/>
<mask id="mask0_10025_1164" style="mask-type:luminance" maskUnits="userSpaceOnUse" x="457" y="4" width="20" height="1254">
<path d="M476.998 4.97998H457.078V1257.02H476.998V4.97998Z" fill="white"/>
</mask>
<g mask="url(#mask0_10025_1164)">
<path d="M457.078 4.97998L459.728 9.66998H467.578V27.89L476.638 12.2H471.708L476.038 4.97998H457.078Z" fill="#4F4B9A"/>
<path d="M457.078 45.9199L459.728 50.5999H467.578V68.8299L476.638 53.1299H471.708L476.038 45.9199H457.078Z" fill="#4F4B9A"/>
<path d="M457.078 86.8501L459.728 91.5401H467.578V109.76L476.638 94.0701H471.708L476.038 86.8501H457.078Z" fill="#4F4B9A"/>
<path d="M457.078 127.79L459.728 132.47H467.578V150.7L476.638 135.01H471.708L476.038 127.79H457.078Z" fill="#4F4B9A"/>
<path d="M457.078 168.72L459.728 173.41H467.578V191.63L476.638 175.94H471.708L476.038 168.72H457.078Z" fill="#4F4B9A"/>
<path d="M457.078 209.66L459.728 214.35H467.578V232.57L476.638 216.88H471.708L476.038 209.66H457.078Z" fill="#4F4B9A"/>
<path d="M457.078 250.6L459.728 255.28H467.578V273.51L476.638 257.81H471.708L476.038 250.6H457.078Z" fill="#4F4B9A"/>
<path d="M457.078 291.53L459.728 296.22H467.578V314.44L476.638 298.75H471.708L476.038 291.53H457.078Z" fill="#4F4B9A"/>
<path d="M457.078 332.47L459.728 337.15H467.578V355.38L476.638 339.68H471.708L476.038 332.47H457.078Z" fill="#4F4B9A"/>
<path d="M457.078 373.4L459.728 378.09H467.578V396.31L476.638 380.62H471.708L476.038 373.4H457.078Z" fill="#4F4B9A"/>
<path d="M457.078 414.34L459.728 419.02H467.578V437.25L476.638 421.55H471.708L476.038 414.34H457.078Z" fill="#4F4B9A"/>
<path d="M457.078 455.27L459.728 459.96H467.578V478.18L476.638 462.49H471.708L476.038 455.27H457.078Z" fill="#4F4B9A"/>
<path d="M457.078 496.21L459.728 500.9H467.578V519.12L476.638 503.43H471.708L476.038 496.21H457.078Z" fill="#4F4B9A"/>
<path d="M457.078 537.14L459.728 541.83H467.578V560.06L476.638 544.36H471.708L476.038 537.14H457.078Z" fill="#4F4B9A"/>
<path d="M457.078 578.08L459.728 582.77H467.578V600.99L476.638 585.3H471.708L476.038 578.08H457.078Z" fill="#4F4B9A"/>
<path d="M457.078 619.02L459.728 623.7H467.578V641.93L476.638 626.23H471.708L476.038 619.02H457.078Z" fill="#4F4B9A"/>
<path d="M457.078 659.95L459.728 664.64H467.578V682.86L476.638 667.17H471.708L476.038 659.95H457.078Z" fill="#4F4B9A"/>
<path d="M457.078 700.89L459.728 705.57H467.578V723.8L476.638 708.1H471.708L476.038 700.89H457.078Z" fill="#4F4B9A"/>
<path d="M457.078 741.82L459.728 746.51H467.578V764.73L476.638 749.04H471.708L476.038 741.82H457.078Z" fill="#4F4B9A"/>
<path d="M457.078 782.76L459.728 787.45H467.578V805.67L476.638 789.98H471.708L476.038 782.76H457.078Z" fill="#4F4B9A"/>
<path d="M457.078 823.69L459.728 828.38H467.578V846.61L476.638 830.91H471.708L476.038 823.69H457.078Z" fill="#4F4B9A"/>
<path d="M457.078 864.63L459.728 869.32H467.578V887.54L476.638 871.85H471.708L476.038 864.63H457.078Z" fill="#4F4B9A"/>
<path d="M457.078 905.57L459.728 910.25H467.578V928.48L476.638 912.78H471.708L476.038 905.57H457.078Z" fill="#4F4B9A"/>
<path d="M457.078 946.5L459.728 951.19H467.578V969.41L476.638 953.72H471.708L476.038 946.5H457.078Z" fill="#4F4B9A"/>
<path d="M457.078 987.44L459.728 992.12H467.578V1010.35L476.638 994.65H471.708L476.038 987.44H457.078Z" fill="#4F4B9A"/>
<path d="M457.078 1028.37L459.728 1033.06H467.578V1051.28L476.638 1035.59H471.708L476.038 1028.37H457.078Z" fill="#4F4B9A"/>
<path d="M457.078 1069.31L459.728 1074H467.578V1092.22L476.638 1076.53H471.708L476.038 1069.31H457.078Z" fill="#4F4B9A"/>
<path d="M457.078 1110.24L459.728 1114.93H467.578V1133.16L476.638 1117.46H471.708L476.038 1110.24H457.078Z" fill="#4F4B9A"/>
<path d="M457.078 1151.18L459.728 1155.87H467.578V1174.09L476.638 1158.4H471.708L476.038 1151.18H457.078Z" fill="#4F4B9A"/>
<path d="M457.078 1192.12L459.728 1196.8H467.578V1215.03L476.638 1199.33H471.708L476.038 1192.12H457.078Z" fill="#4F4B9A"/>
<path d="M457.078 1233.05L459.728 1237.74H467.578V1255.96L476.638 1240.27H471.708L476.038 1233.05H457.078Z" fill="#4F4B9A"/>
</g>
<mask id="mask1_10025_1164" style="mask-type:luminance" maskUnits="userSpaceOnUse" x="10" y="4" width="20" height="1254">
<path d="M29.92 4.97998H10V1257.02H29.92V4.97998Z" fill="white"/>
</mask>
<g mask="url(#mask1_10025_1164)">
<path d="M10 4.97998L12.64 9.66998H20.5V27.89L29.56 12.2H24.63L28.96 4.97998H10Z" fill="#4F4B9A"/>
<path d="M10 45.9199L12.64 50.5999H20.5V68.8299L29.56 53.1299H24.63L28.96 45.9199H10Z" fill="#4F4B9A"/>
<path d="M10 86.8501L12.64 91.5401H20.5V109.76L29.56 94.0701H24.63L28.96 86.8501H10Z" fill="#4F4B9A"/>
<path d="M10 127.79L12.64 132.47H20.5V150.7L29.56 135.01H24.63L28.96 127.79H10Z" fill="#4F4B9A"/>
<path d="M10 168.72L12.64 173.41H20.5V191.63L29.56 175.94H24.63L28.96 168.72H10Z" fill="#4F4B9A"/>
<path d="M10 209.66L12.64 214.35H20.5V232.57L29.56 216.88H24.63L28.96 209.66H10Z" fill="#4F4B9A"/>
<path d="M10 250.6L12.64 255.28H20.5V273.51L29.56 257.81H24.63L28.96 250.6H10Z" fill="#4F4B9A"/>
<path d="M10 291.53L12.64 296.22H20.5V314.44L29.56 298.75H24.63L28.96 291.53H10Z" fill="#4F4B9A"/>
<path d="M10 332.47L12.64 337.15H20.5V355.38L29.56 339.68H24.63L28.96 332.47H10Z" fill="#4F4B9A"/>
<path d="M10 373.4L12.64 378.09H20.5V396.31L29.56 380.62H24.63L28.96 373.4H10Z" fill="#4F4B9A"/>
<path d="M10 414.34L12.64 419.02H20.5V437.25L29.56 421.55H24.63L28.96 414.34H10Z" fill="#4F4B9A"/>
<path d="M10 455.27L12.64 459.96H20.5V478.18L29.56 462.49H24.63L28.96 455.27H10Z" fill="#4F4B9A"/>
<path d="M10 496.21L12.64 500.9H20.5V519.12L29.56 503.43H24.63L28.96 496.21H10Z" fill="#4F4B9A"/>
<path d="M10 537.14L12.64 541.83H20.5V560.06L29.56 544.36H24.63L28.96 537.14H10Z" fill="#4F4B9A"/>
<path d="M10 578.08L12.64 582.77H20.5V600.99L29.56 585.3H24.63L28.96 578.08H10Z" fill="#4F4B9A"/>
<path d="M10 619.02L12.64 623.7H20.5V641.93L29.56 626.23H24.63L28.96 619.02H10Z" fill="#4F4B9A"/>
<path d="M10 659.95L12.64 664.64H20.5V682.86L29.56 667.17H24.63L28.96 659.95H10Z" fill="#4F4B9A"/>
<path d="M10 700.89L12.64 705.57H20.5V723.8L29.56 708.1H24.63L28.96 700.89H10Z" fill="#4F4B9A"/>
<path d="M10 741.82L12.64 746.51H20.5V764.73L29.56 749.04H24.63L28.96 741.82H10Z" fill="#4F4B9A"/>
<path d="M10 782.76L12.64 787.45H20.5V805.67L29.56 789.98H24.63L28.96 782.76H10Z" fill="#4F4B9A"/>
<path d="M10 823.69L12.64 828.38H20.5V846.61L29.56 830.91H24.63L28.96 823.69H10Z" fill="#4F4B9A"/>
<path d="M10 864.63L12.64 869.32H20.5V887.54L29.56 871.85H24.63L28.96 864.63H10Z" fill="#4F4B9A"/>
<path d="M10 905.57L12.64 910.25H20.5V928.48L29.56 912.78H24.63L28.96 905.57H10Z" fill="#4F4B9A"/>
<path d="M10 946.5L12.64 951.19H20.5V969.41L29.56 953.72H24.63L28.96 946.5H10Z" fill="#4F4B9A"/>
<path d="M10 987.44L12.64 992.12H20.5V1010.35L29.56 994.65H24.63L28.96 987.44H10Z" fill="#4F4B9A"/>
<path d="M10 1028.37L12.64 1033.06H20.5V1051.28L29.56 1035.59H24.63L28.96 1028.37H10Z" fill="#4F4B9A"/>
<path d="M10 1069.31L12.64 1074H20.5V1092.22L29.56 1076.53H24.63L28.96 1069.31H10Z" fill="#4F4B9A"/>
<path d="M10 1110.24L12.64 1114.93H20.5V1133.16L29.56 1117.46H24.63L28.96 1110.24H10Z" fill="#4F4B9A"/>
<path d="M10 1151.18L12.64 1155.87H20.5V1174.09L29.56 1158.4H24.63L28.96 1151.18H10Z" fill="#4F4B9A"/>
<path d="M10 1192.12L12.64 1196.8H20.5V1215.03L29.56 1199.33H24.63L28.96 1192.12H10Z" fill="#4F4B9A"/>
<path d="M10 1233.05L12.64 1237.74H20.5V1255.96L29.56 1240.27H24.63L28.96 1233.05H10Z" fill="#4F4B9A"/>
</g>
</svg>
