<svg width="28" height="28" viewBox="0 0 28 28" fill="none" xmlns="http://www.w3.org/2000/svg">
<path d="M21.8427 14.9906H18.9912L15.9978 9.99723C15.8448 9.75091 15.5214 9.67589 15.2751 9.82997C15.0348 9.97898 14.9568 10.2922 15.0977 10.5365L17.7697 14.9946H10.1743L12.8463 10.5365C12.9994 10.2902 12.9244 9.96682 12.6791 9.81375C12.4327 9.66069 12.1094 9.7357 11.9563 9.98101C11.9533 9.98608 11.9502 9.99115 11.9472 9.99723L8.9538 14.9906H6.0993C5.80939 14.9906 5.57422 15.2247 5.57422 15.5146C5.57422 15.8046 5.80838 16.0397 6.09829 16.0397H6.75413L8.52705 22.2424C8.7237 22.9155 9.339 23.3797 10.0405 23.3828H17.9045C18.606 23.3808 19.2223 22.9165 19.4169 22.2424L21.1909 16.0377H21.8427C22.1326 16.0377 22.3677 15.8035 22.3677 15.5136C22.3677 15.2237 22.1336 14.9886 21.8437 14.9886H21.8427V14.9906ZM18.4073 21.9576C18.3414 22.1816 18.1367 22.3357 17.9035 22.3367H10.0394C9.8063 22.3357 9.60154 22.1816 9.53565 21.9576L7.84485 16.0407H20.0981L18.4083 21.9576H18.4073Z" fill="#1A1A1A"/>
<path d="M25.8463 1.09375H2.06251C1.36999 1.09375 0.808594 1.65515 0.808594 2.34766V26.1315C0.808594 26.824 1.36999 27.3854 2.06251 27.3854H25.8463C26.5388 27.3854 27.1002 26.824 27.1002 26.1315V2.34766C27.1002 1.65515 26.5388 1.09375 25.8463 1.09375Z" stroke="#1A1A1A" stroke-width="0.881658" stroke-miterlimit="10"/>
<path d="M0.808594 5.22461H27.1002" stroke="#1A1A1A" stroke-width="0.881658" stroke-miterlimit="10"/>
<path d="M2.24512 3.08203H2.48198" stroke="#1A1A1A" stroke-width="0.881658" stroke-miterlimit="10" stroke-linecap="round"/>
<path d="M4.05762 3.08203H4.29448" stroke="#1A1A1A" stroke-width="0.881658" stroke-miterlimit="10" stroke-linecap="round"/>
<path d="M5.87109 3.08203H6.10796" stroke="#1A1A1A" stroke-width="0.881658" stroke-miterlimit="10" stroke-linecap="round"/>
</svg>
