<svg width="26" height="22" viewBox="0 0 26 22" fill="none" xmlns="http://www.w3.org/2000/svg">
<path d="M21.6705 7.56641H1.40051C0.95495 7.56641 0.59375 7.92761 0.59375 8.37317V19.8331C0.59375 20.2787 0.95495 20.6399 1.40051 20.6399H21.6705C22.1161 20.6399 22.4773 20.2787 22.4773 19.8331V8.37317C22.4773 7.92761 22.1161 7.56641 21.6705 7.56641Z" stroke="#414141" stroke-width="0.881658" stroke-miterlimit="10"/>
<path d="M2.9248 7.56616V2.13879C2.9248 1.69318 3.28596 1.33203 3.73157 1.33203H24.0016C24.4472 1.33203 24.8083 1.69318 24.8083 2.13879V13.5987C24.8083 14.0443 24.4472 14.4055 24.0016 14.4055H22.4774" stroke="#414141" stroke-width="0.881658" stroke-miterlimit="10"/>
<path d="M2.9248 3.1543H24.8081" stroke="#414141" stroke-width="0.881658" stroke-miterlimit="10"/>
<path d="M2.9248 5.98242H24.8081" stroke="#414141" stroke-width="0.881658" stroke-miterlimit="10"/>
<path d="M2.72266 15.7207H6.37494" stroke="#414141" stroke-width="0.881658" stroke-miterlimit="10"/>
<path d="M7.39648 15.7207H11.0488" stroke="#414141" stroke-width="0.881658" stroke-miterlimit="10"/>
<path d="M12.041 15.7207H15.6933" stroke="#414141" stroke-width="0.881658" stroke-miterlimit="10"/>
<path d="M16.7002 15.7207H20.3525" stroke="#414141" stroke-width="0.881658" stroke-miterlimit="10"/>
<path d="M17.6211 17.4863H20.3537" stroke="#414141" stroke-width="0.881658" stroke-miterlimit="10"/>
<path d="M12.9609 17.4863H15.6933" stroke="#414141" stroke-width="0.881658" stroke-miterlimit="10"/>
<path d="M9.47055 10.4225C9.2707 10.3496 9.05932 10.3133 8.8467 10.3145C8.15877 10.3145 7.67289 10.6609 7.66945 11.1586C7.66503 11.5241 8.01465 11.7299 8.27907 11.8521C8.55036 11.9776 8.64096 12.0569 8.64022 12.1691C8.6385 12.3397 8.42343 12.4171 8.22358 12.4171C7.94885 12.4171 7.79884 12.3788 7.56781 12.283L7.48237 12.243L7.38466 12.8158C7.55185 12.8855 7.85334 12.9452 8.16466 12.9503C8.89605 12.9503 9.37407 12.6059 9.37971 12.0768C9.38585 11.7849 9.19656 11.5644 8.79833 11.382C8.55626 11.2636 8.40625 11.1846 8.40625 11.0648C8.40625 10.9585 8.5349 10.845 8.80349 10.845C8.98222 10.8406 9.15998 10.8743 9.32496 10.9435L9.38953 10.9722L9.48725 10.4188L9.47055 10.4228V10.4225ZM11.2557 10.3611H10.7183C10.5511 10.3611 10.4251 10.407 10.352 10.573L9.31834 12.9145H10.0497L10.1958 12.5305L11.0883 12.5315C11.1094 12.6213 11.1737 12.9145 11.1737 12.9145H11.8187L11.2555 10.3611H11.2557ZM6.68027 10.3395H7.37729L6.94125 12.8941H6.24522L6.68027 10.3385V10.3395ZM4.91109 11.7476L4.98327 12.1023L5.66433 10.3611H6.40259L5.30588 12.9111H4.56933L3.96733 10.752C3.95751 10.7164 3.93467 10.6857 3.90325 10.6666C3.68621 10.5546 3.45641 10.4694 3.21875 10.4134L3.22833 10.3597H4.35009C4.5023 10.3658 4.62482 10.4134 4.66557 10.576L4.9106 11.7493V11.748H4.91109V11.7476ZM10.3959 12.008L10.6736 11.2936C10.6701 11.3015 10.7308 11.146 10.7661 11.0503L10.8138 11.2708L10.9751 12.0078H10.3954V12.0083H10.3959V12.008Z" fill="#414141"/>
</svg>
