<svg xmlns="http://www.w3.org/2000/svg" width="18" height="18" viewBox="0 0 18 16" fill="none">
  <path d="M0.0190332 15.2134L0.0390332 13.3634C0.249033 9.90342 3.21903 7.26342 6.67903 7.47342C9.83903 7.66342 12.369 10.1734 12.569 13.3434V15.2234H0.0090332L0.0190332 15.2134ZM6.30903 8.41342C3.49903 8.41342 1.17903 10.6034 0.999033 13.4034V14.2534H11.619V13.3734C11.429 10.5834 9.10903 8.41342 6.30903 8.41342Z" fill="#bca3c0"/>
  <path d="M11.6191 15.2234V13.4834C11.7191 11.9934 12.9991 10.8634 14.4891 10.9534C15.8391 11.0334 16.9191 12.1034 17.0191 13.4534V15.2234H11.6191ZM14.3191 11.8834C13.4091 11.8834 12.6491 12.5934 12.5891 13.5034V14.2534H16.0591V13.4734C15.9891 12.5734 15.2291 11.8734 14.3291 11.8734" fill="#bca3c0"/>
  <path d="M6.2991 6.20343C4.6591 6.20343 3.3291 4.87343 3.3291 3.23343C3.3291 1.59343 4.6591 0.263428 6.2991 0.263428C7.9391 0.263428 9.2691 1.59343 9.2691 3.23343C9.2691 4.87343 7.9391 6.20343 6.2991 6.20343ZM6.2991 1.22343C5.1891 1.22343 4.2891 2.12343 4.2891 3.23343C4.2891 4.34343 5.1891 5.24343 6.2991 5.24343C7.4091 5.24343 8.3091 4.34343 8.3091 3.23343C8.3091 2.12343 7.4091 1.22343 6.2991 1.22343Z" fill="#bca3c0"/>
  <path d="M14.319 10.3234C13.179 10.3234 12.259 9.40343 12.259 8.26343C12.259 7.12343 13.179 6.20343 14.319 6.20343C15.459 6.20343 16.379 7.12343 16.379 8.26343C16.379 9.40343 15.459 10.3234 14.319 10.3234ZM14.319 7.16343C13.709 7.16343 13.219 7.65343 13.219 8.26343C13.219 8.87343 13.709 9.36343 14.319 9.36343C14.929 9.36343 15.419 8.87343 15.419 8.26343C15.419 7.65343 14.929 7.16343 14.319 7.16343Z" fill="#bca3c0"/>
</svg>
