<svg width="18" height="16" viewBox="0 0 18 16" fill="none" xmlns="http://www.w3.org/2000/svg">
<g id="Grupo_63543">
<path id="Trazado_58752" d="M0.0197656 15.2134L0.0397656 13.3634C0.249766 9.90338 3.21977 7.26338 6.67977 7.47338C9.83977 7.66338 12.3698 10.1734 12.5698 13.3434V15.2234H0.00976562L0.0197656 15.2134ZM6.30977 8.41338C3.49977 8.41338 1.17977 10.6034 0.999766 13.4034V14.2534H11.6198V13.3734C11.4298 10.5834 9.10977 8.41338 6.30977 8.41338Z" fill="#FFF"/>
<path id="Trazado_58753" d="M11.6201 15.2234V13.4834C11.7201 11.9934 13.0001 10.8634 14.4901 10.9534C15.8401 11.0334 16.9201 12.1034 17.0201 13.4534V15.2234H11.6201ZM14.3201 11.8834C13.4101 11.8834 12.6501 12.5934 12.5901 13.5034V14.2534H16.0601V13.4734C15.9901 12.5734 15.2301 11.8734 14.3301 11.8734" fill="#FFF"/>
<path id="Trazado_58754" d="M6.30008 6.20343C4.66008 6.20343 3.33008 4.87343 3.33008 3.23343C3.33008 1.59343 4.66008 0.263428 6.30008 0.263428C7.94008 0.263428 9.27008 1.59343 9.27008 3.23343C9.27008 4.87343 7.94008 6.20343 6.30008 6.20343ZM6.30008 1.22343C5.19008 1.22343 4.29008 2.12343 4.29008 3.23343C4.29008 4.34343 5.19008 5.24343 6.30008 5.24343C7.41008 5.24343 8.31008 4.34343 8.31008 3.23343C8.31008 2.12343 7.41008 1.22343 6.30008 1.22343Z" fill="#FFF"/>
<path id="Trazado_58755" d="M14.3198 10.3234C13.1798 10.3234 12.2598 9.40337 12.2598 8.26337C12.2598 7.12337 13.1798 6.20337 14.3198 6.20337C15.4598 6.20337 16.3798 7.12337 16.3798 8.26337C16.3798 9.40337 15.4598 10.3234 14.3198 10.3234ZM14.3198 7.16337C13.7098 7.16337 13.2198 7.65337 13.2198 8.26337C13.2198 8.87337 13.7098 9.36337 14.3198 9.36337C14.9298 9.36337 15.4198 8.87337 15.4198 8.26337C15.4198 7.65337 14.9298 7.16337 14.3198 7.16337Z" fill="#FFF"/>
</g>
</svg>
