<svg xmlns="http://www.w3.org/2000/svg" width="16" height="15" viewBox="0 0 16 15" fill="none">
  <path d="M15.019 8.92412V6.07576L13.471 5.69185C13.3719 5.38844 13.2481 5.09739 13.1057 4.81874L13.9168 3.46887L11.9291 1.45643L10.5793 2.2676C10.3006 2.13137 10.0034 2.01992 9.70618 1.92704L9.32227 0.379013H6.4739L6.08999 1.92704C5.78658 2.02611 5.49555 2.14997 5.2169 2.29239L3.86702 1.45643L1.85459 3.46887L2.66575 4.81874C2.52953 5.09739 2.41807 5.39463 2.32519 5.69185L0.777161 6.07576V8.92412L2.32519 9.30802C2.42426 9.61144 2.5481 9.90249 2.69052 10.1811L1.85459 11.531L3.86702 13.5434L5.2169 12.7323C5.49555 12.8685 5.79277 12.98 6.08999 13.0728L6.4739 14.6209H9.32227L9.70618 13.0728C10.0096 12.9738 10.3006 12.8499 10.5793 12.7075L11.9291 13.5186L13.9416 11.5062L13.1304 10.1563C13.2666 9.88389 13.3781 9.59905 13.471 9.30802L15.019 8.92412Z" stroke="#FFF" stroke-width="0.774013" stroke-linecap="round" stroke-linejoin="round"/>
  <path d="M7.89925 10.9049C9.78014 10.9049 11.3049 9.38014 11.3049 7.49924C11.3049 5.61835 9.78014 4.09358 7.89925 4.09358C6.01836 4.09358 4.49359 5.61835 4.49359 7.49924C4.49359 9.38014 6.01836 10.9049 7.89925 10.9049Z" stroke="#FFF" stroke-width="0.774013" stroke-linecap="round" stroke-linejoin="round"/>
</svg>