<svg xmlns="http://www.w3.org/2000/svg" width="16" height="16" viewBox="0 0 16 16" fill="none">
  <path d="M14.6396 9.66314V6.81479L13.0915 6.43088C12.9925 6.12747 12.8686 5.83642 12.7262 5.55777L13.5374 4.2079L11.5497 2.19546L10.1998 3.00663C9.92117 2.8704 9.62395 2.75895 9.32672 2.66607L8.94282 1.11804H6.09444L5.71054 2.66607C5.40712 2.76514 5.11609 2.889 4.83745 3.03142L3.48757 2.19546L1.47513 4.2079L2.2863 5.55777C2.15007 5.83642 2.03861 6.13366 1.94573 6.43088L0.397705 6.81479V9.66314L1.94573 10.0471C2.04481 10.3505 2.16865 10.6415 2.31107 10.9202L1.47513 12.27L3.48757 14.2825L4.83745 13.4713C5.11609 13.6075 5.41331 13.719 5.71054 13.8119L6.09444 15.3599H8.94282L9.32672 13.8119C9.63014 13.7128 9.92117 13.5889 10.1998 13.4465L11.5497 14.2577L13.5621 12.2452L12.751 10.8954C12.8872 10.6229 12.9986 10.3381 13.0915 10.0471L14.6396 9.66314Z" stroke="#bca3c0" stroke-width="0.774013" stroke-linecap="round" stroke-linejoin="round"/>
  <path d="M7.51821 11.6439C9.3991 11.6439 10.9239 10.1191 10.9239 8.23824C10.9239 6.35735 9.3991 4.83258 7.51821 4.83258C5.63731 4.83258 4.11255 6.35735 4.11255 8.23824C4.11255 10.1191 5.63731 11.6439 7.51821 11.6439Z" stroke="#bca3c0" stroke-width="0.774013" stroke-linecap="round" stroke-linejoin="round"/>
</svg>