<svg xmlns="http://www.w3.org/2000/svg" width="16" height="16" viewBox="0 0 16 16" fill="none">
  <path d="M0.519043 6.24341V10.7434C0.519043 11.8043 0.94047 12.8217 1.69062 13.5718C2.44076 14.322 3.45818 14.7434 4.51904 14.7434H6.51904M0.519043 6.24341V4.74341C0.519043 3.68254 0.94047 2.66513 1.69062 1.91498C2.44076 1.16484 3.45818 0.743408 4.51904 0.743408H6.51904M0.519043 6.24341H6.51904M6.51904 14.7434H10.519C11.5799 14.7434 12.5973 14.322 13.3475 13.5718C14.0976 12.8217 14.519 11.8043 14.519 10.7434V9.74341M6.51904 14.7434V9.74341M6.51904 0.743408V6.24341M6.51904 0.743408H10.519C11.5799 0.743408 12.5973 1.16484 13.3475 1.91498C14.0976 2.66513 14.519 3.68254 14.519 4.74341V9.74341M6.51904 6.24341V9.74341M6.51904 9.74341H14.519" stroke="#bca3c0" stroke-linecap="round" stroke-linejoin="round"/>
</svg>
