<svg xmlns="http://www.w3.org/2000/svg" width="17" height="15" viewBox="0 0 17 15" fill="none">
  <path d="M16.5377 0.271729H1.25707C1.14849 0.271729 1.04435 0.315448 0.967571 0.393268C0.890791 0.471088 0.847656 0.576636 0.847656 0.686691V5.19199C0.847656 5.30205 0.890791 5.4076 0.967571 5.48542C1.04435 5.56324 1.14849 5.60696 1.25707 5.60696H3.42112V12.9927C3.42188 13.3958 3.58022 13.7822 3.86146 14.0673C4.1427 14.3523 4.52393 14.5128 4.92167 14.5136H12.8731C13.2709 14.5128 13.6521 14.3523 13.9333 14.0673C14.2146 13.7822 14.3729 13.3958 14.3737 12.9927V5.60696H16.5377C16.6463 5.60696 16.7504 5.56324 16.8272 5.48542C16.904 5.4076 16.9471 5.30205 16.9471 5.19199V0.686691C16.9471 0.576636 16.904 0.471088 16.8272 0.393268C16.7504 0.315448 16.6463 0.271729 16.5377 0.271729ZM13.5558 12.9927C13.5558 13.176 13.484 13.3517 13.3561 13.4813C13.2283 13.6109 13.0549 13.6837 12.8741 13.6837H4.92167C4.74086 13.6837 4.56747 13.6109 4.43962 13.4813C4.31177 13.3517 4.23995 13.176 4.23995 12.9927V3.31446H13.5558V12.9927ZM16.1293 4.77703H14.3746V2.89561C14.3746 2.78556 14.3315 2.68001 14.2547 2.60219C14.1779 2.52437 14.0738 2.48065 13.9652 2.48065H3.83053C3.72195 2.48065 3.61781 2.52437 3.54103 2.60219C3.46425 2.68001 3.42112 2.78556 3.42112 2.89561V4.77703H1.66649V1.10165H16.1283L16.1293 4.77703Z" fill="#FFF"/>
  <path d="M9.19314 5.5203C9.15509 5.48146 9.10983 5.45063 9.05996 5.42959C9.0101 5.40855 8.95663 5.39772 8.90262 5.39772C8.84861 5.39772 8.79514 5.40855 8.74528 5.42959C8.69542 5.45063 8.65015 5.48146 8.6121 5.5203L6.40682 7.75546C6.0233 8.12863 6.61393 8.72727 6.98211 8.33854L8.48841 6.81183V10.8526C8.48841 10.9071 8.499 10.9611 8.51958 11.0114C8.54015 11.0618 8.57031 11.1075 8.60833 11.146C8.64634 11.1846 8.69148 11.2151 8.74115 11.236C8.79082 11.2568 8.84406 11.2676 8.89783 11.2676C8.95159 11.2676 9.00483 11.2568 9.0545 11.236C9.10417 11.2151 9.14931 11.1846 9.18733 11.146C9.22534 11.1075 9.2555 11.0618 9.27608 11.0114C9.29665 10.9611 9.30724 10.9071 9.30724 10.8526V6.81378L10.8078 8.34049C10.8848 8.41647 10.988 8.45899 11.0954 8.45899C11.2029 8.45899 11.3061 8.41647 11.3831 8.34049C11.4209 8.30222 11.4509 8.25677 11.4713 8.20675C11.4918 8.15672 11.5023 8.1031 11.5023 8.04894C11.5023 7.99479 11.4918 7.94117 11.4713 7.89114C11.4509 7.84112 11.4209 7.79567 11.3831 7.7574L9.19314 5.5203Z" fill="#FFF"/>
</svg>
