<svg xmlns="http://www.w3.org/2000/svg" width="17" height="15" viewBox="0 0 17 15" fill="none">
  <path d="M15.691 5.98764H12.941L10.054 1.17164C9.98383 1.05907 9.87226 0.978559 9.74331 0.947437C9.61436 0.916316 9.47835 0.937075 9.36456 1.00525C9.25076 1.07342 9.16829 1.18355 9.1349 1.31193C9.1015 1.4403 9.11985 1.57666 9.186 1.69164L11.763 5.99164H4.437L7.014 1.69164C7.04955 1.63461 7.07338 1.57107 7.08411 1.50473C7.09484 1.43839 7.09224 1.37058 7.07647 1.30526C7.06071 1.23993 7.03209 1.1784 6.99228 1.12425C6.95248 1.07011 6.90229 1.02444 6.84464 0.989901C6.78699 0.955365 6.72304 0.932658 6.65652 0.923106C6.59 0.913554 6.52224 0.917349 6.45721 0.934267C6.39217 0.951186 6.33115 0.980889 6.27772 1.02164C6.22429 1.0624 6.17951 1.11339 6.146 1.17164L3.259 5.98764H0.506C0.3718 5.98764 0.243097 6.04095 0.148204 6.13585C0.0533104 6.23074 0 6.35944 0 6.49364C0 6.62784 0.0533104 6.75654 0.148204 6.85144C0.243097 6.94633 0.3718 6.99964 0.506 6.99964H1.137L2.847 12.9826C2.93927 13.2989 3.13126 13.5768 3.39437 13.775C3.65747 13.9733 3.97759 14.0812 4.307 14.0826H11.892C12.2214 14.0816 12.5416 13.9739 12.8046 13.7755C13.0677 13.5772 13.2594 13.299 13.351 12.9826L15.062 6.99764H15.691C15.8252 6.99764 15.9539 6.94433 16.0488 6.84944C16.1437 6.75454 16.197 6.62584 16.197 6.49164C16.197 6.35744 16.1437 6.22874 16.0488 6.13385C15.9539 6.03895 15.8252 5.98564 15.691 5.98564V5.98764ZM12.377 12.7076C12.3462 12.8128 12.2823 12.9053 12.1947 12.9712C12.1071 13.0372 12.0006 13.0731 11.891 13.0736H4.306C4.19638 13.0731 4.08987 13.0372 4.0023 12.9712C3.91473 12.9053 3.8508 12.8128 3.82 12.7076L2.189 7.00064H14.008L12.377 12.7076Z" fill="#FFF"/>
</svg>
