<svg xmlns="http://www.w3.org/2000/svg" width="17" height="15" viewBox="0 0 17 15" fill="none">
  <path d="M15.691 5.9874H12.941L10.054 1.1714C9.98383 1.05883 9.87226 0.978314 9.74331 0.947193C9.61436 0.916072 9.47835 0.936831 9.36456 1.005C9.25076 1.07317 9.16829 1.1833 9.1349 1.31168C9.1015 1.44006 9.11985 1.57642 9.186 1.6914L11.763 5.9914H4.437L7.014 1.6914C7.04955 1.63437 7.07338 1.57083 7.08411 1.50449C7.09484 1.43815 7.09224 1.37034 7.07647 1.30501C7.06071 1.23969 7.03209 1.17815 6.99228 1.12401C6.95248 1.06987 6.90229 1.02419 6.84464 0.989657C6.78699 0.955121 6.72304 0.932414 6.65652 0.922862C6.59 0.91331 6.52224 0.917105 6.45721 0.934023C6.39217 0.950941 6.33115 0.980645 6.27772 1.0214C6.22429 1.06216 6.17951 1.11315 6.146 1.1714L3.259 5.9874H0.506C0.3718 5.9874 0.243097 6.04071 0.148204 6.1356C0.0533104 6.23049 0 6.3592 0 6.4934C0 6.6276 0.0533104 6.7563 0.148204 6.85119C0.243097 6.94609 0.3718 6.9994 0.506 6.9994H1.137L2.847 12.9824C2.93927 13.2986 3.13126 13.5766 3.39437 13.7748C3.65747 13.973 3.97759 14.0809 4.307 14.0824H11.892C12.2214 14.0814 12.5416 13.9736 12.8046 13.7753C13.0677 13.577 13.2594 13.2988 13.351 12.9824L15.062 6.9974H15.691C15.8252 6.9974 15.9539 6.94409 16.0488 6.84919C16.1437 6.7543 16.197 6.6256 16.197 6.4914C16.197 6.3572 16.1437 6.2285 16.0488 6.1336C15.9539 6.03871 15.8252 5.9854 15.691 5.9854V5.9874ZM12.377 12.7074C12.3462 12.8126 12.2823 12.9051 12.1947 12.971C12.1071 13.0369 12.0006 13.0729 11.891 13.0734H4.306C4.19638 13.0729 4.08987 13.0369 4.0023 12.971C3.91473 12.9051 3.8508 12.8126 3.82 12.7074L2.189 7.0004H14.008L12.377 12.7074Z" fill="#bca3c0"/>
</svg>
