<svg xmlns="http://www.w3.org/2000/svg" width="16.383" height="16.383" viewBox="0 0 16.383 16.383">
  <g id="Grupo_63545" data-name="Grupo 63545" transform="translate(8400.383 13909.384)">
    <path id="Trazado_58757" data-name="Trazado 58757" d="M692.156,49.584v1.745a.63.63,0,0,0,1.26,0V49.584a.63.63,0,0,0-1.26,0Z" transform="translate(-9084.978 -13956.011)" fill="#6a6d74" fill-rule="evenodd"/>
    <path id="Trazado_58758" data-name="Trazado 58758" d="M0,.63V2.375a.63.63,0,0,0,1.26,0V.63A.63.63,0,0,0,0,.63Z" transform="translate(-8388.49 -13905.783) rotate(45)" fill="#6a6d74" fill-rule="evenodd"/>
    <path id="Trazado_58759" data-name="Trazado 58759" d="M0,.63V2.084a.63.63,0,0,0,1.26,0V.63A.63.63,0,0,0,0,.63Z" transform="translate(-8386.618 -13901.821) rotate(90)" fill="#6a6d74" fill-rule="evenodd"/>
    <path id="Trazado_58760" data-name="Trazado 58760" d="M0,.63V2.084a.63.63,0,0,0,1.26,0V.63A.63.63,0,0,0,0,.63Z" transform="translate(-8387.807 -13897.694) rotate(135)" fill="#6a6d74" fill-rule="evenodd"/>
    <path id="Trazado_58761" data-name="Trazado 58761" d="M0,.63V1.793a.63.63,0,0,0,1.26,0V.63A.63.63,0,0,0,0,.63Z" transform="translate(-8391.562 -13895.908) rotate(180)" fill="#6a6d74" fill-rule="evenodd"/>
    <path id="Trazado_58762" data-name="Trazado 58762" d="M0,.63V1.793a.63.63,0,0,0,1.26,0V.63A.63.63,0,0,0,0,.63Z" transform="translate(-8395.483 -13897.011) rotate(-135)" fill="#6a6d74" fill-rule="evenodd"/>
    <path id="Trazado_58763" data-name="Trazado 58763" d="M0,.63V1.5a.63.63,0,0,0,1.26,0V.63A.63.63,0,0,0,0,.63Z" transform="translate(-8397.185 -13900.562) rotate(-90)" fill="#6a6d74" fill-rule="evenodd"/>
    <path id="Trazado_58764" data-name="Trazado 58764" d="M0,.63V1.5a.63.63,0,0,0,1.26,0V.63A.63.63,0,0,0,0,.63Z" transform="translate(-8396.167 -13904.277) rotate(-45)" fill="#6a6d74" fill-rule="evenodd"/>
    <path id="Trazado_58765" data-name="Trazado 58765" d="M8.191,15.122a6.925,6.925,0,1,1,2.31-.395.63.63,0,1,0,.42,1.188,8.194,8.194,0,1,0-2.731.467.63.63,0,0,0,0-1.26Z" transform="translate(-8400.383 -13893.001) rotate(-90)" fill="#6a6d74" fill-rule="evenodd"/>
  </g>
</svg>
