<svg xmlns="http://www.w3.org/2000/svg" width="22" height="16" viewBox="0 0 22 16" fill="none">
  <path fill-rule="evenodd" clip-rule="evenodd" d="M0.959961 2.73702C0.959961 2.39988 1.02676 2.06605 1.15655 1.7546C1.28634 1.44316 1.47657 1.16021 1.71636 0.92193C1.95615 0.68365 2.24081 0.494714 2.55406 0.365921C2.86731 0.237128 3.203 0.171003 3.54196 0.171327H9.46915C10.1533 0.171327 10.8094 0.44164 11.2931 0.922802C11.7769 1.40396 12.0487 2.05656 12.0487 2.73702V4.063C12.0487 4.28982 11.9581 4.50735 11.7968 4.66774C11.6356 4.82813 11.4169 4.91823 11.1888 4.91823C10.9608 4.91823 10.7421 4.82813 10.5808 4.66774C10.4196 4.50735 10.329 4.28982 10.329 4.063V2.73702C10.329 2.5102 10.2384 2.29267 10.0772 2.13228C9.9159 1.97189 9.6972 1.88179 9.46915 1.88179H3.54196C3.31391 1.88179 3.09521 1.97189 2.93396 2.13228C2.77271 2.29267 2.68212 2.5102 2.68212 2.73702V13.3424C2.68212 13.5692 2.77271 13.7867 2.93396 13.9471C3.09521 14.1075 3.31391 14.1976 3.54196 14.1976H9.46915C9.6972 14.1976 9.9159 14.1075 10.0772 13.9471C10.2384 13.7867 10.329 13.5692 10.329 13.3424V12.0176C10.329 11.7908 10.4196 11.5733 10.5808 11.4129C10.7421 11.2525 10.9608 11.1624 11.1888 11.1624C11.4169 11.1624 11.6356 11.2525 11.7968 11.4129C11.9581 11.5733 12.0487 11.7908 12.0487 12.0176V13.3436C12.0487 14.0241 11.7769 14.6767 11.2931 15.1578C10.8094 15.639 10.1533 15.9093 9.46915 15.9093H3.54196C2.85783 15.9093 2.20172 15.639 1.71796 15.1578C1.23421 14.6767 0.962439 14.0241 0.962439 13.3436L0.959961 2.73702Z" fill="#FFFFFF"/>
  <path fill-rule="evenodd" clip-rule="evenodd" d="M7.78418 8.04069C7.78418 8.153 7.80642 8.26421 7.84963 8.36797C7.89284 8.47174 7.95618 8.56602 8.03602 8.64543C8.11586 8.72485 8.21065 8.78784 8.31497 8.83082C8.41929 8.8738 8.5311 8.89592 8.64402 8.89592H18.8469L14.9466 13.1635C14.7932 13.3313 14.713 13.5529 14.7238 13.7795C14.7346 14.0061 14.8355 14.2191 15.0042 14.3717C15.173 14.5244 15.3957 14.6041 15.6236 14.5933C15.8514 14.5826 16.0656 14.4823 16.219 14.3144L21.2244 8.83924C21.4308 8.61444 21.5452 8.32105 21.5452 8.01666C21.5452 7.71227 21.4308 7.41888 21.2244 7.19409L16.2166 1.76447C16.1406 1.68048 16.0486 1.61229 15.946 1.56385C15.8434 1.51541 15.7321 1.48767 15.6186 1.48225C15.5052 1.47682 15.3917 1.49382 15.2849 1.53224C15.1781 1.57067 15.08 1.62977 14.9963 1.70613C14.9125 1.78249 14.8448 1.8746 14.7971 1.97713C14.7494 2.07966 14.7225 2.19058 14.7182 2.30348C14.7138 2.41639 14.7319 2.52904 14.7716 2.63492C14.8112 2.74081 14.8715 2.83783 14.9491 2.92039L18.8803 7.18423H8.64526C8.53213 7.18406 8.42009 7.20611 8.31555 7.24909C8.211 7.29207 8.11601 7.35516 8.03602 7.43472C7.95603 7.51428 7.89261 7.60876 7.84939 7.71275C7.80618 7.81673 7.78402 7.92817 7.78418 8.04069Z" fill="#FFFFFF"/>
</svg>