<svg xmlns="http://www.w3.org/2000/svg" width="16" height="19" viewBox="0 0 16 19" fill="none">
<path d="M12.9301 12.3896V9.80609C12.9301 9.58582 12.7515 9.40725 12.5313 9.40725H8.79924C8.57896 9.40725 8.40039 9.22868 8.40039 9.0084V6.33684" stroke="#FFF" stroke-linecap="round"/>
<path d="M3.87008 12.3896V9.80609C3.87008 9.58582 4.04865 9.40725 4.26893 9.40725H8.00154C8.22182 9.40725 8.40039 9.22868 8.40039 9.0084V6.33684" stroke="#FFF" stroke-linecap="round"/>
<rect x="1.38281" y="17.8618" width="4.9718" height="4.9718" rx="0.5" transform="rotate(-90 1.38281 17.8618)" stroke="#FFF"/>
<rect x="5.91406" y="5.83691" width="4.9718" height="4.9718" rx="0.5" transform="rotate(-90 5.91406 5.83691)" stroke="#FFF"/>
<rect x="10.4434" y="17.8618" width="4.9718" height="4.9718" rx="0.5" transform="rotate(-90 10.4434 17.8618)" stroke="#FFF"/>
</svg>
