<svg xmlns="http://www.w3.org/2000/svg" width="16" height="19" viewBox="0 0 16 19" fill="none">
<path d="M12.0488 12.2653V9.6817C12.0488 9.46143 11.8702 9.28286 11.6499 9.28286H7.91789C7.69761 9.28286 7.51904 9.10429 7.51904 8.88401V6.21245" stroke="#bca3c0" stroke-linecap="round"/>
<path d="M2.98873 12.2653V9.6817C2.98873 9.46143 3.1673 9.28286 3.38758 9.28286H7.12019C7.34047 9.28286 7.51904 9.10429 7.51904 8.88401V6.21245" stroke="#bca3c0" stroke-linecap="round"/>
<rect x="0.50293" y="17.7372" width="4.9718" height="4.9718" rx="0.5" transform="rotate(-90 0.50293 17.7372)" stroke="#bca3c0"/>
<rect x="5.0332" y="5.71252" width="4.9718" height="4.9718" rx="0.5" transform="rotate(-90 5.0332 5.71252)" stroke="#bca3c0"/>
<rect x="9.56299" y="17.7372" width="4.9718" height="4.9718" rx="0.5" transform="rotate(-90 9.56299 17.7372)" stroke="#bca3c0"/>
</svg>
