<svg xmlns="http://www.w3.org/2000/svg" width="17" height="19" viewBox="0 0 17 19" fill="none">
  <path opacity="0.99" d="M16.5289 4.24C16.5089 4.17 16.4689 4.1 16.4189 4.05L12.5689 0.14C12.5689 0.14 12.5589 0.14 12.5489 0.14C12.4889 0.08 12.4089 0.04 12.3189 0.02C12.3089 0.02 12.2989 0.02 12.2889 0.02C12.2589 0.02 12.2189 0 12.1889 0H5.72891C5.20891 0 4.72891 0.21 4.36891 0.57C4.00891 0.93 3.79891 1.43 3.79891 1.94V2.94H2.30891C1.79891 2.94 1.31891 3.15 0.948906 3.51C0.588906 3.87 0.378906 4.37 0.378906 4.88V17.07C0.378906 17.58 0.588906 18.07 0.948906 18.43C1.30891 18.79 1.80891 19 2.31891 19H11.2189C11.7289 19 12.2089 18.79 12.5789 18.43C12.9389 18.07 13.1489 17.57 13.1489 17.06V16.06H14.6389C15.1489 16.06 15.6489 15.85 15.9989 15.49C16.3589 15.13 16.5689 14.63 16.5689 14.12V4.45C16.5689 4.37 16.5489 4.3 16.5189 4.24H16.5289ZM12.7089 1.71L14.8689 3.9H13.6489C13.2189 3.9 12.7089 3.7 12.7089 3.15V1.71ZM11.8889 17.7C11.7089 17.88 11.4689 17.98 11.2289 17.98H2.31891C2.06891 17.98 1.83891 17.88 1.65891 17.7C1.47891 17.52 1.38891 17.29 1.37891 17.04V4.85C1.37891 4.6 1.47891 4.37 1.64891 4.19C1.82891 4.01 2.06891 3.91 2.30891 3.91H8.27891V6.08C8.27891 7.1 9.09891 7.83 10.2189 7.83H12.1489V17.03C12.1489 17.28 12.0489 17.51 11.8789 17.69L11.8889 17.7ZM9.28891 6.09V4.65L11.4489 6.84H10.2289C9.79891 6.84 9.28891 6.64 9.28891 6.09ZM15.2989 14.76C15.1289 14.93 14.8889 15.03 14.6389 15.03H13.1589V7.38C13.1589 7.3 13.1389 7.23 13.1089 7.17C13.0889 7.1 13.0489 7.04 12.9989 6.98L9.14891 3.07C9.14891 3.07 9.14891 3.07 9.13891 3.07C9.07891 3 8.98891 2.96 8.89891 2.94C8.85891 2.94 8.82891 2.92 8.77891 2.92H4.80891V1.92C4.80891 1.67 4.90891 1.44 5.08891 1.26C5.26891 1.08 5.49891 0.99 5.74891 0.98H11.7189V3.15C11.7189 4.17 12.5389 4.9 13.6589 4.9H15.5889V14.1C15.5889 14.35 15.4889 14.58 15.3089 14.76H15.2989Z" fill="#bca3c0"/>
  <path opacity="0.99" d="M9.75883 8.82995C9.36883 8.43995 8.89883 8.11995 8.38883 7.90995C7.09883 7.37995 5.57883 7.51995 4.42883 8.29995C3.72883 8.76995 3.18883 9.41995 2.86883 10.1899C2.54883 10.9599 2.46883 11.7999 2.62883 12.6299C2.78883 13.4499 3.18883 14.2 3.78883 14.79C4.37883 15.38 5.12883 15.78 5.94883 15.95C6.22883 16 6.49883 16.0299 6.77883 16.0299C7.32883 16.0299 7.87883 15.9199 8.38883 15.7099C9.15883 15.3899 9.81883 14.85 10.2788 14.15C10.7488 13.45 10.9888 12.6399 10.9888 11.7999C10.9888 11.2499 10.8788 10.6999 10.6688 10.1799C10.4588 9.66995 10.1388 9.19995 9.74883 8.80995L9.75883 8.82995ZM9.44883 13.5999C9.08883 14.1299 8.59883 14.54 7.99883 14.79C7.40883 15.03 6.76883 15.0999 6.13883 14.9699C5.50883 14.8499 4.93883 14.5399 4.48883 14.0899C4.03883 13.6399 3.72883 13.0699 3.60883 12.4399C3.48883 11.8099 3.54883 11.16 3.78883 10.58C4.02883 9.98995 4.44883 9.48995 4.97883 9.12995C5.50883 8.77995 6.12883 8.58995 6.76883 8.58995C7.19883 8.58995 7.60883 8.66995 7.99883 8.82995C8.38883 8.98995 8.74883 9.22995 9.03883 9.52995C9.32883 9.82995 9.57883 10.1899 9.73883 10.5699C9.89883 10.9699 9.98883 11.3799 9.98883 11.8099C9.98883 12.4499 9.79883 13.0699 9.44883 13.5999Z" fill="#bca3c0"/>
  <path opacity="0.99" d="M8.71926 10.4C8.71926 10.4 8.64926 10.34 8.59926 10.32C8.55926 10.3 8.50926 10.29 8.45926 10.29C8.40926 10.29 8.35926 10.29 8.31926 10.32C8.26926 10.34 8.22926 10.37 8.19926 10.4L6.15926 12.44L5.36926 11.65C5.36926 11.65 5.29926 11.59 5.24926 11.57C5.19926 11.55 5.15926 11.54 5.10926 11.54C5.05926 11.54 5.00926 11.54 4.96926 11.57C4.91926 11.59 4.87926 11.62 4.84926 11.65C4.81926 11.68 4.78926 11.72 4.76926 11.77C4.74926 11.81 4.73926 11.86 4.73926 11.91C4.73926 11.96 4.73926 12.01 4.76926 12.05C4.78926 12.1 4.81926 12.14 4.84926 12.17L5.89926 13.22C5.89926 13.22 5.96926 13.28 6.01926 13.3C6.06926 13.32 6.10926 13.33 6.15926 13.33C6.15926 13.33 6.25926 13.33 6.29926 13.31C6.34926 13.29 6.38926 13.26 6.41926 13.23L8.71926 10.93C8.71926 10.93 8.77926 10.86 8.79926 10.81C8.81926 10.76 8.82926 10.72 8.82926 10.67C8.82926 10.62 8.82926 10.57 8.79926 10.53C8.77926 10.48 8.74926 10.44 8.71926 10.41V10.4Z" fill="#bca3c0"/>
</svg>
