<svg xmlns="http://www.w3.org/2000/svg" width="18" height="17" viewBox="0 0 18 17" fill="none">
  <path d="M1.15602 15.3676V5.99761C1.15455 5.76789 1.24433 5.54697 1.40563 5.38339C1.56693 5.21981 1.78656 5.12694 2.01628 5.12519H5.45621C5.68593 5.12694 5.90557 5.21981 6.06687 5.38339C6.22817 5.54697 6.31794 5.76789 6.31647 5.99761V1.63219C6.315 1.40265 6.40462 1.1819 6.56568 1.01835C6.72674 0.854805 6.94609 0.76181 7.17562 0.759766H10.6167C10.8464 0.761519 11.066 0.854385 11.2273 1.01796C11.3886 1.18154 11.4784 1.40246 11.4769 1.63219V4.25166C11.4754 4.02194 11.5652 3.80102 11.7265 3.63744C11.8878 3.47386 12.1075 3.38099 12.3372 3.37924H15.7771C16.0066 3.38129 16.226 3.47428 16.387 3.63783C16.5481 3.80138 16.6377 4.02213 16.6363 4.25166V15.3676C16.6377 15.5973 16.548 15.8182 16.3867 15.9818C16.2254 16.1454 16.0057 16.2382 15.776 16.24H2.01628C1.78656 16.2382 1.56693 16.1454 1.40563 15.9818C1.24433 15.8182 1.15455 15.5973 1.15602 15.3676Z" stroke="#bca3c0" stroke-width="0.884587" stroke-linecap="round" stroke-linejoin="round" />
  <path d="M6.31396 16.2405V5.99813M12.3358 3.37976C12.1061 3.38151 11.8864 3.47438 11.7251 3.63796C11.5638 3.80154 11.474 4.02246 11.4755 4.25218V16.2405H15.7746C16.0043 16.2388 16.224 16.1459 16.3853 15.9823C16.5466 15.8187 16.6363 15.5978 16.6349 15.3681V4.25218C16.6363 4.02265 16.5467 3.8019 16.3856 3.63835C16.2246 3.4748 16.0052 3.38181 15.7757 3.37976H12.3358Z" stroke="#bca3c0" stroke-width="0.884587" stroke-linecap="round" stroke-linejoin="round"/>
</svg>