<svg xmlns="http://www.w3.org/2000/svg" width="18" height="17" viewBox="0 0 18 17" fill="none">
  <path d="M1.15602 15.3676V5.99761C1.15455 5.76789 1.24433 5.54697 1.40563 5.38339C1.56693 5.21981 1.78656 5.12694 2.01628 5.12519H5.45621C5.68593 5.12694 5.90557 5.21981 6.06687 5.38339C6.22817 5.54697 6.31794 5.76789 6.31647 5.99761V1.63219C6.315 1.40265 6.40462 1.1819 6.56568 1.01835C6.72674 0.854805 6.94609 0.76181 7.17562 0.759766H10.6167C10.8464 0.761519 11.066 0.854385 11.2273 1.01796C11.3886 1.18154 11.4784 1.40246 11.4769 1.63219V4.25166C11.4754 4.02194 11.5652 3.80102 11.7265 3.63744C11.8878 3.47386 12.1075 3.38099 12.3372 3.37924H15.7771C16.0066 3.38129 16.226 3.47428 16.387 3.63783C16.5481 3.80138 16.6377 4.02213 16.6363 4.25166V15.3676C16.6377 15.5973 16.548 15.8182 16.3867 15.9818C16.2254 16.1454 16.0057 16.2382 15.776 16.24H2.01628C1.78656 16.2382 1.56693 16.1454 1.40563 15.9818C1.24433 15.8182 1.15455 15.5973 1.15602 15.3676Z" stroke="#FFF" stroke-width="0.884587" stroke-linecap="round" stroke-linejoin="round"/>
  <path d="M6.31384 16.2406V5.99819M12.3357 3.37982C12.1059 3.38158 11.8863 3.47444 11.725 3.63802C11.5637 3.8016 11.4739 4.02252 11.4754 4.25224V16.2406H15.7745C16.0042 16.2388 16.2238 16.146 16.3851 15.9824C16.5464 15.8188 16.6362 15.5979 16.6347 15.3682V4.25224C16.6362 4.02271 16.5466 3.80196 16.3855 3.63841C16.2245 3.47486 16.0051 3.38187 15.7756 3.37982H12.3357Z" stroke="#FFF" stroke-width="0.884587" stroke-linecap="round" stroke-linejoin="round"/>
</svg>
