<svg width="17" height="18" viewBox="0 0 17 18" fill="none" xmlns="http://www.w3.org/2000/svg">
  <g id="graph">
    <path id="Trazado 58736" d="M15.9306 12.8211H5.34049C5.25704 12.8211 5.17442 12.8047 5.09733 12.7727C5.02024 12.7408 4.95019 12.694 4.89118 12.635C4.83218 12.576 4.78538 12.5059 4.75344 12.4288C4.72151 12.3517 4.70508 12.2691 4.70508 12.1856V9.71454C4.7056 9.60283 4.73555 9.49323 4.79192 9.39679L7.06139 5.51279C7.10949 5.43053 7.17547 5.36015 7.25445 5.30685C7.33342 5.25355 7.42337 5.21869 7.51764 5.20486C7.61191 5.19103 7.70808 5.19857 7.79903 5.22694C7.88999 5.25531 7.9734 5.30377 8.0431 5.36874L10.2575 7.43519L12.474 5.36556C12.547 5.29745 12.6351 5.24751 12.731 5.21979C12.827 5.19207 12.9281 5.18736 13.0262 5.20603C13.1243 5.2247 13.2166 5.26624 13.2956 5.32726C13.3747 5.38829 13.4382 5.46709 13.4811 5.55727L16.5068 11.9123C16.5529 12.0092 16.5737 12.1162 16.5674 12.2234C16.561 12.3305 16.5276 12.4343 16.4703 12.525C16.413 12.6157 16.3336 12.6905 16.2396 12.7423C16.1456 12.794 16.0401 12.8212 15.9328 12.8211H15.9306ZM5.9759 11.5501H14.9246L12.7006 6.88972L10.6917 8.77081C10.574 8.88071 10.419 8.94184 10.258 8.94184C10.097 8.94184 9.94203 8.88071 9.82436 8.77081L7.75822 6.84205L5.97696 9.89142L5.9759 11.5501Z" fill="#FFF"/>
    <path id="Trazado 58737" d="M15.9309 17.0575H5.34071C4.04915 17.0561 2.81088 16.5423 1.89761 15.6289C0.984334 14.7155 0.47064 13.477 0.469238 12.1853V1.59351C0.469238 1.42497 0.536184 1.26332 0.655346 1.14414C0.774508 1.02496 0.936127 0.958008 1.10465 0.958008C1.27317 0.958008 1.43479 1.02496 1.55395 1.14414C1.67311 1.26332 1.74006 1.42497 1.74006 1.59351V12.1853C1.74006 13.1404 2.11941 14.0564 2.79466 14.7317C3.46992 15.4071 4.38576 15.7865 5.34071 15.7865H15.9309C16.0994 15.7865 16.261 15.8534 16.3802 15.9726C16.4993 16.0918 16.5663 16.2534 16.5663 16.422C16.5663 16.5905 16.4993 16.7522 16.3802 16.8714C16.261 16.9905 16.0994 17.0575 15.9309 17.0575Z" fill="#FFF"/>
  </g>
</svg>
