<svg width="17" height="18" viewBox="0 0 17 18" fill="none" xmlns="http://www.w3.org/2000/svg">
<path d="M15.9307 12.8211H5.34055C5.25711 12.8211 5.17448 12.8047 5.09739 12.7727C5.0203 12.7408 4.95025 12.694 4.89125 12.635C4.83224 12.576 4.78544 12.5059 4.75351 12.4288C4.72157 12.3517 4.70514 12.2691 4.70514 12.1856V9.71454C4.70566 9.60283 4.73561 9.49323 4.79198 9.39679L7.06145 5.51279C7.10955 5.43053 7.17553 5.36015 7.25451 5.30685C7.33348 5.25355 7.42343 5.21869 7.5177 5.20486C7.61197 5.19103 7.70814 5.19857 7.79909 5.22694C7.89005 5.25531 7.97346 5.30377 8.04316 5.36874L10.2576 7.43519L12.4741 5.36556C12.5471 5.29745 12.6352 5.24751 12.7311 5.21979C12.827 5.19207 12.9281 5.18736 13.0262 5.20603C13.1243 5.2247 13.2167 5.26624 13.2957 5.32726C13.3747 5.38829 13.4383 5.46709 13.4812 5.55727L16.5068 11.9123C16.553 12.0092 16.5738 12.1162 16.5674 12.2234C16.5611 12.3305 16.5277 12.4343 16.4703 12.525C16.413 12.6157 16.3337 12.6905 16.2397 12.7423C16.1457 12.794 16.0401 12.8212 15.9328 12.8211H15.9307ZM5.97596 11.5501H14.9246L12.7007 6.88972L10.6918 8.77081C10.5741 8.88071 10.4191 8.94184 10.2581 8.94184C10.0971 8.94184 9.94209 8.88071 9.82442 8.77081L7.75828 6.84205L5.97702 9.89142L5.97596 11.5501Z" fill="#bca3c0"/>
<path d="M15.9309 17.0575H5.34071C4.04915 17.0561 2.81088 16.5423 1.89761 15.6289C0.984334 14.7155 0.47064 13.477 0.469238 12.1853V1.59351C0.469238 1.42497 0.536184 1.26332 0.655346 1.14414C0.774508 1.02496 0.936127 0.958008 1.10465 0.958008C1.27317 0.958008 1.43479 1.02496 1.55395 1.14414C1.67311 1.26332 1.74006 1.42497 1.74006 1.59351V12.1853C1.74006 13.1404 2.11941 14.0564 2.79466 14.7317C3.46992 15.4071 4.38576 15.7865 5.34071 15.7865H15.9309C16.0994 15.7865 16.261 15.8534 16.3802 15.9726C16.4993 16.0918 16.5663 16.2534 16.5663 16.422C16.5663 16.5905 16.4993 16.7522 16.3802 16.8714C16.261 16.9905 16.0994 17.0575 15.9309 17.0575Z" fill="#bca3c0"/>
</svg>
