<svg id="credit-card_1_" data-name="credit-card (1)" xmlns="http://www.w3.org/2000/svg" width="16.912" height="11.986" viewBox="0 0 16.912 11.986">
  <path id="Trazado_58744" data-name="Trazado 58744" d="M14.814,11.986H2.1A2.1,2.1,0,0,1,0,9.888V2.1A2.1,2.1,0,0,1,2.1,0H14.814a2.1,2.1,0,0,1,2.1,2.1V9.887A2.1,2.1,0,0,1,14.814,11.986ZM2.1,1.082A1.017,1.017,0,0,0,1.082,2.1V9.887A1.017,1.017,0,0,0,2.1,10.9H14.814A1.017,1.017,0,0,0,15.83,9.887V2.1a1.017,1.017,0,0,0-1.016-1.016H2.1Z" fill="#5840d1"/>
  <rect id="Rectángulo_19537" data-name="Rectángulo 19537" width="15.83" height="2.584" transform="translate(0.541 6.599)" fill="#5840d1"/>
  <path id="Trazado_58745" data-name="Trazado 58745" d="M12.86,15.631H7.242a.541.541,0,0,1,0-1.082H12.86a.541.541,0,0,1,0,1.082Z" transform="translate(-4.737 -10.284)" fill="#5840d1"/>
</svg>
