<svg id="pos-terminal_1_" data-name="pos-terminal (1)" xmlns="http://www.w3.org/2000/svg" width="17.234" height="17.234" viewBox="0 0 17.234 17.234">
  <path id="Trazado_58746" data-name="Trazado 58746" d="M111.05,0a2.164,2.164,0,0,0-2.16,2.16V15.074a2.164,2.164,0,0,0,2.16,2.16H120.3a2.164,2.164,0,0,0,2.16-2.16V2.16A2.164,2.164,0,0,0,120.3,0Zm0,.741H120.3a1.409,1.409,0,0,1,1.42,1.42V15.074a1.409,1.409,0,0,1-1.42,1.42H111.05a1.409,1.409,0,0,1-1.42-1.42V2.16A1.409,1.409,0,0,1,111.05.741Z" transform="translate(-105.225)" fill="#bca3c0" fill-rule="evenodd"/>
  <path id="Trazado_58747" data-name="Trazado 58747" d="M6.693,64.524A1.2,1.2,0,0,0,5.5,65.718v1.1a1.2,1.2,0,0,0,1.195,1.195H8.709A1.2,1.2,0,0,0,9.9,66.818v-1.1a1.2,1.2,0,0,0-1.195-1.195Zm0,.741H8.709a.445.445,0,0,1,.454.454v1.1a.445.445,0,0,1-.454.454H6.693a.445.445,0,0,1-.454-.454v-1.1A.445.445,0,0,1,6.693,65.264Zm5.589-.741A1.292,1.292,0,0,0,11,65.81v.916a1.292,1.292,0,0,0,1.287,1.287h1.833A1.292,1.292,0,0,0,15.4,66.726V65.81a1.292,1.292,0,0,0-1.287-1.287Zm0,.741h1.833a.537.537,0,0,1,.546.546v.916a.537.537,0,0,1-.546.546H12.282a.537.537,0,0,1-.546-.546V65.81A.537.537,0,0,1,12.282,65.264ZM6.693,59.942A1.2,1.2,0,0,0,5.5,61.137v1.1a1.2,1.2,0,0,0,1.195,1.195H8.709A1.2,1.2,0,0,0,9.9,62.236v-1.1a1.2,1.2,0,0,0-1.195-1.195Zm0,.741H8.709a.445.445,0,0,1,.454.454v1.1a.445.445,0,0,1-.454.454H6.693a.445.445,0,0,1-.454-.454v-1.1A.445.445,0,0,1,6.693,60.682Zm5.5-.741A1.2,1.2,0,0,0,11,61.137v1.1a1.2,1.2,0,0,0,1.195,1.195h2.016A1.2,1.2,0,0,0,15.4,62.236v-1.1a1.2,1.2,0,0,0-1.195-1.195Zm0,.741h2.016a.445.445,0,0,1,.454.454v1.1a.445.445,0,0,1-.454.454H12.191a.445.445,0,0,1-.454-.454v-1.1A.445.445,0,0,1,12.191,60.682ZM6.785,54.444A1.292,1.292,0,0,0,5.5,55.731v1.833A1.292,1.292,0,0,0,6.785,58.85h7.331A1.292,1.292,0,0,0,15.4,57.563V55.731a1.292,1.292,0,0,0-1.287-1.287Zm0,.741h7.331a.537.537,0,0,1,.546.546v1.833a.537.537,0,0,1-.546.546H6.785a.537.537,0,0,1-.546-.546V55.731A.537.537,0,0,1,6.785,55.185Zm-5.5.176A1.292,1.292,0,0,0,0,56.647V65.81A1.292,1.292,0,0,0,1.286,67.1H4.036a.37.37,0,0,0,0-.741H1.286a.54.54,0,0,1-.546-.546V56.647a.54.54,0,0,1,.546-.546H4.036a.37.37,0,0,0,0-.741Z" transform="translate(0 -52.611)" fill="#bca3c0" fill-rule="evenodd"/>
  <path id="Trazado_58748" data-name="Trazado 58748" d="M54.813,136.11a.37.37,0,0,0-.37.37v7.331a.37.37,0,0,0,.741,0V136.48A.37.37,0,0,0,54.813,136.11Z" transform="translate(-52.61 -131.528)" fill="#bca3c0" fill-rule="evenodd"/>
</svg>
