<svg width="17" height="17" viewBox="0 0 17 17" fill="none" xmlns="http://www.w3.org/2000/svg">
  <g id="money-stack">
    <path id="Trazado 58738" d="M16.5677 4.30587C16.5784 3.9862 16.5041 3.6694 16.3526 3.38773C16.201 3.10605 15.9775 2.86954 15.7048 2.70225L12.5407 0.785201C12.0784 0.505146 11.5501 0.352788 11.0097 0.343694C10.4693 0.3346 9.93615 0.469097 9.46476 0.73344L1.41832 5.27686C1.15097 5.42746 0.92555 5.64251 0.76257 5.90245C0.59959 6.16238 0.50423 6.45894 0.485171 6.76512C0.466112 7.07131 0.523959 7.3774 0.653447 7.65552C0.782934 7.93365 0.979949 8.17499 1.22656 8.35756C0.996721 8.52377 0.808718 8.74115 0.677418 8.99253C0.546119 9.2439 0.475124 9.52236 0.470048 9.80589C0.462344 10.0622 0.50971 10.3172 0.608951 10.5536C0.708193 10.7901 0.857001 11.0025 1.04534 11.1766C0.867405 11.3444 0.724843 11.5461 0.626044 11.7698C0.527245 11.9935 0.474206 12.2347 0.470048 12.4792C0.461058 12.8005 0.53776 13.1183 0.692278 13.4002C0.846795 13.682 1.07356 13.9176 1.34929 14.0828L4.49422 15.9999C4.95624 16.2805 5.48463 16.4332 6.02516 16.4423C6.5657 16.4514 7.09892 16.3166 7.57012 16.0517L15.6194 11.5073C15.9022 11.3529 16.1389 11.1264 16.3055 10.8507C16.4721 10.5751 16.5625 10.2602 16.5677 9.93817C16.575 9.68234 16.5274 9.42792 16.4282 9.192C16.329 8.95607 16.1804 8.74411 15.9924 8.57035C16.1734 8.39964 16.3177 8.19392 16.4166 7.96569C16.5155 7.73747 16.5669 7.49151 16.5677 7.24279C16.5748 6.95055 16.511 6.66093 16.3818 6.3987C16.2525 6.13647 16.0617 5.90941 15.8256 5.73695C16.0505 5.57099 16.2343 5.35569 16.363 5.10761C16.4916 4.85952 16.5617 4.58525 16.5677 4.30587ZM1.9706 6.27756L10.0199 1.73702C10.3128 1.57372 10.6435 1.4904 10.9787 1.49547C11.3294 1.49329 11.6737 1.58889 11.973 1.77152L15.1237 3.68858C15.2222 3.74929 15.3039 3.83377 15.3612 3.93427C15.4185 4.03476 15.4496 4.14804 15.4516 4.26369C15.4491 4.38197 15.4152 4.49747 15.3536 4.59847C15.292 4.69947 15.2047 4.78239 15.1007 4.83881L14.7555 5.03052L13.605 5.6804L12.4544 6.31878L11.0746 7.09422L7.04757 9.39469C6.75276 9.55688 6.42059 9.63904 6.08414 9.63299C5.74769 9.62694 5.4187 9.53288 5.12992 9.36018L4.65818 9.07837L3.47116 8.39686L2.32057 7.71822L1.92362 7.47667C1.82523 7.41065 1.74549 7.32041 1.69209 7.21464C1.63869 7.10888 1.61342 6.99116 1.61872 6.8728C1.61823 6.75158 1.6506 6.63249 1.71239 6.52819C1.77418 6.42389 1.86308 6.33827 1.96965 6.28043L1.9706 6.27756ZM15.1065 6.66864C15.2018 6.73137 15.28 6.81674 15.3342 6.9171C15.3884 7.01746 15.4169 7.12969 15.4171 7.24375C15.4145 7.36203 15.3807 7.47753 15.3191 7.57853C15.2575 7.67953 15.1702 7.76245 15.0662 7.81887L14.9626 7.87638L13.8121 8.52626L7.01209 12.3757C6.71801 12.5402 6.38552 12.6236 6.0486 12.6176C5.71168 12.6115 5.38242 12.5161 5.09445 12.3412L3.21995 11.191L2.09909 10.52L1.94376 10.4241C1.84527 10.3634 1.76362 10.279 1.70632 10.1785C1.64902 10.078 1.61791 9.96468 1.61584 9.84903C1.61842 9.73075 1.65224 9.61525 1.71387 9.51425C1.7755 9.41325 1.86275 9.33033 1.96677 9.27391L2.31194 9.08221L3.46253 9.78385L4.49135 10.3647L4.60065 10.428C5.05076 10.6786 5.55725 10.8105 6.07244 10.8114C6.5957 10.8089 7.10961 10.6726 7.56533 10.4155L12.4179 7.68563L13.5685 7.0415L14.7191 6.39737L15.1065 6.66864ZM15.1065 10.5363L7.05811 15.0768C6.76403 15.2413 6.43154 15.3248 6.09463 15.3187C5.75771 15.3126 5.42844 15.2173 5.14047 15.0423L1.94759 13.0994C1.8491 13.0387 1.76745 12.9542 1.71016 12.8537C1.65286 12.7532 1.62174 12.6399 1.61968 12.5243C1.62226 12.406 1.65608 12.2905 1.71771 12.1895C1.77934 12.0885 1.86658 12.0056 1.9706 11.9492L2.07416 11.8916L4.4971 13.3237C4.95912 13.6043 5.4875 13.757 6.02804 13.7661C6.56857 13.7752 7.1018 13.6404 7.573 13.3754L14.9607 9.22024L15.1103 9.31609C15.2088 9.3768 15.2904 9.46128 15.3477 9.56178C15.405 9.66227 15.4362 9.77555 15.4382 9.8912C15.4441 10.0172 15.4142 10.1424 15.3522 10.2523C15.2901 10.3621 15.1983 10.4523 15.0873 10.5123L15.1065 10.5363Z" fill="#FFF"/>
    <path id="Trazado 58739" d="M7.19605 6.30043C7.5071 6.63518 7.90566 6.87624 8.34664 6.99632H8.39841C8.74238 7.09034 9.10248 7.10973 9.45455 7.05319C9.80663 6.99665 10.1425 6.86549 10.4397 6.6685C10.6823 6.49389 10.8795 6.26384 11.015 5.99753C11.1333 5.77993 11.199 5.53767 11.2068 5.29014C11.2193 5.01358 11.165 4.73808 11.0486 4.48689C10.9281 4.21412 10.7448 3.97369 10.5136 3.78525C10.3694 3.65934 10.208 3.55476 10.0342 3.47469C9.71245 3.31172 9.36073 3.21641 9.00072 3.19464C8.64072 3.17288 8.28007 3.22513 7.94105 3.34816C7.6792 3.44832 7.44139 3.60251 7.24314 3.8007C7.0449 3.99889 6.89065 4.23662 6.79047 4.4984C6.70465 4.7493 6.67519 5.01602 6.70417 5.27959C6.73346 5.49704 6.80166 5.70744 6.90553 5.90072C6.98664 6.0447 7.08413 6.17883 7.19605 6.30043ZM8.25075 5.72531C8.10651 5.63613 7.98764 5.51136 7.90558 5.36299C7.86566 5.2929 7.84094 5.21521 7.83301 5.13496C7.82508 5.0547 7.83412 4.97368 7.85955 4.89714C7.90697 4.79056 7.97514 4.69448 8.06008 4.6145C8.14503 4.53452 8.24504 4.47224 8.35431 4.4313C8.51542 4.36745 8.68725 4.33492 8.86056 4.33545C9.1983 4.32916 9.52762 4.44104 9.79158 4.65176C9.8768 4.72284 9.94674 4.81045 9.99716 4.90929C10.0476 5.00814 10.0775 5.11617 10.085 5.22687C10.0727 5.32501 10.0384 5.4191 9.98459 5.5021C9.93079 5.5851 9.85891 5.65485 9.77432 5.70614C9.61716 5.8132 9.43904 5.88566 9.25176 5.91871C9.06447 5.95176 8.8723 5.94464 8.68798 5.89784C8.53144 5.85722 8.38339 5.78906 8.25075 5.69655V5.72531Z" fill="#FFF"/>
  </g>
</svg>