<svg xmlns="http://www.w3.org/2000/svg" width="16" height="17" viewBox="0 0 16 17" fill="none">
  <path d="M0.777344 16.9666L0.801347 14.9011C0.904944 13.1147 1.69665 11.4348 3.01463 10.2048C4.3326 8.97477 6.07731 8.28752 7.89209 8.28353C9.70687 8.27955 11.4547 8.95914 12.7782 10.1834C14.1017 11.4076 14.901 13.084 15.0126 14.8699L15.0192 16.9655L0.777344 16.9666ZM7.90754 9.36743C6.37523 9.37052 4.90137 9.9476 3.78437 10.9818C2.66736 12.016 1.99068 13.4301 1.89133 14.9377L1.87497 15.8908H13.9259V14.9054C13.8196 13.4028 13.1395 11.9958 12.0226 10.9681C10.9058 9.94041 9.43525 9.3684 7.90754 9.36743Z" fill="#FFF"/>
  <path d="M7.89868 6.88672C7.23269 6.88693 6.58159 6.69241 6.02774 6.32775C5.47388 5.9631 5.04215 5.44469 4.78714 4.8381C4.53212 4.2315 4.46529 3.56397 4.59508 2.91992C4.72488 2.27588 5.04548 1.68425 5.51632 1.21986C5.98717 0.755469 6.58713 0.439183 7.2403 0.311C7.89348 0.182818 8.57054 0.248498 9.18586 0.499734C9.80117 0.750969 10.3271 1.17647 10.6971 1.72244C11.0672 2.2684 11.2647 2.91029 11.2647 3.56692C11.2638 4.44694 10.9089 5.29068 10.2779 5.91305C9.64687 6.53541 8.79122 6.88558 7.89868 6.88672ZM7.89868 1.32397C7.44844 1.32375 7.00825 1.45521 6.6338 1.70171C6.25934 1.9482 5.96746 2.29866 5.79506 2.70875C5.62266 3.11884 5.57749 3.57012 5.66528 4.00552C5.75306 4.44092 5.96985 4.84087 6.28822 5.15477C6.60659 5.46867 7.01223 5.68241 7.45383 5.76897C7.89543 5.85552 8.35315 5.81099 8.76907 5.64101C9.185 5.47103 9.54045 5.18324 9.79046 4.81405C10.0405 4.44485 10.1738 4.01084 10.1736 3.56692C10.1727 2.97232 9.93276 2.40231 9.50632 1.98186C9.07988 1.56141 8.50175 1.32482 7.89868 1.32397Z" fill="#FFF"/>
</svg>
