<svg xmlns="http://www.w3.org/2000/svg" width="16" height="17" viewBox="0 0 16 17" fill="none">
  <path d="M0.777405 16.9666L0.801409 14.9011C0.905005 13.1147 1.69671 11.4348 3.01469 10.2048C4.33266 8.97476 6.07737 8.28751 7.89215 8.28353C9.70693 8.27954 11.4547 8.95913 12.7782 10.1834C14.1018 11.4076 14.901 13.084 15.0127 14.8699L15.0193 16.9655L0.777405 16.9666ZM7.9076 9.36742C6.3753 9.37052 4.90143 9.94759 3.78443 10.9818C2.66742 12.016 1.99074 13.4301 1.8914 14.9377L1.87503 15.8908H13.926V14.9054C13.8197 13.4028 13.1395 11.9958 12.0227 10.9681C10.9058 9.9404 9.43531 9.3684 7.9076 9.36742Z" fill="#bca3c0"/>
  <path d="M7.89868 6.88672C7.23269 6.88693 6.58159 6.69241 6.02774 6.32776C5.47388 5.9631 5.04215 5.4447 4.78714 4.8381C4.53212 4.23151 4.46529 3.56398 4.59508 2.91993C4.72488 2.27588 5.04548 1.68425 5.51632 1.21986C5.98717 0.755473 6.58713 0.439186 7.2403 0.311004C7.89348 0.182822 8.57054 0.248502 9.18586 0.499738C9.80117 0.750973 10.3271 1.17648 10.6971 1.72244C11.0672 2.2684 11.2647 2.91029 11.2647 3.56693C11.2638 4.44694 10.9089 5.29069 10.2779 5.91305C9.64687 6.53542 8.79122 6.88558 7.89868 6.88672ZM7.89868 1.32397C7.44844 1.32376 7.00825 1.45521 6.6338 1.70171C6.25934 1.94821 5.96746 2.29867 5.79506 2.70875C5.62266 3.11884 5.57749 3.57013 5.66528 4.00553C5.75306 4.44093 5.96985 4.84088 6.28822 5.15477C6.60659 5.46867 7.01223 5.68242 7.45383 5.76897C7.89543 5.85552 8.35315 5.81099 8.76907 5.64101C9.185 5.47103 9.54045 5.18324 9.79046 4.81405C10.0405 4.44486 10.1738 4.01085 10.1736 3.56693C10.1727 2.97232 9.93276 2.40231 9.50632 1.98186C9.07988 1.56141 8.50175 1.32482 7.89868 1.32397Z" fill="#bca3c0"/>
</svg>
