<svg width="14" height="21" viewBox="0 0 14 21" fill="none" xmlns="http://www.w3.org/2000/svg">
<mask id="path-1-inside-1_288_12418" fill="white">
<path d="M11.8904 20.3247H12.5934C12.8631 20.3247 13.0647 20.0793 13.2352 19.8704C13.3864 19.6852 13.6079 19.4874 13.6079 19.2483L13.6079 0.884573C13.6079 0.865469 13.592 0.850598 13.5729 0.850598C13.0308 0.850598 0.743042 0.829102 0.201016 0.829102C0.172522 0.829102 0.148438 0.851454 0.148438 0.879947L0.148437 19.248C0.148437 19.4871 0.369935 19.6849 0.521144 19.8701C0.69165 20.079 0.893278 20.3244 1.16292 20.3244H1.61586C1.7537 20.3244 1.8609 20.2092 1.90473 20.0785C1.9309 20.0005 1.96954 19.9295 2.01842 19.8696C2.0673 19.8098 2.12544 19.7623 2.18951 19.7299C2.25357 19.6975 2.32228 19.6808 2.39168 19.6808C2.46108 19.6808 2.52979 19.6975 2.59385 19.7299C2.65791 19.7623 2.71606 19.8098 2.76493 19.8696C2.81381 19.9295 2.85245 20.0005 2.87863 20.0785C2.92245 20.2092 3.02966 20.3244 3.16749 20.3244H3.85912C3.99695 20.3244 4.10416 20.2092 4.14799 20.0785C4.17416 20.0005 4.2128 19.9295 4.26168 19.8696C4.31055 19.8098 4.3687 19.7623 4.43276 19.7299C4.49683 19.6975 4.56554 19.6808 4.63493 19.6808C4.70433 19.6808 4.77304 19.6975 4.83711 19.7299C4.90117 19.7623 4.95931 19.8098 5.00819 19.8696C5.05707 19.9295 5.09571 20.0005 5.12188 20.0785C5.16571 20.2092 5.27291 20.3244 5.41075 20.3244H6.10238C6.24021 20.3244 6.34741 20.2092 6.39124 20.0785C6.41742 20.0005 6.45606 19.9295 6.50493 19.8696C6.55381 19.8098 6.61196 19.7623 6.67602 19.7299C6.74008 19.6975 6.80879 19.6808 6.87819 19.6808C6.94759 19.6808 7.0163 19.6975 7.08036 19.7299C7.14442 19.7623 7.20257 19.8098 7.25145 19.8696C7.30032 19.9295 7.33896 20.0005 7.36514 20.0785C7.40897 20.2092 7.51617 20.3244 7.654 20.3244H8.3456C8.48343 20.3244 8.59064 20.2092 8.63447 20.0785C8.66064 20.0005 8.69928 19.9295 8.74816 19.8696C8.79703 19.8098 8.85518 19.7623 8.91924 19.7299C8.9833 19.6975 9.05202 19.6808 9.12141 19.6808C9.19081 19.6808 9.25952 19.6975 9.32359 19.7299C9.38765 19.7623 9.44579 19.8098 9.49467 19.8696C9.54355 19.9295 9.58219 20.0005 9.60836 20.0785C9.65219 20.2092 9.75939 20.3244 9.89723 20.3244H10.5889C10.7267 20.3244 10.8339 20.2092 10.8777 20.0785C10.9039 20.0005 10.9425 19.9295 10.9914 19.8696C11.0403 19.8098 11.0984 19.7623 11.1625 19.7299C11.2266 19.6975 11.2953 19.6808 11.3647 19.6808C11.4341 19.6808 11.5028 19.6975 11.5668 19.7299C11.6309 19.7623 11.6891 19.8098 11.7379 19.8696C11.7868 19.9295 11.8254 20.0005 11.8516 20.0785C11.8778 20.1565 11.891 20.2401 11.8904 20.3244"/>
</mask>
<path d="M6.87819 19.6808V20.6808V19.6808ZM9.12141 19.6808V20.6808V19.6808ZM11.8904 21.3247H12.5934V19.3247H11.8904V21.3247ZM14.6079 19.2483L14.6079 0.884573L12.6079 0.884573L12.6079 19.2483H14.6079ZM13.5729 -0.149402C13.303 -0.149402 10.0971 -0.154773 6.88862 -0.160149C3.68216 -0.165521 0.473144 -0.170898 0.201016 -0.170898L0.201016 1.8291C0.470913 1.8291 3.67681 1.83447 6.88527 1.83985C10.0917 1.84522 13.3007 1.8506 13.5729 1.8506V-0.149402ZM-0.851562 0.879947L-0.851563 19.248H1.14844L1.14844 0.879947L-0.851562 0.879947ZM1.16292 21.3244H1.61586L1.61586 19.3244H1.16292L1.16292 21.3244ZM2.85283 20.3965C2.84313 20.4254 2.82527 20.4626 2.79282 20.5023L1.24402 19.2369C1.11382 19.3963 1.01868 19.5755 0.95663 19.7605L2.85283 20.3965ZM2.79282 20.5023C2.76015 20.5423 2.7107 20.587 2.64086 20.6223L1.73816 18.8376C1.54018 18.9377 1.37445 19.0773 1.24402 19.2369L2.79282 20.5023ZM2.64086 20.6223C2.56999 20.6581 2.4846 20.6808 2.39168 20.6808L2.39168 18.6808C2.15996 18.6808 1.93714 18.7369 1.73816 18.8376L2.64086 20.6223ZM2.39168 20.6808C2.29875 20.6808 2.21336 20.6581 2.1425 20.6223L3.0452 18.8376C2.84621 18.7369 2.6234 18.6808 2.39168 18.6808L2.39168 20.6808ZM2.1425 20.6223C2.07266 20.587 2.02321 20.5423 1.99053 20.5023L3.53934 19.2369C3.4089 19.0773 3.24316 18.9377 3.0452 18.8376L2.1425 20.6223ZM1.99053 20.5023C1.95808 20.4626 1.94023 20.4254 1.93053 20.3965L3.82672 19.7605C3.76468 19.5755 3.66954 19.3963 3.53934 19.2369L1.99053 20.5023ZM3.16749 21.3244H3.85912V19.3244H3.16749V21.3244ZM5.09608 20.3965C5.08639 20.4254 5.06853 20.4626 5.03608 20.5023L3.48728 19.2369C3.35707 19.3963 3.26194 19.5755 3.19989 19.7605L5.09608 20.3965ZM5.03608 20.5023C5.0034 20.5423 4.95395 20.587 4.88411 20.6223L3.98141 18.8376C3.78345 18.9377 3.61771 19.0773 3.48728 19.2369L5.03608 20.5023ZM4.88411 20.6223C4.81325 20.6581 4.72786 20.6808 4.63493 20.6808V18.6808C4.40321 18.6808 4.1804 18.7369 3.98141 18.8376L4.88411 20.6223ZM4.63493 20.6808C4.54201 20.6808 4.45662 20.6581 4.38576 20.6223L5.28846 18.8376C5.08947 18.7369 4.86665 18.6808 4.63493 18.6808V20.6808ZM4.38576 20.6223C4.31591 20.587 4.26647 20.5423 4.23379 20.5023L5.78259 19.2369C5.65216 19.0773 5.48642 18.9377 5.28846 18.8376L4.38576 20.6223ZM4.23379 20.5023C4.20134 20.4626 4.18348 20.4254 4.17378 20.3965L6.06998 19.7605C6.00793 19.5755 5.9128 19.3963 5.78259 19.2369L4.23379 20.5023ZM5.41075 21.3244H6.10238V19.3244H5.41075V21.3244ZM7.33934 20.3965C7.32964 20.4254 7.31179 20.4626 7.27933 20.5023L5.73053 19.2369C5.60032 19.3963 5.50519 19.5755 5.44314 19.7605L7.33934 20.3965ZM7.27933 20.5023C7.24666 20.5423 7.19721 20.587 7.12737 20.6223L6.22467 18.8376C6.02671 18.9377 5.86096 19.0773 5.73053 19.2369L7.27933 20.5023ZM7.12737 20.6223C7.05651 20.6581 6.97112 20.6808 6.87819 20.6808V18.6808C6.64647 18.6808 6.42366 18.7369 6.22467 18.8376L7.12737 20.6223ZM6.87819 20.6808C6.78527 20.6808 6.69987 20.6581 6.62901 20.6223L7.53171 18.8376C7.33272 18.7369 7.10991 18.6808 6.87819 18.6808V20.6808ZM6.62901 20.6223C6.55917 20.587 6.50972 20.5423 6.47705 20.5023L8.02585 19.2369C7.89542 19.0773 7.72968 18.9377 7.53171 18.8376L6.62901 20.6223ZM6.47705 20.5023C6.44459 20.4626 6.42674 20.4254 6.41704 20.3965L8.31324 19.7605C8.25119 19.5755 8.15605 19.3963 8.02585 19.2369L6.47705 20.5023ZM7.654 21.3244H8.3456V19.3244H7.654V21.3244ZM9.58256 20.3965C9.57287 20.4254 9.55501 20.4626 9.52256 20.5023L7.97376 19.2369C7.84355 19.3963 7.74842 19.5755 7.68637 19.7605L9.58256 20.3965ZM9.52256 20.5023C9.48988 20.5423 9.44043 20.587 9.37059 20.6223L8.46789 18.8376C8.26993 18.9377 8.10419 19.0773 7.97376 19.2369L9.52256 20.5023ZM9.37059 20.6223C9.29973 20.6581 9.21434 20.6808 9.12141 20.6808V18.6808C8.88969 18.6808 8.66688 18.7369 8.46789 18.8376L9.37059 20.6223ZM9.12141 20.6808C9.02849 20.6808 8.9431 20.6581 8.87224 20.6223L9.77494 18.8376C9.57595 18.7369 9.35313 18.6808 9.12141 18.6808V20.6808ZM8.87224 20.6223C8.80239 20.587 8.75294 20.5423 8.72027 20.5023L10.2691 19.2369C10.1386 19.0773 9.9729 18.9377 9.77494 18.8376L8.87224 20.6223ZM8.72027 20.5023C8.68782 20.4626 8.66996 20.4254 8.66026 20.3965L10.5565 19.7605C10.4944 19.5755 10.3993 19.3963 10.2691 19.2369L8.72027 20.5023ZM9.89723 21.3244H10.5889V19.3244H9.89723V21.3244ZM11.8258 20.3965C11.8161 20.4254 11.7983 20.4626 11.7658 20.5023L10.217 19.2369C10.0868 19.3963 9.99167 19.5755 9.92962 19.7605L11.8258 20.3965ZM11.7658 20.5023C11.7331 20.5423 11.6837 20.587 11.6138 20.6223L10.7111 18.8376C10.5132 18.9377 10.3474 19.0773 10.217 19.2369L11.7658 20.5023ZM11.6138 20.6223C11.543 20.6581 11.4576 20.6808 11.3647 20.6808V18.6808C11.133 18.6808 10.9101 18.7369 10.7111 18.8376L11.6138 20.6223ZM11.3647 20.6808C11.2717 20.6808 11.1864 20.6581 11.1155 20.6223L12.0182 18.8376C11.8192 18.7369 11.5964 18.6808 11.3647 18.6808V20.6808ZM11.1155 20.6223C11.0457 20.587 10.9962 20.5423 10.9635 20.5023L12.5123 19.2369C12.3819 19.0773 12.2162 18.9377 12.0182 18.8376L11.1155 20.6223ZM10.9635 20.5023C10.9311 20.4626 10.9132 20.4254 10.9035 20.3965L12.7997 19.7605C12.7377 19.5755 12.6425 19.3963 12.5123 19.2369L10.9635 20.5023ZM10.9035 20.3965C10.8938 20.3675 10.8903 20.3412 10.8905 20.3178L12.8904 20.3309C12.8917 20.139 12.8618 19.9456 12.7997 19.7605L10.9035 20.3965ZM8.66026 20.3965C8.77565 20.7405 9.15542 21.3244 9.89723 21.3244V19.3244C10.1233 19.3244 10.2934 19.4222 10.3912 19.5114C10.4831 19.5952 10.5313 19.6856 10.5565 19.7605L8.66026 20.3965ZM8.3456 21.3244C9.08741 21.3244 9.46718 20.7405 9.58256 20.3965L7.68637 19.7605C7.71148 19.6856 7.75974 19.5952 7.85158 19.5114C7.94942 19.4222 8.11954 19.3244 8.3456 19.3244V21.3244ZM6.41704 20.3965C6.53243 20.7405 6.9122 21.3244 7.654 21.3244V19.3244C7.88007 19.3244 8.05018 19.4222 8.14802 19.5114C8.23987 19.5952 8.28812 19.6856 8.31324 19.7605L6.41704 20.3965ZM4.17378 20.3965C4.28917 20.7405 4.66894 21.3244 5.41075 21.3244V19.3244C5.63681 19.3244 5.80693 19.4222 5.90477 19.5114C5.99661 19.5952 6.04486 19.6856 6.06998 19.7605L4.17378 20.3965ZM3.85912 21.3244C4.60092 21.3244 4.9807 20.7405 5.09608 20.3965L3.19989 19.7605C3.225 19.6856 3.27326 19.5952 3.3651 19.5114C3.46294 19.4222 3.63306 19.3244 3.85912 19.3244V21.3244ZM1.61586 21.3244C2.35767 21.3244 2.73744 20.7405 2.85283 20.3965L0.95663 19.7605C0.981745 19.6856 1.03 19.5952 1.12184 19.5114C1.21968 19.4222 1.3898 19.3244 1.61586 19.3244L1.61586 21.3244ZM-0.253539 20.5025C-0.179523 20.5932 -0.0265805 20.7852 0.166422 20.9453C0.368143 21.1126 0.705911 21.3244 1.16292 21.3244L1.16292 19.3244C1.25212 19.3244 1.32608 19.3456 1.37679 19.368C1.42337 19.3885 1.44568 19.4079 1.44329 19.4059C1.4409 19.4039 1.42708 19.3918 1.39905 19.3606C1.37031 19.3287 1.34022 19.2922 1.29583 19.2378L-0.253539 20.5025ZM6.10238 21.3244C6.84418 21.3244 7.22395 20.7405 7.33934 20.3965L5.44314 19.7605C5.46826 19.6856 5.51651 19.5952 5.60836 19.5114C5.7062 19.4222 5.87631 19.3244 6.10238 19.3244V21.3244ZM0.201016 -0.170898C-0.335672 -0.170898 -0.851562 0.256086 -0.851562 0.879947L1.14844 0.879947C1.14844 1.44682 0.680716 1.8291 0.201016 1.8291L0.201016 -0.170898ZM14.6079 0.884573C14.6079 0.27335 14.1036 -0.149402 13.5729 -0.149402V1.8506C13.0804 1.8506 12.6079 1.45759 12.6079 0.884573L14.6079 0.884573ZM1.93053 20.3965C2.04591 20.7405 2.42568 21.3244 3.16749 21.3244V19.3244C3.39355 19.3244 3.56367 19.4222 3.66151 19.5114C3.75336 19.5952 3.80161 19.6856 3.82672 19.7605L1.93053 20.3965ZM-0.851563 19.248C-0.851563 19.6808 -0.651528 20.0007 -0.531617 20.1661C-0.46724 20.2549 -0.401215 20.332 -0.355434 20.3846C-0.299726 20.4487 -0.278169 20.4723 -0.253539 20.5025L1.29583 19.2378C1.26727 19.2028 1.23945 19.1704 1.21626 19.1438C1.20458 19.1304 1.19296 19.1171 1.18273 19.1054C1.17209 19.0933 1.16277 19.0826 1.15367 19.0722C1.11539 19.0282 1.09769 19.0061 1.08779 18.9924C1.07815 18.9791 1.09121 18.9943 1.10737 19.0328C1.12509 19.075 1.14844 19.1498 1.14844 19.248H-0.851563ZM14.0099 20.5028C14.0345 20.4726 14.0561 20.449 14.1118 20.3849C14.1576 20.3323 14.2236 20.2552 14.288 20.1664C14.4079 20.001 14.6079 19.6811 14.6079 19.2483H12.6079C12.6079 19.1501 12.6313 19.0752 12.649 19.0331C12.6651 18.9946 12.6782 18.9794 12.6686 18.9927C12.6587 19.0064 12.641 19.0284 12.6027 19.0725C12.5936 19.0829 12.5843 19.0936 12.5736 19.1057C12.5634 19.1174 12.5518 19.1306 12.5401 19.1441C12.5169 19.1707 12.4891 19.2031 12.4605 19.2381L14.0099 20.5028ZM10.5889 21.3244C11.3307 21.3244 11.7104 20.7405 11.8258 20.3965L9.92962 19.7605C9.95474 19.6856 10.003 19.5952 10.0948 19.5114C10.1927 19.4222 10.3628 19.3244 10.5889 19.3244V21.3244ZM12.5934 21.3247C13.0504 21.3247 13.3882 21.1129 13.5899 20.9455C13.7829 20.7855 13.9359 20.5934 14.0099 20.5028L12.4605 19.2381C12.4161 19.2925 12.386 19.3289 12.3573 19.3609C12.3293 19.3921 12.3154 19.4042 12.3131 19.4062C12.3107 19.4082 12.333 19.3888 12.3796 19.3683C12.4303 19.3459 12.5042 19.3247 12.5934 19.3247V21.3247Z" fill="#6A6D74" mask="url(#path-1-inside-1_288_12418)"/>
<path d="M2.91211 4.60645L10.8397 4.5744" stroke="#6A6D74" stroke-linecap="round"/>
<path d="M2.91406 7.05176L10.8417 7.01971" stroke="#6A6D74" stroke-linecap="round"/>
<path d="M2.91211 9.49707L10.8397 9.46503" stroke="#6A6D74" stroke-linecap="round"/>
<mask id="path-6-inside-2_288_12418" fill="white">
<path d="M9.19367 13.0725L6.43844 15.8276C6.3971 15.8689 6.34802 15.9017 6.294 15.9241C6.23997 15.9465 6.18206 15.9581 6.12358 15.9581C6.0651 15.9581 6.00719 15.9465 5.95317 15.9241C5.89914 15.9017 5.85006 15.8689 5.80872 15.8276L4.55635 14.5752C4.51498 14.5339 4.48216 14.4848 4.45976 14.4308C4.43735 14.3768 4.42581 14.3189 4.42578 14.2604C4.42575 14.2019 4.43724 14.144 4.4596 14.09C4.48195 14.0359 4.51472 13.9868 4.55605 13.9455C4.59738 13.9041 4.64645 13.8713 4.70047 13.8489C4.75448 13.8265 4.81238 13.8149 4.87085 13.8149C4.92932 13.8149 4.98723 13.8264 5.04127 13.8487C5.0953 13.8711 5.1444 13.9038 5.18577 13.9452L6.12329 14.8827L8.56336 12.4426C8.60458 12.4007 8.6537 12.3674 8.70787 12.3445C8.76204 12.3217 8.82019 12.3098 8.87898 12.3096C8.93777 12.3093 8.99602 12.3207 9.05037 12.3431C9.10473 12.3655 9.15411 12.3984 9.19568 12.44C9.23724 12.4816 9.27016 12.531 9.29254 12.5853C9.31491 12.6397 9.3263 12.698 9.32605 12.7567C9.32579 12.8155 9.3139 12.8737 9.29105 12.9278C9.2682 12.982 9.23486 13.0311 9.19293 13.0723L9.19367 13.0725Z"/>
</mask>
<path d="M9.19367 13.0725L6.43844 15.8276C6.3971 15.8689 6.34802 15.9017 6.294 15.9241C6.23997 15.9465 6.18206 15.9581 6.12358 15.9581C6.0651 15.9581 6.00719 15.9465 5.95317 15.9241C5.89914 15.9017 5.85006 15.8689 5.80872 15.8276L4.55635 14.5752C4.51498 14.5339 4.48216 14.4848 4.45976 14.4308C4.43735 14.3768 4.42581 14.3189 4.42578 14.2604C4.42575 14.2019 4.43724 14.144 4.4596 14.09C4.48195 14.0359 4.51472 13.9868 4.55605 13.9455C4.59738 13.9041 4.64645 13.8713 4.70047 13.8489C4.75448 13.8265 4.81238 13.8149 4.87085 13.8149C4.92932 13.8149 4.98723 13.8264 5.04127 13.8487C5.0953 13.8711 5.1444 13.9038 5.18577 13.9452L6.12329 14.8827L8.56336 12.4426C8.60458 12.4007 8.6537 12.3674 8.70787 12.3445C8.76204 12.3217 8.82019 12.3098 8.87898 12.3096C8.93777 12.3093 8.99602 12.3207 9.05037 12.3431C9.10473 12.3655 9.15411 12.3984 9.19568 12.44C9.23724 12.4816 9.27016 12.531 9.29254 12.5853C9.31491 12.6397 9.3263 12.698 9.32605 12.7567C9.32579 12.8155 9.3139 12.8737 9.29105 12.9278C9.2682 12.982 9.23486 13.0311 9.19293 13.0723L9.19367 13.0725Z" fill="white"/>
<path d="M9.19367 13.0725L9.90076 13.7796L11.2223 12.4581L9.38964 12.0919L9.19367 13.0725ZM6.43844 15.8276L5.73135 15.1204L5.73104 15.1207L6.43844 15.8276ZM5.80872 15.8276L6.51612 15.1207L6.51583 15.1205L5.80872 15.8276ZM4.55635 14.5752L5.26345 13.8681L5.26312 13.8677L4.55635 14.5752ZM5.18577 13.9452L5.89288 13.2381L5.89255 13.2377L5.18577 13.9452ZM6.12329 14.8827L5.41618 15.5898L6.12329 16.2969L6.83039 15.5898L6.12329 14.8827ZM8.56336 12.4426L9.2705 13.1497L9.27634 13.1438L8.56336 12.4426ZM9.19293 13.0723L8.49191 12.3592L7.14533 13.6829L8.99696 14.0529L9.19293 13.0723ZM8.48658 12.3653L5.73135 15.1204L7.14553 16.5347L9.90076 13.7796L8.48658 12.3653ZM5.73104 15.1207C5.78258 15.0692 5.84377 15.0283 5.91112 15.0003L6.67687 16.8479C6.85227 16.7752 7.01163 16.6687 7.14584 16.5344L5.73104 15.1207ZM5.91112 15.0003C5.97848 14.9724 6.05068 14.9581 6.12358 14.9581V16.9581C6.31345 16.9581 6.50146 16.9206 6.67687 16.8479L5.91112 15.0003ZM6.12358 14.9581C6.19649 14.9581 6.26868 14.9724 6.33604 15.0003L5.57029 16.8479C5.7457 16.9206 5.93371 16.9581 6.12358 16.9581V14.9581ZM6.33604 15.0003C6.4034 15.0283 6.46459 15.0692 6.51612 15.1207L5.10133 16.5344C5.23553 16.6687 5.39489 16.7752 5.57029 16.8479L6.33604 15.0003ZM6.51583 15.1205L5.26345 13.8681L3.84924 15.2823L5.10162 16.5347L6.51583 15.1205ZM5.26312 13.8677C5.31466 13.9192 5.35555 13.9804 5.38346 14.0477L3.53605 14.8139C3.60877 14.9892 3.7153 15.1485 3.84957 15.2826L5.26312 13.8677ZM5.38346 14.0477C5.41136 14.1149 5.42575 14.1871 5.42578 14.2599L3.42578 14.2609C3.42587 14.4506 3.46334 14.6386 3.53605 14.8139L5.38346 14.0477ZM5.42578 14.2599C5.42582 14.3328 5.4115 14.4049 5.38365 14.4722L3.53554 13.7077C3.46299 13.8831 3.42569 14.0711 3.42578 14.2609L5.42578 14.2599ZM5.38365 14.4722C5.35581 14.5395 5.31497 14.6007 5.26349 14.6522L3.84862 13.2387C3.71447 13.373 3.60809 13.5323 3.53554 13.7077L5.38365 14.4722ZM5.26349 14.6522C5.212 14.7038 5.15087 14.7447 5.08358 14.7726L4.31735 12.9252C4.14204 12.9979 3.98276 13.1044 3.84862 13.2387L5.26349 14.6522ZM5.08358 14.7726C5.01629 14.8005 4.94416 14.8149 4.87132 14.8149L4.87038 12.8149C4.68059 12.815 4.49267 12.8525 4.31735 12.9252L5.08358 14.7726ZM4.87132 14.8149C4.79847 14.8149 4.72633 14.8006 4.65901 14.7728L5.42352 12.9247C5.24813 12.8521 5.06018 12.8148 4.87038 12.8149L4.87132 14.8149ZM4.65901 14.7728C4.5917 14.7449 4.53053 14.7041 4.47899 14.6526L5.89255 13.2377C5.75828 13.1036 5.5989 12.9972 5.42352 12.9247L4.65901 14.7728ZM4.47866 14.6523L5.41618 15.5898L6.83039 14.1756L5.89288 13.2381L4.47866 14.6523ZM6.83039 15.5898L9.27047 13.1497L7.85626 11.7355L5.41618 14.1756L6.83039 15.5898ZM9.27634 13.1438C9.22498 13.196 9.16378 13.2376 9.09629 13.266L8.31945 11.423C8.14361 11.4972 7.98419 11.6054 7.85039 11.7414L9.27634 13.1438ZM9.09629 13.266C9.02879 13.2945 8.95633 13.3093 8.88309 13.3096L8.87487 11.3096C8.68406 11.3104 8.49528 11.3489 8.31945 11.423L9.09629 13.266ZM8.88309 13.3096C8.80984 13.3099 8.73726 13.2957 8.66953 13.2678L9.43121 11.4185C9.25477 11.3458 9.06569 11.3088 8.87487 11.3096L8.88309 13.3096ZM8.66953 13.2678C8.60181 13.2399 8.54028 13.1988 8.48849 13.147L9.90287 11.733C9.76795 11.598 9.60765 11.4912 9.43121 11.4185L8.66953 13.2678ZM8.48849 13.147C8.4367 13.0952 8.39568 13.0337 8.36781 12.966L10.2173 12.2047C10.1446 12.0283 10.0378 11.8679 9.90287 11.733L8.48849 13.147ZM8.36781 12.966C8.33993 12.8982 8.32574 12.8257 8.32605 12.7524L10.326 12.7611C10.3269 12.5703 10.2899 12.3812 10.2173 12.2047L8.36781 12.966ZM8.32605 12.7524C8.32637 12.6792 8.34119 12.6067 8.36966 12.5392L10.2124 13.3165C10.2866 13.1407 10.3252 12.9519 10.326 12.7611L8.32605 12.7524ZM8.36966 12.5392C8.39812 12.4717 8.43967 12.4105 8.49191 12.3592L9.89396 13.7855C10.03 13.6517 10.1383 13.4923 10.2124 13.3165L8.36966 12.5392ZM8.99696 14.0529L8.9977 14.0531L9.38964 12.0919L9.38891 12.0917L8.99696 14.0529Z" fill="#6A6D74" mask="url(#path-6-inside-2_288_12418)"/>
</svg>
