<svg xmlns="http://www.w3.org/2000/svg" width="38.646" height="44.592" viewBox="0 0 38.646 44.592">
  <g id="balance_total" data-name="balance total" transform="translate(-3 -1021.36)">
    <path id="Trazado_27787" data-name="Trazado 27787" d="M20.085,1a.743.743,0,0,0-.517,1.277l1.788,1.788A19.316,19.316,0,0,0,14.8,41.142a.743.743,0,1,0,.581-1.367,17.829,17.829,0,0,1,5.8-34.219L19.568,7.17a.743.743,0,1,0,1.051,1.051l2.973-2.973a.743.743,0,0,0,0-1.054l-2.973-2.97A.743.743,0,0,0,20.085,1Zm9.4,4.474A.743.743,0,0,0,29.264,6.9a17.825,17.825,0,0,1-5.879,34.216l1.693-1.693a.743.743,0,1,0-1.051-1.051l-2.973,2.973a.743.743,0,0,0,0,1.051l2.973,2.973a.743.743,0,1,0,1.051-1.051l-1.713-1.713a19.316,19.316,0,0,0,6.48-37.076.887.887,0,0,0-.363-.061Zm-7.159,5.975A11.891,11.891,0,1,0,34.214,23.338,11.9,11.9,0,0,0,22.323,11.446Zm0,1.486a10.4,10.4,0,1,1-10.4,10.4A10.394,10.394,0,0,1,22.323,12.933ZM21.8,15.865v1.722a4.481,4.481,0,0,0-1.269.337,3.251,3.251,0,0,0-.967.642,2.762,2.762,0,0,0-.61.923,3.219,3.219,0,0,0-.206,1.173,2.99,2.99,0,0,0,.238,1.228,2.88,2.88,0,0,0,.7.938,4.73,4.73,0,0,0,1.115.711,10.194,10.194,0,0,0,1.483.525,7.609,7.609,0,0,1,1.051.424,2.818,2.818,0,0,1,.711.476,1.593,1.593,0,0,1,.4.554,1.679,1.679,0,0,1,.125.65,1.849,1.849,0,0,1-.154.766,1.6,1.6,0,0,1-.456.578,2.108,2.108,0,0,1-.72.369,3.412,3.412,0,0,1-.97.125,3.091,3.091,0,0,1-.784-.1,1.866,1.866,0,0,1-.711-.36,1.839,1.839,0,0,1-.514-.7,2.712,2.712,0,0,1-.195-1.1H18.253a3.761,3.761,0,0,0,.279,1.518,3.019,3.019,0,0,0,.74,1.042,3.355,3.355,0,0,0,1.083.633,5.388,5.388,0,0,0,1.257.29v1.5h1.434v-1.5a5.459,5.459,0,0,0,1.391-.314,3.288,3.288,0,0,0,1.051-.627,2.729,2.729,0,0,0,.671-.923,2.976,2.976,0,0,0,.235-1.211,3.036,3.036,0,0,0-.226-1.214,2.648,2.648,0,0,0-.671-.923,4.278,4.278,0,0,0-1.092-.7,10.04,10.04,0,0,0-1.5-.549,8.668,8.668,0,0,1-1.112-.43,3.393,3.393,0,0,1-.723-.476,1.531,1.531,0,0,1-.4-.549,1.935,1.935,0,0,1-.113-.679,2.316,2.316,0,0,1,.113-.743,1.54,1.54,0,0,1,.36-.572,1.7,1.7,0,0,1,.61-.375,2.462,2.462,0,0,1,.854-.134,1.912,1.912,0,0,1,.845.18,1.711,1.711,0,0,1,.618.5,2.222,2.222,0,0,1,.372.761,3.27,3.27,0,0,1,.134.961h1.806a3.691,3.691,0,0,0-.8-2.5A3.383,3.383,0,0,0,23.252,17.6v-1.73Z" transform="translate(0 1020.362)" fill="#17b8ab"/>
  </g>
</svg>
