<svg width="67" height="67" viewBox="0 0 67 67" fill="none" xmlns="http://www.w3.org/2000/svg">
<circle cx="30.7285" cy="36.0861" r="30" fill="#EFEDF9"/>
<path d="M18.0562 50.9622L18.099 47.2866C18.2833 44.1076 19.6922 41.1181 22.0376 38.9292C24.383 36.7403 27.4878 35.5173 30.7174 35.5102C33.9469 35.5031 37.0572 36.7124 39.4124 38.891C41.7677 41.0696 43.1901 44.0529 43.3888 47.2311L43.4005 50.9603L18.0562 50.9622ZM30.7449 37.439C28.018 37.4445 25.3952 38.4715 23.4074 40.3119C21.4196 42.1524 20.2154 44.6688 20.0387 47.3517L20.0095 49.0478H41.4549V47.2942C41.2658 44.6203 40.0554 42.1164 38.0679 40.2876C36.0804 38.4587 33.4635 37.4408 30.7449 37.439Z" fill="#5840D1"/>
<path d="M30.7285 33.0245C29.5433 33.0249 28.3847 32.6787 27.3991 32.0298C26.4134 31.3809 25.6451 30.4584 25.1913 29.3789C24.7375 28.2994 24.6186 27.1115 24.8496 25.9654C25.0805 24.8193 25.6511 23.7664 26.489 22.94C27.3269 22.1136 28.3945 21.5508 29.5569 21.3226C30.7193 21.0945 31.9241 21.2114 33.0191 21.6585C34.1141 22.1056 35.05 22.8628 35.7085 23.8344C36.367 24.8059 36.7185 25.9482 36.7185 27.1168C36.7169 28.6828 36.0854 30.1843 34.9625 31.2918C33.8395 32.3994 32.3169 33.0225 30.7285 33.0245ZM30.7285 23.1253C29.9273 23.1249 29.1439 23.3588 28.4776 23.7975C27.8112 24.2361 27.2918 24.8598 26.985 25.5896C26.6782 26.3194 26.5978 27.1225 26.754 27.8973C26.9103 28.6721 27.296 29.3838 27.8626 29.9424C28.4292 30.501 29.151 30.8814 29.9369 31.0354C30.7227 31.1895 31.5373 31.1102 32.2774 30.8077C33.0176 30.5052 33.6501 29.9931 34.095 29.3361C34.54 28.6791 34.7772 27.9067 34.7768 27.1168C34.7753 26.0586 34.3483 25.0443 33.5894 24.296C32.8305 23.5478 31.8017 23.1268 30.7285 23.1253Z" fill="#5840D1"/>
<path d="M49.9549 8.71265H59.8599V17.64C59.8599 18.1797 59.4219 18.6176 58.8823 18.6176H50.9344C50.3948 18.6176 49.9568 18.1797 49.9568 17.64V8.71265H49.9549Z" stroke="#FF5758" stroke-width="1.27102" stroke-miterlimit="10"/>
<path d="M52.2348 5.7937H57.5822C58.1219 5.7937 58.5598 6.23166 58.5598 6.7713V8.71084H51.2572V6.7713C51.2572 6.23166 51.6952 5.7937 52.2348 5.7937Z" stroke="#FF5758" stroke-width="1.27102" stroke-miterlimit="10"/>
<path d="M48.3301 8.71265H61.4846" stroke="#FF5758" stroke-width="1.27102" stroke-linecap="round" stroke-linejoin="round"/>
<path d="M53.439 11.5829V15.8296" stroke="#FF5758" stroke-width="1.27102" stroke-linecap="round" stroke-linejoin="round"/>
<path d="M56.3777 11.5829V15.8296" stroke="#FF5758" stroke-width="1.27102" stroke-linecap="round" stroke-linejoin="round"/>
<circle cx="54.9085" cy="12.2056" r="12" fill="#FDC9C9"/>
<path d="M60.2101 6.90405L49.6069 17.5073" stroke="#FF5758" stroke-width="1.5" stroke-linecap="round"/>
<path d="M60.1168 17.599L49.7002 6.81229" stroke="#FF5758" stroke-width="1.5" stroke-linecap="round"/>
</svg>
