<svg xmlns="http://www.w3.org/2000/svg" width="58.923" height="57.17" viewBox="0 0 58.923 57.17">
  <g id="Documentaci칩n_Repetida" data-name="Documentaci칩n Repetida" transform="translate(-1379.1 -544)">
    <g id="Grupo_45750" data-name="Grupo 45750" transform="translate(1379.1 544)">
      <path id="document" d="M44.109,17.55,28.929,2.371A1.264,1.264,0,0,0,28.035,2H11.59A7.6,7.6,0,0,0,4,9.59V45.009a7.6,7.6,0,0,0,7.59,7.59h25.3a7.6,7.6,0,0,0,7.59-7.59V18.445A1.264,1.264,0,0,0,44.109,17.55ZM29.3,6.319,40.161,17.18H32.672A3.375,3.375,0,0,1,29.3,13.807Zm12.65,38.69a5.066,5.066,0,0,1-5.06,5.06H11.59a5.066,5.066,0,0,1-5.06-5.06V9.59a5.066,5.066,0,0,1,5.06-5.06H26.77v9.277a5.91,5.91,0,0,0,5.9,5.9H41.95Z" transform="translate(-4 -2)" fill="#6a96ff"/>
      <g id="Grupo_45749" data-name="Grupo 45749" transform="translate(20.24 29.336)">
        <rect id="Rect치ngulo_6114" data-name="Rect치ngulo 6114" width="37.475" height="26.767" rx="2" transform="translate(0.132 0.644)" fill="#fff"/>
        <g id="email" transform="translate(0 0)">
          <path id="Trazado_28015" data-name="Trazado 28015" d="M35.7,38.664H7.792a5.246,5.246,0,0,1-5.212-5.28V16.46a5.246,5.246,0,0,1,5.212-5.28H35.7a5.246,5.246,0,0,1,5.212,5.28V33.384A5.246,5.246,0,0,1,35.7,38.664ZM7.792,12.5a3.935,3.935,0,0,0-3.909,3.96V33.384a3.935,3.935,0,0,0,3.909,3.96H35.7a3.935,3.935,0,0,0,3.909-3.96V16.46A3.935,3.935,0,0,0,35.7,12.5Z" transform="translate(-2.58 -11.18)" fill="#6a96ff" stroke="#6a96ff" stroke-width="0.7"/>
          <path id="Trazado_28016" data-name="Trazado 28016" d="M21.99,30.39a5.164,5.164,0,0,1-3.139-1.043L3.638,17.671a.664.664,0,0,1,.08-1.2.645.645,0,0,1,.688.148l15.226,11.65a3.866,3.866,0,0,0,4.715,0l15.226-11.65a.644.644,0,0,1,.66-.105.664.664,0,0,1,.128,1.155L25.129,29.347A5.164,5.164,0,0,1,21.99,30.39Z" transform="translate(-2.824 -12.965)" fill="#6a96ff" stroke="#6a96ff" stroke-width="0.7"/>
          <path id="Trazado_28017" data-name="Trazado 28017" d="M3.826,42.378a.652.652,0,0,1-.6-.426.666.666,0,0,1,.171-.723L15.373,30.4a.649.649,0,0,1,.925.059.67.67,0,0,1-.059.937L4.262,42.213A.646.646,0,0,1,3.826,42.378Zm36.251,0a.646.646,0,0,1-.436-.165L27.663,31.395a.665.665,0,0,1-.232-.638.657.657,0,0,1,.447-.507.645.645,0,0,1,.652.162L40.507,41.229a.666.666,0,0,1,.052.931A.647.647,0,0,1,40.077,42.378Z" transform="translate(-2.785 -17.653)" fill="#6a96ff" stroke="#6a96ff" stroke-width="0.7"/>
        </g>
      </g>
    </g>
  </g>
</svg>
