<svg xmlns="http://www.w3.org/2000/svg" width="14.901" height="12.917" viewBox="0 0 14.901 12.917">
  <path id="download_1_" data-name="download (1)" d="M3.743.793A1.5,1.5,0,0,0,2.251,2.286V2.78H1.756A1.5,1.5,0,0,0,.264,4.272v7.944A1.5,1.5,0,0,0,1.756,13.71H13.675a1.5,1.5,0,0,0,1.488-1.493V7.253a.5.5,0,1,0-.989,0v4.964a.488.488,0,0,1-.5.5H1.756a.489.489,0,0,1-.5-.5V4.272a.489.489,0,0,1,.5-.5H13.675a.488.488,0,0,1,.5.5v.993a.5.5,0,1,0,.989,0V4.272A1.5,1.5,0,0,0,13.675,2.78H13.18V2.286A1.5,1.5,0,0,0,11.687.793Zm0,.993h7.944a.489.489,0,0,1,.5.5V2.78H3.244V2.286A.489.489,0,0,1,3.743,1.786ZM7.707,4.76a.5.5,0,0,0-.488.505v4.763L6.079,8.888a.5.5,0,1,0-.7.7l1.987,1.988a.5.5,0,0,0,.7,0l1.988-1.988a.5.5,0,1,0-.7-.7L8.212,10.025V5.265A.5.5,0,0,0,7.707,4.76Z" transform="translate(-0.264 -0.793)" fill="#fff" fill-rule="evenodd"/>
</svg>
