<?xml version="1.0" standalone="no"?>
<!DOCTYPE svg PUBLIC "-//W3C//DTD SVG 20010904//EN"
 "http://www.w3.org/TR/2001/REC-SVG-20010904/DTD/svg10.dtd">
<svg version="1.0" xmlns="http://www.w3.org/2000/svg"
 width="200.000000pt" height="200.000000pt" viewBox="0 0 200.000000 200.000000"
 preserveAspectRatio="xMidYMid meet">

<g transform="translate(0.000000,200.000000) scale(0.100000,-0.100000)"
fill="#17b8ab" stroke="none">
<path d="M1007 1983 c-4 -3 -7 -75 -7 -159 l0 -153 58 -6 c274 -32 486 -199
576 -454 27 -78 30 -97 30 -211 0 -111 -4 -134 -29 -210 -64 -187 -217 -346
-397 -411 -36 -14 -58 -27 -58 -37 0 -37 74 -292 85 -292 21 0 118 36 175 65
354 179 569 551 547 944 -8 137 -36 242 -96 366 -149 303 -416 500 -748 550
-111 17 -127 18 -136 8z"/>
<path d="M633 1916 c-131 -54 -128 -50 -83 -126 20 -36 56 -98 79 -137 l42
-73 37 19 c20 10 56 24 80 31 23 7 42 15 42 18 0 4 -66 251 -76 285 -8 24 -28
21 -121 -17z"/>
<path d="M248 1634 c-58 -73 -98 -129 -98 -137 0 -2 62 -40 137 -83 l136 -78
21 29 c12 16 36 46 55 68 l35 38 -116 116 -115 115 -55 -68z"/>
<path d="M1080 1080 c-124 -121 -229 -220 -233 -220 -4 0 -41 29 -83 65 -61
54 -78 64 -93 56 -25 -14 -81 -79 -81 -94 0 -20 233 -247 254 -247 18 0 576
545 576 562 0 16 -83 98 -99 97 -9 0 -117 -99 -241 -219z"/>
<path d="M45 1238 c-11 -33 -25 -137 -25 -185 l0 -53 159 0 158 0 6 68 c4 37
8 76 9 86 3 17 -15 24 -137 57 -158 43 -164 44 -170 27z"/>
<path d="M208 786 c-81 -23 -150 -44 -153 -47 -9 -10 68 -202 91 -228 5 -6
274 150 274 159 0 7 -10 31 -56 136 -9 20 -11 20 -156 -20z"/>
<path d="M419 414 l-114 -115 40 -35 c48 -42 151 -114 162 -114 9 0 167 270
161 274 -2 1 -16 10 -31 20 -16 10 -45 33 -66 51 l-37 34 -115 -115z"/>
<path d="M826 339 c-12 -34 -76 -277 -76 -286 0 -12 82 -29 183 -39 l67 -7 0
161 0 160 -37 6 c-120 18 -133 18 -137 5z"/>
</g>
</svg>
