<svg xmlns="http://www.w3.org/2000/svg" width="60.048" height="43.054" viewBox="0 0 60.048 43.054">
  <g id="Marketing" transform="translate(-2.58 -11.18)">
    <path id="Trazado_28015" data-name="Trazado 28015" d="M54.464,54.234H10.744A8.218,8.218,0,0,1,2.58,45.962V19.452a8.218,8.218,0,0,1,8.164-8.272H54.464a8.218,8.218,0,0,1,8.164,8.272V45.962A8.218,8.218,0,0,1,54.464,54.234ZM10.744,13.248a6.164,6.164,0,0,0-6.123,6.2V45.962a6.164,6.164,0,0,0,6.123,6.2H54.464a6.164,6.164,0,0,0,6.123-6.2V19.452a6.164,6.164,0,0,0-6.123-6.2Z" transform="translate(0 0)" fill="#6a96ff"/>
    <path id="Trazado_28016" data-name="Trazado 28016" d="M32.579,38.3a8.089,8.089,0,0,1-4.917-1.634L3.831,18.374A1.04,1.04,0,0,1,3.956,16.5a1.01,1.01,0,0,1,1.078.232L28.886,34.979a6.056,6.056,0,0,0,7.386,0L60.124,16.73a1.009,1.009,0,0,1,1.033-.165,1.04,1.04,0,0,1,.2,1.809L37.5,36.665A8.089,8.089,0,0,1,32.579,38.3Z" transform="translate(0.024 0.178)" fill="#6a96ff"/>
    <path id="Trazado_28017" data-name="Trazado 28017" d="M4.19,49.266a1.021,1.021,0,0,1-.941-.667,1.043,1.043,0,0,1,.268-1.132L22.279,30.5a1.017,1.017,0,0,1,1.449.093,1.05,1.05,0,0,1-.092,1.468L4.874,49.007A1.012,1.012,0,0,1,4.19,49.266Zm56.787,0a1.012,1.012,0,0,1-.684-.258L41.531,32.06a1.041,1.041,0,0,1-.364-1,1.029,1.029,0,0,1,.7-.795,1.011,1.011,0,0,1,1.021.253L61.65,47.466a1.044,1.044,0,0,1,.082,1.458A1.014,1.014,0,0,1,60.977,49.266Z" transform="translate(0.02 0.647)" fill="#6a96ff"/>
  </g>
</svg>
