<svg xmlns="http://www.w3.org/2000/svg" width="36.4" height="41.845" viewBox="0 0 36.4 41.845">
  <g id="Grupo_63130" data-name="Grupo 63130" transform="translate(-1512.471 -218.63)">
    <g id="pos-terminal" transform="translate(1503.711 220.525)">
      <path id="Trazado_58422" data-name="Trazado 58422" d="M31.408,12H14.657a1.9,1.9,0,0,0-1.9,1.9v7.59a1.9,1.9,0,0,0,1.9,1.9h16.75a1.9,1.9,0,0,0,1.9-1.9V13.9a1.9,1.9,0,0,0-1.9-1.9Zm.632,9.487a.633.633,0,0,1-.632.632H14.657a.633.633,0,0,1-.632-.632V13.9a.633.633,0,0,1,.632-.632h16.75a.633.633,0,0,1,.632.632ZM18.414,25.929H15.075a.632.632,0,0,0-.632.632V29.9a.632.632,0,0,0,.632.632h3.34a.632.632,0,0,0,.632-.632V26.561a.632.632,0,0,0-.632-.632Zm-.632,3.339H15.707V27.194h2.075ZM24.7,25.929h-3.34a.632.632,0,0,0-.632.632V29.9a.632.632,0,0,0,.632.632H24.7a.632.632,0,0,0,.632-.632V26.561A.632.632,0,0,0,24.7,25.929Zm-.632,3.339H22V27.194H24.07Zm6.921-3.339h-3.34a.632.632,0,0,0-.632.632V29.9a.632.632,0,0,0,.632.632h3.34a.632.632,0,0,0,.632-.632V26.561A.632.632,0,0,0,30.991,25.929Zm-.632,3.339H28.284V27.194h2.075ZM18.414,32.444H15.075a.632.632,0,0,0-.632.632v3.339a.632.632,0,0,0,.632.632h3.34a.632.632,0,0,0,.632-.632v-3.34a.632.632,0,0,0-.632-.632Zm-.632,3.339H15.707V33.708h2.075Zm6.921-3.34h-3.34a.632.632,0,0,0-.632.632v3.34a.632.632,0,0,0,.632.632H24.7a.632.632,0,0,0,.632-.632v-3.34A.632.632,0,0,0,24.7,32.443Zm-.632,3.34H22V33.708H24.07Zm6.921-3.34h-3.34a.632.632,0,0,0-.632.632v3.34a.632.632,0,0,0,.632.632h3.34a.632.632,0,0,0,.632-.632v-3.34A.632.632,0,0,0,30.991,32.443Zm-.632,3.34H28.284V33.708h2.075Z" transform="translate(-1.47 -3.675)" fill="#17b8ab"/>
      <path id="Trazado_58423" data-name="Trazado 58423" d="M36.261,7.136h-1.9V5.162A3.166,3.166,0,0,0,31.2,2H11.922A3.166,3.166,0,0,0,8.76,5.162V36.787a3.166,3.166,0,0,0,3.162,3.162H31.2a3.166,3.166,0,0,0,3.162-3.162V34.814h1.9a1.9,1.9,0,0,0,1.9-1.9V9.033a1.9,1.9,0,0,0-1.9-1.9ZM14.574,38.684V37.8a.633.633,0,0,1,.632-.632H27.919a.633.633,0,0,1,.632.632v.883Zm18.526-1.9a1.9,1.9,0,0,1-1.9,1.9H29.816V37.8a1.9,1.9,0,0,0-1.9-1.9H15.206a1.9,1.9,0,0,0-1.9,1.9v.883H11.922a1.9,1.9,0,0,1-1.9-1.9V5.162a1.9,1.9,0,0,1,1.9-1.9H31.2a1.9,1.9,0,0,1,1.9,1.9Zm3.793-3.871a.633.633,0,0,1-.632.632h-1.9V8.4h1.9a.633.633,0,0,1,.632.632Z" fill="#17b8ab"/>
      <path id="Trazado_58424" data-name="Trazado 58424" d="M18.692,8.165H31.269a.632.632,0,1,0,0-1.265H18.692a.632.632,0,0,0,0,1.265Z" transform="translate(-3.418 -1.801)" fill="#17b8ab"/>
    </g>
    <g id="Grupo_63129" data-name="Grupo 63129" transform="translate(1.541 1.457)">
      <g id="Grupo_63128" data-name="Grupo 63128" transform="translate(703.406 14.172)">
        <g id="Grupo_62977" data-name="Grupo 62977" transform="translate(827.182 203.001)">
          <circle id="Elipse_18442" data-name="Elipse 18442" cx="8.068" cy="8.068" r="8.068" transform="translate(0.303 0.605)" fill="#fff"/>
          <g id="money" transform="translate(0 0)">
            <path id="Trazado_27787" data-name="Trazado 27787" d="M18.8,11.446a8.371,8.371,0,1,0,8.371,8.371A8.379,8.379,0,0,0,18.8,11.446Zm0,1.046a7.324,7.324,0,1,1-7.324,7.324A7.316,7.316,0,0,1,18.8,12.493Zm-.37,2.064v1.212a3.154,3.154,0,0,0-.893.237,2.289,2.289,0,0,0-.681.452,1.944,1.944,0,0,0-.429.65,2.266,2.266,0,0,0-.145.826,2.105,2.105,0,0,0,.168.864,2.028,2.028,0,0,0,.493.66,3.33,3.33,0,0,0,.785.5,7.176,7.176,0,0,0,1.044.37,5.356,5.356,0,0,1,.74.3,1.983,1.983,0,0,1,.5.335,1.122,1.122,0,0,1,.282.39,1.182,1.182,0,0,1,.088.458,1.3,1.3,0,0,1-.108.54,1.127,1.127,0,0,1-.321.407,1.484,1.484,0,0,1-.507.26,2.4,2.4,0,0,1-.683.088,2.176,2.176,0,0,1-.552-.072,1.313,1.313,0,0,1-.5-.253,1.294,1.294,0,0,1-.362-.49,1.909,1.909,0,0,1-.137-.777H15.938a2.648,2.648,0,0,0,.2,1.069,2.126,2.126,0,0,0,.521.734,2.362,2.362,0,0,0,.762.446,3.793,3.793,0,0,0,.885.2V25.02h1.01V23.964a3.843,3.843,0,0,0,.979-.221,2.315,2.315,0,0,0,.74-.441,1.921,1.921,0,0,0,.472-.65,2.1,2.1,0,0,0,.166-.852,2.137,2.137,0,0,0-.159-.854,1.864,1.864,0,0,0-.472-.65,3.012,3.012,0,0,0-.768-.49,7.067,7.067,0,0,0-1.052-.386,6.1,6.1,0,0,1-.783-.3,2.389,2.389,0,0,1-.509-.335,1.078,1.078,0,0,1-.282-.386,1.362,1.362,0,0,1-.08-.478,1.631,1.631,0,0,1,.08-.523,1.084,1.084,0,0,1,.253-.4,1.194,1.194,0,0,1,.429-.264,1.733,1.733,0,0,1,.6-.094,1.346,1.346,0,0,1,.595.127,1.2,1.2,0,0,1,.435.352,1.564,1.564,0,0,1,.262.535,2.3,2.3,0,0,1,.094.676h1.271a2.6,2.6,0,0,0-.56-1.762,2.381,2.381,0,0,0-1.565-.787V14.557Z" transform="translate(-10.432 -11.446)" fill="#17b8ab"/>
          </g>
        </g>
      </g>
    </g>
  </g>
</svg>
