<svg xmlns="http://www.w3.org/2000/svg" width="29.398" height="37.949" viewBox="0 0 29.398 37.949">
  <g id="pos-terminal" transform="translate(-8.76 -2)">
    <path id="Trazado_58422" data-name="Trazado 58422" d="M31.408,12H14.657a1.9,1.9,0,0,0-1.9,1.9v7.59a1.9,1.9,0,0,0,1.9,1.9h16.75a1.9,1.9,0,0,0,1.9-1.9V13.9a1.9,1.9,0,0,0-1.9-1.9Zm.632,9.487a.633.633,0,0,1-.632.632H14.657a.633.633,0,0,1-.632-.632V13.9a.633.633,0,0,1,.632-.632h16.75a.633.633,0,0,1,.632.632ZM18.414,25.929H15.075a.632.632,0,0,0-.632.632V29.9a.632.632,0,0,0,.632.632h3.34a.632.632,0,0,0,.632-.632V26.561a.632.632,0,0,0-.632-.632Zm-.632,3.339H15.707V27.194h2.075ZM24.7,25.929h-3.34a.632.632,0,0,0-.632.632V29.9a.632.632,0,0,0,.632.632H24.7a.632.632,0,0,0,.632-.632V26.561A.632.632,0,0,0,24.7,25.929Zm-.632,3.339H22V27.194H24.07Zm6.921-3.339h-3.34a.632.632,0,0,0-.632.632V29.9a.632.632,0,0,0,.632.632h3.34a.632.632,0,0,0,.632-.632V26.561A.632.632,0,0,0,30.991,25.929Zm-.632,3.339H28.284V27.194h2.075ZM18.414,32.444H15.075a.632.632,0,0,0-.632.632v3.339a.632.632,0,0,0,.632.632h3.34a.632.632,0,0,0,.632-.632v-3.34a.632.632,0,0,0-.632-.632Zm-.632,3.339H15.707V33.708h2.075Zm6.921-3.34h-3.34a.632.632,0,0,0-.632.632v3.34a.632.632,0,0,0,.632.632H24.7a.632.632,0,0,0,.632-.632v-3.34A.632.632,0,0,0,24.7,32.443Zm-.632,3.34H22V33.708H24.07Zm6.921-3.34h-3.34a.632.632,0,0,0-.632.632v3.34a.632.632,0,0,0,.632.632h3.34a.632.632,0,0,0,.632-.632v-3.34A.632.632,0,0,0,30.991,32.443Zm-.632,3.34H28.284V33.708h2.075Z" transform="translate(-1.47 -3.675)" fill="#17b8ab"/>
    <path id="Trazado_58423" data-name="Trazado 58423" d="M36.261,7.136h-1.9V5.162A3.166,3.166,0,0,0,31.2,2H11.922A3.166,3.166,0,0,0,8.76,5.162V36.787a3.166,3.166,0,0,0,3.162,3.162H31.2a3.166,3.166,0,0,0,3.162-3.162V34.814h1.9a1.9,1.9,0,0,0,1.9-1.9V9.033a1.9,1.9,0,0,0-1.9-1.9ZM14.574,38.684V37.8a.633.633,0,0,1,.632-.632H27.919a.633.633,0,0,1,.632.632v.883Zm18.526-1.9a1.9,1.9,0,0,1-1.9,1.9H29.816V37.8a1.9,1.9,0,0,0-1.9-1.9H15.206a1.9,1.9,0,0,0-1.9,1.9v.883H11.922a1.9,1.9,0,0,1-1.9-1.9V5.162a1.9,1.9,0,0,1,1.9-1.9H31.2a1.9,1.9,0,0,1,1.9,1.9Zm3.793-3.871a.633.633,0,0,1-.632.632h-1.9V8.4h1.9a.633.633,0,0,1,.632.632Z" fill="#17b8ab"/>
    <path id="Trazado_58424" data-name="Trazado 58424" d="M18.692,8.165H31.269a.632.632,0,1,0,0-1.265H18.692a.632.632,0,0,0,0,1.265Z" transform="translate(-3.418 -1.801)" fill="#17b8ab"/>
  </g>
</svg>
