<svg xmlns="http://www.w3.org/2000/svg" width="37.594" height="43.339" viewBox="0 0 37.594 43.339">
  <g id="total_clientes_icon" data-name="total clientes icon" transform="translate(-428.969 -223.626)">
    <g id="money" transform="translate(429.094 223.751)">
      <path id="Trazado_27787" data-name="Trazado 27787" d="M19.509,1a.718.718,0,0,0-.5,1.234L20.738,3.96A18.665,18.665,0,0,0,14.4,39.79a.718.718,0,1,0,.561-1.321A17.229,17.229,0,0,1,20.57,5.4l-1.56,1.56a.718.718,0,1,0,1.016,1.016L22.9,5.105a.718.718,0,0,0,0-1.018l-2.873-2.87A.718.718,0,0,0,19.509,1ZM28.59,5.321A.718.718,0,0,0,28.38,6.7,17.224,17.224,0,0,1,22.7,39.767l1.635-1.635a.718.718,0,1,0-1.016-1.016l-2.873,2.873a.718.718,0,0,0,0,1.016l2.873,2.873a.718.718,0,1,0,1.016-1.016l-1.655-1.655A18.666,18.666,0,0,0,28.941,5.38a.857.857,0,0,0-.351-.059Z" transform="translate(-3 -0.998)" fill="#17b8ab" stroke="#17b8ab" stroke-width="0.25"/>
    </g>
    <g id="users_1_" data-name="users (1)" transform="translate(435.857 233.042)">
      <rect id="Rectángulo_5686" data-name="Rectángulo 5686" width="23.975" height="23.975" transform="translate(0 0)" fill="none"/>
      <ellipse id="Elipse_16911" data-name="Elipse 16911" cx="4.995" cy="4.995" rx="4.995" ry="4.995" transform="translate(3.33 4.662)" fill="none" stroke="#17b8ab" stroke-linecap="round" stroke-linejoin="round" stroke-width="1.5"/>
      <path id="Trazado_27606" data-name="Trazado 27606" d="M28.747,56.165a4.756,4.756,0,1,1,1.29,9.334M16,68.919a8.05,8.05,0,0,1,13.171,0m.871-3.42a8.039,8.039,0,0,1,6.585,3.42" transform="translate(-14.145 -50.579)" fill="none" stroke="#17b8ab" stroke-linecap="round" stroke-linejoin="round" stroke-width="1.5"/>
    </g>
  </g>
</svg>
