<svg xmlns="http://www.w3.org/2000/svg" width="37.754" height="37.752" viewBox="0 0 37.754 37.752">
  <g id="Ultima_sesión" data-name="Ultima sesión" transform="translate(-6.996 -7)">
    <path id="Trazado_27857" data-name="Trazado 27857" d="M25.875,44.752A18.876,18.876,0,0,1,13.44,11.674a.757.757,0,0,1,1,1.14,17.366,17.366,0,1,0,11.439-4.3.755.755,0,1,1,0-1.51,18.876,18.876,0,0,1,0,37.752Z" transform="translate(0)" fill="#17b8ab"/>
    <path id="Trazado_27858" data-name="Trazado 27858" d="M16.442,19.6a.755.755,0,0,1-.755-.68l-.5-5.187a.755.755,0,0,1,1.5-.143l.506,5.157a.755.755,0,0,1-.68.823Z" transform="translate(-2.006 -1.447)" fill="#17b8ab"/>
    <path id="Trazado_27859" data-name="Trazado 27859" d="M9.085,14.488a.755.755,0,1,1,0-1.51l5.187-.068a.755.755,0,0,1,0,1.51l-5.18.068ZM26.2,28.079a.755.755,0,0,1-.755-.755V16.27a.755.755,0,0,1,1.51,0V27.324A.755.755,0,0,1,26.2,28.079Z" transform="translate(-0.327 -1.448)" fill="#17b8ab"/>
    <path id="Trazado_27860" data-name="Trazado 27860" d="M39.358,36.451a.755.755,0,0,1-.347-.091l-7.6-3.934a.756.756,0,1,1,.695-1.344l7.6,3.941a.755.755,0,0,1-.347,1.427Z" transform="translate(-5.88 -5.879)" fill="#17b8ab"/>
  </g>
</svg>
