<svg width="61" height="61" viewBox="0 0 61 61" fill="none" xmlns="http://www.w3.org/2000/svg">
<circle cx="30.0907" cy="30.7852" r="30" fill="#EFEDF9"/>
<path d="M27.5288 35.7367C27.583 35.7435 27.6372 35.757 27.6981 35.7638C27.7591 35.7706 27.8133 35.7773 27.8675 35.7841C27.9217 35.7909 27.9826 35.7977 28.0368 35.8044C28.152 35.818 28.2603 35.8248 28.3755 35.8315C28.4297 35.8315 28.4906 35.8315 28.5448 35.8315C28.599 35.8315 28.66 35.8315 28.7142 35.8315H28.8835C28.9377 35.8315 28.9986 35.8315 29.0528 35.8315C29.107 35.8315 29.168 35.8315 29.2222 35.8248C29.4389 35.8112 29.6489 35.7841 29.8657 35.7502C32.2703 35.3574 34.2956 33.7453 35.2236 31.4897L34.6072 30.8733C34.3701 30.6362 34.0992 30.4533 33.7943 30.3178L33.7672 30.3043C33.7672 30.3043 33.7063 30.2772 33.6724 30.2636C33.3812 30.1485 33.0763 30.0875 32.7648 30.0808H32.6022C32.1958 31.3203 31.2272 32.2957 29.9876 32.6954C29.5405 32.8444 29.0732 32.9121 28.6058 32.8986H28.5922C28.5448 32.8986 28.4906 32.8986 28.4432 32.8918C28.4229 32.8918 28.4093 32.8918 28.389 32.8918C28.3552 32.8918 28.3213 32.8918 28.2806 32.885C28.2265 32.885 28.179 32.8782 28.1249 32.8647C28.0639 32.8579 27.9962 32.8444 27.9352 32.8308H27.9217C27.8742 32.8173 27.8336 32.8105 27.7862 32.797C27.7523 32.797 27.7184 32.7834 27.6846 32.7766C27.6304 32.7631 27.583 32.7495 27.5356 32.736C27.4746 32.7157 27.4136 32.7021 27.3527 32.6818C27.312 32.6683 27.2714 32.6547 27.2307 32.6344C27.1969 32.6209 27.163 32.6073 27.1224 32.5938C27.1088 32.5938 27.0953 32.587 27.0817 32.5802C27.0343 32.5599 26.9937 32.5396 26.9463 32.5192C26.8921 32.4922 26.8447 32.4651 26.7905 32.4447C26.7363 32.4244 26.6889 32.3906 26.6414 32.3635L26.6143 32.3499C26.5534 32.316 26.4992 32.2822 26.445 32.2415C26.3976 32.2077 26.3434 32.1738 26.3028 32.1399C26.1267 32.0112 25.9573 31.869 25.8083 31.72L20.0101 25.8947C18.4116 24.2961 18.4116 21.7018 20.0101 20.1033C21.6087 18.5047 24.203 18.5047 25.8015 20.1033L30.3737 24.6754C30.6853 24.5874 30.9969 24.5197 31.3152 24.4655C31.9993 24.3503 32.697 24.3232 33.3879 24.3842C33.476 24.3842 33.564 24.3977 33.6521 24.4113C33.8688 24.4384 34.0788 24.4655 34.2888 24.5061C34.1059 24.2623 33.9027 24.0387 33.686 23.822L27.881 18.0238C25.1648 15.2466 20.7078 15.1992 17.9306 17.9154C15.1535 20.6316 15.106 25.0886 17.8222 27.8658C17.8561 27.8997 17.89 27.9403 17.9306 27.9742L23.7288 33.7724C24.4129 34.4565 25.2325 34.9916 26.1334 35.3438C26.2689 35.398 26.3976 35.4454 26.5398 35.4861C26.6347 35.5132 26.7227 35.5403 26.8176 35.5674C26.8853 35.5877 26.953 35.6012 27.0208 35.6215C27.1359 35.6486 27.2443 35.6757 27.3594 35.6961C27.4136 35.7028 27.4746 35.7164 27.5288 35.7299V35.7367Z" fill="#5441C9"/>
<path d="M43.4607 33.603L37.6625 27.8048C37.4458 27.588 37.2155 27.3916 36.9784 27.2019C36.4568 26.7955 35.8743 26.4704 35.2579 26.2265C34.6889 26.003 34.0928 25.854 33.49 25.7863C33.4223 25.7795 33.3545 25.7727 33.28 25.7659C30.2251 25.5018 27.3464 27.2561 26.1813 30.0943L26.7977 30.7107C27.326 31.239 28.0508 31.5235 28.7959 31.4964C29.5071 29.3424 31.8237 28.1773 33.9777 28.8886C34.0454 28.9089 34.1199 28.936 34.1877 28.9631C34.2419 28.9834 34.296 29.0037 34.3502 29.0308C34.8108 29.234 35.2308 29.5185 35.583 29.8775L41.3812 35.6757C42.9798 37.2742 42.9798 39.8685 41.3812 41.4671C39.7826 43.0657 37.1884 43.0657 35.5898 41.4671L31.0176 36.8949C29.7442 37.2539 28.4098 37.3149 27.1093 37.0643C27.2922 37.3081 27.4954 37.5316 27.7054 37.7484L33.5035 43.5466C36.2197 46.3237 40.6768 46.3712 43.4539 43.655C46.2311 40.9388 46.2785 36.4817 43.5623 33.7046C43.5284 33.6707 43.4946 33.6301 43.4539 33.5962L43.4607 33.603Z" fill="#5441C9"/>
</svg>
