<svg width="61" height="61" viewBox="0 0 61 61" fill="none" xmlns="http://www.w3.org/2000/svg">
<circle cx="30.656" cy="30.5754" r="30" fill="#EFEDF9"/>
<path d="M45.6223 27.5938H40.2017L34.511 18.1008C34.3727 17.8789 34.1528 17.7202 33.8986 17.6589C33.6444 17.5975 33.3763 17.6384 33.152 17.7728C32.9277 17.9072 32.7651 18.1243 32.6993 18.3773C32.6335 18.6304 32.6697 18.8991 32.8 19.1258L37.8797 27.6017H23.4391L28.5187 19.1258C28.5888 19.0134 28.6358 18.8881 28.6569 18.7574C28.6781 18.6266 28.6729 18.4929 28.6419 18.3642C28.6108 18.2354 28.5544 18.1141 28.4759 18.0074C28.3974 17.9007 28.2985 17.8106 28.1849 17.7426C28.0712 17.6745 27.9452 17.6297 27.8141 17.6109C27.683 17.5921 27.5494 17.5995 27.4212 17.6329C27.293 17.6662 27.1727 17.7248 27.0674 17.8051C26.9621 17.8855 26.8738 17.986 26.8078 18.1008L21.1171 27.5938H15.6905C15.426 27.5938 15.1723 27.6989 14.9852 27.886C14.7982 28.073 14.6931 28.3267 14.6931 28.5912C14.6931 28.8557 14.7982 29.1094 14.9852 29.2965C15.1723 29.4835 15.426 29.5886 15.6905 29.5886H16.9343L20.305 41.382C20.4868 42.0053 20.8653 42.5532 21.3839 42.9439C21.9025 43.3347 22.5335 43.5473 23.1828 43.5502H38.134C38.7833 43.5482 39.4144 43.3358 39.9329 42.9449C40.4514 42.554 40.8292 42.0056 41.0099 41.382L44.3825 29.5847H45.6223C45.8869 29.5847 46.1405 29.4796 46.3276 29.2925C46.5146 29.1055 46.6197 28.8518 46.6197 28.5873C46.6197 28.3228 46.5146 28.0691 46.3276 27.882C46.1405 27.695 45.8869 27.5899 45.6223 27.5899V27.5938ZM39.09 40.8399C39.0293 41.0473 38.9032 41.2295 38.7306 41.3595C38.558 41.4895 38.3481 41.5603 38.132 41.5613H23.1809C22.9648 41.5603 22.7548 41.4895 22.5822 41.3595C22.4096 41.2295 22.2836 41.0473 22.2229 40.8399L19.0079 29.5906H42.3049L39.09 40.8399Z" fill="#5441C9"/>
</svg>
