<svg width="67" height="67" viewBox="0 0 67 67" fill="none" xmlns="http://www.w3.org/2000/svg">
<circle cx="30.6559" cy="36.5751" r="30" fill="#EFEDF9"/>
<path d="M45.6222 33.5936H40.2016L34.5109 24.1006C34.3726 23.8787 34.1526 23.72 33.8985 23.6586C33.6443 23.5973 33.3762 23.6382 33.1519 23.7726C32.9276 23.9069 32.765 24.124 32.6992 24.3771C32.6334 24.6301 32.6695 24.8989 32.7999 25.1255L37.8796 33.6015H23.439L28.5186 25.1255C28.5887 25.0131 28.6356 24.8879 28.6568 24.7571C28.6779 24.6264 28.6728 24.4927 28.6417 24.3639C28.6107 24.2352 28.5542 24.1139 28.4758 24.0071C28.3973 23.9004 28.2984 23.8104 28.1848 23.7423C28.0711 23.6742 27.9451 23.6295 27.814 23.6107C27.6828 23.5918 27.5493 23.5993 27.4211 23.6327C27.2929 23.666 27.1726 23.7245 27.0673 23.8049C26.962 23.8852 26.8737 23.9857 26.8076 24.1006L21.117 33.5936H15.6904C15.4259 33.5936 15.1722 33.6987 14.9851 33.8857C14.7981 34.0728 14.693 34.3264 14.693 34.591C14.693 34.8555 14.7981 35.1092 14.9851 35.2962C15.1722 35.4833 15.4259 35.5884 15.6904 35.5884H16.9342L20.3048 47.3817C20.4867 48.0051 20.8652 48.5529 21.3838 48.9437C21.9024 49.3344 22.5334 49.5471 23.1827 49.55H38.1338C38.7831 49.5479 39.4143 49.3355 39.9328 48.9447C40.4512 48.5538 40.8291 48.0054 41.0097 47.3817L44.3824 35.5844H45.6222C45.8867 35.5844 46.1404 35.4794 46.3275 35.2923C46.5145 35.1053 46.6196 34.8516 46.6196 34.587C46.6196 34.3225 46.5145 34.0688 46.3275 33.8818C46.1404 33.6947 45.8867 33.5896 45.6222 33.5896V33.5936ZM39.0898 46.8397C39.0291 47.047 38.9031 47.2293 38.7305 47.3593C38.5579 47.4893 38.3479 47.56 38.1319 47.5611H23.1807C22.9647 47.56 22.7547 47.4893 22.5821 47.3593C22.4095 47.2293 22.2835 47.047 22.2228 46.8397L19.0078 35.5903H42.3048L39.0898 46.8397Z" fill="#5441C9"/>
<path d="M49.4567 9.34387H59.3617V18.2713C59.3617 18.8109 58.9238 19.2489 58.3841 19.2489H50.4363C49.8966 19.2489 49.4587 18.8109 49.4587 18.2713V9.34387H49.4567Z" stroke="#FF5758" stroke-width="1.27102" stroke-miterlimit="10"/>
<path d="M51.7367 6.42493H57.0841C57.6238 6.42493 58.0617 6.86289 58.0617 7.40252V9.34207H50.7591V7.40252C50.7591 6.86289 51.1971 6.42493 51.7367 6.42493Z" stroke="#FF5758" stroke-width="1.27102" stroke-miterlimit="10"/>
<path d="M47.832 9.34387H60.9865" stroke="#FF5758" stroke-width="1.27102" stroke-linecap="round" stroke-linejoin="round"/>
<path d="M52.9409 12.2142V16.4609" stroke="#FF5758" stroke-width="1.27102" stroke-linecap="round" stroke-linejoin="round"/>
<path d="M55.8796 12.2142V16.4609" stroke="#FF5758" stroke-width="1.27102" stroke-linecap="round" stroke-linejoin="round"/>
<circle cx="54.4104" cy="12.8369" r="12" fill="#FDC9C9"/>
<path d="M59.712 7.53522L49.1088 18.1385" stroke="#FF5758" stroke-width="1.5" stroke-linecap="round"/>
<path d="M59.6187 18.2302L49.2021 7.44346" stroke="#FF5758" stroke-width="1.5" stroke-linecap="round"/>
</svg>
