<svg width="67" height="67" viewBox="0 0 67 67" fill="none" xmlns="http://www.w3.org/2000/svg">
<circle cx="30.5055" cy="36.0496" r="30" fill="#EFEDF9"/>
<path d="M17.8333 50.9257L17.876 47.2501C18.0603 44.0711 19.4692 41.0816 21.8146 38.8927C24.1601 36.7038 27.2649 35.4808 30.4944 35.4737C33.7239 35.4666 36.8342 36.6759 39.1895 38.8545C41.5447 41.0331 42.9671 44.0164 43.1658 47.1946L43.1775 50.9238L17.8333 50.9257ZM30.5219 37.4025C27.795 37.408 25.1722 38.435 23.1844 40.2754C21.1967 42.1159 19.9925 44.6323 19.8157 47.3152L19.7865 49.0113H41.232V47.2577C41.0428 44.5838 39.8324 42.0799 37.8449 40.2511C35.8574 38.4222 33.2405 37.4043 30.5219 37.4025Z" fill="#5840D1"/>
<path d="M30.5056 32.988C29.3204 32.9884 28.1617 32.6422 27.1761 31.9933C26.1905 31.3444 25.4222 30.4219 24.9684 29.3424C24.5146 28.2629 24.3956 27.075 24.6266 25.9289C24.8576 24.7828 25.4281 23.7299 26.266 22.9035C27.1039 22.0771 28.1716 21.5143 29.3339 21.2861C30.4963 21.058 31.7012 21.1749 32.7962 21.622C33.8912 22.0691 34.8271 22.8263 35.4856 23.7979C36.1441 24.7694 36.4955 25.9117 36.4955 27.0803C36.494 28.6463 35.8625 30.1478 34.7395 31.2553C33.6166 32.3629 32.0939 32.986 30.5056 32.988ZM30.5056 23.0888C29.7043 23.0884 28.921 23.3223 28.2546 23.761C27.5883 24.1996 27.0688 24.8233 26.762 25.5531C26.4552 26.2829 26.3749 27.086 26.5311 27.8608C26.6873 28.6356 27.0731 29.3473 27.6397 29.9059C28.2062 30.4645 28.9281 30.8449 29.7139 30.9989C30.4998 31.153 31.3143 31.0737 32.0545 30.7712C32.7947 30.4687 33.4272 29.9566 33.8721 29.2996C34.317 28.6426 34.5543 27.8702 34.5539 27.0803C34.5523 26.0221 34.1253 25.0078 33.3665 24.2595C32.6076 23.5113 31.5788 23.0903 30.5056 23.0888Z" fill="#5840D1"/>
<path d="M49.7319 8.67615H59.6369V17.6035C59.6369 18.1432 59.199 18.5811 58.6593 18.5811H50.7115C50.1719 18.5811 49.7339 18.1432 49.7339 17.6035V8.67615H49.7319Z" stroke="#FF5758" stroke-width="1.27102" stroke-miterlimit="10"/>
<path d="M52.0119 5.7572H57.3593C57.899 5.7572 58.3369 6.19516 58.3369 6.7348V8.67434H51.0343V6.7348C51.0343 6.19516 51.4723 5.7572 52.0119 5.7572Z" stroke="#FF5758" stroke-width="1.27102" stroke-miterlimit="10"/>
<path d="M48.1072 8.67615H61.2617" stroke="#FF5758" stroke-width="1.27102" stroke-linecap="round" stroke-linejoin="round"/>
<path d="M53.2161 11.5464V15.7931" stroke="#FF5758" stroke-width="1.27102" stroke-linecap="round" stroke-linejoin="round"/>
<path d="M56.1548 11.5464V15.7931" stroke="#FF5758" stroke-width="1.27102" stroke-linecap="round" stroke-linejoin="round"/>
<circle cx="54.6855" cy="12.1691" r="12" fill="#FDC9C9"/>
<path d="M59.9872 6.86743L49.3839 17.4707" stroke="#FF5758" stroke-width="1.5" stroke-linecap="round"/>
<path d="M59.8938 17.5624L49.4772 6.77567" stroke="#FF5758" stroke-width="1.5" stroke-linecap="round"/>
</svg>
