<svg xmlns="http://www.w3.org/2000/svg" width="354.94" height="205.048" viewBox="0 0 354.94 205.048">
  <g id="financial-analysis" transform="translate(-117.648 -284.98)">
    <path id="Trazado_58658" data-name="Trazado 58658" d="M149.17,473.494c16.814,11.113,39.719,17.289,67.17,16.45,57.425-1.753,96.375-33.945,115.08-69.456,17.012-32.293,17.277-67.334-.52-84.73-37.379-36.526-103.146-65.027-160.993-13.622C102.911,381.671,105.227,444.449,149.17,473.494Z" transform="translate(0 -7.387)" fill="#b8afe6"/>
    <path id="Trazado_58659" data-name="Trazado 58659" d="M1103.837,643.143c2.548-1.4,22.564-47.465,23.935-51.137,0,0,14.223,3.426,26.213-19.451s15.048-58.84-2.081-62.143-30.464,17.736-36.821,36.821-5.911,34.5,1.082,38.771c0,0-19.922,44.9-21.76,51.012C1093.818,639.016,1102.541,643.853,1103.837,643.143ZM1132.755,533c16.023-22.626,24.274-4.831,16.9,17.792-6.279,19.261-20.5,35.421-28.214,28.966C1116.742,575.817,1116.742,555.612,1132.755,533Z" transform="translate(-783.518 -180.561)" fill="#fffef2"/>
    <path id="Trazado_58660" data-name="Trazado 58660" d="M1091.651,636.377c1.513,1.224,5.778,3.879,7.972,3.879a1.641,1.641,0,0,0,.791-.17c.576-.317,1.923-1.054,12.826-25.166,5.011-11.078,9.909-22.416,11.266-25.745a17.719,17.719,0,0,0,8.354-1.321c4.764-1.887,11.772-6.674,18.1-18.755a93.43,93.43,0,0,0,9.259-29.4c1.482-10.716.689-19.962-2.235-26.031-2.192-4.55-5.481-7.281-9.78-8.11-8.073-1.559-16.153,2.014-23.362,10.33-5.78,6.668-10.951,16.306-14.561,27.134-6.346,19.035-6,34.319.791,39.432-2.682,6.051-19.75,44.643-21.475,50.391C1089.3,633.857,1089.968,635.014,1091.651,636.377Zm21.512-53.873a.965.965,0,0,0-.378-1.217c-6.569-4.021-6.838-19.152-.671-37.65,6.223-18.668,19.311-39.343,35.722-36.178,3.663.706,6.49,3.078,8.4,7.05,5.582,11.592,2.443,35.68-7,53.695-6.01,11.473-12.542,16.007-16.963,17.8a14.889,14.889,0,0,1-8.168,1.161.967.967,0,0,0-1.131.594c-1.527,4.063-20.572,47.59-23.469,50.581a14.183,14.183,0,0,1-4.453-1.956c-2.544-1.529-3.5-2.682-3.594-3.04C1093.37,627.143,1112.965,582.947,1113.163,582.5Z" transform="translate(-779.63 -176.655)" fill="#202d37"/>
    <path id="Trazado_58661" data-name="Trazado 58661" d="M1215.672,627.11a6.975,6.975,0,0,0,4.576,1.668,8.813,8.813,0,0,0,2.439-.36c8.005-2.3,17.782-15.507,22.749-30.728h0c4.435-13.61,3.452-26.046-2.285-28.928-2.495-1.252-7.932-1.583-16.327,10.286-9.1,12.858-12.415,23.842-13.588,30.788C1211.858,617.932,1212.817,624.711,1215.672,627.11Zm12.723-46.953c4.625-6.528,8.926-10.067,12.138-10.067a3.827,3.827,0,0,1,1.741.4c4.125,2.071,5.8,12.83,1.314,26.6h0c-4.7,14.424-14.114,27.367-21.433,29.474a5.379,5.379,0,0,1-5.24-.934C1213.029,622.367,1212.248,602.969,1228.4,580.157Z" transform="translate(-878.367 -227.17)" fill="#202d37"/>
    <path id="Trazado_58662" data-name="Trazado 58662" d="M323.185,546.414c-1.05,3.768-2.1,7.715-3.135,11.788,0,0-13.829-4.142-30.323,33.613-3.822,8.749-8.6,19.423-12.767,34.556,16.814,11.113,39.719,17.289,67.17,16.45,57.425-1.753,96.375-33.945,115.08-69.456a22.36,22.36,0,0,0-4.983-.653c-4.89.152-12.535,3.363-28.246,10.7-.465-.815-.856-1.26-1.145-1.219-1.618.246-9.216,3.9-14.676,5.381a11.992,11.992,0,0,1-4.269.578c-12.708-1.691-15.077,3.1-18.99,5.705-1.527,1.019-4.352,2.682-7.505,4.625l-.03-.053s-10.126-18.82-9.624-23.613c.366-3.523.817-7.088,1.327-10.625a456.806,456.806,0,0,1,9.552-46.767s21.957,9.361,23.4,7.426c.989-1.309-7.58-15.158-17.659-26.667a14.329,14.329,0,0,1-8.484-6.391c-5.072-8.156-13.038-6.967-13.038-6.967-.518,7.473-12.264,12.587-16.616,12.587-.621,1.215-4.969,4.773-6.381,3.925s.791-3.561,0-4.18a5.239,5.239,0,0,1-2.334-2.967c-7.058-4.261-13.926-3.288-15.153,1.42-1,3.853,3.195,7.766,9.891,9.206q1.131.245,2.352.4s-1.768,4.526-4.407,12.229C329.7,524.656,326.451,534.7,323.185,546.414Z" transform="translate(-127.798 -160.264)" fill="#fffef2"/>
    <path id="Trazado_58663" data-name="Trazado 58663" d="M1083.364,939.584c-4.261-5.679-19.93-10.364-24.818-10.209s-12.536,3.363-28.246,10.7l7.588,24.2c7,2.656,16.553,5.63,22.23,5.7,5.851.071,10.443-.963,10.433-7.056,4.307-.439,5.885-4.154,3.6-6.923l.036-.17c6.486,1.385,7.487-6.016,4.312-8.642C1082.624,948.341,1087.451,945.026,1083.364,939.584Z" transform="translate(-732.117 -516.921)" fill="#fffef2"/>
    <path id="Trazado_58664" data-name="Trazado 58664" d="M714.69,562.06l1.12-2.769a1.173,1.173,0,0,0-2.176-.874l-1.118,2.769a1.173,1.173,0,0,0,2.176.874Z" transform="translate(-477.127 -218.757)" fill="#202d37"/>
    <path id="Trazado_58666" data-name="Trazado 58666" d="M296.181,580.412c-3.588-.261-16.144,1.48-30.491,34.317l-.52,1.187c-5.236,11.968-12.4,28.359-17.05,54.826a.968.968,0,1,0,1.907.334c4.6-26.238,11.72-42.506,16.915-54.385l.522-1.187c8.308-19.036,15.863-27.019,20.733-30.368,5.153-3.543,8.4-2.71,8.425-2.7a.967.967,0,0,0,1.217-.69c4.267-16.891,8.939-31.452,12.108-40.7,2.6-7.59,4.378-12.144,4.4-12.187a.967.967,0,0,0-.791-1.313c-.791-.093-1.543-.22-2.263-.374-4.014-.865-7.224-2.7-8.589-4.918a3.889,3.889,0,0,1-.562-3.1,4.243,4.243,0,0,1,2.74-2.928c3.021-1.167,7.487-.2,11.657,2.52a.968.968,0,1,0,1.058-1.62c-4.682-3.058-9.821-4.095-13.414-2.706a6.191,6.191,0,0,0-3.915,4.247,5.822,5.822,0,0,0,.791,4.6c1.66,2.694,5.242,4.807,9.829,5.794q.593.127,1.219.229c-.685,1.81-2.127,5.7-3.986,11.123C304.994,549.53,300.407,563.818,296.181,580.412Z" transform="translate(-104.652 -183.56)" fill="#202d37"/>
    <path id="Trazado_58667" data-name="Trazado 58667" d="M547.842,494.7a8.284,8.284,0,0,1,5.312,1.915.971.971,0,1,0,1.582-1.125c-.7-.989-3.6-2.726-6.886-2.726h-.043a.969.969,0,0,0,0,1.937Zm48.876,18.175a.967.967,0,0,0-.512.619c-.079.3-8.079,30.368-10.9,57.542-.514,4.945,8.694,22.218,9.746,24.171a.967.967,0,1,0,1.7-.916c-2.769-5.163-9.909-19.366-9.525-23.055,2.509-24.133,9.123-50.567,10.569-56.165,1.863.779,5.986,2.473,10.166,4.02,11.1,4.109,12.648,3.6,13.356,2.661a1.782,1.782,0,0,0,.212-1.422c-.965-4.888-18.99-31.713-32.932-40.016a.968.968,0,1,0-.989,1.663c5.822,3.468,13.564,11.276,21.235,21.4,6.676,8.815,10.241,15.267,10.745,17.123-2.512.036-13.056-3.788-22.068-7.632A.965.965,0,0,0,596.719,512.87Z" transform="translate(-344.325 -156.58)" fill="#202d37"/>
    <path id="Trazado_58668" data-name="Trazado 58668" d="M504.149,626.672c4.534,4.827,12.369,9.594,21.5,13.081a71.448,71.448,0,0,0,24.745,5.064q1.22,0,2.4-.063a.969.969,0,0,0-.1-1.935c-16.719.91-38.657-8.472-47.123-17.473a.968.968,0,0,0-1.41,1.325Zm50.241-40.348a1.015,1.015,0,0,0,.285-.042c2.653-.817,6.47.012,6.508.02a.969.969,0,0,0,.421-1.891c-.178-.038-4.352-.948-7.5.02a.967.967,0,0,0,.283,1.893ZM539.346,594a.971.971,0,0,0,1.78-.776c-1.6-3.656-4.01-5.689-7.381-7.786a.968.968,0,0,0-1.023,1.644C536.379,589.354,538.112,591.164,539.346,594Zm-25.492,3.017c2.639-7.7,4.409-12.235,4.409-12.235a22.873,22.873,0,0,1-2.354-.4c-3.869,2.241-7.715,3.719-10.286,2.39C502.4,585.143,501.028,596.465,513.854,597.016Z" transform="translate(-309.469 -239.859)" fill="#202d37"/>
    <path id="Trazado_58669" data-name="Trazado 58669" d="M498.919,475.329c.635,1.812,2.967,6.065,10.947,6.407h.042a.967.967,0,0,0,.914-.653c2.6-7.59,4.378-12.144,4.4-12.187a.967.967,0,0,0-.791-1.313c-.791-.093-1.543-.22-2.263-.374a.972.972,0,0,0-.689.109c-4.364,2.526-7.517,3.321-9.37,2.374a2.141,2.141,0,0,0-2.457.265C498.47,470.975,498.169,473.188,498.919,475.329Zm2-3.921a.184.184,0,0,1,.127-.061.407.407,0,0,1,.176.057c2.492,1.286,5.964.578,10.9-2.227.281.055.566.107.853.154-.655,1.731-2,5.365-3.747,10.427-6.211-.489-8-3.679-8.484-5.068C500.2,473.125,500.5,471.778,500.921,471.408Zm18.654-6.724c1.412.847,5.76-2.712,6.381-3.925,4.352,0,16.1-5.111,16.616-12.589,0,0,7.964-1.187,13.036,6.969,4.18,6.726,13.424,9.471,16.377,2.88,2.2-4.914-6.17-1.021-7.121-3.9-1.242-3.782-.847-11.351-8.808-14.231s-14.854,2.769-14.854,2.769c-4.178-5.365-18.24-5.365-23.831,12.876-.9,2.938,1.412,4.352,2.2,4.969S518.154,463.838,519.575,464.684Z" transform="translate(-305.522 -123.612)" fill="#202d37"/>
    <path id="Trazado_58670" data-name="Trazado 58670" d="M524.843,461.554a1.952,1.952,0,0,0,1.027.267,3.3,3.3,0,0,0,.908-.138,13.813,13.813,0,0,0,5.468-3.935c4.922-.342,15.693-5.26,16.953-12.626a12.987,12.987,0,0,1,11.351,6.571c2.769,4.461,7.7,7.373,11.972,7.086a7.009,7.009,0,0,0,6.111-4.322c.2-.461.835-1.861.117-2.949-.773-1.173-2.5-1.143-4.164-1.118-1.2.02-2.842.047-3.032-.526a24.325,24.325,0,0,1-.613-2.613c-.819-4.115-1.941-9.75-8.787-12.227-6.924-2.5-12.971.953-15.034,2.374-2.259-2.261-6-3.258-9.833-2.552-3.193.593-11.054,3.363-15.062,16.446l.926.283-.926-.283c-1.023,3.335,1.385,5.159,2.316,5.851-.043.21-.152.53-.229.764C523.965,458.942,523.371,460.675,524.843,461.554Zm.989-1.65Zm-1.78-8.045c2.6-8.494,7.547-14,13.56-15.109,3.452-.635,6.9.4,8.581,2.546a.99.99,0,0,0,.657.366.967.967,0,0,0,.72-.212c.065-.053,6.577-5.26,13.91-2.607,5.82,2.1,6.777,6.923,7.549,10.785a25.768,25.768,0,0,0,.671,2.839c.635,1.929,3,1.889,4.9,1.858.754-.012,2.322-.038,2.516.249.028.043.059.362-.267,1.092a5.067,5.067,0,0,1-4.475,3.183c-3.537.239-7.823-2.36-10.2-6.178-5.341-8.6-13.649-7.467-14-7.416a.969.969,0,0,0-.823.89c-.445,6.629-11.325,11.687-15.635,11.687a.965.965,0,0,0-.86.528c-.566,1.094-4.126,3.713-5.031,3.527a4.078,4.078,0,0,1,.307-1.367c.3-.912.68-2.043-.2-2.734l-.241-.184c-1.14-.857-2.214-1.854-1.634-3.743Zm-18.213,72.257c5.612,10.053,11.276,15.1,15.157,13.491,1.187-.491,3.119-1.569,5.359-2.817,3.351-1.869,9.586-5.341,10.813-4.983.888.409,2.678,4.528,3.747,6.987,1.4,3.222,2.3,5.236,3.165,5.98a2.1,2.1,0,0,0,1.385.5,1.8,1.8,0,0,0,.251-.012c2.156-.22,4.714-3.39,5.2-4.023a.968.968,0,1,0-1.529-1.187c-.989,1.264-2.888,3.183-3.871,3.282-.127.014-.158-.014-.182-.036-.574-.493-1.729-3.147-2.655-5.282-1.962-4.512-3.258-7.3-4.712-7.972-1.654-.766-5.06.863-12.565,5.048-2.1,1.169-4.075,2.273-5.157,2.72-2.71,1.123-7.944-4.079-12.727-12.646a.967.967,0,0,0-1.689.944Z" transform="translate(-311.297 -119.652)" fill="#202d37"/>
    <path id="Trazado_58671" data-name="Trazado 58671" d="M622.824,934.375c.886.71,3.871,1.333,5.772,1.333a4.017,4.017,0,0,0,1.246-.15c1.153-.4,3.561-3.187,4.532-4.364a.969.969,0,0,0-1.489-1.238,23.021,23.021,0,0,1-3.685,3.776,12,12,0,0,1-5.167-.869c-.617-.495-1.5-3.986-2.36-7.363l-.121-.477a.969.969,0,1,0-1.877.477l.12.477C621.115,931.176,621.744,933.513,622.824,934.375Z" transform="translate(-402.686 -512.816)" fill="#202d37"/>
    <path id="Trazado_58672" data-name="Trazado 58672" d="M610.821,1000.329h.048a.967.967,0,0,0,.92-1.013c-.045-.914-1.1-22.452-1.337-30.641a.968.968,0,0,0-1.935.057c.241,8.207,1.294,29.765,1.337,30.679A.969.969,0,0,0,610.821,1000.329Zm-15.186,11.985a.965.965,0,0,0,.963-.892,244.573,244.573,0,0,1,7.715-43.475.968.968,0,0,0-1.858-.542,245.271,245.271,0,0,0-7.8,43.869.971.971,0,0,0,.892,1.039Z" transform="translate(-382.65 -546.872)" fill="#202d37"/>
    <path id="Trazado_58673" data-name="Trazado 58673" d="M588.095,1008.9a.94.94,0,0,0-.665.791c-.012.081-1.533,8.486-28.636,30a.968.968,0,1,0,1.2,1.517c24.171-19.188,28.452-28.25,29.2-30.641,1.033-.342,3.476-1.165,5.923-2.111,6.381-2.473,7.1-3.537,7.266-4.34.639-3.031-2.176-13.111-3.045-16.13-1.707-5.883-4.275-13.36-5.889-15.068a1.506,1.506,0,0,0-1.341-.564,32.72,32.72,0,0,0-4.932,1.8c-4.4,1.8-11.056,4.514-13.738,4.154-10.759-1.432-14.569,1.739-17.629,4.287a24.532,24.532,0,0,1-2.022,1.57c-1.013.677-2.645,1.666-4.532,2.813-5.539,3.363-13.119,7.968-16.828,11.6-3.794,3.719-6.156,3.986-9.424,4.352-.764.087-1.555.176-2.421.313-4.241.671-4.7,4.407-5.029,7.135-.239,1.978-.425,2.912-1.074,2.955-4.619.3-10.3,2.425-11.851,6.362-1.407,3.561-2.87,6.607-6.528,7.742-4.607,1.427-7.08,4.249-10.286,9.3a.968.968,0,0,0,1.634,1.039c3.418-5.373,5.576-7.355,9.23-8.486,4.48-1.385,6.292-5.143,7.766-8.882,1.187-3.011,6.021-4.866,10.178-5.143,2.322-.152,2.613-2.544,2.87-4.653.368-3.029.805-5.044,3.408-5.456.825-.131,1.583-.218,2.334-.3,3.377-.38,6.292-.708,10.563-4.894,3.549-3.479,11.329-8.205,16.478-11.33,1.907-1.159,3.561-2.16,4.6-2.859a26.259,26.259,0,0,0,2.176-1.693c2.914-2.427,6.217-5.179,16.136-3.855,3.193.423,9.857-2.293,14.725-4.279,1.762-.718,3.44-1.4,4.217-1.62.791.942,2.813,5.539,5.218,13.736,2.176,7.42,3.466,13.784,3.165,15.58C599.756,1004.681,593.523,1007.164,588.095,1008.9Z" transform="translate(-295.219 -551.393)" fill="#202d37"/>
    <path id="Trazado_58674" data-name="Trazado 58674" d="M957.235,972.35a.969.969,0,0,0,.894-1.337,246.954,246.954,0,0,1-10.765-30.984.968.968,0,1,0-1.879.465,249.527,249.527,0,0,0,10.854,31.255A.967.967,0,0,0,957.235,972.35Zm53.024-30.21c-3.733-1.42-5.222-2.016-5.236-2.021a.969.969,0,0,0-.72,1.8c.016,0,1.517.606,5.266,2.034a7.105,7.105,0,0,0,2.52.459,6,6,0,0,0,4.824-2.176c.688-.916,1.978-3.45-.835-7.212-4.652-6.2-20.757-10.757-25.623-10.6-5.088.161-12.943,3.46-28.626,10.795a.968.968,0,1,0,.821,1.752c15.43-7.218,23.119-10.464,27.866-10.613,4.55-.144,19.944,4.4,24.013,9.824,1.454,1.937,1.751,3.673.837,4.886C1014.379,942.385,1012.134,942.85,1010.258,942.14Z" transform="translate(-664.056 -512.949)" fill="#202d37"/>
    <path id="Trazado_58675" data-name="Trazado 58675" d="M1224.128,1021.122a.968.968,0,1,0-1.048,1.628c2.916,1.877,5.173,2.5,6.886,2.5a5.3,5.3,0,0,0,4.415-2.083,6.519,6.519,0,0,0-.989-8.435.968.968,0,1,0-1.232,1.493,4.609,4.609,0,0,1,.652,5.8C1231.334,1024.053,1228.167,1023.725,1224.128,1021.122Z" transform="translate(-886.405 -585.219)" fill="#202d37"/>
    <path id="Trazado_58676" data-name="Trazado 58676" d="M1200.65,1064.993a.967.967,0,1,0-.734,1.781,14.067,14.067,0,0,0,5.3,1.171,6.647,6.647,0,0,0,5.539-2.431,4.874,4.874,0,0,0-.342-6.132.968.968,0,0,0-1.494,1.23,2.968,2.968,0,0,1,.277,3.759C1208.118,1065.834,1205.236,1066.87,1200.65,1064.993Z" transform="translate(-867.63 -620.931)" fill="#202d37"/>
    <path id="Trazado_58677" data-name="Trazado 58677" d="M1086.968,488.507h.625c3.218,0,6.668-.356,8.8-2.459a7.5,7.5,0,0,0,1.988-5.566.971.971,0,0,0-.969-.967h0a.968.968,0,0,0-.968.969,5.6,5.6,0,0,1-1.412,4.188c-1.385,1.365-3.859,1.95-8.035,1.9-6.751-.087-18.47-4.338-21.9-5.638a.968.968,0,0,0-.686,1.81C1067.911,484.074,1079.9,488.418,1086.968,488.507Zm55.586-2.752c.94,0,2.123-.051,3.618-.17,2.834-.228,5.527-.609,5.555-.613a.968.968,0,0,0,.817-.791c3.6-20.968,2.791-56.822,2.781-57.182a.967.967,0,0,0-.684-.9,46.9,46.9,0,0,0-14.682-1.745.966.966,0,0,0-.908.89,547.984,547.984,0,0,0-.68,58.814,1.373,1.373,0,0,0,.514,1C1139.31,485.419,1140.125,485.755,1142.554,485.755Zm-2.249-1.78Zm.613-57.73a46.35,46.35,0,0,1,12.486,1.515c.093,5.1.507,36.186-2.651,55.388-4.352.582-9.22.884-10.462.485a552.118,552.118,0,0,1,.619-57.388Zm27.516,58.834c4.02,0,7.853-.156,8.094-.166a.969.969,0,0,0,.926-.91c1.927-31.979.753-63.843.742-64.161a.968.968,0,0,0-.845-.924c-.4-.051-9.723-1.219-13.416.044a.972.972,0,0,0-.653.847c-1.652,23.041-1.669,63.73-1.669,64.137a.967.967,0,0,0,.9.965C1164.219,485.041,1166.351,485.078,1168.434,485.078Zm-3.268-64.452c2.769-.609,8.308-.2,11.125.115.167,5.155.964,33.551-.718,62.268-2.188.075-8.014.239-12.023.028C1163.562,476.948,1163.7,441.765,1165.166,420.627Zm61.14,67.7h0a.965.965,0,0,0,.958-.831c3.758-26.309,4.292-68.511,4.3-68.932a.969.969,0,0,0-.562-.89,24.562,24.562,0,0,0-12.858-1.719.969.969,0,0,0-.811.833c-3.349,25.987-5.217,69.365-5.234,69.8a.967.967,0,0,0,.675.963C1214.808,488.206,1225.135,488.319,1226.307,488.33Zm-7.139-70.546a23.153,23.153,0,0,1,10.458,1.424c-.081,5.4-.767,42.767-4.154,67.188-3.808-.055-9.256-.233-11.4-.536C1214.348,479.787,1216.141,441.751,1219.167,417.784Z" transform="translate(-758.975 -34.486)" fill="#202d37"/>
    <path id="Trazado_58678" data-name="Trazado 58678" d="M1704.3,698.216s-11.252-2.791-15.851-1.642c-5.42,34.738-5.42,82.291-5.42,82.291,3.861,1.561,14.207.724,14.207.724C1698.634,772,1704.3,698.216,1704.3,698.216Z" transform="translate(-1255.728 -329.952)" fill="#5840d1"/>
    <path id="Trazado_58679" data-name="Trazado 58679" d="M1689.6,778.5c3.1,0,5.78-.212,6-.23a.412.412,0,0,0,.375-.338c1.385-7.5,6.837-78.4,7.068-81.411a.416.416,0,0,0-.315-.435c-.463-.115-11.406-2.8-16.051-1.642a.416.416,0,0,0-.309.338c-5.362,34.372-5.424,81.873-5.424,82.35a.416.416,0,0,0,.259.384C1683.128,778.3,1686.566,778.5,1689.6,778.5Zm-2.457-83.311c4.139-.851,13.175,1.187,15.034,1.622-.423,5.476-5.567,72-6.975,80.657-1.723.121-9.925.61-13.44-.621.022-4.014.287-48.769,5.38-81.658Z" transform="translate(-1254.051 -328.232)" fill="#b8afe6"/>
    <path id="Trazado_58680" data-name="Trazado 58680" d="M1570.334,360.469c11.471,4.577,25.2,2,32.321-7.715a23.4,23.4,0,0,0,2.758-4.933,28.088,28.088,0,0,0,2.008-9.374c-8.217-1.865-27.261-2.985-27.261-2.985-3.855-6.1-9.458-28.881-9.458-28.881-10.706,4.979-27.9,22.062-13.94,42.944a29.316,29.316,0,0,0,13.572,10.945Z" transform="translate(-1150.236 -17.327)" fill="#fffef2"/>
    <path id="Trazado_58681" data-name="Trazado 58681" d="M1566.051,357.479a31.97,31.97,0,0,0,11.8,2.271,30.108,30.108,0,0,0,6.569-.714,25.1,25.1,0,0,0,15.1-9.584,24.527,24.527,0,0,0,2.872-5.143,29.072,29.072,0,0,0,2.077-9.693.967.967,0,0,0-.752-.989c-7.544-1.713-23.76-2.781-26.9-2.977-3.721-6.469-9.03-27.953-9.083-28.175a.971.971,0,0,0-1.349-.647c-7.345,3.416-16.007,11.325-18.792,21.289-2.146,7.671-.647,15.43,4.461,23.071a30.3,30.3,0,0,0,14.007,11.291Zm-16.617-33.842c2.492-8.9,10-16.07,16.694-19.536,1.212,4.787,5.853,22.568,9.3,28a.966.966,0,0,0,.762.449c.182.01,17.871,1.066,26.309,2.791a26.753,26.753,0,0,1-1.885,8.235,22.483,22.483,0,0,1-2.645,4.73c-6.512,8.89-19.625,11.992-31.179,7.376a28.352,28.352,0,0,1-13.143-10.569c-4.779-7.149-6.2-14.373-4.205-21.475Z" transform="translate(-1146.313 -13.443)" fill="#202d37"/>
    <path id="Trazado_58682" data-name="Trazado 58682" d="M1678.931,469.873a23.407,23.407,0,0,0,2.758-4.933l-25.253-12.359s-6.6,12.8-9.826,25C1658.082,482.165,1671.81,479.59,1678.931,469.873Z" transform="translate(-1226.512 -134.446)" fill="#fffef2"/>
    <path id="Trazado_58683" data-name="Trazado 58683" d="M1654.162,476.832a30.088,30.088,0,0,0,6.569-.714,25.1,25.1,0,0,0,15.1-9.584,24.531,24.531,0,0,0,2.872-5.143.969.969,0,0,0-.469-1.238l-25.255-12.362a.969.969,0,0,0-1.286.425c-.065.13-6.682,13.034-9.891,25.194a.971.971,0,0,0,.575,1.147A31.973,31.973,0,0,0,1654.162,476.832Zm-1.173-26.873,23.56,11.533a22.476,22.476,0,0,1-2.282,3.9c-6.362,8.672-19.024,11.837-30.377,7.683a144.881,144.881,0,0,1,9.1-23.119Z" transform="translate(-1222.628 -130.526)" fill="#202d37"/>
    <path id="Trazado_58684" data-name="Trazado 58684" d="M1675,288.433c.607,7.517,6.8,26.588,6.8,26.588s23.552,2.128,27.441,2.109C1709.24,295.339,1692.368,282.582,1675,288.433Z" transform="translate(-1249.286 -1.631)" fill="#5840d1"/>
    <path id="Trazado_58685" data-name="Trazado 58685" d="M1680.055,313.8c.958.087,23.4,2.111,27.423,2.111h.057a.414.414,0,0,0,.412-.413c0-11.032-4.352-20.484-11.934-25.934a25.04,25.04,0,0,0-22.857-3.165.415.415,0,0,0-.281.427c.606,7.475,6.569,25.9,6.823,26.681a.413.413,0,0,0,.358.293Zm-6.33-26.7a24.162,24.162,0,0,1,21.8,3.147c7.267,5.222,11.473,14.258,11.586,24.84-4.55-.1-24.157-1.85-26.705-2.079-.734-2.281-5.982-18.812-6.674-25.912Z" transform="translate(-1247.579)" fill="#b8afe6"/>
    <path id="Trazado_58686" data-name="Trazado 58686" d="M1723.541,455.6c-8.217-1.866-27.261-2.985-27.261-2.985a85.107,85.107,0,0,0,22.5,17.287A25.887,25.887,0,0,0,1723.541,455.6Z" transform="translate(-1266.357 -134.47)" fill="#fffef2"/>
    <path id="Trazado_58687" data-name="Trazado 58687" d="M1714.41,466.825a.936.936,0,0,0,.439.107.969.969,0,0,0,.791-.4,26.8,26.8,0,0,0,4.945-14.836.966.966,0,0,0-.752-.989c-8.2-1.861-26.635-2.967-27.417-3.009a.969.969,0,0,0-.791,1.606A86.973,86.973,0,0,0,1714.41,466.825Zm4.2-14.4a24.88,24.88,0,0,1-4.053,12.286,85.148,85.148,0,0,1-19.781-14.917C1699.945,450.155,1712.06,451.088,1718.607,452.428Z" transform="translate(-1262.43 -130.531)" fill="#202d37"/>
  </g>
</svg>
