<svg xmlns="http://www.w3.org/2000/svg" xmlns:xlink="http://www.w3.org/1999/xlink" width="264.311" height="244.719" viewBox="0 0 264.311 244.719">
  <defs>
    <clipPath id="clip-path">
      <path id="Trazado_57881" data-name="Trazado 57881" d="M867.762,813.894a2.556,2.556,0,0,0-1.349,1.357,2.8,2.8,0,0,1,1.029.751s.056.049.081.046.042-.066.042-.066c.011-.041.026-.083.042-.124a1.334,1.334,0,1,1,.77,1.721,1.376,1.376,0,0,1-.153-.07c-.014-.006-.058-.023-.077-.015s-.018.054-.018.054a2.8,2.8,0,0,1-.147,1.306,2.676,2.676,0,1,0-.22-4.961" transform="translate(-866.413 -813.654)" fill="none"/>
    </clipPath>
  </defs>
  <g id="Grupo_63279" data-name="Grupo 63279" transform="translate(-586.224 -205.966)">
    <path id="Trazado_57838" data-name="Trazado 57838" d="M492.261,724.175a246.122,246.122,0,0,1-34.225,3.481,290.784,290.784,0,0,1-34.093-.686c-83.638-6.846-117.118-52.29-107.778-103.606a72.6,72.6,0,0,1,22.127-40.506C365.9,557.011,412.956,550.7,451.912,569.9A273.488,273.488,0,0,0,495.657,587c7.042,2.115,13.538,3.846,19.671,5.591,11.636,3.31,21.988,6.67,32.357,12.788a100.3,100.3,0,0,1,17.153,12.864C593.9,644.975,582,708.28,492.261,724.175" transform="translate(271.578 -277.187)" fill="#b8afe6"/>
    <path id="Trazado_57839" data-name="Trazado 57839" d="M474.4,141.341l-16.718,6.183-3.753,6.969,9.692,22.467,20.3,47.477,6.576,15.885,4.725,2.057L555.3,218.9l77.311-27.1,5.927-1.116,4.407-2.522-.953-7.8-13.556-45.9-12.757-32.477s-1.408-6.28-8.8-5.821c-6.737.418-132.478,45.174-132.478,45.174" transform="translate(154.76 110.767)" fill="#272727"/>
    <path id="Trazado_57840" data-name="Trazado 57840" d="M613.765,823.118c-.241-.762-.481-1.522-.732-2.275-.837-2.513-1.7-4.987-2.7-7.438a30.492,30.492,0,0,1-1.632-4.871,14.571,14.571,0,0,0-.823-1.267c2.392,6.445,4.283,11.646,5.888,15.851" transform="translate(25.651 -485.638)" fill="#fffef2"/>
    <path id="Trazado_57841" data-name="Trazado 57841" d="M1086.6,844.565c-1.88.58-3.728,1.262-5.552,2l-.238.1q2.912-1.057,5.876-2.122l-.086.026" transform="translate(-370.993 -516.898)" fill="#fffef2"/>
    <path id="Trazado_57842" data-name="Trazado 57842" d="M668.6,431.209c-.1-2.659-.186-6.516-.271-10.731-.161-7.743-.323-16.714-.565-21.673-.377-7.655-3.259-11.292-5.38-12.961a2.7,2.7,0,0,0-1.328-.466v-.063s-3.438-12.659-4.909-11.494c0,0-2.612-8.655-4.11-14.143S649,353.745,649,352.54c0-4.617-2.259-3.344-2.259-4.817s.389-3.01-2.154-4.483a4.415,4.415,0,0,0-1.841-.494c-1.479-4.125-2.479-4.489-4.659-4.483a15.01,15.01,0,0,0-5.23,1.15l-1.491.391c.19.239-1.049,1.181-1.157,1.567a25.478,25.478,0,0,0-1.09,3.754c-.188,1.382.361,1.881.276,3.269a16.6,16.6,0,0,0,.973,4.7c.412,1.292.581,3.554,1.237,4.732.551.99,1.607.9,2.02,1.956.32.818-.157,2.8.159,3.616a9.116,9.116,0,0,0,1.714,2.393c.657.653,1.732.2,2.357.893,1.175,1.3,1.193,2.214,1.7,3.807a26.058,26.058,0,0,0,2.662,5.374,43.107,43.107,0,0,1,2.889,5.358,17.284,17.284,0,0,1,1.21,5.924c.119,2.239-.455,4.151-2.417,5.4a21.147,21.147,0,0,1-5.942,2.123l-2.155.231a7.38,7.38,0,0,1-1.3,1.29c.681-.212,1.307-.4,1.868-.573-.187,1.789-.3,6.453-.4,12.078-.174,9.789-.319,22.5-.781,28.042h-.006c-.789,9.4-8.782,23.63-35.8,39.325q-1.515-5.162-2.973-9.661c-6.693-20.684-12.23-30.777-12.23-30.777s11.594-8.839,12.175-10.723c.54-1.762-7.948-5.292-22.454-6.576q-.32.1-.641.2c-.935.281-1.876.542-2.819.8l-1.257.343c-2.644,6.02-8.484,11.929-13.3,12.545h-.006s0,9.971-1.192,9.62c-2.438-.718-1.157-3.415-4.089-5.051-9.518-.807-16.069,10.229-5.987,11.615a25.174,25.174,0,0,0,7.837-.444s.953,3.446,2,9.061a161.051,161.051,0,0,1,2.259,17.31c.221,2.967.361,6.08.385,9.277,0,0-14.819-2.1-26.3-8.656-1.2-3.41-3.912-4.769-6.954-1.436.865-5.4-1.51-7.332-6.495-5.557.263-3.954.253-9.952-4.533-10.324-5.88-.471-10.621-1.31-13.763-11.183-.077-.088-.15-.179-.219-.273a6.919,6.919,0,0,1-2.562-.883,9.485,9.485,0,0,1-2.913-3.015,36.381,36.381,0,0,1-2.555-5.1q-.252-.545-.481-1.1a9.853,9.853,0,0,0-7.647-1.485,66.083,66.083,0,0,1-1.734-7.013c-.584-3.168-.773-4.43-3.165-4.3,3.065-3.788,2.2-9.758-.265-13.761,1.374,1.941,2.471,2.069,3.292,1.454-.012-.943.066-1.763.738-1.454.49-.951-.256-4.625-.309-5.642-.074-1.416,1.09-1.807,1.023-3.222-.063-1.329.289-.723.4-2.045a4.409,4.409,0,0,1-.667-2.148,3.47,3.47,0,0,1,.266-1.484c-.371-1.036-.881-2.044-1.233-3.062a1.131,1.131,0,0,1,.519-1.275c.027-.013.052-.021.079-.032a15.685,15.685,0,0,0-.113-3.006,4.115,4.115,0,0,1-1.733-2.435c-.273-.28-.563-.54-.847-.809-.067-.042-.084-.057-.049-.046l-.01-.009-.026-.022c-.268-.093-.553-.172-.764-.268l-.29-.139a3.951,3.951,0,0,1-3.236-1.953l-6.779,1.777c-4.125,1.413-8.348,3.615-8.947,5.3-.549,1.537-.344,5.98.111,9.979.237,2.088.545,4.056.849,5.429.886,4,2.581,13.523,2.42,18.479-1.29-.287-.6,7.269,0,16.595v2.442s-2.831,2.249-2.37,7.334c.629,6.937,5.4,11.883,7.4,16.142,4.33,9.215,12.441,26.537,24.093,37.244s31.393,22.282,58.651,23.625l.3.074a114.522,114.522,0,0,1-5.693,16.759,290.785,290.785,0,0,0,34.093.686,246.038,246.038,0,0,0,34.226-3.481l-1.036-7.566q-1.613-10.163-3.423-19.241c49.693-18.24,60.913-60.993,60.154-81.274" transform="translate(150.934 -92.294)" fill="#fffef2"/>
    <path id="Trazado_57843" data-name="Trazado 57843" d="M584.844,617.334l.046.036c.085.036.251.115.5.238a1.865,1.865,0,0,0-.549-.274" transform="translate(44.968 -326.345)" fill="#fffef2"/>
    <path id="Trazado_57844" data-name="Trazado 57844" d="M1134.436,883.031h0a1.01,1.01,0,0,1-1.322-.54v0l-1-2.386a1.012,1.012,0,0,1,1.866-.783l1,2.388a1.012,1.012,0,0,1-.542,1.323m6.39-3.893h0a1.014,1.014,0,0,1-1.323-.542l-1-2.388a1.009,1.009,0,0,1,.54-1.322h0a1.012,1.012,0,0,1,1.323.542l1,2.386a1.011,1.011,0,0,1-.541,1.324h0" transform="translate(-413.95 -542.283)" fill="#202d37"/>
    <path id="Trazado_57845" data-name="Trazado 57845" d="M724.132,1023.141h-.043a.737.737,0,0,1-.694-.778h0c.018-.313.047-.679.079-1.087.428-5.409.268-10.458-3.764-10.779-6.425-.511-11.221-1.652-14.42-11.725a.738.738,0,0,1,1.407-.445c2.926,9.216,7.1,10.219,13.13,10.7,6.057.484,5.424,8.508,5.119,12.365-.032.4-.06.753-.077,1.057a.739.739,0,0,1-.736.694" transform="translate(-56.019 -645.443)" fill="#202d37"/>
    <path id="Trazado_57846" data-name="Trazado 57846" d="M552.891,1016.441h-.037c-30.518-1.5-50.135-15.567-59.112-23.816-11.7-10.755-19.834-28.047-24.19-37.337l-.065-.137a38.515,38.515,0,0,0-2.331-4c-2.194-3.456-4.678-7.374-5.138-12.393-.408-4.5,1.6-6.956,2.36-7.713v-2.118a.743.743,0,0,1,.227-.534.731.731,0,0,1,.544-.2c4.84.233,13.828-2.826,17.208-3.978,3.954-1.346,6.895-2.013,11.57.856a.738.738,0,0,1-.773,1.257c-4.22-2.591-6.671-1.96-10.324-.716-3.594,1.223-11.776,4.009-16.981,4.067v1.691a.736.736,0,0,1-.279.577c-.1.081-2.5,2.1-2.086,6.679.423,4.664,2.809,8.421,4.912,11.738a38.77,38.77,0,0,1,2.42,4.157l.065.137c4.323,9.2,12.373,26.321,23.862,36.879,8.829,8.113,28.131,21.939,58.186,23.428a.737.737,0,0,1-.035,1.473Z" transform="translate(148.025 -582.756)" fill="#202d37"/>
    <path id="Trazado_57847" data-name="Trazado 57847" d="M1231.6,1282.347c3.138-.453,3.772,3.749.54,4.355s-3.2-3.972-.54-4.355" transform="translate(-495.827 -884.05)" fill="#fffef2"/>
    <path id="Trazado_57848" data-name="Trazado 57848" d="M986.53,1066.133a2.545,2.545,0,0,1-2.024-.9,3.109,3.109,0,0,1-.4-3.065,2.958,2.958,0,0,1,2.349-1.915,2.907,2.907,0,0,1,3.483,2.329,3.058,3.058,0,0,1-2.7,3.479,3.782,3.782,0,0,1-.7.068m.131-4.418a1.484,1.484,0,0,0-1.184.986,1.67,1.67,0,0,0,.161,1.592,1.309,1.309,0,0,0,1.321.323c1.215-.228,1.637-1.061,1.516-1.787a1.429,1.429,0,0,0-1.816-1.113Zm-29.149-40.7c-4.231,6.15-13.228,10.433-17.319,4.883-3.3-4.473,1.207-10.352,7.484-13.5a25.23,25.23,0,0,0,7.837-.445c0,.008.953,3.447,2,9.06" transform="translate(-252.124 -657.306)" fill="#202d37"/>
    <path id="Trazado_57849" data-name="Trazado 57849" d="M941.545,880.177a6.932,6.932,0,0,1-5.807-2.867,6.271,6.271,0,0,1-1.058-5.339c.807-3.388,4.194-6.937,8.8-9.257a.73.73,0,0,1,.429-.071,24.654,24.654,0,0,0,7.6-.439.737.737,0,0,1,.847.528c.01.036.968,3.549,2.012,9.123a.735.735,0,0,1-.118.552c-3.1,4.5-8.268,7.7-12.568,7.771Zm2.4-16.043c-4.075,2.1-7.14,5.289-7.832,8.18a4.777,4.777,0,0,0,.807,4.12,5.441,5.441,0,0,0,4.615,2.268h.124c3.71-.061,8.389-2.941,11.2-6.883-.748-3.975-1.452-6.83-1.757-8.045A25.566,25.566,0,0,1,943.947,864.134Zm-.15-5.627a.737.737,0,0,1-.344-1.391,15.336,15.336,0,0,1,6.327-1.279.738.738,0,0,1-.1,1.471,13.877,13.877,0,0,0-5.537,1.113.722.722,0,0,1-.342.086m24.745-24.243c-2.557,6.161-8.55,12.3-13.456,12.933,0,0,0,9.971-1.2,9.619-2.457-.726-1.129-3.462-4.162-5.093-.645-.345-.363-6.011.707-10.892,5.814-2.15,11.925-4.362,18.107-6.567" transform="translate(-248.264 -508.28)" fill="#202d37"/>
    <path id="Trazado_57850" data-name="Trazado 57850" d="M1027.63,735.823a.977.977,0,0,1-.269-.039,3.444,3.444,0,0,1-2.323-2.581,3.973,3.973,0,0,0-1.981-2.565c-.339-.184-.907-.484-.673-4.438a49.023,49.023,0,0,1,1.01-7.259.732.732,0,0,1,.463-.532c5.5-2.034,11.594-4.246,18.115-6.571a.737.737,0,0,1,.929.968c-2.347,5.657-8.045,12.152-13.4,13.273-.01.826-.037,2.362-.121,3.927-.247,4.565-.731,5.295-1.166,5.619a.953.953,0,0,1-.579.2m-3.71-6.4a5.414,5.414,0,0,1,2.505,3.272c.285.789.474,1.249.968,1.52a44.872,44.872,0,0,0,.63-8.758.736.736,0,0,1,.646-.731c4.033-.518,9.3-5.348,12.144-10.916-5.745,2.055-11.139,4.014-16.064,5.833-.936,4.475-1.1,8.868-.831,9.778Zm48.349,40.622a.737.737,0,0,1-.371-1.375c29.438-17.1,34.835-31.619,35.434-38.749.389-4.678.555-14.585.7-23.333.129-7.785.242-14.509.484-16.806a.737.737,0,1,1,1.469.125c0,.009,0,.018,0,.027-.232,2.234-.349,9.252-.473,16.68-.147,8.769-.311,18.713-.7,23.43-.621,7.421-6.146,22.464-36.163,39.9a.731.731,0,0,1-.372.1" transform="translate(-321.942 -386.541)" fill="#202d37"/>
    <path id="Trazado_57851" data-name="Trazado 57851" d="M1145.507,753.993a.737.737,0,0,1-.255-1.429c21.749-7.979,38.1-21.283,48.611-39.539,10.97-19.066,11.239-36.207,11.06-41.006-.123-3.27-.224-8.321-.323-13.67-.142-7.075-.289-14.393-.5-18.728-.358-7.232-2.972-10.744-5.1-12.422-1.412-1.108-7.9.456-12.21,1.494-1.1.263-2.133.513-3.083.724a.737.737,0,0,1-.323-1.439c.938-.21,1.968-.457,3.065-.72,6.73-1.613,11.635-2.659,13.465-1.22,2.372,1.863,5.277,5.717,5.663,13.5.216,4.356.363,11.684.5,18.771.106,5.341.208,10.387.322,13.644.183,4.9-.087,22.39-11.255,41.795a86.4,86.4,0,0,1-18.686,22.52,99.571,99.571,0,0,1-30.7,17.669.741.741,0,0,1-.258.05m-32.852-61.939c-2.349,1.966-5.224,3.3-7.45,2.447-2.407-.928-4.305-3.341-5.377-5.856-1.139-2.678-1.34-5.469-.216-6.684,1.689-1.829,4.205,1.736,8.749,1.926,3.92.161,7.39-.508,8.361.957.928,1.4-1.168,4.783-4.066,7.209" transform="translate(-386.131 -333.074)" fill="#202d37"/>
    <path id="Trazado_57852" data-name="Trazado 57852" d="M1103.095,983.614a4.984,4.984,0,0,1-1.8-.32c-2.411-.93-4.64-3.336-5.961-6.44-1.378-3.238-1.41-6.259-.081-7.694s2.9-.638,4.583.189a12.322,12.322,0,0,0,5.01,1.553c1.144.048,2.235.025,3.29,0,2.78-.056,4.982-.1,5.919,1.329,1.28,1.93-1.2,5.8-4.333,8.423-2.317,1.936-4.642,2.961-6.63,2.961M1097,969.9a.8.8,0,0,0-.629.291c-.88.951-.727,3.5.364,6.068a10.123,10.123,0,0,0,5.109,5.618c1.738.665,4.318-.226,6.908-2.393,3.21-2.684,4.559-5.646,4.042-6.418-.48-.726-2.491-.684-4.624-.641-1.026.022-2.191.045-3.383,0a13.731,13.731,0,0,1-5.616-1.706A6.066,6.066,0,0,0,1097,969.9" transform="translate(-382.286 -620.751)" fill="#202d37"/>
    <path id="Trazado_57853" data-name="Trazado 57853" d="M1117.667,1018.267c-2.349,1.966-5.224,3.3-7.45,2.447-2.407-.928-4.305-3.341-5.377-5.856,4.173-1.177,9.518-.6,12.827,3.409" transform="translate(-391.142 -659.287)" fill="#fffef2"/>
    <path id="Trazado_57854" data-name="Trazado 57854" d="M1544.64,393.847a.739.739,0,0,1-.706-.524c-.026-.087-2.634-8.729-4.115-14.164a17.5,17.5,0,0,0-2.362-5.562,3.171,3.171,0,0,1-.705-1.775c0-2.529-.681-2.931-1.228-3.254a1.7,1.7,0,0,1-1.034-1.562c0-.181,0-.361.012-.542a2.971,2.971,0,0,0-1.8-3.3,3.743,3.743,0,0,0-1.532-.4,19.468,19.468,0,0,0-9.408,2.318,5.237,5.237,0,0,0-2.208,3.686,12.957,12.957,0,0,0-.2,2.007c-.053,1.657,0,1.687,1.015,2.2a.737.737,0,0,1-.639,1.328l-.033-.017c-1.579-.807-1.884-1.408-1.817-3.562a14.336,14.336,0,0,1,.223-2.229,6.7,6.7,0,0,1,2.857-4.656,21.03,21.03,0,0,1,10.325-2.549,5.11,5.11,0,0,1,2.15.592,4.37,4.37,0,0,1,2.529,4.625c0,.161-.011.332-.011.5a.212.212,0,0,0,.011.092,1.686,1.686,0,0,0,.3.2c.987.582,1.953,1.413,1.953,4.517,0,.234.144.466.468.968a19.107,19.107,0,0,1,2.546,5.969c1.476,5.416,4.078,14.035,4.1,14.124a.737.737,0,0,1-.492.919h0a.767.767,0,0,1-.207.052" transform="translate(-737.548 -111.581)" fill="#202d37"/>
    <path id="Trazado_57855" data-name="Trazado 57855" d="M1526.23,409.735a.8.8,0,0,1-.216-.032c-1.658-.508-3.336-1.716-3.065-3.585a13.713,13.713,0,0,1,.629-2.512,17.794,17.794,0,0,1,2.11-4.268c1.04-1.386,3.249-1.963,7.877-2.057a.726.726,0,0,1,.751.7c0,.007,0,.014,0,.022a.734.734,0,0,1-.716.751h0c-5.036.1-6.227.807-6.727,1.468a16.512,16.512,0,0,0-1.9,3.872,12.154,12.154,0,0,0-.563,2.236c-.172,1.225,1.673,1.854,2.046,1.968a.737.737,0,0,1-.216,1.442Z" transform="translate(-741.778 -141.791)" fill="#202d37"/>
    <path id="Trazado_57856" data-name="Trazado 57856" d="M1541.077,446.086a3.227,3.227,0,0,1-1.192-.242,8.5,8.5,0,0,1-4.184-5.091c-.539-2.536,3.152-7.784,3.191-7.833.628-.837,2.392-1.158,5.4-.984a.738.738,0,1,1-.086,1.473c-3.572-.21-4.128.39-4.135.4-.807,1.086-3.243,5.151-2.927,6.642a7.159,7.159,0,0,0,3.289,4.033,1.319,1.319,0,0,0,1.347-.089.737.737,0,0,1,.866,1.194l-.033.023a2.671,2.671,0,0,1-1.534.479" transform="translate(-752.452 -170.817)" fill="#202d37"/>
    <path id="Trazado_57857" data-name="Trazado 57857" d="M654.76,496.85a.723.723,0,0,1-.34-.084c-5.145-2.681-5.193-10.134-3.972-14.49a.737.737,0,0,1,1.42.4c-1.091,3.893-1.129,10.508,3.226,12.785a.737.737,0,0,1-.342,1.39ZM473.813,559.537a.734.734,0,0,1-.734-.689q-.111-1.694-.219-3.293c-.657-9.76-.784-12.988.216-13.848a1.014,1.014,0,0,1,.9-.226,7.151,7.151,0,0,1,1.066.382c1.737.715,4.972,2.044,10.647.645,2.957-.724,4.667-.958,5.807-.228,1.1.708,1.349,2.054,1.765,4.283l.034.189a66.5,66.5,0,0,0,1.713,6.925.737.737,0,1,1-1.393.482c0-.012-.008-.024-.012-.037a66.516,66.516,0,0,1-1.757-7.1l-.035-.189c-.331-1.775-.55-2.951-1.115-3.315-.669-.432-2.342-.144-4.648.421-6.141,1.505-9.8,0-11.557-.719-.184-.076-.353-.147-.5-.2-.387,1.452,0,7.259.35,12.43.073,1.065.147,2.168.219,3.3a.737.737,0,0,1-.689.782Z" transform="translate(139.318 -212.624)" fill="#202d37"/>
    <path id="Trazado_57858" data-name="Trazado 57858" d="M458.375,643.342h-.027a.737.737,0,0,1-.71-.763c.169-4.856-1.542-14.419-2.4-18.29s-1.85-13.244-.937-15.809c.984-2.776,9.226-6.161,14.09-7a9.511,9.511,0,0,1,8.769,4.185,4.725,4.725,0,0,1-.035,5.54.737.737,0,0,1-1.17-.9,3.352,3.352,0,0,0-.057-3.872,7.618,7.618,0,0,0-7.259-3.494c-5.162.894-12.307,4.225-12.951,6.043-.744,2.1.073,10.883.986,15,.69,3.125,2.62,13.262,2.431,18.661a.736.736,0,0,1-.728.7" transform="translate(154.76 -313.026)" fill="#202d37"/>
    <path id="Trazado_57859" data-name="Trazado 57859" d="M514.269,646.582a.737.737,0,0,1-.31-1.407,1.25,1.25,0,0,0,.645-1.129c-.015-.782-2.342-4.517-3.894-5.354-1.354-.734-6.087-.7-11.665.623a.737.737,0,0,1-.377-1.425l.037-.009c4.7-1.116,10.576-1.642,12.709-.484,1.9,1.032,4.648,5.174,4.665,6.632a2.714,2.714,0,0,1-1.505,2.491.722.722,0,0,1-.3.063m-3.263,26.747a.737.737,0,0,1-.573-1.2c3.214-3.96,1.757-11.042-1.694-14.73a.738.738,0,0,1,1.078-1.008c3.872,4.14,5.548,12,1.762,16.667a.735.735,0,0,1-.573.273" transform="translate(117.702 -342.625)" fill="#202d37"/>
    <path id="Trazado_57860" data-name="Trazado 57860" d="M531.742,678.926a.739.739,0,0,1-.445-1.326,3.355,3.355,0,0,0,1.328-2.634c-.124-.983-4.123-5.014-5.564-5.358-1.231-.295-4.033,0-7.5,1.3a.738.738,0,0,1-.52-1.381c3.359-1.265,6.563-1.784,8.36-1.355s6.453,4.777,6.683,6.606c.292,2.308-1.812,3.928-1.9,4a.735.735,0,0,1-.445.15" transform="translate(100.554 -368.86)" fill="#202d37"/>
    <path id="Trazado_57861" data-name="Trazado 57861" d="M462.337,175.454a.737.737,0,0,1-.681-.453c-1.6-3.83-3.055-7.132-4.344-10.047-4.119-9.316-6.387-14.45-4.775-18.371,1.37-3.335,5.485-5.5,12.117-8.113,14.386-5.664,71.285-24.961,105.282-36.49,9.082-3.081,16.256-5.514,20.549-6.985,1.452-.5,2.786-.968,4.07-1.415,7.809-2.742,12.112-4.244,15.449-2.618,3.288,1.6,5.28,6.116,8.5,15.624,5.462,16.124,8.941,23.258,9.583,24.521a.737.737,0,1,1-1.3.7l-.018-.035c-.646-1.281-4.17-8.5-9.665-24.717-3.023-8.921-4.953-13.407-7.751-14.772s-6.878.079-14.315,2.686c-1.29.452-2.618.918-4.08,1.418-4.294,1.471-11.468,3.906-20.552,6.985-33.984,11.526-90.863,30.812-105.216,36.468-7.213,2.839-10.273,4.819-11.292,7.3-1.371,3.34.807,8.268,4.76,17.214,1.291,2.92,2.755,6.232,4.356,10.075a.739.739,0,0,1-.4.967h0a.73.73,0,0,1-.282.056" transform="translate(156.37 115.677)" fill="#202d37"/>
    <path id="Trazado_57862" data-name="Trazado 57862" d="M743.75,346.257H743.7a2.311,2.311,0,0,1-2.125-2.07c-.187-1.437-.042-5.122,1.6-7.347,1.542-2.086,6.158-3.141,8.308-3.147h.034c2.61,0,3.81.761,5.324,4.972a.737.737,0,1,1-1.378.526l-.009-.027c-1.436-4-2.226-4-3.962-4-2.115,0-6.04,1.079-7.127,2.551-1.291,1.742-1.5,4.949-1.328,6.277a.837.837,0,0,0,.763.79.732.732,0,0,1,.688.775v0a.744.744,0,0,1-.745.692M611.705,442.3a6.5,6.5,0,0,1-2.42-.408c-2.139-.848-2.886-2.873-3.607-4.83-.257-.7-.521-1.415-.85-2.1-1.952-4.1-4.07-9.841-7.277-18.529-1.118-3.038-2.386-6.474-3.8-10.257a.737.737,0,1,1,1.381-.518c1.42,3.789,2.688,7.227,3.807,10.262,3.184,8.647,5.3,14.365,7.216,18.4.358.752.636,1.5.9,2.228.692,1.88,1.241,3.364,2.768,3.972,2.75,1.091,8.734-.737,18.831-5.758,6.391-3.178,18.41-8.035,35.719-14.44,5.5-2.034,11.594-4.246,18.115-6.57,30.812-10.983,63.468-21.778,69.613-23.417,4.065-1.084,6.017-2.126,6.738-3.594,1.129-2.284-.507-6.175-3.464-13.241q-.453-1.082-.944-2.258a.737.737,0,0,1,1.361-.566q.484,1.181.944,2.258c3.123,7.464,4.84,11.576,3.426,14.461-.944,1.922-3.1,3.146-7.682,4.369-6.13,1.634-38.717,12.41-69.5,23.382-6.514,2.325-12.609,4.528-18.094,6.561-17.261,6.387-29.231,11.223-35.576,14.378-8.535,4.241-14.067,6.214-17.616,6.214" transform="translate(37.534 -88.462)" fill="#202d37"/>
    <path id="Trazado_57863" data-name="Trazado 57863" d="M1469.035,593.956a.322.322,0,0,0,.108-.016,3.983,3.983,0,0,1,1.1-.059c.032,0,.044.011.048.047.044.424.091.847.137,1.27a.178.178,0,0,1,0,.039c-.03,0-.059-.008-.087-.014a2.806,2.806,0,0,0-1.376.107,1.3,1.3,0,0,0-.48.26.631.631,0,0,0-.153.2.372.372,0,0,0,.136.492,1.039,1.039,0,0,0,.26.121,6,6,0,0,0,.723.171,3.133,3.133,0,0,1,.925.312,1.493,1.493,0,0,1,.662.687,1.872,1.872,0,0,1,.166.8,1.929,1.929,0,0,1-.59,1.37,3.045,3.045,0,0,1-.9.62,4.257,4.257,0,0,1-.822.29,5.145,5.145,0,0,1-1.536.153c-.053,0-.1-.011-.154-.016-.019,0-.021-.011-.026-.03q-.069-.631-.139-1.262c0-.037-.009-.074-.013-.113a.1.1,0,0,1,.05,0,4.628,4.628,0,0,0,.827.086,3.186,3.186,0,0,0,1.063-.195,1.156,1.156,0,0,0,.447-.281.551.551,0,0,0,.167-.32.447.447,0,0,0-.217-.455,1.574,1.574,0,0,0-.471-.182c-.19-.049-.384-.078-.575-.122a3.042,3.042,0,0,1-.878-.328,1.439,1.439,0,0,1-.6-.644,1.7,1.7,0,0,1-.144-.786,1.9,1.9,0,0,1,.483-1.17,2.922,2.922,0,0,1,.974-.726,3.9,3.9,0,0,1,.427-.175c.007,0,.015,0,.017-.012Z" transform="translate(-694.614 -306.663)" fill="#fff"/>
    <path id="Trazado_57864" data-name="Trazado 57864" d="M1402.409,612.537a.246.246,0,0,0,0-.083.025.025,0,0,1,.023-.03l.022-.006,2.419-.669a1.224,1.224,0,0,1,.29-.045.592.592,0,0,1,.582.348c.285.562.566,1.128.848,1.691l.421.841c0,.012.009.024.013.036l-.013-.014a4.655,4.655,0,0,0-.463-.538,5.072,5.072,0,0,0-2.179-1.262.64.64,0,0,0-.134-.033.007.007,0,0,0-.008-.005,5.255,5.255,0,0,0-.616-.131,6.854,6.854,0,0,0-1.183-.079l-.015,0Z" transform="translate(-640.707 -321.621)" fill="#ccc"/>
    <path id="Trazado_57865" data-name="Trazado 57865" d="M1502.288,591.27l-.039.011-1.357.375a.042.042,0,0,1-.06-.025c-.133-.262-.267-.524-.4-.786-.01-.021-.021-.024-.042-.018l-1.937.536c-.025.007-.028.02-.029.041-.024.307-.048.614-.071.921a.038.038,0,0,1-.033.042l-1.571.434-.023.006a.063.063,0,0,1,0-.035l.784-6.112a.736.736,0,0,1,.359-.577,1.336,1.336,0,0,1,.321-.13l1.153-.319a.044.044,0,0,1,.059.024l1.422,2.762,1.346,2.614.12.233m-3.754-1.249.015,0,1.245-.344c.026-.007.025-.014.014-.036q-.5-.965-.99-1.93l-.084-.16c-.057.833-.134,1.652-.2,2.474" transform="translate(-719.808 -299.759)" fill="#fff"/>
    <path id="Trazado_57866" data-name="Trazado 57866" d="M1413.737,606.434a.645.645,0,0,1,.134.033,5.074,5.074,0,0,1,2.18,1.259,4.655,4.655,0,0,1,.464.538c0,.006.008.009.013.014.144.263.271.536.411.8.015-.007.009-.022.01-.033q.128-1.452.253-2.907.066-.755.13-1.51a.047.047,0,0,1,.039-.049l1.56-.431c.044-.012.044-.012.039.034q-.385,3.286-.771,6.572a.051.051,0,0,1-.045.05l-1.559.431a.047.047,0,0,1-.064-.025q-.718-1.231-1.438-2.461l-1.335-2.284a.063.063,0,0,1-.016-.034" transform="translate(-650.208 -315.282)" fill="#fff"/>
    <path id="Trazado_57867" data-name="Trazado 57867" d="M1451.556,606.882l-.737.2c-.026.007-.038.011-.042-.026q-.09-.843-.183-1.685-.078-.713-.158-1.425-.072-.662-.144-1.324-.086-.783-.17-1.567c-.007-.062-.011-.124-.021-.185-.007-.029,0-.038.034-.047l.939-.26.536-.148c.03-.008.04-.011.044.029q.1.881.194,1.762.11,1.025.222,2.051.1.941.206,1.884c.018.16.034.321.054.481,0,.039-.008.047-.04.056l-.731.2" transform="translate(-680.705 -312.155)" fill="#fff"/>
    <path id="Trazado_57868" data-name="Trazado 57868" d="M1413.81,618.711s.007,0,.008.005-.007,0-.008-.005" transform="translate(-650.27 -327.5)" fill="#00579e"/>
    <path id="Trazado_57869" data-name="Trazado 57869" d="M857.162,859.271c.15.627-.238,1.124-.936,1.428l-.715.311.156.648-.927.4-.6-2.494,1.642-.715c.7-.3,1.228-.208,1.381.418m-.926.435c-.047-.192-.2-.208-.366-.135l-.638.278.126.531L856,860.1a.335.335,0,0,0,.238-.394Z" transform="translate(-180.884 -528.763)" fill="#fff"/>
    <path id="Trazado_57870" data-name="Trazado 57870" d="M874.513,854.082l-1.053.458-.067.462-.96.418.551-3,1.006-.438,1.751,1.993-.972.423Zm-.4-.5-.438-.545-.115.782Z" transform="translate(-196.227 -523.142)" fill="#fff"/>
    <path id="Trazado_57871" data-name="Trazado 57871" d="M885.823,843.544l.71.7.273-1.126,1.012-.441-.639,2.128.2.82-.927.4-.2-.819-1.442-1.222Z" transform="translate(-206.608 -515.335)" fill="#fff"/>
    <path id="Trazado_57872" data-name="Trazado 57872" d="M737.5,873.524a.179.179,0,0,0,.1-.211,2.669,2.669,0,0,0-3.283-1.863,2.592,2.592,0,0,0-.358.127,2.676,2.676,0,0,0-.5.287,2.521,2.521,0,0,0-.834.995c-.046.1-.088.208-.132.314a2.661,2.661,0,0,0,.247,2.232,2.664,2.664,0,0,0,4.763-.4l-1.08-.425a.18.18,0,0,0-.225.087,1.255,1.255,0,0,1-.451.488,1.365,1.365,0,0,1-1.3.079,1.3,1.3,0,0,1-.291-.187.036.036,0,0,1,0-.051.039.039,0,0,1,.013-.01Zm-3.756.619a.036.036,0,0,1-.056-.032,1.3,1.3,0,0,1,.09-.576,1.277,1.277,0,0,1,.709-.731,1.331,1.331,0,0,1,.458-.11,1.382,1.382,0,0,1,1.041.413.036.036,0,0,1,0,.051.031.031,0,0,1-.011.007Z" transform="translate(-78.743 -539.386)" fill="#fff"/>
    <path id="Trazado_57873" data-name="Trazado 57873" d="M763.318,850.576a1.065,1.065,0,0,1,.528-.084.143.143,0,0,0,.147-.089l.427-1.087a2.316,2.316,0,0,0-2.943,3.093l.005.012,1.809,4.154,1.113-.485a.142.142,0,0,0,.073-.187l-.914-2.1-.063-.145,1.253-.546L764.269,852a.142.142,0,0,0-.187-.074l-1.121.488-.221-.508a1.067,1.067,0,0,1,.577-1.333" transform="translate(-103.008 -520.779)" fill="#fff"/>
    <path id="Trazado_57874" data-name="Trazado 57874" d="M789.386,850.929a.179.179,0,0,0,.1-.211,2.669,2.669,0,0,0-3.283-1.863,2.629,2.629,0,0,0-.359.127,2.677,2.677,0,0,0-.5.287,2.523,2.523,0,0,0-.835,1c-.046.1-.088.208-.132.314a2.661,2.661,0,0,0,.247,2.232,2.664,2.664,0,0,0,4.763-.4l-1.079-.425a.18.18,0,0,0-.224.087,1.256,1.256,0,0,1-.451.488,1.365,1.365,0,0,1-1.3.079,1.3,1.3,0,0,1-.291-.187.036.036,0,0,1,0-.051.038.038,0,0,1,.013-.01Zm-3.757.619a.036.036,0,0,1-.05-.01.035.035,0,0,1-.006-.022,1.3,1.3,0,0,1,.09-.576,1.278,1.278,0,0,1,.709-.731,1.335,1.335,0,0,1,.459-.11,1.379,1.379,0,0,1,1.041.414.036.036,0,0,1,0,.051l-.011.007Z" transform="translate(-122.261 -520.436)" fill="#fff"/>
    <path id="Trazado_57875" data-name="Trazado 57875" d="M843.635,828.732a2.668,2.668,0,1,1,2.043-.036,2.573,2.573,0,0,1-2.043.036m2.215-1.994a1.333,1.333,0,1,0-.708.735,1.282,1.282,0,0,0,.708-.735" transform="translate(-170.649 -499.312)" fill="#fff"/>
    <path id="Trazado_57876" data-name="Trazado 57876" d="M869.767,813.755a2.66,2.66,0,0,0-3.39,1.411,2.8,2.8,0,0,1,1.029.751s.056.049.081.046.042-.066.042-.066c.011-.042.026-.083.041-.124a1.334,1.334,0,1,1,.77,1.721,1.355,1.355,0,0,1-.153-.069c-.013-.006-.058-.023-.077-.015s-.018.054-.018.054a2.8,2.8,0,0,1-.147,1.306,2.668,2.668,0,0,0,1.821-5.015" transform="translate(-191.148 -490.924)" fill="#fff"/>
    <path id="Trazado_57877" data-name="Trazado 57877" d="M807.913,833.27l.992-.432a.148.148,0,0,1,.153.023l2.286,1.942a.055.055,0,0,0,.078-.005.053.053,0,0,0,.014-.035l.134-3a.148.148,0,0,1,.09-.129l.991-.431a.151.151,0,0,1,.2.082.158.158,0,0,1,.011.065l-.247,5.466a.341.341,0,0,1-.565.246l-4.169-3.543a.151.151,0,0,1-.019-.213.149.149,0,0,1,.053-.041" transform="translate(-142.042 -505.707)" fill="#fff"/>
    <path id="Trazado_57878" data-name="Trazado 57878" d="M813.32,812.671l-.175,2.607-.279-.23a.164.164,0,0,1-.06-.137l.151-2.206a.164.164,0,0,1,.267-.116Z" transform="translate(-146.219 -490.071)" fill="#fff"/>
    <path id="Trazado_57879" data-name="Trazado 57879" d="M818.327,816.071l-.147,2.2a.164.164,0,0,1-.174.153.161.161,0,0,1-.094-.037l-.751-.624.175-2.608.932.774a.164.164,0,0,1,.058.137" transform="translate(-149.872 -492.258)" fill="#fff"/>
    <path id="Trazado_57880" data-name="Trazado 57880" d="M869.8,813.839a2.66,2.66,0,0,0-3.39,1.411,2.808,2.808,0,0,1,1.029.751s.055.049.081.046.042-.066.042-.066c.011-.042.026-.083.042-.125a1.334,1.334,0,1,1,.77,1.722,1.459,1.459,0,0,1-.153-.069.13.13,0,0,0-.077-.015c-.02.008-.018.054-.018.054a2.8,2.8,0,0,1-.147,1.306,2.668,2.668,0,0,0,1.821-5.015" transform="translate(-191.178 -490.995)" fill="#fff"/>
    <g id="Grupo_59239" data-name="Grupo 59239" transform="translate(675.235 322.659)">
      <g id="Grupo_59238" data-name="Grupo 59238" clip-path="url(#clip-path)">
        <rect id="Rectángulo_13996" data-name="Rectángulo 13996" width="10.668" height="10.668" transform="translate(-3.508 -0.052) rotate(-23.531)" fill="#fff"/>
      </g>
    </g>
    <path id="Trazado_57882" data-name="Trazado 57882" d="M474.9,493.913c-.354.155-.715.294-1.074.413l-8.972-20.482c.334-.184.681-.355,1.032-.509a11.233,11.233,0,1,1,9.014,20.577" transform="translate(145.598 -204.76)" fill="#14bba9"/>
    <path id="Trazado_57883" data-name="Trazado 57883" d="M503.868,447.231a11.218,11.218,0,1,1,.173,8.6,10.818,10.818,0,0,1-.173-8.6m8.41,9.31a5.6,5.6,0,1,0-3.1-2.968,5.394,5.394,0,0,0,3.1,2.968" transform="translate(113.558 -177.665)" fill="#3e3d3d"/>
    <path id="Trazado_57884" data-name="Trazado 57884" d="M1044.881,190.461a13.207,13.207,0,0,1-10.383-.528,13.371,13.371,0,0,1-4.266-3.087,13.064,13.064,0,0,1-2.643-4.507l6.429-2.255a6.388,6.388,0,0,0,3.459,3.788,6.849,6.849,0,0,0,9.079-3.185,6.411,6.411,0,0,0,.321-5.115l6.43-2.256a13.11,13.11,0,0,1,.756,5.169,13.367,13.367,0,0,1-1.394,5.071,13.623,13.623,0,0,1-3.179,4.244,13.763,13.763,0,0,1-4.61,2.661" transform="translate(-326.354 46.044)" fill="#07cc80"/>
    <path id="Trazado_57885" data-name="Trazado 57885" d="M1252.406,253.328a11.9,11.9,0,1,1-.347,9.118,11.489,11.489,0,0,1,.347-9.118" transform="translate(-513.959 -15.207)" fill="#546eeb"/>
    <path id="Trazado_57886" data-name="Trazado 57886" d="M1321.7,227.649a11.9,11.9,0,1,1-.347,9.118,11.488,11.488,0,0,1,.347-9.118m8.346,10.38a5.946,5.946,0,1,0-3.1-3.335,5.724,5.724,0,0,0,3.1,3.335" transform="translate(-572.076 6.329)" fill="#3e3d3d"/>
    <path id="Trazado_57887" data-name="Trazado 57887" d="M625.325,835.317l-.243.082-1.9-5.41.242-.085a5.393,5.393,0,0,0,3.2-2.914,5.778,5.778,0,0,0-2.674-7.631,5.411,5.411,0,0,0-4.314-.266l-.242.085-1.9-5.41.239-.084a11.084,11.084,0,0,1,4.363-.641,11.255,11.255,0,0,1,4.272,1.169,11.455,11.455,0,0,1,3.565,2.676,12.1,12.1,0,0,1,2.91,8.295,11.466,11.466,0,0,1-1.113,4.314,11.25,11.25,0,0,1-2.6,3.591,11.052,11.052,0,0,1-3.8,2.228" transform="translate(17.583 -490.47)" fill="#7a57f7"/>
    <path id="Trazado_57888" data-name="Trazado 57888" d="M1151.155,525.681a12.714,12.714,0,1,1-9.719-.709,12.267,12.267,0,0,1,9.719.709" transform="translate(-414.485 -248.309)" fill="#14bba9"/>
    <path id="Trazado_57889" data-name="Trazado 57889" d="M1149.386,611.4a12.714,12.714,0,1,1-9.719-.709,12.268,12.268,0,0,1,9.719.709m-11.392,8.516a6.334,6.334,0,1,0,3.673-3.188,6.11,6.11,0,0,0-3.673,3.188" transform="translate(-413.001 -320.197)" fill="#3e3d3d"/>
    <path id="Trazado_57890" data-name="Trazado 57890" d="M596.023,503.845c-1.41,0-2.379-.968-3.767-3.71a111.361,111.361,0,0,1-4.267-10.386c-1.291-3.864,2.5-5.672,3.746-6.267,5.79-2.763,14.152-5.856,18.171-7.342l.376-.139c4.623-1.71,6.733-2.491,9.013,2.436,2.42,5.228,3.872,9.334,4.264,10.468.369,1.076.75,2.189-.358,3.309-.87.879-2.686,1.763-5.948,3.189-6.63,2.9-13.431,5.848-17.364,7.332-.213.079-.415.161-.608.231a10.141,10.141,0,0,1-3.257.879m-6.635-14.57c.619,1.862,2.865,7.574,4.185,10.187.944,1.871,1.537,2.673,2.115,2.862s1.583-.179,3.065-.745l.613-.232c3.9-1.471,10.683-4.414,17.3-7.3,2.951-1.291,4.8-2.173,5.485-2.875.4-.4.4-.655.01-1.794s-1.818-5.162-4.207-10.324c-1.024-2.215-1.733-2.742-2.481-2.872-1-.161-2.465.379-4.678,1.2l-.376.139c-4,1.479-12.318,4.556-18.047,7.29-2.705,1.291-3.6,2.628-2.983,4.47Z" transform="translate(42.552 -206.713)" fill="#202d37"/>
    <path id="Trazado_57891" data-name="Trazado 57891" d="M626.692,492.926c-.373-1.087-.91-2.551-1.591-4.257-.6-1.489-1.3-3.168-2.1-4.946-.176-.392-.36-.792-.545-1.194-1.989-4.3-3.4-3.786-8.087-2.054-1.166.431-2.815,1.039-4.712,1.755-3.318,1.257-7.4,2.851-10.984,4.427-.968.429-1.913.855-2.791,1.273-2.35,1.129-4.262,2.673-3.365,5.369.176.527.461,1.308.807,2.221.618,1.613,1.434,3.649,2.2,5.409.442,1.021.866,1.95,1.223,2.657,2.147,4.257,2.8,3.71,6.713,2.242,1.029-.387,2.259-.878,3.634-1.444,2.838-1.163,6.291-2.647,9.858-4.194,1.273-.552,2.557-1.113,3.838-1.671,6.619-2.9,6.676-3.347,5.9-5.593" transform="translate(38.719 -210.497)" fill="#fad932"/>
    <path id="Trazado_57892" data-name="Trazado 57892" d="M636.164,516.986a.767.767,0,0,1-.169-.019.737.737,0,0,1-.549-.887h0c1.129-4.732-1.092-13.47-8.026-16.9a.737.737,0,0,1,.547-1.369.725.725,0,0,1,.1.048,16.3,16.3,0,0,1,7.729,8.642,17.055,17.055,0,0,1,1.087,9.916.74.74,0,0,1-.718.568m9.86-4.2a.739.739,0,0,1-.714-.553c-1.989-7.726-4.6-14.177-7.174-17.7a.737.737,0,0,1,1.176-.889l.015.02c3.8,5.211,6.453,14.464,7.421,18.2a.741.741,0,0,1-.531.9.81.81,0,0,1-.192.023" transform="translate(9.65 -222.362)" fill="#202d37"/>
    <path id="Trazado_57893" data-name="Trazado 57893" d="M594.873,515.921a.737.737,0,0,1-.292-1.415c6.329-2.71,25.877-10.407,29.71-11.81a.737.737,0,1,1,.512,1.382l0,0c-3.823,1.4-23.325,9.078-29.637,11.776a.7.7,0,0,1-.289.065m2.2,5.406a.737.737,0,0,1-.3-1.41c8.066-3.617,20.793-8.892,29.609-12.272a.737.737,0,1,1,.572,1.359l-.044.017c-8.794,3.372-21.491,8.634-29.533,12.241a.734.734,0,0,1-.3.064" transform="translate(37.177 -230.162)" fill="#202d37"/>
    <path id="Trazado_57813" data-name="Trazado 57813" d="M915.117,940.312a.745.745,0,0,1-.736-.628c-5.441-34.23-12.746-59.048-17.916-73.839-5.592-16-9.949-24-9.985-24.081a.743.743,0,0,1,.2-.951c5.57-4.24,11.533-9.259,12.03-10.422-.15-.361-1.526-1.559-6.206-2.952a86.18,86.18,0,0,0-17.192-2.893.745.745,0,1,1,.114-1.486c13.772,1.057,22.89,4.1,24.476,6.429a1.472,1.472,0,0,1,.251,1.3c-.578,1.874-8.819,8.339-12.069,10.831a192.457,192.457,0,0,1,9.786,23.737c5.191,14.842,12.522,39.759,17.982,74.1a.744.744,0,0,1-.62.853A.707.707,0,0,1,915.117,940.312ZM898.723,830.425Zm-38.986,60.224a.746.746,0,0,1-.1,0c-.152-.021-15.257-2.21-26.849-8.841a.747.747,0,0,1-.326-.4c-.564-1.6-1.468-2.646-2.474-2.851s-2.132.37-3.3,1.656a.745.745,0,0,1-1.287-.622c.387-2.405.1-4.077-.815-4.85-1.142-.949-3.218-.489-4.758.054a.745.745,0,0,1-.5-1.4c2.773-.988,4.862-.918,6.212.2,1.054.876,1.563,2.321,1.523,4.307a4.143,4.143,0,0,1,3.233-.8c1.492.3,2.722,1.561,3.484,3.552,9.735,5.495,21.918,7.828,25.223,8.388a157.409,157.409,0,0,0-2.645-25.869c-.776-4.175-1.51-7.176-1.833-8.442a25.014,25.014,0,0,1-7.478.326c-3.626-.49-4.976-2.109-5.472-3.373-.677-1.729-.163-3.813,1.4-5.718a12.181,12.181,0,0,1,11.493-3.968.746.746,0,0,1-.266,1.468,10.662,10.662,0,0,0-10.076,3.448c-1.2,1.453-1.631,3.034-1.164,4.227.5,1.28,1.982,2.12,4.285,2.438a24.977,24.977,0,0,0,7.685-.444.745.745,0,0,1,.856.533c.01.036.979,3.588,2.034,9.223a157.367,157.367,0,0,1,2.68,27.01.746.746,0,0,1-.745.752Z" transform="translate(-151.926 -498.915)" fill="#202d37"/>
    <path id="Trazado_57894" data-name="Trazado 57894" d="M1106.744,635.38a4.76,4.76,0,0,1-1.719-.306,11.127,11.127,0,0,1-5.7-6.155.719.719,0,0,1,.013-.6.729.729,0,0,1,.457-.386c4.085-1.152,9.743-.814,13.374,3.59a.724.724,0,0,1-.094,1.017C1110.865,634.4,1108.644,635.38,1106.744,635.38Zm-5.713-6.253a9.287,9.287,0,0,0,4.521,4.593c1.53.589,3.747-.09,6.02-1.82-2.954-3.081-7.191-3.493-10.548-2.773Zm97.019-62.649a.723.723,0,0,1-.7-.535c-1.235-4.545-3.016-9.714-3.92-10.738-4.444,3.48-8.2,4.841-12.855,4.685a.725.725,0,1,1,.047-1.449c4.365.144,7.893-1.176,12.154-4.563a1.047,1.047,0,0,1,.992-.178c.689.227,1.566,1.151,3.307,6.334.928,2.763,1.673,5.5,1.68,5.528a.726.726,0,0,1-.708.916Z" transform="translate(-385.761 -272.796)" fill="#202d37"/>
    <path id="Trazado_57816" data-name="Trazado 57816" d="M986.384,1193a.656.656,0,0,1-.274-.06.667.667,0,0,1-.333-.876c2.436-5.371,6.221-16.325,6.609-22.781a.668.668,0,0,1,1.333.08c-.4,6.694-4.177,17.625-6.726,23.249A.671.671,0,0,1,986.384,1193Zm17.533-62.645c-2.21,0-4.341-.08-6.335-.226a.668.668,0,0,1,.1-1.332,82.6,82.6,0,0,0,20.121-.936c6.732-1.219,12.042-3.319,15.355-6.073a.667.667,0,1,1,.854,1.022C1027.246,1128.439,1014.687,1130.359,1003.917,1130.359Zm18.967,15.42c-2.373,0-15.7-6.307-21.791-10.344a.668.668,0,1,1,.73-1.113c6.617,4.381,19.453,10.125,20.982,10.125h0c.438-.215,1.989-1.944,5.222-7.167a81.854,81.854,0,0,0,4.923-8.867.668.668,0,0,1,1.246.482,83.86,83.86,0,0,1-5.187,9.335c-4.581,7.365-5.583,7.49-6.011,7.543C1022.96,1145.776,1022.922,1145.778,1022.884,1145.779ZM1022.792,1144.465Z" transform="translate(-289.736 -744.581)" fill="#202d37"/>
    <path id="Trazado_57895" data-name="Trazado 57895" d="M543.375,447.855c-.973,0-1.929-.777-2.907-2.36a.63.63,0,0,1,1.071-.663c.744,1.2,1.45,1.839,1.944,1.753.641-.113,1.284-1.444,1.536-2.665.329-1.6.4-2.674-2.146-4.691-2.814-2.226-3.526-1.943-5.886-1l-.344.138a.63.63,0,1,1-.462-1.171l.34-.138c2.668-1.061,3.88-1.389,7.133,1.186,3.044,2.41,2.989,4.045,2.6,5.934-.114.551-.774,3.336-2.55,3.651A1.873,1.873,0,0,1,543.375,447.855Z" transform="translate(87.513 -129.487)" fill="#202d37"/>
  </g>
</svg>
